<?xml version="1.0" encoding="UTF-8"?>
<svg version="1.1" xmlns="http://www.w3.org/2000/svg" width="64" height="64">
<path d="M0 0 C1.2065625 0.0309375 1.2065625 0.0309375 2.4375 0.0625 C2.7675 1.0525 3.0975 2.0425 3.4375 3.0625 C3.84784988 2.57452438 4.25819977 2.08654877 4.6809845 1.58378601 C6.82682431 -0.27468667 7.74402469 -0.30390131 10.54174805 -0.27807617 C11.7726844 -0.27773628 11.7726844 -0.27773628 13.02848816 -0.27738953 C13.90982925 -0.26190567 14.79117035 -0.24642181 15.69921875 -0.23046875 C17.05790825 -0.22410149 17.05790825 -0.22410149 18.44404602 -0.21760559 C21.33799933 -0.20080848 24.23125706 -0.1631545 27.125 -0.125 C29.08657849 -0.10995449 31.04816789 -0.09626585 33.00976562 -0.08398438 C37.81927856 -0.05090157 42.62827133 0.00088778 47.4375 0.0625 C47.93475147 1.33459146 48.42694259 2.60866175 48.91699219 3.88354492 C49.19162292 4.59282639 49.46625366 5.30210785 49.74920654 6.03288269 C50.60213536 8.54797137 50.77196325 10.72707713 50.6875 13.375 C50.67203125 14.19613281 50.6565625 15.01726563 50.640625 15.86328125 C50.4375 18.0625 50.4375 18.0625 49.4375 21.0625 C49.36902181 22.72788961 49.35267883 24.3958526 49.375 26.0625 C49.38402344 26.92875 49.39304688 27.795 49.40234375 28.6875 C49.41394531 29.47125 49.42554688 30.255 49.4375 31.0625 C49.4375 32.0525 49.4375 33.0425 49.4375 34.0625 C51.0875 33.0725 52.7375 32.0825 54.4375 31.0625 C54.4375 41.9525 54.4375 52.8425 54.4375 64.0625 C33.3175 64.0625 12.1975 64.0625 -9.5625 64.0625 C-9.5625 55.75815217 -9.5625 55.75815217 -6.5625 51.0625 C-6.77476173 48.72762102 -7.36843959 47.3728513 -8.60546875 45.39453125 C-9.94113721 42.13986157 -9.75234587 39.31417715 -9.6875 35.8125 C-9.66945313 34.54921875 -9.65140625 33.2859375 -9.6328125 31.984375 C-9.59800781 30.53804687 -9.59800781 30.53804687 -9.5625 29.0625 C-7.2525 31.0425 -4.9425 33.0225 -2.5625 35.0625 C-2.97113853 31.13957014 -3.54104333 27.92870296 -5.125 24.3125 C-7.66729527 17.85031104 -7.48716361 10.93054086 -5.125 4.4375 C-3.1056704 0.07574806 -3.1056704 0.07574806 0 0 Z " fill="#470F05" transform="translate(9.5625,-0.0625)"/>
<path d="M0 0 C0.33 0 0.66 0 1 0 C1.36553191 5.97035448 1.06679706 10.7286015 -2 16 C-2.71349609 17.22783203 -2.71349609 17.22783203 -3.44140625 18.48046875 C-6.97808784 24.03576675 -10.09876839 27.24930029 -16.1796875 29.8671875 C-18.20064669 30.86260572 -18.20064669 30.86260572 -18.7578125 33.1328125 C-18.83773437 33.74898437 -18.91765625 34.36515625 -19 35 C-20.7290774 35.02725341 -22.45828176 35.04650987 -24.1875 35.0625 C-25.15042969 35.07410156 -26.11335938 35.08570313 -27.10546875 35.09765625 C-30 35 -30 35 -32.75 34.40625 C-33.4925 34.2721875 -34.235 34.138125 -35 34 C-36.8354799 35.33378575 -36.8354799 35.33378575 -38 37 C-40.9719385 35.87548273 -43.33440687 34.77706209 -46 33 C-46.28875 33.763125 -46.5775 34.52625 -46.875 35.3125 C-48 38 -48 38 -50 41 C-52.625 41.1875 -52.625 41.1875 -55 41 C-55.2864876 35.36574385 -55.07526814 32.81346318 -52 28 C-52.21226173 25.66512102 -52.80593959 24.3103513 -54.04296875 22.33203125 C-55.37863721 19.07736157 -55.18984587 16.25167715 -55.125 12.75 C-55.10695312 11.48671875 -55.08890625 10.2234375 -55.0703125 8.921875 C-55.03550781 7.47554687 -55.03550781 7.47554687 -55 6 C-52.69 7.98 -50.38 9.96 -48 12 C-48 10.02 -48 8.04 -48 6 C-43.2482602 6.43197635 -41.07999946 7.32769295 -38 11 C-38.99 11 -39.98 11 -41 11 C-40.34 12.32 -39.68 13.64 -39 15 C-37.4221875 14.9690625 -37.4221875 14.9690625 -35.8125 14.9375 C-32 15 -32 15 -29.3125 15.5625 C-26.83606542 16.03101465 -25.36684269 15.78894756 -23 15 C-24.32 15 -25.64 15 -27 15 C-25.80745486 11.60583308 -24.89269596 9.19052703 -22 7 C-19.53470226 6.38152809 -17.18718453 5.89353634 -14.6875 5.5 C-6.7051092 4.25460162 -6.7051092 4.25460162 0 0 Z " fill="#470F05" transform="translate(55,23)"/>
<path d="M0 0 C1.2065625 0.0309375 1.2065625 0.0309375 2.4375 0.0625 C2.7675 1.0525 3.0975 2.0425 3.4375 3.0625 C4.02881714 2.32906372 4.02881714 2.32906372 4.63208008 1.58081055 C6.99123662 -0.40317789 8.27406999 -0.285926 11.32421875 -0.23046875 C12.7309082 -0.2159668 12.7309082 -0.2159668 14.16601562 -0.20117188 C15.14248047 -0.17603516 16.11894531 -0.15089844 17.125 -0.125 C18.11306641 -0.11146484 19.10113281 -0.09792969 20.11914062 -0.08398438 C22.55914231 -0.04862203 24.99804719 0.00072967 27.4375 0.0625 C27.09976563 0.57039063 26.76203125 1.07828125 26.4140625 1.6015625 C21.42716748 9.29809989 20.04833995 15.96889267 19.31445312 24.9609375 C18.90099588 29.16255703 18.43008576 31.98021821 15.4375 35.0625 C12.69364982 33.85520592 10.5661522 32.36369456 8.25 30.5 C4.22110797 27.52212328 0.34502658 27.18490996 -4.5625 27.0625 C-7.75225332 18.09131878 -7.56589244 9.70982767 -3.5625 1.0625 C-2.5625 0.0625 -2.5625 0.0625 0 0 Z " fill="#5D2415" transform="translate(9.5625,-0.0625)"/>
<path d="M0 0 C1.45428437 0.0396623 2.90799128 0.11093049 4.359375 0.2109375 C5.10445312 0.23800781 5.84953125 0.26507812 6.6171875 0.29296875 C8.44916493 0.36342942 10.27964651 0.47104757 12.109375 0.5859375 C14.6226034 6.10440197 15.69980908 9.48478536 15.109375 15.5859375 C13.66120234 19.20636914 12.53522137 20.33224179 9.171875 22.3359375 C6.109375 23.5859375 6.109375 23.5859375 4.1640625 24.06640625 C2.06737426 24.59655746 0.17130526 25.32886906 -1.828125 26.1484375 C-4.97598333 27.36051005 -7.47883539 27.90579278 -10.890625 27.5859375 C-11.33774489 18.64353966 -10.95212615 1.64941659 0 0 Z " fill="#5A2112" transform="translate(42.890625,-0.5859375)"/>
<path d="M0 0 C0.33 0 0.66 0 1 0 C1 6.6 1 13.2 1 20 C-18.47 20 -37.94 20 -58 20 C-56.68 17.36 -55.36 14.72 -54 12 C-52.68 12.66 -51.36 13.32 -50 14 C-48.00339546 14.89582173 -48.00339546 14.89582173 -46 15 C-45.525625 14.505 -45.05125 14.01 -44.5625 13.5 C-44.046875 13.005 -43.53125 12.51 -43 12 C-41.32353076 12.27989245 -39.65733725 12.62300912 -38 13 C-30.60778505 13.88482573 -25.95718771 13.135815 -19.97265625 8.60546875 C-19.32167969 8.07566406 -18.67070313 7.54585937 -18 7 C-16.6691618 5.99668177 -15.33655564 4.9956891 -14 4 C-14 6.31 -14 8.62 -14 11 C-10.18702097 10.74361944 -8.45683494 10.4537325 -5.69921875 7.71484375 C-5.03535156 6.79832031 -4.37148438 5.88179687 -3.6875 4.9375 C-2.46952183 3.28336965 -1.24339584 1.63511004 0 0 Z " fill="#141719" transform="translate(63,44)"/>
<path d="M0 0 C2.31 1.98 4.62 3.96 7 6 C7 4.02 7 2.04 7 0 C11.7517398 0.43197635 13.92000054 1.32769295 17 5 C16.01 5 15.02 5 14 5 C14.66 6.32 15.32 7.64 16 9 C17.5778125 8.9690625 17.5778125 8.9690625 19.1875 8.9375 C22.35647078 8.98945034 24.93148362 9.35399655 28 10 C31.72259541 10.27238503 33.75559434 9.7791902 37 8 C37.70125 7.87625 38.4025 7.7525 39.125 7.625 C41.21059622 7.15459658 41.21059622 7.15459658 42.25 4.9375 C42.4975 4.298125 42.745 3.65875 43 3 C44.32 3.33 45.64 3.66 47 4 C46.57777632 6.74445392 46.27845045 8.58802465 45 11 C38.00689844 16.10511518 30.37280026 16.47434837 22 16 C18.25 15 18.25 15 16 14 C15.67 15.65 15.34 17.3 15 19 C13.68 18.01 12.36 17.02 11 16 C10.34 16.66 9.68 17.32 9 18 C8.40251953 17.07767578 8.40251953 17.07767578 7.79296875 16.13671875 C7.26316406 15.32847656 6.73335938 14.52023438 6.1875 13.6875 C5.66542969 12.88699219 5.14335938 12.08648437 4.60546875 11.26171875 C3.11214763 9.00194448 3.11214763 9.00194448 1.3125 7.40625 C0 6 0 6 -0.1875 2.8125 C-0.125625 1.884375 -0.06375 0.95625 0 0 Z " fill="#6B482C" transform="translate(0,29)"/>
<path d="M0 0 C2.31 0.33 4.62 0.66 7 1 C8.82386796 4.87571943 9.57499397 7.72861623 9 12 C5.633833 19.93932616 5.633833 19.93932616 2.0625 22.2578125 C-0.96644714 23.34777454 -3.81475645 23.12250937 -7 23 C-6.54850884 14.53064854 -5.82720503 6.65966289 0 0 Z " fill="#784129" transform="translate(39,0)"/>
<path d="M0 0 C0.66 0.33 1.32 0.66 2 1 C1.38125 1.94875 0.7625 2.8975 0.125 3.875 C-4.1168774 11.35093286 -4.32191853 19.59434959 -4 28 C-1.69 28.33 0.62 28.66 3 29 C3 29.33 3 29.66 3 30 C1.4221875 30.0309375 1.4221875 30.0309375 -0.1875 30.0625 C-4.8283289 31.20368743 -5.72053721 32.61770738 -8.15234375 36.50390625 C-8.43207031 36.99761719 -8.71179688 37.49132813 -9 38 C-6.525 37.505 -6.525 37.505 -4 37 C-4 37.99 -4 38.98 -4 40 C-13.39473684 40.18421053 -13.39473684 40.18421053 -18 39 C-18.721875 38.9175 -19.44375 38.835 -20.1875 38.75 C-22 38 -22 38 -23.25 35.4375 C-23.4975 34.633125 -23.745 33.82875 -24 33 C-23.01 33 -22.02 33 -21 33 C-24.3 31.35 -27.6 29.7 -31 28 C-27 27 -27 27 -23 28 C-23 24.04 -23 20.08 -23 16 C-22.67 16 -22.34 16 -22 16 C-22.00902344 16.79664062 -22.01804687 17.59328125 -22.02734375 18.4140625 C-21.98499762 24.64141902 -21.98499762 24.64141902 -19.4453125 30.1328125 C-16.14794137 33.09710662 -16.14794137 33.09710662 -12 34 C-9.55835629 30.33753443 -9.4861387 27.19167711 -9.125 22.9375 C-8.31156552 14.93929136 -7.1345103 7.65692869 -1.75 1.375 C-1.1725 0.92125 -0.595 0.4675 0 0 Z " fill="#48170A" transform="translate(37,0)"/>
<path d="M0 0 C0.33 0 0.66 0 1 0 C1 6.6 1 13.2 1 20 C-12.2 20 -25.4 20 -39 20 C-35.74169441 16.74169441 -35.30419533 16.5940244 -31 16.3125 C-30.03191406 16.24546875 -29.06382813 16.1784375 -28.06640625 16.109375 C-24.10962532 15.96824141 -20.17110908 16.0182529 -16.21484375 16.16015625 C-13.79152647 16.22770468 -13.79152647 16.22770468 -12 14 C-12 13.01 -12 12.02 -12 11 C-11.25234375 10.76539063 -10.5046875 10.53078125 -9.734375 10.2890625 C-6.52735305 8.77718072 -5.30128181 7.23408747 -3.25 4.375 C-2.18313235 2.90457807 -1.10420692 1.44259291 0 0 Z " fill="#090B0D" transform="translate(63,44)"/>
<path d="M0 0 C1.2077558 3.62326739 0.54311128 4.64146369 -1 8 C-0.34 8 0.32 8 1 8 C-0.34546275 13.97983445 -3.62977249 17.88417243 -8 22 C-12.96875 25 -12.96875 25 -16 25 C-16 21.75 -16 21.75 -15 18 C-13.00883355 16.74264705 -10.98953933 15.93322233 -8.8125 15.04296875 C-6.61128814 14.05045747 -6.61128814 14.05045747 -6 10.75 C-6 9.8425 -6 8.935 -6 8 C-6.99 8 -7.98 8 -9 8 C-9.45375 8.825 -9.9075 9.65 -10.375 10.5 C-10.91125 11.325 -11.4475 12.15 -12 13 C-14.5 13.3125 -14.5 13.3125 -17 13 C-17.99 13 -18.98 13 -20 13 C-21.32 13 -22.64 13 -24 13 C-22.80691428 9.60429448 -21.89523287 7.18937031 -19 5 C-16.49214592 4.35805783 -14.10620681 3.84966342 -11.5625 3.4375 C-5.54428684 2.45523702 -5.54428684 2.45523702 0 0 Z " fill="#927A47" transform="translate(52,25)"/>
<path d="M0 0 C1.90845703 0.04060547 1.90845703 0.04060547 3.85546875 0.08203125 C5.31919922 0.13423828 5.31919922 0.13423828 6.8125 0.1875 C6.049375 0.93 5.28625 1.6725 4.5 2.4375 C-1.68520496 8.76654694 -2.29362026 13.1235237 -2.3203125 21.78515625 C-2.19484161 24.05470328 -1.82086779 26.01092657 -1.1875 28.1875 C-5.35201811 26.53904492 -5.35201811 26.53904492 -7.1875 24.1875 C-8.42419678 17.03574962 -7.70091862 10.51165351 -4.1875 4.1875 C-3.8575 3.5275 -3.5275 2.8675 -3.1875 2.1875 C-8.16531636 6.16975309 -9.82173814 10.71124254 -11.9765625 16.640625 C-12.37617188 17.48109375 -12.77578125 18.3215625 -13.1875 19.1875 C-14.1775 19.5175 -15.1675 19.8475 -16.1875 20.1875 C-16.5175 20.8475 -16.8475 21.5075 -17.1875 22.1875 C-16.88121398 14.07092054 -13.49119635 7.99287651 -8.94140625 1.375 C-6.09239258 -0.55395357 -3.36937315 -0.09273504 0 0 Z " fill="#AC6F44" transform="translate(23.1875,-0.1875)"/>
<path d="M0 0 C0.76514303 5.94166626 1.16801591 10.9455653 -1.86328125 16.27734375 C-7.64543726 23.47901433 -7.64543726 23.47901433 -11.234375 24.859375 C-12.10835937 24.92898437 -12.10835937 24.92898437 -13 25 C-14 24 -14 24 -14.3125 20.9375 C-13.65413493 12.64210015 -8.78719486 6.71592398 -3 1 C-1 0 -1 0 0 0 Z " fill="#5D2414" transform="translate(64,31)"/>
<path d="M0 0 C0.99 0.33 1.98 0.66 3 1 C2.38125 1.969375 1.7625 2.93875 1.125 3.9375 C-2.08286785 9.57110538 -2.90288613 15.42322562 -3.375 21.8125 C-3.68047721 25.10934843 -3.88655407 25.85905202 -6.0625 28.5625 C-6.701875 29.036875 -7.34125 29.51125 -8 30 C-9.32 28.68 -10.64 27.36 -12 26 C-11.01 26 -10.02 26 -9 26 C-9.33 25.34 -9.66 24.68 -10 24 C-10.59747124 16.27455798 -10.06359792 10.28851798 -5 4.1875 C-3.3390746 2.30650199 -2.25087333 1.12543667 0 0 Z " fill="#733D27" transform="translate(30,0)"/>
<path d="M0 0 C1.32 0.33 2.64 0.66 4 1 C3.57777632 3.74445392 3.27845045 5.58802465 2 8 C-3.09014285 11.71591422 -8.71846384 13.14906344 -14.9375 13.1875 C-16.49791016 13.20876953 -16.49791016 13.20876953 -18.08984375 13.23046875 C-20.95046613 13.00392282 -22.57670151 12.47733619 -25 11 C-24.1875 9.0625 -24.1875 9.0625 -23 7 C-19.62232606 5.87410869 -18.39725091 6.27201766 -15 7 C-11.27740459 7.27238503 -9.24440566 6.7791902 -6 5 C-5.29875 4.87625 -4.5975 4.7525 -3.875 4.625 C-1.78940378 4.15459658 -1.78940378 4.15459658 -0.75 1.9375 C-0.5025 1.298125 -0.255 0.65875 0 0 Z " fill="#B9A575" transform="translate(43,32)"/>
<path d="M0 0 C1.65 0.33 3.3 0.66 5 1 C7.28819266 6.72048165 8.2245107 11.93872325 5.875 17.8125 C3.54526841 20.53052018 1.29889649 21.66640355 -2 23 C-2.66 23 -3.32 23 -4 23 C-3.71125 22.154375 -3.4225 21.30875 -3.125 20.4375 C-2.75375 19.303125 -2.3825 18.16875 -2 17 C-1.62875 15.9275 -1.2575 14.855 -0.875 13.75 C0.21138126 9.0940803 0.17222143 4.75522501 0 0 Z " fill="#5D2414" transform="translate(51,0)"/>
<path d="M0 0 C0.33 0 0.66 0 1 0 C1.36553191 5.97035448 1.06679706 10.7286015 -2 16 C-2.47566406 16.81855469 -2.95132813 17.63710938 -3.44140625 18.48046875 C-7.37861967 24.66490839 -11.26793102 28.09956212 -18 31 C-18.33 29.68 -18.66 28.36 -19 27 C-18.11248047 26.56300781 -18.11248047 26.56300781 -17.20703125 26.1171875 C-10.16608218 22.46462338 -5.53709673 18.84193534 -3 11 C-3.66 10.67 -4.32 10.34 -5 10 C-4.34 8.35 -3.68 6.7 -3 5 C-2.34 5 -1.68 5 -1 5 C-0.67 3.35 -0.34 1.7 0 0 Z " fill="#5C2314" transform="translate(55,23)"/>
<path d="M0 0 C0.33 0.66 0.66 1.32 1 2 C-1.96007097 8.67120472 -6.54464424 13.65625054 -13.375 16.3125 C-14.674375 16.6528125 -14.674375 16.6528125 -16 17 C-16.1875 13.8125 -16.1875 13.8125 -15 10 C-11.5228434 7.81867816 -7.85685321 6.37880914 -4 5 C-4 3.68 -4 2.36 -4 1 C-2.68 0.67 -1.36 0.34 0 0 Z " fill="#794229" transform="translate(52,33)"/>
<path d="M0 0 C2.88575819 0.39803561 3.82189513 0.79009069 5.75 3.0625 C6.36875 4.0215625 6.36875 4.0215625 7 5 C5.51887086 7.82359938 4.01271839 10.51946058 2 13 C-0.8125 13.5 -0.8125 13.5 -3 13 C-3.27429625 7.60550707 -3.36055646 4.48074195 0 0 Z " fill="#B10000" transform="translate(3,51)"/>
<path d="M0 0 C0 0.66 0 1.32 0 2 C-0.60714844 2.23203125 -1.21429688 2.4640625 -1.83984375 2.703125 C-4.5867979 4.35229096 -5.23542805 5.85934822 -6.5625 8.75 C-6.98015625 9.63945312 -7.3978125 10.52890625 -7.828125 11.4453125 C-8.21484375 12.28835938 -8.6015625 13.13140625 -9 14 C-9.59846032 15.2111697 -10.20142541 16.42014538 -10.8125 17.625 C-11.204375 18.40875 -11.59625 19.1925 -12 20 C-12.66 20 -13.32 20 -14 20 C-14.33 20.66 -14.66 21.32 -15 22 C-14.70123996 14.08285884 -11.59310056 7.26393519 -6.47265625 1.1875 C-4.3501506 -0.52401649 -2.63786963 -0.21388132 0 0 Z " fill="#A2663F" transform="translate(21,0)"/>
<path d="M0 0 C1.32 0 2.64 0 4 0 C4 0.66 4 1.32 4 2 C7.3 2 10.6 2 14 2 C13.67 3.65 13.34 5.3 13 7 C11.41676312 7.027193 9.83338938 7.04648306 8.25 7.0625 C6.92742188 7.07990234 6.92742188 7.07990234 5.578125 7.09765625 C3.2181162 7.00826198 1.25501476 6.66912821 -1 6 C-0.67 4.02 -0.34 2.04 0 0 Z " fill="#80482D" transform="translate(18,44)"/>
<path d="M0 0 C1.32 0.66 2.64 1.32 4 2 C7.0580351 3.06918192 7.0580351 3.06918192 10 2 C10.33 3.98 10.66 5.96 11 8 C6.05 8 1.1 8 -4 8 C-2.68 5.36 -1.36 2.72 0 0 Z " fill="#141719" transform="translate(9,56)"/>
<path d="M0 0 C1.32 0 2.64 0 4 0 C3.74337755 1.44010481 3.46909179 2.8770687 3.1875 4.3125 C3.03667969 5.11300781 2.88585937 5.91351563 2.73046875 6.73828125 C1.90954112 9.28008392 0.85317774 10.14682226 -1 12 C-1.57017808 14.04100238 -1.57017808 14.04100238 -1.6875 16.1875 C-1.790625 17.445625 -1.89375 18.70375 -2 20 C-2.66 20 -3.32 20 -4 20 C-4.35309809 12.88572728 -4.01004614 7.50169966 -1 1 C-0.67 0.67 -0.34 0.34 0 0 Z " fill="#622C1D" transform="translate(7,0)"/>
<path d="M0 0 C1.12588014 0.95729916 2.2506715 1.91587895 3.375 2.875 C4.00148438 3.40867188 4.62796875 3.94234375 5.2734375 4.4921875 C6.55836651 5.61432007 7.79371975 6.79371975 9 8 C9.845625 8.825 10.69125 9.65 11.5625 10.5 C14 13 14 13 15 15 C13.35 14.67 11.7 14.34 10 14 C9.67 15.32 9.34 16.64 9 18 C8.40251953 17.07767578 8.40251953 17.07767578 7.79296875 16.13671875 C7.26316406 15.32847656 6.73335938 14.52023438 6.1875 13.6875 C5.66542969 12.88699219 5.14335938 12.08648437 4.60546875 11.26171875 C3.11214763 9.00194448 3.11214763 9.00194448 1.3125 7.40625 C0 6 0 6 -0.1875 2.8125 C-0.125625 1.884375 -0.06375 0.95625 0 0 Z " fill="#9A5E3A" transform="translate(0,29)"/>
<path d="M0 0 C3.97638733 2.8718353 6.51530859 5.76682204 9 10 C9 10.66 9 11.32 9 12 C9.66 12 10.32 12 11 12 C11.66 13.32 12.32 14.64 13 16 C9.12979331 14.88194029 6.71218579 13.9704892 4 11 C3.01 10.67 2.02 10.34 1 10 C-0.60725635 6.78548731 -0.05748185 3.56387464 0 0 Z " fill="#703A25" transform="translate(0,35)"/>
<path d="M0 0 C0.69140625 1.80078125 0.69140625 1.80078125 1 4 C-0.22265625 5.60546875 -0.22265625 5.60546875 -2.0625 7.1875 C-6.18179094 10.99246754 -9.06069681 15.25189485 -12 20 C-13 17 -13 17 -11.5 13.3125 C-8.88523128 8.37552409 -5.10826323 2.55413161 0 0 Z " fill="#9F633D" transform="translate(63,31)"/>
<path d="M0 0 C0.99 0.33 1.98 0.66 3 1 C4.66767502 5.9196413 5.72510402 9.93969488 4 15 C1.4375 17.375 1.4375 17.375 -1 19 C-2.36223546 16.27552909 -1.35357753 14.92402465 -0.48046875 12.15234375 C0.41283816 8.15061928 0.14764334 4.07659656 0 0 Z " fill="#763F28" transform="translate(51,0)"/>
<path d="M0 0 C0.66 0 1.32 0 2 0 C2.33 2.64 2.66 5.28 3 8 C-4.11070891 9.58015754 -8.49928869 8.10382323 -15 5 C-11.84493858 4.06380187 -9.03413498 3.8942877 -5.75 3.9375 C-4.85796875 3.94652344 -3.9659375 3.95554688 -3.046875 3.96484375 C-2.37140625 3.97644531 -1.6959375 3.98804688 -1 4 C-0.67 2.68 -0.34 1.36 0 0 Z " fill="#5D2414" transform="translate(32,46)"/>
<path d="M0 0 C3.30081791 1.61897259 6.52557433 3.35924309 9.75 5.125 C11.22726562 5.93324219 11.22726562 5.93324219 12.734375 6.7578125 C13.48203125 7.16773438 14.2296875 7.57765625 15 8 C15 8.99 15 9.98 15 11 C10.27033356 10.40879169 5.86989441 8.79154181 2 6 C0.5 2.75 0.5 2.75 0 0 Z " fill="#581F11" transform="translate(2,45)"/>
<path d="M0 0 C1 3 1 3 -0.4375 6.1875 C-1.2109375 7.5796875 -1.2109375 7.5796875 -2 9 C-2.66 9 -3.32 9 -4 9 C-3.67 10.32 -3.34 11.64 -3 13 C-3.99 13.33 -4.98 13.66 -6 14 C-5.9071875 12.576875 -5.9071875 12.576875 -5.8125 11.125 C-5.874375 10.09375 -5.93625 9.0625 -6 8 C-6.99 7.34 -7.98 6.68 -9 6 C-8.01 6 -7.02 6 -6 6 C-6 5.34 -6 4.68 -6 4 C-6.66 3.67 -7.32 3.34 -8 3 C-5.36 2.01 -2.72 1.02 0 0 Z " fill="#866935" transform="translate(52,25)"/>
<path d="M0 0 C0.66 0 1.32 0 2 0 C2 4.62 2 9.24 2 14 C1.34 14 0.68 14 0 14 C-0.72767003 12.76115681 -1.43154815 11.50831659 -2.125 10.25 C-2.51945312 9.55390625 -2.91390625 8.8578125 -3.3203125 8.140625 C-4 6 -4 6 -3.2421875 3.859375 C-2 2 -2 2 0 0 Z " fill="#121517" transform="translate(62,50)"/>
<path d="M0 0 C0.33 0 0.66 0 1 0 C1.3125 2.75 1.3125 2.75 1 6 C-1.3125 8.125 -1.3125 8.125 -4 10 C-4.495 10.7425 -4.99 11.485 -5.5 12.25 C-7 14 -7 14 -9.6875 14.25 C-10.450625 14.1675 -11.21375 14.085 -12 14 C-12 13.01 -12 12.02 -12 11 C-11.25234375 10.76539063 -10.5046875 10.53078125 -9.734375 10.2890625 C-6.52735305 8.77718072 -5.30128181 7.23408747 -3.25 4.375 C-2.18313235 2.90457807 -1.10420692 1.44259291 0 0 Z " fill="#491005" transform="translate(63,44)"/>
<path d="M0 0 C0.33 0.99 0.66 1.98 1 3 C0.01196289 4.62573242 0.01196289 4.62573242 -1.52734375 6.35546875 C-2.07197266 6.97744141 -2.61660156 7.59941406 -3.17773438 8.24023438 C-3.75845703 8.88283203 -4.33917969 9.52542969 -4.9375 10.1875 C-5.51435547 10.84169922 -6.09121094 11.49589844 -6.68554688 12.16992188 C-8.11464362 13.78799009 -9.55618343 15.39505265 -11 17 C-11.66 16.67 -12.32 16.34 -13 16 C-4.738041 4.29384966 -4.738041 4.29384966 0 0 Z " fill="#733D27" transform="translate(63,35)"/>
<path d="M0 0 C1.140625 1.72265625 1.140625 1.72265625 2 4 C1.171875 6.12109375 1.171875 6.12109375 -0.25 8.4375 C-3.52028168 14.39885815 -4.29694592 20.30524623 -5 27 C-5.33 27 -5.66 27 -6 27 C-7.0024305 21.65370398 -6.84888195 17.37625234 -6 12 C-5.01 11.67 -4.02 11.34 -3 11 C-1.96961044 8.43957934 -1.96961044 8.43957934 -1.3125 5.4375 C-1.06113281 4.42558594 -0.80976563 3.41367187 -0.55078125 2.37109375 C-0.36902344 1.58863281 -0.18726563 0.80617187 0 0 Z " fill="#49120C" transform="translate(11,0)"/>
<path d="M0 0 C1.23922223 3.71766668 0.57018942 5.43889537 -0.4375 9.1875 C-0.72496094 10.27417969 -1.01242188 11.36085938 -1.30859375 12.48046875 C-1.65083984 13.72763672 -1.65083984 13.72763672 -2 15 C-3.98 15 -5.96 15 -8 15 C-7.60153257 12.68888893 -7.34955155 11.33366284 -5.625 9.6875 C-3.21694381 7.18682626 -2.29750434 4.18478337 -1 1 C-0.67 0.67 -0.34 0.34 0 0 Z " fill="#733D27" transform="translate(14,9)"/>
<path d="M0 0 C1.171875 3.6640625 1.171875 3.6640625 -0.375 6.6875 C-2 9 -2 9 -3 10 C-4.99958364 10.04080783 -7.00045254 10.04254356 -9 10 C-7.61811547 6.78956118 -6.07578097 4.95063635 -3.375 2.75 C-2.74335937 2.22921875 -2.11171875 1.7084375 -1.4609375 1.171875 C-0.73777344 0.59179688 -0.73777344 0.59179688 0 0 Z " fill="#1B2123" transform="translate(48,48)"/>
<path d="M0 0 C1.32 0.33 2.64 0.66 4 1 C2.55007731 5.10811428 0.54592427 8.46855666 -2 12 C-2.33 12 -2.66 12 -3 12 C-3.2954439 6.97745369 -2.98514628 4.10457614 0 0 Z " fill="#CD271C" transform="translate(3,51)"/>
<path d="M0 0 C2.02045442 0.60183749 4.02111039 1.27306096 6 2 C6.33 2.66 6.66 3.32 7 4 C4.69 5.32 2.38 6.64 0 8 C-0.38063221 5.6739143 -0.71269945 3.33944736 -1 1 C-0.67 0.67 -0.34 0.34 0 0 Z " fill="#1C2225" transform="translate(20,56)"/>
<path d="M0 0 C1.32 0.66 2.64 1.32 4 2 C2.125 6.875 2.125 6.875 1 8 C-0.66617115 8.04063832 -2.33388095 8.042721 -4 8 C-2.68 5.36 -1.36 2.72 0 0 Z " fill="#171C1E" transform="translate(9,56)"/>
<path d="M0 0 C0.33 0 0.66 0 1 0 C1.33 5.28 1.66 10.56 2 16 C-2.95 14.02 -2.95 14.02 -8 12 C-4 11 -4 11 0 12 C0 8.04 0 4.08 0 0 Z " fill="#420B07" transform="translate(14,16)"/>
<path d="M0 0 C1.32 1.32 2.64 2.64 4 4 C4.66 2.68 5.32 1.36 6 0 C6.99 0.33 7.98 0.66 9 1 C8.67 1.99 8.34 2.98 8 4 C7.34 4 6.68 4 6 4 C5.67 4.99 5.34 5.98 5 7 C3.68 6.67 2.36 6.34 1 6 C0.67 4.02 0.34 2.04 0 0 Z " fill="#4F170E" transform="translate(10,43)"/>
<path d="M0 0 C4.7517398 0.43197635 6.92000054 1.32769295 10 5 C7.69 4.67 5.38 4.34 3 4 C3 4.66 3 5.32 3 6 C2.34 6 1.68 6 1 6 C0.67 4.02 0.34 2.04 0 0 Z " fill="#7C5A1C" transform="translate(7,29)"/>
<path d="M0 0 C2 1 2 1 2.625 2.625 C3.13199228 5.83595108 3.2360251 8.75465488 3 12 C2.01 12.99 1.02 13.98 0 15 C0 10.05 0 5.1 0 0 Z " fill="#AC6F44" transform="translate(51,0)"/>
<path d="M0 0 C0.99 0.33 1.98 0.66 3 1 C-2.16923077 5.92307692 -2.16923077 5.92307692 -6.375 6.3125 C-7.674375 6.1578125 -7.674375 6.1578125 -9 6 C-8.34 5.01 -7.68 4.02 -7 3 C-5.33333333 3 -3.66666667 3 -2 3 C-1.34 2.01 -0.68 1.02 0 0 Z " fill="#E4E8E8" transform="translate(42,34)"/>
<path d="M0 0 C2.50037734 2.17424117 3.43628586 3.73045798 4 7 C2.35 7 0.7 7 -1 7 C-0.67 4.69 -0.34 2.38 0 0 Z " fill="#9B0000" transform="translate(58,57)"/>
<path d="M0 0 C-1.485 2.475 -1.485 2.475 -3 5 C-4.32 4.67 -5.64 4.34 -7 4 C-6.34 3.34 -5.68 2.68 -5 2 C-5.33 1.34 -5.66 0.68 -6 0 C-3 -1 -3 -1 0 0 Z " fill="#040506" transform="translate(43,33)"/>
<path d="M0 0 C1.1484375 1.671875 1.1484375 1.671875 2 4 C1.1015625 6.578125 1.1015625 6.578125 -0.375 9.25 C-0.85710938 10.14203125 -1.33921875 11.0340625 -1.8359375 11.953125 C-2.22007813 12.62859375 -2.60421875 13.3040625 -3 14 C-4.25955231 10.22134307 -3.48087189 8.96588214 -2.0625 5.3125 C-1.68222656 4.31863281 -1.30195313 3.32476562 -0.91015625 2.30078125 C-0.60980469 1.54152344 -0.30945313 0.78226562 0 0 Z " fill="#430B06" transform="translate(11,0)"/>
<path d="M0 0 C1 2 1 2 0.44140625 3.9453125 C0.15136719 4.66460938 -0.13867188 5.38390625 -0.4375 6.125 C-0.72496094 6.84945313 -1.01242188 7.57390625 -1.30859375 8.3203125 C-1.53675781 8.87460938 -1.76492188 9.42890625 -2 10 C-2.66 10 -3.32 10 -4 10 C-3.5205537 5.78087253 -2.83374881 3.20336822 0 0 Z " fill="#5D2414" transform="translate(10,1)"/>
<path d="M0 0 C-2.2551922 2.2551922 -4.0047587 2.97723468 -7 4 C-7.99 4 -8.98 4 -10 4 C-7.53453745 -1.4592385 -5.69047474 -1.11335375 0 0 Z " fill="#A98740" transform="translate(28,39)"/>
<path d="M0 0 C3 1 3 1 4.1875 3.0625 C4.455625 3.701875 4.72375 4.34125 5 5 C5.99 5 6.98 5 8 5 C8 5.66 8 6.32 8 7 C5.125 6.6875 5.125 6.6875 2 6 C0 3 0 3 0 0 Z " fill="#D5DADC" transform="translate(11,33)"/>
<path d="M0 0 C0.99 0 1.98 0 3 0 C4.60725635 3.21451269 4.05748185 6.43612536 4 10 C3.34 9.67 2.68 9.34 2 9 C1.3671875 6.93359375 1.3671875 6.93359375 0.875 4.4375 C0.70742188 3.61121094 0.53984375 2.78492188 0.3671875 1.93359375 C0.24601562 1.29550781 0.12484375 0.65742188 0 0 Z " fill="#460E05" transform="translate(48,0)"/>
<path d="M0 0 C1.98 0 3.96 0 6 0 C6 0.66 6 1.32 6 2 C3.03 2.66 0.06 3.32 -3 4 C-2.67 3.34 -2.34 2.68 -2 2 C-1.34 2 -0.68 2 0 2 C0 1.34 0 0.68 0 0 Z " fill="#C6AD73" transform="translate(40,29)"/>
<path d="M0 0 C1 3 1 3 -0.4375 6.1875 C-1.2109375 7.5796875 -1.2109375 7.5796875 -2 9 C-3.24546405 6.50907189 -2.7767578 5.58919267 -2 3 C-2.66 2.67 -3.32 2.34 -4 2 C-2.68 1.34 -1.36 0.68 0 0 Z " fill="#82601A" transform="translate(52,25)"/>
<path d="M0 0 C0.66 0.33 1.32 0.66 2 1 C1.21718695 2.33855056 0.42348123 3.67073644 -0.375 5 C-0.81585937 5.7425 -1.25671875 6.485 -1.7109375 7.25 C-2.34902344 8.11625 -2.34902344 8.11625 -3 9 C-3.66 9 -4.32 9 -5 9 C-3.50163895 5.88801935 -1.80066242 2.9465385 0 0 Z " fill="#900000" transform="translate(8,55)"/>
<path d="M0 0 C1.32 0.33 2.64 0.66 4 1 C3.34 1 2.68 1 2 1 C2 2.98 2 4.96 2 7 C1.01 7.33 0.02 7.66 -1 8 C-1.33 6.68 -1.66 5.36 -2 4 C-1.01 3.67 -0.02 3.34 1 3 C0.67 2.01 0.34 1.02 0 0 Z " fill="#371713" transform="translate(9,32)"/>
<path d="M0 0 C2 3.75 2 3.75 2 6 C0.35 6 -1.3 6 -3 6 C-2.01 4.02 -1.02 2.04 0 0 Z " fill="#060708" transform="translate(18,58)"/>
<path d="M0 0 C1.32 0.33 2.64 0.66 4 1 C2.6875 3 2.6875 3 1 5 C0.01 5 -0.98 5 -2 5 C-1.34 3.35 -0.68 1.7 0 0 Z " fill="#743C26" transform="translate(7,0)"/>
</svg>
