<svg version="1.1" id="Layer_1" xmlns="http://www.w3.org/2000/svg" xmlns:xlink="http://www.w3.org/1999/xlink" x="0px" y="0px"
	 width="100%" viewBox="0 0 64 64" enable-background="new 0 0 64 64" xml:space="preserve">
<path fill="#050607" opacity="1.000000" stroke="none" 
	d="
M1.000000,52.000000 
	C1.000000,35.124672 0.999736,18.249342 1.005054,1.374014 
	C1.005094,1.249330 1.081547,1.124671 1.122321,1.000000 
	C4.762097,1.000000 8.401873,1.000000 12.586179,1.413557 
	C13.093270,3.220765 13.055832,4.614417 12.953346,6.206599 
	C12.888300,6.405130 12.843539,6.820556 12.523512,6.902387 
	C11.474480,7.660159 10.745475,8.336102 9.861678,9.285707 
	C10.569362,10.654628 11.431836,11.749885 12.198518,13.227169 
	C11.466074,16.031490 10.829425,18.453783 10.095132,21.262173 
	C9.228165,24.276464 8.956745,27.215216 7.561121,29.452770 
	C5.887269,32.136398 6.454787,33.555473 8.818506,35.284378 
	C9.133369,36.416798 9.446870,37.210918 9.790665,38.382309 
	C11.209226,41.175808 12.597492,43.592045 14.061985,46.322968 
	C14.435907,47.434731 14.733603,48.231800 14.696941,48.954926 
	C13.912615,48.917595 13.462646,48.954208 12.614014,48.957203 
	C10.117740,49.594707 8.020130,50.265831 5.962645,50.954765 
	C6.002769,50.972580 5.943978,50.907330 5.569860,50.910175 
	C3.797160,51.275349 2.398580,51.637676 1.000000,52.000000 
z"/>
<path fill="#2C3A3F" opacity="1.000000" stroke="none" 
	d="
M65.000000,14.000000 
	C65.000000,17.362101 65.000000,20.724203 64.664871,24.556545 
	C63.565628,25.392717 62.801525,25.758648 61.733032,26.346264 
	C58.267796,27.083179 55.106956,27.598408 51.568298,28.086926 
	C49.771481,27.761890 48.352482,27.463566 46.954597,26.873310 
	C46.983997,26.386425 46.992287,26.191471 47.416794,25.997738 
	C49.826962,25.998957 51.820919,25.998957 53.814873,25.998957 
	C53.821674,25.599457 53.828476,25.199955 53.835274,24.800455 
	C52.604256,24.536016 51.373238,24.271578 49.889874,23.715370 
	C48.205124,23.026899 46.780342,22.599726 45.338951,22.238916 
	C39.932774,20.885637 34.521168,19.554035 28.949829,17.959831 
	C28.482271,17.447781 28.176479,17.190207 27.992920,16.638718 
	C28.363214,15.539787 28.611280,14.734774 28.928276,13.988981 
	C28.997206,14.048202 29.170637,14.102558 29.430260,14.064860 
	C29.869568,13.364957 30.049253,12.702751 30.315825,11.773049 
	C30.638309,11.016985 30.873909,10.528418 31.440163,10.053899 
	C33.779713,11.848864 35.518009,14.275301 37.861622,15.257721 
	C41.282021,16.691519 45.101662,17.495741 48.816525,17.820810 
	C53.250477,18.208807 58.081028,18.821693 61.005028,13.992084 
	C60.999409,13.999913 60.982838,14.010208 61.384560,14.018127 
	C62.857521,14.017365 63.928761,14.008682 65.000000,14.000000 
z"/>
<path fill="#687F88" opacity="1.000000" stroke="none" 
	d="
M51.000000,1.000000 
	C55.666668,1.333333 60.333332,1.666667 64.657013,2.531794 
	C63.174091,4.442945 61.951302,5.762693 60.908550,7.211979 
	C56.406891,13.468704 44.102283,14.638177 38.052490,8.861408 
	C38.064121,7.733160 38.017899,7.092566 38.017380,6.232574 
	C38.527184,5.666058 38.991287,5.318939 39.842384,5.090910 
	C41.147438,4.783243 42.065495,4.356486 42.983284,3.962482 
	C42.983013,3.995234 42.928535,3.958855 43.313202,3.985593 
	C46.131916,3.008220 48.565956,2.004110 51.000000,1.000000 
z"/>
<path fill="#41545B" opacity="1.000000" stroke="none" 
	d="
M39.455395,4.971820 
	C38.991287,5.318939 38.527184,5.666058 37.716057,6.326415 
	C37.169651,6.706927 36.970257,6.774200 36.557594,6.877192 
	C36.421612,7.344920 36.498905,7.776927 36.738441,8.480272 
	C37.265339,8.950760 37.629986,9.149910 37.994637,9.349061 
	C44.102283,14.638177 56.406891,13.468704 60.908550,7.211979 
	C61.951302,5.762693 63.174091,4.442945 64.657013,3.031794 
	C65.000000,6.361288 65.000000,9.722575 65.000000,13.541931 
	C63.928761,14.008682 62.857521,14.017365 61.534813,13.798029 
	C61.046284,13.142086 60.663326,12.317258 60.593067,12.343084 
	C56.811024,13.733359 53.055298,15.195235 49.296864,16.649736 
	C49.391266,16.981817 49.485668,17.313896 49.580070,17.645977 
	C53.390263,16.425404 57.200459,15.204828 61.010651,13.984254 
	C58.081028,18.821693 53.250477,18.208807 48.816525,17.820810 
	C45.101662,17.495741 41.282021,16.691519 37.861622,15.257721 
	C35.518009,14.275301 33.779713,11.848864 31.448824,9.638946 
	C31.089029,8.456563 31.051228,7.703181 30.999056,6.967557 
	C30.984684,6.985314 30.951445,7.016662 31.276768,7.261690 
	C32.139336,6.666791 32.676586,5.826863 33.543259,4.961026 
	C35.581791,3.623411 37.290897,2.311706 39.000000,1.000000 
	C40.066669,1.000000 41.133339,1.000000 42.472050,1.375973 
	C42.805573,2.487582 42.867054,3.223218 42.928535,3.958855 
	C42.928535,3.958855 42.983013,3.995234 42.632950,3.728267 
	C41.340389,3.964806 40.397892,4.468313 39.455395,4.971820 
z"/>
<path fill="#8B0602" opacity="1.000000" stroke="none" 
	d="
M44.000000,65.000000 
	C37.312355,65.000000 30.624710,65.000000 23.509834,64.674156 
	C22.662252,63.587395 22.241901,62.826481 22.276485,62.043983 
	C24.700924,62.240810 26.673681,62.433502 28.639355,62.682213 
	C35.827812,63.591759 42.737453,63.386539 48.238121,57.291725 
	C42.732311,59.120415 37.226501,60.949108 30.608231,63.147289 
	C37.888058,58.916992 43.918278,55.412842 50.023880,51.611755 
	C50.122131,50.919891 50.144989,50.524952 50.144150,50.081161 
	C50.120453,50.032310 50.022224,50.078617 50.370365,50.159134 
	C51.543404,49.833260 52.368301,49.426865 53.476566,48.859093 
	C55.272232,47.414345 56.784534,46.130981 58.519295,45.072983 
	C59.881741,47.132080 61.021725,48.965801 62.049774,51.169735 
	C61.932613,52.019619 61.927395,52.499298 61.954506,52.967056 
	C61.986835,52.955143 61.941471,52.903278 61.616070,52.776970 
	C60.175663,53.748966 59.060658,54.847279 57.602623,56.005592 
	C52.839733,59.043728 48.419865,62.021866 44.000000,65.000000 
M52.380550,54.097286 
	C51.703678,54.679943 51.026806,55.262596 50.349934,55.845249 
	C50.717865,56.136959 51.085796,56.428669 51.453724,56.720375 
	C51.967854,55.812328 52.481979,54.904282 53.403625,53.970516 
	C53.608475,53.826687 53.813324,53.682858 54.018173,53.539028 
	C53.899734,53.492245 53.728756,53.371315 53.671982,53.411549 
	C53.430290,53.582821 53.222408,53.801804 52.380550,54.097286 
z"/>
<path fill="#303F44" opacity="1.000000" stroke="none" 
	d="
M58.296837,44.847614 
	C56.784534,46.130981 55.272232,47.414345 53.120857,48.852757 
	C51.661930,49.364742 50.842075,49.721680 50.022224,50.078617 
	C50.022224,50.078617 50.120453,50.032310 49.747498,50.094841 
	C43.845604,51.325405 38.316666,52.493446 32.787727,53.661488 
	C32.777233,53.368496 32.766743,53.075504 32.756248,52.782513 
	C34.532131,51.931236 36.308014,51.079960 38.411232,50.193657 
	C48.307056,48.841732 54.181969,42.502907 59.578011,34.953259 
	C60.614697,31.932093 61.326057,29.028336 62.037422,26.124577 
	C62.801525,25.758648 63.565628,25.392717 64.664871,25.013393 
	C65.000000,28.030594 65.000000,31.061188 64.756516,34.544174 
	C64.513031,34.996571 64.026085,35.003445 63.726761,35.176342 
	C62.966732,36.586773 62.506031,37.824306 62.043114,39.027390 
	C62.040905,38.992943 62.083015,39.047680 61.689743,39.053543 
	C60.549160,40.523491 59.801853,41.987576 58.969936,43.635315 
	C58.689163,44.161850 58.493000,44.504730 58.296837,44.847614 
z"/>
<path fill="#687F88" opacity="1.000000" stroke="none" 
	d="
M38.583336,1.000000 
	C37.290897,2.311706 35.581791,3.623411 33.249649,4.975057 
	C32.431007,5.011195 32.235405,5.007393 31.663637,5.011942 
	C29.866442,5.784232 28.416342,6.499133 27.029732,7.321137 
	C22.543472,9.980664 18.073175,9.130832 15.021574,4.630979 
	C15.397186,3.188018 15.698593,2.094009 16.000000,1.000000 
	C21.354929,1.000000 26.709860,1.000000 32.546879,1.238099 
	C33.195591,1.717663 33.362213,1.959128 33.528831,2.200593 
	C33.685890,1.800395 33.842945,1.400198 34.000000,1.000000 
	C35.388889,1.000000 36.777779,1.000000 38.583336,1.000000 
z"/>
<path fill="#687F88" opacity="1.000000" stroke="none" 
	d="
M5.000000,65.000000 
	C3.718090,65.000000 2.436181,65.000000 1.000000,65.000000 
	C1.000000,62.328308 1.000000,59.655205 1.309782,56.356216 
	C3.061035,54.122665 4.502507,52.514996 5.943978,50.907330 
	C5.943978,50.907330 6.002769,50.972580 6.313894,51.066040 
	C8.050426,51.723003 9.475832,52.286507 10.916037,53.223770 
	C10.190769,54.991211 9.439533,56.379097 8.713122,57.779858 
	C7.467245,60.182335 6.236878,62.592857 5.000000,65.000000 
z"/>
<path fill="#485C64" opacity="1.000000" stroke="none" 
	d="
M65.000000,51.000000 
	C65.000000,55.566677 65.000000,60.133350 65.000000,65.000000 
	C62.334431,65.000000 59.658264,65.000000 56.513191,64.647781 
	C58.010017,60.498142 59.975746,56.700710 61.941475,52.903278 
	C61.941471,52.903278 61.986835,52.955143 62.194550,52.804119 
	C62.593952,52.119362 62.785645,51.585629 63.312584,51.003532 
	C64.098549,50.970116 64.549278,50.985058 65.000000,51.000000 
z"/>
<path fill="#1C090C" opacity="1.000000" stroke="none" 
	d="
M21.821552,62.065563 
	C22.241901,62.826481 22.662252,63.587395 23.041302,64.674156 
	C22.555555,65.000000 22.111113,65.000000 21.182199,64.706223 
	C18.124622,63.023434 17.904657,57.701363 13.123618,59.647381 
	C12.826978,58.914097 12.584010,58.446411 12.375744,57.652504 
	C13.646188,55.199406 14.881929,53.072536 16.386322,50.944420 
	C17.012548,50.927807 17.370121,50.912437 17.825996,50.909359 
	C17.924299,50.921646 18.100965,51.011353 18.046997,51.401802 
	C19.269201,55.216686 20.545378,58.641125 21.821552,62.065563 
z"/>
<path fill="#08090A" opacity="1.000000" stroke="none" 
	d="
M65.000000,50.535347 
	C64.549278,50.985058 64.098549,50.970116 63.113434,50.925079 
	C62.579037,50.894989 62.161713,50.799526 62.161713,50.799526 
	C61.021725,48.965801 59.881741,47.132080 58.519295,45.072983 
	C58.493000,44.504730 58.689163,44.161850 59.244556,43.406517 
	C60.430195,41.678604 61.256603,40.363140 62.083015,39.047680 
	C62.083015,39.047680 62.040905,38.992943 62.327011,38.877178 
	C63.408749,38.174274 64.204376,37.587139 65.000000,37.000000 
	C65.000000,41.356899 65.000000,45.713799 65.000000,50.535347 
z"/>
<path fill="#44575F" opacity="1.000000" stroke="none" 
	d="
M16.117670,50.945663 
	C14.881929,53.072536 13.646188,55.199406 12.047743,57.826569 
	C10.790026,60.551243 9.895012,62.775620 8.999999,65.000000 
	C7.933331,65.000000 6.866662,65.000000 5.399996,65.000000 
	C6.236878,62.592857 7.467245,60.182335 8.713122,57.779858 
	C9.439533,56.379097 10.190769,54.991211 11.090509,52.937363 
	C11.837680,51.181732 12.425179,50.086277 13.012678,48.990822 
	C13.462646,48.954208 13.912615,48.917595 14.680763,48.935730 
	C14.998943,48.990475 14.954439,48.967991 15.043068,49.253784 
	C15.460355,50.008274 15.789012,50.476971 16.117670,50.945663 
z"/>
<path fill="#647A83" opacity="1.000000" stroke="none" 
	d="
M61.616074,52.776970 
	C59.975746,56.700710 58.010017,60.498142 56.022144,64.647781 
	C54.285641,65.000000 52.571285,65.000000 50.420105,64.648911 
	C51.680798,63.027023 53.555939,61.929932 55.020966,60.431793 
	C56.245029,59.180054 56.989044,57.458878 57.945652,55.945587 
	C59.060658,54.847279 60.175663,53.748966 61.616074,52.776970 
z"/>
<path fill="#A3C0CB" opacity="1.000000" stroke="none" 
	d="
M57.602623,56.005592 
	C56.989044,57.458878 56.245029,59.180054 55.020966,60.431793 
	C53.555939,61.929932 51.680798,63.027023 49.991638,64.648911 
	C48.285641,65.000000 46.571285,65.000000 44.428463,65.000000 
	C48.419865,62.021866 52.839733,59.043728 57.602623,56.005592 
z"/>
<path fill="#112025" opacity="1.000000" stroke="none" 
	d="
M13.177291,59.912979 
	C17.904657,57.701363 18.124622,63.023434 20.848866,64.706223 
	C18.629442,65.000000 16.258884,65.000000 13.448892,64.577087 
	C13.065400,62.740448 13.121346,61.326714 13.177291,59.912979 
z"/>
<path fill="#2C3A3F" opacity="1.000000" stroke="none" 
	d="
M13.123618,59.647381 
	C13.121346,61.326714 13.065400,62.740448 13.004728,64.577087 
	C11.933331,65.000000 10.866661,65.000000 9.399995,65.000000 
	C9.895012,62.775620 10.790026,60.551243 12.013041,58.152794 
	C12.584010,58.446411 12.826978,58.914097 13.123618,59.647381 
z"/>
<path fill="#9BB7C2" opacity="1.000000" stroke="none" 
	d="
M43.313202,3.985593 
	C42.867054,3.223218 42.805573,2.487582 42.872047,1.375973 
	C45.370556,1.000000 47.741116,1.000000 50.555836,1.000000 
	C48.565956,2.004110 46.131916,3.008220 43.313202,3.985593 
z"/>
<path fill="#A9C7D2" opacity="1.000000" stroke="none" 
	d="
M5.569860,50.910175 
	C4.502507,52.514996 3.061035,54.122665 1.309782,55.865166 
	C1.000000,54.933331 1.000000,53.866661 1.000000,52.399994 
	C2.398580,51.637676 3.797160,51.275349 5.569860,50.910175 
z"/>
<path fill="#2B373C" opacity="1.000000" stroke="none" 
	d="
M15.625000,1.000000 
	C15.698593,2.094009 15.397186,3.188018 14.782196,4.764187 
	C13.985206,5.500254 13.501800,5.754161 13.018394,6.008068 
	C13.055832,4.614417 13.093270,3.220765 13.065354,1.413557 
	C13.750000,1.000000 14.500000,1.000000 15.625000,1.000000 
z"/>
<path fill="#41545B" opacity="1.000000" stroke="none" 
	d="
M65.000000,36.750000 
	C64.204376,37.587139 63.408749,38.174274 62.329224,38.911629 
	C62.506031,37.824306 62.966732,36.586773 63.845219,35.386848 
	C64.410370,35.742184 64.656036,35.934029 65.000000,36.000000 
	C65.000000,36.000000 65.000000,36.500000 65.000000,36.750000 
z"/>
<path fill="#4F646C" opacity="1.000000" stroke="none" 
	d="
M33.750000,1.000000 
	C33.842945,1.400198 33.685890,1.800395 33.528831,2.200593 
	C33.362213,1.959128 33.195591,1.717663 33.014484,1.238099 
	C33.000000,1.000000 33.500000,1.000000 33.750000,1.000000 
z"/>
<path fill="#08090A" opacity="1.000000" stroke="none" 
	d="
M65.000000,35.750000 
	C64.656036,35.934029 64.410370,35.742184 64.144547,35.213951 
	C64.026085,35.003445 64.513031,34.996571 64.756516,34.998283 
	C65.000000,35.000000 65.000000,35.500000 65.000000,35.750000 
z"/>
<path fill="#41545B" opacity="1.000000" stroke="none" 
	d="
M38.083900,50.228683 
	C36.308014,51.079960 34.532131,51.931236 32.756248,52.782513 
	C32.766743,53.075504 32.777233,53.368496 32.787727,53.661488 
	C38.316666,52.493446 43.845604,51.325405 49.771194,50.143692 
	C50.144989,50.524952 50.122131,50.919891 49.664284,51.674885 
	C44.432247,53.689686 39.735226,55.794426 34.813534,56.888367 
	C28.259523,58.345116 23.168926,54.435936 18.100965,51.011353 
	C18.100965,51.011353 17.924299,50.921646 17.801762,50.591888 
	C16.770962,49.830753 15.862701,49.399372 14.954439,48.967991 
	C14.954439,48.967991 14.998943,48.990475 15.015121,49.009674 
	C14.733603,48.231800 14.435907,47.434731 14.450787,46.297966 
	C16.091497,45.317902 17.419634,44.677528 18.747772,44.037155 
	C17.723940,42.979397 16.850187,41.684628 15.641293,40.919125 
	C13.803002,39.755070 11.732338,38.957989 9.760369,38.005043 
	C9.446870,37.210918 9.133369,36.416798 9.166405,35.264435 
	C10.591853,34.561428 11.670767,34.216660 12.798821,34.237488 
	C15.208257,36.453228 17.568550,38.303375 20.106730,40.408623 
	C21.286610,41.466682 22.288607,42.269638 23.717628,43.414795 
	C22.375257,43.414795 21.536516,43.414795 20.827854,43.414795 
	C20.807428,49.824997 25.127649,50.049465 29.711922,50.016376 
	C32.501926,49.996239 35.293198,50.151958 38.083900,50.228683 
z"/>
<path fill="#41545B" opacity="1.000000" stroke="none" 
	d="
M12.953346,6.206599 
	C13.501800,5.754161 13.985206,5.500254 14.707990,5.113139 
	C18.073175,9.130832 22.543472,9.980664 27.029732,7.321137 
	C28.416342,6.499133 29.866442,5.784232 31.576092,5.290272 
	C31.560287,6.045721 31.255865,6.531191 30.951445,7.016662 
	C30.951445,7.016662 30.984684,6.985314 30.717451,7.080270 
	C29.982948,7.784453 29.515678,8.393681 28.795311,9.182250 
	C28.372959,9.941063 28.203705,10.520533 28.014088,11.058115 
	C27.993723,11.016226 28.077463,10.975421 27.803553,11.194931 
	C27.366274,12.091644 27.202904,12.768848 27.124386,13.586967 
	C27.209234,13.727880 27.013681,13.992424 26.665237,13.989282 
	C25.758406,14.812366 25.192524,15.633654 24.643806,16.466255 
	C24.128748,17.247780 23.631836,18.041265 22.928322,18.629213 
	C22.212597,18.217663 21.695486,18.006388 21.062374,17.473797 
	C18.062353,15.716702 15.178332,14.280921 12.294312,12.845140 
	C11.431836,11.749885 10.569362,10.654628 10.221141,9.285856 
	C11.438109,8.281746 12.140824,7.551151 12.843539,6.820556 
	C12.843539,6.820556 12.888300,6.405130 12.953346,6.206599 
z"/>
<path fill="#112025" opacity="1.000000" stroke="none" 
	d="
M12.749681,33.871891 
	C11.670767,34.216660 10.591853,34.561428 9.165042,34.926140 
	C6.454787,33.555473 5.887269,32.136398 7.561121,29.452770 
	C8.956745,27.215216 9.228165,24.276464 10.331594,21.294661 
	C10.665702,20.941051 11.145391,20.969448 11.096897,21.387512 
	C11.324907,23.900829 11.601411,25.996082 11.889614,28.450169 
	C11.853902,30.318089 9.149014,32.461830 12.917462,33.271629 
	C12.918433,33.483406 12.749681,33.871891 12.749681,33.871891 
z"/>
<path fill="#647A83" opacity="1.000000" stroke="none" 
	d="
M9.790664,38.382309 
	C11.732338,38.957989 13.803002,39.755070 15.641293,40.919125 
	C16.850187,41.684628 17.723940,42.979397 18.747772,44.037155 
	C17.419634,44.677528 16.091497,45.317902 14.374559,45.983276 
	C12.597492,43.592045 11.209226,41.175808 9.790664,38.382309 
z"/>
<path fill="#2B373C" opacity="1.000000" stroke="none" 
	d="
M11.145391,20.969448 
	C11.145391,20.969448 10.665702,20.941051 10.429239,20.908562 
	C10.829425,18.453783 11.466074,16.031490 12.198518,13.227169 
	C15.178332,14.280921 18.062353,15.716702 20.985645,17.567636 
	C21.024918,17.982790 20.872780,18.171541 20.523098,18.100763 
	C18.114159,17.101799 16.054901,16.173615 13.814992,15.164001 
	C12.863780,17.232553 12.004585,19.101002 11.145391,20.969448 
z"/>
<path fill="#A9C7D2" opacity="1.000000" stroke="none" 
	d="
M12.614013,48.957203 
	C12.425179,50.086277 11.837680,51.181732 11.075710,52.563602 
	C9.475832,52.286507 8.050426,51.723003 6.273770,51.048225 
	C8.020130,50.265831 10.117740,49.594707 12.614013,48.957203 
z"/>
<path fill="#2B373C" opacity="1.000000" stroke="none" 
	d="
M12.523512,6.902387 
	C12.140824,7.551151 11.438109,8.281746 10.375933,9.012192 
	C10.745475,8.336102 11.474480,7.660159 12.523512,6.902387 
z"/>
<path fill="#896B2B" opacity="1.000000" stroke="none" 
	d="
M46.933479,27.165241 
	C48.352482,27.463566 49.771481,27.761890 51.619061,28.377420 
	C52.371422,29.167208 52.695206,29.639786 52.880524,30.420336 
	C51.848324,32.533665 50.954590,34.339024 49.800789,35.879181 
	C48.308243,32.866177 48.761654,28.632727 43.864044,29.090441 
	C43.892540,29.041054 43.990509,29.099405 43.816353,28.860619 
	C43.100082,28.421522 42.557972,28.221216 41.610455,27.953775 
	C38.652306,27.530928 35.533283,24.455877 34.052162,29.312393 
	C34.026222,29.254013 34.112934,29.160181 33.820183,28.893475 
	C33.340057,29.589109 33.152687,30.551451 33.106579,31.783520 
	C32.807484,32.711174 32.367123,33.369095 31.622742,33.912182 
	C28.624048,32.082336 29.506149,30.154093 30.769409,27.972729 
	C31.465506,26.770731 31.603832,25.245724 32.391842,23.906773 
	C37.504536,25.019884 42.219006,26.092562 46.933479,27.165241 
z"/>
<path fill="#2B373C" opacity="1.000000" stroke="none" 
	d="
M46.954597,26.873310 
	C42.219006,26.092562 37.504536,25.019884 32.156803,23.687775 
	C29.370699,23.622885 27.217850,23.817429 25.014450,23.674484 
	C24.901680,22.886854 24.839464,22.436710 24.782124,21.682583 
	C24.149460,20.643385 23.511917,19.908171 22.937626,19.087173 
	C23.000879,19.001387 23.126942,18.829489 23.126942,18.829489 
	C23.631836,18.041265 24.128748,17.247780 24.643806,16.466255 
	C25.192524,15.633654 25.758406,14.812366 26.776663,13.995887 
	C27.236532,14.005634 27.411987,13.867600 27.249832,14.184181 
	C27.348679,15.311385 27.609684,16.122009 27.870687,16.932632 
	C28.176479,17.190207 28.482271,17.447781 29.043079,18.279381 
	C31.820755,19.996347 34.343414,21.139288 36.947117,22.523178 
	C37.677856,22.893843 38.327557,23.023556 39.292671,23.175190 
	C40.028767,23.223524 40.449451,23.249935 41.003834,23.585793 
	C43.091885,24.595667 45.046230,25.296091 47.000580,25.996517 
	C46.992287,26.191471 46.983997,26.386425 46.954597,26.873310 
z"/>
<path fill="#41545B" opacity="1.000000" stroke="none" 
	d="
M53.018990,30.112366 
	C52.695206,29.639786 52.371422,29.167208 51.996876,28.404133 
	C55.106956,27.598408 58.267796,27.083179 61.733032,26.346264 
	C61.326057,29.028336 60.614697,31.932093 59.402977,34.744911 
	C58.611416,34.448448 58.320210,34.242931 58.005493,34.010059 
	C57.981987,33.982704 57.932690,33.930038 57.930359,33.575493 
	C58.133804,32.029915 58.339588,30.838875 58.573181,29.486879 
	C56.469398,29.723797 54.744194,29.918081 53.018990,30.112366 
z"/>
<path fill="#687F88" opacity="1.000000" stroke="none" 
	d="
M36.866074,22.282228 
	C34.343414,21.139288 31.820755,19.996347 29.204847,18.533857 
	C34.521168,19.554035 39.932774,20.885637 45.338951,22.238916 
	C46.780342,22.599726 48.205124,23.026899 49.447189,23.713022 
	C46.461277,23.760408 43.665703,23.518375 40.870132,23.276344 
	C40.449451,23.249935 40.028767,23.223524 39.130177,22.901913 
	C38.056870,22.498550 37.461472,22.390388 36.866074,22.282228 
z"/>
<path fill="#41545B" opacity="1.000000" stroke="none" 
	d="
M41.003834,23.585793 
	C43.665703,23.518375 46.461277,23.760408 49.699532,24.004791 
	C51.373238,24.271578 52.604256,24.536016 53.835274,24.800455 
	C53.828476,25.199955 53.821674,25.599457 53.814873,25.998957 
	C51.820919,25.998957 49.826962,25.998957 47.416794,25.997738 
	C45.046230,25.296091 43.091885,24.595667 41.003834,23.585793 
z"/>
<path fill="#A9C7D2" opacity="1.000000" stroke="none" 
	d="
M29.048409,9.002908 
	C29.515678,8.393681 29.982948,7.784453 30.731823,7.062512 
	C31.051228,7.703181 31.089029,8.456563 31.118168,9.624897 
	C30.873909,10.528418 30.638309,11.016985 30.029655,11.908428 
	C29.494612,12.908390 29.332624,13.505474 29.170639,14.102558 
	C29.170637,14.102558 28.997206,14.048202 28.687359,13.971624 
	C28.056093,13.871022 27.734253,13.861874 27.411987,13.867600 
	C27.411987,13.867600 27.236532,14.005634 27.125107,13.999029 
	C27.013681,13.992424 27.209234,13.727880 27.423199,13.389521 
	C27.783930,12.359247 27.930696,11.667335 28.077463,10.975421 
	C28.077463,10.975421 27.993723,11.016226 28.303625,10.922743 
	C28.758488,10.220475 28.903448,9.611691 29.048409,9.002908 
z"/>
<path fill="#9BB7C2" opacity="1.000000" stroke="none" 
	d="
M27.249832,14.184181 
	C27.734253,13.861874 28.056093,13.871022 28.618427,13.912403 
	C28.611280,14.734774 28.363214,15.539787 27.992920,16.638718 
	C27.609684,16.122009 27.348679,15.311385 27.249832,14.184181 
z"/>
<path fill="#4F646C" opacity="1.000000" stroke="none" 
	d="
M29.430262,14.064860 
	C29.332624,13.505474 29.494612,12.908390 29.942768,12.175926 
	C30.049253,12.702751 29.869568,13.364957 29.430262,14.064860 
z"/>
<path fill="#9BB7C2" opacity="1.000000" stroke="none" 
	d="
M39.842384,5.090909 
	C40.397892,4.468313 41.340389,3.964806 42.633221,3.695514 
	C42.065495,4.356486 41.147438,4.783243 39.842384,5.090909 
z"/>
<path fill="#9BB7C2" opacity="1.000000" stroke="none" 
	d="
M36.770866,6.841473 
	C36.970257,6.774200 37.169651,6.706927 37.670361,6.545812 
	C38.017899,7.092566 38.064121,7.733160 38.052490,8.861408 
	C37.629986,9.149910 37.265339,8.950760 36.832413,8.144621 
	C36.766380,7.305580 36.768623,7.073526 36.770866,6.841473 
z"/>
<path fill="#2C3A3F" opacity="1.000000" stroke="none" 
	d="
M61.005028,13.992084 
	C57.200459,15.204828 53.390263,16.425404 49.580070,17.645977 
	C49.485668,17.313896 49.391266,16.981817 49.296864,16.649736 
	C53.055298,15.195235 56.811024,13.733359 60.593067,12.343084 
	C60.663326,12.317258 61.046284,13.142086 61.133087,13.790110 
	C60.982838,14.010208 60.999409,13.999913 61.005028,13.992084 
z"/>
<path fill="#A9C7D2" opacity="1.000000" stroke="none" 
	d="
M31.276768,7.261690 
	C31.255865,6.531191 31.560287,6.045721 31.952255,5.281921 
	C32.235405,5.007393 32.431007,5.011195 32.920223,5.000966 
	C32.676586,5.826863 32.139336,6.666791 31.276768,7.261690 
z"/>
<path fill="#687F88" opacity="1.000000" stroke="none" 
	d="
M36.557594,6.877192 
	C36.768623,7.073526 36.766380,7.305580 36.670166,7.873284 
	C36.498905,7.776927 36.421612,7.344920 36.557594,6.877192 
z"/>
<path fill="#A2160B" opacity="1.000000" stroke="none" 
	d="
M18.046997,51.401802 
	C23.168926,54.435936 28.259523,58.345116 34.813534,56.888367 
	C39.735226,55.794426 44.432247,53.689686 49.588894,51.971817 
	C43.918278,55.412842 37.888058,58.916992 30.608231,63.147289 
	C37.226501,60.949108 42.732311,59.120415 48.238121,57.291725 
	C42.737453,63.386539 35.827812,63.591759 28.639355,62.682213 
	C26.673681,62.433502 24.700924,62.240810 22.276485,62.043983 
	C20.545378,58.641125 19.269201,55.216686 18.046997,51.401802 
z"/>
<path fill="#A2160B" opacity="1.000000" stroke="none" 
	d="
M52.996109,53.996235 
	C52.481979,54.904282 51.967854,55.812328 51.453724,56.720375 
	C51.085796,56.428669 50.717865,56.136959 50.349934,55.845249 
	C51.026806,55.262596 51.703678,54.679943 52.690258,54.048622 
	C52.999966,53.999962 52.996109,53.996235 52.996109,53.996235 
z"/>
<path fill="#41545B" opacity="1.000000" stroke="none" 
	d="
M50.370365,50.159134 
	C50.842075,49.721680 51.661930,49.364742 52.837494,49.014137 
	C52.368301,49.426865 51.543404,49.833260 50.370365,50.159134 
z"/>
<path fill="#A2160B" opacity="1.000000" stroke="none" 
	d="
M53.001072,54.001663 
	C53.222408,53.801804 53.430290,53.582821 53.671982,53.411549 
	C53.728756,53.371315 53.899734,53.492245 54.018173,53.539028 
	C53.813324,53.682858 53.608475,53.826687 53.199867,53.983376 
	C52.996109,53.996235 52.999966,53.999962 53.001072,54.001663 
z"/>
<path fill="#647A83" opacity="1.000000" stroke="none" 
	d="
M62.049774,51.169735 
	C62.161713,50.799526 62.579037,50.894989 62.778191,50.973442 
	C62.785645,51.585629 62.593952,52.119362 62.162220,52.816032 
	C61.927395,52.499298 61.932613,52.019619 62.049774,51.169735 
z"/>
<path fill="#687F88" opacity="1.000000" stroke="none" 
	d="
M58.029003,34.037415 
	C58.320210,34.242931 58.611416,34.448448 59.077652,34.862320 
	C54.181969,42.502907 48.307056,48.841732 38.411232,50.193661 
	C35.293198,50.151958 32.501926,49.996239 29.711922,50.016376 
	C25.127649,50.049465 20.807428,49.824997 20.827854,43.414795 
	C21.536516,43.414795 22.375257,43.414795 23.717628,43.414795 
	C22.288607,42.269638 21.286610,41.466682 20.511364,40.363132 
	C22.319195,40.442146 23.896296,40.839340 25.482061,41.198254 
	C31.619476,42.587357 37.596123,45.643017 44.409340,42.981415 
	C45.131157,42.620762 45.569229,42.296219 46.002777,41.985062 
	C45.998245,41.998444 45.970062,41.996208 46.294029,41.967461 
	C47.765614,40.007267 48.913231,38.075825 50.060852,36.144379 
	C50.954590,34.339024 51.848324,32.533665 52.880524,30.420336 
	C54.744194,29.918081 56.469398,29.723797 58.573181,29.486879 
	C58.339588,30.838875 58.133804,32.029915 57.676212,33.595680 
	C57.058517,34.290215 56.692638,34.610023 56.326759,34.929832 
	C56.498108,35.100491 56.669456,35.271149 56.840801,35.441807 
	C57.236870,34.973679 57.632938,34.505547 58.029003,34.037415 
M27.641809,44.542915 
	C26.962269,44.542915 26.282728,44.542915 25.603189,44.542915 
	C25.624643,44.768360 25.646099,44.993801 25.667555,45.219246 
	C26.416660,45.177673 27.165768,45.136105 28.081102,45.635189 
	C29.300158,45.766899 30.519215,45.898605 31.738270,46.030312 
	C31.752043,45.725296 31.765814,45.420284 31.779587,45.115273 
	C30.531420,45.056164 29.283255,44.997055 27.641809,44.542915 
z"/>
<path fill="#41545B" opacity="1.000000" stroke="none" 
	d="
M61.689743,39.053543 
	C61.256603,40.363140 60.430195,41.678604 59.329166,43.222862 
	C59.801853,41.987576 60.549160,40.523491 61.689743,39.053543 
z"/>
<path fill="#050607" opacity="1.000000" stroke="none" 
	d="
M15.043069,49.253784 
	C15.862701,49.399372 16.770962,49.830753 17.703457,50.579605 
	C17.370121,50.912437 17.012548,50.927807 16.386322,50.944420 
	C15.789012,50.476971 15.460355,50.008274 15.043069,49.253784 
z"/>
<path fill="#CAB178" opacity="1.000000" stroke="none" 
	d="
M44.125595,43.017529 
	C37.596123,45.643017 31.619476,42.587357 25.482061,41.198254 
	C23.896296,40.839340 22.319195,40.442146 20.333479,40.108032 
	C17.568550,38.303375 15.208257,36.453228 12.798821,34.237488 
	C12.749681,33.871891 12.918433,33.483406 13.161425,33.135468 
	C13.633878,32.498005 13.863340,32.208481 14.341513,31.845715 
	C15.039320,31.525757 15.488418,31.279045 16.011738,31.362379 
	C16.734201,32.160000 17.382442,32.627571 18.032053,33.382484 
	C18.715658,34.143883 19.397892,34.617943 20.220703,35.384418 
	C21.538904,36.229816 22.716530,36.782799 23.894154,37.335781 
	C24.876503,34.353157 25.858854,31.370531 26.841206,28.387907 
	C25.981478,28.302214 25.121748,28.216522 24.188198,27.775574 
	C24.431253,26.284203 24.748129,25.148087 25.065002,24.011971 
	C27.217850,23.817429 29.370699,23.622885 31.758583,23.647343 
	C31.603832,25.245724 31.465506,26.770731 30.769409,27.972729 
	C29.506149,30.154093 28.624048,32.082336 31.683496,34.310074 
	C32.109726,40.032009 32.716213,40.766113 36.580727,39.888351 
	C38.277050,39.584305 39.617363,39.269962 41.173489,39.140053 
	C43.078156,38.680111 44.767010,38.035732 47.019840,37.176167 
	C46.571724,39.233700 46.270893,40.614952 45.970062,41.996208 
	C45.970062,41.996208 45.998245,41.998444 45.708691,41.981575 
	C44.987957,42.315651 44.556774,42.666588 44.125595,43.017529 
z"/>
<path fill="#112025" opacity="1.000000" stroke="none" 
	d="
M28.795309,9.182250 
	C28.903448,9.611691 28.758488,10.220475 28.323990,10.964631 
	C28.203705,10.520533 28.372959,9.941063 28.795309,9.182250 
z"/>
<path fill="#112025" opacity="1.000000" stroke="none" 
	d="
M27.803553,11.194931 
	C27.930696,11.667335 27.783930,12.359247 27.338348,13.248607 
	C27.202904,12.768848 27.366274,12.091644 27.803553,11.194931 
z"/>
<path fill="#2B373C" opacity="1.000000" stroke="none" 
	d="
M21.101646,17.888950 
	C21.695486,18.006388 22.212597,18.217663 22.928324,18.629213 
	C23.126942,18.829489 23.000879,19.001387 22.653532,19.029068 
	C21.828382,18.761679 21.350582,18.466610 20.872780,18.171541 
	C20.872780,18.171541 21.024918,17.982790 21.101646,17.888950 
z"/>
<path fill="#7D6B44" opacity="1.000000" stroke="none" 
	d="
M20.523098,18.100763 
	C21.350582,18.466610 21.828382,18.761679 22.590279,19.114853 
	C23.511917,19.908171 24.149460,20.643385 24.527279,21.549404 
	C23.480896,22.152981 22.694235,22.585752 21.606638,22.846607 
	C20.593653,22.679420 19.557837,22.385277 19.227871,22.742722 
	C18.053211,24.015205 17.118761,25.509434 15.723013,26.873230 
	C14.873630,25.776442 14.394598,24.726128 13.943062,23.386576 
	C14.333621,22.422298 14.696686,21.747263 15.441318,21.023043 
	C16.583212,20.801846 17.343540,20.629835 18.103867,20.457823 
	C17.962391,19.997036 17.820915,19.536249 17.679440,19.075462 
	C16.575006,19.531849 15.470573,19.988235 14.083597,20.630806 
	C13.593621,21.919937 13.386190,23.022881 13.151869,24.490891 
	C13.072349,25.587303 13.019719,26.318651 12.744981,27.176567 
	C12.307887,27.565870 12.092901,27.828604 11.877916,28.091335 
	C11.601411,25.996082 11.324907,23.900829 11.096897,21.387512 
	C12.004585,19.101002 12.863780,17.232553 13.814992,15.164001 
	C16.054901,16.173615 18.114159,17.101799 20.523098,18.100763 
z"/>
<path fill="#A7853F" opacity="1.000000" stroke="none" 
	d="
M11.889614,28.450169 
	C12.092901,27.828604 12.307887,27.565870 12.773970,27.538799 
	C13.380980,29.155960 13.736891,30.537458 14.092802,31.918959 
	C13.863340,32.208481 13.633878,32.498005 13.160454,32.923691 
	C9.149014,32.461830 11.853902,30.318089 11.889614,28.450169 
z"/>
<path fill="#08090A" opacity="1.000000" stroke="none" 
	d="
M40.957676,38.955627 
	C39.617363,39.269962 38.277050,39.584305 36.418800,39.535416 
	C36.087349,35.907890 36.273838,32.643597 36.460812,29.370771 
	C36.023731,29.370771 35.050915,29.370771 34.078102,29.370771 
	C35.533283,24.455877 38.652306,27.530928 41.742256,28.283195 
	C42.849815,28.819633 43.420162,28.959520 43.990509,29.099405 
	C43.990509,29.099405 43.892540,29.041054 43.798611,29.477955 
	C44.767990,32.607620 46.690315,35.453300 42.092926,36.928570 
	C41.553257,37.101746 41.328449,38.256115 40.957676,38.955627 
z"/>
<path fill="#A7853F" opacity="1.000000" stroke="none" 
	d="
M41.173489,39.140057 
	C41.328449,38.256115 41.553257,37.101746 42.092926,36.928570 
	C46.690315,35.453300 44.767990,32.607620 43.770119,29.527342 
	C48.761654,28.632727 48.308243,32.866177 49.800789,35.879181 
	C48.913231,38.075825 47.765614,40.007267 46.294029,41.967461 
	C46.270893,40.614952 46.571724,39.233700 47.019840,37.176167 
	C44.767010,38.035732 43.078156,38.680111 41.173489,39.140057 
z"/>
<path fill="#D9DDDF" opacity="1.000000" stroke="none" 
	d="
M34.052162,29.312393 
	C35.050915,29.370771 36.023731,29.370771 36.460812,29.370771 
	C36.273838,32.643597 36.087349,35.907890 36.062790,39.525124 
	C32.716213,40.766113 32.109726,40.032009 31.987518,34.424911 
	C32.367123,33.369095 32.807484,32.711174 33.287727,31.489967 
	C33.589386,30.337849 33.851158,29.749014 34.112934,29.160181 
	C34.112934,29.160181 34.026222,29.254013 34.052162,29.312393 
z"/>
<path fill="#08090A" opacity="1.000000" stroke="none" 
	d="
M33.820183,28.893475 
	C33.851158,29.749014 33.589386,30.337849 33.146461,31.220238 
	C33.152687,30.551451 33.340057,29.589109 33.820183,28.893475 
z"/>
<path fill="#A7853F" opacity="1.000000" stroke="none" 
	d="
M43.816353,28.860619 
	C43.420162,28.959520 42.849815,28.819633 42.147667,28.350328 
	C42.557972,28.221216 43.100082,28.421522 43.816353,28.860619 
z"/>
<path fill="#A7853F" opacity="1.000000" stroke="none" 
	d="
M21.907572,23.018524 
	C22.694235,22.585752 23.480896,22.152981 24.522404,21.853388 
	C24.839464,22.436710 24.901680,22.886854 25.014450,23.674482 
	C24.748129,25.148087 24.431253,26.284203 24.006792,28.074594 
	C22.626181,30.849913 21.353153,32.970959 20.080126,35.092003 
	C19.397892,34.617943 18.715658,34.143883 18.340889,33.179840 
	C23.131054,30.610622 22.079836,26.666470 21.907572,23.018524 
z"/>
<path fill="#41545B" opacity="1.000000" stroke="none" 
	d="
M36.947117,22.523178 
	C37.461472,22.390388 38.056870,22.498550 38.814758,22.879990 
	C38.327557,23.023556 37.677856,22.893843 36.947117,22.523178 
z"/>
<path fill="#647A83" opacity="1.000000" stroke="none" 
	d="
M28.035089,44.937946 
	C29.283255,44.997055 30.531420,45.056164 31.779587,45.115273 
	C31.765814,45.420284 31.752043,45.725296 31.738270,46.030312 
	C30.519215,45.898605 29.300158,45.766899 28.029278,45.326664 
	C27.977453,45.018139 28.035089,44.937946 28.035089,44.937946 
z"/>
<path fill="#647A83" opacity="1.000000" stroke="none" 
	d="
M27.946163,45.056335 
	C27.165768,45.136105 26.416660,45.177673 25.667555,45.219246 
	C25.646099,44.993801 25.624643,44.768360 25.603189,44.542915 
	C26.282728,44.542915 26.962269,44.542915 27.838449,44.740433 
	C28.035089,44.937946 27.977453,45.018139 27.946163,45.056335 
z"/>
<path fill="#41545B" opacity="1.000000" stroke="none" 
	d="
M58.005493,34.010059 
	C57.632938,34.505547 57.236870,34.973679 56.840801,35.441807 
	C56.669456,35.271149 56.498108,35.100491 56.326759,34.929832 
	C56.692638,34.610023 57.058517,34.290215 57.678543,33.950222 
	C57.932690,33.930038 57.981987,33.982704 58.005493,34.010059 
z"/>
<path fill="#A7853F" opacity="1.000000" stroke="none" 
	d="
M44.409340,42.981415 
	C44.556774,42.666588 44.987957,42.315651 45.713219,41.968193 
	C45.569229,42.296219 45.131157,42.620762 44.409340,42.981415 
z"/>
<path fill="#08090A" opacity="1.000000" stroke="none" 
	d="
M21.606638,22.846607 
	C22.079836,26.666470 23.131054,30.610622 18.339518,32.892502 
	C17.382442,32.627571 16.734201,32.160000 16.061211,30.955738 
	C16.055429,29.119272 16.074398,28.019489 16.093367,26.919708 
	C17.118761,25.509434 18.053211,24.015205 19.227871,22.742722 
	C19.557837,22.385277 20.593653,22.679420 21.606638,22.846607 
z"/>
<path fill="#EBCF94" opacity="1.000000" stroke="none" 
	d="
M20.220703,35.384418 
	C21.353153,32.970959 22.626181,30.849913 24.080612,28.429848 
	C25.121748,28.216522 25.981478,28.302214 26.841206,28.387907 
	C25.858854,31.370531 24.876503,34.353157 23.894154,37.335781 
	C22.716530,36.782799 21.538904,36.229816 20.220703,35.384418 
z"/>
<path fill="#44575F" opacity="1.000000" stroke="none" 
	d="
M15.723013,26.873230 
	C16.074398,28.019489 16.055429,29.119272 15.986988,30.625694 
	C15.488418,31.279045 15.039320,31.525757 14.341512,31.845715 
	C13.736891,30.537458 13.380980,29.155960 12.996078,27.412228 
	C13.019719,26.318651 13.072349,25.587303 13.343991,24.392120 
	C13.563005,23.928286 13.915567,23.675816 13.915567,23.675816 
	C14.394598,24.726128 14.873630,25.776442 15.723013,26.873230 
z"/>
<path fill="#08090A" opacity="1.000000" stroke="none" 
	d="
M14.366141,20.444622 
	C15.470573,19.988235 16.575006,19.531849 17.679440,19.075462 
	C17.820915,19.536249 17.962391,19.997036 18.103867,20.457823 
	C17.343540,20.629835 16.583212,20.801846 15.282648,20.849848 
	C14.742412,20.725838 14.366141,20.444622 14.366141,20.444622 
z"/>
<path fill="#08090A" opacity="1.000000" stroke="none" 
	d="
M13.943062,23.386576 
	C13.915567,23.675816 13.563005,23.928286 13.370882,24.027056 
	C13.386190,23.022881 13.593621,21.919937 14.083597,20.630806 
	C14.366141,20.444622 14.742412,20.725838 14.901081,20.899033 
	C14.696686,21.747263 14.333621,22.422298 13.943062,23.386576 
z"/>
</svg>