<?xml version="1.0" encoding="UTF-8"?>
<svg version="1.1" xmlns="http://www.w3.org/2000/svg" width="64" height="64">
<path d="M0 0 C5.37305699 -0.44041451 5.37305699 -0.44041451 8 0 C10 2.5 10 2.5 11 5 C11.95592041 4.1850708 12.91184082 3.3701416 13.89672852 2.53051758 C18.40951652 -0.6763371 22.25900742 -0.64999078 27.65234375 -0.48828125 C28.55247696 -0.48120651 29.45261017 -0.47413177 30.38002014 -0.46684265 C33.23338646 -0.43902481 36.0847346 -0.37631217 38.9375 -0.3125 C40.88083088 -0.28740073 42.82419276 -0.26459042 44.76757812 -0.24414063 C49.51248726 -0.18923974 54.25590239 -0.10305673 59 0 C58.88496816 1.42011351 58.75751964 2.83922403 58.625 4.2578125 C58.55539063 5.04816895 58.48578125 5.83852539 58.4140625 6.65283203 C57.98342276 9.09397025 57.24273274 10.74603206 56 12.875 C54.16288094 16.15836173 53.76202304 18.62267674 53.625 22.375 C53.34348592 27.98182212 51.34310865 31.44828824 48.1796875 36.00390625 C47.79039063 36.66261719 47.40109375 37.32132813 47 38 C47.33 38.66 47.66 39.32 48 40 C48.85464844 39.3503125 49.70929687 38.700625 50.58984375 38.03125 C51.70563442 37.18737471 52.82152499 36.3436315 53.9375 35.5 C54.50146484 35.07074219 55.06542969 34.64148437 55.64648438 34.19921875 C59.88671875 31 59.88671875 31 61 31 C61 41.89 61 52.78 61 64 C54.25 64 54.25 64 51 61 C51 61.99 51 62.98 51 64 C36.48 64 21.96 64 7 64 C7 62.68 7 61.36 7 60 C5.32107875 58.49357533 5.32107875 58.49357533 3.125 57.375 C0.7095524 56.01576963 -1.0258668 54.9741332 -3 53 C-3.125 50 -3.125 50 -3 47 C-3 46.34 -3 45.68 -3 45 C-3 42.33333333 -3 39.66666667 -3 37 C-1.68 37.99 -0.36 38.98 1 40 C1.185625 39.0409375 1.185625 39.0409375 1.375 38.0625 C1.58125 37.381875 1.7875 36.70125 2 36 C2.99 35.505 2.99 35.505 4 35 C4 33.68 4 32.36 4 31 C3.01 30.34 2.02 29.68 1 29 C1.16048828 27.96552734 1.16048828 27.96552734 1.32421875 26.91015625 C2.09437692 20.87310992 1.88500848 16.8406547 -0.36328125 11.21484375 C-1.47686678 7.34120575 -0.68509659 3.92373503 0 0 Z " fill="#423426" transform="translate(3,0)"/>
<path d="M0 0 C5.37305699 -0.44041451 5.37305699 -0.44041451 8 0 C10 2.5 10 2.5 11 5 C12.65 3.68 14.3 2.36 16 1 C16.66 1.33 17.32 1.66 18 2 C15.69 4.31 13.38 6.62 11 9 C12.33675781 9.02578125 13.67351563 9.0515625 15.05078125 9.078125 C16.80472038 9.13440112 18.55862536 9.19174857 20.3125 9.25 C21.63411133 9.27126953 21.63411133 9.27126953 22.98242188 9.29296875 C29.44694898 9.53876826 29.44694898 9.53876826 32.0234375 11.6875 C35.17433756 19.14883133 35.63291579 26.39379882 33 34 C36.3 34.33 39.6 34.66 43 35 C43 35.33 43 35.66 43 36 C39.7 36.66 36.4 37.32 33 38 C32.34 41.3 31.68 44.6 31 48 C30.67 48 30.34 48 30 48 C30 45.36 30 42.72 30 40 C28.49069817 43.3863251 28.49069817 43.3863251 28 47 C26.69658207 52.35849592 23.38586168 54.19765512 19 57 C18.21625 57.61875 17.4325 58.2375 16.625 58.875 C12.62330138 60.59001369 9.15554733 60.09741567 5 59 C1.86361943 57.23222186 -0.46729967 55.53270033 -3 53 C-3.125 50 -3.125 50 -3 47 C-3 46.34 -3 45.68 -3 45 C-3 42.33333333 -3 39.66666667 -3 37 C-1.68 37.99 -0.36 38.98 1 40 C1.185625 39.0409375 1.185625 39.0409375 1.375 38.0625 C1.58125 37.381875 1.7875 36.70125 2 36 C2.99 35.505 2.99 35.505 4 35 C4 33.68 4 32.36 4 31 C3.01 30.34 2.02 29.68 1 29 C1.16048828 27.96552734 1.16048828 27.96552734 1.32421875 26.91015625 C2.09437692 20.87310992 1.88500848 16.8406547 -0.36328125 11.21484375 C-1.47686678 7.34120575 -0.68509659 3.92373503 0 0 Z " fill="#37271B" transform="translate(3,0)"/>
<path d="M0 0 C0 10.89 0 21.78 0 33 C-6.75 33 -6.75 33 -10 30 C-10 30.99 -10 31.98 -10 33 C-20.56 33 -31.12 33 -42 33 C-41.67 31.35 -41.34 29.7 -41 28 C-39.989375 27.7525 -38.97875 27.505 -37.9375 27.25 C-32.49671853 25.69391443 -27.92394125 23.13046447 -24 19 C-23.34 19 -22.68 19 -22 19 C-21.773125 18.4225 -21.54625 17.845 -21.3125 17.25 C-19.65151778 14.40260191 -17.68475439 12.87932807 -15 11 C-14.34 11 -13.68 11 -13 11 C-12.66162109 10.12601563 -12.66162109 10.12601563 -12.31640625 9.234375 C-10.63121567 6.37405152 -8.68102441 5.09743802 -5.9375 3.25 C-5.03902344 2.63640625 -4.14054687 2.0228125 -3.21484375 1.390625 C-1 0 -1 0 0 0 Z " fill="#473E31" transform="translate(64,31)"/>
<path d="M0 0 C0.80075535 7.79995029 -0.14935481 12.42779675 -4.78515625 18.80859375 C-6.24369627 20.92262066 -6.24369627 20.92262066 -5.68359375 23.28515625 C-5.45800781 23.85105469 -5.23242188 24.41695312 -5 25 C-5.886875 25.556875 -6.77375 26.11375 -7.6875 26.6875 C-10.8507623 28.79387794 -13.3419781 31.2771483 -16 34 C-17.17483418 35.07648834 -18.36299534 36.13857146 -19.5625 37.1875 C-20.12066406 37.67605469 -20.67882812 38.16460937 -21.25390625 38.66796875 C-24.98391265 41.51345462 -28.37436081 42.36923102 -33 43 C-33.33 44.32 -33.66 45.64 -34 47 C-37.96 47 -41.92 47 -46 47 C-46 45.35 -46 43.7 -46 42 C-43.69 42 -41.38 42 -39 42 C-38.67 41.34 -38.34 40.68 -38 40 C-36.9275 39.566875 -35.855 39.13375 -34.75 38.6875 C-30.98902008 37.15208964 -28.57556202 35.19994069 -26 32 C-26 30.68 -26 29.36 -26 28 C-25.69595322 26.32774271 -25.36871088 24.65919896 -25 23 C-24.01 23 -23.02 23 -22 23 C-21.38125 22.360625 -20.7625 21.72125 -20.125 21.0625 C-18 19 -18 19 -15.5625 18.75 C-11.82633788 17.65648914 -10.85819465 15.24351231 -8.91796875 12.0078125 C-7.79209921 9.91322377 -7.79209921 9.91322377 -8 7 C-8.99 9.31 -9.98 11.62 -11 14 C-11.95027599 11.14917204 -12.29191216 8.78896626 -12.5625 5.8125 C-12.64628906 4.91144531 -12.73007812 4.01039062 -12.81640625 3.08203125 C-12.87699219 2.39496094 -12.93757813 1.70789063 -13 1 C-12.07767578 1.14308594 -12.07767578 1.14308594 -11.13671875 1.2890625 C-10.32847656 1.39992188 -9.52023438 1.51078125 -8.6875 1.625 C-7.88699219 1.74101562 -7.08648437 1.85703125 -6.26171875 1.9765625 C-3.51631013 2.00501233 -2.48809217 0 0 0 Z " fill="#3B2E22" transform="translate(56,17)"/>
<path d="M0 0 C3.2800053 0.57258713 4.78509835 1.47582941 7 3.9375 C10.03892785 7.15576923 10.03892785 7.15576923 14 9 C19.32073976 9 23.06614765 5.19198441 27 2 C27.25 7.625 27.25 7.625 25 11 C25.33 11.66 25.66 12.32 26 13 C22.74687737 17.87968395 19.17190119 19.68678638 14 22 C13.34773438 22.37898438 12.69546875 22.75796875 12.0234375 23.1484375 C8.2583179 24.7329859 4.70083609 23.34866393 1 22 C-1.67467434 20.54554369 -2.91238155 19.35526184 -5 17 C-5.375 13.8125 -5.375 13.8125 -5 11 C-5 10.34 -5 9.68 -5 9 C-5 6.33333333 -5 3.66666667 -5 1 C-3.68 1.99 -2.36 2.98 -1 4 C-0.67 2.68 -0.34 1.36 0 0 Z " fill="#584D3D" transform="translate(5,36)"/>
<path d="M0 0 C6.27 0 12.54 0 19 0 C20.31645074 6.58225368 18.27979309 9.41424595 15 15 C13.04977578 17.92533633 11.61513315 19.60099471 8.6875 21.5 C4.69727015 22.24236834 2.5043211 20.91144787 -1 19 C-3.4375 17.1875 -3.4375 17.1875 -5 15 C-5.25 11.75 -5.25 11.75 -5 9 C-4.34 9 -3.68 9 -3 9 C-2.87625 8.2575 -2.7525 7.515 -2.625 6.75 C-2 4 -2 4 0 0 Z " fill="#5E5646" transform="translate(10,11)"/>
<path d="M0 0 C5.68434533 -0.07039437 9.48080547 0.76425123 14.3046875 3.7890625 C18.39035491 8.0950355 18.12324419 13.60739585 18.0234375 19.21875 C18.00539063 20.53359375 17.98734375 21.8484375 17.96875 23.203125 C17.94554688 24.28078125 17.92234375 25.3584375 17.8984375 26.46875 C17.79302824 28.67956851 17.79302824 28.67956851 18.8984375 31.46875 C17.5784375 32.78875 16.2584375 34.10875 14.8984375 35.46875 C14.2384375 35.13875 13.5784375 34.80875 12.8984375 34.46875 C12.83082214 31.56128953 12.77687449 28.95258688 13.48828125 26.12109375 C13.98350694 22.9186343 13.43541654 20.81445867 12.5234375 17.71875 C12.10964844 16.27242187 12.10964844 16.27242187 11.6875 14.796875 C11.11248177 12.53522314 11.11248177 12.53522314 9.8984375 11.46875 C8.41204758 11.31219973 6.91894623 11.21808057 5.42578125 11.15234375 C4.07709961 11.08950195 4.07709961 11.08950195 2.70117188 11.02539062 C1.75564453 10.98607422 0.81011719 10.94675781 -0.1640625 10.90625 C-1.11345703 10.86306641 -2.06285156 10.81988281 -3.04101562 10.77539062 C-5.39437603 10.66895724 -7.74784604 10.56693992 -10.1015625 10.46875 C-9.69164062 9.99824219 -9.28171875 9.52773437 -8.859375 9.04296875 C-8.32054687 8.42035156 -7.78171875 7.79773438 -7.2265625 7.15625 C-6.69289063 6.54136719 -6.15921875 5.92648438 -5.609375 5.29296875 C-1.5134868 0.3375807 -1.5134868 0.3375807 0 0 Z " fill="#5E5646" transform="translate(23.1015625,-0.46875)"/>
<path d="M0 0 C0.33 0.66 0.66 1.32 1 2 C3.80980673 2.69227032 3.80980673 2.69227032 7.0625 3.125 C8.16722656 3.29257812 9.27195313 3.46015625 10.41015625 3.6328125 C11.26480469 3.75398438 12.11945312 3.87515625 13 4 C13 4.33 13 4.66 13 5 C9.7 5.66 6.4 6.32 3 7 C2.34 10.3 1.68 13.6 1 17 C0.67 17 0.34 17 0 17 C-0.33 14.36 -0.66 11.72 -1 9 C-4.35387312 9 -6.43796318 11.696087 -8.9296875 13.78515625 C-11 15 -11 15 -13.1015625 14.765625 C-17.42766122 13.02094321 -21.08658116 10.66874966 -24 7 C-24.25 4.25 -24.25 4.25 -24 2 C-19.89041233 3.45044271 -16.56741255 5.51110752 -13 8 C-12.34 7.34 -11.68 6.68 -11 6 C-11.33 5.34 -11.66 4.68 -12 4 C-8 2.66666667 -4 1.33333333 0 0 Z " fill="#950C01" transform="translate(33,31)"/>
<path d="M0 0 C0.68184286 8.10635405 -0.35426383 13.28027447 -5 20 C-5.99 20 -6.98 20 -8 20 C-8.99 20.66 -9.98 21.32 -11 22 C-10.67 22.66 -10.34 23.32 -10 24 C-12.64738916 25.4606285 -13.89448334 26 -17 26 C-17.33 27.32 -17.66 28.64 -18 30 C-18 26.37 -18 22.74 -18 19 C-16.35 18.67 -14.7 18.34 -13 18 C-11.33808395 16.29373184 -11.33808395 16.29373184 -10.1875 14.125 C-9.76855469 13.42632812 -9.34960938 12.72765625 -8.91796875 12.0078125 C-7.79209921 9.91322377 -7.79209921 9.91322377 -8 7 C-8.99 9.31 -9.98 11.62 -11 14 C-11.95027599 11.14917204 -12.29191216 8.78896626 -12.5625 5.8125 C-12.64628906 4.91144531 -12.73007812 4.01039062 -12.81640625 3.08203125 C-12.87699219 2.39496094 -12.93757813 1.70789063 -13 1 C-12.07767578 1.14308594 -12.07767578 1.14308594 -11.13671875 1.2890625 C-10.32847656 1.39992188 -9.52023438 1.51078125 -8.6875 1.625 C-7.88699219 1.74101562 -7.08648437 1.85703125 -6.26171875 1.9765625 C-3.51631013 2.00501233 -2.48809217 0 0 0 Z " fill="#352519" transform="translate(56,17)"/>
<path d="M0 0 C4.875 3.75 4.875 3.75 6 6 C6.66 5.34 7.32 4.68 8 4 C8.556875 4.78375 9.11375 5.5675 9.6875 6.375 C12.17307943 9.19646854 13.40319699 10.0798876 17 11 C20.85828498 11.20306763 24.30418993 11.18265922 28 10 C25.49163607 12.87724098 23.71339063 14.75714362 20.0625 16 C16.32577385 16 14.17881775 14.89215342 11 13 C12.98 15.97 12.98 15.97 15 19 C9.1977825 19.36263859 5.36000789 18.25684543 0 16 C0 10.66666667 0 5.33333333 0 0 Z " fill="#97855F" transform="translate(0,37)"/>
<path d="M0 0 C0.33 0 0.66 0 1 0 C1 5.94 1 11.88 1 18 C-5.75 18 -5.75 18 -9 15 C-9 15.99 -9 16.98 -9 18 C-10.98 18 -12.96 18 -15 18 C-15.66 16.35 -16.32 14.7 -17 13 C-13.03575785 9.56432347 -8.75435008 7.03506743 -4.20703125 4.46484375 C-1.74421172 3.03502836 -1.74421172 3.03502836 0 0 Z " fill="#41382C" transform="translate(63,46)"/>
<path d="M0 0 C5.37305699 -0.44041451 5.37305699 -0.44041451 8 0 C10 2.5 10 2.5 11 5 C12.65 3.68 14.3 2.36 16 1 C16.66 1.33 17.32 1.66 18 2 C16.92643323 3.15498897 15.84070212 4.29867867 14.75 5.4375 C14.14671875 6.07558594 13.5434375 6.71367188 12.921875 7.37109375 C10.89951984 9.08516306 9.58729395 9.59358878 7 10 C6.87625 10.721875 6.7525 11.44375 6.625 12.1875 C6.0095069 14.95721894 5.11555626 17.3970354 4 20 C0.54168282 16.07009411 -1.11720221 11.83088416 -0.8984375 6.546875 C-0.65672904 4.35078101 -0.36557431 2.17862527 0 0 Z " fill="#443529" transform="translate(3,0)"/>
<path d="M0 0 C5.28 0 10.56 0 16 0 C12.97008275 10.15022279 12.97008275 10.15022279 9 14 C6.75 14.8125 6.75 14.8125 5 15 C5.78375 14.13375 6.5675 13.2675 7.375 12.375 C9.83386728 9.44943553 11.02450104 6.72463238 12 3 C10.36881217 3.56579947 8.74515506 4.15334233 7.125 4.75 C6.22007813 5.07484375 5.31515625 5.3996875 4.3828125 5.734375 C1.63556582 7.19356832 0.93300825 8.06768837 0 11 C0.30803455 14.18522204 0.30803455 14.18522204 1 17 C-0.98 16.01 -2.96 15.02 -5 14 C-5 12.35 -5 10.7 -5 9 C-4.34 9 -3.68 9 -3 9 C-2.87625 8.2575 -2.7525 7.515 -2.625 6.75 C-2 4 -2 4 0 0 Z " fill="#96845E" transform="translate(10,11)"/>
<path d="M0 0 C0.33 0.99 0.66 1.98 1 3 C-1.88569762 5.97587567 -4.84428651 8.74797146 -8 11.4375 C-10.5461025 13.62810895 -12.78145197 15.81127407 -14.875 18.4375 C-15.57625 19.283125 -16.2775 20.12875 -17 21 C-17.66 21 -18.32 21 -19 21 C-19.45262267 17.90707841 -19.48338914 15.77721392 -17.8046875 13.078125 C-14.99841096 9.66546709 -13.34865576 7.98373397 -9 7 C-8.731875 6.38125 -8.46375 5.7625 -8.1875 5.125 C-6.3189256 1.78123528 -3.52765213 1.30653783 0 0 Z " fill="#8EA0AE" transform="translate(60,35)"/>
<path d="M0 0 C0.99 0 1.98 0 3 0 C1.82724115 3.96933765 0.48229001 6.72789044 -2 10 C-2 10.99 -2 11.98 -2 13 C-2.66 13.66 -3.32 14.32 -4 15 C-7.5 14.875 -7.5 14.875 -11 14 C-12.4375 11.9375 -12.4375 11.9375 -13 10 C-9.59727838 6.29703823 -6.54089799 4.11908573 -2 2 C-1.34 1.34 -0.68 0.68 0 0 Z " fill="#5C5343" transform="translate(55,0)"/>
<path d="M0 0 C0.66 0 1.32 0 2 0 C2.08096803 1.45742463 2.13917774 2.91612807 2.1875 4.375 C2.22230469 5.18710937 2.25710937 5.99921875 2.29296875 6.8359375 C2.19628906 7.55007812 2.09960938 8.26421875 2 9 C1.01 9.66 0.02 10.32 -1 11 C-1.625 8.625 -1.625 8.625 -2 6 C-1.34 5.34 -0.68 4.68 0 4 C0 2.68 0 1.36 0 0 Z M-3.5625 14.8125 C-3.046875 15.204375 -2.53125 15.59625 -2 16 C-5 18 -5 18 -8 18 C-8.33 19.98 -8.66 21.96 -9 24 C-12.96 24 -16.92 24 -21 24 C-21 22.35 -21 20.7 -21 19 C-18.69 19 -16.38 19 -14 19 C-13.67 18.34 -13.34 17.68 -13 17 C-6.81021898 13.72992701 -6.81021898 13.72992701 -3.5625 14.8125 Z " fill="#403324" transform="translate(31,40)"/>
<path d="M0 0 C0.4268329 3.67076296 0.42751042 5.4250722 -1.8125 8.4375 C-6.07497948 12.22091118 -11.16210526 15.02686654 -16 18 C-16.99 18.66 -17.98 19.32 -19 20 C-19 15.27364536 -15.90611097 12.98377763 -12.8125 9.625 C-2.5 0 -2.5 0 0 0 Z " fill="#657683" transform="translate(64,40)"/>
<path d="M0 0 C0.33 0.66 0.66 1.32 1 2 C1.88522339 1.9685791 1.88522339 1.9685791 2.78833008 1.93652344 C5.46287999 1.85336317 8.13715815 1.80134309 10.8125 1.75 C11.74126953 1.71648438 12.67003906 1.68296875 13.62695312 1.6484375 C14.9659668 1.62910156 14.9659668 1.62910156 16.33203125 1.609375 C17.56530151 1.5779541 17.56530151 1.5779541 18.82348633 1.54589844 C21 2 21 2 22.74169922 3.85131836 C25.49865436 8.55911079 26.42151655 14.95797092 25.67578125 20.33984375 C25.125 22.25 25.125 22.25 24 25 C22.02 24.67 20.04 24.34 18 24 C18.66 23.34 19.32 22.68 20 22 C20.38063221 19.6739143 20.71269945 17.33944736 21 15 C21.33 14.01 21.66 13.02 22 12 C21.72428861 9.99124558 21.39764263 7.98821313 21 6 C19.68 5.67 18.36 5.34 17 5 C17 4.34 17 3.68 17 3 C10.73 3 4.46 3 -2 3 C-1.34 2.67 -0.68 2.34 0 2 C0 1.34 0 0.68 0 0 Z " fill="#33221B" transform="translate(12,8)"/>
<path d="M0 0 C1.06105263 7.57894737 1.06105263 7.57894737 -1.3125 10.7578125 C-3.13774626 12.31416087 -5.0055822 13.66782131 -7 15 C-8.31276816 15.95796596 -9.62528348 16.91627854 -10.9375 17.875 C-11.948125 18.57625 -12.95875 19.2775 -14 20 C-13.67 20.66 -13.34 21.32 -13 22 C-17.39453125 26.00390625 -17.39453125 26.00390625 -19 27 C-19.99 26.67 -20.98 26.34 -22 26 C-18.2583816 20.48294699 -14.12529705 16.08250681 -9.05078125 11.76171875 C-6.41163732 9.49615724 -6.41163732 9.49615724 -4 7 C-4 6.34 -4 5.68 -4 5 C-4.66 4.67 -5.32 4.34 -6 4 C-1.125 0 -1.125 0 0 0 Z " fill="#60717F" transform="translate(64,31)"/>
<path d="M0 0 C2.1640625 -0.29296875 2.1640625 -0.29296875 4.625 -0.1875 C5.44226562 -0.16042969 6.25953125 -0.13335938 7.1015625 -0.10546875 C8.04128906 -0.05326172 8.04128906 -0.05326172 9 0 C8.01 0.99 7.02 1.98 6 3 C7.11375 3.433125 8.2275 3.86625 9.375 4.3125 C13 6 13 6 15 9 C13.96875 8.67 12.9375 8.34 11.875 8 C8.46918116 7.04554674 5.55668178 6.61340415 2 7 C0.32260138 7.98189187 -1.34467377 8.98133771 -3 10 C-5.8125 10.1875 -5.8125 10.1875 -8 10 C-7.59007812 9.52949219 -7.18015625 9.05898437 -6.7578125 8.57421875 C-6.21898437 7.95160156 -5.68015625 7.32898438 -5.125 6.6875 C-4.59132813 6.07261719 -4.05765625 5.45773438 -3.5078125 4.82421875 C-1.8359553 2.86501788 -1.8359553 2.86501788 0 0 Z " fill="#96845E" transform="translate(21,0)"/>
<path d="M0 0 C0.99 0 1.98 0 3 0 C4.54947336 5.32334407 2.92638082 7.93793964 0.39453125 12.625 C-1.78463519 16.33629746 -3.67502947 19.14055966 -7.3125 21.5 C-11.33771524 22.24887725 -13.48799796 20.97949206 -17 19 C-19.4375 16.3125 -19.4375 16.3125 -21 14 C-18.82034689 14.46706852 -17.07412835 14.95799393 -15.125 16.0625 C-12.15646155 17.37214931 -10.21491114 17.45927302 -7 17 C-3.50911916 14.15858536 -0.93308758 11.06965806 1 7 C1.25196129 4.29046449 1.25196129 4.29046449 1 2 C0.34 3.98 -0.32 5.96 -1 8 C-2.2077558 4.37673261 -1.54311128 3.35853631 0 0 Z " fill="#605746" transform="translate(26,11)"/>
<path d="M0 0 C2.625 1.5625 2.625 1.5625 4.625 6.5625 C-2.635 6.5625 -9.895 6.5625 -17.375 6.5625 C-17.045 5.9025 -16.715 5.2425 -16.375 4.5625 C-15.694375 4.43875 -15.01375 4.315 -14.3125 4.1875 C-11.49771914 3.58861046 -9.89618411 2.78332672 -7.4375 1.375 C-4.3628008 -0.21756631 -3.59483019 -0.46599651 0 0 Z " fill="#6C614A" transform="translate(39.375,57.4375)"/>
<path d="M0 0 C3.65316671 1.24976756 4.78065836 1.67098753 7 5 C9.95817107 5.25005386 9.95817107 5.25005386 13 5 C13.99 5 14.98 5 16 5 C14.68441297 6.02323436 13.34631825 7.01755155 12 8 C11.278125 8.5775 10.55625 9.155 9.8125 9.75 C5.69932108 11.57807952 2.29915853 11.13334583 -2 10 C-5.01140022 8.56003732 -7.46648273 7.06703454 -9 4 C-7.96875 4.33 -6.9375 4.66 -5.875 5 C-2.51573291 5.9715192 0.49106202 6.17116771 4 6 C3.34 5.38125 2.68 4.7625 2 4.125 C0 2 0 2 0 0 Z " fill="#5C564B" transform="translate(10,49)"/>
<path d="M0 0 C4.10958767 1.45044271 7.43258745 3.51110752 11 6 C11.66 5.34 12.32 4.68 13 4 C12.67 3.34 12.34 2.68 12 2 C13.28745036 1.61077082 14.58019597 1.23901964 15.875 0.875 C16.95394531 0.56175781 16.95394531 0.56175781 18.0546875 0.2421875 C18.69664063 0.16226563 19.33859375 0.08234375 20 0 C20.66 0.66 21.32 1.32 22 2 C21.0925 2.598125 20.185 3.19625 19.25 3.8125 C16.1106035 5.83620328 16.1106035 5.83620328 13.875 7.8125 C12 9 12 9 10 8.8125 C7.93651179 7.97420791 5.96321426 7.05172193 4 6 C3.67 6.66 3.34 7.32 3 8 C1.5 6.8125 1.5 6.8125 0 5 C-0.1875 2.3125 -0.1875 2.3125 0 0 Z " fill="#A60100" transform="translate(9,33)"/>
<path d="M0 0 C0.66 0 1.32 0 2 0 C2 0.66 2 1.32 2 2 C3.8253125 1.7834375 3.8253125 1.7834375 5.6875 1.5625 C8.49831126 1.52755208 9.57584344 1.59800839 11.64453125 3.55859375 C12.880186 5.32839321 13.98865312 7.0940001 15 9 C9.1977825 9.36263859 5.36000789 8.25684543 0 6 C0 4.02 0 2.04 0 0 Z " fill="#9AACBA" transform="translate(0,47)"/>
<path d="M0 0 C0.66 0 1.32 0 2 0 C2.71419715 6.78487291 2.71419715 6.78487291 0.875 9.9140625 C-0.6624358 11.73176004 -2.2625683 13.37288143 -4 15 C-4.53753906 15.52207031 -5.07507813 16.04414063 -5.62890625 16.58203125 C-7.1875 18 -7.1875 18 -10 20 C-10.99 19.67 -11.98 19.34 -13 19 C-11.948125 18.319375 -11.948125 18.319375 -10.875 17.625 C-5.65450756 12.85846342 -2.47852895 6.56633974 0 0 Z " fill="#453929" transform="translate(30,14)"/>
<path d="M0 0 C4.00508702 2.9752075 7.0875615 5.97398207 10 10 C9.67 10.99 9.34 11.98 9 13 C2.47535771 12.51669316 2.47535771 12.51669316 0.5625 10.4375 C-0.25383472 6.90004954 -0.12094463 3.62833901 0 0 Z " fill="#4D5762" transform="translate(0,37)"/>
<path d="M0 0 C-0.68440403 8.26688027 -1.91471803 14.05301989 -8 20 C-11.3125 20.375 -11.3125 20.375 -14 20 C-13.195625 19.2265625 -13.195625 19.2265625 -12.375 18.4375 C-11.59125 17.633125 -10.8075 16.82875 -10 16 C-9.48308594 15.49082031 -8.96617188 14.98164062 -8.43359375 14.45703125 C-4.19437415 9.99308194 -3.42007435 7.09107804 -3 1 C-1 0 -1 0 0 0 Z " fill="#352518" transform="translate(37,39)"/>
<path d="M0 0 C6.6 0 13.2 0 20 0 C18.35 1.65 16.7 3.3 15 5 C14.01 5 13.02 5 12 5 C12 4.34 12 3.68 12 3 C11.01 3 10.02 3 9 3 C9 3.99 9 4.98 9 6 C8.67 5.34 8.34 4.68 8 4 C6.00428677 3.32060826 4.00405227 2.65438441 2 2 C1.34 1.34 0.68 0.68 0 0 Z " fill="#38281B" transform="translate(35,0)"/>
<path d="M0 0 C3.57814867 0.59635811 5.54422861 1.999934 8.25 4.375 C8.95640625 4.98085938 9.6628125 5.58671875 10.390625 6.2109375 C12 8 12 8 12 11 C11.01 11.495 11.01 11.495 10 12 C7.27127689 10.56742037 5.18277634 9.18277634 3 7 C2.01 7 1.02 7 0 7 C0 4.69 0 2.38 0 0 Z " fill="#4A3C32" transform="translate(5,36)"/>
<path d="M0 0 C5.28137429 0.51525603 8.57221156 2.25477117 13 5 C12.67 4.01 12.34 3.02 12 2 C13.32 2.33 14.64 2.66 16 3 C15.6875 4.9375 15.6875 4.9375 15 7 C14.01 7.33 13.02 7.66 12 8 C11.67 10.64 11.34 13.28 11 16 C10.67 16 10.34 16 10 16 C9.86464844 15.25234375 9.72929688 14.5046875 9.58984375 13.734375 C8.50617275 7.99582932 8.50617275 7.99582932 5.2421875 3.37890625 C3.13436436 2.16062565 3.13436436 2.16062565 0 1 C0 0.67 0 0.34 0 0 Z " fill="#413326" transform="translate(31,0)"/>
<path d="M0 0 C0.33 0 0.66 0 1 0 C1 2.31 1 4.62 1 7 C-1.64 7.33 -4.28 7.66 -7 8 C-7 8.66 -7 9.32 -7 10 C-8.28650706 10.69710731 -9.57940665 11.38242876 -10.875 12.0625 C-11.59429687 12.44535156 -12.31359375 12.82820313 -13.0546875 13.22265625 C-13.69664063 13.47917969 -14.33859375 13.73570313 -15 14 C-15.66 13.67 -16.32 13.34 -17 13 C-13.03575785 9.56432347 -8.75435008 7.03506743 -4.20703125 4.46484375 C-1.74421172 3.03502836 -1.74421172 3.03502836 0 0 Z " fill="#627583" transform="translate(63,46)"/>
<path d="M0 0 C-1.33820187 4.01460561 -3.89540759 5.04148674 -7.375 7.0625 C-8.54966785 7.76140172 -9.72415299 8.46061064 -10.8984375 9.16015625 C-11.92195313 9.76730469 -12.94546875 10.37445313 -14 11 C-14.99 11.66 -15.98 12.32 -17 13 C-17 12.01 -17 11.02 -17 10 C-12.86364788 5.96970819 -6.01734677 0 0 0 Z " fill="#B0C3D2" transform="translate(62,47)"/>
<path d="M0 0 C0.66 0.33 1.32 0.66 2 1 C0.71034824 2.37562854 -0.62689293 3.70766393 -2 5 C-2.66 5 -3.32 5 -4 5 C-4.33 6.65 -4.66 8.3 -5 10 C-8.5051418 9.35089967 -11.15174779 8.15543411 -14 6 C-14.8125 3.3125 -14.8125 3.3125 -15 1 C-14.0925 1.680625 -13.185 2.36125 -12.25 3.0625 C-9.3353541 5.17602219 -9.3353541 5.17602219 -6.9375 5 C-4.330545 3.65447484 -2.21711424 1.90918171 0 0 Z " fill="#C53310" transform="translate(27,36)"/>
<path d="M0 0 C1.06003137 7.57165265 1.06003137 7.57165265 -1.3828125 10.86328125 C-4.61440067 13.68217742 -7.86049725 15.74560523 -12 17 C-7.25 12.125 -7.25 12.125 -5 11 C-4.34227572 7.97065509 -4.34227572 7.97065509 -4 5 C-4.66 4.67 -5.32 4.34 -6 4 C-1.125 0 -1.125 0 0 0 Z " fill="#475B6A" transform="translate(64,31)"/>
<path d="M0 0 C0.99 0.33 1.98 0.66 3 1 C1.6875 3 1.6875 3 0 5 C-0.99 5 -1.98 5 -3 5 C-3.268125 5.598125 -3.53625 6.19625 -3.8125 6.8125 C-4.99898798 8.99813575 -6.2583417 10.2583417 -8 12 C-9.17574711 14.09989652 -9.17574711 14.09989652 -10 16 C-10.45262267 12.90707841 -10.48338914 10.77721392 -8.8046875 8.078125 C-6.08393718 4.76947386 -4.35168065 2.7284335 0 2 C0 1.34 0 0.68 0 0 Z " fill="#BCD0E0" transform="translate(51,40)"/>
<path d="M0 0 C0.66 0.33 1.32 0.66 2 1 C0.90033225 2.29549899 -0.20491801 3.58626071 -1.3125 4.875 C-1.92738281 5.59429688 -2.54226562 6.31359375 -3.17578125 7.0546875 C-5 9 -5 9 -8 11 C-8.99 11 -9.98 11 -11 11 C-10.8125 9.1875 -10.8125 9.1875 -10 7 C-7.75 5.5 -7.75 5.5 -5 4 C-3.31522656 2.68962066 -1.64351457 1.36176922 0 0 Z " fill="#998760" transform="translate(55,0)"/>
<path d="M0 0 C6.625 -0.25 6.625 -0.25 10 2 C10 3.32 10 4.64 10 6 C8.02 6 6.04 6 4 6 C3.34 4.68 2.68 3.36 2 2 C1.34 2 0.68 2 0 2 C0 1.34 0 0.68 0 0 Z " fill="#5E5646" transform="translate(54,58)"/>
<path d="M0 0 C0.33 0 0.66 0 1 0 C2.01603857 5.79141983 1.96263236 9.4584498 0 15 C-2.97 14.505 -2.97 14.505 -6 14 C-5.34 13.34 -4.68 12.68 -4 12 C-3.59952556 9.67724823 -3.2602896 7.34260643 -3 5 C-2.34 5 -1.68 5 -1 5 C-0.67 3.35 -0.34 1.7 0 0 Z " fill="#501410" transform="translate(36,18)"/>
<path d="M0 0 C0.33 0 0.66 0 1 0 C1.7425513 5.94041036 -0.5044363 9.44974036 -4 14 C-6.43036889 16.43036889 -7.31817183 16.95351172 -10.75 17.1875 C-11.86375 17.0946875 -11.86375 17.0946875 -13 17 C-11.23044918 15.82029945 -9.4444223 14.66372929 -7.625 13.5625 C-3.70334067 9.73421352 -2.03611381 5.02530217 0 0 Z " fill="#483C2C" transform="translate(27,12)"/>
<path d="M0 0 C1.9375 0.8125 1.9375 0.8125 3.9375 2.8125 C3.2775 2.8125 2.6175 2.8125 1.9375 2.8125 C1.9375 3.8025 1.9375 4.7925 1.9375 5.8125 C-0.0425 5.8125 -2.0225 5.8125 -4.0625 5.8125 C-4.3925 4.8225 -4.7225 3.8325 -5.0625 2.8125 C-2.62182203 -0.23834746 -2.62182203 -0.23834746 0 0 Z " fill="#36261C" transform="translate(52.0625,58.1875)"/>
<path d="M0 0 C0.66 0 1.32 0 2 0 C2 0.99 2 1.98 2 3 C1.34 3 0.68 3 0 3 C-0.103125 3.886875 -0.20625 4.77375 -0.3125 5.6875 C-1.02096487 9.10101256 -1.88882698 11.23923528 -4 14 C-4.99 14 -5.98 14 -7 14 C-6.34 13.34 -5.68 12.68 -5 12 C-5 11.01 -5 10.02 -5 9 C-3.90625 6.73828125 -3.90625 6.73828125 -2.5 4.3125 C-2.0359375 3.50425781 -1.571875 2.69601563 -1.09375 1.86328125 C-0.7328125 1.24839844 -0.371875 0.63351563 0 0 Z " fill="#483C2C" transform="translate(58,0)"/>
<path d="M0 0 C6.44027304 1.76791809 6.44027304 1.76791809 9.5625 3.0625 C12.35370604 4.13604079 15.04506751 4.58768384 18 5 C13.98205212 7.41441313 11.59900767 6.94494663 7.1953125 5.84765625 C3.86562765 4.56199502 2.2372469 2.74243169 0 0 Z " fill="#647481" transform="translate(1,53)"/>
<path d="M0 0 C1.65 0 3.3 0 5 0 C4.67 0.99 4.34 1.98 4 3 C3.34 3 2.68 3 2 3 C2 5.97 2 8.94 2 12 C1.67 11.01 1.34 10.02 1 9 C0.34 9 -0.32 9 -1 9 C-0.67 6.03 -0.34 3.06 0 0 Z " fill="#736147" transform="translate(3,0)"/>
<path d="M0 0 C2.31 0.33 4.62 0.66 7 1 C7.33 2.32 7.66 3.64 8 5 C5.36 5 2.72 5 0 5 C0 3.35 0 1.7 0 0 Z " fill="#473F36" transform="translate(10,59)"/>
<path d="M0 0 C3.73884332 2.65654657 5.64978174 4.58110387 7 9 C4.69 8.34 2.38 7.68 0 7 C0 4.69 0 2.38 0 0 Z " fill="#99AAB8" transform="translate(0,37)"/>
<path d="M0 0 C0.99 0.33 1.98 0.66 3 1 C0.59757773 4.17462943 -1.61713276 6.85751741 -5 9 C-5.66 9 -6.32 9 -7 9 C-6.75881648 5.74402242 -5.47775788 4.2723696 -3.125 2.1875 C-2.09375 1.465625 -1.0625 0.74375 0 0 Z " fill="#7C0504" transform="translate(29,36)"/>
<path d="M0 0 C0.66 0 1.32 0 2 0 C2 0.66 2 1.32 2 2 C2.99 2.33 3.98 2.66 5 3 C4.67 4.32 4.34 5.64 4 7 C1.5625 6.625 1.5625 6.625 -1 6 C-1.33 5.34 -1.66 4.68 -2 4 C-1.0625 1.875 -1.0625 1.875 0 0 Z " fill="#32231A" transform="translate(18,57)"/>
<path d="M0 0 C0.99 0.33 1.98 0.66 3 1 C0.69 3.64 -1.62 6.28 -4 9 C-4.33 7.68 -4.66 6.36 -5 5 C-2.5625 2.25 -2.5625 2.25 0 0 Z " fill="#95A7B5" transform="translate(47,47)"/>
<path d="M0 0 C0 0.99 0 1.98 0 3 C-1.28650706 3.69710731 -2.57940665 4.38242876 -3.875 5.0625 C-4.95394531 5.63677734 -4.95394531 5.63677734 -6.0546875 6.22265625 C-6.69664063 6.47917969 -7.33859375 6.73570313 -8 7 C-8.66 6.67 -9.32 6.34 -10 6 C-2.6 0 -2.6 0 0 0 Z " fill="#556572" transform="translate(56,53)"/>
<path d="M0 0 C0.25 2.8125 0.25 2.8125 0 6 C-2 7.875 -2 7.875 -4 9 C-4 7.68 -4 6.36 -4 5 C-4.66 4.67 -5.32 4.34 -6 4 C-1.125 0 -1.125 0 0 0 Z " fill="#6A7A87" transform="translate(64,31)"/>
<path d="M0 0 C0.66 0.66 1.32 1.32 2 2 C1.625 4.125 1.625 4.125 1 6 C-0.65 5.67 -2.3 5.34 -4 5 C-4 3.68 -4 2.36 -4 1 C-2.125 0.375 -2.125 0.375 0 0 Z " fill="#CC3608" transform="translate(33,31)"/>
<path d="M0 0 C2.475 0.99 2.475 0.99 5 2 C4.67 3.98 4.34 5.96 4 8 C2 6.8125 2 6.8125 0 5 C-0.25 2.3125 -0.25 2.3125 0 0 Z " fill="#800202" transform="translate(9,33)"/>
<path d="M0 0 C0.66 1.32 1.32 2.64 2 4 C2.99 5.485 2.99 5.485 4 7 C4 7.99 4 8.98 4 10 C2.68 9.67 1.36 9.34 0 9 C0 6.03 0 3.06 0 0 Z " fill="#3A2B1C" transform="translate(8,0)"/>
<path d="M0 0 C2.9375 0.8125 2.9375 0.8125 6 2 C6.33 2.99 6.66 3.98 7 5 C4.625 4.75 4.625 4.75 2 4 C0.6875 1.9375 0.6875 1.9375 0 0 Z " fill="#847252" transform="translate(55,59)"/>
<path d="M0 0 C0.928125 0.515625 1.85625 1.03125 2.8125 1.5625 C2.1525 2.2225 1.4925 2.8825 0.8125 3.5625 C-0.5075 3.5625 -1.8275 3.5625 -3.1875 3.5625 C-4.9375 1.5625 -4.9375 1.5625 -6.1875 -0.4375 C-3.1875 -1.4375 -3.1875 -1.4375 0 0 Z " fill="#3B2A24" transform="translate(20.1875,45.4375)"/>
<path d="M0 0 C2.31 0 4.62 0 7 0 C7 1.32 7 2.64 7 4 C4.69 3.34 2.38 2.68 0 2 C0 1.34 0 0.68 0 0 Z " fill="#ABBFCE" transform="translate(3,49)"/>
<path d="M0 0 C1.14926266 0.95421808 2.29430541 1.91352045 3.4375 2.875 C4.07558594 3.40867188 4.71367187 3.94234375 5.37109375 4.4921875 C7 6 7 6 8 8 C4.18315774 6.44499019 1.80804268 3.96404505 -1 1 C-0.67 0.67 -0.34 0.34 0 0 Z " fill="#92815D" transform="translate(7,36)"/>
<path d="M0 0 C1.65 1.65 3.3 3.3 5 5 C1.7 4.01 -1.6 3.02 -5 2 C-4.01 1.67 -3.02 1.34 -2 1 C-1.34 1.33 -0.68 1.66 0 2 C0 1.34 0 0.68 0 0 Z " fill="#718391" transform="translate(10,51)"/>
<path d="M0 0 C0.53625 0.37125 1.0725 0.7425 1.625 1.125 C0.33754964 1.51422918 -0.95519597 1.88598036 -2.25 2.25 C-2.96929688 2.45882812 -3.68859375 2.66765625 -4.4296875 2.8828125 C-5.07164063 2.96273437 -5.71359375 3.04265625 -6.375 3.125 C-7.035 2.465 -7.695 1.805 -8.375 1.125 C-2.95961538 -1.09038462 -2.95961538 -1.09038462 0 0 Z " fill="#890000" transform="translate(29.375,33.875)"/>
<path d="M0 0 C2.31 0 4.62 0 7 0 C6.67 0.99 6.34 1.98 6 3 C3.03 2.505 3.03 2.505 0 2 C0 1.34 0 0.68 0 0 Z " fill="#3C2E1F" transform="translate(45,15)"/>
</svg>
