<?xml version="1.0" encoding="UTF-8"?>
<svg version="1.1" xmlns="http://www.w3.org/2000/svg" width="64" height="64">
<path d="M0 0 C19.47 0 38.94 0 59 0 C59 21.12 59 42.24 59 64 C38.21 64 17.42 64 -4 64 C-4 62.02 -4 60.04 -4 58 C-4.33 58 -4.66 58 -5 58 C-5.08074203 55.37438891 -5.1403623 52.75124324 -5.1875 50.125 C-5.21263672 49.37863281 -5.23777344 48.63226563 -5.26367188 47.86328125 C-5.29296875 45.6953125 -5.29296875 45.6953125 -5 42 C-4.01 41.34 -3.02 40.68 -2 40 C-2.99 39.34 -3.98 38.68 -5 38 C-5 37.01 -5 36.02 -5 35 C-1.535 34.505 -1.535 34.505 2 34 C1.4946875 33.59007812 0.989375 33.18015625 0.46875 32.7578125 C-0.1809375 32.21898437 -0.830625 31.68015625 -1.5 31.125 C-2.1496875 30.59132813 -2.799375 30.05765625 -3.46875 29.5078125 C-4.22671875 28.76144531 -4.22671875 28.76144531 -5 28 C-5 27.34 -5 26.68 -5 26 C-3.58249437 26.11509661 -2.16598831 26.24253658 -0.75 26.375 C0.03890625 26.44460937 0.8278125 26.51421875 1.640625 26.5859375 C4.085877 27.01507113 5.84836903 27.78600638 8 29 C7.90460937 28.25234375 7.80921875 27.5046875 7.7109375 26.734375 C7.60007812 25.74953125 7.48921875 24.7646875 7.375 23.75 C7.25898438 22.77546875 7.14296875 21.8009375 7.0234375 20.796875 C6.99887463 17.86570607 7.4687283 16.45471036 9 14 C8.4225 13.773125 7.845 13.54625 7.25 13.3125 C4.29652858 11.58964167 2.85405215 9.87697747 1 7 C0.67 4.69 0.34 2.38 0 0 Z " fill="#ACA689" transform="translate(5,0)"/>
<path d="M0 0 C1.7074998 1.28062485 3.37373596 2.61767557 5 4 C5 4.66 5 5.32 5 6 C5.66 6 6.32 6 7 6 C7.33 5.01 7.66 4.02 8 3 C10.46948242 4.36035156 10.46948242 4.36035156 13 7 C13.72351132 10.40665389 13.58157474 13.76532638 13.48828125 17.234375 C13.48324585 18.11496582 13.47821045 18.99555664 13.47302246 19.90283203 C13.44690413 23.18555355 13.37709653 26.46781018 13.3125 29.75 C13.209375 37.0925 13.10625 44.435 13 52 C-7.79 52 -28.58 52 -50 52 C-50 50.02 -50 48.04 -50 46 C-50.33 46 -50.66 46 -51 46 C-51.08074203 43.37438891 -51.1403623 40.75124324 -51.1875 38.125 C-51.21263672 37.37863281 -51.23777344 36.63226563 -51.26367188 35.86328125 C-51.29296875 33.6953125 -51.29296875 33.6953125 -51 30 C-50.01 29.34 -49.02 28.68 -48 28 C-48.99 27.34 -49.98 26.68 -51 26 C-51 25.01 -51 24.02 -51 23 C-47.535 22.505 -47.535 22.505 -44 22 C-44.5053125 21.59007813 -45.010625 21.18015625 -45.53125 20.7578125 C-46.1809375 20.21898438 -46.830625 19.68015625 -47.5 19.125 C-48.1496875 18.59132813 -48.799375 18.05765625 -49.46875 17.5078125 C-50.22671875 16.76144531 -50.22671875 16.76144531 -51 16 C-51 15.34 -51 14.68 -51 14 C-49.58249437 14.11509661 -48.16598831 14.24253658 -46.75 14.375 C-45.56664062 14.47941406 -45.56664062 14.47941406 -44.359375 14.5859375 C-41.914123 15.01507113 -40.15163097 15.78600638 -38 17 C-38 14.69 -38 12.38 -38 10 C-35.4375 12.1875 -35.4375 12.1875 -33 15 C-33.25782503 18.96405986 -34.69226142 21.2707159 -37.0625 24.375 C-40.00514986 28.56774932 -40.64389479 30.95615746 -40 36 C-39.34 35.01 -38.68 34.02 -38 33 C-37.34 33 -36.68 33 -36 33 C-37.05875074 36.40312738 -38.00902154 39.01353231 -40 42 C-39.69159401 44.15274948 -39.69159401 44.15274948 -39 46 C-35.50155614 45.36610765 -33.15913124 43.94822306 -30.25 41.9375 C-29.45078125 41.38964844 -28.6515625 40.84179688 -27.828125 40.27734375 C-27.22484375 39.85582031 -26.6215625 39.43429688 -26 39 C-25.875 41.375 -25.875 41.375 -26 44 C-26.66 44.66 -27.32 45.32 -28 46 C-22.93582125 44.73395531 -20.88577441 43.32866162 -18 39 C-17.56042969 38.21625 -17.12085938 37.4325 -16.66796875 36.625 C-13.41602716 30.85902441 -10.77636767 27.33251981 -5 24 C-4.34 24 -3.68 24 -3 24 C-2.731875 23.360625 -2.46375 22.72125 -2.1875 22.0625 C-1 20 -1 20 2 19 C2 15.04 2 11.08 2 7 C-1.34075097 8.73669952 -1.34075097 8.73669952 -1.8125 12.375 C-3.27596212 16.84241068 -4.90540444 17.86739815 -9 20 C-9.66 20 -10.32 20 -11 20 C-11 20.66 -11 21.32 -11 22 C-16.02254631 22.2954439 -18.89542386 21.98514628 -23 19 C-19.72022514 13.60424136 -16.84886226 10.92907605 -11.18359375 8.140625 C-8.94080323 7.04535111 -8.94080323 7.04535111 -6.91015625 5.421875 C-5 4 -5 4 -2 3 C-1.34 2.01 -0.68 1.02 0 0 Z " fill="#8E8666" transform="translate(51,12)"/>
<path d="M0 0 C2.5625 2.1875 2.5625 2.1875 5 5 C4.74217497 8.96405986 3.30773858 11.2707159 0.9375 14.375 C-2.00514986 18.56774932 -2.64389479 20.95615746 -2 26 C-1.34 25.01 -0.68 24.02 0 23 C0.66 23 1.32 23 2 23 C0.94124926 26.40312738 -0.00902154 29.01353231 -2 32 C-1.69159401 34.15274948 -1.69159401 34.15274948 -1 36 C2.49844386 35.36610765 4.84086876 33.94822306 7.75 31.9375 C8.54921875 31.38964844 9.3484375 30.84179688 10.171875 30.27734375 C10.77515625 29.85582031 11.3784375 29.43429688 12 29 C12.125 31.375 12.125 31.375 12 34 C11.34 34.66 10.68 35.32 10 36 C15.06417875 34.73395531 17.11422559 33.32866162 20 29 C20.43957031 28.21625 20.87914062 27.4325 21.33203125 26.625 C24.58397284 20.85902441 27.22363233 17.33251981 33 14 C33.66 14 34.32 14 35 14 C35.33 13.01 35.66 12.02 36 11 C37.80601818 14.61203636 37.18079105 18.22869798 36 22 C33.68404047 25.09897442 30.9525233 27.51707364 28 30 C27.40832031 30.53109375 26.81664062 31.0621875 26.20703125 31.609375 C22.3497191 35 22.3497191 35 20 35 C20.495 37.475 20.495 37.475 21 40 C21.55429687 39.4946875 22.10859375 38.989375 22.6796875 38.46875 C23.40414062 37.8190625 24.12859375 37.169375 24.875 36.5 C25.59429687 35.8503125 26.31359375 35.200625 27.0546875 34.53125 C29 33 29 33 31 33 C31.495 36.465 31.495 36.465 32 40 C33.98 38.35 35.96 36.7 38 35 C38 37.31 38 39.62 38 42 C21.5 42 5 42 -12 42 C-12 40.02 -12 38.04 -12 36 C-12.33 36 -12.66 36 -13 36 C-13.08074203 33.37438891 -13.1403623 30.75124324 -13.1875 28.125 C-13.21263672 27.37863281 -13.23777344 26.63226563 -13.26367188 25.86328125 C-13.29296875 23.6953125 -13.29296875 23.6953125 -13 20 C-12.01 19.34 -11.02 18.68 -10 18 C-10.99 17.34 -11.98 16.68 -13 16 C-13 15.01 -13 14.02 -13 13 C-9.535 12.505 -9.535 12.505 -6 12 C-6.5053125 11.59007812 -7.010625 11.18015625 -7.53125 10.7578125 C-8.1809375 10.21898437 -8.830625 9.68015625 -9.5 9.125 C-10.1496875 8.59132813 -10.799375 8.05765625 -11.46875 7.5078125 C-11.9740625 7.01023437 -12.479375 6.51265625 -13 6 C-13 5.34 -13 4.68 -13 4 C-11.58249437 4.11509661 -10.16598831 4.24253658 -8.75 4.375 C-7.96109375 4.44460937 -7.1721875 4.51421875 -6.359375 4.5859375 C-3.914123 5.01507113 -2.15163097 5.78600638 0 7 C0 4.69 0 2.38 0 0 Z " fill="#CB9C1F" transform="translate(13,22)"/>
<path d="M0 0 C14.85 0 29.7 0 45 0 C43.83020091 10.52819183 43.83020091 10.52819183 40 15 C37.16015625 17.1953125 37.16015625 17.1953125 34.0625 19.125 C30.96775292 21.07339955 28.08888384 22.92388757 25.30859375 25.3046875 C24.54675781 25.86414063 23.78492187 26.42359375 23 27 C22.01 26.67 21.02 26.34 20 26 C21.12451727 23.0280615 22.22293791 20.66559313 24 18 C26.125 17.3125 26.125 17.3125 28 17 C23.18569279 16.43361092 20.79692186 18.17438373 17 21 C16.34 20.67 15.68 20.34 15 20 C15.33 21.65 15.66 23.3 16 25 C14.35 25.33 12.7 25.66 11 26 C10.34 24.68 9.68 23.36 9 22 C8.34 22 7.68 22 7 22 C7.875 16.25 7.875 16.25 9 14 C8.4225 13.773125 7.845 13.54625 7.25 13.3125 C4.29652858 11.58964167 2.85405215 9.87697747 1 7 C0.67 4.69 0.34 2.38 0 0 Z " fill="#FFF9DB" transform="translate(5,0)"/>
<path d="M0 0 C4.62 0 9.24 0 14 0 C14 6.27 14 12.54 14 19 C10 17 10 17 9 16 C8.67 16.66 8.34 17.32 8 18 C7.34 18 6.68 18 6 18 C6 17.34 6 16.68 6 16 C5.01 15.67 4.02 15.34 3 15 C2.34 14.34 1.68 13.68 1 13 C0.34 13.99 -0.32 14.98 -1 16 C-2.99065541 17.01847486 -4.99248185 18.01517978 -7 19 C-8.83787067 20.25038717 -10.61994151 21.55873114 -12.40234375 22.88671875 C-14 24 -14 24 -16.1875 24.875 C-19.24379839 26.7720128 -20.36774913 29.85208761 -22 33 C-23.32 32.01 -24.64 31.02 -26 30 C-25.979375 31.051875 -25.95875 32.10375 -25.9375 33.1875 C-25.98896802 36.32704904 -26.26517187 38.96883396 -27 42 C-27.721875 41.484375 -28.44375 40.96875 -29.1875 40.4375 C-31.87639719 38.74650851 -31.87639719 38.74650851 -34.6875 39.25 C-36.99209561 39.93377081 -36.99209561 39.93377081 -39 41 C-37.96160516 37.9713484 -36.96780263 35.96212074 -34.875 33.5 C-32.75945511 30.67927348 -32.60756513 29.43380512 -33 26 C-32.01 25.67 -31.02 25.34 -30 25 C-30.33 23.02 -30.66 21.04 -31 19 C-30.443125 19.2475 -29.88625 19.495 -29.3125 19.75 C-28.549375 19.8325 -27.78625 19.915 -27 20 C-26.21625 19.360625 -25.4325 18.72125 -24.625 18.0625 C-21.47784366 15.5897343 -19.89952836 15.63725318 -16 16 C-16.33 16.66 -16.66 17.32 -17 18 C-17.61875 18.103125 -18.2375 18.20625 -18.875 18.3125 C-21.25873201 18.85156333 -21.25873201 18.85156333 -22.75 21.4375 C-24.14614121 23.8244022 -24.14614121 23.8244022 -24 26 C-19.93090268 24.02610487 -16.21634811 21.66178917 -12.4375 19.1875 C-11.76525391 18.76146484 -11.09300781 18.33542969 -10.40039062 17.89648438 C-5.67828504 14.79686989 -2.92538967 12.11267435 -1.26953125 6.54296875 C-1.11871094 5.76566406 -0.96789063 4.98835937 -0.8125 4.1875 C-0.544375 2.805625 -0.27625 1.42375 0 0 Z " fill="#A9A386" transform="translate(50,0)"/>
<path d="M0 0 C-0.06116286 1.37616443 -0.15024443 2.75109379 -0.25 4.125 C-0.29640625 4.89070312 -0.3428125 5.65640625 -0.390625 6.4453125 C-1.86232722 12.61514105 -5.74298089 15.88907007 -10.9375 19.125 C-14.03224708 21.07339955 -16.91111616 22.92388757 -19.69140625 25.3046875 C-20.45324219 25.86414063 -21.21507813 26.42359375 -22 27 C-22.99 26.67 -23.98 26.34 -25 26 C-23.87548273 23.0280615 -22.77706209 20.66559313 -21 18 C-18.875 17.3125 -18.875 17.3125 -17 17 C-21.81430721 16.43361092 -24.20307814 18.17438373 -28 21 C-28.66 20.67 -29.32 20.34 -30 20 C-29.67 21.65 -29.34 23.3 -29 25 C-30.65 25.33 -32.3 25.66 -34 26 C-34.66 24.68 -35.32 23.36 -36 22 C-36.66 22 -37.32 22 -38 22 C-37.67 20.02 -37.34 18.04 -37 16 C-36.67 16 -36.34 16 -36 16 C-35.34 17.98 -34.68 19.96 -34 22 C-34 20.68 -34 19.36 -34 18 C-33 15.75 -33 15.75 -32 14 C-31.01 14.33 -30.02 14.66 -29 15 C-22.66204185 12.87257349 -18.18408592 9.42315706 -13.72265625 4.58203125 C-9.81803404 0.99615371 -5.22705034 0 0 0 Z " fill="#DFDBC8" transform="translate(50,0)"/>
<path d="M0 0 C0.33 0 0.66 0 1 0 C1 4.62 1 9.24 1 14 C2.32 12.35 3.64 10.7 5 9 C5 18.57 5 28.14 5 38 C1.04 38 -2.92 38 -7 38 C-7.7342166 31.24520726 -5.27591952 26.81475715 -2 21 C-6.63720719 24.27530896 -10.68542782 27.30435607 -14 32 C-13.67566492 26.64847115 -10.50295176 23.71719957 -7 20 C-7.66 19.01 -8.32 18.02 -9 17 C-8.625 14.8125 -8.625 14.8125 -8 13 C-6.35 13.99 -4.7 14.98 -3 16 C-3.061875 14.845 -3.12375 13.69 -3.1875 12.5 C-3.21274356 7.78786879 -1.84474512 4.30440528 0 0 Z " fill="#EBC73B" transform="translate(59,26)"/>
<path d="M0 0 C0.66 0.33 1.32 0.66 2 1 C2.32070642 4.44759397 2.30829899 6.46382785 0.5625 9.5 C-1.72774206 11.7343825 -3.59219795 12.97024129 -6.3125 14.5625 C-11.42574207 17.7782171 -13.62102607 21.88415781 -16.296875 27.1953125 C-18.74390798 31.22505947 -21.2195142 33.52520379 -25.8125 34.75 C-26.534375 34.8325 -27.25625 34.915 -28 35 C-27.66226562 34.44054688 -27.32453125 33.88109375 -26.9765625 33.3046875 C-22.94933877 26.06499628 -21.79074768 19.1907297 -21 11 C-20.34 11.33 -19.68 11.66 -19 12 C-13.43866631 12.5783787 -8.5690265 12.5064622 -4 9 C-2.35150775 6.10358371 -1.11758821 3.13582104 0 0 Z " fill="#E0DCC9" transform="translate(50,24)"/>
<path d="M0 0 C1.65 1.65 3.3 3.3 5 5 C5.33 3.68 5.66 2.36 6 1 C6 3.64 6 6.28 6 9 C2.125 8.125 2.125 8.125 1 7 C1 8.65 1 10.3 1 12 C1.66 12.33 2.32 12.66 3 13 C2.3503125 13.72316406 2.3503125 13.72316406 1.6875 14.4609375 C1.130625 15.09257813 0.57375 15.72421875 0 16.375 C-0.556875 17.00148438 -1.11375 17.62796875 -1.6875 18.2734375 C-3.20172487 19.90389833 -3.20172487 19.90389833 -3 22 C-1.948125 20.88625 -1.948125 20.88625 -0.875 19.75 C1.97718006 17.02182777 4.6763063 15.08697046 8 13 C6.95218768 15.74043223 5.84078766 18.2929507 4.4375 20.875 C2.86516144 24.29312731 2.37265867 27.27341329 2 31 C1.67 31 1.34 31 1 31 C0.67 29.02 0.34 27.04 0 25 C-1.65 26.65 -3.3 28.3 -5 30 C-6 29 -6 29 -6.0625 25.4375 C-6.041875 24.303125 -6.02125 23.16875 -6 22 C-6.71027344 22.5775 -7.42054687 23.155 -8.15234375 23.75 C-9.53099609 24.86375 -9.53099609 24.86375 -10.9375 26 C-12.31228516 27.11375 -12.31228516 27.11375 -13.71484375 28.25 C-16 30 -16 30 -17 30 C-17.328125 27.2890625 -17.328125 27.2890625 -17 24 C-14.734375 21.5859375 -14.734375 21.5859375 -11.75 19.375 C-5.24728332 15.07341478 -5.24728332 15.07341478 -1.42578125 8.7109375 C-1.38839844 7.94007812 -1.35101563 7.16921875 -1.3125 6.375 C-1.06578947 2.13157895 -1.06578947 2.13157895 0 0 Z " fill="#7E5201" transform="translate(50,33)"/>
<path d="M0 0 C0.33 0 0.66 0 1 0 C1.3690205 10.55808656 1.3690205 10.55808656 -1 15 C-1.66 14.34 -2.32 13.68 -3 13 C-3.90492187 13.77537109 -3.90492187 13.77537109 -4.828125 14.56640625 C-5.62734375 15.22511719 -6.4265625 15.88382813 -7.25 16.5625 C-8.43335938 17.55443359 -8.43335938 17.55443359 -9.640625 18.56640625 C-12 20 -12 20 -14.296875 19.71484375 C-14.85890625 19.47894531 -15.4209375 19.24304688 -16 19 C-17.0169313 16.34501768 -17.13022151 15.30844625 -16.00390625 12.640625 C-15.52824219 11.85171875 -15.05257813 11.0628125 -14.5625 10.25 C-14.08941406 9.45078125 -13.61632812 8.6515625 -13.12890625 7.828125 C-12.75636719 7.22484375 -12.38382813 6.6215625 -12 6 C-12.66 6 -13.32 6 -14 6 C-14.66 7.32 -15.32 8.64 -16 10 C-16.75 8.3125 -16.75 8.3125 -17 6 C-15.375 3.25 -15.375 3.25 -13 1 C-10.25 0.6875 -10.25 0.6875 -8 1 C-6.68 3.64 -5.36 6.28 -4 9 C-2.68 6.03 -1.36 3.06 0 0 Z " fill="#877F5E" transform="translate(27,39)"/>
<path d="M0 0 C1.80916792 3.61833583 1.16530119 7.2188404 0 11 C-2.26556455 14.15645061 -5.03191445 16.51441112 -8 19 C-8.81597656 19.73992188 -9.63195312 20.47984375 -10.47265625 21.2421875 C-15.64542999 25.73538509 -19.07965014 28 -26 28 C-26.33 27.34 -26.66 26.68 -27 26 C-25.80375 25.525625 -24.6075 25.05125 -23.375 24.5625 C-18.12528001 21.95619025 -15.85896733 17.95152473 -13 13 C-10.18817148 8.34290901 -7.77212418 5.69728758 -3 3 C-2.34 3 -1.68 3 -1 3 C-0.67 2.01 -0.34 1.02 0 0 Z " fill="#AFA98C" transform="translate(49,33)"/>
<path d="M0 0 C0.20140476 3.62528568 -0.14223235 5.86501708 -2 9 C3.1693489 8.59443869 3.1693489 8.59443869 8 7 C8.33 8.32 8.66 9.64 9 11 C9.55429687 10.4946875 10.10859375 9.989375 10.6796875 9.46875 C11.40414062 8.8190625 12.12859375 8.169375 12.875 7.5 C13.59429687 6.8503125 14.31359375 6.200625 15.0546875 5.53125 C17 4 17 4 19 4 C19.33 6.31 19.66 8.62 20 11 C21.98 9.35 23.96 7.7 26 6 C26 8.31 26 10.62 26 13 C14.78 13 3.56 13 -8 13 C-7.34 11.02 -6.68 9.04 -6 7 C-7.32 7.33 -8.64 7.66 -10 8 C-2.21621622 0 -2.21621622 0 0 0 Z " fill="#AC7C14" transform="translate(25,51)"/>
<path d="M0 0 C6.27 0 12.54 0 19 0 C18.071875 1.155 17.14375 2.31 16.1875 3.5 C13.16127688 7.50634739 11.53103823 11.23676994 10 16 C9.67 15.34 9.34 14.68 9 14 C8.401875 13.731875 7.80375 13.46375 7.1875 13.1875 C4.20818802 11.57015921 2.835075 9.84753017 1 7 C0.67 4.69 0.34 2.38 0 0 Z " fill="#84581B" transform="translate(5,0)"/>
<path d="M0 0 C0.66 0 1.32 0 2 0 C0.94124926 3.40312738 -0.00902154 6.01353231 -2 9 C-1.69159401 11.15274948 -1.69159401 11.15274948 -1 13 C1.31 13 3.62 13 6 13 C5.34 14.98 4.68 16.96 4 19 C-1.28 19 -6.56 19 -12 19 C-11.67 16.69 -11.34 14.38 -11 12 C-10.34 12 -9.68 12 -9 12 C-8.9071875 11.40445313 -8.814375 10.80890625 -8.71875 10.1953125 C-7.83342903 7.49123431 -6.72039762 6.61309813 -4.5 4.875 C-1.8119616 2.80112319 -1.8119616 2.80112319 0 0 Z " fill="#BA840D" transform="translate(13,45)"/>
<path d="M0 0 C0.31428571 6.91428571 0.31428571 6.91428571 -2 10 C-4.625 11.25 -4.625 11.25 -7 12 C-7 12.66 -7 13.32 -7 14 C-13.75 14.125 -13.75 14.125 -16 13 C-14.86212769 8.69718483 -13.03859407 6.98538916 -9.25195312 4.71679688 C-8.35379883 4.20729492 -8.35379883 4.20729492 -7.4375 3.6875 C-6.53354492 3.14899414 -6.53354492 3.14899414 -5.61132812 2.59960938 C-1.19941964 0 -1.19941964 0 0 0 Z " fill="#A6350A" transform="translate(47,20)"/>
<path d="M0 0 C0.33 0 0.66 0 1 0 C1 5.94 1 11.88 1 18 C-1.64 18 -4.28 18 -7 18 C-6.7610584 10.47333961 -4.83610335 5.81156738 0 0 Z " fill="#C68C0E" transform="translate(63,46)"/>
<path d="M0 0 C0.66 0.33 1.32 0.66 2 1 C2.05395478 2.62463842 2.09277195 4.24978541 2.125 5.875 C2.14820312 6.77992187 2.17140625 7.68484375 2.1953125 8.6171875 C2 11 2 11 0 13 C-0.33 11.02 -0.66 9.04 -1 7 C-1.24234375 7.54269531 -1.4846875 8.08539063 -1.734375 8.64453125 C-5.12045366 15.87250684 -5.12045366 15.87250684 -9 18 C-12.47325181 19.1577506 -15.36067448 19.06866652 -19 19 C-19.66 17.68 -20.32 16.36 -21 15 C-18.03 15.33 -15.06 15.66 -12 16 C-12 15.34 -12 14.68 -12 14 C-6.58823529 10 -6.58823529 10 -4 10 C-3.896875 8.906875 -3.79375 7.81375 -3.6875 6.6875 C-3.02692273 3.14440371 -2.7972908 2.06756277 0 0 Z " fill="#847555" transform="translate(52,18)"/>
<path d="M0 0 C1.65 1.65 3.3 3.3 5 5 C5.33 3.68 5.66 2.36 6 1 C6 3.64 6 6.28 6 9 C2.125 8.125 2.125 8.125 1 7 C1 8.65 1 10.3 1 12 C1.66 12.33 2.32 12.66 3 13 C1.35 14.98 -0.3 16.96 -2 19 C-2.33 18.34 -2.66 17.68 -3 17 C-4.44037669 17.93307421 -5.87718985 18.87165077 -7.3125 19.8125 C-8.11300781 20.33457031 -8.91351563 20.85664062 -9.73828125 21.39453125 C-13.23757162 23.87848348 -15.2424374 26.07928344 -17 30 C-17.328125 27.2890625 -17.328125 27.2890625 -17 24 C-14.734375 21.5859375 -14.734375 21.5859375 -11.75 19.375 C-5.24728332 15.07341478 -5.24728332 15.07341478 -1.42578125 8.7109375 C-1.38839844 7.94007812 -1.35101563 7.16921875 -1.3125 6.375 C-1.06578947 2.13157895 -1.06578947 2.13157895 0 0 Z " fill="#6D440D" transform="translate(50,33)"/>
<path d="M0 0 C1.98 0 3.96 0 6 0 C6 5.94 6 11.88 6 18 C0.17475728 13.33980583 0.17475728 13.33980583 -1 8 C-1.31034483 2.62068966 -1.31034483 2.62068966 0 0 Z " fill="#672C01" transform="translate(58,0)"/>
<path d="M0 0 C1.32 0.66 2.64 1.32 4 2 C4.08159574 6.16138263 3.98248524 9.9472484 3 14 C2.278125 13.484375 1.55625 12.96875 0.8125 12.4375 C-1.87639719 10.74650851 -1.87639719 10.74650851 -4.6875 11.25 C-6.99209561 11.93377081 -6.99209561 11.93377081 -9 13 C-7.47987323 7.59510481 -3.72614782 4.01507372 0 0 Z " fill="#E0DCC9" transform="translate(20,28)"/>
<path d="M0 0 C0.33 2.31 0.66 4.62 1 7 C2.98 5.35 4.96 3.7 7 2 C7 4.31 7 6.62 7 9 C1.72 9 -3.56 9 -9 9 C-9 6 -9 6 -7.5390625 4.39453125 C-6.59160156 3.61142578 -6.59160156 3.61142578 -5.625 2.8125 C-4.68527344 2.01779297 -4.68527344 2.01779297 -3.7265625 1.20703125 C-2 0 -2 0 0 0 Z " fill="#BB8E57" transform="translate(44,55)"/>
<path d="M0 0 C0.66 0.99 1.32 1.98 2 3 C0.91796875 5.92578125 0.91796875 5.92578125 -0.8125 9.3125 C-2.99336018 13.60934351 -4.44060922 17.19795707 -5 22 C-6.32 22 -7.64 22 -9 22 C-9.93496319 13.21134606 -4.81316104 6.95234372 0 0 Z " fill="#F9D652" transform="translate(61,42)"/>
<path d="M0 0 C0.66 0 1.32 0 2 0 C1.938125 1.175625 1.87625 2.35125 1.8125 3.5625 C1.8125 9.59209169 4.14969299 14.41630118 8 19 C4.125 17.125 4.125 17.125 3 16 C2.67 16.66 2.34 17.32 2 18 C1.34 18 0.68 18 0 18 C0 17.34 0 16.68 0 16 C-0.99 15.67 -1.98 15.34 -3 15 C-4.07478554 11.77564339 -3.93162085 10.71203245 -3.1875 7.5 C-3.01605469 6.7265625 -2.84460937 5.953125 -2.66796875 5.15625 C-2 3 -2 3 0 0 Z " fill="#AFA98C" transform="translate(56,0)"/>
<path d="M0 0 C1.80916792 3.61833583 1.16530119 7.2188404 0 11 C-4.62193808 17.43941894 -11.77571468 22.20423918 -18 27 C-18.66 26.67 -19.32 26.34 -20 26 C-19.19175781 25.31035156 -18.38351563 24.62070312 -17.55078125 23.91015625 C-11.3757895 18.52196553 -6.271177 13.70248073 -3 6 C-3.66 5.67 -4.32 5.34 -5 5 C-4.360625 4.731875 -3.72125 4.46375 -3.0625 4.1875 C-0.66868314 3.11332248 -0.66868314 3.11332248 0 0 Z " fill="#888162" transform="translate(49,33)"/>
<path d="M0 0 C0.66 0 1.32 0 2 0 C0.68746186 4.59048314 -1.11502628 7.97036165 -3.9375 11.8125 C-4.62714844 12.76769531 -5.31679687 13.72289062 -6.02734375 14.70703125 C-8 17 -8 17 -11 18 C-11 16.02 -11 14.04 -11 12 C-10.34 12 -9.68 12 -9 12 C-8.9071875 11.40445313 -8.814375 10.80890625 -8.71875 10.1953125 C-7.83342903 7.49123431 -6.72039762 6.61309813 -4.5 4.875 C-1.8119616 2.80112319 -1.8119616 2.80112319 0 0 Z " fill="#E4BF39" transform="translate(13,45)"/>
<path d="M0 0 C-0.33 0.66 -0.66 1.32 -1 2 C-1.63164063 2.11472656 -2.26328125 2.22945312 -2.9140625 2.34765625 C-5.18071719 2.8106952 -5.18071719 2.8106952 -6.2734375 4.99609375 C-6.63695312 5.80175781 -7.00046875 6.60742188 -7.375 7.4375 C-9.60469397 11.81353489 -9.60469397 11.81353489 -13.3125 13.5625 C-14.199375 13.706875 -15.08625 13.85125 -16 14 C-16.33 12.68 -16.66 11.36 -17 10 C-16.01 9.67 -15.02 9.34 -14 9 C-14.33 7.02 -14.66 5.04 -15 3 C-14.1646875 3.37125 -14.1646875 3.37125 -13.3125 3.75 C-12.549375 3.8325 -11.78625 3.915 -11 4 C-10.21625 3.360625 -9.4325 2.72125 -8.625 2.0625 C-5.47784366 -0.4102657 -3.89952836 -0.36274682 0 0 Z " fill="#9C9577" transform="translate(34,16)"/>
<path d="M0 0 C-0.54755277 3.83286936 -2.2333041 5.40098264 -5 8 C-5.99 9.485 -5.99 9.485 -7 11 C-7.99 11.33 -8.98 11.66 -10 12 C-10.3125 8.75 -10.3125 8.75 -10 5 C-7.07486378 1.99580605 -4.33273835 0 0 0 Z " fill="#925F00" transform="translate(10,46)"/>
<path d="M0 0 C0.66 1.32 1.32 2.64 2 4 C-0.41805039 6.41805039 -2.92917103 7.52856112 -6 9 C-6.99 9.495 -6.99 9.495 -8 10 C-8 7.03 -8 4.06 -8 1 C-5.36 0.67 -2.72 0.34 0 0 Z " fill="#F1CE4A" transform="translate(8,41)"/>
<path d="M0 0 C2.31 0 4.62 0 7 0 C6.649375 0.5775 6.29875 1.155 5.9375 1.75 C4.85082593 4.35801776 5.06934867 5.39417629 6 8 C6.66 8 7.32 8 8 8 C8.33 9.98 8.66 11.96 9 14 C5.17080388 12.49567295 3.21910453 10.44343806 1 7 C0.25 3.1875 0.25 3.1875 0 0 Z " fill="#5A1D00" transform="translate(5,0)"/>
<path d="M0 0 C0.33 0 0.66 0 1 0 C1.33 1.98 1.66 3.96 2 6 C2.33 6 2.66 6 3 6 C3.5497272 11.63470383 1.95047835 14.38987758 -1 19 C-1.33 19 -1.66 19 -2 19 C-2.05380578 16.20807795 -2.09357669 13.4171859 -2.125 10.625 C-2.14175781 9.8309375 -2.15851562 9.036875 -2.17578125 8.21875 C-2.19335473 6.14507985 -2.10335168 4.07116759 -2 2 C-1.34 1.34 -0.68 0.68 0 0 Z " fill="#A87408" transform="translate(61,23)"/>
<path d="M0 0 C1.45823212 -0.0270043 2.91660675 -0.04639787 4.375 -0.0625 C5.18710938 -0.07410156 5.99921875 -0.08570313 6.8359375 -0.09765625 C9 0 9 0 11 1 C10.67 3.64 10.34 6.28 10 9 C9.34 8.01 8.68 7.02 8 6 C4.91634129 5.7497843 4.91634129 5.7497843 2 6 C2.33 5.34 2.66 4.68 3 4 C2.01 3.34 1.02 2.68 0 2 C0 1.34 0 0.68 0 0 Z " fill="#BA9327" transform="translate(0,36)"/>
<path d="M0 0 C0.66 0.33 1.32 0.66 2 1 C-1.31700357 5.45722355 -4.41073341 8.04253137 -9.1953125 10.83203125 C-11.35778263 12.23155196 -12.68987012 13.78915583 -14 16 C-14.66 15.01 -15.32 14.02 -16 13 C-12.54818824 8.21200305 -9.25468028 5.73345224 -3.98828125 3.078125 C-1.85214975 2.04184687 -1.85214975 2.04184687 0 0 Z " fill="#867F5F" transform="translate(44,17)"/>
<path d="M0 0 C2.39251268 3.58876902 2.55967086 4.76249208 2 9 C0.54177274 11.81991682 -1.16238128 14.41420795 -3 17 C-3.66 16.67 -4.32 16.34 -5 16 C-4.690625 15.38125 -4.38125 14.7625 -4.0625 14.125 C-2.80371692 10.42269684 -2.57371943 6.99585831 -2.34375 3.109375 C-2.2303125 2.41328125 -2.116875 1.7171875 -2 1 C-1.34 0.67 -0.68 0.34 0 0 Z " fill="#FEF8DA" transform="translate(30,38)"/>
<path d="M0 0 C3 1.375 3 1.375 6 4 C6.5412406 7.3854069 6.35042185 10.59961015 6 14 C5.01 14.495 5.01 14.495 4 15 C3.67 13.02 3.34 11.04 3 9 C2.01 9.66 1.02 10.32 0 11 C0 7.37 0 3.74 0 0 Z " fill="#9A9374" transform="translate(58,15)"/>
<path d="M0 0 C-0.53109375 0.37511719 -1.0621875 0.75023438 -1.609375 1.13671875 C-5.68773728 4.09129873 -9.06192 6.83771999 -12 11 C-12.99 10.67 -13.98 10.34 -15 10 C-12.18351325 2.55642787 -12.18351325 2.55642787 -8.90625 1.015625 C-8.1121875 0.76296875 -7.318125 0.5103125 -6.5 0.25 C-5.30890625 -0.14445313 -5.30890625 -0.14445313 -4.09375 -0.546875 C-2 -1 -2 -1 0 0 Z " fill="#F1EBD2" transform="translate(40,16)"/>
<path d="M0 0 C1.670625 0.061875 1.670625 0.061875 3.375 0.125 C2.735625 0.888125 2.09625 1.65125 1.4375 2.4375 C-0.76732781 5.00746713 -0.76732781 5.00746713 -1.625 8.125 C-2.615 8.455 -3.605 8.785 -4.625 9.125 C-5.285 8.465 -5.945 7.805 -6.625 7.125 C-6.12608303 2.13583028 -5.31787022 0.18337484 0 0 Z " fill="#682D00" transform="translate(15.625,-0.125)"/>
<path d="M0 0 C-0.1875 2.375 -0.1875 2.375 -1 5 C-3.125 6 -3.125 6 -6 7 C-8.41516112 8.57010474 -10.68803347 10.27735827 -13 12 C-12.45550236 8.20527027 -10.96207612 6.72968732 -8.0625 4.3125 C-7.35222656 3.71050781 -6.64195313 3.10851563 -5.91015625 2.48828125 C-3.80554985 0.84849589 -2.68917384 0 0 0 Z " fill="#90642B" transform="translate(47,50)"/>
<path d="M0 0 C0 1.65 0 3.3 0 5 C0.66 5.33 1.32 5.66 2 6 C-2.29 6 -6.58 6 -11 6 C-10.67 5.01 -10.34 4.02 -10 3 C-7.96875 2.05078125 -7.96875 2.05078125 -5.5 1.3125 C-4.6853125 1.06113281 -3.870625 0.80976562 -3.03125 0.55078125 C-1 0 -1 0 0 0 Z " fill="#99680B" transform="translate(33,58)"/>
<path d="M0 0 C-0.4682121 4.77576339 -1.24331998 8.04476345 -4 12 C-4.99 11.67 -5.98 11.34 -7 11 C-6.43518386 7.04628701 -5.28003407 4.28324906 -3 1 C-1 0 -1 0 0 0 Z " fill="#9F997B" transform="translate(17,46)"/>
<path d="M0 0 C0.66 0.33 1.32 0.66 2 1 C2.05395478 2.62463842 2.09277195 4.24978541 2.125 5.875 C2.14820313 6.77992187 2.17140625 7.68484375 2.1953125 8.6171875 C2 11 2 11 0 13 C-0.33 11.02 -0.66 9.04 -1 7 C-1.66 8.32 -2.32 9.64 -3 11 C-3.66 10.67 -4.32 10.34 -5 10 C-4.54857119 8.70590408 -4.08858979 7.41478941 -3.625 6.125 C-3.36976562 5.40570312 -3.11453125 4.68640625 -2.8515625 3.9453125 C-2 2 -2 2 0 0 Z " fill="#AFA98C" transform="translate(52,18)"/>
<path d="M0 0 C0.33 0 0.66 0 1 0 C1 4.29 1 8.58 1 13 C-0.32 13 -1.64 13 -3 13 C-3.31563182 7.73946963 -2.66590937 4.55426184 0 0 Z " fill="#A26A00" transform="translate(63,51)"/>
<path d="M0 0 C0.99 0 1.98 0 3 0 C1.59928507 5.29158974 -1.85487245 7.77478044 -6 11 C-6.33 10.34 -6.66 9.68 -7 9 C-6.02180976 7.68677212 -5.0424189 6.37443848 -4.0625 5.0625 C-3.51722656 4.33160156 -2.97195312 3.60070313 -2.41015625 2.84765625 C-1 1 -1 1 0 0 Z " fill="#FAF4D8" transform="translate(18,30)"/>
<path d="M0 0 C0.33 0 0.66 0 1 0 C1.3690205 10.55808656 1.3690205 10.55808656 -1 15 C-2.32 14.01 -3.64 13.02 -5 12 C-4.11264751 9.33794254 -3.0859614 6.8687528 -1.9375 4.3125 C-1.57527344 3.50425781 -1.21304687 2.69601563 -0.83984375 1.86328125 C-0.56269531 1.24839844 -0.28554688 0.63351563 0 0 Z " fill="#7A7250" transform="translate(27,39)"/>
<path d="M0 0 C0.33 0 0.66 0 1 0 C1.66 1.98 2.32 3.96 3 6 C3.33 5.67 3.66 5.34 4 5 C4 4.34 4 3.68 4 3 C4.99 3.33 5.98 3.66 7 4 C7.33 5.65 7.66 7.3 8 9 C6.35 9.33 4.7 9.66 3 10 C2.34 8.68 1.68 7.36 1 6 C0.34 6 -0.32 6 -1 6 C-0.67 4.02 -0.34 2.04 0 0 Z " fill="#CDC8B3" transform="translate(13,16)"/>
<path d="M0 0 C0.99 0 1.98 0 3 0 C3.66 2.64 4.32 5.28 5 8 C1 9 1 9 -1 8 C-1.125 2.25 -1.125 2.25 0 0 Z " fill="#8D5819" transform="translate(58,0)"/>
<path d="M0 0 C0.33 0 0.66 0 1 0 C1 2.31 1 4.62 1 7 C-2.96 7 -6.92 7 -11 7 C-9.68 6.01 -8.36 5.02 -7 4 C-6.01 4.33 -5.02 4.66 -4 5 C-3.360625 4.175 -2.72125 3.35 -2.0625 2.5 C-1.381875 1.675 -0.70125 0.85 0 0 Z " fill="#DDAA6D" transform="translate(50,57)"/>
<path d="M0 0 C0 1.32 0 2.64 0 4 C-3.33045394 6.66436316 -5.7774565 7.3619323 -10 7 C-9.34 6.67 -8.68 6.34 -8 6 C-7.71125 5.360625 -7.4225 4.72125 -7.125 4.0625 C-5.48861608 1.06246281 -3.39791907 0 0 0 Z " fill="#E77405" transform="translate(45,26)"/>
<path d="M0 0 C0.66 0 1.32 0 2 0 C1.85923685 1.9587043 1.7122324 3.91696093 1.5625 5.875 C1.48128906 6.96554688 1.40007813 8.05609375 1.31640625 9.1796875 C1 12 1 12 0 14 C-2.16918074 11.04991419 -3.03546286 9.59104769 -2.8125 5.875 C-2 3 -2 3 0 0 Z " fill="#E0DCC9" transform="translate(56,0)"/>
<path d="M0 0 C0 3 0 3 -1.6875 4.9375 C-4.05862845 7.05229024 -6.51323512 9.02334073 -9 11 C-10.0173873 11.98230498 -11.02596117 12.97469597 -12 14 C-9.96994153 7.54072306 -5.20907574 4.01842986 0 0 Z " fill="#C68C0E" transform="translate(57,46)"/>
<path d="M0 0 C2.5625 2.1875 2.5625 2.1875 5 5 C4.9375 7.75 4.9375 7.75 4 10 C3.01 10.495 3.01 10.495 2 11 C2 10.34 2 9.68 2 9 C1.34 8.67 0.68 8.34 0 8 C0 5.36 0 2.72 0 0 Z " fill="#9E531C" transform="translate(13,22)"/>
<path d="M0 0 C0.33 0 0.66 0 1 0 C0.38273804 5.67355671 -0.27945952 11.33861055 -1 17 C-1.66 16.67 -2.32 16.34 -3 16 C-3.33266291 9.79029227 -2.45029331 5.71735105 0 0 Z " fill="#F6D34C" transform="translate(59,26)"/>
<path d="M0 0 C-0.66 1.98 -1.32 3.96 -2 6 C-4.31 6 -6.62 6 -9 6 C-3.15384615 0 -3.15384615 0 0 0 Z " fill="#EBC63A" transform="translate(19,58)"/>
<path d="M0 0 C0.556875 0.309375 1.11375 0.61875 1.6875 0.9375 C4.12540433 2.05761821 6.36224186 2.56037364 9 3 C8.34 4.65 7.68 6.3 7 8 C6.67 7.34 6.34 6.68 6 6 C3.41394668 5.5316735 3.41394668 5.5316735 0.4375 5.375 C-0.57441406 5.30023438 -1.58632813 5.22546875 -2.62890625 5.1484375 C-3.80259766 5.07496094 -3.80259766 5.07496094 -5 5 C-5 4.67 -5 4.34 -5 4 C-1.535 3.505 -1.535 3.505 2 3 C1.34 2.01 0.68 1.02 0 0 Z " fill="#7B550C" transform="translate(5,31)"/>
<path d="M0 0 C1.41777182 0.08785338 2.83429039 0.19604647 4.25 0.3125 C5.43335938 0.39951172 5.43335938 0.39951172 6.640625 0.48828125 C9 1 9 1 13 4 C9.04 3.67 5.08 3.34 1 3 C0.67 2.01 0.34 1.02 0 0 Z " fill="#A48120" transform="translate(0,26)"/>
<path d="M0 0 C0 0.99 0 1.98 0 3 C-3.33333333 4.66666667 -6.66666667 6.33333333 -10 8 C-9.62118922 5.25362183 -9.22167713 4.19950942 -7.125 2.3125 C-4.74458507 0.84224372 -2.82550095 0 0 0 Z " fill="#C68C0E" transform="translate(10,46)"/>
<path d="M0 0 C2.31 0 4.62 0 7 0 C5.515 1.98 5.515 1.98 4 4 C3.67 3.67 3.34 3.34 3 3 C3 4.98 3 6.96 3 9 C0.90250005 6.64031256 0.03094296 5.45383006 -0.1875 2.25 C-0.125625 1.5075 -0.06375 0.765 0 0 Z " fill="#632806" transform="translate(5,0)"/>
<path d="M0 0 C0.33 0 0.66 0 1 0 C1 2.64 1 5.28 1 8 C-0.875 7.75 -0.875 7.75 -3 7 C-4.25 4.9375 -4.25 4.9375 -5 3 C-2.525 3.495 -2.525 3.495 0 4 C0 2.68 0 1.36 0 0 Z " fill="#946405" transform="translate(55,34)"/>
<path d="M0 0 C0.33 0.66 0.66 1.32 1 2 C1.66 2 2.32 2 3 2 C2.67 3.32 2.34 4.64 2 6 C0.35 6 -1.3 6 -3 6 C-1.125 1.125 -1.125 1.125 0 0 Z " fill="#C28A10" transform="translate(20,58)"/>
<path d="M0 0 C0 0.99 0 1.98 0 3 C-2.73512949 5.6338284 -5.21812121 6.70143062 -9 7 C-9.66 6.34 -10.32 5.68 -11 5 C-9.9275 4.731875 -8.855 4.46375 -7.75 4.1875 C-4.43491072 3.13772173 -2.56122354 2.25387672 0 0 Z " fill="#AFA98C" transform="translate(47,30)"/>
<path d="M0 0 C0.66 0 1.32 0 2 0 C1.34 2.97 0.68 5.94 0 9 C-2 6 -2 6 -1.6875 3.375 C-1 1 -1 1 0 0 Z " fill="#70481B" transform="translate(15,7)"/>
<path d="M0 0 C0.33 0 0.66 0 1 0 C1.66 2.97 2.32 5.94 3 9 C1.68 9 0.36 9 -1 9 C-1.125 2.25 -1.125 2.25 0 0 Z " fill="#E5C031" transform="translate(53,55)"/>
<path d="M0 0 C0.99 0.33 1.98 0.66 3 1 C0.525 4.465 0.525 4.465 -2 8 C-2.33 6.68 -2.66 5.36 -3 4 C-1.5625 1.75 -1.5625 1.75 0 0 Z " fill="#8E8768" transform="translate(13,41)"/>
<path d="M0 0 C0.33 0 0.66 0 1 0 C1.22245393 1.60226955 1.42746669 3.20696767 1.625 4.8125 C1.74101563 5.70582031 1.85703125 6.59914063 1.9765625 7.51953125 C2 10 2 10 0 13 C-0.19658808 11.58456585 -0.38187546 10.16755969 -0.5625 8.75 C-0.66691406 7.96109375 -0.77132812 7.1721875 -0.87890625 6.359375 C-1.00027349 3.99467126 -0.69633257 2.2488963 0 0 Z " fill="#7A6C45" transform="translate(57,18)"/>
<path d="M0 0 C1.32 0.33 2.64 0.66 4 1 C2.35 2.65 0.7 4.3 -1 6 C-1.66 5.34 -2.32 4.68 -3 4 C-2.01 2.68 -1.02 1.36 0 0 Z " fill="#9E6B1E" transform="translate(12,0)"/>
</svg>
