<?xml version="1.0" encoding="UTF-8"?>
<svg version="1.1" xmlns="http://www.w3.org/2000/svg" width="64" height="64">
<path d="M0 0 C-0.14235457 1.72945653 -0.28904382 3.45855654 -0.4375 5.1875 C-0.51871094 6.15042969 -0.59992187 7.11335937 -0.68359375 8.10546875 C-0.97666151 10.78649602 -1.42703754 13.3662986 -2 16 C-0.68 15.67 0.64 15.34 2 15 C1.98839844 14.08476562 1.97679688 13.16953125 1.96484375 12.2265625 C1.95582031 11.03804687 1.94679688 9.84953125 1.9375 8.625 C1.92589844 7.44164062 1.91429688 6.25828125 1.90234375 5.0390625 C2 2 2 2 3 0 C5.4375 0.375 5.4375 0.375 8 1 C8.495 1.99 8.495 1.99 9 3 C9.55268555 2.51104248 10.10537109 2.02208496 10.67480469 1.51831055 C13.45363498 -0.29621545 14.91589919 -0.35030408 18.203125 -0.29296875 C19.08645508 -0.28547607 19.96978516 -0.2779834 20.87988281 -0.27026367 C22.54809082 -0.22929565 22.54809082 -0.22929565 24.25 -0.1875 C29.57125 -0.0946875 29.57125 -0.0946875 35 0 C35 11.22 35 22.44 35 34 C33.68 34.66 32.36 35.32 31 36 C30.60540084 38.59089525 30.44672933 40.84137899 30.4375 43.4375 C30.23312843 50.32552119 29.21191283 56.43381851 27 63 C24.525 63.495 24.525 63.495 22 64 C22.33 55.42 22.66 46.84 23 38 C15.56469423 38.87459031 15.56469423 38.87459031 10 43 C9.28058317 45.95276303 9.4299099 48.73360698 9.625 51.75 C9.66560547 52.93916016 9.66560547 52.93916016 9.70703125 54.15234375 C9.77752727 56.10273366 9.88514501 58.05171901 10 60 C8.01776932 57.41495396 6.37405423 54.95950142 5 52 C2.83341465 53.49479421 2.83341465 53.49479421 1 56 C0.64199865 58.75871627 0.81339835 61.20097524 1 64 C-0.485 63.505 -0.485 63.505 -2 63 C-2.495 60.525 -2.495 60.525 -3 58 C-4.175625 58.12375 -5.35125 58.2475 -6.5625 58.375 C-11.12368674 58.39120315 -13.28319163 56.71594445 -16.5546875 53.703125 C-19.02498094 50.79218462 -19.93645426 48.55072974 -20.375 44.75 C-20.01899425 41.18994254 -19.59973819 40.05006274 -17.875 37.125 C-15.97780846 33.7620736 -15.90408158 31.9586273 -16.8828125 28.2421875 C-17.08535645 27.44409668 -17.28790039 26.64600586 -17.49658203 25.82373047 C-17.66270996 25.22189941 -17.82883789 24.62006836 -18 24 C-20.37919561 37.79366978 -21.4867896 50.03479765 -20 64 C-20.99 64 -21.98 64 -23 64 C-23.48198463 62.75108386 -23.96045677 61.50081192 -24.4375 60.25 C-24.70433594 59.55390625 -24.97117187 58.8578125 -25.24609375 58.140625 C-30.28053993 43.84592807 -27.77753518 24.57012741 -21.62109375 10.94921875 C-20.49596355 8.88808279 -19.33939925 6.92675876 -18 5 C-16.68 5 -15.36 5 -14 5 C-13.93941406 6.02480469 -13.87882813 7.04960938 -13.81640625 8.10546875 C-13.73194974 9.46615695 -13.64730433 10.82683343 -13.5625 12.1875 C-13.52318359 12.86103516 -13.48386719 13.53457031 -13.44335938 14.22851562 C-13.21072435 17.89699102 -12.82792989 21.41694206 -12 25 C-9.88518139 21.82777209 -9.81329881 21.45826556 -10.0625 17.9375 C-10.19475435 12.16554245 -9.20457505 5.90978493 -5.64453125 1.2109375 C-4 0 -4 0 0 0 Z " fill="#3C4346" transform="translate(29,0)"/>
<path d="M0 0 C2.4375 0.375 2.4375 0.375 5 1 C5.33 1.66 5.66 2.32 6 3 C6.55268555 2.51104248 7.10537109 2.02208496 7.67480469 1.51831055 C10.45363498 -0.29621545 11.91589919 -0.35030408 15.203125 -0.29296875 C16.52812012 -0.28172974 16.52812012 -0.28172974 17.87988281 -0.27026367 C19.54809082 -0.22929565 19.54809082 -0.22929565 21.25 -0.1875 C26.57125 -0.0946875 26.57125 -0.0946875 32 0 C32 11.22 32 22.44 32 34 C30.68 34.66 29.36 35.32 28 36 C27.60540084 38.59089525 27.44672933 40.84137899 27.4375 43.4375 C27.23312843 50.32552119 26.21191283 56.43381851 24 63 C21.525 63.495 21.525 63.495 19 64 C19 63.01 19 62.02 19 61 C19.66 61 20.32 61 21 61 C20.87988782 56.41410916 20.75556738 51.82835654 20.62768555 47.24267578 C20.58491942 45.68932025 20.54321662 44.13593499 20.50268555 42.58251953 C20.24382491 32.69468218 19.80609957 22.86111985 19 13 C12.5666952 12.9025838 6.38524858 13.17609696 0 14 C0.66 12.35 1.32 10.7 2 9 C1.34 9 0.68 9 0 9 C0 6.03 0 3.06 0 0 Z " fill="#424848" transform="translate(32,0)"/>
<path d="M0 0 C0.33 0 0.66 0 1 0 C1 2.31 1 4.62 1 7 C1.66 7 2.32 7 3 7 C2.67 8.32 2.34 9.64 2 11 C3.051875 10.89171875 3.051875 10.89171875 4.125 10.78125 C9.78307538 10.22774263 15.31588941 9.89275263 21 10 C20.96744792 11.85546875 20.93489583 13.7109375 20.90234375 15.56640625 C20.95753405 18.1293565 20.95753405 18.1293565 21.5 21.14453125 C22.02100389 25.16195969 22.12713063 29.08034315 22.09765625 33.12109375 C22.0962413 33.86585464 22.09482635 34.61061554 22.09336853 35.37794495 C22.08781989 37.73117273 22.07527733 40.0843015 22.0625 42.4375 C22.05747835 44.04361841 22.05291661 45.64973832 22.04882812 47.25585938 C22.03786735 51.17061043 22.02063884 55.08528849 22 59 C21.67 59 21.34 59 21 59 C21 51.41 21 43.82 21 36 C13.56469423 36.87459031 13.56469423 36.87459031 8 41 C7.28058317 43.95276303 7.4299099 46.73360698 7.625 49.75 C7.65207031 50.54277344 7.67914063 51.33554687 7.70703125 52.15234375 C7.77752727 54.10273366 7.88514501 56.05171901 8 58 C6.01776932 55.41495396 4.37405423 52.95950142 3 50 C0.83341465 51.49479421 0.83341465 51.49479421 -1 54 C-1.35800135 56.75871627 -1.18660165 59.20097524 -1 62 C-1.99 61.67 -2.98 61.34 -4 61 C-4.33 59.35 -4.66 57.7 -5 56 C-6.2375 56.0825 -7.475 56.165 -8.75 56.25 C-12.10506698 56.2737948 -12.75447904 56.19641677 -15.5 54 C-15.995 53.34 -16.49 52.68 -17 52 C-14.98177083 52.03255208 -12.96354167 52.06510417 -10.9453125 52.09765625 C-8.91814596 52.12649242 -8.91814596 52.12649242 -7 51 C-7.33 50.34 -7.66 49.68 -8 49 C-6.35 48.34 -4.7 47.68 -3 47 C-3.99 47.495 -3.99 47.495 -5 48 C-5.99 47.67 -6.98 47.34 -8 47 C-2.125 42 -2.125 42 -1 42 C-0.67 43.65 -0.34 45.3 0 47 C1.98672358 42.20849018 2.30269648 39.03709305 1 34 C-0.92687643 30.28773107 -3.03832285 26.96167715 -6 24 C2.40422535 24.86056338 2.40422535 24.86056338 5.9375 25.6875 C6.618125 25.790625 7.29875 25.89375 8 26 C10.38785276 24.05765911 10.38785276 24.05765911 10.1875 20.5 C10.24131237 17.15035297 10.24131237 17.15035297 9 15 C6.88153715 14.31270746 6.88153715 14.31270746 4.4375 13.875 C2.2409375 13.441875 2.2409375 13.441875 0 13 C0 8.71 0 4.42 0 0 Z " fill="#181E24" transform="translate(31,2)"/>
<path d="M0 0 C0.66 0 1.32 0 2 0 C2 11.22 2 22.44 2 34 C0.68 34.66 -0.64 35.32 -2 36 C-2.41933631 38.65579663 -2.60126993 40.96242655 -2.625 43.625 C-2.81410764 49.36874382 -3.27440401 54.47809284 -5 60 C-5.33 60 -5.66 60 -6 60 C-6.02749766 58.62511713 -6.0466164 57.25006609 -6.0625 55.875 C-6.07410156 55.10929687 -6.08570313 54.34359375 -6.09765625 53.5546875 C-6 51 -6 51 -5.5078125 48.125 C-3.46368059 35.54572671 -4.61232991 19.96469702 -9 8 C-7.68 8 -6.36 8 -5 8 C-2.77532627 5.60419752 -1.37098992 2.95290136 0 0 Z " fill="#1F2327" transform="translate(62,0)"/>
<path d="M0 0 C0.66 0 1.32 0 2 0 C1.31102476 5.07456765 0.46031414 10.09523584 -0.5 15.125 C-0.63019531 15.81464844 -0.76039062 16.50429688 -0.89453125 17.21484375 C-1.94072886 22.74172608 -1.94072886 22.74172608 -2.53881836 25.34790039 C-3.05909634 28.33984309 -3.11261459 31.13923834 -3.09765625 34.17578125 C-3.09443359 35.33271484 -3.09121094 36.48964844 -3.08789062 37.68164062 C-3.07951172 38.87982422 -3.07113281 40.07800781 -3.0625 41.3125 C-3.05798828 42.53001953 -3.05347656 43.74753906 -3.04882812 45.00195312 C-3.03706578 48.00135226 -3.02062826 51.00065089 -3 54 C-3.99 54 -4.98 54 -6 54 C-7.75817876 47.91670148 -8.38674082 42.38551987 -8.375 36.0625 C-8.37338867 35.15024658 -8.37177734 34.23799316 -8.37011719 33.2980957 C-8.16371184 21.66958261 -6.01563874 10.09767931 0 0 Z " fill="#5B5B59" transform="translate(10,6)"/>
<path d="M0 0 C0.66 0 1.32 0 2 0 C2.83706259 5.0716145 3.13517405 9.97764139 3.09765625 15.12109375 C3.0962413 15.86585464 3.09482635 16.61061554 3.09336853 17.37794495 C3.08781989 19.73117273 3.07527733 22.0843015 3.0625 24.4375 C3.05747835 26.04361841 3.05291661 27.64973832 3.04882812 29.25585938 C3.03786735 33.17061043 3.02063884 37.08528849 3 41 C2.67 41 2.34 41 2 41 C2 33.41 2 25.82 2 18 C-4.56929603 18.7549962 -4.56929603 18.7549962 -9 22 C-9.99 22 -10.98 22 -12 22 C-11.52206433 16.85223454 -8.87429347 13.42832857 -6 9.3125 C-2.78164218 4.78760053 -2.78164218 4.78760053 0 0 Z " fill="#232426" transform="translate(50,20)"/>
<path d="M0 0 C2.4375 0.375 2.4375 0.375 5 1 C5.33 1.66 5.66 2.32 6 3 C6.51046875 2.50886719 7.0209375 2.01773437 7.546875 1.51171875 C10.89448982 -0.55122223 13.35209972 -0.29577501 17.25 -0.1875 C18.51328125 -0.16042969 19.7765625 -0.13335938 21.078125 -0.10546875 C22.04234375 -0.07066406 23.0065625 -0.03585937 24 0 C20.90692681 4.66729714 17.5780096 6.35035927 12.4375 8.125 C6.57908513 10.04410056 6.57908513 10.04410056 2 14 C1.34 13.67 0.68 13.34 0 13 C0.66 11.68 1.32 10.36 2 9 C1.34 9 0.68 9 0 9 C0 6.03 0 3.06 0 0 Z " fill="#66767F" transform="translate(32,0)"/>
<path d="M0 0 C0.99 0.33 1.98 0.66 3 1 C3.66 8.59 4.32 16.18 5 24 C2 21 2 21 1 18 C-1.24577907 20.24577907 -1.3677281 20.96842225 -1.8515625 24 C-1.98079102 24.79986328 -2.11001953 25.59972656 -2.24316406 26.42382812 C-2.36916992 27.27396484 -2.49517578 28.12410156 -2.625 29 C-2.75616211 29.86560547 -2.88732422 30.73121094 -3.02246094 31.62304688 C-4.42479908 41.30464368 -4.03370872 50.29052162 -3 60 C-3.99 60 -4.98 60 -6 60 C-6.33 58.68 -6.66 57.36 -7 56 C-6.34 56 -5.68 56 -5 56 C-5.15984375 55.38125 -5.3196875 54.7625 -5.484375 54.125 C-7.52633782 41.74946776 -6.34771452 28.98645103 -3 17 C-2.57908701 15.0051275 -2.18212373 13.00500931 -1.8125 11 C-1.65394531 10.154375 -1.49539062 9.30875 -1.33203125 8.4375 C-0.93639036 5.95585454 -0.93639036 5.95585454 -1.01171875 3.25 C-1 1 -1 1 0 0 Z " fill="#292B2C" transform="translate(12,4)"/>
<path d="M0 0 C-0.14235457 1.72945653 -0.28904382 3.45855654 -0.4375 5.1875 C-0.51871094 6.15042969 -0.59992187 7.11335937 -0.68359375 8.10546875 C-0.97666151 10.78649602 -1.42703754 13.3662986 -2 16 C-1.34 16.33 -0.68 16.66 0 17 C-4.455 19.97 -4.455 19.97 -9 23 C-10 22 -10 22 -10.25 18.0625 C-10.18526643 12.28271707 -9.20899434 5.91561789 -5.64453125 1.2109375 C-4 0 -4 0 0 0 Z " fill="#303232" transform="translate(29,0)"/>
<path d="M0 0 C0.66 0 1.32 0 2 0 C3.75301626 7.55988262 4.21713965 14.88981095 4.25 22.625 C4.26353516 23.92957153 4.26353516 23.92957153 4.27734375 25.26049805 C4.2496855 31.3758516 3.39907989 37.05152025 2 43 C1.67 43 1.34 43 1 43 C0.97494385 42.21987549 0.9498877 41.43975098 0.92407227 40.63598633 C0.80650056 37.02805455 0.68451995 33.42028397 0.5625 29.8125 C0.52318359 28.58595703 0.48386719 27.35941406 0.44335938 26.09570312 C0.19573819 18.87659321 -0.21806498 11.71032557 -0.89868164 4.51831055 C-1 2 -1 2 0 0 Z " fill="#7E7D79" transform="translate(52,12)"/>
<path d="M0 0 C2.03489175 0.50872294 4.0545937 1.01654354 6.0625 1.625 C8.20541252 2.20416064 8.20541252 2.20416064 11 1 C10.38722388 3.96175123 9.74627478 5.38058783 8 8 C7.72456155 10.42045438 7.72456155 10.42045438 7.8046875 13.10546875 C7.81113281 14.08837891 7.81757812 15.07128906 7.82421875 16.08398438 C7.84097656 17.10814453 7.85773437 18.13230469 7.875 19.1875 C7.88853516 20.74114258 7.88853516 20.74114258 7.90234375 22.32617188 C7.9259214 24.88434685 7.9588297 27.44205748 8 30 C6.01776932 27.41495396 4.37405423 24.95950142 3 22 C2.34 22 1.68 22 1 22 C1.33 21.030625 1.66 20.06125 2 19.0625 C3.63739137 13.24328174 3.86140596 8.04583917 1.5 2.4375 C1.005 1.633125 0.51 0.82875 0 0 Z " fill="#070C14" transform="translate(31,30)"/>
<path d="M0 0 C0.66 0 1.32 0 2 0 C1.31102476 5.07456765 0.46031414 10.09523584 -0.5 15.125 C-0.63019531 15.81464844 -0.76039062 16.50429688 -0.89453125 17.21484375 C-1.94072886 22.74172608 -1.94072886 22.74172608 -2.53881836 25.34790039 C-3.05909634 28.33984309 -3.11261459 31.13923834 -3.09765625 34.17578125 C-3.09443359 35.33271484 -3.09121094 36.48964844 -3.08789062 37.68164062 C-3.07951172 38.87982422 -3.07113281 40.07800781 -3.0625 41.3125 C-3.05798828 42.53001953 -3.05347656 43.74753906 -3.04882812 45.00195312 C-3.03706578 48.00135226 -3.02062826 51.00065089 -3 54 C-4.95023403 50.72368413 -5.24663717 48.28067048 -5.23046875 44.4921875 C-5.22853516 43.42226563 -5.22660156 42.35234375 -5.22460938 41.25 C-5.21236328 40.13625 -5.20011719 39.0225 -5.1875 37.875 C-5.1865332 36.23917969 -5.1865332 36.23917969 -5.18554688 34.5703125 C-5.15373261 28.65992905 -4.88929204 22.88949881 -4.11450195 17.02783203 C-3.86324118 14.79493104 -3.86324118 14.79493104 -5 12 C-4.2578125 9.58984375 -4.2578125 9.58984375 -3.125 6.9375 C-2.75632812 6.05964844 -2.38765625 5.18179687 -2.0078125 4.27734375 C-1.37041804 2.83702992 -0.7043828 1.40876559 0 0 Z " fill="#474946" transform="translate(10,6)"/>
<path d="M0 0 C3.45198855 2.99172341 5.26951208 5.4344505 6 10 C4.125 13.375 4.125 13.375 2 16 C1.34 15.67 0.68 15.34 0 15 C-0.639375 15.185625 -1.27875 15.37125 -1.9375 15.5625 C-2.618125 15.706875 -3.29875 15.85125 -4 16 C-4.99 15.34 -5.98 14.68 -7 14 C-7.804375 13.87625 -8.60875 13.7525 -9.4375 13.625 C-12.62172934 12.8483587 -13.87999901 11.43407521 -16 9 C-7.59577465 9.86056338 -7.59577465 9.86056338 -4.0625 10.6875 C-3.381875 10.790625 -2.70125 10.89375 -2 11 C0.21370051 9.21342243 0.21370051 9.21342243 0.1953125 6.8359375 C0.17210938 6.02382813 0.14890625 5.21171875 0.125 4.375 C0.10695313 3.55773437 0.08890625 2.74046875 0.0703125 1.8984375 C0.04710938 1.27195312 0.02390625 0.64546875 0 0 Z " fill="#1C2228" transform="translate(41,17)"/>
<path d="M0 0 C0.66 0 1.32 0 2 0 C4.73503073 10.33776498 5.30179295 20.32841725 5.3125 31 C5.31765625 32.25192139 5.3228125 33.50384277 5.328125 34.79370117 C5.28004114 41.2013049 4.92167505 46.87513929 3 53 C2.67 53 2.34 53 2 53 C1.97250234 51.62511713 1.9533836 50.25006609 1.9375 48.875 C1.92589844 48.10929687 1.91429687 47.34359375 1.90234375 46.5546875 C2 44 2 44 2.4921875 41.125 C4.53631941 28.54572671 3.38767009 12.96469702 -1 1 C-0.67 0.67 -0.34 0.34 0 0 Z " fill="#313534" transform="translate(54,7)"/>
<path d="M0 0 C2.64 0 5.28 0 8 0 C8.33 1.32 8.66 2.64 9 4 C5.4602993 6.35980046 3.00893712 6.58600808 -1.1875 7.125 C-2.45980469 7.29257812 -3.73210938 7.46015625 -5.04296875 7.6328125 C-6.01878906 7.75398438 -6.99460937 7.87515625 -8 8 C-3.375 3.125 -3.375 3.125 0 2 C0 1.34 0 0.68 0 0 Z " fill="#65747D" transform="translate(29,15)"/>
<path d="M0 0 C0.33 0 0.66 0 1 0 C0.67 2.97 0.34 5.94 0 9 C-0.66 9 -1.32 9 -2 9 C-2.2475 9.886875 -2.495 10.77375 -2.75 11.6875 C-4.05664713 15.15011489 -5.42976816 17.35188235 -8 20 C-8.99 20 -9.98 20 -11 20 C-10.51871437 14.83620631 -7.85964608 11.33795855 -5 7.1875 C-4.5359375 6.49462891 -4.071875 5.80175781 -3.59375 5.08789062 C-2.42873716 3.36915802 -1.21823971 1.6814246 0 0 Z " fill="#515350" transform="translate(49,22)"/>
<path d="M0 0 C0.99 0.33 1.98 0.66 3 1 C2.62886922 3.65501251 2.28996163 4.75082418 0.22265625 6.52734375 C-0.49019531 6.99269531 -1.20304687 7.45804688 -1.9375 7.9375 C-5.26287918 10.27537839 -7.03423632 11.89550434 -8 16 C-8.33 16 -8.66 16 -9 16 C-9.3125 12.8125 -9.3125 12.8125 -9 9 C-6.75 6.3125 -6.75 6.3125 -4 4 C-3.236875 3.236875 -2.47375 2.47375 -1.6875 1.6875 C-1.130625 1.130625 -0.57375 0.57375 0 0 Z " fill="#5E6D76" transform="translate(19,29)"/>
<path d="M0 0 C0.66 0 1.32 0 2 0 C2.38366458 7.28962709 1.39813823 12.18218758 -3.5 17.9375 C-6 20 -6 20 -9 20 C-8.071875 18.88625 -8.071875 18.88625 -7.125 17.75 C-5.39562719 15.51198812 -4.13893339 13.56260013 -3 11 C-2.34 11 -1.68 11 -1 11 C-0.67 7.37 -0.34 3.74 0 0 Z " fill="#2C2F2F" transform="translate(50,20)"/>
<path d="M0 0 C2.4375 0.375 2.4375 0.375 5 1 C5.33 1.66 5.66 2.32 6 3 C7.32 2.34 8.64 1.68 10 1 C9.09515208 2.15518918 8.1755794 3.29885406 7.25 4.4375 C6.73953125 5.07558594 6.2290625 5.71367188 5.703125 6.37109375 C4 8 4 8 0 9 C0 6.03 0 3.06 0 0 Z " fill="#474A4B" transform="translate(32,0)"/>
<path d="M0 0 C3.57490748 0.09661912 5.03333435 1.02608775 7.875 3.25 C10 6 10 6 9.8125 8.8125 C9.544375 9.534375 9.27625 10.25625 9 11 C8.34 11 7.68 11 7 11 C6.443125 9.88625 5.88625 8.7725 5.3125 7.625 C3.74673198 4.84702448 3.18104516 4.09463724 0.25 2.5625 C-0.4925 2.376875 -1.235 2.19125 -2 2 C-1.34 1.34 -0.68 0.68 0 0 Z " fill="#070D15" transform="translate(39,14)"/>
<path d="M0 0 C0.33 0 0.66 0 1 0 C1 4.29 1 8.58 1 13 C-0.65 13 -2.3 13 -4 13 C-4.45543788 7.30702655 -3.58764877 4.45738181 0 0 Z " fill="#4F504E" transform="translate(63,8)"/>
<path d="M0 0 C0.33 0 0.66 0 1 0 C1 3.96 1 7.92 1 12 C-0.98 12.99 -0.98 12.99 -3 14 C-3.56359649 4.41885965 -3.56359649 4.41885965 0 0 Z " fill="#070D15" transform="translate(63,22)"/>
<path d="M0 0 C0.66 0 1.32 0 2 0 C1.85764543 1.72945653 1.71095618 3.45855654 1.5625 5.1875 C1.48128906 6.15042969 1.40007813 7.11335937 1.31640625 8.10546875 C1.02333849 10.78649602 0.57296246 13.3662986 0 16 C0.66 16.33 1.32 16.66 2 17 C0.35 17.66 -1.3 18.32 -3 19 C-2.86722656 18.21496094 -2.73445313 17.42992188 -2.59765625 16.62109375 C-1.66757357 11.08812013 -0.75808113 5.55926159 0 0 Z " fill="#282A2B" transform="translate(27,0)"/>
<path d="M0 0 C0.33 0 0.66 0 1 0 C1.22262303 6.7281627 0.95021536 12.53991163 -1 19 C-1.33 19 -1.66 19 -2 19 C-2.21432579 12.35590042 -1.51233701 6.46794133 0 0 Z " fill="#292B2C" transform="translate(58,41)"/>
<path d="M0 0 C0.66 0 1.32 0 2 0 C2.37952295 6.19887485 1.8352113 10.4477112 -1 16 C-1.33 16 -1.66 16 -2 16 C-1.85890014 13.89551062 -1.71195825 11.7914123 -1.5625 9.6875 C-1.48128906 8.51574219 -1.40007813 7.34398437 -1.31640625 6.13671875 C-1 3 -1 3 0 0 Z " fill="#73726E" transform="translate(25,0)"/>
<path d="M0 0 C0.66 0.66 1.32 1.32 2 2 C1.67 2.99 1.34 3.98 1 5 C1 5.66 1 6.32 1 7 C1.99 7 2.98 7 4 7 C3.67 7.99 3.34 8.98 3 10 C0.5625 8.8125 0.5625 8.8125 -2 7 C-2.8125 4.3125 -2.8125 4.3125 -3 2 C-2.01 1.34 -1.02 0.68 0 0 Z " fill="#0A0D0E" transform="translate(14,41)"/>
<path d="M0 0 C0.33 0 0.66 0 1 0 C1.84681133 5.08086796 2.09038099 9.84828377 2 15 C-0.59764097 12.40235903 -1.22368698 10.50949301 -1.25 6.9375 C-1 3 -1 3 0 0 Z " fill="#2C2D2E" transform="translate(37,45)"/>
<path d="M0 0 C0.66 0 1.32 0 2 0 C1.50769231 6.4 1.50769231 6.4 -1.0625 9.4375 C-1.701875 9.953125 -2.34125 10.46875 -3 11 C-2.53199289 6.94393835 -2.12046792 3.53411321 0 0 Z " fill="#71706C" transform="translate(10,6)"/>
<path d="M0 0 C0.125 2.875 0.125 2.875 0 6 C-2 8 -2 8 -4.625 8.125 C-5.40875 8.08375 -6.1925 8.0425 -7 8 C-5.68 7.34 -4.36 6.68 -3 6 C-3.33 6 -3.66 6 -4 6 C-4.99 5.67 -5.98 5.34 -7 5 C-1.125 0 -1.125 0 0 0 Z " fill="#070809" transform="translate(30,44)"/>
<path d="M0 0 C0.66 0.66 1.32 1.32 2 2 C2.66 1.67 3.32 1.34 4 1 C4 2.98 4 4.96 4 7 C3.01 7.33 2.02 7.66 1 8 C0.34 7.67 -0.32 7.34 -1 7 C-0.67 4.69 -0.34 2.38 0 0 Z " fill="#50514F" transform="translate(6,14)"/>
<path d="M0 0 C0.66 0 1.32 0 2 0 C2.36923077 7.50769231 2.36923077 7.50769231 0.5 10 C0.005 10.33 -0.49 10.66 -1 11 C-2.659214 7.681572 -1.57259528 4.60735024 -1 1 C-0.67 0.67 -0.34 0.34 0 0 Z " fill="#3D403E" transform="translate(12,4)"/>
<path d="M0 0 C0.33 0 0.66 0 1 0 C1 2.64 1 5.28 1 8 C-0.98 8 -2.96 8 -5 8 C-4.34 7.67 -3.68 7.34 -3 7 C-2.28272222 5.35448038 -1.61674772 3.68577711 -1 2 C-0.67 1.34 -0.34 0.68 0 0 Z " fill="#060C14" transform="translate(51,30)"/>
<path d="M0 0 C1.66905241 3.33810482 2.8741386 6.46157845 4 10 C3.34 10.66 2.68 11.32 2 12 C1.34 11.67 0.68 11.34 0 11 C0 7.37 0 3.74 0 0 Z " fill="#474847" transform="translate(12,18)"/>
<path d="M0 0 C0.33 0 0.66 0 1 0 C1 2.31 1 4.62 1 7 C1.66 7 2.32 7 3 7 C2.67 8.32 2.34 9.64 2 11 C3.32 11.66 4.64 12.32 6 13 C4.02 13 2.04 13 0 13 C0 8.71 0 4.42 0 0 Z " fill="#15171C" transform="translate(31,2)"/>
<path d="M0 0 C0.33 0.99 0.66 1.98 1 3 C-0.3125 5.1875 -0.3125 5.1875 -2 7 C-2.66 7 -3.32 7 -4 7 C-4.33 5.02 -4.66 3.04 -5 1 C-3.35 0.67 -1.7 0.34 0 0 Z " fill="#0D131A" transform="translate(41,31)"/>
<path d="M0 0 C0.99 0 1.98 0 3 0 C3.33 2.31 3.66 4.62 4 7 C3.01 6.67 2.02 6.34 1 6 C0.67 4.02 0.34 2.04 0 0 Z " fill="#2B2C2D" transform="translate(26,57)"/>
<path d="M0 0 C0 1.98 0 3.96 0 6 C-0.66 6 -1.32 6 -2 6 C-2.33 7.32 -2.66 8.64 -3 10 C-3 7.03 -3 4.06 -3 1 C-1 0 -1 0 0 0 Z " fill="#7B7A74" transform="translate(7,20)"/>
<path d="" fill="#232426" transform="translate(0,0)"/>
</svg>
