<?xml version="1.0" encoding="UTF-8"?>
<svg version="1.1" xmlns="http://www.w3.org/2000/svg" width="64" height="64">
<path d="M0 0 C0.89029907 -0.00318237 1.78059814 -0.00636475 2.69787598 -0.00964355 C4.214599 -0.02855652 4.214599 -0.02855652 5.76196289 -0.04785156 C6.85263062 -0.03975464 7.94329834 -0.03165771 9.0670166 -0.02331543 C10.18765503 -0.02714233 11.30829346 -0.03096924 12.46289062 -0.03491211 C14.83338315 -0.03763539 17.20390552 -0.03024527 19.57434082 -0.0135498 C23.20929765 0.00785232 26.84227773 -0.01333911 30.47717285 -0.03894043 C32.77795848 -0.03629723 35.07874287 -0.03117242 37.3795166 -0.02331543 C39.01551819 -0.03546082 39.01551819 -0.03546082 40.68457031 -0.04785156 C41.69571899 -0.03524292 42.70686768 -0.02263428 43.74865723 -0.00964355 C44.6389563 -0.00646118 45.52925537 -0.00327881 46.4465332 0 C48.7232666 0.50793457 48.7232666 0.50793457 50.47167969 2.3527832 C52.60864933 6.03250611 52.84600591 8.90702899 52.83679199 13.08093262 C52.8366787 14.79236702 52.8366787 14.79236702 52.83656311 16.53837585 C52.83140182 17.76969742 52.82624054 19.00101898 52.82092285 20.26965332 C52.8195079 21.53058304 52.81809296 22.79151276 52.81663513 24.09065247 C52.81198235 27.43945166 52.80300002 30.78818268 52.79193115 34.13696289 C52.78169348 37.5555359 52.77707765 40.97411616 52.77209473 44.3927002 C52.76190768 51.09781673 52.7423333 57.80281383 52.7232666 64.50793457 C35.2332666 64.50793457 17.7432666 64.50793457 -0.2767334 64.50793457 C2.05659993 62.17460124 4.38993327 59.8412679 6.7232666 57.50793457 C6.10838379 57.40996582 5.49350098 57.31199707 4.85998535 57.21105957 C4.05174316 57.06152832 3.24350098 56.91199707 2.4107666 56.75793457 C1.61025879 56.61871582 0.80975098 56.47949707 -0.01501465 56.33605957 C-2.99649816 55.24439376 -3.84929525 54.34886195 -5.2767334 51.50793457 C-5.40501199 47.68095666 -5.1442561 43.95634918 -4.8939209 40.13684082 C-5.37367929 35.58892705 -6.85431971 34.39134427 -10.2767334 31.50793457 C-13.12385312 25.81369514 -12.10874742 15.41453378 -10.38220215 9.38293457 C-9.2767334 6.94543457 -9.2767334 6.94543457 -7.2767334 3.50793457 C-6.6167334 3.83793457 -5.9567334 4.16793457 -5.2767334 4.50793457 C-4.88433472 3.85860962 -4.49193604 3.20928467 -4.08764648 2.5402832 C-2.2767334 0.50793457 -2.2767334 0.50793457 0 0 Z " fill="#898A58" transform="translate(11.2767333984375,-0.5079345703125)"/>
<path d="M0 0 C2.60527105 -0.10792837 5.20608311 -0.18724878 7.8125 -0.25 C8.55048828 -0.28351562 9.28847656 -0.31703125 10.04882812 -0.3515625 C15.51957334 -0.45058051 15.51957334 -0.45058051 17.94921875 1.828125 C19.76591593 5.58308275 20.12262895 8.44908381 20.11352539 12.57299805 C20.11344986 13.71395432 20.11337433 14.85491058 20.11329651 16.03044128 C20.10813522 17.26176285 20.10297394 18.49308441 20.09765625 19.76171875 C20.0962413 21.02264847 20.09482635 22.28357819 20.09336853 23.5827179 C20.08871575 26.93151709 20.07973342 30.28024811 20.06866455 33.62902832 C20.05842687 37.04760133 20.05381105 40.46618159 20.04882812 43.88476562 C20.03864107 50.58988216 20.01906669 57.29487926 20 64 C2.51 64 -14.98 64 -33 64 C-30.66666667 61.66666667 -28.33333333 59.33333333 -26 57 C-26.61488281 56.90203125 -27.22976562 56.8040625 -27.86328125 56.703125 C-28.67152344 56.55359375 -29.47976562 56.4040625 -30.3125 56.25 C-31.11300781 56.11078125 -31.91351563 55.9715625 -32.73828125 55.828125 C-35.73203225 54.73196747 -36.58549856 53.8662266 -38 51 C-38.0545392 48.30174477 -37.971403 45.90813603 -37.6875 43.25 C-37.62626953 42.55261719 -37.56503906 41.85523438 -37.50195312 41.13671875 C-37.34937092 39.42310319 -37.17666411 37.7113005 -37 36 C-34.71540242 38.28459758 -34.02870252 40.12537344 -32.875 43.125 C-32.52179687 44.03507812 -32.16859375 44.94515625 -31.8046875 45.8828125 C-31.53914063 46.58148438 -31.27359375 47.28015625 -31 48 C-19.21436413 48.52510259 -6.82150191 48.41075096 4 43 C4.495 45.475 4.495 45.475 5 48 C6.33918806 46.37982158 7.6711969 44.75370657 9 43.125 C9.7425 42.22007813 10.485 41.31515625 11.25 40.3828125 C13.19731211 38.2240716 13.19731211 38.2240716 13 36 C12.01 37.32 11.02 38.64 10 40 C9.01 39.505 9.01 39.505 8 39 C8.9590625 37.7315625 8.9590625 37.7315625 9.9375 36.4375 C12.1966273 33.09271435 12.67791759 30.02603008 13 26 C11.02 26.66 9.04 27.32 7 28 C6.62875 27.030625 6.2575 26.06125 5.875 25.0625 C4.30583037 21.75570593 4.30583037 21.75570593 1.125 21.0625 C-1.78931575 21.00421368 -4.19077566 21.25638179 -7 22 C-7 22.66 -7 23.32 -7 24 C-6.36191406 24.17015625 -5.72382812 24.3403125 -5.06640625 24.515625 C-4.24011719 24.75796875 -3.41382813 25.0003125 -2.5625 25.25 C-1.73878906 25.48203125 -0.91507813 25.7140625 -0.06640625 25.953125 C2 27 2 27 2.78515625 29.109375 C2.85605469 29.73328125 2.92695312 30.3571875 3 31 C2.505 30.01 2.505 30.01 2 29 C1.34 29 0.68 29 0 29 C0.350625 29.515625 0.70125 30.03125 1.0625 30.5625 C2.3615641 33.94006667 1.67217681 36.50468057 1 40 C-0.32 40 -1.64 40 -3 40 C-4.75 38 -4.75 38 -6 36 C-5 34 -5 34 -3 33 C-3.495 31.02 -3.495 31.02 -4 29 C-5.32 29.33 -6.64 29.66 -8 30 C-8.66 32.31 -9.32 34.62 -10 37 C-11.5 35.8125 -11.5 35.8125 -13 34 C-13.1875 31.3125 -13.1875 31.3125 -13 29 C-13.66 29.99 -14.32 30.98 -15 32 C-15.66 32 -16.32 32 -17 32 C-17.33 32.66 -17.66 33.32 -18 34 C-19.65 32.35 -21.3 30.7 -23 29 C-22.01 29 -21.02 29 -20 29 C-20 28.34 -20 27.68 -20 27 C-18.09480998 25.39018828 -16.19744338 23.90496732 -14.1875 22.4375 C-13.64029297 22.02564453 -13.09308594 21.61378906 -12.52929688 21.18945312 C-6.96924172 17.07164258 -2.72985907 16.50785044 4 17 C7.5625 18 7.5625 18 10 19 C10.66 18.01 11.32 17.02 12 16 C6.06 16 0.12 16 -6 16 C-3.00703247 14.00468832 -1.39565075 13.54356766 2.0625 12.9375 C5.64787052 12.3221691 5.64787052 12.3221691 9 11 C9.33 10.01 9.66 9.02 10 8 C9.278125 7.79375 8.55625 7.5875 7.8125 7.375 C4.08720815 5.55374621 2.57666495 3.23057488 0 0 Z " fill="#414224" transform="translate(44,0)"/>
<path d="M0 0 C2.375 3.0625 2.375 3.0625 4 6 C5.65 5.34 7.3 4.68 9 4 C10.12377697 7.30435084 9.89554742 9.0506862 8.5625 12.25 C8.13130859 13.30960938 8.13130859 13.30960938 7.69140625 14.390625 C7.46324219 14.92171875 7.23507813 15.4528125 7 16 C8.32 14.35 9.64 12.7 11 11 C10.53092252 15.92892181 9.23051988 18.53722857 6.0625 22.3125 C5.35222656 23.17488281 4.64195313 24.03726563 3.91015625 24.92578125 C2 27 2 27 0 28 C-0.495 25.525 -0.495 25.525 -1 23 C-2.423125 23.680625 -2.423125 23.680625 -3.875 24.375 C-10.30959495 27.12147345 -16.11221203 28.37755759 -23 27 C-23.66 22.71 -24.32 18.42 -25 14 C-22.525 14.99 -22.525 14.99 -20 16 C-19.01 15.34 -18.02 14.68 -17 14 C-16.01 14.66 -15.02 15.32 -14 16 C-14.12375 14.6078125 -14.12375 14.6078125 -14.25 13.1875 C-14 10 -14 10 -12.25 8.0625 C-10 7 -10 7 -7.75 7.3125 C-7.1725 7.539375 -6.595 7.76625 -6 8 C-6.75 12.75 -6.75 12.75 -9 15 C-7.63676257 17.0399719 -7.63676257 17.0399719 -6 19 C-5.34 19 -4.68 19 -4 19 C-2.97296252 13.44506076 -2.97296252 13.44506076 -4 8 C-3.34 7.67 -2.68 7.34 -2 7 C-5.53411321 4.87953208 -8.94393835 4.46800711 -13 4 C-12.34 3.67 -11.68 3.34 -11 3 C-11 2.34 -11 1.68 -11 1 C-6.96122873 -1.01938563 -4.32110312 -1.47101383 0 0 Z " fill="#997C3B" transform="translate(48,21)"/>
<path d="M0 0 C0.33 0 0.66 0 1 0 C1 9.9 1 19.8 1 30 C-16.49 30 -33.98 30 -52 30 C-48.5 26.5 -48.5 26.5 -45 23 C-45.33 22.01 -45.66 21.02 -46 20 C-41.71 20.33 -37.42 20.66 -33 21 C-32.67 22.32 -32.34 23.64 -32 25 C-33.299375 24.979375 -34.59875 24.95875 -35.9375 24.9375 C-37.29165633 24.91600546 -38.64756083 24.92851801 -40 25 C-40.33 25.33 -40.66 25.66 -41 26 C-32.56037604 27.64602595 -27.10990685 26.8197919 -19.49609375 22.8359375 C-16.74695577 20.81387983 -15.64090359 18.95074769 -14 16 C-12.6078125 15.1028125 -12.6078125 15.1028125 -11.1875 14.1875 C-5.9904761 10.62091497 -2.67837383 5.6599598 0 0 Z " fill="#2D2E18" transform="translate(63,34)"/>
<path d="M0 0 C2.28459758 2.28459758 2.97129748 4.12537344 4.125 7.125 C4.47820313 8.03507812 4.83140625 8.94515625 5.1953125 9.8828125 C5.46085938 10.58148438 5.72640625 11.28015625 6 12 C17.78563587 12.52510259 30.17849809 12.41075096 41 7 C41.27719381 8.57879955 41.52074143 10.16353067 41.75 11.75 C41.88921875 12.63171875 42.0284375 13.5134375 42.171875 14.421875 C42 17 42 17 40.36328125 19.1484375 C35.28391548 23.12797366 29.31866671 26.13242564 22.76953125 25.87109375 C20.117688 25.3805199 17.57539475 24.79593893 15 24 C15.33 23.34 15.66 22.68 16 22 C18.64 22.33 21.28 22.66 24 23 C22.35076433 19.7742513 22.35076433 19.7742513 19.50390625 19.453125 C18.53324219 19.38609375 17.56257813 19.3190625 16.5625 19.25 C15.59441406 19.17265625 14.62632813 19.0953125 13.62890625 19.015625 C10.88863695 18.85830956 10.88863695 18.85830956 8 20 C4.7573765 19.79733603 2.72582646 19.66603297 0.29296875 17.43359375 C-1.5266235 14.0088023 -1.08564688 10.97778229 -0.6875 7.25 C-0.62626953 6.55261719 -0.56503906 5.85523438 -0.50195312 5.13671875 C-0.34937092 3.42310319 -0.17666411 1.7113005 0 0 Z " fill="#0F1004" transform="translate(7,36)"/>
<path d="M0 0 C1.40185547 0.00966797 1.40185547 0.00966797 2.83203125 0.01953125 C4.28416016 0.04466797 4.28416016 0.04466797 5.765625 0.0703125 C6.74917969 0.07933594 7.73273437 0.08835938 8.74609375 0.09765625 C11.16951907 0.12118465 13.59244722 0.15405882 16.015625 0.1953125 C14.10157189 8.03917721 10.72977771 11.45391407 4.390625 16.1328125 C-1.84091297 18.09459297 -9.79207819 18.70487653 -15.796875 15.6953125 C-16.51875 15.2003125 -17.240625 14.7053125 -17.984375 14.1953125 C-17.654375 12.5453125 -17.324375 10.8953125 -16.984375 9.1953125 C-14.014375 8.5353125 -11.044375 7.8753125 -7.984375 7.1953125 C-9.304375 6.5353125 -10.624375 5.8753125 -11.984375 5.1953125 C-8.39559808 1.24765789 -5.32874431 -0.06498469 0 0 Z " fill="#50512C" transform="translate(25.984375,-0.1953125)"/>
<path d="M0 0 C1.07894531 0.04640625 2.15789063 0.0928125 3.26953125 0.140625 C4.35621094 0.17671875 5.44289063 0.2128125 6.5625 0.25 C7.39394531 0.29640625 8.22539062 0.3428125 9.08203125 0.390625 C8.46328125 0.844375 7.84453125 1.298125 7.20703125 1.765625 C5.02283292 3.36171419 5.02283292 3.36171419 3.08203125 5.390625 C6.01027777 6.36670717 8.03816401 6.47289168 11.08203125 6.390625 C7.96292269 8.18338366 5.40520697 8.73353218 1.83203125 9.015625 C0.94 9.09039062 0.04796875 9.16515625 -0.87109375 9.2421875 C-1.5465625 9.29117187 -2.22203125 9.34015625 -2.91796875 9.390625 C-2.91796875 10.050625 -2.91796875 10.710625 -2.91796875 11.390625 C-1.26796875 11.720625 0.38203125 12.050625 2.08203125 12.390625 C2.08203125 12.720625 2.08203125 13.050625 2.08203125 13.390625 C0.43203125 13.720625 -1.21796875 14.050625 -2.91796875 14.390625 C2.98121616 17.11585142 8.6932748 17.13997128 15.08203125 16.390625 C20.79340536 14.26821644 24.62006433 10.27810771 28.08203125 5.390625 C29.38697965 2.6781632 29.38697965 2.6781632 30.08203125 0.390625 C30.66984375 1.2259375 30.66984375 1.2259375 31.26953125 2.078125 C33.35127705 4.7341455 35.66536547 7.03927451 38.08203125 9.390625 C37.75203125 10.380625 37.42203125 11.370625 37.08203125 12.390625 C33.6828815 11.25757508 33.02948674 10.26544025 31.08203125 7.390625 C30.58703125 8.2775 30.09203125 9.164375 29.58203125 10.078125 C26.0391208 15.411403 20.03065247 18.39281998 14.08203125 20.390625 C11.328125 20.62109375 11.328125 20.62109375 8.51953125 20.578125 C7.59011719 20.57167969 6.66070313 20.56523437 5.703125 20.55859375 C3.35565023 20.40815945 1.33148581 20.05222928 -0.91796875 19.390625 C1.06203125 20.050625 3.04203125 20.710625 5.08203125 21.390625 C2.28169286 22.50409288 1.18059422 22.42572773 -1.71484375 21.39453125 C-2.689375 20.91886719 -3.66390625 20.44320313 -4.66796875 19.953125 C-5.6528125 19.48003906 -6.63765625 19.00695312 -7.65234375 18.51953125 C-8.4 18.14699219 -9.14765625 17.77445313 -9.91796875 17.390625 C-10.24796875 20.030625 -10.57796875 22.670625 -10.91796875 25.390625 C-11.24796875 25.390625 -11.57796875 25.390625 -11.91796875 25.390625 C-12.38048723 17.07814009 -12.1434771 10.69094523 -7.91796875 3.390625 C-7.25796875 3.720625 -6.59796875 4.050625 -5.91796875 4.390625 C-5.55058594 3.73578125 -5.18320313 3.0809375 -4.8046875 2.40625 C-2.91796875 0.390625 -2.91796875 0.390625 0 0 Z " fill="#ADAF78" transform="translate(11.91796875,-0.390625)"/>
<path d="M0 0 C0.66 0.33 1.32 0.66 2 1 C1.25 5.75 1.25 5.75 -1 8 C0.36323743 10.0399719 0.36323743 10.0399719 2 12 C2.66 12 3.32 12 4 12 C4.66 10.02 5.32 8.04 6 6 C6.33 6 6.66 6 7 6 C6.25 12.75 6.25 12.75 4 15 C4.66 15.66 5.32 16.32 6 17 C3.44048255 17.70078445 0.87840298 18.38585196 -1.6875 19.0625 C-2.40873047 19.26166016 -3.12996094 19.46082031 -3.87304688 19.66601562 C-4.57880859 19.84970703 -5.28457031 20.03339844 -6.01171875 20.22265625 C-6.65584717 20.39547119 -7.29997559 20.56828613 -7.96362305 20.74633789 C-10 21 -10 21 -15 20 C-15.66 15.71 -16.32 11.42 -17 7 C-14.525 7.99 -14.525 7.99 -12 9 C-11.01 8.34 -10.02 7.68 -9 7 C-8.01 7.66 -7.02 8.32 -6 9 C-6.061875 8.071875 -6.12375 7.14375 -6.1875 6.1875 C-6 3 -6 3 -4.6875 1.125 C-3 0 -3 0 0 0 Z " fill="#C6B17D" transform="translate(40,28)"/>
<path d="M0 0 C0.71542969 0.23332031 1.43085937 0.46664063 2.16796875 0.70703125 C1.17796875 1.20203125 1.17796875 1.20203125 0.16796875 1.70703125 C0.16796875 2.36703125 0.16796875 3.02703125 0.16796875 3.70703125 C0.80605469 3.8771875 1.44414063 4.04734375 2.1015625 4.22265625 C2.92785156 4.465 3.75414063 4.70734375 4.60546875 4.95703125 C5.42917969 5.1890625 6.25289062 5.42109375 7.1015625 5.66015625 C9.16796875 6.70703125 9.16796875 6.70703125 9.953125 8.81640625 C10.02402344 9.4403125 10.09492187 10.06421875 10.16796875 10.70703125 C9.83796875 10.04703125 9.50796875 9.38703125 9.16796875 8.70703125 C8.50796875 8.70703125 7.84796875 8.70703125 7.16796875 8.70703125 C7.51859375 9.22265625 7.86921875 9.73828125 8.23046875 10.26953125 C9.52953285 13.64709792 8.84014556 16.21171182 8.16796875 19.70703125 C6.84796875 19.70703125 5.52796875 19.70703125 4.16796875 19.70703125 C2.41796875 17.70703125 2.41796875 17.70703125 1.16796875 15.70703125 C2.16796875 13.70703125 2.16796875 13.70703125 4.16796875 12.70703125 C3.83796875 11.38703125 3.50796875 10.06703125 3.16796875 8.70703125 C1.84796875 9.03703125 0.52796875 9.36703125 -0.83203125 9.70703125 C-1.49203125 12.01703125 -2.15203125 14.32703125 -2.83203125 16.70703125 C-4.33203125 15.51953125 -4.33203125 15.51953125 -5.83203125 13.70703125 C-6.01953125 11.01953125 -6.01953125 11.01953125 -5.83203125 8.70703125 C-6.82203125 10.19203125 -6.82203125 10.19203125 -7.83203125 11.70703125 C-8.49203125 11.70703125 -9.15203125 11.70703125 -9.83203125 11.70703125 C-10.16203125 12.36703125 -10.49203125 13.02703125 -10.83203125 13.70703125 C-12.48203125 12.05703125 -14.13203125 10.40703125 -15.83203125 8.70703125 C-14.84203125 8.70703125 -13.85203125 8.70703125 -12.83203125 8.70703125 C-12.83203125 8.04703125 -12.83203125 7.38703125 -12.83203125 6.70703125 C-10.8203125 4.9453125 -10.8203125 4.9453125 -8.14453125 3.01953125 C-7.27441406 2.37628906 -6.40429688 1.73304687 -5.5078125 1.0703125 C-2.83203125 -0.29296875 -2.83203125 -0.29296875 0 0 Z " fill="#434223" transform="translate(36.83203125,20.29296875)"/>
<path d="M0 0 C1.44197868 2.88395737 1.58833581 5.82430479 2 9 C1.01 8.67 0.02 8.34 -1 8 C-1.99 8.66 -2.98 9.32 -4 10 C-4.99 9.67 -5.98 9.34 -7 9 C-6.34 12.96 -5.68 16.92 -5 21 C-9.29 21 -13.58 21 -18 21 C-20.19927162 17.4811654 -21.28287602 14.86447959 -20.9375 10.75 C-20 7 -20 7 -17.9375 5.5 C-17.298125 5.335 -16.65875 5.17 -16 5 C-16.061875 6.2375 -16.12375 7.475 -16.1875 8.75 C-16.19271733 11.69257586 -16.0789452 12.85646327 -14.625 15.5 C-13.12364481 17.22609337 -13.12364481 17.22609337 -11 17 C-11.14076315 15.0412957 -11.2877676 13.08303907 -11.4375 11.125 C-11.51871094 10.03445312 -11.59992187 8.94390625 -11.68359375 7.8203125 C-11.83001703 5.05271029 -11.83001703 5.05271029 -13 3 C-16.02934491 2.34227572 -16.02934491 2.34227572 -19 2 C-19 1.67 -19 1.34 -19 1 C-10.96498906 0.36980306 -10.96498906 0.36980306 -6.9375 3 C-6.298125 3.66 -5.65875 4.32 -5 5 C-3.35 3.35 -1.7 1.7 0 0 Z " fill="#A78845" transform="translate(31,28)"/>
<path d="M0 0 C0.33 0 0.66 0 1 0 C1 5.61 1 11.22 1 17 C-5.93 17 -12.86 17 -20 17 C-19.34 15.68 -18.68 14.36 -18 13 C-17.34 13.66 -16.68 14.32 -16 15 C-15.01 15 -14.02 15 -13 15 C-13.268125 14.443125 -13.53625 13.88625 -13.8125 13.3125 C-13.874375 12.549375 -13.93625 11.78625 -14 11 C-11.625 8.375 -11.625 8.375 -9 6 C-8.67 5.34 -8.34 4.68 -8 4 C-5.03 4.495 -5.03 4.495 -2 5 C-2 4.01 -2 3.02 -2 2 C-1.34 2 -0.68 2 0 2 C0 1.34 0 0.68 0 0 Z " fill="#3C3D1F" transform="translate(63,47)"/>
<path d="M0 0 C2.62527189 -0.05382106 5.24944713 -0.09358313 7.875 -0.125 C8.62136719 -0.14175781 9.36773437 -0.15851562 10.13671875 -0.17578125 C12.09194461 -0.1933959 14.04742021 -0.10320189 16 0 C18 2 18 2 18.125 4.625 C18.08375 5.40875 18.0425 6.1925 18 7 C17.01 6.34 16.02 5.68 15 5 C14.63877119 6.31057393 14.28619689 7.62353624 13.9375 8.9375 C13.74027344 9.66839844 13.54304688 10.39929688 13.33984375 11.15234375 C13.22769531 11.76207031 13.11554687 12.37179687 13 13 C13.33 13.33 13.66 13.66 14 14 C14.33 14.66 14.66 15.32 15 16 C14.25 18.0625 14.25 18.0625 13 20 C12.01 20.33 11.02 20.66 10 21 C10.66 19.35 11.32 17.7 12 16 C6.06 16 0.12 16 -6 16 C-3.00703247 14.00468832 -1.39565075 13.54356766 2.0625 12.9375 C5.64787052 12.3221691 5.64787052 12.3221691 9 11 C9.33 10.01 9.66 9.02 10 8 C9.278125 7.79375 8.55625 7.5875 7.8125 7.375 C4.08720815 5.55374621 2.57666495 3.23057488 0 0 Z " fill="#4E4F2B" transform="translate(44,0)"/>
<path d="M0 0 C4.23429756 1.31061591 8.07407404 2.94356259 12 5 C11.01 5.33 10.02 5.66 9 6 C11.64 7.32 14.28 8.64 17 10 C17 10.33 17 10.66 17 11 C16.37351562 11.06058594 15.74703125 11.12117188 15.1015625 11.18359375 C14.28429687 11.26738281 13.46703125 11.35117187 12.625 11.4375 C11.81289062 11.51871094 11.00078125 11.59992187 10.1640625 11.68359375 C7.95727195 11.89090114 7.95727195 11.89090114 6 13 C5.34227572 16.02934491 5.34227572 16.02934491 5 19 C2.48283789 17.67517784 0.43482944 16.53365431 -1.375 14.3125 C-2.63043155 9.66740327 -1.32712535 4.55014407 0 0 Z " fill="#6A6A40" transform="translate(2,17)"/>
<path d="M0 0 C2 2 2 2 6 12 C14.91 12 23.82 12 33 12 C25.56329558 16.95780295 15.64981916 16.53244221 7 17 C7.33 17.99 7.66 18.98 8 20 C2.56896552 19.51724138 2.56896552 19.51724138 0.28125 17.4375 C-1.52085033 14.009114 -1.08531789 10.97470205 -0.6875 7.25 C-0.62626953 6.55261719 -0.56503906 5.85523438 -0.50195312 5.13671875 C-0.34937092 3.42310319 -0.17666411 1.7113005 0 0 Z " fill="#434528" transform="translate(7,36)"/>
<path d="M0 0 C0.45890625 0.40992188 0.9178125 0.81984375 1.390625 1.2421875 C2.31101562 2.05042969 2.31101562 2.05042969 3.25 2.875 C3.85328125 3.40867188 4.4565625 3.94234375 5.078125 4.4921875 C6.97418746 5.9797487 8.81290005 7.00322436 11 8 C10.75 9.875 10.75 9.875 10 12 C6.74430289 14.29104612 4.14959593 14.30840068 0 15 C4.29 15.33 8.58 15.66 13 16 C12.34 17.32 11.68 18.64 11 20 C10.195625 19.67 9.39125 19.34 8.5625 19 C3.16443884 17.48475476 -1.83614758 16.82399325 -6.875 19.5625 C-7.57625 20.036875 -8.2775 20.51125 -9 21 C-9.99 20.67 -10.98 20.34 -12 20 C-8.7915734 16.19266711 -5.58564514 12.46200221 -2 9 C-1.13375 8.13375 -1.13375 8.13375 -0.25 7.25 C0.36875 6.63125 0.36875 6.63125 1 6 C1.45375 6.825 1.9075 7.65 2.375 8.5 C2.91125 9.325 3.4475 10.15 4 11 C4.66 11 5.32 11 6 11 C6.33 10.34 6.66 9.68 7 9 C6.401875 8.773125 5.80375 8.54625 5.1875 8.3125 C2.40651597 6.64390958 1.4358084 4.8716168 0 2 C0 1.34 0 0.68 0 0 Z " fill="#848454" transform="translate(43,0)"/>
<path d="M0 0 C4.29 0.33 8.58 0.66 13 1 C13.33 2.32 13.66 3.64 14 5 C12.700625 4.979375 11.40125 4.95875 10.0625 4.9375 C8.70834367 4.91600546 7.35243917 4.92851801 6 5 C5.67 5.33 5.34 5.66 5 6 C7.31 6.33 9.62 6.66 12 7 C12.33 7.99 12.66 8.98 13 10 C6.73 10 0.46 10 -6 10 C-3.66666667 7.66666667 -1.33333333 5.33333333 1 3 C0.67 2.01 0.34 1.02 0 0 Z " fill="#414429" transform="translate(17,54)"/>
<path d="M0 0 C0.66 0 1.32 0 2 0 C2 0.66 2 1.32 2 2 C2.66 2 3.32 2 4 2 C4.33 3.65 4.66 5.3 5 7 C5.66 5.68 6.32 4.36 7 3 C7.33 5.31 7.66 7.62 8 10 C11.2985139 9.27731765 11.2985139 9.27731765 12.6875 5.9375 C13.120625 4.968125 13.55375 3.99875 14 3 C14.75 4.625 14.75 4.625 15 7 C12.31431196 11.83423847 8.66037825 15.87597383 5 20 C3 16.125 3 16.125 3 15 C0.03 15 -2.94 15 -6 15 C-6 14.67 -6 14.34 -6 14 C-3.69 13.34 -1.38 12.68 1 12 C1.92470553 7.28400182 2.22923777 4.32734391 0 0 Z " fill="#98906E" transform="translate(44,29)"/>
<path d="M0 0 C1.65322266 0.01740234 1.65322266 0.01740234 3.33984375 0.03515625 C4.99693359 0.04869141 4.99693359 0.04869141 6.6875 0.0625 C7.54214844 0.07410156 8.39679687 0.08570313 9.27734375 0.09765625 C8.34921875 0.77828125 8.34921875 0.77828125 7.40234375 1.47265625 C5.21814542 3.06874544 5.21814542 3.06874544 3.27734375 5.09765625 C6.20559027 6.07373842 8.23347651 6.17992293 11.27734375 6.09765625 C8.15823519 7.89041491 5.60051947 8.44056343 2.02734375 8.72265625 C1.1353125 8.79742187 0.24328125 8.8721875 -0.67578125 8.94921875 C-1.35125 8.99820312 -2.02671875 9.0471875 -2.72265625 9.09765625 C-2.72265625 9.75765625 -2.72265625 10.41765625 -2.72265625 11.09765625 C-1.07265625 11.42765625 0.57734375 11.75765625 2.27734375 12.09765625 C2.27734375 12.42765625 2.27734375 12.75765625 2.27734375 13.09765625 C-0.03265625 13.09765625 -2.34265625 13.09765625 -4.72265625 13.09765625 C-5.83773299 8.41433396 -5.58241813 5.54042074 -3.72265625 1.09765625 C-2.72265625 0.09765625 -2.72265625 0.09765625 0 0 Z " fill="#B8BB81" transform="translate(11.72265625,-0.09765625)"/>
<path d="M0 0 C0.99 0.66 1.98 1.32 3 2 C3.66 1.34 4.32 0.68 5 0 C5.33 1.65 5.66 3.3 6 5 C5.34 5 4.68 5 4 5 C3.88679144 10.08303686 3.88679144 10.08303686 5 15 C4.34 15 3.68 15 3 15 C2.67 15.66 2.34 16.32 2 17 C1.34 17 0.68 17 0 17 C-1.11375 17.3403125 -1.11375 17.3403125 -2.25 17.6875 C-5.92365036 18.10496027 -7.86329469 16.82366588 -11 15 C-7.33113052 13.77704351 -6.44591953 14.58628943 -3 16 C-2.34 15.67 -1.68 15.34 -1 15 C-0.34786708 12.97536745 -0.34786708 12.97536745 0 11 C-2.31 11 -4.62 11 -7 11 C-7 10.67 -7 10.34 -7 10 C-5.35 9.67 -3.7 9.34 -2 9 C-1.34 6.03 -0.68 3.06 0 0 Z " fill="#36381E" transform="translate(58,4)"/>
<path d="M0 0 C1.45184478 4.53701494 2.23509196 8.18061476 2 13 C-2 13 -2 13 -3.75 11.4375 C-5.4130642 8.1945248 -5.20719252 5.59133704 -5 2 C-7.51083114 3.25541557 -7.87125446 4.50063488 -9 7 C-9.22417836 4.2351335 -9.32233508 2.53722513 -7.875 0.125 C-5.07848948 -1.55290631 -3.06309468 -0.74875648 0 0 Z " fill="#555555" transform="translate(19,32)"/>
<path d="M0 0 C0.79921875 0.01804687 1.5984375 0.03609375 2.421875 0.0546875 C3.02515625 0.07789062 3.6284375 0.10109375 4.25 0.125 C4.25 0.785 4.25 1.445 4.25 2.125 C8.03427644 3.96307713 10.20288854 4.3281953 14.25 3.125 C14.91 2.795 15.57 2.465 16.25 2.125 C15.86479436 4.66410197 15.54902057 5.85251123 13.62109375 7.609375 C12.98300781 8.02703125 12.34492187 8.4446875 11.6875 8.875 C10.72650391 9.51695313 10.72650391 9.51695313 9.74609375 10.171875 C9.25238281 10.48640625 8.75867188 10.8009375 8.25 11.125 C7.816875 10.526875 7.38375 9.92875 6.9375 9.3125 C4.79568655 6.51814488 4.79568655 6.51814488 2.25 4.125 C0.03081994 3.83756567 0.03081994 3.83756567 -2.3125 4.0625 C-4.69140625 4.21484375 -4.69140625 4.21484375 -6.75 4.125 C-7.41 3.465 -8.07 2.805 -8.75 2.125 C-5.68753253 0.34090198 -3.52920727 -0.10380021 0 0 Z " fill="#424224" transform="translate(43.75,16.875)"/>
<path d="M0 0 C0.99 0.66 1.98 1.32 3 2 C2.67 2.99 2.34 3.98 2 5 C2 4.34 2 3.68 2 3 C1.34 3 0.68 3 0 3 C0.350625 3.515625 0.70125 4.03125 1.0625 4.5625 C2.3615641 7.94006667 1.67217681 10.50468057 1 14 C-0.32 14 -1.64 14 -3 14 C-4.75 12 -4.75 12 -6 10 C-5 8 -5 8 -3 7 C-3.33 5.68 -3.66 4.36 -4 3 C-6.16874252 3.50603992 -7.99967627 3.99983813 -10 5 C-7.66670505 -0.16658167 -5.58295061 -0.3418133 0 0 Z " fill="#020202" transform="translate(44,26)"/>
<path d="M0 0 C-3.28437312 4.45736352 -5.82133492 5.42431864 -11.3125 6.3125 C-13.20583798 6.56144311 -15.10117639 6.7970954 -17 7 C-17.66 6.01 -18.32 5.02 -19 4 C-12.76335625 -0.53574091 -7.56198897 -0.44701413 0 0 Z " fill="#818151" transform="translate(33,0)"/>
<path d="M0 0 C0.33 0.66 0.66 1.32 1 2 C0.67 2.66 0.34 3.32 0 4 C-0.66 3.67 -1.32 3.34 -2 3 C-1.34 2.01 -0.68 1.02 0 0 Z M-5 5 C-4.01 5.33 -3.02 5.66 -2 6 C-2.24741406 9.34008987 -3.2550951 10.2550951 -5.6875 12.6875 C-8.65450041 15.02949064 -11.19613588 15.72829542 -15 16 C-15 14.68 -15 13.36 -15 12 C-14.34 12 -13.68 12 -13 12 C-12.67 11.01 -12.34 10.02 -12 9 C-10.02 8.67 -8.04 8.34 -6 8 C-5.67 7.01 -5.34 6.02 -5 5 Z " fill="#24260E" transform="translate(47,43)"/>
<path d="M0 0 C0.33 0.66 0.66 1.32 1 2 C-1.24808007 8.44449619 -6.25152997 12.55430314 -11.83203125 16.1953125 C-14.86067653 17.31945832 -17.53261801 17.18934764 -20.75 17.125 C-21.92046875 17.10695313 -23.0909375 17.08890625 -24.296875 17.0703125 C-25.18890625 17.04710938 -26.0809375 17.02390625 -27 17 C-27 16.67 -27 16.34 -27 16 C-26.16597656 15.85304688 -25.33195312 15.70609375 -24.47265625 15.5546875 C-15.07536469 13.68168781 -7.7164037 11.07702904 -1.9375 3.125 C-1.298125 2.09375 -0.65875 1.0625 0 0 Z " fill="#2E2F19" transform="translate(41,0)"/>
<path d="M0 0 C0.66 0.33 1.32 0.66 2 1 C1.938125 2.0725 1.87625 3.145 1.8125 4.25 C2.00437794 8.0875589 2.22473478 9.43030998 5 12 C5.99 12 6.98 12 8 12 C8 12.66 8 13.32 8 14 C5.60570412 15.50751963 4.23612509 16.00562203 1.375 15.9375 C-1 15 -1 15 -2.375 12.9375 C-3.23022168 8.9179581 -2.79523083 6.04242338 -2 2 C-1.34 1.34 -0.68 0.68 0 0 Z " fill="#937A45" transform="translate(13,33)"/>
<path d="M0 0 C0.66 0.33 1.32 0.66 2 1 C-3.27304886 5.95249877 -7.8138031 10.0588914 -15.33203125 9.953125 C-18.56940693 9.71461845 -21.77917981 9.40199711 -25 9 C-24.67 8.01 -24.34 7.02 -24 6 C-20.7 5.67 -17.4 5.34 -14 5 C-15.98 5.99 -15.98 5.99 -18 7 C-11.81418444 6.59657725 -4.51160866 4.51160866 0 0 Z " fill="#7E7E4F" transform="translate(33,3)"/>
<path d="M0 0 C0.3690205 11.52164009 0.3690205 11.52164009 -2 17 C-2.66 16.34 -3.32 15.68 -4 15 C-5.32 16.98 -6.64 18.96 -8 21 C-8.66 20.67 -9.32 20.34 -10 20 C-9.360625 19.154375 -8.72125 18.30875 -8.0625 17.4375 C-5.80809686 14.07188397 -5.2343501 11.06206847 -5 7 C-5.33 6.34 -5.66 5.68 -6 5 C-1.125 0 -1.125 0 0 0 Z " fill="#595A32" transform="translate(62,19)"/>
<path d="M0 0 C0 0.33 0 0.66 0 1 C-0.93972656 1.09087891 -0.93972656 1.09087891 -1.8984375 1.18359375 C-2.71570312 1.26738281 -3.53296875 1.35117187 -4.375 1.4375 C-5.18710938 1.51871094 -5.99921875 1.59992187 -6.8359375 1.68359375 C-9.04272805 1.89090114 -9.04272805 1.89090114 -11 3 C-11.65772428 6.02934491 -11.65772428 6.02934491 -12 9 C-16.8 6.53846154 -16.8 6.53846154 -17.8125 3.8125 C-17.874375 3.214375 -17.93625 2.61625 -18 2 C-11.68163837 -2.77387323 -7.45737479 -1.99582544 0 0 Z " fill="#32321B" transform="translate(19,27)"/>
<path d="M0 0 C3.30413275 3.30413275 4.33559174 7.67253853 6 12 C11.61 12.33 17.22 12.66 23 13 C23 13.33 23 13.66 23 14 C21.08574219 13.98259766 21.08574219 13.98259766 19.1328125 13.96484375 C17.46354313 13.95546583 15.79427217 13.94636563 14.125 13.9375 C13.28324219 13.92912109 12.44148438 13.92074219 11.57421875 13.91210938 C10.76855469 13.90888672 9.96289062 13.90566406 9.1328125 13.90234375 C8.38918457 13.89710693 7.64555664 13.89187012 6.87939453 13.88647461 C4.90867432 13.88213364 4.90867432 13.88213364 3 15 C2.67 14.01 2.34 13.02 2 12 C1.01 12.495 1.01 12.495 0 13 C0 8.71 0 4.42 0 0 Z " fill="#1E1E10" transform="translate(7,36)"/>
<path d="M0 0 C1.49080078 0.02707031 1.49080078 0.02707031 3.01171875 0.0546875 C3.77097656 0.07789062 4.53023437 0.10109375 5.3125 0.125 C4.3225 0.785 3.3325 1.445 2.3125 2.125 C2.6425 2.785 2.9725 3.445 3.3125 4.125 C2.36375 4.08375 1.415 4.0425 0.4375 4 C-2.78994856 3.77526182 -2.78994856 3.77526182 -4.6875 6.125 C-4.85431109 9.20847826 -4.85431109 9.20847826 -4.6875 12.125 C-5.6775 12.62 -5.6775 12.62 -6.6875 13.125 C-8.47673164 9.32288277 -9.1546306 6.32917542 -8.6875 2.125 C-5.26655758 -0.15562828 -4.00562778 -0.09425007 0 0 Z " fill="#7D5D1A" transform="translate(15.6875,27.875)"/>
<path d="M0 0 C0.99 0.33 1.98 0.66 3 1 C3.66 4.96 4.32 8.92 5 13 C2.03 13 -0.94 13 -4 13 C-4.33 12.34 -4.66 11.68 -5 11 C-3.35 11 -1.7 11 0 11 C0 7.37 0 3.74 0 0 Z " fill="#968153" transform="translate(21,36)"/>
<path d="M0 0 C0.45890625 0.40992188 0.9178125 0.81984375 1.390625 1.2421875 C2.00421875 1.78101562 2.6178125 2.31984375 3.25 2.875 C3.85328125 3.40867188 4.4565625 3.94234375 5.078125 4.4921875 C6.97418746 5.9797487 8.81290005 7.00322436 11 8 C10.75 9.875 10.75 9.875 10 12 C6.82026536 14.35535899 3.84875379 14.17494335 0 14 C3 12 3 12 6 11 C6.33 10.34 6.66 9.68 7 9 C6.401875 8.773125 5.80375 8.54625 5.1875 8.3125 C2.40651597 6.64390958 1.4358084 4.8716168 0 2 C0 1.34 0 0.68 0 0 Z " fill="#7E7E4F" transform="translate(43,0)"/>
<path d="M0 0 C0.80050781 0.12761719 1.60101563 0.25523438 2.42578125 0.38671875 C3.23402344 0.50660156 4.04226562 0.62648438 4.875 0.75 C5.48988281 0.85699219 6.10476562 0.96398437 6.73828125 1.07421875 C6.14015625 1.36296875 5.54203125 1.65171875 4.92578125 1.94921875 C2.54500333 3.12163901 2.54500333 3.12163901 -0.26171875 5.07421875 C-0.83920678 7.03783739 -0.83920678 7.03783739 -0.94921875 9.19921875 C-1.10390625 11.11734375 -1.10390625 11.11734375 -1.26171875 13.07421875 C-2.76171875 11.88671875 -2.76171875 11.88671875 -4.26171875 10.07421875 C-4.44921875 7.38671875 -4.44921875 7.38671875 -4.26171875 5.07421875 C-5.25171875 6.06421875 -6.24171875 7.05421875 -7.26171875 8.07421875 C-4.47644297 0.14689537 -4.47644297 0.14689537 0 0 Z " fill="#795B1D" transform="translate(35.26171875,23.92578125)"/>
<path d="M0 0 C-0.33 1.98 -0.66 3.96 -1 6 C-4.96 6 -8.92 6 -13 6 C-13.33 5.01 -13.66 4.02 -14 3 C-12.948125 2.87625 -11.89625 2.7525 -10.8125 2.625 C-7.14383087 2.02357883 -3.63516111 0 0 0 Z " fill="#3E4020" transform="translate(43,58)"/>
<path d="M0 0 C0.598125 0.804375 1.19625 1.60875 1.8125 2.4375 C3.80947276 5.22327984 3.80947276 5.22327984 7 6 C7.66 4.02 8.32 2.04 9 0 C9.33 0 9.66 0 10 0 C9.25 6.75 9.25 6.75 7 9 C4 9.25 4 9.25 1 9 C-1 7 -1 7 -1.1875 3.9375 C-1 1 -1 1 0 0 Z " fill="#FFFFFF" transform="translate(37,34)"/>
<path d="M0 0 C0.66 0 1.32 0 2 0 C4.29648649 2.5614657 5 3.47967572 5 7 C0.71 7 -3.58 7 -8 7 C-7.01 6.67 -6.02 6.34 -5 6 C-5 5.34 -5 4.68 -5 4 C-3.35 3.34 -1.7 2.68 0 2 C0 1.34 0 0.68 0 0 Z " fill="#8A8C55" transform="translate(59,57)"/>
<path d="M0 0 C0.66 0 1.32 0 2 0 C2 1.32 2 2.64 2 4 C1.34 4 0.68 4 0 4 C0 4.66 0 5.32 0 6 C-0.66 6 -1.32 6 -2 6 C-2 6.66 -2 7.32 -2 8 C-4.75078884 8.91692961 -6.35948913 9.10886083 -9.1875 9.0625 C-11.0746875 9.0315625 -11.0746875 9.0315625 -13 9 C-12.34 7.68 -11.68 6.36 -11 5 C-10.34 5.66 -9.68 6.32 -9 7 C-8.01 7 -7.02 7 -6 7 C-6 6.34 -6 5.68 -6 5 C-4.34467377 3.98133771 -2.67739862 2.98189187 -1 2 C-0.67 1.34 -0.34 0.68 0 0 Z " fill="#51532B" transform="translate(56,55)"/>
<path d="M0 0 C0.99 0.33 1.98 0.66 3 1 C2.74337755 2.44010481 2.46909179 3.8770687 2.1875 5.3125 C2.03667969 6.11300781 1.88585938 6.91351563 1.73046875 7.73828125 C1 10 1 10 -2 13 C-2.33 9.37 -2.66 5.74 -3 2 C-2.01 1.34 -1.02 0.68 0 0 Z " fill="#969763" transform="translate(55,25)"/>
<path d="M0 0 C0 0.66 0 1.32 0 2 C3.465 1.505 3.465 1.505 7 1 C7.33 1.66 7.66 2.32 8 3 C7.25 5.0625 7.25 5.0625 6 7 C5.01 7.33 4.02 7.66 3 8 C3.66 6.35 4.32 4.7 5 3 C-0.94 3 -6.88 3 -13 3 C-8.86989815 0.24659877 -4.98494908 0 0 0 Z " fill="#54552E" transform="translate(51,13)"/>
<path d="M0 0 C2.97 0.495 2.97 0.495 6 1 C6 2.32 6 3.64 6 5 C4.35 4.67 2.7 4.34 1 4 C0.67 4.99 0.34 5.98 0 7 C-1.98 7.33 -3.96 7.66 -6 8 C-4.85077718 4.55233155 -3.85016633 4.04855705 -1 2 C-0.67 1.34 -0.34 0.68 0 0 Z " fill="#494A25" transform="translate(55,51)"/>
<path d="M0 0 C0.66 0.33 1.32 0.66 2 1 C1.625 3.4375 1.625 3.4375 1 6 C0.01 6.495 0.01 6.495 -1 7 C-1.99 6.67 -2.98 6.34 -4 6 C-4.33 7.98 -4.66 9.96 -5 12 C-5.33 12 -5.66 12 -6 12 C-6.08131463 10.56344146 -6.13933559 9.1255517 -6.1875 7.6875 C-6.22230469 6.88699219 -6.25710937 6.08648437 -6.29296875 5.26171875 C-6 3 -6 3 -4.67578125 1.20703125 C-3 0 -3 0 0 0 Z " fill="#676E73" transform="translate(40,28)"/>
<path d="M0 0 C0.66 0.99 1.32 1.98 2 3 C0.4114658 7.28904235 -2.43127368 9.32345526 -6 12 C-6.66 12 -7.32 12 -8 12 C-6.59023295 8.96147295 -4.91129772 6.4060405 -2.875 3.75 C-2.06675781 2.69039062 -2.06675781 2.69039062 -1.2421875 1.609375 C-0.83226562 1.07828125 -0.42234375 0.5471875 0 0 Z " fill="#4C4D2A" transform="translate(57,38)"/>
<path d="M0 0 C0.75 1.625 0.75 1.625 1 4 C-1.68568804 8.83423847 -5.33962175 12.87597383 -9 17 C-9 12.30310987 -7.78862068 9.8083362 -4.5 6.4375 C-3.675 5.633125 -2.85 4.82875 -2 4 C-0.70480005 1.83379456 -0.70480005 1.83379456 0 0 Z " fill="#7F7F50" transform="translate(58,32)"/>
<path d="M0 0 C1.74216797 0.15275391 1.74216797 0.15275391 3.51953125 0.30859375 C4.39996094 0.39238281 5.28039062 0.47617188 6.1875 0.5625 C5.5275 1.8825 4.8675 3.2025 4.1875 4.5625 C3.07375 4.0675 3.07375 4.0675 1.9375 3.5625 C-3.3246552 2.15925861 -8.3982837 2.40480438 -13.8125 2.5625 C-9.91984288 -1.33015712 -5.1782012 -0.47074556 0 0 Z " fill="#A2A36D" transform="translate(49.8125,15.4375)"/>
<path d="M0 0 C0.79921875 0.01804687 1.5984375 0.03609375 2.421875 0.0546875 C3.02515625 0.07789062 3.6284375 0.10109375 4.25 0.125 C4.25 1.115 4.25 2.105 4.25 3.125 C2.45991533 3.34651549 0.66781838 3.55182213 -1.125 3.75 C-2.12273438 3.86601562 -3.12046875 3.98203125 -4.1484375 4.1015625 C-5.00695313 4.10929687 -5.86546875 4.11703125 -6.75 4.125 C-7.41 3.465 -8.07 2.805 -8.75 2.125 C-5.68753253 0.34090198 -3.52920727 -0.10380021 0 0 Z " fill="#494928" transform="translate(43.75,16.875)"/>
<path d="M0 0 C5.75 1.75 5.75 1.75 8 4 C7.4225 4.0825 6.845 4.165 6.25 4.25 C3.3840696 5.20531013 2.0009236 6.78469173 0 9 C-0.84454356 5.62182575 -1.10844919 3.32534757 0 0 Z " fill="#7A7A4C" transform="translate(2,17)"/>
<path d="M0 0 C2.3125 0.1875 2.3125 0.1875 4 1 C3.01 1.495 3.01 1.495 2 2 C3.32 2 4.64 2 6 2 C6 2.66 6 3.32 6 4 C7.32 4.33 8.64 4.66 10 5 C5.05 5 0.1 5 -5 5 C-3.35 3.35 -1.7 1.7 0 0 Z " fill="#77784A" transform="translate(16,59)"/>
<path d="M0 0 C1.32 0 2.64 0 4 0 C4 0.66 4 1.32 4 2 C6.31 2.33 8.62 2.66 11 3 C11.33 3.99 11.66 4.98 12 6 C7.62065881 5.48041715 3.31196609 4.94324258 -1 4 C-0.67 2.68 -0.34 1.36 0 0 Z " fill="#535430" transform="translate(18,58)"/>
<path d="M0 0 C1.4370809 -0.05422947 2.87475462 -0.09289723 4.3125 -0.125 C5.11300781 -0.14820312 5.91351563 -0.17140625 6.73828125 -0.1953125 C9 0 9 0 12 2 C13.36639342 3.6396721 14.70513179 5.30327614 16 7 C10.02310798 6.2528885 4.94178081 3.29452054 0 0 Z " fill="#7A7A4C" transform="translate(8,22)"/>
<path d="M0 0 C2.66666667 1.33333333 5.33333333 2.66666667 8 4 C7.34 4 6.68 4 6 4 C6 4.66 6 5.32 6 6 C2.125 7 2.125 7 1 7 C0.01 7.33 -0.98 7.66 -2 8 C-1.125 1.125 -1.125 1.125 0 0 Z " fill="#2F3118" transform="translate(44,56)"/>
<path d="M0 0 C0.66 0.33 1.32 0.66 2 1 C1.67 1.66 1.34 2.32 1 3 C0.34 3 -0.32 3 -1 3 C-1 3.99 -1 4.98 -1 6 C-1.66 6 -2.32 6 -3 6 C-3.33 6.66 -3.66 7.32 -4 8 C-4 7.01 -4 6.02 -4 5 C-5.32 5.33 -6.64 5.66 -8 6 C-7.67 5.01 -7.34 4.02 -7 3 C-6.34 3.33 -5.68 3.66 -5 4 C-5 3.01 -5 2.02 -5 1 C-3.35 1.33 -1.7 1.66 0 2 C0 1.34 0 0.68 0 0 Z " fill="#20220F" transform="translate(62,46)"/>
<path d="M0 0 C-2.0625 2.5 -2.0625 2.5 -5 5 C-8.8125 5.3125 -8.8125 5.3125 -12 5 C-11.01 4.34 -10.02 3.68 -9 3 C-9.33 2.34 -9.66 1.68 -10 1 C-3.375 -1.125 -3.375 -1.125 0 0 Z " fill="#080904" transform="translate(46,46)"/>
<path d="M0 0 C0.66 0 1.32 0 2 0 C1.67 2.31 1.34 4.62 1 7 C-0.32 7 -1.64 7 -3 7 C-3.33 5.68 -3.66 4.36 -4 3 C-3.01 2.67 -2.02 2.34 -1 2 C-0.67 1.34 -0.34 0.68 0 0 Z " fill="#171819" transform="translate(44,33)"/>
<path d="M0 0 C3.24732932 1.62366466 3.70155136 4.75387839 5 8 C2.625 7.8125 2.625 7.8125 0 7 C-1.3125 4.4375 -1.3125 4.4375 -2 2 C-1.34 2 -0.68 2 0 2 C0 1.34 0 0.68 0 0 Z " fill="#7C7D52" transform="translate(8,47)"/>
<path d="M0 0 C0 1.32 0 2.64 0 4 C-0.598125 3.649375 -1.19625 3.29875 -1.8125 2.9375 C-4.10813214 1.66695302 -4.10813214 1.66695302 -7 3 C-8.20882096 5.00016466 -8.20882096 5.00016466 -9 7 C-9.22417836 4.2351335 -9.32233508 2.53722513 -7.875 0.125 C-5.07848948 -1.55290631 -3.06309468 -0.74875648 0 0 Z " fill="#000000" transform="translate(19,32)"/>
<path d="M0 0 C3 2 3 2 3.6875 5.125 C3.8421875 6.548125 3.8421875 6.548125 4 8 C2.68 8 1.36 8 0 8 C0 5.36 0 2.72 0 0 Z " fill="#EED297" transform="translate(26,39)"/>
<path d="M0 0 C0 1.98 0 3.96 0 6 C-1.32 6 -2.64 6 -4 6 C-4.33 4.68 -4.66 3.36 -5 2 C-2 0 -2 0 0 0 Z " fill="#151516" transform="translate(21,39)"/>
<path d="M0 0 C0.33 0.99 0.66 1.98 1 3 C-3.455 3.495 -3.455 3.495 -8 4 C-8.33 3.01 -8.66 2.02 -9 1 C-2.25 0 -2.25 0 0 0 Z " fill="#303219" transform="translate(38,60)"/>
<path d="M0 0 C0 1.98 0 3.96 0 6 C-1.32 5.67 -2.64 5.34 -4 5 C-4.33 3.68 -4.66 2.36 -5 1 C-3 0 -3 0 0 0 Z " fill="#414224" transform="translate(6,28)"/>
<path d="M0 0 C0.66 0 1.32 0 2 0 C2 1.32 2 2.64 2 4 C0.35 4.33 -1.3 4.66 -3 5 C-3 5.66 -3 6.32 -3 7 C-3.99 7 -4.98 7 -6 7 C-6 6.34 -6 5.68 -6 5 C-4.34467377 3.98133771 -2.67739862 2.98189187 -1 2 C-0.67 1.34 -0.34 0.68 0 0 Z " fill="#747541" transform="translate(56,55)"/>
<path d="M0 0 C0.33 0 0.66 0 1 0 C1 2.97 1 5.94 1 9 C0.01 9 -0.98 9 -2 9 C-2 6.69 -2 4.38 -2 2 C-1.34 2 -0.68 2 0 2 C0 1.34 0 0.68 0 0 Z " fill="#34361B" transform="translate(63,47)"/>
<path d="M0 0 C3.3 0 6.6 0 10 0 C7.09907498 1.93395001 6.10325263 2.30131941 2.8125 2.625 C1.554375 2.74875 0.29625 2.8725 -1 3 C-0.67 2.01 -0.34 1.02 0 0 Z " fill="#31331D" transform="translate(30,48)"/>
<path d="M0 0 C4.61691161 0.52464905 6.09987886 1.07490914 10 4 C6.04 3.67 2.08 3.34 -2 3 C-1.34 2.01 -0.68 1.02 0 0 Z " fill="#52532D" transform="translate(8,23)"/>
<path d="M0 0 C2.9375 0.9375 2.9375 0.9375 4.3125 3.5 C4.51875 4.304375 4.725 5.10875 4.9375 5.9375 C4.23625 5.463125 3.535 4.98875 2.8125 4.5 C-0.22331337 2.85010143 -2.65418786 2.33381536 -6.0625 1.9375 C-3.0625 -0.0625 -3.0625 -0.0625 0 0 Z " fill="#82601A" transform="translate(45.0625,20.0625)"/>
<path d="M0 0 C0.99 0 1.98 0 3 0 C3 0.99 3 1.98 3 3 C0.11788698 3.96070434 -1.69850044 4.10581883 -4.6875 4.0625 C-5.89986328 4.04896484 -5.89986328 4.04896484 -7.13671875 4.03515625 C-8.05904297 4.01775391 -8.05904297 4.01775391 -9 4 C-9 3.67 -9 3.34 -9 3 C-4.545 2.505 -4.545 2.505 0 2 C0 1.34 0 0.68 0 0 Z " fill="#585831" transform="translate(19,7)"/>
<path d="M0 0 C0 0.66 0 1.32 0 2 C0.66 2.33 1.32 2.66 2 3 C-1.375 3.625 -1.375 3.625 -5 4 C-5.66 3.34 -6.32 2.68 -7 2 C-4.35261084 0.5393715 -3.10551666 0 0 0 Z " fill="#30301A" transform="translate(56,0)"/>
<path d="M0 0 C0.66 0 1.32 0 2 0 C2 0.66 2 1.32 2 2 C2.66 2.33 3.32 2.66 4 3 C3.34 3 2.68 3 2 3 C1.67 3.99 1.34 4.98 1 6 C0.01 6 -0.98 6 -2 6 C-1.125 1.125 -1.125 1.125 0 0 Z " fill="#272814" transform="translate(48,53)"/>
<path d="M0 0 C1.98 0 3.96 0 6 0 C6.33 1.32 6.66 2.64 7 4 C4.36 4 1.72 4 -1 4 C-0.67 2.68 -0.34 1.36 0 0 Z " fill="#37391F" transform="translate(24,55)"/>
<path d="M0 0 C0.763125 0.825 1.52625 1.65 2.3125 2.5 C4.75434142 5.34055197 4.75434142 5.34055197 8 5 C8 5.66 8 6.32 8 7 C3.52599758 7.36275695 3.52599758 7.36275695 1.1875 5.75 C0 4 0 4 0 0 Z " fill="#FBFCFC" transform="translate(13,40)"/>
<path d="M0 0 C0.66 0.33 1.32 0.66 2 1 C1.34 3.64 0.68 6.28 0 9 C-2 7 -2 7 -2.25 4.5 C-2 2 -2 2 0 0 Z " fill="#9DA7AC" transform="translate(13,33)"/>
<path d="M0 0 C0.66 0.33 1.32 0.66 2 1 C1.67 2.65 1.34 4.3 1 6 C0.01 6 -0.98 6 -2 6 C-1.125 1.125 -1.125 1.125 0 0 Z " fill="#FFFFFF" transform="translate(40,28)"/>
<path d="M0 0 C0.66 0.33 1.32 0.66 2 1 C1.34 2.98 0.68 4.96 0 7 C-0.99 6.34 -1.98 5.68 -3 5 C-3 4.01 -3 3.02 -3 2 C-2.01 1.34 -1.02 0.68 0 0 Z " fill="#35361D" transform="translate(27,27)"/>
<path d="M0 0 C-0.66 1.32 -1.32 2.64 -2 4 C-3.98 3.34 -5.96 2.68 -8 2 C-4.77208445 -0.1519437 -3.71599191 -0.20086443 0 0 Z " fill="#848554" transform="translate(56,16)"/>
<path d="M0 0 C0.99 0.66 1.98 1.32 3 2 C2.34 2 1.68 2 1 2 C0.34 3.32 -0.32 4.64 -1 6 C-1.99 5.67 -2.98 5.34 -4 5 C-2.68 3.35 -1.36 1.7 0 0 Z " fill="#6D6E42" transform="translate(35,15)"/>
<path d="M0 0 C2.31 0 4.62 0 7 0 C7.33 0.99 7.66 1.98 8 3 C5.36 2.67 2.72 2.34 0 2 C0 1.34 0 0.68 0 0 Z " fill="#4A4B27" transform="translate(22,61)"/>
</svg>
