<?xml version="1.0" encoding="UTF-8"?>
<svg version="1.1" xmlns="http://www.w3.org/2000/svg" width="64" height="64">
<path d="M0 0 C12.189375 -0.2165625 12.189375 -0.2165625 24.625 -0.4375 C27.18072754 -0.50122803 29.73645508 -0.56495605 32.36962891 -0.63061523 C34.40524729 -0.65106776 36.44089438 -0.66890336 38.4765625 -0.68359375 C39.52545654 -0.71940552 40.57435059 -0.75521729 41.6550293 -0.79211426 C48.9348938 -0.79818515 48.9348938 -0.79818515 51.99212646 1.4928894 C55.01320147 4.92195034 57.28647586 8.41305907 58 13 C56.75 15.375 56.75 15.375 55 17 C54.34 17 53.68 17 53 17 C53.31094086 19.54186606 53.62370536 22.08348598 53.9375 24.625 C54.06801758 25.69427734 54.06801758 25.69427734 54.20117188 26.78515625 C54.28818359 27.48769531 54.37519531 28.19023437 54.46484375 28.9140625 C54.55080811 29.61055908 54.63677246 30.30705566 54.7253418 31.0246582 C54.9669266 32.76213609 55.29700242 34.48682308 55.640625 36.20703125 C56.36419186 41.83040409 54.14326735 47.12177507 51.25 51.875 C48.38686675 54.57907029 45.49340959 56.18611425 42 58 C42.66 59.98 43.32 61.96 44 64 C29.48 64 14.96 64 0 64 C0 42.88 0 21.76 0 0 Z " fill="#4FB33A" transform="translate(0,0)"/>
<path d="M0 0 C1 3 1 3 0 6 C-0.12565874 8.90768474 -0.18979219 11.7795692 -0.1875 14.6875 C-0.18814453 15.52514893 -0.18878906 16.36279785 -0.18945312 17.22583008 C-0.12277754 25.25341867 0.77586996 33.07594392 2 41 C2.66 41 3.32 41 4 41 C5.70680947 42.62553283 7.37660195 44.29115995 9 46 C8.75552124 44.91972534 8.75552124 44.91972534 8.50610352 43.81762695 C8.01903597 41.10597883 7.88547358 38.66780647 7.90234375 35.91796875 C7.90556641 34.98662109 7.90878906 34.05527344 7.91210938 33.09570312 C7.92048828 32.13599609 7.92886719 31.17628906 7.9375 30.1875 C7.94201172 29.20845703 7.94652344 28.22941406 7.95117188 27.22070312 C7.96291316 24.81373889 7.97933581 22.40690143 8 20 C8.33 20 8.66 20 9 20 C9.495 28.415 9.495 28.415 10 37 C16.27382566 40.13691283 28.17142689 38.56762733 34.8125 36.875 C39.27353606 35.30185781 40.94972365 33.19374708 43 29 C45 31 45 31 45.1171875 32.8828125 C44.39393078 39.5787699 43.17003393 45.43664497 37.734375 49.83203125 C35.53013253 51.3119236 33.31184202 52.69588399 31 54 C31.66 55.98 32.32 57.96 33 60 C18.48 60 3.96 60 -11 60 C-11 46.47 -11 32.94 -11 19 C-8.99006295 21.00993705 -8.10059081 22.59211232 -6.875 25.125 C-6.52179687 25.84945313 -6.16859375 26.57390625 -5.8046875 27.3203125 C-5.53914062 27.87460937 -5.27359375 28.42890625 -5 29 C-5.03480469 28.28457031 -5.06960937 27.56914062 -5.10546875 26.83203125 C-5.35445996 17.66678332 -4.51663364 8.16921562 0 0 Z " fill="#093709" transform="translate(11,4)"/>
<path d="M0 0 C2.24993359 -0.02707139 4.49996095 -0.04642829 6.75 -0.0625 C8.00296875 -0.07410156 9.2559375 -0.08570313 10.546875 -0.09765625 C13.28536501 -0.02021027 15.41880293 0.17219185 18 1 C17.1875 3.4375 17.1875 3.4375 16 6 C15.01 6.33 14.02 6.66 13 7 C13.11859375 8.24136719 13.2371875 9.48273437 13.359375 10.76171875 C13.49072191 12.40355514 13.62086721 14.04548798 13.75 15.6875 C13.83121094 16.50412109 13.91242187 17.32074219 13.99609375 18.16210938 C14.29296477 22.23583951 14.37232096 24.35835844 12.27734375 27.96875 C6.32964364 33.27373123 -1.32103822 33.26338232 -8.9375 33.3125 C-10.05644653 33.32083862 -10.05644653 33.32083862 -11.19799805 33.3293457 C-14.98241755 33.27887527 -16.78117638 33.14588241 -20 31 C-20.67982037 27.96294204 -20.50927989 24.85412351 -20.5 21.75 C-20.52835938 20.90308594 -20.55671875 20.05617188 -20.5859375 19.18359375 C-20.59916698 14.93031643 -20.42439634 11.93322077 -17.7109375 8.5390625 C-13.37705725 4.47995276 -9.07515557 1.77459577 -3 1.75 C-2.01 1.8325 -1.02 1.915 0 2 C0 1.34 0 0.68 0 0 Z " fill="#A98740" transform="translate(40,10)"/>
<path d="M0 0 C0.33 0 0.66 0 1 0 C1.33 5.61 1.66 11.22 2 17 C8.27382566 20.13691283 20.17142689 18.56762733 26.8125 16.875 C31.27353606 15.30185781 32.94972365 13.19374708 35 9 C37 11 37 11 37.1171875 12.8828125 C36.39393078 19.5787699 35.17003393 25.43664497 29.734375 29.83203125 C27.53013253 31.3119236 25.31184202 32.69588399 23 34 C23.66 35.98 24.32 37.96 25 40 C21.04 40 17.08 40 13 40 C14.32 38.02 15.64 36.04 17 34 C15.80375 33.896875 14.6075 33.79375 13.375 33.6875 C9.33775083 33.13729082 6.33990872 32.48551346 3 30 C-0.29623315 23.58487388 -0.37887396 16.98889432 -0.1875 9.9375 C-0.17396484 8.97650391 -0.16042969 8.01550781 -0.14648438 7.02539062 C-0.11152306 4.68298248 -0.06246104 2.34180844 0 0 Z " fill="#271202" transform="translate(19,24)"/>
<path d="M0 0 C16.5 0 33 0 50 0 C50.495 0.99 50.495 0.99 51 2 C50.02160156 2.10957031 49.04320312 2.21914063 48.03515625 2.33203125 C36.30561371 3.71752823 25.02138618 5.50324123 16.625 14.5625 C13.45051593 19.32422611 12.63435611 23.03335912 12.375 28.75 C12.31699219 29.79607422 12.31699219 29.79607422 12.2578125 30.86328125 C12.16401376 32.57510818 12.08093826 34.28751682 12 36 C11.67 36 11.34 36 11 36 C10.02929378 30.35155986 9.88030619 24.91128095 9.9375 19.1875 C9.94201172 18.32962891 9.94652344 17.47175781 9.95117188 16.58789062 C9.95985134 15.0119485 9.97059419 13.43601531 9.98413086 11.86010742 C9.9951078 10.5734409 10 9.28671335 10 8 C7.57385524 16.82365744 6.59588166 24.85495156 7 34 C2.91405627 30.47763471 2.36007433 28.5068401 0 23 C0 15.41 0 7.82 0 0 Z " fill="#337F33" transform="translate(0,0)"/>
<path d="M0 0 C0.33 0.99 0.66 1.98 1 3 C0.525625 3.433125 0.05125 3.86625 -0.4375 4.3125 C-3.35218595 7.46036082 -3.11044732 10.61197787 -3.0625 14.6875 C-3.05347656 15.68136719 -3.04445313 16.67523437 -3.03515625 17.69921875 C-3.02355469 18.45847656 -3.01195313 19.21773437 -3 20 C-1.68 20 -0.36 20 1 20 C1.33 18.68 1.66 17.36 2 16 C2.66 16 3.32 16 4 16 C4.2968331 19.78462202 4.33974792 22.32050416 2.625 25.75 C-3.28244232 30.81352199 -10.94528518 31.54513863 -18.5078125 31.27734375 C-22.01855313 30.88665004 -24.24555524 30.24704704 -27 28 C-28.0625 24.5 -28.0625 24.5 -28 21 C-26.5625 19.0625 -26.5625 19.0625 -25 18 C-24.67 19.65 -24.34 21.3 -24 23 C-23.34 22.67 -22.68 22.34 -22 22 C-21.54625 22.825 -21.0925 23.65 -20.625 24.5 C-20.08875 25.325 -19.5525 26.15 -19 27 C-18.34 27 -17.68 27 -17 27 C-16.62447835 20.68731397 -16.62447835 20.68731397 -19 15 C-17.35 15.33 -15.7 15.66 -14 16 C-13.34 14.35 -12.68 12.7 -12 11 C-13.98 10.01 -15.96 9.02 -18 8 C-13.28501716 2.49918668 -7.32044291 -0.73204429 0 0 Z " fill="#C9B17A" transform="translate(50,12)"/>
<path d="M0 0 C4.62 0 9.24 0 14 0 C13.67 1.32 13.34 2.64 13 4 C12.34 4 11.68 4 11 4 C8.26220097 14.20563476 6.33423524 23.3662573 7 34 C2.5315031 30.1478475 0.26574154 26.11449089 -0.23193359 20.28173828 C-0.29464702 17.2027599 -0.26202934 14.14113504 -0.1875 11.0625 C-0.17396484 9.99708984 -0.16042969 8.93167969 -0.14648438 7.83398438 C-0.11135144 5.22243609 -0.05755189 2.61115043 0 0 Z " fill="#327E32" transform="translate(0,0)"/>
<path d="M0 0 C2 2 2 2 2.01171875 4.05859375 C1.90472656 4.84363281 1.79773438 5.62867188 1.6875 6.4375 C1.58824219 7.21996094 1.48898438 8.00242187 1.38671875 8.80859375 C0.55546147 13.51905165 0.55546147 13.51905165 -1.6015625 15.38671875 C-7.1920834 18.98062504 -10.82448528 19.86005099 -17.484375 18.48828125 C-23.59861958 16.92354114 -25.1417011 15.8582989 -30 11 C-24.72 11 -19.44 11 -14 11 C-14 10.34 -14 9.68 -14 9 C-13.32453125 8.85304688 -12.6490625 8.70609375 -11.953125 8.5546875 C-5.74405239 7.12263832 -5.74405239 7.12263832 -1.375 2.8125 C-0.92125 1.884375 -0.4675 0.95625 0 0 Z " fill="#4B2D11" transform="translate(54,33)"/>
<path d="M0 0 C-0.80824219 0.4125 -1.61648437 0.825 -2.44921875 1.25 C-10.64238758 5.52039584 -10.64238758 5.52039584 -16.30078125 12.53125 C-19.26854123 23.00959808 -16.56114943 35.39254717 -15 46 C-20.875 41.25 -20.875 41.25 -22 39 C-22.29685651 35.11056557 -22.2781135 31.21192859 -22.3125 27.3125 C-22.34150391 26.23548828 -22.37050781 25.15847656 -22.40039062 24.04882812 C-22.46161992 16.36690694 -21.67503983 11.7368052 -16.140625 6.109375 C-4.50847458 -2.25423729 -4.50847458 -2.25423729 0 0 Z " fill="#337F33" transform="translate(36,6)"/>
<path d="M0 0 C2.24993359 -0.02707139 4.49996095 -0.04642829 6.75 -0.0625 C8.00296875 -0.07410156 9.2559375 -0.08570313 10.546875 -0.09765625 C13.28536501 -0.02021027 15.41880293 0.17219185 18 1 C17.1875 3.4375 17.1875 3.4375 16 6 C15.01 6.33 14.02 6.66 13 7 C13.02320313 7.73605469 13.04640625 8.47210938 13.0703125 9.23046875 C13.09738281 10.69419922 13.09738281 10.69419922 13.125 12.1875 C13.14820313 13.15042969 13.17140625 14.11335938 13.1953125 15.10546875 C12.9913544 18.12812778 12.26874632 20.26769985 11 23 C9.0625 22.625 9.0625 22.625 7 22 C5.27694547 18.55389094 5.620565 14.77537825 6 11 C7.5 7.4375 7.5 7.4375 9 5 C9.66 5 10.32 5 11 5 C10.67 3.68 10.34 2.36 10 1 C6.7 1 3.4 1 0 1 C0 0.67 0 0.34 0 0 Z " fill="#817253" transform="translate(40,10)"/>
<path d="M0 0 C0.66 1.32 1.32 2.64 2 4 C0.68 4 -0.64 4 -2 4 C-1.67 4.66 -1.34 5.32 -1 6 C-0.86584528 8.6723621 -0.95681459 11.32250488 -1 14 C-2.32 14 -3.64 14 -5 14 C-5.66 13.01 -6.32 12.02 -7 11 C-7.66 11.66 -8.32 12.32 -9 13 C-9.63084578 10.1369307 -10.12281376 7.88879329 -10 5 C-7.11449591 0.92634717 -5.03917126 -0.71988161 0 0 Z " fill="#4C4D4E" transform="translate(35,25)"/>
<path d="M0 0 C6.68798713 6.68798713 8.10527609 17.11092293 10 26 C6.68143108 24.62021122 5.16926903 23.25087603 3.3125 20.1875 C2.89613281 19.52105469 2.47976562 18.85460937 2.05078125 18.16796875 C-0.0052625 13.92594541 -0.11856207 9.84065149 -0.0625 5.1875 C-0.05347656 4.21167969 -0.04445312 3.23585938 -0.03515625 2.23046875 C-0.02355469 1.49441406 -0.01195312 0.75835938 0 0 Z " fill="#1A5B1A" transform="translate(0,23)"/>
<path d="M0 0 C1 3 1 3 0 6 C-0.12565874 8.90768474 -0.18979219 11.7795692 -0.1875 14.6875 C-0.18814453 15.52514893 -0.18878906 16.36279785 -0.18945312 17.22583008 C-0.12277754 25.25341867 0.77586996 33.07594392 2 41 C2.66 41 3.32 41 4 41 C4.556875 42.19625 5.11375 43.3925 5.6875 44.625 C7.67113911 48.6207175 10.02266208 51.69184676 13 55 C9.88175879 53.63746417 7.95262649 52.14891747 5.75 49.5625 C5.22921875 48.96566406 4.7084375 48.36882813 4.171875 47.75390625 C3 46 3 46 3 43 C2.34 43 1.68 43 1 43 C-1.40860441 36.06359273 -2.52508507 29.70080053 -2.75 22.375 C-2.79253906 21.48554688 -2.83507813 20.59609375 -2.87890625 19.6796875 C-3.44165903 5.50665445 -3.44165903 5.50665445 0 0 Z " fill="#1B6D16" transform="translate(11,4)"/>
<path d="M0 0 C2 2 2 2 2 6 C1.34 6 0.68 6 0 6 C-0.2475 6.598125 -0.495 7.19625 -0.75 7.8125 C-2.23463274 10.4106073 -3.43875025 11.45449374 -6 13 C-8.76953125 13.328125 -8.76953125 13.328125 -11.8125 13.25 C-13.39224609 13.21132813 -13.39224609 13.21132813 -15.00390625 13.171875 C-18.40021303 12.97704123 -21.65477997 12.60822182 -25 12 C-25 11.67 -25 11.34 -25 11 C-21.37 11 -17.74 11 -14 11 C-14 10.34 -14 9.68 -14 9 C-13.32453125 8.85304688 -12.6490625 8.70609375 -11.953125 8.5546875 C-5.74405239 7.12263832 -5.74405239 7.12263832 -1.375 2.8125 C-0.92125 1.884375 -0.4675 0.95625 0 0 Z " fill="#693D1A" transform="translate(54,33)"/>
<path d="M0 0 C0.66 0 1.32 0 2 0 C2.01458252 0.58378418 2.02916504 1.16756836 2.04418945 1.76904297 C2.11969085 4.47161959 2.21600338 7.17309464 2.3125 9.875 C2.33505859 10.7928125 2.35761719 11.710625 2.38085938 12.65625 C2.60596382 18.46803759 3.50266677 23.42697881 5.46557617 28.91064453 C6 31 6 31 5 34 C4.505 32.515 4.505 32.515 4 31 C3.34 31 2.68 31 2 31 C-1.08487163 21.33406891 -2.65241227 9.946546 0 0 Z " fill="#093609" transform="translate(7,16)"/>
<path d="M0 0 C-0.83144531 0.50789062 -1.66289063 1.01578125 -2.51953125 1.5390625 C-3.60621094 2.22742188 -4.69289063 2.91578125 -5.8125 3.625 C-6.89144531 4.29789063 -7.97039063 4.97078125 -9.08203125 5.6640625 C-12.38196263 8.30577463 -13.61058751 10.02473648 -15 14 C-15.20597558 16.7188776 -15.28948136 19.17641622 -15.1875 21.875 C-15.16719727 22.90753906 -15.16719727 22.90753906 -15.14648438 23.9609375 C-15.1114837 25.64097001 -15.05768954 27.3205935 -15 29 C-15.66 28.67 -16.32 28.34 -17 28 C-17.13558695 24.95682614 -17.23437239 21.91974438 -17.3125 18.875 C-17.35439453 18.0190625 -17.39628906 17.163125 -17.43945312 16.28125 C-17.52184295 11.99697923 -17.47528447 8.96773146 -14.734375 5.53515625 C-12.47706175 3.44230439 -10.68750523 1.88009694 -7.9375 0.5625 C-7.28652344 0.23378906 -6.63554687 -0.09492188 -5.96484375 -0.43359375 C-3.61326482 -1.1114843 -2.28748718 -0.77947781 0 0 Z " fill="#615013" transform="translate(37,13)"/>
<path d="M0 0 C10.23 0 20.46 0 31 0 C31.33 0.66 31.66 1.32 32 2 C20.60702377 3.67225311 11.11424494 4.71139957 0 1 C0 0.67 0 0.34 0 0 Z " fill="#549C49" transform="translate(19,0)"/>
<path d="M0 0 C2.24993359 -0.02707139 4.49996095 -0.04642829 6.75 -0.0625 C8.00296875 -0.07410156 9.2559375 -0.08570313 10.546875 -0.09765625 C13.28536501 -0.02021027 15.41880293 0.17219185 18 1 C17.1875 3.4375 17.1875 3.4375 16 6 C15.01 6.33 14.02 6.66 13 7 C13 8.98 13 10.96 13 13 C12.67 13 12.34 13 12 13 C11.67 11.02 11.34 9.04 11 7 C9.515 9.475 9.515 9.475 8 12 C7.375 10.1875 7.375 10.1875 7 8 C7.66 7.01 8.32 6.02 9 5 C9.66 5 10.32 5 11 5 C10.67 3.68 10.34 2.36 10 1 C6.7 1 3.4 1 0 1 C0 0.67 0 0.34 0 0 Z " fill="#1B2A09" transform="translate(40,10)"/>
<path d="M0 0 C0 0.33 0 0.66 0 1 C-0.556875 1.08636719 -1.11375 1.17273438 -1.6875 1.26171875 C-7.58428975 2.34744524 -12.27881724 4.24232392 -17 8 C-17.33 8.66 -17.66 9.32 -18 10 C-20.32156597 10.40729228 -22.6568787 10.74438677 -25 11 C-19.55825829 2.18956104 -9.87972992 -1.15727856 0 0 Z " fill="#A88740" transform="translate(50,11)"/>
<path d="M0 0 C0.33 0 0.66 0 1 0 C1.33 1.65 1.66 3.3 2 5 C2.66 4.67 3.32 4.34 4 4 C7 8.75 7 8.75 7 11 C7.99 11.33 8.98 11.66 10 12 C6.70868339 13.06483773 5.10420156 13.03206202 1.75 12 C-1 10 -1 10 -2 6.5 C-2 3 -2 3 0 0 Z " fill="#B9A981" transform="translate(24,30)"/>
<path d="M0 0 C1.8125 1.5 1.8125 1.5 3 3 C-2.39068413 6.59378942 -5.53673535 7.45356243 -12 7 C-9.9615864 1.62600051 -5.70991128 -0.90156494 0 0 Z " fill="#1F631F" transform="translate(12,57)"/>
<path d="M0 0 C0.33 0.66 0.66 1.32 1 2 C1.99 2.33 2.98 2.66 4 3 C4 3.66 4 4.32 4 5 C5.65 5 7.3 5 9 5 C9.33 5.66 9.66 6.32 10 7 C6.66666667 8.66666667 3.33333333 10.33333333 0 12 C0 8.04 0 4.08 0 0 Z " fill="#0B3C0B" transform="translate(0,50)"/>
<path d="M0 0 C4.29 1.32 8.58 2.64 13 4 C12.34 5.32 11.68 6.64 11 8 C8.03 7.67 5.06 7.34 2 7 C2 6.01 2 5.02 2 4 C1.34 2.68 0.68 1.36 0 0 Z " fill="#083408" transform="translate(23,54)"/>
<path d="M0 0 C0.66 0 1.32 0 2 0 C3.60725635 3.21451269 3.05748185 6.43612536 3 10 C1.68 10 0.36 10 -1 10 C-2.1875 7.8125 -2.1875 7.8125 -3 5 C-1.75 2.1875 -1.75 2.1875 0 0 Z " fill="#050505" transform="translate(31,29)"/>
<path d="M0 0 C0.99 0.33 1.98 0.66 3 1 C3.24042276 5.08718695 2.42258812 8.17679443 1 12 C0.773125 11.46375 0.54625 10.9275 0.3125 10.375 C-1.43382056 7.21499137 -3.6402849 4.7323017 -6 2 C-5.01 1.67 -4.02 1.34 -3 1 C-2.34 1.33 -1.68 1.66 -1 2 C-0.67 1.34 -0.34 0.68 0 0 Z " fill="#8A7447" transform="translate(37,26)"/>
<path d="M0 0 C0.33 0 0.66 0 1 0 C1.28875 1.051875 1.5775 2.10375 1.875 3.1875 C2.87865345 6.87060901 2.87865345 6.87060901 4.1875 9.75 C5 12 5 12 4 15 C3.34 15 2.68 15 2 15 C-0.07647071 11.88529393 -0.3624111 10.55611254 -0.6875 6.9375 C-0.77386719 6.05964844 -0.86023437 5.18179687 -0.94921875 4.27734375 C-1 2 -1 2 0 0 Z " fill="#EDD196" transform="translate(44,26)"/>
<path d="M0 0 C0.96292969 0.23203125 1.92585938 0.4640625 2.91796875 0.703125 C4.38169922 1.03570312 4.38169922 1.03570312 5.875 1.375 C6.97908203 1.66117188 6.97908203 1.66117188 8.10546875 1.953125 C7.77546875 2.613125 7.44546875 3.273125 7.10546875 3.953125 C2.15546875 3.953125 -2.79453125 3.953125 -7.89453125 3.953125 C-2.89453125 -0.046875 -2.89453125 -0.046875 0 0 Z " fill="#615A27" transform="translate(24.89453125,60.046875)"/>
<path d="M0 0 C0.66 0.66 1.32 1.32 2 2 C-2.56327794 5.53286034 -6.49633208 5.32374517 -12 5 C-9.57863896 1.87240866 -7.71421818 0.69041213 -3.875 0.125 C-1.956875 0.063125 -1.956875 0.063125 0 0 Z " fill="#383809" transform="translate(20,59)"/>
<path d="M0 0 C0.33 0.99 0.66 1.98 1 3 C1.66 2.01 2.32 1.02 3 0 C4.60725635 3.21451269 4.05748185 6.43612536 4 10 C2.68 10 1.36 10 0 10 C-0.19412181 8.52168779 -0.38012131 7.04230684 -0.5625 5.5625 C-0.66691406 4.73878906 -0.77132812 3.91507813 -0.87890625 3.06640625 C-0.91886719 2.38449219 -0.95882812 1.70257812 -1 1 C-0.67 0.67 -0.34 0.34 0 0 Z " fill="#070708" transform="translate(48,22)"/>
<path d="M0 0 C0.66 0 1.32 0 2 0 C2.49230769 6.4 2.49230769 6.4 0 9.4375 C-0.99 10.2109375 -0.99 10.2109375 -2 11 C-2.33 9.02 -2.66 7.04 -3 5 C-2.34 4.67 -1.68 4.34 -1 4 C-0.34786708 1.97536745 -0.34786708 1.97536745 0 0 Z " fill="#A49575" transform="translate(52,28)"/>
<path d="M0 0 C0.33 0.66 0.66 1.32 1 2 C-5.93 1.505 -5.93 1.505 -13 1 C-8.01516249 -2.32322501 -5.59534216 -2.3624778 0 0 Z " fill="#200602" transform="translate(38,22)"/>
<path d="M0 0 C2.74501997 3.61186839 5.37012014 7.30395263 8 11 C3.61750634 9.66090471 1.42050749 7.91005056 -1 4 C-0.75 1.6875 -0.75 1.6875 0 0 Z " fill="#114711" transform="translate(13,47)"/>
<path d="M0 0 C1.5625 1.125 1.5625 1.125 3 3 C2.6875 6.1875 2.6875 6.1875 2 9 C0.35 9.33 -1.3 9.66 -3 10 C-2.34 9.34 -1.68 8.68 -1 8 C-0.54188325 6.02764667 -0.54188325 6.02764667 -0.375 3.875 C-0.25125 2.59625 -0.1275 1.3175 0 0 Z " fill="#FFFFFF" transform="translate(34,31)"/>
<path d="M0 0 C1.60407328 -0.02708567 3.2082785 -0.04643483 4.8125 -0.0625 C5.70582031 -0.07410156 6.59914063 -0.08570312 7.51953125 -0.09765625 C10 0 10 0 13 1 C12.67 1.99 12.34 2.98 12 4 C6.06 2.515 6.06 2.515 0 1 C0 0.67 0 0.34 0 0 Z " fill="#83611B" transform="translate(25,23)"/>
<path d="M0 0 C2.64752004 2.57784846 4.94432065 4.91648098 7 8 C3.76912579 7.44295272 1.97638863 6.66812465 0 4 C0 2.68 0 1.36 0 0 Z " fill="#104510" transform="translate(0,46)"/>
<path d="M0 0 C0.66 0 1.32 0 2 0 C2 2.64 2 5.28 2 8 C1.01 8.33 0.02 8.66 -1 9 C-0.67 6.03 -0.34 3.06 0 0 Z " fill="#131415" transform="translate(32,31)"/>
<path d="M0 0 C5.78461538 3.44615385 5.78461538 3.44615385 6.875 6.25 C6.936875 7.11625 6.936875 7.11625 7 8 C3.64379729 6.61122646 1.92701272 5.08322035 0 2 C0 1.34 0 0.68 0 0 Z " fill="#1B5C1B" transform="translate(16,48)"/>
<path d="M0 0 C2.475 0.495 2.475 0.495 5 1 C5.33 2.98 5.66 4.96 6 7 C1.125 2.25 1.125 2.25 0 0 Z " fill="#A0AAAF" transform="translate(31,27)"/>
</svg>
