<?xml version="1.0" encoding="UTF-8"?>
<svg version="1.1" xmlns="http://www.w3.org/2000/svg" width="64" height="64">
<path d="M0 0 C21.12 0 42.24 0 64 0 C64 21.12 64 42.24 64 64 C42.88 64 21.76 64 0 64 C0 42.88 0 21.76 0 0 Z " fill="#452102" transform="translate(0,0)"/>
<path d="M0 0 C0.33 0.99 0.66 1.98 1 3 C1.60328125 2.88140625 2.2065625 2.7628125 2.828125 2.640625 C5.26585675 2.24744246 7.52920788 1.9532208 10 2 C12.5625 3.9375 12.5625 3.9375 14 6 C12 7 12 7 9.0625 7.4375 C5.84075833 7.82069364 5.84075833 7.82069364 3 10 C3.70125 9.649375 4.4025 9.29875 5.125 8.9375 C8.50268586 7.8360807 10.58080593 8.20483859 14 9 C14.37125 7.88625 14.7425 6.7725 15.125 5.625 C16.42990917 2.59047066 16.81216883 2.10208216 19.875 0.4375 C23.33110986 -0.04635538 24.95225017 0.38648538 28 2 C27.7215625 3.175625 27.7215625 3.175625 27.4375 4.375 C26.74037734 6.97089775 26.74037734 6.97089775 28 9 C29.3921875 8.7215625 29.3921875 8.7215625 30.8125 8.4375 C34 8 34 8 37 9 C33.77208445 6.8480563 32.71599191 6.79913557 29 7 C29.625 5.0625 29.625 5.0625 31 3 C34.45463334 2.0987913 37.41911208 2 41 2 C41.05406122 3.93719378 41.09282025 5.87481921 41.125 7.8125 C41.14820313 8.89144531 41.17140625 9.97039063 41.1953125 11.08203125 C41 14 41 14 39 17 C35.9609375 17.29296875 35.9609375 17.29296875 32.375 17.1875 C31.18648437 17.16042969 29.99796875 17.13335938 28.7734375 17.10546875 C27.85820313 17.07066406 26.94296875 17.03585938 26 17 C26.70210243 19.0307303 26.70210243 19.0307303 28 21 C30.67790463 21.83886169 33.1737941 21.81766414 36 22 C35.38545304 25.99455527 33.29353263 28.74466336 31 32 C30.15695313 31.75443359 30.15695313 31.75443359 29.296875 31.50390625 C26.86940944 30.97135003 24.73110319 30.90101319 22.25 30.9375 C21.05117188 30.95103516 21.05117188 30.95103516 19.828125 30.96484375 C19.22484375 30.97644531 18.6215625 30.98804687 18 31 C19.12673477 31 20.25176019 30.90117683 21.375 30.8125 C24 31 24 31 25.75 32.5 C26.1625 32.995 26.575 33.49 27 34 C27.33 34 27.66 34 28 34 C28.39344358 37.44263129 28.11375268 38.81718319 26.25 41.8125 C24 44 24 44 20 44 C17.65489937 42.59078815 16.00248423 40.91146222 14 39 C14 38.34 14 37.68 14 37 C13.01 37 12.02 37 11 37 C10.34 40.96 9.68 44.92 9 49 C7.35 48.34 5.7 47.68 4 47 C3.34 47.66 2.68 48.32 2 49 C1.67 45.7 1.34 42.4 1 39 C-0.98 40.32 -2.96 41.64 -5 43 C-5 39 -5 39 -2.75 36.6875 C0 35 0 35 2.1875 34.875 C4.97407631 36.60459909 5.21682527 38.93256566 6 42 C6.66 42 7.32 42 8 42 C7.34 39.03 6.68 36.06 6 33 C4.515 33.495 4.515 33.495 3 34 C3.33 31.36 3.66 28.72 4 26 C2.02 26.99 2.02 26.99 0 28 C0 26.68 0 25.36 0 24 C-0.99 23.67 -1.98 23.34 -3 23 C-6.18307479 16.75174207 -7.30920804 9.95838919 -6 3 C-3.94489499 0.99553412 -2.9033628 0 0 0 Z " fill="#5B2A0B" transform="translate(11,14)"/>
<path d="M0 0 C6.1173116 0.98666316 12.20665234 2.11917196 16.5625 6.6875 C17.036875 7.450625 17.51125 8.21375 18 9 C17.34 9.33 16.68 9.66 16 10 C16.99 10.33 17.98 10.66 19 11 C19.33 10.01 19.66 9.02 20 8 C23.61855575 8.62388892 24.1709277 9.1709277 27 12 C27 19.26 27 26.52 27 34 C5.88 34 -15.24 34 -37 34 C-37 26.41 -37 18.82 -37 11 C-32.82091936 8.91045968 -32.19589427 8.83447381 -28 10 C-28 11.65 -28 13.3 -28 15 C-27.34 15.33 -26.68 15.66 -26 16 C-26.61277612 18.96175123 -27.25372522 20.38058783 -29 23 C-29.66 23 -30.32 23 -31 23 C-30.67 23.99 -30.34 24.98 -30 26 C-29.54625 25.505 -29.0925 25.01 -28.625 24.5 C-27 23 -27 23 -25 23 C-24.34 25.64 -23.68 28.28 -23 31 C-21.68 31 -20.36 31 -19 31 C-18.67 31.33 -18.34 31.66 -18 32 C-17.87625 31.34 -17.7525 30.68 -17.625 30 C-16.85479462 26.30301417 -15.93049337 22.65994058 -15 19 C-14.67 19.66 -14.34 20.32 -14 21 C-13.401875 21.12375 -12.80375 21.2475 -12.1875 21.375 C-9.30547061 22.19843697 -8.09617094 23.90382906 -6 26 C-3.8618034 26.7872678 -3.8618034 26.7872678 -2 27 C-0.3516367 25.24755753 -0.3516367 25.24755753 1 23 C0.72057667 20.01948452 -0.59678132 17.61934154 -2 15 C-4.43717258 15.27034634 -4.43717258 15.27034634 -7 16 C-7.66 16.99 -8.32 17.98 -9 19 C-9 18.34 -9 17.68 -9 17 C-9.99 16.67 -10.98 16.34 -12 16 C-9.04497399 14.30757601 -6.90004978 13.72671199 -3.5 13.75 C-2.7471875 13.74484375 -1.994375 13.7396875 -1.21875 13.734375 C1.2296721 14.02749596 2.87304054 14.78183231 5 16 C5.268125 15.278125 5.53625 14.55625 5.8125 13.8125 C6.98982498 11.02409874 8.39145884 8.55904276 10 6 C8.741875 6.061875 7.48375 6.12375 6.1875 6.1875 C2.27768014 6.20826011 2.27768014 6.20826011 0 4.5 C-0.495 3.7575 -0.495 3.7575 -1 3 C-0.67 2.01 -0.34 1.02 0 0 Z " fill="#993700" transform="translate(37,30)"/>
<path d="M0 0 C0.7734375 0.7115625 0.7734375 0.7115625 1.5625 1.4375 C4.66782675 3.42809407 7.36632504 3.65060818 11 4 C10.34 5.32 9.68 6.64 9 8 C9.66 8 10.32 8 11 8 C10.34 9.65 9.68 11.3 9 13 C8.43796875 12.83628906 7.8759375 12.67257813 7.296875 12.50390625 C4.86940944 11.97135003 2.73110319 11.90101319 0.25 11.9375 C-0.94882812 11.95103516 -0.94882812 11.95103516 -2.171875 11.96484375 C-2.77515625 11.97644531 -3.3784375 11.98804688 -4 12 C-2.87326523 12 -1.74823981 11.90117683 -0.625 11.8125 C2 12 2 12 3.75 13.5 C4.1625 13.995 4.575 14.49 5 15 C5.33 15 5.66 15 6 15 C6.39344358 18.44263129 6.11375268 19.81718319 4.25 22.8125 C2 25 2 25 -2 25 C-4.34510063 23.59078815 -5.99751577 21.91146222 -8 20 C-8 19.34 -8 18.68 -8 18 C-8.99 18 -9.98 18 -11 18 C-11.66 21.96 -12.32 25.92 -13 30 C-15.475 29.01 -15.475 29.01 -18 28 C-18.66 28.66 -19.32 29.32 -20 30 C-20.33 26.7 -20.66 23.4 -21 20 C-22.98 21.32 -24.96 22.64 -27 24 C-27 20 -27 20 -24.75 17.6875 C-22 16 -22 16 -19.8125 15.875 C-17.02592369 17.60459909 -16.78317473 19.93256566 -16 23 C-15.34 23 -14.68 23 -14 23 C-14.66 20.03 -15.32 17.06 -16 14 C-16.99 14.33 -17.98 14.66 -19 15 C-18.67 12.36 -18.34 9.72 -18 7 C-19.98 7.99 -19.98 7.99 -22 9 C-20.8141763 5.62496331 -19.72426311 3.35277269 -17 1 C-16.67 2.98 -16.34 4.96 -16 7 C-15.34 6.34 -14.68 5.68 -14 5 C-11.46796138 4.15598713 -9.10721243 3.90602236 -6.4375 3.625 C-3.04762785 3.00865961 -1.99222595 2.69536452 0 0 Z " fill="#A64E00" transform="translate(33,33)"/>
<path d="M0 0 C7.59 0 15.18 0 23 0 C23 13.86 23 27.72 23 42 C21.68 41.01 20.36 40.02 19 39 C18.01 39 17.02 39 16 39 C15.67 39.66 15.34 40.32 15 41 C14.34 41 13.68 41 13 41 C13 43.31 13 45.62 13 48 C12.67 48 12.34 48 12 48 C11.83139083 38.05205905 11.83139083 38.05205905 13.734375 33.08203125 C16.0436087 26.92770558 16.33018869 21.54262765 16 15 C14.35 15 12.7 15 11 15 C11 14.34 11 13.68 11 13 C10.34 13 9.68 13 9 13 C9 12.34 9 11.68 9 11 C6.03 11 3.06 11 0 11 C0 7.37 0 3.74 0 0 Z " fill="#442102" transform="translate(41,0)"/>
<path d="M0 0 C0.77821106 -0.00287018 1.55642212 -0.00574036 2.35821533 -0.00869751 C4.0057447 -0.01073862 5.65329827 -0.00520539 7.30078125 0.00732422 C9.8052499 0.02329166 12.30808349 0.00752322 14.8125 -0.01171875 C16.4166702 -0.00973463 18.02083938 -0.00588747 19.625 0 C20.36691589 -0.00607269 21.10883179 -0.01214539 21.87322998 -0.0184021 C26.96132341 0.04931511 30.55243564 1.03204015 35.078125 3.3984375 C36.015625 5.1484375 36.015625 5.1484375 36.078125 7.3984375 C36.160625 8.4503125 36.243125 9.5021875 36.328125 10.5859375 C36.02405754 15.22296626 34.7223018 19.0824734 33.078125 23.3984375 C29.57788229 23.3984375 27.61474934 23.09992199 24.390625 22.0234375 C23.60300781 21.76820312 22.81539062 21.51296875 22.00390625 21.25 C20.078125 20.3984375 20.078125 20.3984375 19.078125 18.3984375 C22.048125 18.7284375 25.018125 19.0584375 28.078125 19.3984375 C29.12789464 16.24912857 29.17944095 14.01029294 29.140625 10.7109375 C29.13160156 9.71707031 29.12257812 8.72320312 29.11328125 7.69921875 C29.10167969 6.93996094 29.09007812 6.18070313 29.078125 5.3984375 C24.28504158 4.93321457 24.28504158 4.93321457 20.140625 6.8984375 C19.6146875 7.6409375 19.6146875 7.6409375 19.078125 8.3984375 C20.439375 8.5221875 20.439375 8.5221875 21.828125 8.6484375 C25.47890339 9.49092482 26.71197083 10.57725368 29.078125 13.3984375 C28.52125 13.2540625 27.964375 13.1096875 27.390625 12.9609375 C26.6275 12.7753125 25.864375 12.5896875 25.078125 12.3984375 C24.253125 12.1921875 23.428125 11.9859375 22.578125 11.7734375 C20.03287541 11.39165006 18.49469919 11.59291277 16.078125 12.3984375 C15.48079681 9.63579461 15.078125 7.23810981 15.078125 4.3984375 C12.44576941 3.66722762 10.57546093 3.28476072 7.890625 3.8984375 C5.10841044 6.2009599 4.83988372 8.97052327 4.078125 12.3984375 C2.985 12.1921875 1.891875 11.9859375 0.765625 11.7734375 C-3.0057151 10.99497225 -3.0057151 10.99497225 -5.921875 13.3984375 C-6.911875 13.0684375 -7.901875 12.7384375 -8.921875 12.3984375 C-5.12495314 9.57282123 -2.73618221 7.83204842 2.078125 8.3984375 C1.748125 7.4084375 1.418125 6.4184375 1.078125 5.3984375 C-2.551875 5.3984375 -6.181875 5.3984375 -9.921875 5.3984375 C-9.921875 9.0284375 -9.921875 12.6584375 -9.921875 16.3984375 C-10.251875 16.3984375 -10.581875 16.3984375 -10.921875 16.3984375 C-11.0028956 14.29490255 -11.06107407 12.19047798 -11.109375 10.0859375 C-11.14417969 8.91417969 -11.17898438 7.74242187 -11.21484375 6.53515625 C-10.921875 3.3984375 -10.921875 3.3984375 -9.89868164 1.72729492 C-6.8167055 -0.34448427 -3.58890011 -0.02905855 0 0 Z " fill="#7A4914" transform="translate(21.921875,11.6015625)"/>
<path d="M0 0 C3.28153388 0.5657817 4.94392563 1.35678724 7 4 C7.34057617 6.36010742 7.34057617 6.36010742 7.29296875 9.10546875 C7.28172974 10.43421021 7.28172974 10.43421021 7.27026367 11.78979492 C7.24295166 12.9110376 7.21563965 14.03228027 7.1875 15.1875 C7.125625 18.755625 7.06375 22.32375 7 26 C-0.26 26 -7.52 26 -15 26 C-13.86725664 18.07079646 -13.86725664 18.07079646 -11.125 15.0625 C-10.61195312 14.47597656 -10.09890625 13.88945313 -9.5703125 13.28515625 C-8 12 -8 12 -5 12 C-4.34 9.03 -3.68 6.06 -3 3 C-2.34 3 -1.68 3 -1 3 C-0.67 2.01 -0.34 1.02 0 0 Z " fill="#BE6000" transform="translate(57,38)"/>
<path d="M0 0 C-0.185625 0.78375 -0.37125 1.5675 -0.5625 2.375 C-1.25962266 4.97089775 -1.25962266 4.97089775 0 7 C0.928125 6.814375 1.85625 6.62875 2.8125 6.4375 C6 6 6 6 9 7 C5.77208445 4.8480563 4.71599191 4.79913557 1 5 C1.625 3.0625 1.625 3.0625 3 1 C6.45463334 0.0987913 9.41911208 0 13 0 C13.05406122 1.93719378 13.09282025 3.87481921 13.125 5.8125 C13.14820313 6.89144531 13.17140625 7.97039063 13.1953125 9.08203125 C13 12 13 12 11 15 C2.60256909 14.14013235 2.60256909 14.14013235 -0.6875 13.375 C-3.62427509 12.8987662 -6.09270495 13.4714009 -9 14 C-9.33 13.67 -9.66 13.34 -10 13 C-13.36629251 12.85363946 -15.78419562 12.92806521 -19 14 C-22.1875 12.5625 -22.1875 12.5625 -25 11 C-25 10.34 -25 9.68 -25 9 C-21.97474324 6.59759022 -20.5874129 5.94458369 -16.6875 6.3125 C-15.800625 6.539375 -14.91375 6.76625 -14 7 C-13.38125 5.329375 -13.38125 5.329375 -12.75 3.625 C-11.74762492 1.33717169 -11.13384162 0.11950144 -9.25 -1.5625 C-5.84518322 -2.22454771 -3.21989353 -1.11457853 0 0 Z " fill="#CDB47C" transform="translate(39,16)"/>
<path d="M0 0 C0 1.65 0 3.3 0 5 C0.66 5.33 1.32 5.66 2 6 C1.38722388 8.96175123 0.74627478 10.38058783 -1 13 C-1.66 13 -2.32 13 -3 13 C-2.67 13.99 -2.34 14.98 -2 16 C-1.54625 15.505 -1.0925 15.01 -0.625 14.5 C1 13 1 13 3 13 C3.66 15.64 4.32 18.28 5 21 C6.32 21 7.64 21 9 21 C9.33 21.33 9.66 21.66 10 22 C11.32 19.36 12.64 16.72 14 14 C14.60328125 14.42152344 15.2065625 14.84304687 15.828125 15.27734375 C16.62734375 15.82519531 17.4265625 16.37304688 18.25 16.9375 C19.43335938 17.75541016 19.43335938 17.75541016 20.640625 18.58984375 C22.82636993 19.89622441 24.5153801 20.54980511 27 21 C26.505 22.485 26.505 22.485 26 24 C14.45 24 2.9 24 -9 24 C-9 16.41 -9 8.82 -9 1 C-4.82091936 -1.08954032 -4.19589427 -1.16552619 0 0 Z " fill="#AF4B00" transform="translate(9,40)"/>
<path d="M0 0 C0.7734375 0.7115625 0.7734375 0.7115625 1.5625 1.4375 C4.66782675 3.42809407 7.36632504 3.65060818 11 4 C10.34 5.32 9.68 6.64 9 8 C9.66 8 10.32 8 11 8 C10.34 9.65 9.68 11.3 9 13 C8.4328125 12.83757813 7.865625 12.67515625 7.28125 12.5078125 C4.94456082 11.98765909 2.89019234 11.86681441 0.5 11.875 C-0.2528125 11.87242188 -1.005625 11.86984375 -1.78125 11.8671875 C-4.00480758 11.91732676 -4.00480758 11.91732676 -6.078125 12.609375 C-8 13 -8 13 -11.25 11.375 C-14 9 -14 9 -14.375 6.25 C-14.25125 5.5075 -14.1275 4.765 -14 4 C-12.783125 4.061875 -11.56625 4.12375 -10.3125 4.1875 C-6.41277726 4.2013288 -4.16206576 3.39550436 -1 1 C-0.67 0.67 -0.34 0.34 0 0 Z " fill="#82724F" transform="translate(33,33)"/>
<path d="M0 0 C5.28 0 10.56 0 16 0 C16 3.3 16 6.6 16 10 C10.72 10 5.44 10 0 10 C0 6.7 0 3.4 0 0 Z " fill="#623A14" transform="translate(24,0)"/>
<path d="M0 0 C2.31 0 4.62 0 7 0 C6.71125 0.54527344 6.4225 1.09054688 6.125 1.65234375 C1.08521874 11.88939943 2.49568087 22.83958449 5.80078125 33.609375 C6.48077905 35.42699945 7.23132239 37.21806555 8 39 C5.36 39.66 2.72 40.32 0 41 C0 27.47 0 13.94 0 0 Z " fill="#090000" transform="translate(0,0)"/>
<path d="M0 0 C2.31 0 4.62 0 7 0 C7 13.86 7 27.72 7 42 C3.535 40.02 3.535 40.02 0 38 C0.20496094 37.31035156 0.40992188 36.62070312 0.62109375 35.91015625 C2.33687535 29.92544436 3.62126222 24.21575527 4 18 C4.06445312 17.26007812 4.12890625 16.52015625 4.1953125 15.7578125 C4.50999145 9.69499797 2.8174858 5.32052007 0 0 Z " fill="#090000" transform="translate(57,0)"/>
<path d="M0 0 C1.4375 2.0625 1.4375 2.0625 2 4 C1.113125 3.9175 0.22625 3.835 -0.6875 3.75 C-4.69008159 4.05208163 -6.12835434 5.29727467 -9 8 C-6.80959941 10.51896068 -5.34270453 11.62858839 -2 12 C0.34114367 11.72686657 2.67750658 11.40197001 5 11 C5.66 12.65 6.32 14.3 7 16 C6 17.5 6 17.5 4 19 C1.15172149 19.45432663 -1.06737257 19.27929785 -4 19 C-4.66 18.01 -5.32 17.02 -6 16 C-5.34 15.67 -4.68 15.34 -4 15 C-4.969375 14.71125 -5.93875 14.4225 -6.9375 14.125 C-10 13 -10 13 -11 11 C-11.07033769 9.12620395 -11.0843022 7.24998898 -11.0625 5.375 C-11.05347656 4.37210938 -11.04445313 3.36921875 -11.03515625 2.3359375 C-11.02355469 1.56507812 -11.01195312 0.79421875 -11 0 C-7.0367776 -1.14357298 -4.0440649 -0.97357118 0 0 Z " fill="#AF8F4B" transform="translate(23,17)"/>
<path d="M0 0 C2.97960929 0.36336699 3.68864558 1.06387469 5.5625 3.3125 C5.8925 3.3125 6.2225 3.3125 6.5625 3.3125 C6.95594358 6.75513129 6.67625268 8.12968319 4.8125 11.125 C2.5625 13.3125 2.5625 13.3125 -1.4375 13.3125 C-3.78260063 11.90328815 -5.43501577 10.22396222 -7.4375 8.3125 C-7.4375 7.6525 -7.4375 6.9925 -7.4375 6.3125 C-8.4275 6.3125 -9.4175 6.3125 -10.4375 6.3125 C-11.0975 7.6325 -11.7575 8.9525 -12.4375 10.3125 C-12.7675 8.6625 -13.0975 7.0125 -13.4375 5.3125 C-12.7775 5.3125 -12.1175 5.3125 -11.4375 5.3125 C-11.1075 3.9925 -10.7775 2.6725 -10.4375 1.3125 C-9.014375 1.621875 -9.014375 1.621875 -7.5625 1.9375 C-6.53125 2.06125 -5.5 2.185 -4.4375 2.3125 C-2.4375 0.3125 -2.4375 0.3125 0 0 Z " fill="#D57C00" transform="translate(32.4375,44.6875)"/>
<path d="M0 0 C0 1.65 0 3.3 0 5 C0.66 5.33 1.32 5.66 2 6 C1.38722388 8.96175123 0.74627478 10.38058783 -1 13 C-1.66 13 -2.32 13 -3 13 C-2.67 14.65 -2.34 16.3 -2 18 C-3.65 19.32 -5.3 20.64 -7 22 C-6.34 19.03 -5.68 16.06 -5 13 C-6.32 13 -7.64 13 -9 13 C-9 9.04 -9 5.08 -9 1 C-4.82091936 -1.08954032 -4.19589427 -1.16552619 0 0 Z " fill="#A44800" transform="translate(9,40)"/>
<path d="M0 0 C3.29541111 0.53151792 6.44328724 1.38363436 9.625 2.375 C10.38039063 2.60960937 11.13578125 2.84421875 11.9140625 3.0859375 C14.15749868 4.06901628 15.39662027 5.17194285 17 7 C16.67 7.66 16.34 8.32 16 9 C15.01 8.34 14.02 7.68 13 7 C11.02 9.97 11.02 9.97 9 13 C10.32 12.01 11.64 11.02 13 10 C13.33 11.65 13.66 13.3 14 15 C13.34 15 12.68 15 12 15 C12 15.99 12 16.98 12 18 C11.34 18 10.68 18 10 18 C9.34 19.32 8.68 20.64 8 22 C8 21.34 8 20.68 8 20 C6.02 20.99 6.02 20.99 4 22 C3.67 20.35 3.34 18.7 3 17 C3.66 17 4.32 17 5 17 C5.0825 16.484375 5.165 15.96875 5.25 15.4375 C6.32140225 11.95544268 8.13523605 9.12799115 10 6 C8.741875 6.061875 7.48375 6.12375 6.1875 6.1875 C2.27768014 6.20826011 2.27768014 6.20826011 0 4.5 C-0.33 4.005 -0.66 3.51 -1 3 C-0.67 2.01 -0.34 1.02 0 0 Z " fill="#C56C00" transform="translate(37,30)"/>
<path d="M0 0 C4.29 0 8.58 0 13 0 C14.5625 2.8125 14.5625 2.8125 16 6 C15.67 6.99 15.34 7.98 15 9 C9.78020872 9.1799928 5.92737019 8.97094808 1 7 C0.67 4.69 0.34 2.38 0 0 Z " fill="#785738" transform="translate(42,0)"/>
<path d="M0 0 C0.33 1.65 0.66 3.3 1 5 C1.33 5 1.66 5 2 5 C1.67 7.31 1.34 9.62 1 12 C0.34 11.67 -0.32 11.34 -1 11 C-1.33 11.66 -1.66 12.32 -2 13 C-4.06640625 13.4140625 -4.06640625 13.4140625 -6.5625 13.625 C-7.80193359 13.73714844 -7.80193359 13.73714844 -9.06640625 13.8515625 C-10.02353516 13.92503906 -10.02353516 13.92503906 -11 14 C-10.76819904 8.32087644 -9.2955103 5.54386227 -5.5703125 1.28515625 C-3.60647263 -0.32206594 -2.49101712 0 0 0 Z " fill="#B34E00" transform="translate(53,50)"/>
<path d="M0 0 C0.66 0.33 1.32 0.66 2 1 C1.97679687 2.10859375 1.95359375 3.2171875 1.9296875 4.359375 C1.91092423 5.82290992 1.89272463 7.28645214 1.875 8.75 C1.85824219 9.47960938 1.84148438 10.20921875 1.82421875 10.9609375 C1.78845123 14.89536428 2.03084686 17.59121389 4 21 C3.67 21.66 3.34 22.32 3 23 C0.625 22.375 0.625 22.375 -2 21 C-4.83975461 15.86139643 -4.97386647 8.71940226 -4 3 C-1.9765625 1.13671875 -1.9765625 1.13671875 0 0 Z " fill="#67401C" transform="translate(9,14)"/>
<path d="M0 0 C2.97 0 5.94 0 9 0 C8.67 2.64 8.34 5.28 8 8 C4.04 8.99 0.08 9.98 -4 11 C-3.1302743 6.65137149 -2.0525056 3.83729307 0 0 Z " fill="#917545" transform="translate(12,0)"/>
<path d="M0 0 C0.05406122 1.93719378 0.09282025 3.87481921 0.125 5.8125 C0.14820313 6.89144531 0.17140625 7.97039063 0.1953125 9.08203125 C0 12 0 12 -2 15 C-3.41750563 14.88490339 -4.83401169 14.75746342 -6.25 14.625 C-7.43335938 14.52058594 -7.43335938 14.52058594 -8.640625 14.4140625 C-11.085877 13.98492887 -12.84836903 13.21399362 -15 12 C-14.34 11.34 -13.68 10.68 -13 10 C-12.1646875 10.495 -12.1646875 10.495 -11.3125 11 C-8.69715478 12.1309601 -6.8193354 12.15662974 -4 12 C-3.34 10.68 -2.68 9.36 -2 8 C-5.51187196 5.59185923 -7.72656908 4.63370592 -12 5 C-9.28085049 -1.02097391 -6.0998139 -0.0983841 0 0 Z " fill="#AD8C47" transform="translate(52,16)"/>
<path d="M0 0 C3.27914055 0.56536906 4.95382821 1.34927745 7 4 C7.29296875 6.48046875 7.29296875 6.48046875 7.1875 9.1875 C7.16042969 10.08855469 7.13335937 10.98960938 7.10546875 11.91796875 C7.07066406 12.60503906 7.03585938 13.29210938 7 14 C6.34 14 5.68 14 5 14 C4.814375 15.2065625 4.814375 15.2065625 4.625 16.4375 C4.41875 17.283125 4.2125 18.12875 4 19 C3.34 19.33 2.68 19.66 2 20 C1.95101562 19.08476563 1.90203125 18.16953125 1.8515625 17.2265625 C1.77679688 16.03804687 1.70203125 14.84953125 1.625 13.625 C1.55539063 12.44164062 1.48578125 11.25828125 1.4140625 10.0390625 C1.29782654 6.89437681 1.29782654 6.89437681 -1 5 C-1.66 5.66 -2.32 6.32 -3 7 C-3 5.68 -3 4.36 -3 3 C-2.34 3 -1.68 3 -1 3 C-0.67 2.01 -0.34 1.02 0 0 Z " fill="#B75A00" transform="translate(57,38)"/>
<path d="M0 0 C0.33 0 0.66 0 1 0 C1 3.3 1 6.6 1 10 C6.28 10 11.56 10 17 10 C17 6.7 17 3.4 17 0 C17.33 0 17.66 0 18 0 C18 3.63 18 7.26 18 11 C20.97 11 23.94 11 27 11 C27 11.33 27 11.66 27 12 C15.11101475 13.60044032 2.88898525 13.60044032 -9 12 C-9 11.67 -9 11.34 -9 11 C-6.03 11 -3.06 11 0 11 C0 7.37 0 3.74 0 0 Z " fill="#320F01" transform="translate(23,0)"/>
<path d="M0 0 C0.33 0.66 0.66 1.32 1 2 C2.64363134 2.72159424 4.31050386 3.39351421 6 4 C5.01 4.495 5.01 4.495 4 5 C4.03480469 5.69867188 4.06960937 6.39734375 4.10546875 7.1171875 C4.13253906 8.02726562 4.15960938 8.93734375 4.1875 9.875 C4.22230469 10.77992187 4.25710937 11.68484375 4.29296875 12.6171875 C4.19628906 13.40351562 4.09960938 14.18984375 4 15 C3.01 15.66 2.02 16.32 1 17 C0.67 16.67 0.34 16.34 0 16 C-1.65 17.98 -3.3 19.96 -5 22 C-5.66 20.68 -6.32 19.36 -7 18 C-6.34 18 -5.68 18 -5 18 C-4.67 17.01 -4.34 16.02 -4 15 C-3.34 14.690625 -2.68 14.38125 -2 14.0625 C0.17567206 13.18089886 0.17567206 13.18089886 0.8125 11 C1.18451089 8.92839876 1.18451089 8.92839876 0 7 C-1.98 7.99 -1.98 7.99 -4 9 C-3.2884375 7.88625 -3.2884375 7.88625 -2.5625 6.75 C-1.22130673 4.38949985 -0.487688 2.63351523 0 0 Z " fill="#6F1D00" transform="translate(49,35)"/>
<path d="M0 0 C0.7425 0.2475 1.485 0.495 2.25 0.75 C2.4975 1.69875 2.745 2.6475 3 3.625 C3.9357077 6.83693191 3.9357077 6.83693191 6.375 8.125 C6.99375 8.33125 7.6125 8.5375 8.25 8.75 C7.92 10.4 7.59 12.05 7.25 13.75 C4.775 12.76 4.775 12.76 2.25 11.75 C1.59 12.41 0.93 13.07 0.25 13.75 C-0.08 10.45 -0.41 7.15 -0.75 3.75 C-2.73 5.07 -4.71 6.39 -6.75 7.75 C-6.75 3.75 -6.75 3.75 -5.0625 1.4375 C-2.75 -0.25 -2.75 -0.25 0 0 Z " fill="#C96E00" transform="translate(12.75,49.25)"/>
<path d="M0 0 C0.66 0 1.32 0 2 0 C2.33 0.66 2.66 1.32 3 2 C4.299375 1.6596875 4.299375 1.6596875 5.625 1.3125 C9.68338409 0.9367237 11.55166676 1.94742069 15 4 C14.01 5.32 13.02 6.64 12 8 C8.53058454 7.54177532 5.32604951 7.10868317 2 6 C1.38125 6.495 0.7625 6.99 0.125 7.5 C-2 9 -2 9 -4.6875 8.8125 C-7 8 -7 8 -8 6 C-5.69 6.33 -3.38 6.66 -1 7 C-0.67 4.69 -0.34 2.38 0 0 Z " fill="#CBB176" transform="translate(36,21)"/>
<path d="M0 0 C0.33 0.66 0.66 1.32 1 2 C1.598125 2.12375 2.19625 2.2475 2.8125 2.375 C5.69452939 3.19843697 6.90382906 4.90382906 9 7 C11.04105639 7.88693303 11.04105639 7.88693303 13 8 C13.66 7.67 14.32 7.34 15 7 C15.66 7.66 16.32 8.32 17 9 C16.34 10.98 15.68 12.96 15 15 C14.34 15 13.68 15 13 15 C12.67 14.01 12.34 13.02 12 12 C11.071875 11.690625 10.14375 11.38125 9.1875 11.0625 C5.77299491 9.92433164 4.3239609 8.68149334 2 6 C1.01 7.32 0.02 8.64 -1 10 C-2.27351308 7.45297384 -1.80191925 6.5717055 -1.0625 3.875 C-0.86785156 3.15054688 -0.67320313 2.42609375 -0.47265625 1.6796875 C-0.31667969 1.12539063 -0.16070313 0.57109375 0 0 Z " fill="#882C00" transform="translate(22,49)"/>
<path d="M0 0 C1.43088528 2.86177057 0.59991697 4.93375773 0 8 C0.99 8 1.98 8 3 8 C3.33 10.97 3.66 13.94 4 17 C3.34 17 2.68 17 2 17 C0.64613064 15.34997172 -0.68678142 13.6825613 -2 12 C-2.66 11.67 -3.32 11.34 -4 11 C-5.125 8.9375 -5.125 8.9375 -6 7 C-6.33 7 -6.66 7 -7 7 C-7 5.35 -7 3.7 -7 2 C-4 1 -4 1 -2 1 C-1.34 0.67 -0.68 0.34 0 0 Z " fill="#7B2400" transform="translate(15,39)"/>
<path d="M0 0 C1.32 0.33 2.64 0.66 4 1 C6.29103081 8.15947128 4.57258882 14.24695435 2 21 C0.68 21 -0.64 21 -2 21 C-1.67257813 20.52046875 -1.34515625 20.0409375 -1.0078125 19.546875 C0.47674371 15.79520582 0.21108873 12.24319259 0.125 8.25 C0.11597656 7.45722656 0.10695312 6.66445313 0.09765625 5.84765625 C0.07417012 3.89830719 0.03830137 1.94911425 0 0 Z " fill="#82633D" transform="translate(53,14)"/>
<path d="M0 0 C1.0828125 -0.2784375 1.0828125 -0.2784375 2.1875 -0.5625 C2.785625 -0.706875 3.38375 -0.85125 4 -1 C4.99 -0.34 5.98 0.32 7 1 C5.68 1.33 4.36 1.66 3 2 C3.4100567 4.07935207 3.4100567 4.07935207 5 6 C7.69658452 6.68790422 10.2017019 6.81946464 13 7 C12.6875 8.875 12.6875 8.875 12 11 C11.01 11.66 10.02 12.32 9 13 C8.01 12.67 7.02 12.34 6 12 C5.67 11.34 5.34 10.68 5 10 C5.99 9.67 6.98 9.34 8 9 C7.071875 8.731875 6.14375 8.46375 5.1875 8.1875 C2 7 2 7 0.59375 5.53125 C-1.37608875 3.63865983 -3.08794491 3.10366894 -5.6875 2.3125 C-6.49574219 2.06113281 -7.30398437 1.80976563 -8.13671875 1.55078125 C-8.75160156 1.36902344 -9.36648437 1.18726563 -10 1 C-6.1925885 -1.15808023 -4.28457123 -0.80335711 0 0 Z " fill="#6E4318" transform="translate(34,29)"/>
<path d="M0 0 C0.99 0 1.98 0 3 0 C2.690625 0.9075 2.38125 1.815 2.0625 2.75 C1.2727737 5.16563338 0.57050703 7.52780285 0 10 C0.886875 9.67 1.77375 9.34 2.6875 9 C5.70923347 8.08777857 7.88373706 7.81669042 11 8 C11.33 5.36 11.66 2.72 12 0 C12.33 0 12.66 0 13 0 C13.02689216 1.47906892 13.04634621 2.95827483 13.0625 4.4375 C13.07410156 5.26121094 13.08570312 6.08492188 13.09765625 6.93359375 C13 9 13 9 12 10 C10.26166987 10.42583255 8.5083239 10.79120054 6.75 11.125 C5.79609375 11.31320312 4.8421875 11.50140625 3.859375 11.6953125 C0.95896343 12.00437275 -1.19256673 11.72747358 -4 11 C-3.49516338 6.65840504 -2.68099266 3.50591348 0 0 Z " fill="#623A14" transform="translate(9,0)"/>
<path d="M0 0 C-1.75 3.875 -1.75 3.875 -4 5 C-5.80843663 5.14716542 -7.62331566 5.2210887 -9.4375 5.25 C-10.40558594 5.27578125 -11.37367187 5.3015625 -12.37109375 5.328125 C-15 5 -15 5 -16.84765625 3.484375 C-17.22792969 2.99453125 -17.60820312 2.5046875 -18 2 C-12.19166432 -2.03356644 -6.76605015 -0.908709 0 0 Z " fill="#EAEDEE" transform="translate(44,37)"/>
<path d="M0 0 C3.875 1.75 3.875 1.75 5 4 C5.23076923 9.53846154 5.23076923 9.53846154 4 12 C1.35346869 11.69268013 -1.292115 11.37940678 -3.9375 11.0625 C-5.06961914 10.93198242 -5.06961914 10.93198242 -6.22460938 10.79882812 C-11.88671875 10.11328125 -11.88671875 10.11328125 -13 9 C-13.04092937 6.66702567 -13.04241723 4.33294775 -13 2 C-12.67 2 -12.34 2 -12 2 C-12 3.65 -12 5.3 -12 7 C-7.23692563 7.95261487 -2.8333472 8.08333357 2 8 C1.34 5.36 0.68 2.72 0 0 Z " fill="#603812" transform="translate(55,0)"/>
<path d="M0 0 C0.66 0.33 1.32 0.66 2 1 C2 4.96 2 8.92 2 13 C-0.97 13 -3.94 13 -7 13 C-6.01 10.36 -5.02 7.72 -4 5 C-3.01 5 -2.02 5 -1 5 C-0.67 3.35 -0.34 1.7 0 0 Z " fill="#B38A40" transform="translate(62,51)"/>
<path d="M0 0 C2.75817753 0.16224574 3.74814358 0.31110769 6 2 C6.495 2.7425 6.495 2.7425 7 3.5 C5.3603125 3.4071875 5.3603125 3.4071875 3.6875 3.3125 C0.07873917 3.14402086 0.07873917 3.14402086 -1.9375 5 C-2.288125 5.495 -2.63875 5.99 -3 6.5 C-2.0925 6.5825 -1.185 6.665 -0.25 6.75 C3.40077839 7.59248732 4.63384583 8.67881618 7 11.5 C6.443125 11.355625 5.88625 11.21125 5.3125 11.0625 C4.549375 10.876875 3.78625 10.69125 3 10.5 C2.175 10.29375 1.35 10.0875 0.5 9.875 C-2.04524959 9.49321256 -3.58342581 9.69447527 -6 10.5 C-6.97615085 7.39406547 -7.10408834 5.81226501 -6.0625 2.6875 C-3.72985199 0.21347938 -3.24509885 0.12550106 0 0 Z " fill="#6C380F" transform="translate(44,13.5)"/>
<path d="M0 0 C1.32 0 2.64 0 4 0 C3.67 2.64 3.34 5.28 3 8 C4.65 6.68 6.3 5.36 8 4 C8.66 6.31 9.32 8.62 10 11 C6.7 11 3.4 11 0 11 C0 7.37 0 3.74 0 0 Z " fill="#B1883E" transform="translate(0,53)"/>
<path d="M0 0 C3.29541111 0.53151792 6.44328724 1.38363436 9.625 2.375 C10.38039063 2.60960937 11.13578125 2.84421875 11.9140625 3.0859375 C14.15749868 4.06901628 15.39662027 5.17194285 17 7 C16.67 7.66 16.34 8.32 16 9 C15.01 8.34 14.02 7.68 13 7 C13 6.34 13 5.68 13 5 C12.34 5 11.68 5 11 5 C10.67 5.66 10.34 6.32 10 7 C2.49230769 6.38461538 2.49230769 6.38461538 0 4.4375 C-0.33 3.963125 -0.66 3.48875 -1 3 C-0.67 2.01 -0.34 1.02 0 0 Z " fill="#AD5000" transform="translate(37,30)"/>
<path d="M0 0 C1.8871875 0.061875 1.8871875 0.061875 3.8125 0.125 C3.19375 0.475625 2.575 0.82625 1.9375 1.1875 C-0.94304253 3.81387702 -1.34212838 6.39127537 -2.1875 10.125 C-3.280625 9.91875 -4.37375 9.7125 -5.5 9.5 C-9.2713401 8.72153475 -9.2713401 8.72153475 -12.1875 11.125 C-13.1775 10.795 -14.1675 10.465 -15.1875 10.125 C-11.39057814 7.29938373 -9.00180721 5.55861092 -4.1875 6.125 C-4.5175 5.135 -4.8475 4.145 -5.1875 3.125 C-5.8475 2.795 -6.5075 2.465 -7.1875 2.125 C-4.09861478 0.06574319 -3.47814073 -0.1140374 0 0 Z " fill="#987532" transform="translate(28.1875,13.875)"/>
<path d="M0 0 C0.33 0 0.66 0 1 0 C1.0809313 2.60478883 1.14045434 5.20706653 1.1875 7.8125 C1.22520508 8.91948242 1.22520508 8.91948242 1.26367188 10.04882812 C1.33677439 15.43404687 1.33677439 15.43404687 -0.22265625 18.0546875 C-2.67567292 19.35936889 -3.96119983 18.99363457 -6.625 18.3125 C-7.81996094 18.02826172 -7.81996094 18.02826172 -9.0390625 17.73828125 C-11 17 -11 17 -12 15 C-9.03 15.33 -6.06 15.66 -3 16 C-1.7247436 12.17423079 -1.57916878 8.50203731 -1.28125 4.49609375 C-1 2 -1 2 0 0 Z " fill="#5C320C" transform="translate(53,15)"/>
<path d="M0 0 C1.27875 -0.061875 2.5575 -0.12375 3.875 -0.1875 C4.95394531 -0.23970703 4.95394531 -0.23970703 6.0546875 -0.29296875 C6.69664063 -0.19628906 7.33859375 -0.09960938 8 0 C10 3 10 3 10 7 C2.25 6.25 2.25 6.25 0 4 C0 2.68 0 1.36 0 0 Z " fill="#987D49" transform="translate(44,0)"/>
<path d="M0 0 C1.12341797 -0.03867188 1.12341797 -0.03867188 2.26953125 -0.078125 C4.73474479 0.34362233 5.61423573 1.36406807 7.1875 3.25 C6.8575 3.91 6.5275 4.57 6.1875 5.25 C5.6925 4.92 5.1975 4.59 4.6875 4.25 C0.25176798 2.47570719 -4.28508828 2.74086276 -8.8125 4.25 C-11.05036817 4.00754106 -13.28025934 3.68611971 -15.5 3.3125 C-16.67949219 3.11785156 -17.85898437 2.92320313 -19.07421875 2.72265625 C-19.97785156 2.56667969 -20.88148437 2.41070312 -21.8125 2.25 C-21.8125 1.92 -21.8125 1.59 -21.8125 1.25 C-6.67757789 0.19844214 -6.67757789 0.19844214 0 0 Z " fill="#8B621E" transform="translate(45.8125,11.75)"/>
<path d="M0 0 C0 1.32 0 2.64 0 4 C-2.32528287 6.32528287 -2.84665898 6.29511025 -6 6.3125 C-6.70125 6.32925781 -7.4025 6.34601562 -8.125 6.36328125 C-8.74375 6.24339844 -9.3625 6.12351562 -10 6 C-10.66 5.01 -11.32 4.02 -12 3 C-11.01 3 -10.02 3 -9 3 C-9 2.34 -9 1.68 -9 1 C-5.92677456 0.08941469 -3.19902639 -0.08886184 0 0 Z " fill="#AD4A00" transform="translate(29,30)"/>
<path d="M0 0 C0.66 1.32 1.32 2.64 2 4 C2.40992188 4.65484375 2.81984375 5.3096875 3.2421875 5.984375 C4 8 4 8 3.3203125 10.140625 C2.21354167 12.09375 1.10677083 14.046875 0 16 C-2.97 16 -5.94 16 -9 16 C-8.67 15.34 -8.34 14.68 -8 14 C-6.02 14.495 -6.02 14.495 -4 15 C-3.67 14.01 -3.34 13.02 -3 12 C-2.34 12 -1.68 12 -1 12 C-0.67 8.04 -0.34 4.08 0 0 Z " fill="#802600" transform="translate(55,48)"/>
<path d="M0 0 C2.3125 -0.1875 2.3125 -0.1875 5 0 C6.75 1.5 6.75 1.5 8 3 C8.33 3 8.66 3 9 3 C9.25 5.3125 9.25 5.3125 9 8 C7 9.8125 7 9.8125 5 11 C5 9.35 5 7.7 5 6 C4.34 5.67 3.68 5.34 3 5 C2.34 5.66 1.68 6.32 1 7 C-1 4 -1 4 -0.625 1.8125 C-0.41875 1.214375 -0.2125 0.61625 0 0 Z " fill="#EA8900" transform="translate(30,45)"/>
<path d="M0 0 C2.5625 1.25 2.5625 1.25 4 3 C4 4.32 4 5.64 4 7 C4.66 6.67 5.32 6.34 6 6 C6 6.99 6 7.98 6 9 C3.625 8.6875 3.625 8.6875 1 8 C-0.54571278 5.68143083 -1.79618552 3.49361571 -3 1 C-5.43717258 1.27034634 -5.43717258 1.27034634 -8 2 C-8.99 3.485 -8.99 3.485 -10 5 C-10 4.34 -10 3.68 -10 3 C-10.99 2.67 -11.98 2.34 -13 2 C-8.6818688 -0.46329757 -4.87455021 -0.58136837 0 0 Z " fill="#984500" transform="translate(38,44)"/>
<path d="M0 0 C2.97 0 5.94 0 9 0 C9.33 1.32 9.66 2.64 10 4 C8.5225254 4.36116046 7.04295325 4.71375048 5.5625 5.0625 C4.73878906 5.25972656 3.91507813 5.45695313 3.06640625 5.66015625 C2.38449219 5.77230469 1.70257812 5.88445313 1 6 C0 5 0 5 -0.0625 2.4375 C-0.041875 1.633125 -0.02125 0.82875 0 0 Z " fill="#9B824B" transform="translate(28,0)"/>
<path d="M0 0 C0.33 0.66 0.66 1.32 1 2 C2.64363134 2.72159424 4.31050386 3.39351421 6 4 C5.01 4.495 5.01 4.495 4 5 C4 7.64 4 10.28 4 13 C1.7522025 10.94766315 0.9977758 9.99332739 0 7 C-1.98 7.99 -1.98 7.99 -4 9 C-3.2884375 7.88625 -3.2884375 7.88625 -2.5625 6.75 C-1.22130673 4.38949985 -0.487688 2.63351523 0 0 Z " fill="#993C00" transform="translate(49,35)"/>
<path d="M0 0 C-0.36923077 6.4 -0.36923077 6.4 -3.5625 9.4375 C-4.7690625 10.2109375 -4.7690625 10.2109375 -6 11 C-5.34 8.03 -4.68 5.06 -4 2 C-5.32 1.67 -6.64 1.34 -8 1 C-4.93251126 -0.86240388 -3.40254489 -1.2151946 0 0 Z " fill="#732803" transform="translate(8,51)"/>
<path d="M0 0 C1.99641149 2.99461723 2.6651717 4.48430284 3 8 C2.1875 10.75 2.1875 10.75 1 13 C0.01 13.495 0.01 13.495 -1 14 C-0.67 11.36 -0.34 8.72 0 6 C-1.98 6.99 -1.98 6.99 -4 8 C-2.87548273 5.0280615 -1.77706209 2.66559313 0 0 Z " fill="#C46600" transform="translate(15,34)"/>
<path d="M0 0 C1.051875 0.433125 1.051875 0.433125 2.125 0.875 C5.05452503 2.02133588 8.00921653 3.02625654 11 4 C10.67 4.99 10.34 5.98 10 7 C7.69 7 5.38 7 3 7 C2.01 4.69 1.02 2.38 0 0 Z " fill="#C66C00" transform="translate(25,57)"/>
<path d="M0 0 C0.66 0 1.32 0 2 0 C2.45375 0.474375 2.9075 0.94875 3.375 1.4375 C5.3490094 3.33558596 6.2832115 3.69813461 9 4 C11.34114367 3.72686657 13.67750658 3.40197001 16 3 C14.68 3.33 13.36 3.66 12 4 C12 4.66 12 5.32 12 6 C7.70700357 7.26264601 5.12168689 6.62950412 1 5 C0.67 3.35 0.34 1.7 0 0 Z " fill="#A4803C" transform="translate(12,25)"/>
<path d="M0 0 C1.32 0.33 2.64 0.66 4 1 C3.2884375 2.175625 3.2884375 2.175625 2.5625 3.375 C1.66101977 4.88948678 0.78820515 6.4235897 0 8 C0.99 8.33 1.98 8.66 3 9 C0.69 9.66 -1.62 10.32 -4 11 C-3.39301257 6.87248551 -1.96189209 3.6678852 0 0 Z " fill="#785738" transform="translate(12,0)"/>
<path d="M0 0 C1.32 1.32 2.64 2.64 4 4 C2.88625 3.9071875 2.88625 3.9071875 1.75 3.8125 C-1.45383006 4.03094296 -2.64031256 4.90250005 -5 7 C-4.67 7.66 -4.34 8.32 -4 9 C-7.68754757 8.50168276 -9.60490662 7.89932357 -12 5 C-10 4 -10 4 -6.5625 3.625 C-3.08111243 3.01423025 -2.03518414 2.75348442 0 0 Z " fill="#ADB7BA" transform="translate(33,33)"/>
<path d="M0 0 C0.99 0.33 1.98 0.66 3 1 C3.53699151 8.11513755 1.69707634 13.44995746 -1 20 C-1.66 19.67 -2.32 19.34 -3 19 C-2.7834375 18.46632813 -2.566875 17.93265625 -2.34375 17.3828125 C-0.12101138 11.43492861 0.35617135 6.31874363 0 0 Z " fill="#623A14" transform="translate(57,16)"/>
<path d="M0 0 C3 3 3 3 3.375 6 C3 9 3 9 1.625 10.875 C0 12 0 12 -2 12 C-1.34 8.04 -0.68 4.08 0 0 Z " fill="#EDD196" transform="translate(33,17)"/>
<path d="M0 0 C0.33 0.99 0.66 1.98 1 3 C0.01 4.485 0.01 4.485 -1 6 C-2.41750563 5.88490339 -3.83401169 5.75746342 -5.25 5.625 C-6.03890625 5.55539063 -6.8278125 5.48578125 -7.640625 5.4140625 C-10.085877 4.98492887 -11.84836903 4.21399362 -14 3 C-13.34 2.34 -12.68 1.68 -12 1 C-11.1646875 1.495 -11.1646875 1.495 -10.3125 2 C-7.61141671 3.16803602 -5.91462786 3.37367024 -3 3 C-1.18523997 1.60414215 -1.18523997 1.60414215 0 0 Z " fill="#A6843D" transform="translate(51,25)"/>
<path d="M0 0 C0.99 0 1.98 0 3 0 C3 2.64 3 5.28 3 8 C1.68 8 0.36 8 -1 8 C-1.625 5.6875 -1.625 5.6875 -2 3 C-1.34 2.01 -0.68 1.02 0 0 Z " fill="#BA5C00" transform="translate(33,49)"/>
<path d="M0 0 C3.26954202 0.56371414 4.82575883 1.49962266 7 4 C6.67 4.99 6.34 5.98 6 7 C4.68 6.01 3.36 5.02 2 4 C1.67 4.99 1.34 5.98 1 7 C0.34 6.34 -0.32 5.68 -1 5 C-1.66 5.66 -2.32 6.32 -3 7 C-3 5.68 -3 4.36 -3 3 C-2.34 3 -1.68 3 -1 3 C-0.67 2.01 -0.34 1.02 0 0 Z " fill="#852900" transform="translate(57,38)"/>
<path d="M0 0 C0.66 0 1.32 0 2 0 C2.04898437 0.81984375 2.09796875 1.6396875 2.1484375 2.484375 C2.22320312 3.56203125 2.29796875 4.6396875 2.375 5.75 C2.44460938 6.81734375 2.51421875 7.8846875 2.5859375 8.984375 C2.9728223 11.80206432 3.55686166 13.5830366 5 16 C2 15 2 15 0.8203125 13.296875 C-0.1819244 10.49061169 -0.19578721 8.22306264 -0.125 5.25 C-0.09792969 3.77273437 -0.09792969 3.77273437 -0.0703125 2.265625 C-0.04710937 1.51796875 -0.02390625 0.7703125 0 0 Z " fill="#9E854D" transform="translate(8,19)"/>
<path d="M0 0 C0 3 0 3 -1 5 C-1.81210937 4.75443359 -1.81210937 4.75443359 -2.640625 4.50390625 C-5.40222593 3.91409413 -7.92818139 3.90390692 -10.75 3.9375 C-11.73484375 3.94652344 -12.7196875 3.95554688 -13.734375 3.96484375 C-14.85585938 3.98224609 -14.85585938 3.98224609 -16 4 C-16.33 3.34 -16.66 2.68 -17 2 C-16.02417969 1.93941406 -15.04835938 1.87882812 -14.04296875 1.81640625 C-12.77066406 1.73261719 -11.49835937 1.64882813 -10.1875 1.5625 C-8.92292969 1.48128906 -7.65835938 1.40007813 -6.35546875 1.31640625 C-3.00818107 1.12815453 -3.00818107 1.12815453 0 0 Z " fill="#CAB27A" transform="translate(43,41)"/>
<path d="M0 0 C1.32 0 2.64 0 4 0 C4.66 2.31 5.32 4.62 6 7 C4.02 7 2.04 7 0 7 C0 4.69 0 2.38 0 0 Z " fill="#7B5B3A" transform="translate(24,0)"/>
<path d="M0 0 C0.99 0 1.98 0 3 0 C2.08358378 2.29104056 1.30881685 3.75057101 -0.625 5.3125 C-4.25944801 6.36457706 -7.28427995 5.61928668 -11 5 C-11 4.67 -11 4.34 -11 4 C-9.741875 3.896875 -8.48375 3.79375 -7.1875 3.6875 C-3.73256737 3.2738813 -2.25903031 2.73461564 0 0 Z " fill="#762100" transform="translate(30,32)"/>
<path d="M0 0 C0 2.31 0 4.62 0 7 C-1.65 7.33 -3.3 7.66 -5 8 C-4.67 5.69 -4.34 3.38 -4 1 C-1 0 -1 0 0 0 Z " fill="#D17700" transform="translate(47,56)"/>
<path d="M0 0 C0.66 0.33 1.32 0.66 2 1 C2 4.3 2 7.6 2 11 C1.01 10.67 0.02 10.34 -1 10 C-2.1875 6.4375 -2.1875 6.4375 -3 3 C-2.01 2.01 -1.02 1.02 0 0 Z " fill="#7A2500" transform="translate(10,53)"/>
<path d="M0 0 C4.08378283 0.74250597 8.01939223 1.82923301 12 3 C9.56644121 4.53224072 8.34278436 5.03344238 5.4375 4.75 C3 4 3 4 0 2 C0 1.34 0 0.68 0 0 Z " fill="#D27A00" transform="translate(37,30)"/>
<path d="M0 0 C2.125 2.0625 2.125 2.0625 4 5 C3.375 8.75 3.375 8.75 2 12 C1.01 12.495 1.01 12.495 0 13 C-0.19466332 11.20909747 -0.38051213 9.41723495 -0.5625 7.625 C-0.66691406 6.62726562 -0.77132812 5.62953125 -0.87890625 4.6015625 C-1 2 -1 2 0 0 Z " fill="#743008" transform="translate(59,45)"/>
<path d="M0 0 C0.7425 0.0825 1.485 0.165 2.25 0.25 C1.59 1.57 0.93 2.89 0.25 4.25 C-2.06 4.25 -4.37 4.25 -6.75 4.25 C-3.42692308 0.31153846 -3.42692308 0.31153846 0 0 Z " fill="#D37A00" transform="translate(26.75,29.75)"/>
<path d="M0 0 C2.375 2.0625 2.375 2.0625 4 4 C3.443125 3.855625 2.88625 3.71125 2.3125 3.5625 C1.549375 3.376875 0.78625 3.19125 0 3 C-0.825 2.79375 -1.65 2.5875 -2.5 2.375 C-5.04524959 1.99321256 -6.58342581 2.19447527 -9 3 C-8.67 2.01 -8.34 1.02 -8 0 C-5.02898609 -1.48550695 -3.16565278 -0.82306972 0 0 Z " fill="#000000" transform="translate(47,21)"/>
<path d="M0 0 C0.86625 0.2475 1.7325 0.495 2.625 0.75 C2.625 1.74 2.625 2.73 2.625 3.75 C1.696875 3.54375 0.76875 3.3375 -0.1875 3.125 C-3.52673402 2.38307034 -3.52673402 2.38307034 -6.375 4.75 C-7.365 4.42 -8.355 4.09 -9.375 3.75 C-4.20576923 -0.31153846 -4.20576923 -0.31153846 0 0 Z " fill="#000000" transform="translate(22.375,20.25)"/>
<path d="M0 0 C0 3.3 0 6.6 0 10 C-2.0625 8.3125 -2.0625 8.3125 -4 6 C-3.875 3.3125 -3.875 3.3125 -3 1 C-1 0 -1 0 0 0 Z " fill="#C57100" transform="translate(31,48)"/>
<path d="M0 0 C0.66 0 1.32 0 2 0 C2 2.31 2 4.62 2 7 C0.68 7 -0.64 7 -2 7 C-2.125 4.625 -2.125 4.625 -2 2 C-1.34 1.34 -0.68 0.68 0 0 Z " fill="#C16000" transform="translate(39,57)"/>
<path d="M0 0 C0.33 0 0.66 0 1 0 C1.05399736 1.45792884 1.09279177 2.91642712 1.125 4.375 C1.14820313 5.18710937 1.17140625 5.99921875 1.1953125 6.8359375 C1 9 1 9 -1 11 C-1.22174933 9.54364629 -1.42698698 8.08477044 -1.625 6.625 C-1.74101562 5.81289063 -1.85703125 5.00078125 -1.9765625 4.1640625 C-1.98429688 3.44992188 -1.99203125 2.73578125 -2 2 C-1.34 1.34 -0.68 0.68 0 0 Z " fill="#D57C00" transform="translate(14,52)"/>
<path d="M0 0 C0.33 0.66 0.66 1.32 1 2 C0.0625 4.625 0.0625 4.625 -1 7 C-1.66 7 -2.32 7 -3 7 C-3 9.31 -3 11.62 -3 14 C-3.33 14 -3.66 14 -4 14 C-4 10 -4 6 -4 2 C-2.68 1.34 -1.36 0.68 0 0 Z " fill="#501801" transform="translate(57,34)"/>
<path d="M0 0 C0.99 0 1.98 0 3 0 C3 2.31 3 4.62 3 7 C0.36 6.67 -2.28 6.34 -5 6 C-4.360625 5.7525 -3.72125 5.505 -3.0625 5.25 C-0.81258459 4.18437567 -0.81258459 4.18437567 -0.25 1.875 C-0.1675 1.25625 -0.085 0.6375 0 0 Z " fill="#785738" transform="translate(37,0)"/>
<path d="M0 0 C0.66 0.33 1.32 0.66 2 1 C1.67 2.32 1.34 3.64 1 5 C0.34 5 -0.32 5 -1 5 C-1 8.63 -1 12.26 -1 16 C-1.33 16 -1.66 16 -2 16 C-2.05402274 13.89611431 -2.09280256 11.79183286 -2.125 9.6875 C-2.14820313 8.51574219 -2.17140625 7.34398437 -2.1953125 6.13671875 C-2 3 -2 3 0 0 Z " fill="#7B5B3A" transform="translate(9,14)"/>
<path d="M0 0 C0.33 0.99 0.66 1.98 1 3 C-0.8125 4.5625 -0.8125 4.5625 -3 6 C-3.99 5.67 -4.98 5.34 -6 5 C-6.33 4.34 -6.66 3.68 -7 3 C-4.69 2.01 -2.38 1.02 0 0 Z " fill="#6C7174" transform="translate(46,36)"/>
<path d="M0 0 C0.66 0.66 1.32 1.32 2 2 C1.625 5.125 1.625 5.125 1 8 C-0.32 7.67 -1.64 7.34 -3 7 C-2.01 4.69 -1.02 2.38 0 0 Z " fill="#9E7223" transform="translate(58,56)"/>
<path d="M0 0 C0.66 0.66 1.32 1.32 2 2 C1.54545455 7.45454545 1.54545455 7.45454545 -1 10 C-2.27351308 7.45297384 -1.80191925 6.5717055 -1.0625 3.875 C-0.86785156 3.15054688 -0.67320313 2.42609375 -0.47265625 1.6796875 C-0.31667969 1.12539063 -0.16070313 0.57109375 0 0 Z " fill="#681900" transform="translate(22,49)"/>
<path d="M0 0 C1 4 1 4 0.00390625 5.703125 C-1.33072917 7.13541667 -2.66536458 8.56770833 -4 10 C-4.66 9.67 -5.32 9.34 -6 9 C-4.02 6.03 -2.04 3.06 0 0 Z " fill="#9E7E3B" transform="translate(48,35)"/>
<path d="M0 0 C3.875 1.875 3.875 1.875 5 3 C7.32817964 3.36760731 9.6618385 3.70241581 12 4 C12 4.33 12 4.66 12 5 C10.56344146 5.08131463 9.1255517 5.13933559 7.6875 5.1875 C6.48673828 5.23970703 6.48673828 5.23970703 5.26171875 5.29296875 C3 5 3 5 1.20703125 3.61328125 C0 2 0 2 0 0 Z " fill="#6E1C00" transform="translate(34,32)"/>
<path d="M0 0 C3.125 0.375 3.125 0.375 6 1 C6.33 2.32 6.66 3.64 7 5 C4.03 4.01 1.06 3.02 -2 2 C-1.34 1.34 -0.68 0.68 0 0 Z " fill="#93712B" transform="translate(46,12)"/>
<path d="M0 0 C1.20628008 2.33214148 2.1654738 4.49642139 3 7 C1.68 7 0.36 7 -1 7 C-1.625 4.625 -1.625 4.625 -2 2 C-1.34 1.34 -0.68 0.68 0 0 Z " fill="#A17526" transform="translate(7,57)"/>
<path d="M0 0 C0.66 0.33 1.32 0.66 2 1 C2.4140625 3.06640625 2.4140625 3.06640625 2.625 5.5625 C2.69976563 6.38878906 2.77453125 7.21507812 2.8515625 8.06640625 C2.92503906 9.02353516 2.92503906 9.02353516 3 10 C2.34 10 1.68 10 1 10 C0.63883954 8.5225254 0.28624952 7.04295325 -0.0625 5.5625 C-0.25972656 4.73878906 -0.45695313 3.91507813 -0.66015625 3.06640625 C-0.82837891 2.04353516 -0.82837891 2.04353516 -1 1 C-0.67 0.67 -0.34 0.34 0 0 Z " fill="#711E00" transform="translate(16,46)"/>
<path d="M0 0 C0.33 0 0.66 0 1 0 C0.88637738 1.4800841 0.75877092 2.95910074 0.625 4.4375 C0.52058594 5.67306641 0.52058594 5.67306641 0.4140625 6.93359375 C0.27742188 7.61550781 0.14078125 8.29742187 0 9 C-0.99 9.495 -0.99 9.495 -2 10 C-1.54177532 6.53058454 -1.10868317 3.32604951 0 0 Z " fill="#CE7900" transform="translate(51,51)"/>
<path d="M0 0 C0.66 1.32 1.32 2.64 2 4 C1.01 4.495 1.01 4.495 0 5 C0 5.99 0 6.98 0 8 C-0.66 8 -1.32 8 -2 8 C-2.20086443 4.28400809 -2.1519437 3.22791555 0 0 Z " fill="#BA5C00" transform="translate(49,40)"/>
</svg>
