<?xml version="1.0" encoding="UTF-8"?>
<svg version="1.1" xmlns="http://www.w3.org/2000/svg" width="64" height="64">
<path d="M0 0 C8.971875 -0.144375 17.94375 -0.28875 27.1875 -0.4375 C30.0133667 -0.50122803 32.8392334 -0.56495605 35.75073242 -0.63061523 C37.99395419 -0.65106199 40.23720193 -0.66889895 42.48046875 -0.68359375 C43.64243774 -0.71940552 44.80440674 -0.75521729 46.00158691 -0.79211426 C54.00169369 -0.79817823 54.00169369 -0.79817823 56.86651611 1.49234009 C59.71588199 5.3035854 60.60974678 8.43151347 60.375 13.25 C60.34148438 14.26578125 60.30796875 15.2815625 60.2734375 16.328125 C60 19 60 19 59 22 C59.825 22.5775 60.65 23.155 61.5 23.75 C63.6822253 25.85845994 63.99157349 26.92376489 64.33203125 30.00390625 C64.31424999 33.01605179 64.21560871 35.99585197 64 39 C62.68 39.66 61.36 40.32 60 41 C61.32 41.99 62.64 42.98 64 44 C63.67 45.32 63.34 46.64 63 48 C59.05272412 48.17942163 56.4019487 48.09350689 53 46 C51.68 47.32 50.36 48.64 49 50 C53.9422919 52.51449939 58.8817659 54.86740246 64 57 C64 59.31 64 61.62 64 64 C42.88 64 21.76 64 0 64 C0 42.88 0 21.76 0 0 Z " fill="#9E7D3B" transform="translate(0,0)"/>
<path d="M0 0 C7.74310718 -0.16073007 15.48043036 -0.30006507 23.22387695 -0.38452148 C25.85753996 -0.41972351 28.49106619 -0.46749213 31.12426758 -0.52807617 C34.91001099 -0.61299671 38.69394674 -0.6526933 42.48046875 -0.68359375 C43.65772018 -0.71972275 44.83497162 -0.75585175 46.04789734 -0.79307556 C54.00247089 -0.79689629 54.00247089 -0.79689629 56.86651611 1.49110413 C59.73233714 5.32236782 60.60888444 8.46863015 60.375 13.3125 C60.34148438 14.33988281 60.30796875 15.36726562 60.2734375 16.42578125 C60 19 60 19 59 21 C58.34 21 57.68 21 57 21 C55.5 18.5 55.5 18.5 54 16 C53.34 16 52.68 16 52 16 C51.34 16.99 50.68 17.98 50 19 C49.34 17.02 48.68 15.04 48 13 C46.68 13.33 45.36 13.66 44 14 C44 15.65 44 17.3 44 19 C44.66 17.35 45.32 15.7 46 14 C48.86299506 16.86299506 48.99421225 18.65852284 49.0625 22.6875 C49.041875 23.780625 49.02125 24.87375 49 26 C46 26 46 26 43.875 24.4375 C41.38671441 21.20272873 41 19.06463082 41 15 C42.9375 12.0625 42.9375 12.0625 45 10 C47.16874252 10.50603992 48.99967627 10.99983813 51 12 C47.40425531 7.80496453 42.74228723 5.90396346 37.4375 4.75 C30.57984647 4.27634825 25.6053668 8.28137012 20.60498047 12.52001953 C15.87676816 16.87998652 11.97277983 21.9644383 8 27 C6.63697945 28.61435767 5.26389677 30.22035005 3.875 31.8125 C3.33617187 32.43769531 2.79734375 33.06289063 2.2421875 33.70703125 C1.62730469 34.34705078 1.62730469 34.34705078 1 35 C0.67 35 0.34 35 0 35 C0 23.45 0 11.9 0 0 Z " fill="#321C3F" transform="translate(0,0)"/>
<path d="M0 0 C1.29015243 2.58030486 0.78844414 3.80426683 0.3125 6.625 C-0.26247632 11.47022725 0.55788862 14.19738525 3.08984375 18.30859375 C4 20 4 20 4 23 C4.9075 22.649375 5.815 22.29875 6.75 21.9375 C10 21 10 21 12.25 21 C14 22 14 22 15.4375 24.5 C16.21040699 29.30919906 15.36891999 32.75470774 13 37 C9.63603379 40.49621058 5.88246852 42.63381486 1 43 C-0.0725 43.0825 -1.145 43.165 -2.25 43.25 C-9.19492707 42.78700486 -14.85626657 40.81187966 -20 36 C-19.67 34.35 -19.34 32.7 -19 31 C-16.69 30.34 -14.38 29.68 -12 29 C-13.134375 28.525625 -14.26875 28.05125 -15.4375 27.5625 C-19 26 -19 26 -20 25 C-20.04063832 23.33382885 -20.042721 21.66611905 -20 20 C-19.4225 20.825 -18.845 21.65 -18.25 22.5 C-17.5075 23.325 -16.765 24.15 -16 25 C-14.68 25 -13.36 25 -12 25 C-12.54339792 20.43545749 -13.79463821 17.0271824 -16 13 C-13.125 13.5 -13.125 13.5 -10 15 C-8.81724148 17.68310961 -8.47288244 20.0681289 -8 23 C-8.34317982 17.56829182 -8.75590668 13.54173065 -12 9 C-12.68096422 7.67391178 -13.35330586 6.34313399 -14 5 C-9.23485471 -0.02272071 -6.90541987 -1.65129606 0 0 Z " fill="#C9B17C" transform="translate(40,7)"/>
<path d="M0 0 C2.28515625 1.29296875 2.28515625 1.29296875 5.0625 3.1875 C13.40029523 8.87241521 13.40029523 8.87241521 23 11 C23.99 9.02 24.98 7.04 26 5 C27.32 5 28.64 5 30 5 C30.33 4.01 30.66 3.02 31 2 C32.23542556 2.61771278 33.46892601 3.23931397 34.69921875 3.8671875 C39.07239685 6.08384752 43.47425419 8.11427258 48 10 C48 12.31 48 14.62 48 17 C26.88 17 5.76 17 -16 17 C-16 13.37 -16 9.74 -16 6 C-13.625 3.75 -13.625 3.75 -11 3 C-10.34 3.33 -9.68 3.66 -9 4 C-10.65 7.3 -12.3 10.6 -14 14 C-9.83653841 13.0889979 -9.83653841 13.0889979 -6.875 10.3125 C-6.58625 9.549375 -6.2975 8.78625 -6 8 C-2.46884273 1.23442136 -2.46884273 1.23442136 0 0 Z " fill="#0C0D10" transform="translate(16,47)"/>
<path d="M0 0 C4.71003445 4.1822995 5.76310783 9.86797047 6.4375 15.9375 C6.14534485 22.89357504 2.89309471 30.10690529 -2 35 C-4.625 36.875 -4.625 36.875 -7 38 C-7.66 37.67 -8.32 37.34 -9 37 C-6.525 32.05 -6.525 32.05 -4 27 C-4.99 27.66 -5.98 28.32 -7 29 C-7.99 29 -8.98 29 -10 29 C-11.61933566 12.64470986 -11.61933566 12.64470986 -7.7734375 7.35546875 C-5.41530155 4.6387085 -2.79469336 2.26569783 0 0 Z " fill="#A28413" transform="translate(10,24)"/>
<path d="M0 0 C2.6875 -0.4375 2.6875 -0.4375 6 0 C9.4763032 3.32515958 10.80690817 5.27753312 11.34375 10.06640625 C11.42163518 18.15672963 11.42163518 18.15672963 10 21 C9.34 21 8.68 21 8 21 C6.5 18.5 6.5 18.5 5 16 C4.34 16 3.68 16 3 16 C2.34 16.99 1.68 17.98 1 19 C0.34 17.02 -0.32 15.04 -1 13 C-2.32 13.33 -3.64 13.66 -5 14 C-5 15.65 -5 17.3 -5 19 C-4.34 17.35 -3.68 15.7 -3 14 C-0.13700494 16.86299506 -0.00578775 18.65852284 0.0625 22.6875 C0.041875 23.780625 0.02125 24.87375 0 26 C-3 26 -3 26 -5.125 24.4375 C-7.61328559 21.20272873 -8 19.06463082 -8 15 C-6.0625 12.0625 -6.0625 12.0625 -4 10 C-1.83125748 10.50603992 -0.00032373 10.99983813 2 12 C-1.59574469 7.80496453 -6.25771277 5.90396346 -11.5625 4.75 C-18.42015353 4.27634825 -23.3946332 8.28137012 -28.39501953 12.52001953 C-33.12323184 16.87998652 -37.02722017 21.9644383 -41 27 C-42.36302055 28.61435767 -43.73610323 30.22035005 -45.125 31.8125 C-45.66382813 32.43769531 -46.20265625 33.06289063 -46.7578125 33.70703125 C-47.37269531 34.34705078 -47.37269531 34.34705078 -48 35 C-48.33 35 -48.66 35 -49 35 C-49.375 31.75 -49.375 31.75 -49 28 C-46.5 26.1875 -46.5 26.1875 -44.8125 25.26953125 C-42.47178662 23.63002295 -41.17082776 21.69039278 -39.5 19.375 C-33.44909652 11.53553771 -23.87753882 3.75276159 -14.15234375 1.19921875 C-8.47331405 0.67357353 -3.62175316 2.15909096 1.375 4.75 C4.35639855 7.30548447 6.01253691 9.63660093 8 13 C6.71462629 7.97535733 4.78278236 5.4917991 1 2 C0.505 1.01 0.505 1.01 0 0 Z " fill="#260F2C" transform="translate(49,0)"/>
<path d="M0 0 C2 0.1875 2 0.1875 4 1 C4.66 1.99 5.32 2.98 6 4 C7.32 4 8.64 4 10 4 C11.8515625 6.15234375 11.8515625 6.15234375 13.625 8.9375 C15.75555527 12.57804673 15.75555527 12.57804673 19 15 C19 18.96 19 22.92 19 27 C17.02 27.99 17.02 27.99 15 29 C16.32 29.99 17.64 30.98 19 32 C18.67 33.32 18.34 34.64 18 36 C13.24932244 36.33144262 10.95390153 35.56633131 7 33 C7.23976563 32.18015625 7.47953125 31.3603125 7.7265625 30.515625 C8.17128906 28.89914063 8.17128906 28.89914063 8.625 27.25 C8.92664062 26.18265625 9.22828125 25.1153125 9.5390625 24.015625 C10.21080435 21.08220801 10.21080435 21.08220801 9.28125 18.65625 C8.01162744 16.65779165 8.01162744 16.65779165 4.875 16.25 C3.92625 16.1675 2.9775 16.085 2 16 C2.33 15.34 2.66 14.68 3 14 C3.34092041 8.67032792 3.34092041 8.67032792 1 4 C0.34 5.32 -0.32 6.64 -1 8 C-2 7 -2 7 -2.1875 4.5625 C-2 2 -2 2 0 0 Z " fill="#6D521A" transform="translate(45,12)"/>
<path d="M0 0 C3.15394726 1.45711423 6.09424691 3.09792491 9 5 C9 5.66 9 6.32 9 7 C7.02 6.67 5.04 6.34 3 6 C1.2910871 7.5787681 1.2910871 7.5787681 0 10 C0.0730269 14.08950661 0.31044159 16.22685875 3.0625 19.3125 C3.701875 19.869375 4.34125 20.42625 5 21 C5 21.66 5 22.32 5 23 C5.99 23.33 6.98 23.66 8 24 C5.69 24.66 3.38 25.32 1 26 C0.67 25.34 0.34 24.68 0 24 C0.66 24 1.32 24 2 24 C1.62746094 23.40574219 1.25492188 22.81148437 0.87109375 22.19921875 C-3.0070233 15.4045886 -3.4668381 10.63917664 -2 3 C-5.75749535 2.01589408 -7.62569316 1.85875213 -11.3125 3.25 C-14.2726375 4.78051622 -14.2726375 4.78051622 -15 8 C-15.99 8.33 -16.98 8.66 -18 9 C-17.01 9.99 -16.02 10.98 -15 12 C-16.0725 12.391875 -17.145 12.78375 -18.25 13.1875 C-21.89642887 14.74814197 -23.86771892 16.58835027 -26 20 C-26 20.99 -26 21.98 -26 23 C-26.99 23.33 -27.98 23.66 -29 24 C-30.2265625 21.3359375 -30.2265625 21.3359375 -31 18 C-25.61974764 7.20839556 -12.5195569 -4.35639866 0 0 Z " fill="#A3813C" transform="translate(42,5)"/>
<path d="M0 0 C0.33 0 0.66 0 1 0 C1 1.65 1 3.3 1 5 C0.34 5 -0.32 5 -1 5 C-1.66 6.32 -2.32 7.64 -3 9 C-2.13375 8.7834375 -2.13375 8.7834375 -1.25 8.5625 C-0.13625 8.2840625 -0.13625 8.2840625 1 8 C1.66 7.773125 2.32 7.54625 3 7.3125 C5.58916878 6.90794238 6.80260379 7.66586659 9 9 C9 9.66 9 10.32 9 11 C9.7425 11.0825 10.485 11.165 11.25 11.25 C14 12 14 12 18 16 C7.44 16 -3.12 16 -14 16 C-14 12.37 -14 8.74 -14 5 C-11.625 2.75 -11.625 2.75 -9 2 C-8.34 2.33 -7.68 2.66 -7 3 C-8.65 6.3 -10.3 9.6 -12 13 C-7.83653841 12.0889979 -7.83653841 12.0889979 -4.875 9.3125 C-4.58625 8.549375 -4.2975 7.78625 -4 7 C-3.3070862 5.74138704 -2.59752982 4.49184813 -1.875 3.25 C-1.25625 2.1775 -0.6375 1.105 0 0 Z " fill="#2F1C1D" transform="translate(14,48)"/>
<path d="M0 0 C5 0 5 0 6.890625 0.9921875 C9.88561393 2.42312665 12.45485048 2.19090299 15.75 2.125 C16.92046875 2.10695312 18.0909375 2.08890625 19.296875 2.0703125 C20.18890625 2.04710937 21.0809375 2.02390625 22 2 C21.30003906 2.55945313 20.60007812 3.11890625 19.87890625 3.6953125 C18.92886719 4.45585938 17.97882812 5.21640625 17 6 C15.52853516 7.17175781 15.52853516 7.17175781 14.02734375 8.3671875 C12.49787109 9.60855469 12.49787109 9.60855469 10.9375 10.875 C9.40416016 12.10863281 9.40416016 12.10863281 7.83984375 13.3671875 C4.88695317 16.10480546 3.13069543 18.62434858 1 22 C0.67 22 0.34 22 0 22 C0 14.74 0 7.48 0 0 Z " fill="#321C3F" transform="translate(0,0)"/>
<path d="M0 0 C3.82246363 0.54606623 5.58848176 2.02579418 8 5 C10.51876301 10.15746712 9.90039349 14.52463417 9 20 C8.67 20 8.34 20 8 20 C7.67 16.37 7.34 12.74 7 9 C4.525 8.505 4.525 8.505 2 8 C2.30035156 8.53109375 2.60070313 9.0621875 2.91015625 9.609375 C3.29042969 10.31578125 3.67070312 11.0221875 4.0625 11.75 C4.44535156 12.44609375 4.82820313 13.1421875 5.22265625 13.859375 C6.1312406 16.36140628 5.88336837 17.5332355 5 20 C3.68 20 2.36 20 1 20 C-0.75 18 -0.75 18 -2 16 C-2.66 16.99 -3.32 17.98 -4 19 C-6.31 18.34 -8.62 17.68 -11 17 C-9.68 15.68 -8.36 14.36 -7 13 C-7.66 12.34 -8.32 11.68 -9 11 C-8.01 11 -7.02 11 -6 11 C-5.7525 10.401875 -5.505 9.80375 -5.25 9.1875 C-3.22423998 5.64241996 -0.82005844 4.27335281 3 3 C2.01 2.01 1.02 1.02 0 0 Z " fill="#897852" transform="translate(23,13)"/>
<path d="M0 0 C5.27749285 0.53851968 9.25645564 1.77343836 14 4 C14 6.31 14 8.62 14 11 C7.73 11 1.46 11 -5 11 C-3.35 7.37 -1.7 3.74 0 0 Z " fill="#7B598D" transform="translate(50,53)"/>
<path d="M0 0 C1.65 0 3.3 0 5 0 C5.75 1.625 5.75 1.625 6 4 C3.94967213 7.72096539 1.90679641 11.15512392 -2 13 C-7.48061068 12.82320611 -11.19278536 11.76414842 -16 9 C-16 8.01 -16 7.02 -16 6 C-11.65670208 4.3295008 -7.6478523 3.63513776 -3.05078125 3.24609375 C-0.80329125 3.04606605 -0.80329125 3.04606605 2 2 C1.34 1.34 0.68 0.68 0 0 Z " fill="#792417" transform="translate(45,34)"/>
<path d="M0 0 C2.21211746 7.05112439 2.20177072 13.64657821 2 21 C-0.046875 21.51171875 -2.09375 22.0234375 -4.140625 22.53515625 C-4.75421875 22.68855469 -5.3678125 22.84195313 -6 23 C-6.13539281 20.10259378 -6.23426829 17.21154379 -6.3125 14.3125 C-6.35439453 13.49587891 -6.39628906 12.67925781 -6.43945312 11.83789062 C-6.53111056 7.31001327 -6.46840292 5.58755151 -3.54296875 1.91796875 C-1 0 -1 0 0 0 Z " fill="#836300" transform="translate(6,30)"/>
<path d="M0 0 C0.33 0 0.66 0 1 0 C1.13277344 0.61488281 1.26554687 1.22976562 1.40234375 1.86328125 C1.57894531 2.67152344 1.75554688 3.47976562 1.9375 4.3125 C2.19853516 5.51326172 2.19853516 5.51326172 2.46484375 6.73828125 C2.99886159 9.145401 2.99886159 9.145401 4 12 C12.26610171 15.5177981 21.1883686 15.35194386 30 15 C29.360625 15.103125 28.72125 15.20625 28.0625 15.3125 C27.381875 15.539375 26.70125 15.76625 26 16 C25.67 16.99 25.34 17.98 25 19 C24.67 19.99 24.34 20.98 24 22 C21.74026054 22.969322 20.50067798 23.15435818 18.140625 22.42675781 C17.51671875 22.10545898 16.8928125 21.78416016 16.25 21.453125 C15.21359375 20.9271875 15.21359375 20.9271875 14.15625 20.390625 C13.4446875 20.01421875 12.733125 19.6378125 12 19.25 C11.2884375 18.8890625 10.576875 18.528125 9.84375 18.15625 C0.69619395 13.44594129 0.69619395 13.44594129 -0.8125 10.3125 C-1.09865337 6.78327516 -0.52488041 3.49920275 0 0 Z " fill="#785516" transform="translate(16,36)"/>
<path d="M0 0 C2.13093906 1.06546953 3.36587557 2.29159719 5 4 C4.01 4.495 4.01 4.495 3 5 C1.90847246 7.07751893 1.90847246 7.07751893 0.9375 9.5 C-0.91280654 13.91280654 -0.91280654 13.91280654 -2 15 C-6.54790458 15.54574855 -9.24581562 15.1714908 -12.9375 12.5625 C-13.948125 11.716875 -14.95875 10.87125 -16 10 C-16 9.67 -16 9.34 -16 9 C-13.36 9 -10.72 9 -8 9 C-7.01 7.02 -6.02 5.04 -5 3 C-3.68 3 -2.36 3 -1 3 C-0.67 2.01 -0.34 1.02 0 0 Z " fill="#13151B" transform="translate(47,49)"/>
<path d="M0 0 C1 2 2 4 3 6 C4.64363134 6.72159424 6.31050386 7.39351421 8 8 C8 8.66 8 9.32 8 10 C6.02 10.99 6.02 10.99 4 12 C5.32 12.99 6.64 13.98 8 15 C7.67 16.32 7.34 17.64 7 19 C1.83269491 19.36050966 0.79670403 18.87802242 -4 16 C-2.68 10.72 -1.36 5.44 0 0 Z " fill="#987811" transform="translate(56,29)"/>
<path d="M0 0 C0.66 0.33 1.32 0.66 2 1 C1.67 1.33 1.34 1.66 1 2 C1.66 2.66 2.32 3.32 3 4 C2.01 4.33 1.02 4.66 0 5 C0.99 5.99 1.98 6.98 3 8 C1.9275 8.391875 0.855 8.78375 -0.25 9.1875 C-3.89642887 10.74814197 -5.86771892 12.58835027 -8 16 C-8 16.99 -8 17.98 -8 19 C-8.99 19.33 -9.98 19.66 -11 20 C-12.2578125 17.35546875 -12.2578125 17.35546875 -13 14 C-11.3671875 11.11328125 -11.3671875 11.11328125 -8.875 8.3125 C-8.06804688 7.38050781 -7.26109375 6.44851562 -6.4296875 5.48828125 C-4.38116797 3.39036013 -2.40692296 1.65822573 0 0 Z " fill="#805D1B" transform="translate(24,9)"/>
<path d="M0 0 C8.25 0 16.5 0 25 0 C21.91677601 2.31241799 18.89104615 4.3531619 15.625 6.375 C12.39064899 8.40888428 9.32552673 10.4345435 6.4375 12.9375 C4 15 4 15 2 15 C3.31104449 11.06686654 5.82495822 9.63242994 9.0625 7.3125 C9.63033203 6.89677734 10.19816406 6.48105469 10.78320312 6.05273438 C12.18403173 5.02859918 13.59140348 4.01342465 15 3 C14.25234375 3.02320313 13.5046875 3.04640625 12.734375 3.0703125 C11.74953125 3.08835938 10.7646875 3.10640625 9.75 3.125 C8.77546875 3.14820313 7.8009375 3.17140625 6.796875 3.1953125 C3.9803502 2.99862781 2.39050964 2.44568916 0 1 C0 0.67 0 0.34 0 0 Z " fill="#7E5D92" transform="translate(5,0)"/>
<path d="M0 0 C3.87132028 0.57352893 6.08172796 2.48704352 9 5 C8.01 5.495 8.01 5.495 7 6 C6.01 7.485 6.01 7.485 5 9 C4.34 7.02 3.68 5.04 3 3 C1.68 3.33 0.36 3.66 -1 4 C-1 5.65 -1 7.3 -1 9 C-0.34 7.35 0.32 5.7 1 4 C3.86299506 6.86299506 3.99421225 8.65852284 4.0625 12.6875 C4.041875 13.780625 4.02125 14.87375 4 16 C1 16 1 16 -1.125 14.4375 C-3.61328559 11.20272873 -4 9.06463082 -4 5 C-2.0625 2.0625 -2.0625 2.0625 0 0 Z " fill="#010001" transform="translate(45,10)"/>
<path d="M0 0 C0.81960205 -0.02255859 1.6392041 -0.04511719 2.48364258 -0.06835938 C6.65686009 -0.01748199 9.46312482 0.3074691 12.7734375 2.96875 C15.4254976 5.74321287 16.98342497 8.02867932 18.3125 11.625 C17.9825 12.615 17.6525 13.605 17.3125 14.625 C16.96058594 14.08230469 16.60867187 13.53960937 16.24609375 12.98046875 C12.04339183 6.89039155 8.98002987 4.94148278 1.875 2.9375 C-5.01727332 2.09697886 -9.04512133 2.31068433 -15.0234375 5.84765625 C-15.57257812 6.10417969 -16.12171875 6.36070312 -16.6875 6.625 C-17.3475 6.295 -18.0075 5.965 -18.6875 5.625 C-12.95582333 0.80557217 -7.2292431 0.08299141 0 0 Z " fill="#5A3D6C" transform="translate(39.6875,-0.625)"/>
<path d="M0 0 C0.68774405 1.32258472 1.34711373 2.65986503 2 4 C2.53625 5.0725 3.0725 6.145 3.625 7.25 C6.38847107 14.78673927 5.02578873 19.82632733 2.0703125 26.99609375 C1 29 1 29 -1 30 C-0.34 27.03 0.32 24.06 1 21 C0.67 21 0.34 21 0 21 C-0.19456705 19.04235617 -0.38044247 17.08384679 -0.5625 15.125 C-0.66691406 14.03445312 -0.77132813 12.94390625 -0.87890625 11.8203125 C-1 9 -1 9 0 7 C0.04022391 4.6670134 0.04320247 2.33293334 0 0 Z " fill="#F5D867" transform="translate(11,25)"/>
<path d="M0 0 C2.29010953 1.14024361 3.98245911 2.38596729 6 4 C6 4.33 6 4.66 6 5 C-0.6 5 -7.2 5 -14 5 C-9.13103832 -1.0862021 -7.34039262 -1.80791151 0 0 Z " fill="#503461" transform="translate(26,59)"/>
<path d="M0 0 C7.75 5.5 7.75 5.5 10 10 C5.38 10 0.76 10 -4 10 C-2.68 6.7 -1.36 3.4 0 0 Z " fill="#503461" transform="translate(49,54)"/>
<path d="M0 0 C1.11375 0.3403125 1.11375 0.3403125 2.25 0.6875 C2.25 1.0175 2.25 1.3475 2.25 1.6875 C1.280625 1.97625 0.31125 2.265 -0.6875 2.5625 C-3.85664203 3.32964682 -3.85664203 3.32964682 -4.75 5.6875 C-4.97467831 7.22418865 -5.15796805 8.76718054 -5.3125 10.3125 C-5.39628906 11.12976562 -5.48007812 11.94703125 -5.56640625 12.7890625 C-5.62699219 13.41554688 -5.68757813 14.04203125 -5.75 14.6875 C-8.39 14.0275 -11.03 13.3675 -13.75 12.6875 C-12.43 11.3675 -11.11 10.0475 -9.75 8.6875 C-10.41 8.0275 -11.07 7.3675 -11.75 6.6875 C-10.76 6.6875 -9.77 6.6875 -8.75 6.6875 C-8.5025 6.089375 -8.255 5.49125 -8 4.875 C-5.95303605 1.29281309 -4.24120777 -0.48195543 0 0 Z " fill="#0D0E0F" transform="translate(25.75,17.3125)"/>
<path d="M0 0 C0 0.33 0 0.66 0 1 C-1.0725 1.2475 -2.145 1.495 -3.25 1.75 C-7.01081049 2.6647317 -7.01081049 2.6647317 -8.9375 5.125 C-11.36509673 7.33190612 -12.07808311 7.26111004 -15.25 7.25 C-16.4875 7.1675 -17.725 7.085 -19 7 C-18.34 6.01 -17.68 5.02 -17 4 C-16.34 4 -15.68 4 -15 4 C-15 3.34 -15 2.68 -15 2 C-13.4473205 1.27039138 -11.88226957 0.56707359 -10.3125 -0.125 C-9.44238281 -0.51945312 -8.57226562 -0.91390625 -7.67578125 -1.3203125 C-4.39543015 -2.15356957 -2.95561872 -1.52307559 0 0 Z " fill="#2F1A3C" transform="translate(23,57)"/>
<path d="M0 0 C4.55696203 -0.25316456 4.55696203 -0.25316456 6.75 1 C9.82639174 2.36728522 12.40090482 2.1919819 15.75 2.125 C16.92046875 2.10695312 18.0909375 2.08890625 19.296875 2.0703125 C20.18890625 2.04710937 21.0809375 2.02390625 22 2 C19.60590953 4.39409047 17.92932775 4.78821084 14.6875 5.6875 C13.74261719 5.95949219 12.79773437 6.23148437 11.82421875 6.51171875 C8.81223781 7.03246234 6.90779705 6.89317998 4 6 C1.6875 4.0625 1.6875 4.0625 0 2 C0 1.34 0 0.68 0 0 Z " fill="#503461" transform="translate(0,0)"/>
<path d="M0 0 C2.9375 0.8125 2.9375 0.8125 6 2 C7.30765478 5.92296433 7.1971417 8.86002433 7 13 C6.34 13.66 5.68 14.32 5 15 C-1.46153846 14.53846154 -1.46153846 14.53846154 -4 12 C-4.125 9.375 -4.125 9.375 -4 7 C-3.4225 7.825 -2.845 8.65 -2.25 9.5 C-1.5075 10.325 -0.765 11.15 0 12 C1.32 12 2.64 12 4 12 C3.45660208 7.43545749 2.20536179 4.0271824 0 0 Z " fill="#DCE1E2" transform="translate(24,20)"/>
<path d="M0 0 C2.72647685 2.35468455 3.98756342 4.5408417 5 8 C4.625 10.3125 4.625 10.3125 4 12 C2.68 12 1.36 12 0 12 C-3 8.78571429 -3 8.78571429 -3 6 C-2.34 6 -1.68 6 -1 6 C-0.67 4.02 -0.34 2.04 0 0 Z " fill="#151617" transform="translate(24,21)"/>
<path d="M0 0 C2 0 2 0 4 1 C6.28258584 5.67930096 6.17523261 9.91825435 6 15 C4.68 15.33 3.36 15.66 2 16 C2.33 15.34 2.66 14.68 3 14 C3.34092041 8.67032792 3.34092041 8.67032792 1 4 C0.34 5.32 -0.32 6.64 -1 8 C-2 7 -2 7 -2.1875 4.5625 C-2 2 -2 2 0 0 Z " fill="#D7DBDD" transform="translate(45,12)"/>
<path d="M0 0 C-1.40577121 3.01527738 -3.06126148 5.5947941 -5.0625 8.25 C-5.58972656 8.95640625 -6.11695313 9.6628125 -6.66015625 10.390625 C-7.10230469 10.92171875 -7.54445313 11.4528125 -8 12 C-8.33 12 -8.66 12 -9 12 C-9 8.7 -9 5.4 -9 2 C-3.375 0 -3.375 0 0 0 Z " fill="#200D27" transform="translate(9,10)"/>
<path d="M0 0 C2.13093906 1.06546953 3.36587557 2.29159719 5 4 C2.96692639 5.08914658 1.29241364 5.95431037 -1 6.3125 C-3.99649988 7.34254683 -5.19635174 9.48777563 -7 12 C-8.32 11.34 -9.64 10.68 -11 10 C-10.01 9.67 -9.02 9.34 -8 9 C-6.29144978 5.99992729 -6.29144978 5.99992729 -5 3 C-3.68 3 -2.36 3 -1 3 C-0.67 2.01 -0.34 1.02 0 0 Z " fill="#0F0D0B" transform="translate(47,49)"/>
<path d="M0 0 C-1.36983503 3.16115776 -1.9890638 3.9927092 -5 6 C-7.73990408 5.96856707 -10.28417854 5.44521663 -13 5 C-13 4.34 -13 3.68 -13 3 C-11.58603098 2.49242138 -10.16868271 1.99425075 -8.75 1.5 C-7.96109375 1.2215625 -7.1721875 0.943125 -6.359375 0.65625 C-4 0 -4 0 0 0 Z " fill="#8F422D" transform="translate(48,41)"/>
<path d="M0 0 C2.86382064 2.86382064 2.86475816 5.01036579 3 9 C1.25 11.9375 1.25 11.9375 -1 14 C-1.99 14 -2.98 14 -4 14 C-3.24964259 10.88200997 -2.36636589 7.81929597 -1.4375 4.75 C-1.16808594 3.85796875 -0.89867187 2.9659375 -0.62109375 2.046875 C-0.41613281 1.37140625 -0.21117187 0.6959375 0 0 Z " fill="#C3A738" transform="translate(4,39)"/>
<path d="M0 0 C2 1 2 1 2.74609375 2.9609375 C3.2054553 4.56481003 3.6637959 6.16897534 4.12109375 7.7734375 C5.06498979 10.1646408 6.16586778 11.25272084 8 13 C8 13.66 8 14.32 8 15 C8.99 15.33 9.98 15.66 11 16 C8.69 16.66 6.38 17.32 4 18 C3.67 17.34 3.34 16.68 3 16 C3.66 16 4.32 16 5 16 C4.6390625 15.34773438 4.278125 14.69546875 3.90625 14.0234375 C-0.7029877 5.3427065 -0.7029877 5.3427065 0 0 Z " fill="#987F4A" transform="translate(39,13)"/>
<path d="M0 0 C0.99 0.33 1.98 0.66 3 1 C3.4989294 8.53937758 3.06618566 13.54194042 -1 20 C-1.66 20.33 -2.32 20.66 -3 21 C-2.690625 20.13375 -2.38125 19.2675 -2.0625 18.375 C-0.32696438 12.42986735 -0.32405969 6.14860618 0 0 Z " fill="#C5A939" transform="translate(10,37)"/>
<path d="M0 0 C1 2 2 4 3 6 C4.64363134 6.72159424 6.31050386 7.39351421 8 8 C8 8.66 8 9.32 8 10 C5.1875 11.125 5.1875 11.125 2 12 C1.01 11.34 0.02 10.68 -1 10 C-0.67 6.7 -0.34 3.4 0 0 Z " fill="#7A5803" transform="translate(56,29)"/>
<path d="M0 0 C2.16874252 0.50603992 3.99967627 0.99983813 6 2 C6 4.31 6 6.62 6 9 C3.525 8.01 3.525 8.01 1 7 C0.67 4.69 0.34 2.38 0 0 Z " fill="#CEB144" transform="translate(58,25)"/>
<path d="M0 0 C0.66 0.33 1.32 0.66 2 1 C-1.57729872 5.66132863 -5.10867301 8.73911534 -10 12 C-10.66 11.67 -11.32 11.34 -12 11 C-11.09674384 9.67823515 -10.17682097 8.36784934 -9.25 7.0625 C-8.73953125 6.33160156 -8.2290625 5.60070312 -7.703125 4.84765625 C-5.76685242 2.74706696 -4.7339014 2.52788747 -2 2 C-1.34 1.34 -0.68 0.68 0 0 Z " fill="#503461" transform="translate(12,11)"/>
<path d="M0 0 C0.66 0 1.32 0 2 0 C2.33 0.99 2.66 1.98 3 3 C2.34 3 1.68 3 1 3 C1.87472593 7.95514502 1.87472593 7.95514502 5.125 11.4375 C5.74375 11.623125 6.3625 11.80875 7 12 C7 12.99 7 13.98 7 15 C4.125 14.375 4.125 14.375 1 13 C-1.42047675 8.47476086 -0.98627807 4.93139035 0 0 Z " fill="#A28416" transform="translate(57,22)"/>
<path d="M0 0 C0 0.33 0 0.66 0 1 C-1.65 1 -3.3 1 -5 1 C-5.33 2.65 -5.66 4.3 -6 6 C-8.375 5.6875 -8.375 5.6875 -11 5 C-11.66 4.01 -12.32 3.02 -13 2 C-8.3683343 -1.61848883 -5.49434694 -1.02436977 0 0 Z " fill="#652109" transform="translate(41,39)"/>
<path d="M0 0 C0.66 0.33 1.32 0.66 2 1 C2.125 3.375 2.125 3.375 2 6 C1.34 6.66 0.68 7.32 0 8 C-1.03842565 10.31648799 -2.0421975 12.64903024 -3 15 C-3.33 15 -3.66 15 -4 15 C-4.59720137 9.17728663 -2.528243 5.0790596 0 0 Z " fill="#A38514" transform="translate(4,35)"/>
<path d="M0 0 C0.99 0 1.98 0 3 0 C2.73831243 5.32098062 2.73831243 5.32098062 2 8 C-0.4375 10.0625 -0.4375 10.0625 -3 11 C-3.66 10.67 -4.32 10.34 -5 10 C-3.35 6.7 -1.7 3.4 0 0 Z " fill="#8B6A0A" transform="translate(6,51)"/>
<path d="M0 0 C3.73487777 0.4979837 5.81237635 0.87491756 9 3 C9 3.66 9 4.32 9 5 C8.0925 4.7525 7.185 4.505 6.25 4.25 C2.91162152 3.61740673 2.91162152 3.61740673 0.625 5.9375 C0.08875 6.618125 -0.4475 7.29875 -1 8 C-1.33 7.34 -1.66 6.68 -2 6 C-1.01 4.68 -0.02 3.36 1 2 C0.67 1.34 0.34 0.68 0 0 Z " fill="#856323" transform="translate(42,7)"/>
<path d="M0 0 C1.65 0 3.3 0 5 0 C5.625 1.875 5.625 1.875 6 4 C5.34 4.66 4.68 5.32 4 6 C1.27130593 5.96712417 -1.2966618 5.43602229 -4 5 C-1 3 -1 3 2 2 C1.34 1.34 0.68 0.68 0 0 Z " fill="#5F301D" transform="translate(45,34)"/>
<path d="M0 0 C2.86299506 2.86299506 2.99421225 4.65852284 3.0625 8.6875 C3.041875 9.780625 3.02125 10.87375 3 12 C2.01 12 1.02 12 0 12 C-0.93423645 8.98968256 -1.04449911 8.13349732 0 5 C0.03874921 3.33378384 0.0450286 1.66605828 0 0 Z " fill="#121314" transform="translate(46,14)"/>
<path d="M0 0 C0.99 0.99 1.98 1.98 3 3 C2.1875 5.9375 2.1875 5.9375 1 9 C0.01 9.33 -0.98 9.66 -2 10 C-2.33 8.68 -2.66 7.36 -3 6 C-2.34 6 -1.68 6 -1 6 C-0.67 4.02 -0.34 2.04 0 0 Z " fill="#020202" transform="translate(24,21)"/>
<path d="M0 0 C2.50298434 2.93828597 3.46930939 5.17902761 4 9 C3.01 9.495 3.01 9.495 2 10 C1.34 9.67 0.68 9.34 0 9 C0 6.03 0 3.06 0 0 Z " fill="#EED297" transform="translate(38,21)"/>
<path d="M0 0 C0.33 0.99 0.66 1.98 1 3 C-0.4375 5.1875 -0.4375 5.1875 -2 7 C-4.97 6.505 -4.97 6.505 -8 6 C-3.25 2 -3.25 2 -1 2 C-0.67 1.34 -0.34 0.68 0 0 Z " fill="#2B2839" transform="translate(47,57)"/>
<path d="M0 0 C1.65 0 3.3 0 5 0 C5 0.66 5 1.32 5 2 C6.65 2 8.3 2 10 2 C10.33 3.32 10.66 4.64 11 6 C6.48986609 5.46939601 3.61621781 3.69113883 0 1 C0 0.67 0 0.34 0 0 Z " fill="#191E23" transform="translate(31,58)"/>
<path d="M0 0 C0.33 0 0.66 0 1 0 C1.33730842 1.43657245 1.66969591 2.87430093 2 4.3125 C2.185625 5.11300781 2.37125 5.91351563 2.5625 6.73828125 C3 9 3 9 3 12 C1.68 12 0.36 12 -1 12 C-0.67 8.04 -0.34 4.08 0 0 Z " fill="#74500A" transform="translate(16,36)"/>
<path d="M0 0 C2.02350324 3.03525486 2.32124018 4.19426202 2.625 7.6875 C2.69976562 8.49574219 2.77453125 9.30398437 2.8515625 10.13671875 C2.92503906 11.05904297 2.92503906 11.05904297 3 12 C2.566875 11.38125 2.13375 10.7625 1.6875 10.125 C0.00259517 7.7802755 0.00259517 7.7802755 -3 6 C-2.34 6 -1.68 6 -1 6 C-0.67 4.02 -0.34 2.04 0 0 Z " fill="#A58440" transform="translate(53,21)"/>
<path d="M0 0 C1.33897583 0.95043374 2.67105427 1.91059147 4 2.875 C5.11375 3.67550781 5.11375 3.67550781 6.25 4.4921875 C6.8275 4.98976563 7.405 5.48734375 8 6 C8 6.66 8 7.32 8 8 C4.89347355 7.6641593 3.39585697 7.40950721 1.1875 5.125 C0 3 0 3 0 0 Z " fill="#B5972E" transform="translate(56,38)"/>
<path d="M0 0 C0.9075 0.61875 1.815 1.2375 2.75 1.875 C5.14948817 3.44389611 7.40961612 4.80443821 10 6 C5.32538149 6.32613618 2.83325617 5.70582788 -1 3 C-0.67 2.01 -0.34 1.02 0 0 Z " fill="#775501" transform="translate(53,42)"/>
<path d="M0 0 C3.34192692 0.24453124 4.60543557 0.60543557 7 3 C3.7 3 0.4 3 -3 3 C-2.01 2.01 -1.02 1.02 0 0 Z " fill="#7F5E94" transform="translate(25,61)"/>
<path d="M0 0 C0.66 1.32 1.32 2.64 2 4 C0.68 5.65 -0.64 7.3 -2 9 C-2.99 8.67 -3.98 8.34 -5 8 C-4.360625 7.236875 -3.72125 6.47375 -3.0625 5.6875 C-0.85767219 3.11753287 -0.85767219 3.11753287 0 0 Z " fill="#ECCC52" transform="translate(5,44)"/>
<path d="M0 0 C0.66 0.33 1.32 0.66 2 1 C-1.96 4.465 -1.96 4.465 -6 8 C-6.66 7.67 -7.32 7.34 -8 7 C-5.42215154 4.35247996 -3.08351902 2.05567935 0 0 Z " fill="#98762F" transform="translate(32,4)"/>
<path d="M0 0 C2.8125 -0.25 2.8125 -0.25 6 0 C8.04040776 2.04040776 9 3.08325244 9 6 C8.34 6 7.68 6 7 6 C6.34 5.01 5.68 4.02 5 3 C2.44816596 1.79549696 2.44816596 1.79549696 0 1 C0 0.67 0 0.34 0 0 Z " fill="#391C43" transform="translate(49,0)"/>
<path d="M0 0 C0.33 0 0.66 0 1 0 C1.33 3.63 1.66 7.26 2 11 C1.01 11.66 0.02 12.32 -1 13 C-0.67 8.71 -0.34 4.42 0 0 Z " fill="#C1A536" transform="translate(10,24)"/>
<path d="M0 0 C0.66 0.33 1.32 0.66 2 1 C2 5 2 5 0.5625 6.75 C-1 8 -1 8 -2 8 C-2.125 5.125 -2.125 5.125 -2 2 C-1.34 1.34 -0.68 0.68 0 0 Z " fill="#A38139" transform="translate(15,21)"/>
<path d="M0 0 C1.485 0.99 1.485 0.99 3 2 C3.3125 5 3.3125 5 3 8 C2.34 8.66 1.68 9.32 1 10 C0.67 6.7 0.34 3.4 0 0 Z " fill="#EED297" transform="translate(51,30)"/>
<path d="M0 0 C1.65 0.33 3.3 0.66 5 1 C2.01353231 2.99097846 -0.59687262 3.94124926 -4 5 C-2.68 3.35 -1.36 1.7 0 0 Z " fill="#1F0F27" transform="translate(13,54)"/>
<path d="M0 0 C0.66 0.33 1.32 0.66 2 1 C1.67 2.98 1.34 4.96 1 7 C0.34 7 -0.32 7 -1 7 C-1.625 4.625 -1.625 4.625 -2 2 C-1.34 1.34 -0.68 0.68 0 0 Z " fill="#FFFFFF" transform="translate(22,20)"/>
<path d="M0 0 C0 0.33 0 0.66 0 1 C-3.3 1.33 -6.6 1.66 -10 2 C-10 1.34 -10 0.68 -10 0 C-6.7169902 -1.6415049 -3.57454967 -0.51888624 0 0 Z " fill="#5F584F" transform="translate(41,39)"/>
<path d="M0 0 C0.66 0 1.32 0 2 0 C3.31223496 3.93670488 2.24296256 6.12488144 1 10 C0.67 10 0.34 10 0 10 C0 6.7 0 3.4 0 0 Z " fill="#85630D" transform="translate(55,19)"/>
</svg>
