<?xml version="1.0" encoding="UTF-8"?>
<svg version="1.1" xmlns="http://www.w3.org/2000/svg" width="64" height="64">
<path d="M0 0 C7.58020947 -0.17766925 15.15988116 -0.3001505 22.74169922 -0.38452148 C25.32002833 -0.41969673 27.89821809 -0.46744573 30.47607422 -0.52807617 C34.18492004 -0.61311522 37.89191879 -0.65272008 41.6015625 -0.68359375 C42.75177887 -0.71972275 43.90199524 -0.75585175 45.08706665 -0.79307556 C52.89945174 -0.79689777 52.89945174 -0.79689777 56.06781006 1.49728394 C59.249164 5.07529119 60.89574702 8.1001101 61 13 C60.65721922 15.97076673 60.33686885 18.3262623 59 21 C59.14566406 21.5671875 59.29132812 22.134375 59.44140625 22.71875 C60.41981518 26.71448995 59.95707988 30.81705393 59.83984375 34.90625 C60.00123569 38.02386983 60.61442806 39.30433474 62 42 C62.1953125 44.796875 62.1953125 44.796875 62.125 47.75 C62.10695313 48.73484375 62.08890625 49.7196875 62.0703125 50.734375 C62.04710938 51.48203125 62.02390625 52.2296875 62 53 C61.4225 52.21625 60.845 51.4325 60.25 50.625 C58.17102363 48.19952756 56.90959667 47.14305583 54 46 C52.02 47.98 50.04 49.96 48 52 C50.18542588 57.2207396 52.64836158 59.61539234 57 63 C57 63.33 57 63.66 57 64 C54.22858283 64.08089542 51.45952181 64.14044062 48.6875 64.1875 C47.90181641 64.21263672 47.11613281 64.23777344 46.30664062 64.26367188 C45.54931641 64.27333984 44.79199219 64.28300781 44.01171875 64.29296875 C43.31522217 64.3086792 42.61872559 64.32438965 41.90112305 64.34057617 C39.45510217 63.90238443 38.57297914 62.86562642 37 61 C37 61.99 37 62.98 37 64 C28.42 64 19.84 64 11 64 C10.67 63.34 10.34 62.68 10 62 C9.67 62.66 9.34 63.32 9 64 C5.7 64 2.4 64 -1 64 C-2.94572208 55.97389643 -1.57866544 49.64246961 1 42 C2.23698818 38.28903546 1.57728071 37.6481784 0 34.1875 C-2.88117787 26.63441219 -2.75010205 18.83652232 0.0078125 11.21484375 C0.7081151 9.70894831 1.4524523 8.22195672 2.2578125 6.76953125 C3.30498591 4.81737408 3.30498591 4.81737408 2 2 C1.34 1.34 0.68 0.68 0 0 Z " fill="#787354" transform="translate(2,0)"/>
<path d="M0 0 C0.33 0 0.66 0 1 0 C1.13277344 0.89203125 1.26554688 1.7840625 1.40234375 2.703125 C1.57894531 3.87359375 1.75554688 5.0440625 1.9375 6.25 C2.11152344 7.41015625 2.28554687 8.5703125 2.46484375 9.765625 C2.8727736 12.23106961 3.33901303 14.59424562 4 17 C4.99 17 5.98 17 7 17 C8.03515625 18.609375 8.03515625 18.609375 9.0625 20.75 C11.70055904 25.19138896 14.41324005 26.77038096 19.265625 28.37109375 C28.59728652 30.5173759 36.79577631 28.99439603 45 24 C48.60008592 20.48347507 50.81937049 16.49129655 53 12 C55.95671348 18.52940894 56.35368021 23.87399867 56 31 C55.13375 29.824375 55.13375 29.824375 54.25 28.625 C52.17102363 26.19952756 50.90959667 25.14305583 48 24 C46.02 25.98 44.04 27.96 42 30 C44.18542588 35.2207396 46.64836158 37.61539234 51 41 C51 41.33 51 41.66 51 42 C48.22858283 42.08089542 45.45952181 42.14044062 42.6875 42.1875 C41.50897461 42.22520508 41.50897461 42.22520508 40.30664062 42.26367188 C39.54931641 42.27333984 38.79199219 42.28300781 38.01171875 42.29296875 C37.31522217 42.3086792 36.61872559 42.32438965 35.90112305 42.34057617 C33.45510217 41.90238443 32.57297914 40.86562642 31 39 C31 39.99 31 40.98 31 42 C22.42 42 13.84 42 5 42 C4.67 41.34 4.34 40.68 4 40 C3.67 40.66 3.34 41.32 3 42 C-0.3 42 -3.6 42 -7 42 C-8.94572208 33.97389643 -7.57866544 27.64246961 -5 20 C-3.71502463 16.14507389 -4.5947791 14.59653164 -5.9375 10.8125 C-6.31777344 9.72582031 -6.69804688 8.63914062 -7.08984375 7.51953125 C-7.39019531 6.68808594 -7.69054687 5.85664063 -8 5 C-6.68 4.67 -5.36 4.34 -4 4 C-3.81824219 4.92232422 -3.81824219 4.92232422 -3.6328125 5.86328125 C-3.46523437 6.67152344 -3.29765625 7.47976562 -3.125 8.3125 C-2.88136719 9.51326172 -2.88136719 9.51326172 -2.6328125 10.73828125 C-2.05521001 13.25301118 -2.05521001 13.25301118 0 16 C0 10.72 0 5.44 0 0 Z " fill="#565033" transform="translate(8,22)"/>
<path d="M0 0 C1.875 0.3125 1.875 0.3125 4 1 C4.66 1.99 5.32 2.98 6 4 C6.99 2.68 7.98 1.36 9 0 C9.99 0.33 10.98 0.66 12 1 C12.88631206 3.71802366 13.29978088 5.20204511 13 8 C11.42037464 10.6384951 9.59806794 12.99192216 7.73046875 15.43359375 C5.29934712 19.03911725 4.21291974 22.66176026 4 27 C4.33 27.99 4.66 28.98 5 30 C5.07476563 29.21496094 5.14953125 28.42992188 5.2265625 27.62109375 C6.10332588 20.61558243 7.27361619 15.50242391 13 11 C13.99 10.67 14.98 10.34 16 10 C16.763125 10.928125 17.52625 11.85625 18.3125 12.8125 C20.11848552 14.98276101 21.9476629 17.05568065 24 19 C22.47005208 20.23697917 20.94010417 21.47395833 19.41015625 22.7109375 C16.90053426 25.00505179 16.97464288 26.30935688 16.6875 29.8125 C16.71767976 33.13227327 16.9939012 33.99044521 18.875 36.9375 C22.19151169 40.15646723 24.48003393 40.26784004 29.08984375 40.234375 C31.15696764 40.14170395 31.15696764 40.14170395 33 38.5 C33.495 37.7575 33.495 37.7575 34 37 C33.01 35.68 32.02 34.36 31 33 C32.98 33 34.96 33 37 33 C37.33 31.02 37.66 29.04 38 27 C41.96 26.505 41.96 26.505 46 26 C45.7521428 32.94000171 43.77573529 36.95583931 39 42 C37.69019633 43.03062705 36.36218609 44.03967358 35 45 C41.46372191 43.51059813 41.46372191 43.51059813 46 39 C48.31601933 33.14244439 49.42155524 27.2472034 50 21 C50.495 21.99 50.495 21.99 51 23 C51.66 23 52.32 23 53 23 C53 25.97 53 28.94 53 32 C52.34 32 51.68 32 51 32 C50.95875 32.845625 50.9175 33.69125 50.875 34.5625 C49.67506087 39.27654657 47.75755294 41.92823619 44 45 C35.63402984 49.85372613 27.74633819 51.48399914 18.30078125 49.40625 C12.38385622 47.49585268 9.26985964 44.79067846 6.1875 39.4140625 C2.62326806 32.16835414 1.74000081 27.09920633 2.66015625 19.00390625 C2.98219436 16.15738547 3.17831562 13.36315856 3.25 10.5 C3.27578125 9.7265625 3.3015625 8.953125 3.328125 8.15625 C2.91438668 5.43739816 1.70224416 4.11436643 0 2 C0 1.34 0 0.68 0 0 Z " fill="#AFAA8A" transform="translate(9,2)"/>
<path d="M0 0 C4.62640153 -0.09901748 9.25218387 -0.17153649 13.87939453 -0.21972656 C15.45274604 -0.2398188 17.02602308 -0.26709799 18.59912109 -0.30175781 C20.86314272 -0.35038494 23.12617573 -0.37299135 25.390625 -0.390625 C26.09181458 -0.41127014 26.79300415 -0.43191528 27.51544189 -0.45318604 C30.87702124 -0.45472395 32.71362363 -0.20526464 35.47558594 1.77441406 C37 4 37 4 37 8 C35.68 8.33 34.36 8.66 33 9 C33 9.66 33 10.32 33 11 C34.65 10.67 36.3 10.34 38 10 C37.67 10.99 37.34 11.98 37 13 C33.4375 14.6875 33.4375 14.6875 30 16 C30.99 16.33 31.98 16.66 33 17 C33 17.66 33 18.32 33 19 C25.84854285 20.97113056 19.93464871 20.86646032 13.25 17.4375 C7.23626972 13.83946901 2.78350871 9.49057792 0 3 C0 2.01 0 1.02 0 0 Z " fill="#B1AB8C" transform="translate(23,0)"/>
<path d="M0 0 C1.64935547 0.46599609 1.64935547 0.46599609 3.33203125 0.94140625 C8.86494694 2.33848285 12.5973833 2.69258081 18.14453125 1.50390625 C19.13453125 1.31828125 20.12453125 1.13265625 21.14453125 0.94140625 C21.80453125 0.79703125 22.46453125 0.65265625 23.14453125 0.50390625 C21.31704222 2.96704364 19.91476909 4.33819243 16.875 4.9921875 C14.62973779 5.22908918 12.39997547 5.40751974 10.14453125 5.50390625 C10.47453125 6.16390625 10.80453125 6.82390625 11.14453125 7.50390625 C11.27868597 10.17626835 11.18771666 12.82641113 11.14453125 15.50390625 C9.16453125 15.50390625 7.18453125 15.50390625 5.14453125 15.50390625 C6.13453125 16.82390625 7.12453125 18.14390625 8.14453125 19.50390625 C5.52381196 22.12462554 4.01850032 22.52016831 0.26953125 23.00390625 C-4.49786459 22.84350789 -6.59226373 20.84670164 -9.85546875 17.50390625 C-11.47057597 14.2736918 -11.44611059 10.99583274 -10.85546875 7.50390625 C-8.48993954 3.32084687 -5.06027157 -0.87914431 0 0 Z " fill="#338132" transform="translate(35.85546875,20.49609375)"/>
<path d="M0 0 C3.68754757 0.49831724 5.60490662 1.10067643 8 4 C7.195625 4.61875 6.39125 5.2375 5.5625 5.875 C2.96125481 7.74164041 2.96125481 7.74164041 2 10 C1.46634487 15.81345947 1.46634487 15.81345947 3.875 20.9375 C7.19151169 24.15646723 9.48003393 24.26784004 14.08984375 24.234375 C16.15696764 24.14170395 16.15696764 24.14170395 18 22.5 C18.33 22.005 18.66 21.51 19 21 C18.01 19.68 17.02 18.36 16 17 C17.98 17 19.96 17 22 17 C22.33 15.02 22.66 13.04 23 11 C25.64 10.67 28.28 10.34 31 10 C30.74934847 17.01824278 28.73544391 20.8537706 24 26 C18.75822098 30.75417167 14.57442679 31.42183115 7.66015625 31.33984375 C5 31 5 31 2.0625 28.9375 C-2.99785205 21.73033193 -6.46529907 15.02561873 -5 6 C-3.57202336 3.54847367 -2.05743072 2.00599495 0 0 Z " fill="#B8C2C4" transform="translate(24,18)"/>
<path d="M0 0 C0.433125 0.9075 0.86625 1.815 1.3125 2.75 C3.36504624 6.70305201 5.51853196 8.29219152 9 11 C9 11.33 9 11.66 9 12 C6.22858283 12.08089542 3.45952181 12.14044062 0.6875 12.1875 C-0.09818359 12.21263672 -0.88386719 12.23777344 -1.69335938 12.26367188 C-2.45068359 12.27333984 -3.20800781 12.28300781 -3.98828125 12.29296875 C-4.68477783 12.3086792 -5.38127441 12.32438965 -6.09887695 12.34057617 C-8.54489783 11.90238443 -9.42702086 10.86562642 -11 9 C-11 9.99 -11 10.98 -11 12 C-14.47914941 12.02887814 -17.95826831 12.04675687 -21.4375 12.0625 C-22.92733398 12.07506836 -22.92733398 12.07506836 -24.44726562 12.08789062 C-25.39150391 12.09111328 -26.33574219 12.09433594 -27.30859375 12.09765625 C-28.18314209 12.10289307 -29.05769043 12.10812988 -29.95874023 12.11352539 C-32 12 -32 12 -33 11 C-33.14115161 8.32941149 -33.04247107 5.67567762 -33 3 C-31.25 2.3125 -31.25 2.3125 -29 2 C-26.75 3.4375 -26.75 3.4375 -25 5 C-25 4.34 -25 3.68 -25 3 C-23.62328125 2.94392578 -23.62328125 2.94392578 -22.21875 2.88671875 C-16.00330088 2.55374826 -5.28571772 -1.76190591 0 0 Z " fill="#524D2F" transform="translate(50,52)"/>
<path d="M0 0 C1.5 1 1.5 1 3 3 C3.37471748 7.72144028 3.49154935 10.89627166 1 15 C0.27856904 17.54658961 -0.24160754 20.12631749 -0.796875 22.71484375 C-1.11409467 24.12250604 -1.43181737 25.53005506 -1.75 26.9375 C-1.894375 27.64068359 -2.03875 28.34386719 -2.1875 29.06835938 C-3.33877121 34.0216109 -4.96260809 36.66883918 -9 40 C-11.625 41.375 -11.625 41.375 -14 42 C-15.485 41.505 -15.485 41.505 -17 41 C-16.54109375 40.6596875 -16.0821875 40.319375 -15.609375 39.96875 C-10.98732276 36.31771714 -7.8474349 32.66852697 -6 27 C-6 25.68 -6 24.36 -6 23 C-7.98 23.33 -9.96 23.66 -12 24 C-12.66 22.68 -13.32 21.36 -14 20 C-13.38511719 19.87882812 -12.77023438 19.75765625 -12.13671875 19.6328125 C-11.32847656 19.46523438 -10.52023438 19.29765625 -9.6875 19.125 C-8.88699219 18.96257813 -8.08648437 18.80015625 -7.26171875 18.6328125 C-4.74698882 18.05521001 -4.74698882 18.05521001 -2 16 C-2.94875 16.350625 -3.8975 16.70125 -4.875 17.0625 C-10.85640919 18.74552809 -17.23076936 18.23085426 -22.75 15.3125 C-26.2886035 12.79464751 -29.04473419 10.17150477 -32 7 C-31.67 6.34 -31.34 5.68 -31 5 C-30.34 5.5775 -29.68 6.155 -29 6.75 C-20.6906857 12.98198573 -14.41952838 13.52683009 -4 13 C-4 12.34 -4 11.68 -4 11 C-6.97 10.67 -9.94 10.34 -13 10 C-13 9.67 -13 9.34 -13 9 C-8.71 8.34 -4.42 7.68 0 7 C-0.33 6.34 -0.66 5.68 -1 5 C-1.99 5 -2.98 5 -4 5 C-4 4.34 -4 3.68 -4 3 C-2.68 2.67 -1.36 2.34 0 2 C0 1.34 0 0.68 0 0 Z " fill="#787355" transform="translate(60,6)"/>
<path d="M0 0 C3 3 6 6 9 9 C4.545 8.01 4.545 8.01 0 7 C-3.04923428 9.95394571 -4.31438246 12.12650351 -4.4375 16.3125 C-4.05297088 24.01589996 -1.67520803 28.77283471 4 34 C4.33 34.99 4.66 35.98 5 37 C-1.31380335 35.76803837 -4.28718988 31.90950098 -8 27 C-10.49599439 22.00801122 -9.89008866 13.89762558 -8.28125 8.66015625 C-6.25458323 4.9255324 -3.45397752 2.3985955 0 0 Z " fill="#8A939A" transform="translate(24,12)"/>
<path d="M0 0 C2.98704569 0.49784095 4.39324263 1.26216175 7 3 C7 2.34 7 1.68 7 1 C10.96 1.33 14.92 1.66 19 2 C19 3.65 19 5.3 19 7 C19.66 7 20.32 7 21 7 C21 7.99 21 8.98 21 10 C17.52085059 10.02887814 14.04173169 10.04675687 10.5625 10.0625 C9.07266602 10.07506836 9.07266602 10.07506836 7.55273438 10.08789062 C6.60849609 10.09111328 5.66425781 10.09433594 4.69140625 10.09765625 C3.81685791 10.10289307 2.94230957 10.10812988 2.04125977 10.11352539 C0 10 0 10 -1 9 C-1.1328125 7.1875 -1.1328125 7.1875 -1.125 5 C-1.12757812 4.278125 -1.13015625 3.55625 -1.1328125 2.8125 C-1 1 -1 1 0 0 Z " fill="#625D39" transform="translate(18,54)"/>
<path d="M0 0 C1.64935547 0.46599609 1.64935547 0.46599609 3.33203125 0.94140625 C8.86494694 2.33848285 12.5973833 2.69258081 18.14453125 1.50390625 C19.13453125 1.31828125 20.12453125 1.13265625 21.14453125 0.94140625 C21.80453125 0.79703125 22.46453125 0.65265625 23.14453125 0.50390625 C21.31704222 2.96704364 19.91476909 4.33819243 16.875 4.9921875 C14.62973779 5.22908918 12.39997547 5.40751974 10.14453125 5.50390625 C10.47453125 6.16390625 10.80453125 6.82390625 11.14453125 7.50390625 C11.27868597 10.17626835 11.18771666 12.82641113 11.14453125 15.50390625 C10.87640625 14.94703125 10.60828125 14.39015625 10.33203125 13.81640625 C9.94015625 13.05328125 9.54828125 12.29015625 9.14453125 11.50390625 C8.73203125 10.61703125 8.31953125 9.73015625 7.89453125 8.81640625 C6.29490083 6.25814864 6.29490083 6.25814864 3.26953125 5.50390625 C-0.48235725 5.50390625 -1.98493828 6.11179752 -4.85546875 8.50390625 C-6.94553903 12.18641102 -7.04995096 15.3225388 -6.85546875 19.50390625 C-10.1670994 17.02018326 -10.81174289 15.80512882 -11.41796875 11.62890625 C-11.18691508 6.86564603 -9.20299911 4.77358707 -5.85546875 1.50390625 C-2.85546875 -0.49609375 -2.85546875 -0.49609375 0 0 Z " fill="#214D1C" transform="translate(35.85546875,20.49609375)"/>
<path d="M0 0 C1.51400391 0.01740234 1.51400391 0.01740234 3.05859375 0.03515625 C4.07050781 0.04417969 5.08242188 0.05320313 6.125 0.0625 C7.29869141 0.07990234 7.29869141 0.07990234 8.49609375 0.09765625 C9.11484375 1.49177734 9.11484375 1.49177734 9.74609375 2.9140625 C13.23684032 10.48433163 16.45198847 16.23081987 23.49609375 21.09765625 C22.83609375 21.42765625 22.17609375 21.75765625 21.49609375 22.09765625 C16.91251179 19.92491935 12.86231256 16.88465241 9.49609375 13.09765625 C5.36719429 15.99904506 3.20140297 18.32279044 1.49609375 23.09765625 C0.97008076 27.09126941 0.68485773 31.07503079 0.49609375 35.09765625 C-1.76497093 31.70605924 -2.35355766 30.15706821 -2.50390625 26.09765625 C-1.04444783 21.32835464 1.20052632 17.34685794 4.30859375 13.47265625 C6.55243916 10.55155263 6.50062023 10.19271228 6.30859375 6.16015625 C5.90640625 4.64421875 5.90640625 4.64421875 5.49609375 3.09765625 C4.83609375 3.09765625 4.17609375 3.09765625 3.49609375 3.09765625 C1.85933118 5.05768435 1.85933118 5.05768435 0.49609375 7.09765625 C-0.82390625 5.11765625 -2.14390625 3.13765625 -3.50390625 1.09765625 C-2.50390625 0.09765625 -2.50390625 0.09765625 0 0 Z " fill="#666552" transform="translate(14.50390625,-0.09765625)"/>
<path d="M0 0 C-0.2854438 7.99242628 -3.43260373 12.43260373 -9 18 C-14.01025094 18.62123884 -18.59375536 18.66176218 -23.1875 16.5 C-23.785625 16.005 -24.38375 15.51 -25 15 C-23 14 -23 14 -19.0625 14.125 C-15.7735321 14.22058376 -15.7735321 14.22058376 -13 12.5 C-12.67 12.005 -12.34 11.51 -12 11 C-12.99 9.68 -13.98 8.36 -15 7 C-13.02 7 -11.04 7 -9 7 C-8.67 5.02 -8.34 3.04 -8 1 C-1.125 0 -1.125 0 0 0 Z " fill="#FFFFFF" transform="translate(55,28)"/>
<path d="M0 0 C1.875 0.3125 1.875 0.3125 4 1 C4.66 1.99 5.32 2.98 6 4 C6.99 2.68 7.98 1.36 9 0 C9.99 0.33 10.98 0.66 12 1 C12.88631206 3.71802366 13.29978088 5.20204511 13 8 C11.41905203 10.6407043 9.59652654 12.99346445 7.72265625 15.43359375 C5.23484719 19.13992153 4.65577104 22.66659411 4 27 C3.67 27.99 3.34 28.98 3 30 C2.07581423 24.96832193 2.23302465 21.02794951 3 16 C3.12030106 14.27301145 3.20178953 12.54300211 3.25 10.8125 C3.27578125 9.99394531 3.3015625 9.17539063 3.328125 8.33203125 C2.92772141 5.48630571 1.7887457 4.19827433 0 2 C0 1.34 0 0.68 0 0 Z " fill="#B5B090" transform="translate(9,2)"/>
<path d="M0 0 C3 1 3 1 4.8125 3.75 C7.26169168 7.38879907 9.57443134 9.30327573 13 12 C13.66902344 12.77730469 13.66902344 12.77730469 14.3515625 13.5703125 C18.77733662 17.40878011 27.41209903 17.3020487 33 17 C33 17.66 33 18.32 33 19 C25.84854285 20.97113056 19.93464871 20.86646032 13.25 17.4375 C7.23626972 13.83946901 2.78350871 9.49057792 0 3 C0 2.01 0 1.02 0 0 Z " fill="#B5B090" transform="translate(23,0)"/>
<path d="M0 0 C4.875 0.875 4.875 0.875 6 2 C6.04063832 3.66617115 6.042721 5.33388095 6 7 C6.66 7 7.32 7 8 7 C8 9.31 8 11.62 8 14 C7.01 13.34 6.02 12.68 5 12 C4.319375 13.6396875 4.319375 13.6396875 3.625 15.3125 C2.58357909 17.82137765 1.53521956 19.69717067 0 22 C-0.66 21.67 -1.32 21.34 -2 21 C-1.01062729 15.11032245 0.2608977 10.34777116 3 5 C2.2236068 1.9254644 2.2236068 1.9254644 0 0 Z " fill="#575133" transform="translate(2,0)"/>
<path d="M0 0 C0.33 0.66 0.66 1.32 1 2 C1.66 2 2.32 2 3 2 C3 4.97 3 7.94 3 11 C2.34 11 1.68 11 1 11 C0.95875 11.845625 0.9175 12.69125 0.875 13.5625 C-0.42640378 18.67515769 -3.29038424 22.37308483 -7.84765625 25.109375 C-10.67525949 26.38209663 -12.88873314 27 -16 27 C-16 26.34 -16 25.68 -16 25 C-15.38511719 24.74605469 -14.77023438 24.49210937 -14.13671875 24.23046875 C-13.32847656 23.88628906 -12.52023438 23.54210937 -11.6875 23.1875 C-10.88699219 22.85105469 -10.08648437 22.51460937 -9.26171875 22.16796875 C-6.08144697 20.52565223 -4.46890117 19.12816821 -3.0859375 15.80078125 C-1.57656869 10.51799042 -0.50682102 5.47366701 0 0 Z " fill="#CAC4A5" transform="translate(59,23)"/>
<path d="M0 0 C0.33 0 0.66 0 1 0 C0.57005733 7.36832781 -0.0856322 13.40561305 -4.875 19.3125 C-7.20590394 21.16351195 -9.13611403 22.19223729 -12 23 C-12.99 22.67 -13.98 22.34 -15 22 C-14.31164063 21.48953125 -14.31164063 21.48953125 -13.609375 20.96875 C-8.76228486 17.13995611 -6.44205673 13.66557161 -4 8 C-3.34 8 -2.68 8 -2 8 C-1.855625 6.865625 -1.71125 5.73125 -1.5625 4.5625 C-1 1 -1 1 0 0 Z " fill="#A9A589" transform="translate(58,25)"/>
<path d="M0 0 C0.99 0.33 1.98 0.66 3 1 C3 5.62 3 10.24 3 15 C1.02 15 -0.96 15 -3 15 C-3.08142927 13.2507786 -3.13938541 11.50045458 -3.1875 9.75 C-3.22230469 8.77546875 -3.25710937 7.8009375 -3.29296875 6.796875 C-2.96075202 3.62531258 -2.11327721 2.32959693 0 0 Z " fill="#B5B090" transform="translate(8,49)"/>
<path d="M0 0 C3.09912803 0.21373297 3.99210353 0.99140679 6.125 3.3125 C7.66344381 5.51760279 8.83984988 7.59243184 10 10 C8.35425434 10.02688151 6.70838587 10.04634123 5.0625 10.0625 C4.14597656 10.07410156 3.22945312 10.08570312 2.28515625 10.09765625 C0 10 0 10 -1 9 C-1.1328125 7.1875 -1.1328125 7.1875 -1.125 5 C-1.12757812 4.278125 -1.13015625 3.55625 -1.1328125 2.8125 C-1 1 -1 1 0 0 Z " fill="#B5B090" transform="translate(18,54)"/>
<path d="M0 0 C2.21875 -0.3359375 2.21875 -0.3359375 5 0 C7.28125 2.3359375 7.28125 2.3359375 9.5 5.375 C12.39121888 9.31479473 14.23999387 11.60887145 19 13 C19 13.33 19 13.66 19 14 C12.54026821 13.88464765 9.37823279 12.371075 4.69921875 7.921875 C2.55162591 5.49287344 1.17615597 3.01389968 0 0 Z " fill="#797455" transform="translate(25,0)"/>
<path d="M0 0 C0.99 0 1.98 0 3 0 C2.49516066 2.77661635 1.87754004 5.37503361 1 8.0625 C-0.53956303 13.23267437 -0.66579944 18.64399633 -1 24 C-1.66 24 -2.32 24 -3 24 C-5.03434683 15.60831932 -3.85014326 7.70028653 0 0 Z " fill="#544F30" transform="translate(4,40)"/>
<path d="M0 0 C1.65 1.32 3.3 2.64 5 4 C4.67 5.32 4.34 6.64 4 8 C2.68 8 1.36 8 0 8 C-1.28446919 10.56893838 -1.32977144 12.76576337 -1.5625 15.625 C-1.68818359 17.12933594 -1.68818359 17.12933594 -1.81640625 18.6640625 C-1.87699219 19.43492188 -1.93757812 20.20578125 -2 21 C-2.66 21 -3.32 21 -4 21 C-4.33386345 13.58081218 -4.19337923 7.76996398 -1 1 C-0.67 0.67 -0.34 0.34 0 0 Z " fill="#7A7557" transform="translate(7,43)"/>
<path d="M0 0 C1.32 1.32 2.64 2.64 4 4 C2.9275 4.391875 1.855 4.78375 0.75 5.1875 C-2.96038476 6.82067138 -5.01352939 8.34489407 -7 12 C-7.60193208 16.72946631 -7.1905428 21.38664664 -6 26 C-6.66 26.33 -7.32 26.66 -8 27 C-10.49599439 22.00801122 -9.89008866 13.89762558 -8.28125 8.66015625 C-6.25458323 4.9255324 -3.45397752 2.3985955 0 0 Z " fill="#747F88" transform="translate(24,12)"/>
<path d="M0 0 C0.66 0 1.32 0 2 0 C2.33 1.98 2.66 3.96 3 6 C1.35 6.33 -0.3 6.66 -2 7 C-2 8.32 -2 9.64 -2 11 C-4.64 11.33 -7.28 11.66 -10 12 C-9.34 11.34 -8.68 10.68 -8 10 C-8.99 9.01 -9.98 8.02 -11 7 C-10.67 6.34 -10.34 5.68 -10 5 C-8.35 5.33 -6.7 5.66 -5 6 C-4.34 4.35 -3.68 2.7 -3 1 C-2.34 1.99 -1.68 2.98 -1 4 C-0.67 2.68 -0.34 1.36 0 0 Z " fill="#42A642" transform="translate(43,29)"/>
<path d="M0 0 C3.31152874 -0.36794764 4.60609252 -0.29809215 7.3125 1.75 C9 4 9 4 9 8 C5.86501708 9.85776765 3.62528568 10.20140476 0 10 C0.33 9.34 0.66 8.68 1 8 C1.24787017 3.85496339 1.24787017 3.85496339 0 0 Z " fill="#CFC9AA" transform="translate(51,0)"/>
<path d="M0 0 C1.51400391 0.01740234 1.51400391 0.01740234 3.05859375 0.03515625 C4.07050781 0.04417969 5.08242188 0.05320313 6.125 0.0625 C7.29869141 0.07990234 7.29869141 0.07990234 8.49609375 0.09765625 C9.19320106 1.38416331 9.87852251 2.6770629 10.55859375 3.97265625 C10.94144531 4.69195313 11.32429688 5.41125 11.71875 6.15234375 C11.97527344 6.79429687 12.23179688 7.43625 12.49609375 8.09765625 C12.16609375 8.75765625 11.83609375 9.41765625 11.49609375 10.09765625 C10.83609375 9.76765625 10.17609375 9.43765625 9.49609375 9.09765625 C9.49609375 8.43765625 9.49609375 7.77765625 9.49609375 7.09765625 C8.83609375 7.09765625 8.17609375 7.09765625 7.49609375 7.09765625 C6.83609375 5.77765625 6.17609375 4.45765625 5.49609375 3.09765625 C4.83609375 3.09765625 4.17609375 3.09765625 3.49609375 3.09765625 C1.85933118 5.05768435 1.85933118 5.05768435 0.49609375 7.09765625 C-0.82390625 5.11765625 -2.14390625 3.13765625 -3.50390625 1.09765625 C-2.50390625 0.09765625 -2.50390625 0.09765625 0 0 Z " fill="#696346" transform="translate(14.50390625,-0.09765625)"/>
<path d="M0 0 C0 0.66 0 1.32 0 2 C-6.85884959 5.26889853 -12.40429561 6.58179863 -20 6 C-20.33 5.01 -20.66 4.02 -21 3 C-20.11957031 2.95101562 -19.23914063 2.90203125 -18.33203125 2.8515625 C-17.17058594 2.77679688 -16.00914063 2.70203125 -14.8125 2.625 C-13.08966797 2.52058594 -13.08966797 2.52058594 -11.33203125 2.4140625 C-7.28148725 1.91071237 -4.05391648 0 0 0 Z " fill="#615C3E" transform="translate(49,49)"/>
<path d="M0 0 C2.625 0.375 2.625 0.375 5 1 C5.625 3.375 5.625 3.375 6 6 C5.34 6.66 4.68 7.32 4 8 C1.375 7.625 1.375 7.625 -1 7 C-1.625 4.625 -1.625 4.625 -2 2 C-1.34 1.34 -0.68 0.68 0 0 Z " fill="#000000" transform="translate(34,28)"/>
<path d="M0 0 C0.33 0.66 0.66 1.32 1 2 C1.928125 2.1546875 1.928125 2.1546875 2.875 2.3125 C5.93949629 3.30395468 6.3549514 5.25825234 8 8 C10.23034561 10.13033011 12.58915771 12.07793122 15 14 C14.01 14.495 14.01 14.495 13 15 C8.33531342 12.7888174 4.56059298 9.69753887 1 6 C0.34 6 -0.32 6 -1 6 C-0.67 4.02 -0.34 2.04 0 0 Z " fill="#565233" transform="translate(23,7)"/>
<path d="M0 0 C4.32158374 0.32011731 6.93510362 3.21373057 10 6 C10 6.33 10 6.66 10 7 C8.35425434 7.02688151 6.70838587 7.04634123 5.0625 7.0625 C4.14597656 7.07410156 3.22945312 7.08570312 2.28515625 7.09765625 C0 7 0 7 -1 6 C-1.125 3.5 -1.125 3.5 -1 1 C-0.67 0.67 -0.34 0.34 0 0 Z " fill="#B7B194" transform="translate(49,57)"/>
<path d="M0 0 C3.465 1.485 3.465 1.485 7 3 C6.67 3.99 6.34 4.98 6 6 C5.34 5.34 4.68 4.68 4 4 C3.01 4 2.02 4 1 4 C1 6.97 1 9.94 1 13 C-0.32 13 -1.64 13 -3 13 C-3.4726477 4.80743982 -3.4726477 4.80743982 -1.5 1.4375 C-0.7575 0.7259375 -0.7575 0.7259375 0 0 Z " fill="#797456" transform="translate(17,51)"/>
<path d="M0 0 C0.68964844 0.2165625 1.37929688 0.433125 2.08984375 0.65625 C8.2999168 2.49627164 13.53028208 3.31818285 20 3 C20 3.66 20 4.32 20 5 C16.9473937 5.88327729 14.17494823 6.1633007 11 6.1875 C10.154375 6.20167969 9.30875 6.21585938 8.4375 6.23046875 C5.7503085 5.97639135 4.22645195 5.52108894 2 4 C0.75 1.875 0.75 1.875 0 0 Z " fill="#DFD9B9" transform="translate(36,14)"/>
<path d="M0 0 C1.5625 1.25 1.5625 1.25 3 3 C3 5.94543388 1.95380245 7.05513901 0.0625 9.3125 C-4.39731166 11.76994724 -8.11903861 10.87193873 -13 10 C-13 9.67 -13 9.34 -13 9 C-8.71 8.34 -4.42 7.68 0 7 C-0.33 6.34 -0.66 5.68 -1 5 C-1.99 5 -2.98 5 -4 5 C-4 4.34 -4 3.68 -4 3 C-2.68 2.67 -1.36 2.34 0 2 C0 1.34 0 0.68 0 0 Z " fill="#615B40" transform="translate(60,6)"/>
<path d="M0 0 C0.16798051 2.27073652 0.33434113 4.54159293 0.5 6.8125 C0.5928125 8.07707031 0.685625 9.34164062 0.78125 10.64453125 C0.91914781 12.75978517 1 14.88025592 1 17 C-2.64578167 12.29576558 -3.90157796 9.00374472 -4 3 C-1.9375 0 -1.9375 0 0 0 Z " fill="#797456" transform="translate(8,24)"/>
<path d="M0 0 C0.33 0.99 0.66 1.98 1 3 C-2.14930893 4.04976964 -4.38814456 4.10131595 -7.6875 4.0625 C-8.68136719 4.05347656 -9.67523438 4.04445313 -10.69921875 4.03515625 C-11.83810547 4.01775391 -11.83810547 4.01775391 -13 4 C-13.33 3.01 -13.66 2.02 -14 1 C-12.22932584 0.83165067 -10.45845388 0.66538091 -8.6875 0.5 C-7.70136719 0.4071875 -6.71523438 0.314375 -5.69921875 0.21875 C-3 0 -3 0 0 0 Z " fill="#8D8C78" transform="translate(43,48)"/>
<path d="M0 0 C0.99 0.33 1.98 0.66 3 1 C3 1.66 3 2.32 3 3 C2.01 3.495 2.01 3.495 1 4 C1 5.98 1 7.96 1 10 C-0.65 9.67 -2.3 9.34 -4 9 C-3.6875 5.625 -3.6875 5.625 -3 2 C-2.01 1.34 -1.02 0.68 0 0 Z " fill="#767154" transform="translate(48,54)"/>
<path d="M0 0 C-0.33 1.98 -0.66 3.96 -1 6 C-6.45461169 7.38529821 -11.36718401 8.2396943 -17 8 C-17 7.67 -17 7.34 -17 7 C-13.7 6.67 -10.4 6.34 -7 6 C-6.67 5.01 -6.34 4.02 -6 3 C-2.55555556 0 -2.55555556 0 0 0 Z " fill="#A6A182" transform="translate(63,13)"/>
<path d="M0 0 C1.98 0.495 1.98 0.495 4 1 C4 4.63 4 8.26 4 12 C-0.63868613 6.61313869 -0.63868613 6.61313869 -1 3 C-0.67 2.01 -0.34 1.02 0 0 Z " fill="#736E52" transform="translate(60,41)"/>
<path d="M0 0 C0.99 0 1.98 0 3 0 C2 2 1 4 0 6 C-0.21377721 11.60703213 -0.21377721 11.60703213 1 17 C0.34 17 -0.32 17 -1 17 C-3.48514708 13.27227939 -3.56530726 9.32545709 -3 5 C-1.6875 2 -1.6875 2 0 0 Z " fill="#FFFFFF" transform="translate(26,22)"/>
<path d="M0 0 C0.66 0 1.32 0 2 0 C2 1.32 2 2.64 2 4 C2.66 4 3.32 4 4 4 C4 4.99 4 5.98 4 7 C1.36 7 -1.28 7 -4 7 C-2.92598892 4.08482708 -2.22189824 2.22189824 0 0 Z " fill="#7A7557" transform="translate(35,57)"/>
<path d="M0 0 C-3.30259808 3.0016419 -5.52261632 3.38487514 -9.9375 3.3125 C-10.95714844 3.30863281 -11.97679687 3.30476563 -13.02734375 3.30078125 C-16.03509637 2.99644886 -18.26880782 2.26248479 -21 1 C-17.80536892 -0.06487703 -16.38851723 0.0913235 -13.125 0.5625 C-8.27622368 1.13418978 -4.3185056 -1.43950187 0 0 Z " fill="#5B5735" transform="translate(59,22)"/>
<path d="M0 0 C1.75 0.125 1.75 0.125 4 1 C6.3125 3.75 6.3125 3.75 8 7 C7.75 9.875 7.75 9.875 7 12 C5 9 5 9 5 6 C4.34 6 3.68 6 3 6 C0 2.53846154 0 2.53846154 0 0 Z " fill="#DAD4B4" transform="translate(9,2)"/>
<path d="M0 0 C1.36363636 4.09090909 1.36363636 4.09090909 0 7 C-2.875 8.8125 -2.875 8.8125 -6 10 C-6.99 9.67 -7.98 9.34 -9 9 C-8.51789062 8.60167969 -8.03578125 8.20335937 -7.5390625 7.79296875 C-6.90742187 7.26316406 -6.27578125 6.73335937 -5.625 6.1875 C-4.99851562 5.66542969 -4.37203125 5.14335938 -3.7265625 4.60546875 C-1.7778952 2.91774261 -1.7778952 2.91774261 0 0 Z " fill="#585748" transform="translate(52,38)"/>
<path d="M0 0 C0.33 0 0.66 0 1 0 C1.13277344 0.89203125 1.26554688 1.7840625 1.40234375 2.703125 C1.57894531 3.87359375 1.75554688 5.0440625 1.9375 6.25 C2.11152344 7.41015625 2.28554687 8.5703125 2.46484375 9.765625 C2.90776579 12.87121692 2.90776579 12.87121692 3.69140625 15.296875 C3.79324219 15.85890625 3.89507812 16.4209375 4 17 C3.34 17.66 2.68 18.32 2 19 C-0.52775351 15.20836973 -0.22443035 12.19125969 -0.125 7.8125 C-0.11597656 7.06291016 -0.10695313 6.31332031 -0.09765625 5.54101562 C-0.07412578 3.69387346 -0.03825561 1.84689588 0 0 Z " fill="#484228" transform="translate(8,22)"/>
<path d="M0 0 C-0.33 1.32 -0.66 2.64 -1 4 C-2.98 4.33 -4.96 4.66 -7 5 C-7.66 3.68 -8.32 2.36 -9 1 C-5.94152152 0.45627049 -3.11227195 0 0 0 Z " fill="#AAB4B8" transform="translate(55,25)"/>
<path d="M0 0 C0.33 0 0.66 0 1 0 C1 3.96 1 7.92 1 12 C0.01 12 -0.98 12 -2 12 C-1.85962479 10.18706911 -1.71255111 8.3746557 -1.5625 6.5625 C-1.48128906 5.55316406 -1.40007813 4.54382812 -1.31640625 3.50390625 C-1 1 -1 1 0 0 Z " fill="#C8C2A4" transform="translate(10,52)"/>
<path d="M0 0 C0.66 0.33 1.32 0.66 2 1 C0.322967 3.04371546 -0.53872837 3.92353251 -3.19140625 4.36328125 C-3.97386719 4.34652344 -4.75632812 4.32976563 -5.5625 4.3125 C-6.34753906 4.30863281 -7.13257813 4.30476562 -7.94140625 4.30078125 C-10 4 -10 4 -12 2 C-10.95199219 1.90912109 -10.95199219 1.90912109 -9.8828125 1.81640625 C-8.97273438 1.73261719 -8.06265625 1.64882812 -7.125 1.5625 C-6.22007813 1.48128906 -5.31515625 1.40007813 -4.3828125 1.31640625 C-1.98889139 1.13010715 -1.98889139 1.13010715 0 0 Z " fill="#E0DABA" transform="translate(59,10)"/>
<path d="M0 0 C0 0.66 0 1.32 0 2 C-3.85756507 4.15305957 -6.55129785 5.39253254 -11 5 C-7.92351092 1.43774949 -4.70156256 0 0 0 Z " fill="#797455" transform="translate(49,49)"/>
<path d="M0 0 C-0.41774084 2.42289685 -0.69612938 3.70879065 -2.5 5.4375 C-4.46573078 7.48513623 -4.62668561 9.23747349 -5 12 C-5.33 12 -5.66 12 -6 12 C-6.22893102 8.96666395 -6.35414522 6.02633186 -6 3 C-3.95583718 0.7514209 -3.03707969 0 0 0 Z " fill="#696856" transform="translate(61,21)"/>
<path d="M0 0 C0.99 0.33 1.98 0.66 3 1 C2.34 1 1.68 1 1 1 C2.32 2.98 3.64 4.96 5 7 C3.33388095 7.042721 1.66617115 7.04063832 0 7 C-1 6 -1 6 -1.125 3.5 C-1 1 -1 1 0 0 Z " fill="#AFAA8B" transform="translate(49,57)"/>
<path d="M0 0 C0.66 0 1.32 0 2 0 C2 3.96 2 7.92 2 12 C-0.15229884 8.77155174 -0.60309873 6.81025223 -1 3 C-0.67 2.01 -0.34 1.02 0 0 Z " fill="#4B4B42" transform="translate(13,23)"/>
<path d="M0 0 C0.66 0 1.32 0 2 0 C2.33 1.98 2.66 3.96 3 6 C1.02 6 -0.96 6 -3 6 C-3 4.35 -3 2.7 -3 1 C-2.01 2.485 -2.01 2.485 -1 4 C-0.67 2.68 -0.34 1.36 0 0 Z " fill="#3D983D" transform="translate(43,29)"/>
<path d="M0 0 C1.5 1.3125 1.5 1.3125 3 3 C3 3.99 3 4.98 3 6 C0.69 5.67 -1.62 5.34 -4 5 C-4 4.34 -4 3.68 -4 3 C-2.68 2.67 -1.36 2.34 0 2 C0 1.34 0 0.68 0 0 Z " fill="#69634A" transform="translate(60,6)"/>
<path d="M0 0 C1.98 0.99 1.98 0.99 4 2 C4 3.98 4 5.96 4 8 C2 6.25 2 6.25 0 4 C0 2.68 0 1.36 0 0 Z " fill="#B5B090" transform="translate(49,0)"/>
<path d="M0 0 C0.99 0 1.98 0 3 0 C2.67 2.31 2.34 4.62 2 7 C1.01 7 0.02 7 -1 7 C-0.67 4.69 -0.34 2.38 0 0 Z " fill="#645E44" transform="translate(44,0)"/>
<path d="M0 0 C2.34058637 2.12780579 3.70700306 4.11562221 5 7 C3.35 6.67 1.7 6.34 0 6 C-0.38218767 4.34385343 -0.71395102 2.67542976 -1 1 C-0.67 0.67 -0.34 0.34 0 0 Z " fill="#DED8B8" transform="translate(23,57)"/>
<path d="M0 0 C4.66154042 1.49835228 5.86610751 4.88463591 8 9 C3.7938588 7.49780671 2.22833454 4.74041869 0 1 C0 0.67 0 0.34 0 0 Z " fill="#524C2F" transform="translate(25,0)"/>
<path d="M0 0 C1.46132217 2.92264434 2.34099246 4.92463146 3 8 C1.35 8.33 -0.3 8.66 -2 9 C-1.34 6.03 -0.68 3.06 0 0 Z " fill="#4D4730" transform="translate(60,34)"/>
<path d="M0 0 C0.66 0 1.32 0 2 0 C1.8125 1.8125 1.8125 1.8125 1 4 C-1.5625 5.75 -1.5625 5.75 -4 7 C-4 6.01 -4 5.02 -4 4 C-3.34 4 -2.68 4 -2 4 C-1.34 2.68 -0.68 1.36 0 0 Z " fill="#C1BC9C" transform="translate(4,18)"/>
<path d="M0 0 C0 1.32 0 2.64 0 4 C-2.31 4.33 -4.62 4.66 -7 5 C-2.25 0 -2.25 0 0 0 Z " fill="#BFB99C" transform="translate(63,13)"/>
<path d="M0 0 C0.33 0.99 0.66 1.98 1 3 C1.66 3 2.32 3 3 3 C3 3.99 3 4.98 3 6 C1.35 6 -0.3 6 -2 6 C-1.34 4.02 -0.68 2.04 0 0 Z " fill="#ADA78A" transform="translate(36,58)"/>
</svg>
