<?xml version="1.0" encoding="UTF-8"?>
<svg version="1.1" xmlns="http://www.w3.org/2000/svg" width="64" height="64">
<path d="M0 0 C6.31332104 -0.53567572 6.31332104 -0.53567572 9.43359375 1.8984375 C10.09488281 2.71570313 10.75617187 3.53296875 11.4375 4.375 C12.11683594 5.18710938 12.79617188 5.99921875 13.49609375 6.8359375 C15 9 15 9 15 11 C15.66 11 16.32 11 17 11 C17.226875 10.4225 17.45375 9.845 17.6875 9.25 C20.23589359 4.88132527 24.21342909 2.40094758 29 1 C34.52811328 0.26291823 38.41058006 2.12917136 43 5 C45.5 7.125 45.5 7.125 47 9 C47 9.66 47 10.32 47 11 C47.66 11 48.32 11 49 11 C49.20625 10.29875 49.4125 9.5975 49.625 8.875 C51.36671618 5.23322981 53.475616 2.08031591 57 0 C60.70703125 -0.16796875 60.70703125 -0.16796875 64 0 C64.08710289 3.10398978 64.14042309 6.20766548 64.1875 9.3125 C64.21263672 10.19357422 64.23777344 11.07464844 64.26367188 11.98242188 C64.27333984 12.82998047 64.28300781 13.67753906 64.29296875 14.55078125 C64.3086792 15.33106689 64.32438965 16.11135254 64.34057617 16.9152832 C63.91414624 19.52552345 62.9081324 20.2469803 61 22 C60.42224116 24.73230305 60.42224116 24.73230305 60.3125 27.6875 C60.24675781 28.68136719 60.18101563 29.67523437 60.11328125 30.69921875 C60.07589844 31.45847656 60.03851563 32.21773437 60 33 C61.32 33.66 62.64 34.32 64 35 C64 39.62 64 44.24 64 49 C61.03 48.505 61.03 48.505 58 48 C58.433125 48.66 58.86625 49.32 59.3125 50 C60 53 60 53 59.0546875 55.0078125 C58.15388232 56.40277366 57.22314221 57.77891755 56.26171875 59.1328125 C54.82368288 61.0803815 54.82368288 61.0803815 54 64 C53.01 64 52.02 64 51 64 C51.4979837 60.26512223 51.87491756 58.18762365 54 55 C53.6878236 52.35367713 53.6878236 52.35367713 53 50 C52.34 50 51.68 50 51 50 C47.33358353 54.37149656 47.68250512 58.60258708 48 64 C37.33333333 64 26.66666667 64 16 64 C16.05220703 63.11248047 16.05220703 63.11248047 16.10546875 62.20703125 C16.27294446 57.3183354 16.29750838 53.93164461 13 50 C12.34 50 11.68 50 11 50 C10.21329449 52.25760857 10.21329449 52.25760857 10 55 C10.95093297 56.69514137 11.95107762 58.36368108 13 60 C13 61.32 13 62.64 13 64 C12.01 64 11.02 64 10 64 C5.02988837 54.27691754 5.02988837 54.27691754 4 51 C4.33 50.01 4.66 49.02 5 48 C2.525 48.495 2.525 48.495 0 49 C-0.10794277 46.73020335 -0.18556176 44.45894804 -0.25 42.1875 C-0.29640625 40.92292969 -0.3428125 39.65835938 -0.390625 38.35546875 C-0 35 -0 35 2.01953125 33.36328125 C2.67308594 32.91339844 3.32664063 32.46351562 4 32 C4.37967955 29.58205098 4.37967955 29.58205098 3.9375 27 C3.79634766 25.700625 3.79634766 25.700625 3.65234375 24.375 C3.21468087 21.94542099 3.21468087 21.94542099 1.47753906 20.62963867 C-0.45036322 18.50327587 -0.3500078 17.38372071 -0.29296875 14.55078125 C-0.28330078 13.70322266 -0.27363281 12.85566406 -0.26367188 11.98242188 C-0.23853516 11.10134766 -0.21339844 10.22027344 -0.1875 9.3125 C-0.17396484 8.41982422 -0.16042969 7.52714844 -0.14648438 6.60742188 C-0.11114079 4.40433834 -0.06180493 2.20247418 0 0 Z M10 26 C10 27.98 10 29.96 10 32 C11.65 31.67 13.3 31.34 15 31 C13.35 29.35 11.7 27.7 10 26 Z M53 26 C51.64172029 27.64639965 50.30745749 29.31295807 49 31 C51.475 31.495 51.475 31.495 54 32 C54 30.02 54 28.04 54 26 C53.67 26 53.34 26 53 26 Z M18 42 C17.01 42.99 16.02 43.98 15 45 C16.26974972 49.41522109 16.26974972 49.41522109 19 53 C19.99 50.03 20.98 47.06 22 44 C20.68 43.34 19.36 42.68 18 42 Z M44 42 C43.01 43.485 43.01 43.485 42 45 C42.40958631 47.10087365 42.40958631 47.10087365 43.375 49.1875 C43.67148437 49.90292969 43.96796875 50.61835937 44.2734375 51.35546875 C44.51320312 51.89816406 44.75296875 52.44085938 45 53 C47.09785412 50.44609064 48.78252874 48.37080456 49 45 C47.77045984 43.18700508 47.77045984 43.18700508 46 42 C45.34 42 44.68 42 44 42 Z " fill="#5D301A" transform="translate(0,0)"/>
<path d="M0 0 C0.08710289 3.10398978 0.14042309 6.20766548 0.1875 9.3125 C0.21263672 10.19357422 0.23777344 11.07464844 0.26367188 11.98242188 C0.27333984 12.82998047 0.28300781 13.67753906 0.29296875 14.55078125 C0.3086792 15.33106689 0.32438965 16.11135254 0.34057617 16.9152832 C-0.08585376 19.52552345 -1.0918676 20.2469803 -3 22 C-3.57775884 24.73230305 -3.57775884 24.73230305 -3.6875 27.6875 C-3.75324219 28.68136719 -3.81898437 29.67523437 -3.88671875 30.69921875 C-3.92410156 31.45847656 -3.96148437 32.21773437 -4 33 C-2.68 33.66 -1.36 34.32 0 35 C0 39.62 0 44.24 0 49 C-2.31 48.34 -4.62 47.68 -7 47 C-7 46.34 -7 45.68 -7 45 C-7.763125 44.773125 -8.52625 44.54625 -9.3125 44.3125 C-12.57369812 42.71982185 -13.25223218 41.09831569 -15 38 C-16.485 37.505 -16.485 37.505 -18 37 C-17.9071875 38.1446875 -17.9071875 38.1446875 -17.8125 39.3125 C-18 42 -18 42 -19.5 43.8125 C-19.995 44.204375 -20.49 44.59625 -21 45 C-20.649375 45.556875 -20.29875 46.11375 -19.9375 46.6875 C-18.76270872 49.58531848 -19.06895868 51.0517025 -20 54 C-20.66 54.66 -21.32 55.32 -22 56 C-22.1953125 53.94921875 -22.390625 51.8984375 -22.5859375 49.84765625 C-22.72257812 49.23792969 -22.85921875 48.62820312 -23 48 C-25.49092811 46.75453595 -26.41080733 47.2232422 -29 48 C-29 49.98 -29 51.96 -29 54 C-29.33 54 -29.66 54 -30 54 C-30 49.05 -30 44.1 -30 39 C-29.67 39 -29.34 39 -29 39 C-29 40.98 -29 42.96 -29 45 C-26.54368999 44.50452457 -26.54368999 44.50452457 -24 43 C-22.14604652 39.48388132 -21 36.99073753 -21 33 C-21.66 32.67 -22.32 32.34 -23 32 C-22.525625 31.154375 -22.05125 30.30875 -21.5625 29.4375 C-19.94278487 25.87412671 -19.38743857 22.87438575 -19 19 C-19.61875 19.5775 -20.2375 20.155 -20.875 20.75 C-24.96164315 23.69238307 -29.29353741 25.28191268 -34 27 C-34.4125 26.05125 -34.825 25.1025 -35.25 24.125 C-36.64298882 20.90319982 -36.64298882 20.90319982 -39.125 20.0625 C-41 19 -41 19 -41.9375 15.6875 C-42.02903187 10.28711971 -40.02303115 8.27878893 -36.75 4.1875 C-34 2 -34 2 -30.5625 1.5 C-24.77657986 2.31205897 -20.76050245 4.51632401 -17 9 C-17 9.66 -17 10.32 -17 11 C-16.34 11 -15.68 11 -15 11 C-14.690625 9.948125 -14.690625 9.948125 -14.375 8.875 C-11.02240067 1.86501959 -7.86031364 -0.40094127 0 0 Z M-11 26 C-12.35827971 27.64639965 -13.69254251 29.31295807 -15 31 C-12.525 31.495 -12.525 31.495 -10 32 C-10 30.02 -10 28.04 -10 26 C-10.33 26 -10.66 26 -11 26 Z " fill="#370E04" transform="translate(64,0)"/>
<path d="M0 0 C6.27313325 -0.44102028 6.27313325 -0.44102028 9.43359375 1.4765625 C12.75496664 5.0374886 14.85352229 7.46721539 15.328125 12.43359375 C15.23461984 14.84654636 15.1084603 17.25846141 14.94921875 19.66796875 C15.02276315 24.49361311 16.8971764 27.43175286 20 31 C19.01 31.33 18.02 31.66 17 32 C17.68808626 35.58103609 17.68808626 35.58103609 18.75 39.0625 C18.87375 40.0215625 18.87375 40.0215625 19 41 C18.484375 41.5775 17.96875 42.155 17.4375 42.75 C15.76375726 44.84543799 15.76375726 44.84543799 16.2421875 47.03125 C16.75852639 49.04002046 17.3738556 51.0227019 18 53 C18.66 53 19.32 53 20 53 C19.67 53.99 19.34 54.98 19 56 C16.37812506 54.95125002 15.20628639 54.35068687 13.75 51.875 C13.5025 51.25625 13.255 50.6375 13 50 C12.34 50 11.68 50 11 50 C10.21329449 52.25760857 10.21329449 52.25760857 10 55 C10.95093297 56.69514137 11.95107762 58.36368108 13 60 C13 61.32 13 62.64 13 64 C12.01 64 11.02 64 10 64 C5.02988837 54.27691754 5.02988837 54.27691754 4 51 C4.33 50.01 4.66 49.02 5 48 C2.525 48.495 2.525 48.495 0 49 C-0.10794277 46.73020335 -0.18556176 44.45894804 -0.25 42.1875 C-0.29640625 40.92292969 -0.3428125 39.65835938 -0.390625 38.35546875 C-0 35 -0 35 2.01953125 33.36328125 C2.67308594 32.91339844 3.32664063 32.46351562 4 32 C4.37967955 29.58205098 4.37967955 29.58205098 3.9375 27 C3.79634766 25.700625 3.79634766 25.700625 3.65234375 24.375 C3.21468087 21.94542099 3.21468087 21.94542099 1.47753906 20.62963867 C-0.45036322 18.50327587 -0.3500078 17.38372071 -0.29296875 14.55078125 C-0.28330078 13.70322266 -0.27363281 12.85566406 -0.26367188 11.98242188 C-0.23853516 11.10134766 -0.21339844 10.22027344 -0.1875 9.3125 C-0.17396484 8.41982422 -0.16042969 7.52714844 -0.14648438 6.60742188 C-0.11114079 4.40433834 -0.06180493 2.20247418 0 0 Z M10 26 C10 27.98 10 29.96 10 32 C11.65 31.67 13.3 31.34 15 31 C13.35 29.35 11.7 27.7 10 26 Z " fill="#785035" transform="translate(0,0)"/>
<path d="M0 0 C0 0.33 0 0.66 0 1 C-0.886875 1.226875 -1.77375 1.45375 -2.6875 1.6875 C-6.61348014 3.24307704 -8.44200728 4.63806671 -11 8 C-11.95157729 11.41911563 -12.64233712 14.71532576 -11 18 C-10.360625 18.268125 -9.72125 18.53625 -9.0625 18.8125 C-6.31843292 20.39241741 -5.93109876 22.0515206 -5 25 C-4.401875 24.505 -3.80375 24.01 -3.1875 23.5 C-0.57983819 21.71188905 0.93583115 22 4 22 C3 24 2 26 1 28 C-4.02072539 28.79274611 -4.02072539 28.79274611 -7 28 C-9.81110263 25.30449411 -11.91754472 22.27986706 -14 19 C-13.66009167 24.37992836 -13.31442207 28.53273547 -10 33 C-10.66 33 -11.32 33 -12 33 C-10.12297673 37.89562693 -10.12297673 37.89562693 -7 42 C-6.34 40.68 -5.68 39.36 -5 38 C-4.15318867 43.08086796 -3.90961901 47.84828377 -4 53 C-4.33 53 -4.66 53 -5 53 C-5 51.02 -5 49.04 -5 47 C-5.78375 46.855625 -6.5675 46.71125 -7.375 46.5625 C-10 46 -10 46 -12 45 C-12.33 48.3 -12.66 51.6 -13 55 C-13.99 54.01 -14.98 53.02 -16 52 C-15.73066742 48.76800909 -15.02471429 46.07414286 -14 43 C-14.7425 42.38125 -14.7425 42.38125 -15.5 41.75 C-17 40 -17 40 -17 36 C-17.66 35.67 -18.32 35.34 -19 35 C-18.42655063 32.13275314 -18.1385485 31.1385485 -16 29 C-16.37253906 28.55011719 -16.74507812 28.10023437 -17.12890625 27.63671875 C-21.07429741 22.27227682 -21.34362622 18.65335419 -20.39453125 12.125 C-20.26433594 11.42375 -20.13414063 10.7225 -20 10 C-19.34 10 -18.68 10 -18 10 C-17.773125 9.4225 -17.54625 8.845 -17.3125 8.25 C-13.47480478 1.67109391 -7.22535171 -0.33606287 0 0 Z " fill="#3B0E05" transform="translate(35,1)"/>
<path d="M0 0 C0.99 0.33 1.98 0.66 3 1 C5.68335652 6.64917162 6.0325499 12.90235029 4.0625 18.8125 C0.96627494 22.09637506 -2.8252897 23.43338964 -7 25 C-7.4125 24.05125 -7.825 23.1025 -8.25 22.125 C-9.64298882 18.90319982 -9.64298882 18.90319982 -12.125 18.0625 C-14 17 -14 17 -14.9375 13.6875 C-15.02903187 8.28711971 -13.02303115 6.27878893 -9.75 2.1875 C-6.25165979 -0.59527062 -4.36838406 -0.48537601 0 0 Z " fill="#6B3D26" transform="translate(37,2)"/>
<path d="M0 0 C1.875 0.1875 1.875 0.1875 4 1 C4.4640625 2.2065625 4.4640625 2.2065625 4.9375 3.4375 C5.74789838 6.2373709 5.74789838 6.2373709 8.5 7.0625 C9.7375 7.5265625 9.7375 7.5265625 11 8 C12.25 9.875 12.25 9.875 13 12 C13.34417969 12.93005859 13.34417969 12.93005859 13.6953125 13.87890625 C14.10548861 16.73436299 13.25237656 17.72932753 11.625 20.0625 C9.96835001 22.47343477 8.93727774 24.18816679 8 27 C7.01 27 6.02 27 5 27 C5.4979837 23.26512223 5.87491756 21.18762365 8 18 C7.6878236 15.35367713 7.6878236 15.35367713 7 13 C6.34 13 5.68 13 5 13 C1.33358353 17.37149656 1.68250512 21.60258708 2 27 C-3 27 -8 27 -13 27 C-12.34 21.72 -11.68 16.44 -11 11 C-9.35 10.34 -7.7 9.68 -6 9 C-3.4345406 11.5654594 -3.45953913 13.47686668 -3 17 C-2.01 16.67 -1.02 16.34 0 16 C1.06013514 13.10872235 1.80099766 11.00777828 2 8 C0.66457328 5.21692394 0.66457328 5.21692394 -1 3 C-0.67 2.01 -0.34 1.02 0 0 Z " fill="#512815" transform="translate(46,37)"/>
<path d="M0 0 C0.33 0 0.66 0 1 0 C1.03963867 0.62567871 1.07927734 1.25135742 1.12011719 1.89599609 C1.31037167 4.72406072 1.52980125 7.54911601 1.75 10.375 C1.811875 11.35984375 1.87375 12.3446875 1.9375 13.359375 C2.01484375 14.30039062 2.0921875 15.24140625 2.171875 16.2109375 C2.2347168 17.08024902 2.29755859 17.94956055 2.36230469 18.84521484 C2.67796387 19.9118335 2.67796387 19.9118335 3 21 C4.32 21.66 5.64 22.32 7 23 C7 27.62 7 32.24 7 37 C4.69 36.34 2.38 35.68 0 35 C0 34.34 0 33.68 0 33 C-0.7425 32.79375 -1.485 32.5875 -2.25 32.375 C-5.87455474 30.56272263 -7.06680304 28.52118018 -9 25 C-9.75 22.125 -9.75 22.125 -10 20 C-8.00045254 19.95745644 -5.99958364 19.95919217 -4 20 C-3.67 20.33 -3.34 20.66 -3 21 C-2.95101562 19.81921875 -2.90203125 18.6384375 -2.8515625 17.421875 C-2.77651121 15.86456063 -2.70096439 14.30727009 -2.625 12.75 C-2.57859375 11.58404297 -2.57859375 11.58404297 -2.53125 10.39453125 C-2.16618114 3.27568856 -2.16618114 3.27568856 0 0 Z " fill="#805937" transform="translate(57,12)"/>
<path d="M0 0 C2.31 0.66 4.62 1.32 7 2 C7 3.98 7 5.96 7 8 C8.32 8 9.64 8 11 8 C11.125 14.625 11.125 14.625 10 18 C4.33333333 18 -1.33333333 18 -7 18 C-6.67 15.03 -6.34 12.06 -6 9 C-4.68 8.67 -3.36 8.34 -2 8 C-1.34 5.36 -0.68 2.72 0 0 Z " fill="#592D16" transform="translate(23,46)"/>
<path d="M0 0 C7 0 7 0 9.43359375 1.6875 C15.50870188 8.69815109 15.50870188 8.69815109 15.5 13.5625 C15.335 14.696875 15.17 15.83125 15 17 C12.36 15.02 9.72 13.04 7 11 C4.70424397 13.29575603 4.67660401 14.00842525 4.375 17.125 C4.25125 18.40375 4.1275 19.6825 4 21 C2.68 20.34 1.36 19.68 0 19 C0 12.73 0 6.46 0 0 Z " fill="#E8D4A1" transform="translate(0,0)"/>
<path d="M0 0 C0 6.27 0 12.54 0 19 C-1.98 19.99 -1.98 19.99 -4 21 C-4.66 17.7 -5.32 14.4 -6 11 C-9.15133488 12.83827868 -12.11964908 14.75972706 -15 17 C-15.63107458 12.66136226 -15.76870678 10.26944199 -13.46484375 6.46484375 C-8.73298366 0.71185007 -8.13147529 0 0 0 Z " fill="#E4D9A4" transform="translate(64,0)"/>
<path d="M0 0 C1.875 0.1875 1.875 0.1875 4 1 C4.309375 1.804375 4.61875 2.60875 4.9375 3.4375 C5.74789838 6.2373709 5.74789838 6.2373709 8.5 7.0625 C9.325 7.371875 10.15 7.68125 11 8 C12.25 9.875 12.25 9.875 13 12 C13.22945312 12.62003906 13.45890625 13.24007812 13.6953125 13.87890625 C14.10548861 16.73436299 13.25237656 17.72932753 11.625 20.0625 C9.96835001 22.47343477 8.93727774 24.18816679 8 27 C7.01 27 6.02 27 5 27 C5.4979837 23.26512223 5.87491756 21.18762365 8 18 C7.6878236 15.35367713 7.6878236 15.35367713 7 13 C6.34 13 5.68 13 5 13 C4.525625 13.804375 4.05125 14.60875 3.5625 15.4375 C2 18 2 18 -1 19 C-1.33 18.01 -1.66 17.02 -2 16 C-1.34 16 -0.68 16 0 16 C2.04807174 10.49301753 2.04807174 10.49301753 0.5625 5.1875 C0.046875 4.465625 -0.46875 3.74375 -1 3 C-0.67 2.01 -0.34 1.02 0 0 Z " fill="#68412A" transform="translate(46,37)"/>
<path d="M0 0 C0.24269575 4.04492913 0.26815808 6.48431138 -1.625 10.125 C-2.305625 11.548125 -2.305625 11.548125 -3 13 C-2.67 13.825 -2.34 14.65 -2 15.5 C-1 18 -1 18 -2.25 21.1875 C-4 24 -4 24 -6 26 C-7.32 26 -8.64 26 -10 26 C-10.55353075 15.44191344 -10.55353075 15.44191344 -7 11 C-7.66 11 -8.32 11 -9 11 C-8.40300869 7.66864109 -7.27987719 5.78724333 -5.0625 3.25 C-4.53785156 2.63640625 -4.01320313 2.0228125 -3.47265625 1.390625 C-2 0 -2 0 0 0 Z " fill="#561308" transform="translate(45,19)"/>
<path d="M0 0 C3.39589172 2.91206843 3.58814921 5.13298472 3.94921875 9.4375 C4.03306682 13.6686025 3.56826634 17.81231421 3 22 C2.67 22 2.34 22 2 22 C1.34 15.73 0.68 9.46 0 3 C-0.90833969 5.72501908 -1.18359985 7.62233971 -1.31640625 10.44921875 C-1.35830078 11.29677734 -1.40019531 12.14433594 -1.44335938 13.01757812 C-1.48267578 13.89865234 -1.52199219 14.77972656 -1.5625 15.6875 C-1.60568359 16.58017578 -1.64886719 17.47285156 -1.69335938 18.39257812 C-1.79935353 20.59490108 -1.90142051 22.79733473 -2 25 C-2.66 24.34 -3.32 23.68 -4 23 C-6.65537372 22.43479997 -9.29144713 22.26211802 -12 22 C-12 18.46946921 -10.77733717 16.80720028 -8.875 13.9140625 C-7.80976279 11.97267471 -7.80976279 11.97267471 -8.125 9.51171875 C-8 7 -8 7 -6.25 4.98046875 C-5.5075 4.38878906 -4.765 3.79710937 -4 3.1875 C-3.2575 2.58292969 -2.515 1.97835938 -1.75 1.35546875 C-1.1725 0.90816406 -0.595 0.46085938 0 0 Z M-4 16 C-5.35827971 17.64639965 -6.69254251 19.31295807 -8 21 C-5.525 21.495 -5.525 21.495 -3 22 C-3 20.02 -3 18.04 -3 16 C-3.33 16 -3.66 16 -4 16 Z " fill="#5D331D" transform="translate(57,10)"/>
<path d="M0 0 C0 0.33 0 0.66 0 1 C-0.886875 1.226875 -1.77375 1.45375 -2.6875 1.6875 C-6.61348014 3.24307704 -8.44200728 4.63806671 -11 8 C-11.95157729 11.41911563 -12.64233712 14.71532576 -11 18 C-10.360625 18.268125 -9.72125 18.53625 -9.0625 18.8125 C-6.31843292 20.39241741 -5.93109876 22.0515206 -5 25 C-4.401875 24.505 -3.80375 24.01 -3.1875 23.5 C-0.57983819 21.71188905 0.93583115 22 4 22 C3 24 2 26 1 28 C-3.99608185 28.78885503 -3.99608185 28.78885503 -7 28 C-9.86903233 25.34547476 -12.04727321 22.38065826 -14 19 C-14 18.34 -14 17.68 -14 17 C-14.99 16.67 -15.98 16.34 -17 16 C-16.07578167 10.41820774 -15.27419392 6.02995427 -11 2 C-7.28558235 -0.05270449 -4.20044297 -0.19536944 0 0 Z " fill="#4A200F" transform="translate(35,1)"/>
<path d="M0 0 C2.3125 0.1875 2.3125 0.1875 5 1 C7.16422464 3.59706957 8.0225378 5.09848785 7.9375 8.5 C6.79885483 11.53638711 5.13921642 13.58475566 3 16 C0.29672807 14.97462099 -1.0039312 13.99528256 -2.875 11.75 C-4 9 -4 9 -3.3125 5.875 C-2 3 -2 3 0 0 Z " fill="#925637" transform="translate(30,5)"/>
<path d="M0 0 C3.17462943 2.40242227 5.85751741 4.61713276 8 8 C8 8.66 8 9.32 8 10 C8.99 10.33 9.98 10.66 11 11 C10.01 11.99 9.02 12.98 8 14 C8.33 14.33 8.66 14.66 9 15 C9.07205511 16.68608966 9.08386068 18.37500659 9.0625 20.0625 C9.05347656 20.98160156 9.04445313 21.90070312 9.03515625 22.84765625 C9.02355469 23.55792969 9.01195312 24.26820312 9 25 C5.46033873 21.82338092 3.39196472 19.83423161 3 15 C3 14.34 3 13.68 3 13 C2.690625 12.29875 2.38125 11.5975 2.0625 10.875 C0.71304343 7.22352928 0.39359162 3.87031761 0 0 Z " fill="#5B1A0B" transform="translate(20,19)"/>
<path d="M0 0 C0.66 0 1.32 0 2 0 C2.86419223 2.59257669 3.17580932 4.34037707 3.31640625 7.01171875 C3.35830078 7.76904297 3.40019531 8.52636719 3.44335938 9.30664062 C3.48267578 10.09232422 3.52199219 10.87800781 3.5625 11.6875 C3.62727539 12.88342773 3.62727539 12.88342773 3.69335938 14.10351562 C3.79927368 16.06881447 3.90012551 18.03438496 4 20 C4.33 19.67 4.66 19.34 5 19 C6.99958364 18.95919217 9.00045254 18.95745644 11 19 C10.5943573 21.92062741 10.29617625 23.64686678 8.375 25.9375 C6.65860937 28.04153319 6.65860937 28.04153319 7.3125 31.25 C7.6528125 32.61125 7.6528125 32.61125 8 34 C7.34 34 6.68 34 6 34 C5.72285156 33.37351563 5.44570312 32.74703125 5.16015625 32.1015625 C4.61681641 30.87566406 4.61681641 30.87566406 4.0625 29.625 C3.70285156 28.81289063 3.34320313 28.00078125 2.97265625 27.1640625 C2.3430097 25.76316215 1.68687358 24.37374716 1 23 C0.84733388 21.26131256 0.75067404 19.51752499 0.68359375 17.7734375 C0.64169922 16.7421875 0.59980469 15.7109375 0.55664062 14.6484375 C0.51732422 13.56820313 0.47800781 12.48796875 0.4375 11.375 C0.39431641 10.28703125 0.35113281 9.1990625 0.30664062 8.078125 C0.2003547 5.3855483 0.09831943 2.69287747 0 0 Z " fill="#AB8765" transform="translate(6,13)"/>
<path d="M0 0 C1.65 0.33 3.3 0.66 5 1 C5 5.62 5 10.24 5 15 C2.69 14.34 0.38 13.68 -2 13 C-2 12.34 -2 11.68 -2 11 C-2.99 10.67 -3.98 10.34 -5 10 C-3.35 6.7 -1.7 3.4 0 0 Z " fill="#D3C38E" transform="translate(59,34)"/>
<path d="M0 0 C1.66666667 3.33333333 3.33333333 6.66666667 5 10 C4.01 10.33 3.02 10.66 2 11 C2 11.66 2 12.32 2 13 C-0.31 13.66 -2.62 14.32 -5 15 C-5 10.38 -5 5.76 -5 1 C-3 0 -3 0 0 0 Z " fill="#D3C190" transform="translate(5,34)"/>
<path d="M0 0 C3.15170873 3.15170873 5.35053135 6.3421882 7.75 10.0625 C8.17410156 10.69994141 8.59820312 11.33738281 9.03515625 11.99414062 C10.08862735 13.6223883 11.05231028 15.30799645 12 17 C11.67 17.66 11.34 18.32 11 19 C8.97456444 19.25719817 6.94649776 19.50842122 4.91015625 19.65625 C2.76477844 19.85476212 2.76477844 19.85476212 1 22 C0.67 14.74 0.34 7.48 0 0 Z M2 13 C2 14.98 2 16.96 2 19 C3.65 18.67 5.3 18.34 7 18 C5.35 16.35 3.7 14.7 2 13 Z " fill="#61361D" transform="translate(8,13)"/>
<path d="M0 0 C0 5.94 0 11.88 0 18 C-1.98 18.99 -1.98 18.99 -4 20 C-4.02708567 18.39592672 -4.04643483 16.7917215 -4.0625 15.1875 C-4.07410156 14.29417969 -4.08570313 13.40085937 -4.09765625 12.48046875 C-4 10 -4 10 -3 7 C-7.54170996 8.90884692 -7.54170996 8.90884692 -12 11 C-10.5611898 7.612801 -8.77880501 5.6405896 -6 3.25 C-5.29875 2.63640625 -4.5975 2.0228125 -3.875 1.390625 C-2 0 -2 0 0 0 Z " fill="#E7D3A0" transform="translate(64,1)"/>
<path d="M0 0 C1.32 0 2.64 0 4 0 C4.95261487 4.76307437 5.08333357 9.1666528 5 14 C2.24416061 13.10621425 0.25726069 12.22406577 -1.9375 10.3125 C-3 8 -3 8 -2.25 4.3125 C-1 1 -1 1 0 0 Z " fill="#6C3F27" transform="translate(26,48)"/>
<path d="M0 0 C0.33 0 0.66 0 1 0 C1 1.98 1 3.96 1 6 C4.37503669 4.8141763 6.64722731 3.72426311 9 1 C9.99 1.33 10.98 1.66 12 2 C11.01 3.32 10.02 4.64 9 6 C9.350625 6.556875 9.70125 7.11375 10.0625 7.6875 C11.23729128 10.58531848 10.93104132 12.0517025 10 15 C9.34 15.66 8.68 16.32 8 17 C7.8046875 14.94921875 7.609375 12.8984375 7.4140625 10.84765625 C7.20910156 9.93306641 7.20910156 9.93306641 7 9 C4.50907189 7.75453595 3.58919267 8.2232422 1 9 C1 10.98 1 12.96 1 15 C0.67 15 0.34 15 0 15 C0 10.05 0 5.1 0 0 Z " fill="#320A03" transform="translate(34,39)"/>
<path d="M0 0 C0.99 0 1.98 0 3 0 C3.125 6.625 3.125 6.625 2 10 C-2.33333333 10 -6.66666667 10 -11 10 C-11 8.02 -11 6.04 -11 4 C-7.13351728 5.04097612 -3.50538557 6.03698408 0 8 C0 5.36 0 2.72 0 0 Z " fill="#461C0C" transform="translate(31,54)"/>
<path d="M0 0 C2.85098027 -0.5345588 4.25856459 -0.75837839 7 0 C10.2030969 2.60704234 12.84255459 5.47523854 15 9 C15.22265625 11.80078125 15.22265625 11.80078125 15 14 C14.38125 13.34 13.7625 12.68 13.125 12 C9.70354631 8.54879454 5.84406088 5.64823415 2.01171875 2.671875 C1.34785156 2.12015625 0.68398437 1.5684375 0 1 C0 0.67 0 0.34 0 0 Z " fill="#E6DBA5" transform="translate(0,0)"/>
<path d="M0 0 C3 2 3 2 3.51171875 3.9453125 C3.67447917 5.96354167 3.83723958 7.98177083 4 10 C1.69 10.66 -0.62 11.32 -3 12 C-2.88648483 10.18674449 -2.75887039 8.37436643 -2.625 6.5625 C-2.55539063 5.55316406 -2.48578125 4.54382812 -2.4140625 3.50390625 C-2.27742188 2.67761719 -2.14078125 1.85132813 -2 1 C-1.34 0.67 -0.68 0.34 0 0 Z " fill="#6C3F27" transform="translate(37,47)"/>
<path d="M0 0 C0.33 0 0.66 0 1 0 C1.268125 0.9075 1.53625 1.815 1.8125 2.75 C2.89576294 5.71471963 3.98359457 7.6169754 6 10 C6.66 8.68 7.32 7.36 8 6 C8.84681133 11.08086796 9.09038099 15.84828377 9 21 C8.67 21 8.34 21 8 21 C8 19.02 8 17.04 8 15 C7.01 15 6.02 15 5 15 C4.67 14.01 4.34 13.02 4 12 C2.59894424 10.57142881 2.59894424 10.57142881 0.9375 9.3125 C-0.031875 8.549375 -1.00125 7.78625 -2 7 C-1.34 4.69 -0.68 2.38 0 0 Z " fill="#441B0C" transform="translate(22,33)"/>
<path d="M0 0 C1.875 0.625 1.875 0.625 4 2 C5.66783878 5.75263725 6.24045528 8.91226018 6 13 C5.01 13.33 4.02 13.66 3 14 C2.30062468 15.31647119 1.63270867 16.65022151 1 18 C0.34 18.33 -0.32 18.66 -1 19 C-0.125 15.125 -0.125 15.125 1 14 C1.33243079 9.26774995 1.18893275 4.60711442 0 0 Z " fill="#4D220F" transform="translate(40,4)"/>
<path d="M0 0 C0.33 0 0.66 0 1 0 C1.25044324 3.02040579 1.4758559 6.03933112 1.6875 9.0625 C1.76033203 9.91005859 1.83316406 10.75761719 1.90820312 11.63085938 C2.28200935 17.32590715 1.67130263 20.93894591 -1 26 C-1.86108766 23.06523021 -2.07847222 20.60732174 -1.9140625 17.55859375 C-1.87023438 16.72779297 -1.82640625 15.89699219 -1.78125 15.04101562 C-1.7296875 14.18185547 -1.678125 13.32269531 -1.625 12.4375 C-1.58117188 11.57447266 -1.53734375 10.71144531 -1.4921875 9.82226562 C-1.2950207 6.29790914 -1.12317244 3.36951733 0 0 Z " fill="#B08C6A" transform="translate(56,13)"/>
<path d="M0 0 C1.65 0.33 3.3 0.66 5 1 C5 4.3 5 7.6 5 11 C3.68 10.67 2.36 10.34 1 10 C1 9.01 1 8.02 1 7 C-0.43750191 5.31201173 -0.43750191 5.31201173 -2 4 C-1.34 2.68 -0.68 1.36 0 0 Z " fill="#E6D5A1" transform="translate(59,34)"/>
<path d="M0 0 C1.28222189 3.03070628 0.98589446 4.03596914 -0.25 7.1875 C-2 10 -2 10 -5 11 C-4.93993922 9.54052295 -4.8511311 8.08220728 -4.75 6.625 C-4.70359375 5.81289063 -4.6571875 5.00078125 -4.609375 4.1640625 C-4 2 -4 2 -1.953125 0.7109375 C-1.30859375 0.47632813 -0.6640625 0.24171875 0 0 Z " fill="#77452B" transform="translate(40,34)"/>
<path d="M0 0 C0.33 0 0.66 0 1 0 C0.39457203 6.41753653 0.39457203 6.41753653 -1.3125 8.9375 C-3 10 -3 10 -7 10 C-5.32971708 6.05205855 -2.8204435 3.18203882 0 0 Z " fill="#DF390B" transform="translate(43,19)"/>
<path d="M0 0 C0.33 0 0.66 0 1 0 C2.0176403 5.01608525 2.11856434 9.78608306 2.0625 14.875 C2.05798828 15.65875 2.05347656 16.4425 2.04882812 17.25 C2.03714093 19.16670014 2.01920908 21.08336048 2 23 C-1.96145649 16.07957805 -1.29308738 7.61484792 0 0 Z " fill="#552B15" transform="translate(4,13)"/>
<path d="M0 0 C0.99 1.32 1.98 2.64 3 4 C1.68 6.64 0.36 9.28 -1 12 C-1.99 12 -2.98 12 -4 12 C-3.45660208 7.43545749 -2.20536179 4.0271824 0 0 Z " fill="#603721" transform="translate(55,52)"/>
<path d="M0 0 C1.4540625 0.0309375 1.4540625 0.0309375 2.9375 0.0625 C2.4581753 4.37642226 1.1917015 6.22819547 -2.0625 9.0625 C-1.7325 7.7425 -1.4025 6.4225 -1.0625 5.0625 C-1.7225 5.0625 -2.3825 5.0625 -3.0625 5.0625 C-3.625 3.125 -3.625 3.125 -4.0625 1.0625 C-3.0625 0.0625 -3.0625 0.0625 0 0 Z " fill="#C8B682" transform="translate(14.0625,31.9375)"/>
<path d="M0 0 C0.66 1.32 1.32 2.64 2 4 C1.34 4 0.68 4 0 4 C-0.99 6.97 -1.98 9.94 -3 13 C-3.99 12.01 -4.98 11.02 -6 10 C-5.690625 9.236875 -5.38125 8.47375 -5.0625 7.6875 C-4.32106407 5.81210323 -3.63771783 3.91315348 -3 2 C-2.01 1.34 -1.02 0.68 0 0 Z " fill="#643820" transform="translate(10,43)"/>
<path d="M0 0 C4.21422242 2.88341534 5.76075855 5.04303419 7 10 C4.33246269 9.63206382 3.18001672 9.18001672 1.25 7.25 C-0.21079991 4.62056017 -0.24687966 2.9625559 0 0 Z " fill="#E53F0A" transform="translate(20,19)"/>
<path d="M0 0 C2.475 0.99 2.475 0.99 5 2 C5.33 4.64 5.66 7.28 6 10 C2.46413986 6.82679218 0.41421969 4.83256305 0 0 Z " fill="#77452B" transform="translate(23,34)"/>
<path d="M0 0 C2.00720923 0.28674418 4.0085944 0.61866701 6 1 C4.8125 3.5 4.8125 3.5 3 6 C0.3125 6.3125 0.3125 6.3125 -2 6 C-1.125 1.125 -1.125 1.125 0 0 Z " fill="#5D311A" transform="translate(35,58)"/>
<path d="M0 0 C0.33 1.32 0.66 2.64 1 4 C-0.98 5.32 -2.96 6.64 -5 8 C-5 5.69 -5 3.38 -5 1 C-3 0 -3 0 0 0 Z " fill="#DFCF9C" transform="translate(5,34)"/>
<path d="M0 0 C1.98 0.99 1.98 0.99 4 2 C4 4.64 4 7.28 4 10 C2.68 9.34 1.36 8.68 0 8 C0 5.36 0 2.72 0 0 Z " fill="#E8DAA5" transform="translate(0,11)"/>
<path d="M0 0 C0.33 0.99 0.66 1.98 1 3 C0.01 3.99 -0.98 4.98 -2 6 C-2.66 5.34 -3.32 4.68 -4 4 C-6.64 5.98 -9.28 7.96 -12 10 C-9.63747272 5.27494544 -6.74927004 1.94053975 -1.625 0.1875 C-1.08875 0.125625 -0.5525 0.06375 0 0 Z " fill="#B39C69" transform="translate(61,7)"/>
<path d="M0 0 C4.875 2.625 4.875 2.625 6 6 C5.67 6.66 5.34 7.32 5 8 C1.125 7.125 1.125 7.125 0 6 C-0.04080783 4.00041636 -0.04254356 1.99954746 0 0 Z " fill="#B39C69" transform="translate(0,5)"/>
<path d="M0 0 C3.35064512 2.19525025 5.37775439 4.30488499 7 8 C6.1875 10.3125 6.1875 10.3125 5 12 C4.566875 11.05125 4.13375 10.1025 3.6875 9.125 C2.20697799 5.79958063 2.20697799 5.79958063 -1 4 C-0.67 2.68 -0.34 1.36 0 0 Z " fill="#60341D" transform="translate(53,43)"/>
<path d="M0 0 C0.625 1.875 0.625 1.875 1 4 C0.34 4.66 -0.32 5.32 -1 6 C-0.01 6.66 0.98 7.32 2 8 C-0.64 8 -3.28 8 -6 8 C-6 7.01 -6 6.02 -6 5 C-5.38125 4.731875 -4.7625 4.46375 -4.125 4.1875 C-1.7004767 3.04443152 -1.7004767 3.04443152 0 0 Z " fill="#673A1C" transform="translate(51,24)"/>
<path d="M0 0 C4 4.5 4 4.5 4 9 C3.01 9 2.02 9 1 9 C-2 3.25 -2 3.25 -2 1 C-1.34 0.67 -0.68 0.34 0 0 Z " fill="#623B25" transform="translate(9,55)"/>
<path d="M0 0 C0.66 0 1.32 0 2 0 C3.26070809 2.9798555 2.99119908 4.02316031 1.8125 7.125 C0.00599212 9.99049526 -0.86809018 10.9200311 -4 12 C-3.525625 10.948125 -3.05125 9.89625 -2.5625 8.8125 C-1.30676259 5.89824149 -0.47765619 3.15253086 0 0 Z " fill="#542812" transform="translate(41,33)"/>
<path d="M0 0 C0.33 1.98 0.66 3.96 1 6 C-2 6 -2 6 -5 5 C-4.34 4.01 -3.68 3.02 -3 2 C-4.32 1.34 -5.64 0.68 -7 0 C-3.86650268 -1.04449911 -3.01031744 -0.93423645 0 0 Z " fill="#3F170A" transform="translate(43,58)"/>
<path d="M0 0 C0 3.38878512 -0.64361198 4.39757217 -2.4375 7.1875 C-2.88996094 7.90292969 -3.34242187 8.61835938 -3.80859375 9.35546875 C-4.20175781 9.89816406 -4.59492187 10.44085938 -5 11 C-5.33 11 -5.66 11 -6 11 C-6.375 8.875 -6.375 8.875 -6 6 C-4.20659643 3.76086748 -2.16547337 1.87545461 0 0 Z " fill="#86703F" transform="translate(55,11)"/>
<path d="M0 0 C1.875 0.1875 1.875 0.1875 4 1 C5.25 3.5625 5.25 3.5625 6 6 C5.34 6.66 4.68 7.32 4 8 C0 3.375 0 3.375 0 0 Z " fill="#6A3C21" transform="translate(46,37)"/>
<path d="M0 0 C-0.33 4.95 -0.66 9.9 -1 15 C-1.33 15 -1.66 15 -2 15 C-2.07347656 13.84371094 -2.07347656 13.84371094 -2.1484375 12.6640625 C-2.22320313 11.66117188 -2.29796875 10.65828125 -2.375 9.625 C-2.44460937 8.62726562 -2.51421875 7.62953125 -2.5859375 6.6015625 C-2.76363964 3.84491121 -2.76363964 3.84491121 -5 2 C-2 0 -2 0 0 0 Z " fill="#925637" transform="translate(34,30)"/>
<path d="M0 0 C0.66 0 1.32 0 2 0 C2 0.99 2 1.98 2 3 C2.66 3 3.32 3 4 3 C4 4.32 4 5.64 4 7 C2.68 7 1.36 7 0 7 C-1.125 2.25 -1.125 2.25 0 0 Z " fill="#6E3E20" transform="translate(44,57)"/>
<path d="M0 0 C0.66 0.99 1.32 1.98 2 3 C1.01 3.33 0.02 3.66 -1 4 C-1 4.66 -1 5.32 -1 6 C-2.65 6 -4.3 6 -6 6 C-2.25 1.125 -2.25 1.125 0 0 Z " fill="#EFE4AD" transform="translate(8,41)"/>
<path d="M0 0 C1.98 0 3.96 0 6 0 C6.33 0.99 6.66 1.98 7 3 C6.34 3.66 5.68 4.32 5 5 C2.5 3.625 2.5 3.625 0 2 C0 1.34 0 0.68 0 0 Z " fill="#E9D7A3" transform="translate(47,32)"/>
<path d="M0 0 C0 1.98 0 3.96 0 6 C-1.98 6.99 -1.98 6.99 -4 8 C-4.36780384 3.46375267 -4.36780384 3.46375267 -2.5625 1.1875 C-1 0 -1 0 0 0 Z " fill="#ECE1AB" transform="translate(64,13)"/>
<path d="M0 0 C0.86625 0.4640625 0.86625 0.4640625 1.75 0.9375 C3.84294184 1.92583364 5.74535275 2.5168613 8 3 C7.67 4.32 7.34 5.64 7 7 C6.01 7 5.02 7 4 7 C2.02 3.535 2.02 3.535 0 0 Z " fill="#956E51" transform="translate(45,40)"/>
<path d="M0 0 C2.31 0.33 4.62 0.66 7 1 C5.86695008 4.39914975 4.87481525 5.05254451 2 7 C2.33 5.02 2.66 3.04 3 1 C1.68 1.33 0.36 1.66 -1 2 C-0.67 1.34 -0.34 0.68 0 0 Z " fill="#6A3D26" transform="translate(31,29)"/>
<path d="M0 0 C0.99 0.495 0.99 0.495 2 1 C4.09821215 0.60061233 4.09821215 0.60061233 6 0 C5 2 4 4 3 6 C2.01 5.67 1.02 5.34 0 5 C0 3.35 0 1.7 0 0 Z " fill="#3F140A" transform="translate(33,23)"/>
<path d="M0 0 C0.99 0 1.98 0 3 0 C3.25 6.625 3.25 6.625 1 10 C-0.1577506 6.52674819 -0.06866652 3.63932552 0 0 Z " fill="#280301" transform="translate(31,54)"/>
<path d="M0 0 C0.66 0.66 1.32 1.32 2 2 C1.01 4.64 0.02 7.28 -1 10 C-1.66 10 -2.32 10 -3 10 C-2.25 3.375 -2.25 3.375 0 0 Z " fill="#876246" transform="translate(10,46)"/>
<path d="M0 0 C0.66 0.33 1.32 0.66 2 1 C2.33 1.99 2.66 2.98 3 4 C1.02 4.33 -0.96 4.66 -3 5 C-3 4.01 -3 3.02 -3 2 C-2.01 1.34 -1.02 0.68 0 0 Z " fill="#B9A36D" transform="translate(5,38)"/>
<path d="M0 0 C0.99 0 1.98 0 3 0 C1.62845496 2.95409701 0.01136276 5.44008376 -2 8 C-2.6875 6.25 -2.6875 6.25 -3 4 C-1.75 1.75 -1.75 1.75 0 0 Z " fill="#66381E" transform="translate(15,37)"/>
<path d="M0 0 C0.99 0.33 1.98 0.66 3 1 C2.1875 4.4375 2.1875 4.4375 1 8 C0.01 8.33 -0.98 8.66 -2 9 C-1.51421457 5.87709365 -1.0013988 3.00419641 0 0 Z " fill="#663D24" transform="translate(57,32)"/>
<path d="M0 0 C3.875 1.875 3.875 1.875 5 3 C5.04063832 4.66617115 5.042721 6.33388095 5 8 C2.20127563 5.47211993 0.54226981 3.79588866 0 0 Z " fill="#87723F" transform="translate(10,14)"/>
<path d="M0 0 C1.85776765 3.13498292 2.20140476 5.37471432 2 9 C1.01 8.34 0.02 7.68 -1 7 C-1.25 3.9375 -1.25 3.9375 -1 1 C-0.67 0.67 -0.34 0.34 0 0 Z " fill="#925637" transform="translate(29,50)"/>
<path d="M0 0 C-0.33 2.97 -0.66 5.94 -1 9 C-3.1519437 5.77208445 -3.20086443 4.71599191 -3 1 C-1 0 -1 0 0 0 Z " fill="#50230F" transform="translate(34,48)"/>
<path d="M0 0 C2 2 2 2 2.3125 4.5 C2.209375 5.325 2.10625 6.15 2 7 C1.01 7.66 0.02 8.32 -1 9 C-0.67 6.03 -0.34 3.06 0 0 Z " fill="#925637" transform="translate(35,50)"/>
<path d="M0 0 C3.16115776 1.36983503 3.9927092 1.9890638 6 5 C5.67 5.99 5.34 6.98 5 8 C4.67 7.01 4.34 6.02 4 5 C3.34 5 2.68 5 2 5 C1.34 3.35 0.68 1.7 0 0 Z " fill="#997556" transform="translate(52,47)"/>
</svg>
