<?xml version="1.0" encoding="UTF-8"?>
<svg version="1.1" xmlns="http://www.w3.org/2000/svg" width="64" height="64">
<path d="M0 0 C14.19 0 28.38 0 43 0 C43 0.99 43 1.98 43 3 C45.6905528 1.77992056 45.6905528 1.77992056 48 0 C49.99958364 -0.04080783 52.00045254 -0.04254356 54 0 C53.34 2.97 52.68 5.94 52 9 C53.32 8.01 54.64 7.02 56 6 C56.11638426 10.06225821 56.18731373 14.1240863 56.25 18.1875 C56.28351563 19.33798828 56.31703125 20.48847656 56.3515625 21.67382812 C56.37089844 23.34155273 56.37089844 23.34155273 56.390625 25.04296875 C56.4220459 26.57473755 56.4220459 26.57473755 56.45410156 28.13745117 C55.87766672 31.77116004 54.52390702 33.3715474 52 36 C51.01 36.66 50.02 37.32 49 38 C51.31 38 53.62 38 56 38 C57.21436706 48.27152134 57.21436706 48.27152134 54.39453125 52.28515625 C50.96946273 55.31181154 47.44962532 57.74854288 43 59 C43 60.65 43 62.3 43 64 C26.17 64 9.34 64 -8 64 C-8 47.17 -8 30.34 -8 13 C-1 20 -1 20 -1 25 C-0.34 24.34 0.32 23.68 1 23 C0.505 21.88625 0.01 20.7725 -0.5 19.625 C-3.09613993 12.69785887 -2.72013415 6.80033537 0 0 Z " fill="#0D0B0A" transform="translate(8,0)"/>
<path d="M0 0 C0 0.99 0 1.98 0 3 C2.6905528 1.77992056 2.6905528 1.77992056 5 0 C6.99958364 -0.04080783 9.00045254 -0.04254356 11 0 C10.34 2.97 9.68 5.94 9 9 C10.32 8.01 11.64 7.02 13 6 C13.11638426 10.06225821 13.18731373 14.1240863 13.25 18.1875 C13.30027344 19.91323242 13.30027344 19.91323242 13.3515625 21.67382812 C13.36445312 22.78564453 13.37734375 23.89746094 13.390625 25.04296875 C13.41157227 26.06414795 13.43251953 27.08532715 13.45410156 28.13745117 C12.87766672 31.77116004 11.52390702 33.3715474 9 36 C8.01 36.66 7.02 37.32 6 38 C8.31 38 10.62 38 13 38 C12.65930765 41.15140423 12.41923159 42.60781561 10.0625 44.8125 C8 46 8 46 6 46 C6 46.66 6 47.32 6 48 C-4.37357631 51.62870159 -4.37357631 51.62870159 -10 50 C-10.99 51.98 -11.98 53.96 -13 56 C-13.0825 55.38125 -13.165 54.7625 -13.25 54.125 C-13.79252374 51.87315408 -13.79252374 51.87315408 -15.75 50.9375 C-16.4925 50.628125 -17.235 50.31875 -18 50 C-18.825 49.484375 -19.65 48.96875 -20.5 48.4375 C-22.7421556 47.14826053 -24.48078813 46.46652072 -27 46 C-24.64722731 43.27573689 -22.37503669 42.1858237 -19 41 C-20.258125 41.12375 -21.51625 41.2475 -22.8125 41.375 C-23.87404297 41.47941406 -23.87404297 41.47941406 -24.95703125 41.5859375 C-27.29988142 41.92665391 -27.29988142 41.92665391 -30 44 C-31.40454548 37.88019467 -32.23268915 32.28260706 -32 26 C-31.34 26.99 -30.68 27.98 -30 29 C-30.0825 28.13375 -30.165 27.2675 -30.25 26.375 C-29.94371259 22.24011993 -28.47891278 20.25357303 -26 17 C-23.69927616 19.30072384 -23.60718389 20.2521457 -23.0625 23.375 C-22.3464029 26.9325704 -21.57025209 29.31291827 -19 32 C-19.3196875 31.29230469 -19.639375 30.58460937 -19.96875 29.85546875 C-22.05069745 24.09068243 -22.21187618 17.84869595 -19.796875 12.171875 C-18.31533053 9.67270402 -16.7111704 7.34589024 -15 5 C-14.443125 3.96875 -13.88625 2.9375 -13.3125 1.875 C-9.42667552 -1.2756685 -4.80292209 -0.37264051 0 0 Z " fill="#271715" transform="translate(51,0)"/>
<path d="M0 0 C5.56675778 5.56675778 7.1482299 9.37613179 8 17 C7.94612824 22.7642785 7.32277515 27.69759935 5 33 C5.66 33 6.32 33 7 33 C7.33 31.68 7.66 30.36 8 29 C9.32 28.67 10.64 28.34 12 28 C12.67756882 29.55780332 13.34159457 31.12150096 14 32.6875 C14.37125 33.55761719 14.7425 34.42773438 15.125 35.32421875 C16.01870488 38.0572002 16.16449676 40.14700934 16 43 C19.0109362 40.9927092 19.63016497 40.16115776 21 37 C21.33 37.99 21.66 38.98 22 40 C22.66 40 23.32 40 24 40 C23.505 39.505 23.505 39.505 23 39 C23.4375 36.9375 23.4375 36.9375 24 35 C24.66 35 25.32 35 26 35 C26 35.66 26 36.32 26 37 C27.98 36.505 27.98 36.505 30 36 C30 36.99 30 37.98 30 39 C30.99 39 31.98 39 33 39 C33 39.99 33 40.98 33 42 C33.99 42.495 33.99 42.495 35 43 C33.02 43.495 33.02 43.495 31 44 C31.66 45.32 32.32 46.64 33 48 C33.53367188 47.67386719 34.06734375 47.34773438 34.6171875 47.01171875 C37.59106777 45.74903844 39.90351692 45.76896644 43.125 45.8125 C44.17945313 45.81894531 45.23390625 45.82539062 46.3203125 45.83203125 C49 46 49 46 51 47 C51 48.32 51 49.64 51 51 C34.17 51 17.34 51 0 51 C0 34.17 0 17.34 0 0 Z " fill="#0F0D0C" transform="translate(0,13)"/>
<path d="M0 0 C8.58 0 17.16 0 26 0 C24.44632876 3.10734249 22.87813712 5.7736462 20.9375 8.625 C16.66037272 14.92042939 16.58341258 19.39485757 17 27 C17.47501903 29.48249074 18.13369627 31.61766475 19 34 C13.88192851 29.22313327 12.91242271 25.9083434 12 19 C11.67 18.67 11.34 18.34 11 18 C8.01485372 22.10457614 7.7045561 24.97745369 8 30 C7.34 29.67 6.68 29.34 6 29 C6.33 34.61 6.66 40.22 7 46 C5.515 46.495 5.515 46.495 4 47 C3.67 47.66 3.34 48.32 3 49 C0.6969113 42.43345544 -0.33693273 36.96327638 0 30 C0.33 30 0.66 30 1 30 C1 27.36 1 24.72 1 22 C0.34 22 -0.32 22 -1 22 C-1.66 19.69 -2.32 17.38 -3 15 C-1.02 15.99 0.96 16.98 3 18 C2.33291016 17.34644531 2.33291016 17.34644531 1.65234375 16.6796875 C-0.08547812 14.85081801 -1.62577895 13.1184146 -3 11 C-2.875 7.5625 -2.875 7.5625 -2 5 C1.82946843 6.45255699 3.12050295 8.42895561 5 12 C4.56089921 7.16989127 3.57142007 5.22579877 0 2 C0 1.34 0 0.68 0 0 Z " fill="#0D0B0A" transform="translate(14,0)"/>
<path d="M0 0 C0.66 1.32 1.32 2.64 2 4 C2.680625 3.505 3.36125 3.01 4.0625 2.5 C7.59465009 0.69634889 10.08636991 0.76978647 14 1 C11.11964908 3.24027294 8.15133488 5.16172132 5 7 C5.556875 7.103125 6.11375 7.20625 6.6875 7.3125 C11.42368283 8.72055436 14.67446274 11.42812665 18 15 C18.66 13.02 19.32 11.04 20 9 C20.33 9.66 20.66 10.32 21 11 C26.10311784 11.20829052 30.13833612 10.52522788 35 9 C35.66 9 36.32 9 37 9 C37 8.34 37 7.68 37 7 C40.465 5.02 40.465 5.02 44 3 C44.43210483 6.07874691 44.67132031 8.02329288 44 11 C40.2197426 15.88643959 34.90671923 19.35386513 29 21 C25.61224767 21.06980823 22.27386805 21.00133217 18.890625 20.8125 C15.97681856 20.72597088 15.97681856 20.72597088 14.109375 22.5 C13.74328125 22.995 13.3771875 23.49 13 24 C12.34 23.67 11.68 23.34 11 23 C11 21.33333333 11 19.66666667 11 18 C10.34 17.67 9.68 17.34 9 17 C10.32 16.67 11.64 16.34 13 16 C13 15.01 13 14.02 13 13 C12.01 13 11.02 13 10 13 C9.67 12.34 9.34 11.68 9 11 C8.01 11 7.02 11 6 11 C6 10.34 6 9.68 6 9 C5.01 9.495 5.01 9.495 4 10 C3.67 10.99 3.34 11.98 3 13 C3.66 13 4.32 13 5 13 C5 13.66 5 14.32 5 15 C5.66 15.33 6.32 15.66 7 16 C6.01 16 5.02 16 4 16 C4 15.34 4 14.68 4 14 C3.34 14 2.68 14 2 14 C2 13.01 2 12.02 2 11 C1.34 11 0.68 11 0 11 C-0.33 10.01 -0.66 9.02 -1 8 C-0.67 7.34 -0.34 6.68 0 6 C0.039992 4.00039988 0.04346799 1.99952758 0 0 Z " fill="#100E0D" transform="translate(20,39)"/>
<path d="M0 0 C1.051875 0.66 2.10375 1.32 3.1875 2 C6.30303798 3.77761542 8.35918971 4.49200139 12 4 C13.051875 3.690625 13.051875 3.690625 14.125 3.375 C14.74375 3.25125 15.3625 3.1275 16 3 C16.99 3.66 17.98 4.32 19 5 C21.38360871 5.38239743 21.38360871 5.38239743 24.03515625 5.44921875 C25.00904297 5.49240234 25.98292969 5.53558594 26.98632812 5.58007812 C28.00146484 5.61552734 29.01660156 5.65097656 30.0625 5.6875 C31.08150391 5.73455078 32.10050781 5.78160156 33.15039062 5.83007812 C38.23439566 6.27856652 38.23439566 6.27856652 43 5 C42.61402985 7.79828356 42.19863427 8.8205884 40.0625 10.75 C38 12 38 12 36 12 C36 12.66 36 13.32 36 14 C25.62642369 17.62870159 25.62642369 17.62870159 20 16 C19.01 17.98 18.02 19.96 17 22 C16.9175 21.38125 16.835 20.7625 16.75 20.125 C16.20747626 17.87315408 16.20747626 17.87315408 14.25 16.9375 C13.5075 16.628125 12.765 16.31875 12 16 C11.175 15.484375 10.35 14.96875 9.5 14.4375 C7.2578444 13.14826053 5.51921187 12.46652072 3 12 C5.35277269 9.27573689 7.62496331 8.1858237 11 7 C5.8306511 7.40556131 5.8306511 7.40556131 1 9 C0.67 6.03 0.34 3.06 0 0 Z " fill="#290F0E" transform="translate(21,34)"/>
<path d="M0 0 C0.66 0 1.32 0 2 0 C2.67756882 1.55780332 3.34159457 3.12150096 4 4.6875 C4.37125 5.55761719 4.7425 6.42773438 5.125 7.32421875 C6.01870488 10.0572002 6.16449676 12.14700934 6 15 C9.0109362 12.9927092 9.63016497 12.16115776 11 9 C11.33 9.99 11.66 10.98 12 12 C12.66 12 13.32 12 14 12 C13.67 11.67 13.34 11.34 13 11 C13.4375 8.9375 13.4375 8.9375 14 7 C14.66 7 15.32 7 16 7 C16 7.66 16 8.32 16 9 C17.32 8.67 18.64 8.34 20 8 C20 8.99 20 9.98 20 11 C20.99 11 21.98 11 23 11 C23 11.99 23 12.98 23 14 C23.66 14.33 24.32 14.66 25 15 C23.68 15.33 22.36 15.66 21 16 C21.66 17.32 22.32 18.64 23 20 C23.80050781 19.51080078 23.80050781 19.51080078 24.6171875 19.01171875 C27.59106777 17.74903844 29.90351692 17.76896644 33.125 17.8125 C34.17945313 17.81894531 35.23390625 17.82539062 36.3203125 17.83203125 C39 18 39 18 41 19 C41 20.32 41 21.64 41 23 C36.45867203 23.1455841 31.91794659 23.23417333 27.375 23.3125 C26.08980469 23.35439453 24.80460937 23.39628906 23.48046875 23.43945312 C12.81987706 23.57754369 12.81987706 23.57754369 9.265625 20.546875 C8.51796875 19.70640625 7.7703125 18.8659375 7 18 C5.33607955 17.32650839 3.66967972 16.6590841 2 16 C-0.375 14.5625 -0.375 14.5625 -2 12 C-2.08189392 8.26563717 -1.70892955 4.66583229 -1 1 C-0.67 0.67 -0.34 0.34 0 0 Z " fill="#1E1C1A" transform="translate(10,41)"/>
<path d="M0 0 C0.33 0 0.66 0 1 0 C1.15855469 0.73605469 1.31710938 1.47210938 1.48046875 2.23046875 C2.92402795 8.26789588 3.95887742 12.21915807 9 16 C11.64440639 16.8814688 13.28060752 17.16174818 16 17.1875 C17.0209375 17.20876953 17.0209375 17.20876953 18.0625 17.23046875 C20.32614132 17.10940411 20.32614132 17.10940411 23 15 C23.71362066 21.77939631 23.71362066 21.77939631 21.83984375 24.984375 C16.96581193 30.81825452 12.59572368 33.19777315 5.0859375 34.08203125 C3 34 3 34 0 32 C0.33 30.68 0.66 29.36 1 28 C0.34 27.67 -0.32 27.34 -1 27 C0.32 24.69 1.64 22.38 3 20 C3.66 20 4.32 20 5 20 C5 15.81014046 4.81627529 15.36410344 2.5 12.25 C-0.36959441 7.94965007 -0.45413444 5.08630573 0 0 Z " fill="#35322D" transform="translate(41,4)"/>
<path d="M0 0 C0.33 0 0.66 0 1 0 C1.14695312 0.87011719 1.14695312 0.87011719 1.296875 1.7578125 C2.491502 7.99870874 4.41856281 12.41856281 9 17 C7.9275 17.20625 6.855 17.4125 5.75 17.625 C0.48727718 19.55466504 -0.74149605 22.6088425 -3.25 27.375 C-3.4975 27.91125 -3.745 28.4475 -4 29 C-7.54407966 23.53621052 -8.06450969 18.31220978 -7 12 C-5.25383662 7.84766507 -3.23101562 3.23101562 0 0 Z " fill="#34312C" transform="translate(40,5)"/>
<path d="M0 0 C1.051875 0.66 2.10375 1.32 3.1875 2 C6.30303798 3.77761542 8.35918971 4.49200139 12 4 C12.66 3.7525 13.32 3.505 14 3.25 C16 3 16 3 18.75 4.9375 C19.86375 5.9584375 19.86375 5.9584375 21 7 C20.484375 7.33 19.96875 7.66 19.4375 8 C17.56220129 10.12993319 17.56220129 10.12993319 18.5 13.9375 C18.62246094 14.63746094 18.74492188 15.33742188 18.87109375 16.05859375 C19 18 19 18 17.5625 20.5 C17.046875 20.995 16.53125 21.49 16 22 C16 20.68 16 19.36 16 18 C15.443125 17.731875 14.88625 17.46375 14.3125 17.1875 C12 16 12 16 9.5 14.4375 C7.2578444 13.14826053 5.51921187 12.46652072 3 12 C5.35277269 9.27573689 7.62496331 8.1858237 11 7 C5.8306511 7.40556131 5.8306511 7.40556131 1 9 C0.67 6.03 0.34 3.06 0 0 Z " fill="#3E3A32" transform="translate(21,34)"/>
<path d="M0 0 C0.33 0 0.66 0 1 0 C1 2.31 1 4.62 1 7 C2.32 6.01 3.64 5.02 5 4 C5.0810206 6.10353495 5.13919907 8.20795952 5.1875 10.3125 C5.22230469 11.48425781 5.25710937 12.65601563 5.29296875 13.86328125 C5 17 5 17 3.75 18.90625 C0.61284491 20.86697193 -2.38542599 20.17776593 -6 20 C-7.6695901 16.31805626 -8.23636534 14.67934373 -6.8828125 10.7890625 C-6.30273438 9.74492187 -5.72265625 8.70078125 -5.125 7.625 C-4.55007812 6.56539062 -3.97515625 5.50578125 -3.3828125 4.4140625 C-2.92648438 3.61742187 -2.47015625 2.82078125 -2 2 C-1.34 2 -0.68 2 0 2 C0 1.34 0 0.68 0 0 Z " fill="#453F36" transform="translate(59,2)"/>
<path d="M0 0 C1.4540625 0.0309375 1.4540625 0.0309375 2.9375 0.0625 C2.6075 2.0425 2.2775 4.0225 1.9375 6.0625 C0.6175 5.4025 -0.7025 4.7425 -2.0625 4.0625 C-2.73811748 5.7255584 -3.40183281 7.39344605 -4.0625 9.0625 C-4.33835937 9.71347656 -4.61421875 10.36445313 -4.8984375 11.03515625 C-5.17945313 11.72480469 -5.46046875 12.41445312 -5.75 13.125 C-6.15798828 14.10146484 -6.15798828 14.10146484 -6.57421875 15.09765625 C-7.1525769 17.42496944 -6.80929583 18.81208839 -6.0625 21.0625 C-9.45711728 20.77961523 -10.80382059 20.32117941 -13.25 17.875 C-16.64255888 12.61068449 -17.31126431 8.28160773 -17.0625 2.0625 C-16.7325 2.0625 -16.4025 2.0625 -16.0625 2.0625 C-15.7325 3.7125 -15.4025 5.3625 -15.0625 7.0625 C-12.01863276 7.14476668 -9.99074652 7.03858217 -7.0625 6.0625 C-7.3925 5.0725 -7.7225 4.0825 -8.0625 3.0625 C-7.423125 2.753125 -6.78375 2.44375 -6.125 2.125 C-2.0825 0.0425 -2.0825 0.0425 0 0 Z " fill="#191615" transform="translate(59.0625,-0.0625)"/>
<path d="M0 0 C5.45674722 5.27485565 7.14675656 9.56753005 8 17 C8.10598978 24.04350261 7.12705719 29.2471324 3 35 C2.01 35.495 2.01 35.495 1 36 C1.2475 34.824375 1.2475 34.824375 1.5 33.625 C2.78858221 25.71561982 2.78858221 25.71561982 0.99609375 18.2109375 C-0.52996932 14.82367595 -0.20864045 11.39157662 -0.125 7.75 C-0.11597656 7.00492188 -0.10695312 6.25984375 -0.09765625 5.4921875 C-0.07418358 3.66131941 -0.03831525 1.83061762 0 0 Z " fill="#2A2723" transform="translate(0,13)"/>
<path d="M0 0 C0.66 0 1.32 0 2 0 C6.77676538 10.37357631 6.77676538 10.37357631 5 16 C5.85851562 16.16822266 5.85851562 16.16822266 6.734375 16.33984375 C9.24789112 17.07223034 11.05930543 18.13854853 13.25 19.5625 C13.95640625 20.01753906 14.6628125 20.47257812 15.390625 20.94140625 C15.92171875 21.29074219 16.4528125 21.64007813 17 22 C15.18359375 22.64453125 15.18359375 22.64453125 13 23 C11.47077507 21.79614207 9.94623866 20.5809027 8.51171875 19.265625 C6.53664279 17.61207304 4.38211233 16.9403075 2 16 C-0.375 14.5625 -0.375 14.5625 -2 12 C-2.08189392 8.26563717 -1.70892955 4.66583229 -1 1 C-0.67 0.67 -0.34 0.34 0 0 Z " fill="#36332D" transform="translate(10,41)"/>
<path d="M0 0 C3.96 0 7.92 0 12 0 C12 5.28497409 12 5.28497409 11 8 C8.53249582 9.89888271 5.93022354 10.98543513 3 12 C2.30062798 10.5682384 1.61587282 9.12932968 0.9375 7.6875 C0.55464844 6.88699219 0.17179687 6.08648437 -0.22265625 5.26171875 C-1 3 -1 3 0 0 Z " fill="#151312" transform="translate(19,0)"/>
<path d="M0 0 C0.33 0 0.66 0 1 0 C1.15855469 0.73605469 1.31710938 1.47210938 1.48046875 2.23046875 C2.92402795 8.26789588 3.95887742 12.21915807 9 16 C11.64440639 16.8814688 13.28060752 17.16174818 16 17.1875 C17.0209375 17.20876953 17.0209375 17.20876953 18.0625 17.23046875 C20.32614132 17.10940411 20.32614132 17.10940411 23 15 C23.70978342 21.74294249 23.70978342 21.74294249 21.83984375 25.0546875 C19.43879411 28.01454921 17.79448525 29.74092872 14.125 30.9375 C13.42375 30.958125 12.7225 30.97875 12 31 C12.763125 30.443125 13.52625 29.88625 14.3125 29.3125 C16.96140888 27.03320631 18.38288822 25.06400128 20 22 C18.7934375 21.9071875 18.7934375 21.9071875 17.5625 21.8125 C11.16260161 20.35287405 5.74450086 17.68169443 1.9375 12.1875 C-0.38937159 8.00391239 -0.42054808 4.71013855 0 0 Z " fill="#7E705B" transform="translate(41,4)"/>
<path d="M0 0 C2.29065959 2.29065959 2.35794815 3.14768889 2.875 6.25 C3.73748097 10.57631584 5.42531142 13.39543599 8 17 C8 17.99 8 18.98 8 20 C3.57299578 18.60865582 1.00586708 16.52115858 -2 13 C-2 12.01 -2 11.02 -2 10 C-2.66 10 -3.32 10 -4 10 C-3.5205537 5.78087253 -2.83374881 3.20336822 0 0 Z " fill="#950000" transform="translate(25,17)"/>
<path d="M0 0 C0.33 0 0.66 0 1 0 C0.95359375 0.74765625 0.9071875 1.4953125 0.859375 2.265625 C0.47723024 8.23209988 0.47723024 8.23209988 2.6875 13.5625 C4.94609743 15.06688038 4.94609743 15.06688038 7.4375 15.9375 C10.7375383 17.30580857 12.60252344 19.39702545 15 22 C11.21826796 22.55150259 9.12400639 22.78892524 5.9296875 20.546875 C4.55667012 19.30437258 3.2022917 18.04096712 1.8671875 16.7578125 C-0.23787655 14.77605764 -2.45065075 13.35434179 -5 12 C-4.42365861 7.24518354 -2.44931479 4.02951788 0 0 Z " fill="#201D1B" transform="translate(8,42)"/>
<path d="M0 0 C0 3.56216738 -0.7021901 4.22928478 -2.875 6.9375 C-8.19967084 13.61263084 -8.57477161 18.52211878 -8 27 C-7.52001824 29.47852653 -6.8652856 31.6204646 -6 34 C-9.93484092 30.3274818 -11.88540869 28.0259743 -12.1953125 22.546875 C-12.17210938 21.29390625 -12.14890625 20.0409375 -12.125 18.75 C-12.10695313 17.48671875 -12.08890625 16.2234375 -12.0703125 14.921875 C-12.04710938 13.95765625 -12.02390625 12.9934375 -12 12 C-11.34 12 -10.68 12 -10 12 C-9.75507813 11.42765625 -9.51015625 10.8553125 -9.2578125 10.265625 C-7.78889901 7.61975598 -6.04651756 5.85146861 -3.875 3.75 C-3.15054688 3.04359375 -2.42609375 2.3371875 -1.6796875 1.609375 C-1.12539063 1.07828125 -0.57109375 0.5471875 0 0 Z " fill="#0F0C0C" transform="translate(39,0)"/>
<path d="M0 0 C0 4.19226332 -2.19435148 6.15723973 -5 9 C-9.46123447 12.85288432 -12.56272253 13.40304252 -18.2421875 13.140625 C-18.82226562 13.09421875 -19.40234375 13.0478125 -20 13 C-20.66 11.68 -21.32 10.36 -22 9 C-20.989375 8.87625 -19.97875 8.7525 -18.9375 8.625 C-15.1629219 8.02586062 -11.66109403 7.07679236 -8 6 C-7.34 6 -6.68 6 -6 6 C-6 5.34 -6 4.68 -6 4 C-4.03852126 2.61061923 -2.03833424 1.2739589 0 0 Z " fill="#1F1C1A" transform="translate(63,42)"/>
<path d="M0 0 C0.75 1.6875 0.75 1.6875 1 4 C-1.08117669 7.12176503 -2.86651634 8.91101089 -6 11 C-3.69 11 -1.38 11 1 11 C0.01 12.32 -0.98 13.64 -2 15 C-2 14.34 -2 13.68 -2 13 C-8.93 13 -15.86 13 -23 13 C-23 12.67 -23 12.34 -23 12 C-19.52198118 10.75148043 -16.19411747 9.85941526 -12.5625 9.25 C-7.58519393 8.20569213 -4.39312407 5.71627874 -1 2 C-0.67 1.34 -0.34 0.68 0 0 Z " fill="#161412" transform="translate(63,27)"/>
<path d="M0 0 C1.71316406 0.07347656 1.71316406 0.07347656 3.4609375 0.1484375 C4.60820313 0.18195312 5.75546875 0.21546875 6.9375 0.25 C9.8359375 0.5234375 9.8359375 0.5234375 11.8359375 1.5234375 C11.8359375 2.8434375 11.8359375 4.1634375 11.8359375 5.5234375 C5.5659375 5.5234375 -0.7040625 5.5234375 -7.1640625 5.5234375 C-3.1640625 0.5234375 -3.1640625 0.5234375 0 0 Z " fill="#484642" transform="translate(39.1640625,58.4765625)"/>
<path d="M0 0 C0.66 0 1.32 0 2 0 C2 0.66 2 1.32 2 2 C3.32 1.67 4.64 1.34 6 1 C6 1.99 6 2.98 6 4 C6.99 4 7.98 4 9 4 C9 4.99 9 5.98 9 7 C9.66 7.33 10.32 7.66 11 8 C9.68 8.33 8.36 8.66 7 9 C7.33 9.99 7.66 10.98 8 12 C2.46153846 11.38461538 2.46153846 11.38461538 0.125 9.4375 C-0.24625 8.963125 -0.6175 8.48875 -1 8 C-0.67 7.01 -0.34 6.02 0 5 C-0.33 4.67 -0.66 4.34 -1 4 C-0.5625 1.9375 -0.5625 1.9375 0 0 Z " fill="#654036" transform="translate(24,48)"/>
<path d="M0 0 C0.33 0.99 0.66 1.98 1 3 C2.32 2.01 3.64 1.02 5 0 C5.08078641 2.12438339 5.13909141 4.2496323 5.1875 6.375 C5.22230469 7.55835938 5.25710937 8.74171875 5.29296875 9.9609375 C5.19628906 10.96382812 5.09960938 11.96671875 5 13 C4.01 13.66 3.02 14.32 2 15 C-0.125 13.125 -0.125 13.125 -2 10 C-1.75739133 6.54546347 -0.9546751 3.32201132 0 0 Z " fill="#12100F" transform="translate(59,6)"/>
<path d="M0 0 C0.33 0 0.66 0 1 0 C1.33 1.65 1.66 3.3 2 5 C5.04386724 5.08226668 7.07175348 4.97608217 10 4 C9.38722388 6.96175123 8.74627478 8.38058783 7 11 C7.31730524 14.63939932 7.31730524 14.63939932 8 18 C4.15521125 16.54163185 2.8177085 14.63541701 1 11 C-0.32157924 7.39569299 -0.07313094 3.80280908 0 0 Z " fill="#0E0C0B" transform="translate(42,2)"/>
<path d="M0 0 C0.33 0.99 0.66 1.98 1 3 C-3.75 7 -3.75 7 -6 7 C-6 7.66 -6 8.32 -6 9 C-8.31 9.33 -10.62 9.66 -13 10 C-11.68 7.03 -10.36 4.06 -9 1 C-7.700625 1.020625 -6.40125 1.04125 -5.0625 1.0625 C-3.70834367 1.08399454 -2.35243917 1.07148199 -1 1 C-0.67 0.67 -0.34 0.34 0 0 Z " fill="#595043" transform="translate(63,39)"/>
<path d="M0 0 C1.32 0 2.64 0 4 0 C4 1.65 4 3.3 4 5 C3.34 5 2.68 5 2 5 C1.896875 5.598125 1.79375 6.19625 1.6875 6.8125 C0.90175967 9.31258286 0.03081147 10.37535082 -2 12 C-2.66 12 -3.32 12 -4 12 C-4 11.34 -4 10.68 -4 10 C-4.66 9.67 -5.32 9.34 -6 9 C-4.68 6.69 -3.36 4.38 -2 2 C-1.34 2 -0.68 2 0 2 C0 1.34 0 0.68 0 0 Z " fill="#F14003" transform="translate(46,22)"/>
<path d="M0 0 C2.31 0 4.62 0 7 0 C7.33 1.98 7.66 3.96 8 6 C4.77786243 8.14809171 3.72224599 8.29386153 0 8 C-0.33 7.67 -0.66 7.34 -1 7 C-0.71269945 4.66055264 -0.38063221 2.3260857 0 0 Z " fill="#1C1917" transform="translate(44,0)"/>
<path d="M0 0 C5.43407348 5.25293769 7.19673787 9.57745123 8 17 C7.88340595 20.70302709 7.51595227 24.33255549 7 28 C6.67 28 6.34 28 6 28 C5.98582031 27.27296875 5.97164063 26.5459375 5.95703125 25.796875 C5.61616312 18.61100637 4.14149917 13.09143167 1.05859375 6.59375 C-0 4 -0 4 0 0 Z " fill="#6A5E4C" transform="translate(0,13)"/>
<path d="M0 0 C3.45706912 3.22975499 4.75602598 6.32624385 5.19140625 11.09765625 C5.25 13.25 5.25 13.25 5 17 C4.34 17.66 3.68 18.32 3 19 C0.6969113 12.43345544 -0.33693273 6.96327638 0 0 Z " fill="#35302A" transform="translate(14,30)"/>
<path d="M0 0 C4.20626034 1.50223584 5.73900021 4.28550034 8 8 C7.01 9.32 6.02 10.64 5 12 C2.75668093 10.1663305 0.71602887 8.34435944 -1 6 C-0.875 2.625 -0.875 2.625 0 0 Z " fill="#2A2722" transform="translate(12,5)"/>
<path d="M0 0 C3.96 0 7.92 0 12 0 C12 0.66 12 1.32 12 2 C9.61178873 4.08005497 7.8632025 5.01154786 4.6640625 4.96875 C2.42498602 4.71447002 0.21722032 4.40093527 -2 4 C-1.34 2.68 -0.68 1.36 0 0 Z " fill="#9E0100" transform="translate(42,40)"/>
<path d="M0 0 C0.99 0.495 0.99 0.495 2 1 C4.08708012 7.26124037 3.54971958 13.944416 1 20 C0.67 20 0.34 20 0 20 C0 13.4 0 6.8 0 0 Z " fill="#13100F" transform="translate(0,29)"/>
<path d="M0 0 C2 0.3125 2 0.3125 4 1 C5.26026798 3.52053595 4.91874445 4.8542098 4.5625 7.625 C4.46066406 8.44226562 4.35882812 9.25953125 4.25390625 10.1015625 C4.17011719 10.72804688 4.08632813 11.35453125 4 12 C2 11 2 11 1.1484375 8.71484375 C0.89320312 7.79832031 0.63796875 6.88179688 0.375 5.9375 C0.11460938 5.01839844 -0.14578125 4.09929688 -0.4140625 3.15234375 C-0.60742188 2.44207031 -0.80078125 1.73179687 -1 1 C-0.67 0.67 -0.34 0.34 0 0 Z " fill="#454037" transform="translate(19,0)"/>
<path d="M0 0 C0.66 0 1.32 0 2 0 C2 0.66 2 1.32 2 2 C3.32 1.67 4.64 1.34 6 1 C6 1.99 6 2.98 6 4 C6.99 4 7.98 4 9 4 C9 4.99 9 5.98 9 7 C9.66 7.33 10.32 7.66 11 8 C10.01 8.33 9.02 8.66 8 9 C7.443125 8.360625 6.88625 7.72125 6.3125 7.0625 C3.77933439 4.80319013 2.31658576 4.36850953 -1 4 C-0.67 2.68 -0.34 1.36 0 0 Z " fill="#761F14" transform="translate(24,48)"/>
<path d="M0 0 C1.34296402 2.01444603 2.67618973 4.03541552 4 6.0625 C5.84649262 8.97085303 5.84649262 8.97085303 8 11 C4.125 10.125 4.125 10.125 3 9 C3 11.97 3 14.94 3 18 C2.67 18 2.34 18 2 18 C0.59545452 11.88019467 -0.23268915 6.28260706 0 0 Z " fill="#1F1C1A" transform="translate(19,26)"/>
<path d="M0 0 C0 1.32 0 2.64 0 4 C-3.96 4 -7.92 4 -12 4 C-7.54525018 0.65893764 -5.37994478 -0.14540391 0 0 Z " fill="#7D7567" transform="translate(51,60)"/>
<path d="M0 0 C2.98622637 0.30891997 3.86118351 0.83246285 5.8125 3.1875 C7.2703227 6.64023798 7.0298168 8.43524953 6 12 C5.34 12.66 4.68 13.32 4 14 C3.93941406 13.31292969 3.87882812 12.62585937 3.81640625 11.91796875 C3.73261719 11.01691406 3.64882813 10.11585937 3.5625 9.1875 C3.48128906 8.29417969 3.40007813 7.40085937 3.31640625 6.48046875 C3.06510233 3.87256441 3.06510233 3.87256441 2 1 C1.34 0.67 0.68 0.34 0 0 Z " fill="#7E705B" transform="translate(33,42)"/>
<path d="M0 0 C3.00409853 1.50204927 3.50961987 4.09159893 4.8046875 7.08984375 C6.2368613 9.37851364 7.52777525 10.0121445 10 11 C10 11.66 10 12.32 10 13 C5.56090219 11.60485497 3.01975019 9.52304189 0 6 C-0.875 3.8125 -0.875 3.8125 -1 2 C-0.67 1.34 -0.34 0.68 0 0 Z " fill="#F43D05" transform="translate(23,24)"/>
<path d="M0 0 C0.99 0.33 1.98 0.66 3 1 C3.36923077 7.52307692 3.36923077 7.52307692 1.5 9.9375 C1.005 10.288125 0.51 10.63875 0 11 C-0.66 10.67 -1.32 10.34 -2 10 C-2 8.33333333 -2 6.66666667 -2 5 C-2.66 4.67 -3.32 4.34 -4 4 C-2.68 3.67 -1.36 3.34 0 3 C0 2.01 0 1.02 0 0 Z " fill="#040403" transform="translate(33,52)"/>
<path d="M0 0 C0.33 0 0.66 0 1 0 C1.05423638 1.91635217 1.09289963 3.83314925 1.125 5.75 C1.14820313 6.81734375 1.17140625 7.8846875 1.1953125 8.984375 C1.00252781 11.96097068 0.7082936 13.57897463 -1 16 C-1.99 16.33 -2.98 16.66 -4 17 C-3.79503906 16.27554688 -3.59007812 15.55109375 -3.37890625 14.8046875 C-2.00945777 9.89039871 -0.68467363 5.06658487 0 0 Z " fill="#070606" transform="translate(8,30)"/>
<path d="M0 0 C0.33 0 0.66 0 1 0 C1 4.29 1 8.58 1 13 C0.01 12.67 -0.98 12.34 -2 12 C-2.17835515 7.45194365 -1.99785435 4.1205746 0 0 Z " fill="#3C372F" transform="translate(63,6)"/>
<path d="M0 0 C1.74627478 2.61941217 2.38722388 4.03824877 3 7 C3.66 7 4.32 7 5 7 C5 7.66 5 8.32 5 9 C3.68 9 2.36 9 1 9 C1 8.34 1 7.68 1 7 C0.34 7 -0.32 7 -1 7 C-1.625 5.1875 -1.625 5.1875 -2 3 C-1.34 2.01 -0.68 1.02 0 0 Z " fill="#272420" transform="translate(40,41)"/>
<path d="M0 0 C3.36525621 0.46417327 5.40608501 1.86928411 8 4 C7.01 4.99 6.02 5.98 5 7 C4.01 6.67 3.02 6.34 2 6 C1.67 5.01 1.34 4.02 1 3 C0.34 2.34 -0.32 1.68 -1 1 C-0.67 0.67 -0.34 0.34 0 0 Z " fill="#36322C" transform="translate(34,37)"/>
<path d="M0 0 C0.556875 0.721875 1.11375 1.44375 1.6875 2.1875 C3.97909334 4.97457299 6.41459857 7.48641528 9 10 C6.25 9.875 6.25 9.875 3 9 C0.5625 6.125 0.5625 6.125 -1 3 C-0.67 2.01 -0.34 1.02 0 0 Z " fill="#340909" transform="translate(22,27)"/>
<path d="M0 0 C1 3 1 3 -0.1875 5.625 C-2 8 -2 8 -4.1875 8.8125 C-4.785625 8.874375 -5.38375 8.93625 -6 9 C-5.33333333 7.66666667 -4.66666667 6.33333333 -4 5 C-3.67 4.278125 -3.34 3.55625 -3 2.8125 C-2 1 -2 1 0 0 Z " fill="#785243" transform="translate(50,26)"/>
<path d="M0 0 C1.98 0 3.96 0 6 0 C6.33 1.65 6.66 3.3 7 5 C5.35 5 3.7 5 2 5 C1.34 3.35 0.68 1.7 0 0 Z " fill="#3E3931" transform="translate(45,0)"/>
<path d="M0 0 C1.65 0 3.3 0 5 0 C5.12375 0.680625 5.2475 1.36125 5.375 2.0625 C6.09100877 5.4277412 7.02945125 8.70013425 8 12 C7.01 12.495 7.01 12.495 6 13 C5.81824219 12.37351562 5.63648438 11.74703125 5.44921875 11.1015625 C5.07216797 9.87566406 5.07216797 9.87566406 4.6875 8.625 C4.32205078 7.40683594 4.32205078 7.40683594 3.94921875 6.1640625 C3.08631815 3.66815371 3.08631815 3.66815371 0 2 C0 1.34 0 0.68 0 0 Z " fill="#1E1B19" transform="translate(14,0)"/>
<path d="M0 0 C1.32 0 2.64 0 4 0 C4 1.65 4 3.3 4 5 C3.34 4.34 2.68 3.68 2 3 C0.35 4.32 -1.3 5.64 -3 7 C-2.67 5.35 -2.34 3.7 -2 2 C-1.34 2 -0.68 2 0 2 C0 1.34 0 0.68 0 0 Z " fill="#A90C00" transform="translate(46,22)"/>
<path d="M0 0 C3.21852831 0.63065757 5.50801069 1.78020695 8.25 3.5625 C8.95640625 4.01753906 9.6628125 4.47257812 10.390625 4.94140625 C11.18726563 5.46541016 11.18726563 5.46541016 12 6 C10.265625 6.6796875 10.265625 6.6796875 8 7 C5.859375 5.8203125 5.859375 5.8203125 3.75 4.125 C3.04359375 3.57070313 2.3371875 3.01640625 1.609375 2.4453125 C1.07828125 1.96835937 0.5471875 1.49140625 0 1 C0 0.67 0 0.34 0 0 Z " fill="#7E705B" transform="translate(15,57)"/>
<path d="M0 0 C0.99 0 1.98 0 3 0 C2.67 2.64 2.34 5.28 2 8 C1.01 8 0.02 8 -1 8 C-0.67 5.36 -0.34 2.72 0 0 Z " fill="#4B453A" transform="translate(28,0)"/>
<path d="M0 0 C3.28788824 3.11016455 5.83735988 6.01618925 8 10 C4.72847271 9.02738378 3.25454871 8.34232413 1.1875 5.5625 C0 3 0 3 0 0 Z " fill="#B60100" transform="translate(25,25)"/>
<path d="M0 0 C0.99 0.66 1.98 1.32 3 2 C2.38125 2.598125 1.7625 3.19625 1.125 3.8125 C-1.13676954 6.00811144 -1.13676954 6.00811144 -3 9 C-3.75 6.75 -3.75 6.75 -4 4 C-2.0625 1.6875 -2.0625 1.6875 0 0 Z " fill="#3C0E0D" transform="translate(43,22)"/>
<path d="M0 0 C1.98 0 3.96 0 6 0 C4.35830472 2.02054804 2.69088222 4.02043058 1 6 C0.67 6 0.34 6 0 6 C0 4.02 0 2.04 0 0 Z " fill="#211E1B" transform="translate(31,0)"/>
<path d="M0 0 C-1.25 1.5625 -1.25 1.5625 -3 3 C-5.1875 2.6875 -5.1875 2.6875 -7 2 C-7 1.34 -7 0.68 -7 0 C-3.98968256 -0.93423645 -3.13349732 -1.04449911 0 0 Z M-5 3 C-3 4 -3 4 -3 4 Z " fill="#262320" transform="translate(48,51)"/>
<path d="M0 0 C2.625 0.9375 2.625 0.9375 5 2 C5 2.99 5 3.98 5 5 C5.66 5.33 6.32 5.66 7 6 C6.01 6 5.02 6 4 6 C3.67 5.34 3.34 4.68 3 4 C2.01 4 1.02 4 0 4 C0 3.34 0 2.68 0 2 C-0.66 1.67 -1.32 1.34 -2 1 C-1.34 0.67 -0.68 0.34 0 0 Z " fill="#070706" transform="translate(26,46)"/>
<path d="M0 0 C-1.5625 1.5625 -1.5625 1.5625 -4 3 C-7.75 2.6875 -7.75 2.6875 -11 2 C-11 1.67 -11 1.34 -11 1 C-9.5437328 0.63743142 -8.08488815 0.28520207 -6.625 -0.0625 C-5.40683594 -0.35833984 -5.40683594 -0.35833984 -4.1640625 -0.66015625 C-2 -1 -2 -1 0 0 Z " fill="#F64503" transform="translate(53,42)"/>
<path d="M0 0 C1.65 0.99 3.3 1.98 5 3 C4.67 4.32 4.34 5.64 4 7 C3.34 7 2.68 7 2 7 C1.34 4.69 0.68 2.38 0 0 Z " fill="#1F1C1A" transform="translate(11,15)"/>
<path d="M0 0 C0.66 0.33 1.32 0.66 2 1 C2 3.64 2 6.28 2 9 C0.4375 7.875 0.4375 7.875 -1 6 C-0.6875 2.8125 -0.6875 2.8125 0 0 Z " fill="#0A0807" transform="translate(58,10)"/>
<path d="M0 0 C0.66 0.66 1.32 1.32 2 2 C1.625 4.125 1.625 4.125 1 6 C-0.32 6 -1.64 6 -3 6 C-1.125 1.125 -1.125 1.125 0 0 Z " fill="#820000" transform="translate(25,17)"/>
<path d="M0 0 C0.33 0 0.66 0 1 0 C1.33 1.65 1.66 3.3 2 5 C3.65 5.33 5.3 5.66 7 6 C7 6.33 7 6.66 7 7 C5.35 7 3.7 7 2 7 C1.67 8.32 1.34 9.64 1 11 C-0.17571451 7.32589215 -0.07366746 3.83070817 0 0 Z " fill="#010000" transform="translate(42,2)"/>
<path d="M0 0 C1.65 0 3.3 0 5 0 C4.67 1.98 4.34 3.96 4 6 C2.62437146 4.71034824 1.29233607 3.37310707 0 2 C0 1.34 0 0.68 0 0 Z " fill="#221F1B" transform="translate(57,0)"/>
<path d="M0 0 C1.98 0.99 3.96 1.98 6 3 C6 3.33 6 3.66 6 4 C3.69 4 1.38 4 -1 4 C-0.67 2.68 -0.34 1.36 0 0 Z " fill="#4E473C" transform="translate(7,60)"/>
<path d="M0 0 C1.65 0 3.3 0 5 0 C4.67 1.32 4.34 2.64 4 4 C2.68 3.67 1.36 3.34 0 3 C0 2.01 0 1.02 0 0 Z " fill="#1F1C1A" transform="translate(2,60)"/>
</svg>
