<?xml version="1.0" encoding="UTF-8"?>
<svg version="1.1" xmlns="http://www.w3.org/2000/svg" width="64" height="64">
<path d="M0 0 C7.77353539 -0.53324557 12.91702868 -0.683723 19.25390625 4.01953125 C21.16484993 5.34389236 21.16484993 5.34389236 24.3125 4.3125 C25.529375 3.879375 26.74625 3.44625 28 3 C35.60499264 2.26618492 40.88532735 2.79530303 47.03125 7.58203125 C50.75011584 10.67434904 53.95337376 13.5230051 56 18 C56 18.66 56 19.32 56 20 C56.78375 20.144375 57.5675 20.28875 58.375 20.4375 C61 21 61 21 63 22 C63 28.93 63 35.86 63 43 C58.29842999 44.56719 53.79474509 45.84264774 49 47 C49.680625 47.66 50.36125 48.32 51.0625 49 C53.35095368 51.30156803 55.57005503 53.65781844 57.75 56.0625 C58.34296875 56.71347656 58.9359375 57.36445312 59.546875 58.03515625 C61 60 61 60 62 64 C41.21 64 20.42 64 -1 64 C-1 58 -1 58 1.1875 55.4453125 C2.115625 54.67960937 3.04375 53.91390625 4 53.125 C5.3921875 51.95324219 5.3921875 51.95324219 6.8125 50.7578125 C7.534375 50.17773438 8.25625 49.59765625 9 49 C8.71125 48.46632812 8.4225 47.93265625 8.125 47.3828125 C4.62967117 40.36788172 4.43310499 34.78639761 5.34375 27.09765625 C5.4571875 26.13730469 5.570625 25.17695313 5.6875 24.1875 C5.87892578 22.87845703 5.87892578 22.87845703 6.07421875 21.54296875 C5.97895205 18.27883071 4.70433863 16.76135633 3 14 C2.35395175 11.58330098 1.79426988 9.14223222 1.3125 6.6875 C1.06113281 5.43324219 0.80976562 4.17898437 0.55078125 2.88671875 C0.36902344 1.93410156 0.18726562 0.98148437 0 0 Z " fill="#708737" transform="translate(1,0)"/>
<path d="M0 0 C7.77353539 -0.53324557 12.91702868 -0.683723 19.25390625 4.01953125 C21.16484993 5.34389236 21.16484993 5.34389236 24.3125 4.3125 C25.529375 3.879375 26.74625 3.44625 28 3 C35.60499264 2.26618492 40.88532735 2.79530303 47.03125 7.58203125 C50.75011584 10.67434904 53.95337376 13.5230051 56 18 C56 18.66 56 19.32 56 20 C56.78375 20.144375 57.5675 20.28875 58.375 20.4375 C61 21 61 21 63 22 C63 23.98 63 25.96 63 28 C61.83984375 28.02126953 61.83984375 28.02126953 60.65625 28.04296875 C54.0865192 28.34381038 50.06957858 29.14518928 44.7421875 32.98046875 C43 34 43 34 39.75 33.9375 C37 33 37 33 35.0625 31.9375 C32.03592263 30.56178301 29.28296724 30.88061937 26 31 C23 31 23 31 21 30 C20.96003906 30.556875 20.92007812 31.11375 20.87890625 31.6875 C19.95366302 38.44977149 17.12341608 41.33862389 11.8984375 45.56640625 C11.27195312 46.03949219 10.64546875 46.51257812 10 47 C9.3828125 45.19921875 9.3828125 45.19921875 9 43 C10.49405653 40.4601039 11.90537655 38.09462345 14 36 C13.38125 35.773125 12.7625 35.54625 12.125 35.3125 C9.38589791 33.62070165 8.94975528 32.00755839 8 29 C7.67 29 7.34 29 7 29 C6.96261719 28.33613281 6.92523437 27.67226563 6.88671875 26.98828125 C6.78810547 25.66376953 6.78810547 25.66376953 6.6875 24.3125 C6.62949219 23.44238281 6.57148437 22.57226562 6.51171875 21.67578125 C6.14819528 18.93397938 6.14819528 18.93397938 4.5625 16.625 C2.62530012 13.37050419 2.04008634 10.39472565 1.3125 6.6875 C1.06113281 5.43324219 0.80976562 4.17898437 0.55078125 2.88671875 C0.36902344 1.93410156 0.18726562 0.98148437 0 0 Z " fill="#ABC661" transform="translate(1,0)"/>
<path d="M0 0 C0 4.95 0 9.9 0 15 C-7.6875 17.5625 -7.6875 17.5625 -12 17 C-13.35308313 15.68671343 -14.68870078 14.35500919 -16 13 C-18.83013208 13.41949766 -21.31603965 14.51412373 -23.9375 15.625 C-27.37674388 16.92426991 -29.45402686 17.34171957 -33 16 C-35.8125 14.4375 -35.8125 14.4375 -38 13 C-38.27714844 13.55429687 -38.55429687 14.10859375 -38.83984375 14.6796875 C-40.2265625 17.453125 -41.61328125 20.2265625 -43 23 C-45.0625 23.625 -45.0625 23.625 -47 24 C-45.68 24.66 -44.36 25.32 -43 26 C-44.32 26.33 -45.64 26.66 -47 27 C-47.66 25.68 -48.32 24.36 -49 23 C-49.99 23 -50.98 23 -52 23 C-51.505 21.515 -51.505 21.515 -51 20 C-47.535 19.505 -47.535 19.505 -44 19 C-44 18.01 -44 17.02 -44 16 C-46.31 16.66 -48.62 17.32 -51 18 C-50.60167969 17.59910156 -50.20335937 17.19820312 -49.79296875 16.78515625 C-45.54538267 12.22752739 -43.55293177 8.00739397 -42 2 C-41.360625 2.185625 -40.72125 2.37125 -40.0625 2.5625 C-39.381875 2.706875 -38.70125 2.85125 -38 3 C-37.67 2.67 -37.34 2.34 -37 2 C-32.82100746 1.6656806 -30.25792121 1.88882706 -26.375 3.5625 C-22.72852266 5.11562924 -21.62618597 5.39468691 -18 4 C-17.154375 3.319375 -16.30875 2.63875 -15.4375 1.9375 C-10.25584575 -0.98306876 -5.89382026 -0.26194757 0 0 Z " fill="#718929" transform="translate(64,28)"/>
<path d="M0 0 C-0.66 0.99 -1.32 1.98 -2 3 C-1.22076172 3.63615234 -1.22076172 3.63615234 -0.42578125 4.28515625 C4.18898866 8.16633981 7.78965681 11.88351555 11 17 C11 17.66 11 18.32 11 19 C6.94323508 19.04954711 2.88658806 19.085789 -1.17041016 19.10986328 C-2.54967315 19.11990253 -3.92891496 19.13353677 -5.30810547 19.15087891 C-7.2938514 19.17521754 -9.2797545 19.18543255 -11.265625 19.1953125 C-13.05661621 19.21102295 -13.05661621 19.21102295 -14.88378906 19.22705078 C-17.89886171 19.00736905 -19.44293229 18.50355581 -22 17 C-24.08844479 16.69560727 -24.08844479 16.69560727 -26.25 16.625 C-31.23155402 16.18715197 -34.66768903 14.441848 -39 12 C-38.67 11.34 -38.34 10.68 -38 10 C-37.34 10.165 -36.68 10.33 -36 10.5 C-29.40642065 11.59892989 -24.71045276 11.68006956 -19 8 C-18.195625 7.195625 -17.39125 6.39125 -16.5625 5.5625 C-11.45106893 0.45106893 -7.39566422 -1.81118307 0 0 Z " fill="#4A3004" transform="translate(52,45)"/>
<path d="M0 0 C1.485 1.0209375 1.485 1.0209375 3 2.0625 C7.42401801 4.58795158 10.09718571 4.18616475 15 3 C16.67334039 2.01120795 18.34151823 1.01351664 20 0 C22.125 0.0625 22.125 0.0625 24 1 C25.75 3.0625 25.75 3.0625 27 5 C25.989375 4.9175 24.97875 4.835 23.9375 4.75 C18.01170155 5.12624117 14.50600219 7.49399781 10.4375 11.5625 C6.72670951 15.27329049 3.24885629 17.14505011 -2 17.375 C-5.89367603 17.2180572 -8.71586822 16.16272093 -12 14 C-12.33 13.01 -12.66 12.02 -13 11 C-12.01 11 -11.02 11 -10 11 C-9.01 12.485 -9.01 12.485 -8 14 C-7.01 14 -6.02 14 -5 14 C-6.32 13.34 -7.64 12.68 -9 12 C-8.401875 11.566875 -7.80375 11.13375 -7.1875 10.6875 C-2.97303169 7.43633873 -1.50956075 5.2254026 0 0 Z " fill="#A0BC57" transform="translate(25,40)"/>
<path d="M0 0 C9.45756308 -0.8004834 15.3775515 0.21863951 23 6 C22.4225 6.42539063 21.845 6.85078125 21.25 7.2890625 C15.93181534 11.33309875 10.94843543 15.57090129 7 21 C2.53345234 14.53120684 1.40036869 7.64898352 0 0 Z " fill="#5A6A1B" transform="translate(1,0)"/>
<path d="M0 0 C-0.61875 0.2475 -1.2375 0.495 -1.875 0.75 C-4.44184517 2.25990893 -4.69640776 3.37399109 -6 6 C-7.10345709 7.40923436 -8.252033 8.78402013 -9.4375 10.125 C-10.03433594 10.80820312 -10.63117187 11.49140625 -11.24609375 12.1953125 C-15.21221793 16.27626878 -18.64125923 16.6247371 -24.0703125 17.03515625 C-29.1022044 16.97477355 -33.98109043 15.85667576 -37.75 12.390625 C-38.1625 11.93171875 -38.575 11.4728125 -39 11 C-36 10 -36 10 -33 11 C-27.34966257 11.37051393 -23.891149 11.1520738 -19 8 C-18.195625 7.195625 -17.39125 6.39125 -16.5625 5.5625 C-11.45106893 0.45106893 -7.39566422 -1.81118307 0 0 Z " fill="#51661A" transform="translate(52,45)"/>
<path d="M0 0 C0 3.96 0 7.92 0 12 C-4.14208392 13.57793673 -7.56190648 14.57888176 -12 14 C-14.375 12.375 -14.375 12.375 -16 10 C-16.45774125 6.79581126 -16.60972017 4.93062552 -14.8125 2.1875 C-10.38049989 -0.71622421 -5.09379457 -0.0863355 0 0 Z " fill="#625A0C" transform="translate(64,31)"/>
<path d="M0 0 C0.66 0 1.32 0 2 0 C2 1.65 2 3.3 2 5 C3.11375 5 4.2275 5 5.375 5 C8.91666667 5 12.45833333 5 16 5 C15.01 6.65 14.02 8.3 13 10 C11.0625 9.6875 11.0625 9.6875 9 9 C8.67 8.01 8.34 7.02 8 6 C7.01 6.66 6.02 7.32 5 8 C7.76223278 10.76223278 10.20706617 10.57856291 14 11 C14 11.33 14 11.66 14 12 C10.33333333 12 6.66666667 12 3 12 C2.2884375 13.670625 2.2884375 13.670625 1.5625 15.375 C0.74693537 17.26710994 -0.07856355 19.15712709 -1 21 C-3.0625 21.625 -3.0625 21.625 -5 22 C-3.68 22.66 -2.36 23.32 -1 24 C-2.32 24.33 -3.64 24.66 -5 25 C-5.66 23.68 -6.32 22.36 -7 21 C-7.99 21 -8.98 21 -10 21 C-9.505 19.515 -9.505 19.515 -9 18 C-5.535 17.505 -5.535 17.505 -2 17 C-2 16.01 -2 15.02 -2 14 C-4.31 14.66 -6.62 15.32 -9 16 C-8.60167969 15.59910156 -8.20335937 15.19820312 -7.79296875 14.78515625 C-3.54538267 10.22752739 -1.55293177 6.00739397 0 0 Z " fill="#758E28" transform="translate(22,30)"/>
<path d="M0 0 C1.8671875 0.80078125 1.8671875 0.80078125 2.9921875 3.05078125 C5.89275659 7.30494925 10.24832056 8.76432022 14.8671875 10.80078125 C14.8671875 11.13078125 14.8671875 11.46078125 14.8671875 11.80078125 C7.2771875 11.80078125 -0.3128125 11.80078125 -8.1328125 11.80078125 C-8.1328125 5.80078125 -8.1328125 5.80078125 -6.9609375 3.8671875 C-6.44015625 3.37089844 -5.919375 2.87460937 -5.3828125 2.36328125 C-4.87234375 1.84894531 -4.361875 1.33460937 -3.8359375 0.8046875 C-2.1328125 -0.19921875 -2.1328125 -0.19921875 0 0 Z " fill="#9CB755" transform="translate(8.1328125,52.19921875)"/>
<path d="M0 0 C5.66153846 1.47692308 5.66153846 1.47692308 7.375 4.125 C7.684375 5.053125 7.684375 5.053125 8 6 C8.99 6 9.98 6 11 6 C11.265373 10.5856455 11.02427676 13.82304803 7.9296875 17.37890625 C5.67948396 19.35047957 3.40285379 21.21849022 1 23 C0.3828125 21.19921875 0.3828125 21.19921875 0 19 C1.49405653 16.4601039 2.90537655 14.09462345 5 12 C4.360625 11.71125 3.72125 11.4225 3.0625 11.125 C1 10 1 10 0 8 C-0.13415472 5.3276379 -0.04318541 2.67749512 0 0 Z " fill="#94A275" transform="translate(10,24)"/>
<path d="M0 0 C2.39796787 1.19898394 3.43729665 2.7090598 4.875 4.9375 C3.8025 4.875625 2.73 4.81375 1.625 4.75 C-2.01831105 4.57568291 -2.01831105 4.57568291 -3.98046875 6.36328125 C-6.6814838 8.34599357 -8.89856091 8.75007919 -12.1875 9.3125 C-13.75177734 9.60253906 -13.75177734 9.60253906 -15.34765625 9.8984375 C-18.125 9.9375 -18.125 9.9375 -19.99609375 8.7265625 C-21.125 6.9375 -21.125 6.9375 -21.125 2.9375 C-20.135 2.6075 -19.145 2.2775 -18.125 1.9375 C-17.135 2.5975 -16.145 3.2575 -15.125 3.9375 C-9.64659143 3.67241571 -4.81011463 -0.14147396 0 0 Z " fill="#A2BE58" transform="translate(47.125,40.0625)"/>
<path d="M0 0 C2.88540441 0.98526004 5.11862415 2.04209311 7.5625 3.875 C7.8925 5.195 8.2225 6.515 8.5625 7.875 C2.2925 7.875 -3.9775 7.875 -10.4375 7.875 C-3.97444581 -0.20381773 -3.97444581 -0.20381773 0 0 Z " fill="#6F8726" transform="translate(54.4375,56.125)"/>
<path d="M0 0 C0 0.99 0 1.98 0 3 C-1.21236328 3.05607422 -1.21236328 3.05607422 -2.44921875 3.11328125 C-3.51785156 3.17902344 -4.58648437 3.24476562 -5.6875 3.3125 C-6.74324219 3.37050781 -7.79898438 3.42851562 -8.88671875 3.48828125 C-12.24145062 4.03968636 -14.13253995 5.25607626 -17 7 C-17.99 6.67 -18.98 6.34 -20 6 C-19.62724214 3.29750549 -19.21551151 2.20064865 -17.1875 0.3125 C-11.9531231 -2.82812614 -5.27466858 -3.37578789 0 0 Z " fill="#BBD571" transform="translate(64,22)"/>
<path d="M0 0 C0.02688151 1.64574566 0.04634123 3.29161413 0.0625 4.9375 C0.07410156 5.85402344 0.08570312 6.77054688 0.09765625 7.71484375 C0 10 0 10 -1 11 C-9.38167939 11.41221374 -9.38167939 11.41221374 -13 9 C-10.82575883 6.49962266 -9.26954202 5.56371414 -6 5 C-6.66 4.34 -7.32 3.68 -8 3 C-5.48696401 0.48696401 -3.51117809 0 0 0 Z " fill="#9D9135" transform="translate(64,33)"/>
<path d="M0 0 C0.66 0 1.32 0 2 0 C2 0.66 2 1.32 2 2 C10.34218416 4.09341603 19.95096347 2.8746559 28 0 C24.3022777 4.25798325 21.58751341 6.06874776 16 7 C9.42025727 7.09484314 4.67768095 5.20014744 -1 2 C-0.67 1.34 -0.34 0.68 0 0 Z " fill="#4F6419" transform="translate(14,55)"/>
<path d="M0 0 C0.08759561 4.20458942 -0.16128029 6.09006824 -3.0703125 9.24609375 C-5.33223978 11.23502981 -7.62268247 13.15097526 -10 15 C-10.6015625 13.18359375 -10.6015625 13.18359375 -11 11 C-4.91489362 0 -4.91489362 0 0 0 Z " fill="#A3BF59" transform="translate(21,32)"/>
<path d="M0 0 C2.3125 0.1875 2.3125 0.1875 4 1 C2.7874289 4.63771331 1.98156536 4.84268519 -1.3125 6.5625 C-2.09238281 6.97628906 -2.87226562 7.39007813 -3.67578125 7.81640625 C-4.44277344 8.20699219 -5.20976563 8.59757812 -6 9 C-6.68578125 9.37511719 -7.3715625 9.75023437 -8.078125 10.13671875 C-12.01678884 11.90591531 -15.95480049 11.3558126 -19.9375 10 C-20.618125 9.67 -21.29875 9.34 -22 9 C-19 8 -19 8 -15.1875 8.125 C-11.07479852 8.1626621 -8.50899647 7.26135328 -5 5 C-3.700625 3.63875 -3.700625 3.63875 -2.375 2.25 C-1.59125 1.5075 -0.8075 0.765 0 0 Z " fill="#738C27" transform="translate(38,48)"/>
<path d="M0 0 C2.375 0.1875 2.375 0.1875 5 1 C5.309375 1.78375 5.61875 2.5675 5.9375 3.375 C6.80427895 6.21321499 6.80427895 6.21321499 9.5625 7.75 C13.09115494 9.03314725 16.13303544 9.51506577 19.8515625 9.7890625 C21.98460042 9.99848804 23.93682688 10.43052688 26 11 C26 11.66 26 12.32 26 13 C17.97310956 13.68671116 11.56833749 12.97350735 5 8 C2.94070741 5.49081691 1.38240374 2.93215108 0 0 Z " fill="#748926" transform="translate(8,51)"/>
<path d="M0 0 C0.33 0 0.66 0 1 0 C1 1.65 1 3.3 1 5 C2.11375 5 3.2275 5 4.375 5 C7.91666667 5 11.45833333 5 15 5 C13.515 7.475 13.515 7.475 12 10 C10.0625 9.6875 10.0625 9.6875 8 9 C7.67 8.01 7.34 7.02 7 6 C6.01 6.66 5.02 7.32 4 8 C6.76223278 10.76223278 9.20706617 10.57856291 13 11 C13 11.33 13 11.66 13 12 C4.96043727 12.77303488 4.96043727 12.77303488 1.4375 9.9375 C-0.29233945 6.4026107 -0.30495508 3.88817732 0 0 Z " fill="#354211" transform="translate(23,30)"/>
<path d="M0 0 C0.33 0 0.66 0 1 0 C1.125 2.875 1.125 2.875 1 6 C-1 8 -1 8 -4.5 8.4375 C-6.2325 8.7159375 -6.2325 8.7159375 -8 9 C-8.99 10.485 -8.99 10.485 -10 12 C-10.66 11.34 -11.32 10.68 -12 10 C-12 9.34 -12 8.68 -12 8 C-12.32033957 5.99787771 -12.65259077 3.99760305 -13 2 C-12.01 2.495 -12.01 2.495 -11 3 C-10.67 3.99 -10.34 4.98 -10 6 C-8.88625 5.67 -7.7725 5.34 -6.625 5 C-3 4 -3 4 -1 4 C-0.67 2.68 -0.34 1.36 0 0 Z " fill="#475B18" transform="translate(21,40)"/>
<path d="M0 0 C3.78611227 0.54087318 5.55400767 2.11722332 8 5 C8 5.66 8 6.32 8 7 C7.2575 6.649375 6.515 6.29875 5.75 5.9375 C2.7257359 4.90650088 1.91593642 4.92804623 -1 6 C-2.89164883 7.50518294 -4.57902901 9.14097681 -6.31640625 10.8203125 C-6.87199219 11.20960937 -7.42757812 11.59890625 -8 12 C-8.99 11.67 -9.98 11.34 -11 11 C-10.45730469 10.54109375 -9.91460937 10.0821875 -9.35546875 9.609375 C-8.64003906 8.99578125 -7.92460938 8.3821875 -7.1875 7.75 C-6.47980469 7.14671875 -5.77210937 6.5434375 -5.04296875 5.921875 C-3.08110329 4.07629602 -1.54330375 2.20054668 0 0 Z " fill="#54691B" transform="translate(52,52)"/>
<path d="M0 0 C2.1640625 0.50390625 2.1640625 0.50390625 4.7265625 3.50390625 C5.2009375 4.49390625 5.6753125 5.48390625 6.1640625 6.50390625 C5.3184375 6.35953125 4.4728125 6.21515625 3.6015625 6.06640625 C1.2318181 5.67862989 -1.14394997 5.32654863 -3.5234375 5.00390625 C-6.8359375 4.50390625 -6.8359375 4.50390625 -9.8359375 3.50390625 C-6.85994483 -0.06158017 -4.46476062 -0.10907396 0 0 Z " fill="#C7E279" transform="translate(34.8359375,24.49609375)"/>
<path d="M0 0 C1.58246707 -0.08153933 3.16616273 -0.13943557 4.75 -0.1875 C6.07257812 -0.23970703 6.07257812 -0.23970703 7.421875 -0.29296875 C10.44671583 0.05076316 11.75583602 1.00227459 14 3 C13.34 4.32 12.68 5.64 12 7 C7.69235185 5.43358249 3.93828536 3.31663844 0 1 C0 0.67 0 0.34 0 0 Z " fill="#97B251" transform="translate(4,0)"/>
<path d="M0 0 C0 3 0 3 -0.6875 4.9375 C-1.25384701 7.14699559 -1.25384701 7.14699559 0.4375 9.25 C0.953125 9.8275 1.46875 10.405 2 11 C-0.97 11 -3.94 11 -7 11 C-6.68232368 5.59950264 -3.80003673 3.47662935 0 0 Z " fill="#C7E279" transform="translate(7,53)"/>
<path d="M0 0 C1.32 0.66 2.64 1.32 4 2 C0.49102731 6.18423892 -3.08060535 10.19588166 -7 14 C-7.66 13.67 -8.32 13.34 -9 13 C-8.43410156 12.22914062 -7.86820313 11.45828125 -7.28515625 10.6640625 C-6.55167969 9.66117188 -5.81820312 8.65828125 -5.0625 7.625 C-4.33160156 6.62726562 -3.60070313 5.62953125 -2.84765625 4.6015625 C-1.0220431 2.17182891 -1.0220431 2.17182891 0 0 Z " fill="#322000" transform="translate(50,49)"/>
<path d="M0 0 C0.7425 0.433125 0.7425 0.433125 1.5 0.875 C4.91752035 2.41288416 8.3506202 3.14847805 12 4 C8.76039934 6.15973378 6.85248595 6.75921963 3 7 C1.125 5.8125 1.125 5.8125 0 4 C0 2.68 0 1.36 0 0 Z " fill="#C7E279" transform="translate(26,43)"/>
<path d="M0 0 C2.64 0 5.28 0 8 0 C8 0.66 8 1.32 8 2 C3.37802694 4.21854707 0.23175837 5.38281159 -5 5 C-3.625 3.5 -3.625 3.5 -2 2 C-1.34 2 -0.68 2 0 2 C0 1.34 0 0.68 0 0 Z " fill="#757117" transform="translate(56,31)"/>
<path d="M0 0 C2.31 1.98 4.62 3.96 7 6 C6.67 6.99 6.34 7.98 6 9 C6 8.34 6 7.68 6 7 C5.34 7 4.68 7 4 7 C3.67 7.99 3.34 8.98 3 10 C2.67 9.01 2.34 8.02 2 7 C1.34 7 0.68 7 0 7 C0 4.69 0 2.38 0 0 Z " fill="#C1AD5E" transform="translate(3,3)"/>
<path d="M0 0 C0.66 0 1.32 0 2 0 C1.49923552 4.33995881 -1.25037681 6.78092895 -4 10 C-5.27852287 12.21587348 -5.27852287 12.21587348 -6 14 C-6.75 12.375 -6.75 12.375 -7 10 C-5.25 7 -5.25 7 -3 4 C-2.46375 3.21625 -1.9275 2.4325 -1.375 1.625 C-0.694375 0.820625 -0.694375 0.820625 0 0 Z " fill="#C3DE76" transform="translate(17,33)"/>
<path d="M0 0 C0.66 0.66 1.32 1.32 2 2 C2.33 1.34 2.66 0.68 3 0 C3.66 0 4.32 0 5 0 C5 3.63 5 7.26 5 11 C1.7089159 7.39042389 0.45336079 4.87362847 0 0 Z " fill="#7F7529" transform="translate(4,10)"/>
<path d="M0 0 C1.32 0.66 2.64 1.32 4 2 C3.401875 2.2475 2.80375 2.495 2.1875 2.75 C-0.28647521 4.16370012 -1.43370255 5.65055383 -3 8 C-7.75 7.25 -7.75 7.25 -10 5 C-7.69 5 -5.38 5 -3 5 C-3 4.34 -3 3.68 -3 3 C-1.5 1.375 -1.5 1.375 0 0 Z " fill="#54681C" transform="translate(39,37)"/>
<path d="M0 0 C0.66 0.99 1.32 1.98 2 3 C4.86724686 2.42655063 5.8614515 2.1385485 8 0 C8 1.32 8 2.64 8 4 C4.9167365 5.54163175 2.39121901 5.29747535 -1 5 C-2.9375 3 -2.9375 3 -4 1 C-2 0 -2 0 0 0 Z " fill="#D9DDDF" transform="translate(30,36)"/>
<path d="M0 0 C4.08072342 0.55144911 4.91330796 0.91330796 8 4 C4.37 4 0.74 4 -3 4 C-2.01 2.68 -1.02 1.36 0 0 Z " fill="#B3CE67" transform="translate(49,60)"/>
<path d="M0 0 C0.9590625 0.2784375 0.9590625 0.2784375 1.9375 0.5625 C2.9584375 0.7790625 2.9584375 0.7790625 4 1 C4.33 0.67 4.66 0.34 5 0 C6.66617115 -0.04063832 8.33388095 -0.042721 10 0 C8.515 2.475 8.515 2.475 7 5 C5.0625 4.6875 5.0625 4.6875 3 4 C2.67 3.01 2.34 2.02 2 1 C1.34 0.67 0.68 0.34 0 0 Z " fill="#0A0C09" transform="translate(28,35)"/>
<path d="M0 0 C-1.32 0.99 -2.64 1.98 -4 3 C-2.68 3.66 -1.36 4.32 0 5 C-2.31 5.33 -4.62 5.66 -7 6 C-7.33 6.99 -7.66 7.98 -8 9 C-8.36190476 3.57142857 -8.36190476 3.57142857 -6.8125 1.125 C-4.43963721 -0.34781139 -2.74086056 -0.22223194 0 0 Z " fill="#465117" transform="translate(56,32)"/>
<path d="M0 0 C2.92879371 0.62759865 5.36095629 1.58622659 8 3 C6.68 3.33 5.36 3.66 4 4 C5.32 4.66 6.64 5.32 8 6 C6.68 6.33 5.36 6.66 4 7 C3.34 5.68 2.68 4.36 2 3 C1.01 3 0.02 3 -1 3 C-0.67 2.01 -0.34 1.02 0 0 Z " fill="#5F7620" transform="translate(13,48)"/>
<path d="M0 0 C0.66 0 1.32 0 2 0 C2.33 2.97 2.66 5.94 3 9 C2.01 9.33 1.02 9.66 0 10 C0 6.7 0 3.4 0 0 Z " fill="#849A4B" transform="translate(6,30)"/>
<path d="M0 0 C0 1.32 0 2.64 0 4 C-2.64 4 -5.28 4 -8 4 C-6 1 -6 1 -4 0.3125 C-2 0 -2 0 0 0 Z " fill="#D5C065" transform="translate(64,33)"/>
<path d="M0 0 C3 0 3 0 4.60546875 1.53125 C5.12753906 2.1809375 5.64960937 2.830625 6.1875 3.5 C6.71730469 4.1496875 7.24710938 4.799375 7.79296875 5.46875 C8.19128906 5.9740625 8.58960938 6.479375 9 7 C8.67 7.66 8.34 8.32 8 9 C6.35 7.35 4.7 5.7 3 4 C2.34 4.66 1.68 5.32 1 6 C0.67 4.02 0.34 2.04 0 0 Z " fill="#7E7524" transform="translate(1,0)"/>
<path d="M0 0 C0.33 0 0.66 0 1 0 C1.2475 1.27875 1.495 2.5575 1.75 3.875 C2.51990586 7.26747318 2.51990586 7.26747318 5.125 9.5 C5.74375 9.665 6.3625 9.83 7 10 C6.01 10.495 6.01 10.495 5 11 C2.375 10.0625 2.375 10.0625 0 9 C0 6.03 0 3.06 0 0 Z " fill="#262F0D" transform="translate(9,26)"/>
<path d="M0 0 C3 0 3 0 5.1875 2 C5.785625 2.66 6.38375 3.32 7 4 C6.34 4 5.68 4 5 4 C4.67 4.66 4.34 5.32 4 6 C2 4.6875 2 4.6875 0 3 C0 2.01 0 1.02 0 0 Z " fill="#121809" transform="translate(12,29)"/>
<path d="M0 0 C0 0.99 0 1.98 0 3 C-1.98 3.33 -3.96 3.66 -6 4 C-6.33 3.34 -6.66 2.68 -7 2 C-2.25 0 -2.25 0 0 0 Z " fill="#4A5E18" transform="translate(38,54)"/>
<path d="M0 0 C2.475 0.495 2.475 0.495 5 1 C5.33 2.32 5.66 3.64 6 5 C5.01 5 4.02 5 3 5 C1.3125 2.5 1.3125 2.5 0 0 Z " fill="#627922" transform="translate(8,51)"/>
</svg>
