<?xml version="1.0" encoding="UTF-8"?>
<svg version="1.1" xmlns="http://www.w3.org/2000/svg" width="64" height="64">
<path d="M0 0 C7.54498233 -0.02312851 15.08996101 -0.04091769 22.63497066 -0.05181217 C26.13808885 -0.05703989 29.64118285 -0.0641355 33.14428711 -0.07543945 C37.16780841 -0.08834206 41.19130414 -0.09322912 45.21484375 -0.09765625 C46.47836166 -0.10281754 47.74187958 -0.10797882 49.04368591 -0.11329651 C50.204814 -0.11337204 51.36594208 -0.11344757 52.56225586 -0.11352539 C54.1044706 -0.11685631 54.1044706 -0.11685631 55.67784119 -0.12025452 C58 -0 58 -0 59 1 C59.13854856 3.94793106 59.21322813 6.87067098 59.23828125 9.8203125 C59.246353 10.71233368 59.25442474 11.60435486 59.26274109 12.52340698 C59.27660371 14.41825404 59.28731607 16.3131263 59.29516602 18.20800781 C59.31230561 21.09228841 59.35616244 23.97540102 59.40039062 26.859375 C59.41052373 28.7005124 59.41903789 30.54165956 59.42578125 32.3828125 C59.44328934 33.2403714 59.46079742 34.0979303 59.47883606 34.98147583 C59.45794295 40.81680303 58.29031749 44.16649389 55 49 C54.34 48.34 53.68 47.68 53 47 C52.34 47.99 51.68 48.98 51 50 C51.5775 50.42410156 52.155 50.84820312 52.75 51.28515625 C53.4925 51.87167969 54.235 52.45820312 55 53.0625 C55.7425 53.63097656 56.485 54.19945312 57.25 54.78515625 C59 57 59 57 59 64 C37.88 64 16.76 64 -5 64 C-5 57 -5 57 -3.3203125 54.85546875 C-2.59585937 54.30503906 -1.87140625 53.75460938 -1.125 53.1875 C-0.40570312 52.62417969 0.31359375 52.06085937 1.0546875 51.48046875 C2.01761719 50.74763672 2.01761719 50.74763672 3 50 C3.66 49.34 4.32 48.68 5 48 C3.07045173 43.85147121 0.87259899 40.54287209 -2 37 C-3.31886422 33.04340734 -3.26518132 30.17660573 -3 26 C-2.01 25.34 -1.02 24.68 0 24 C-0.16757813 23.02160156 -0.33515625 22.04320313 -0.5078125 21.03515625 C-0.71440717 19.71107225 -0.92008698 18.38684529 -1.125 17.0625 C-1.33382813 15.77472656 -1.54265625 14.48695312 -1.7578125 13.16015625 C-2.10871741 9.95986587 -1.76390337 7.36741457 -1.01513672 4.23999023 C-0.82732635 3.44221664 -0.63951599 2.64444305 -0.4460144 1.82249451 C-0.29882965 1.22107132 -0.1516449 0.61964813 0 0 Z " fill="#76100A" transform="translate(5,0)"/>
<path d="M0 0 C5.75 0.875 5.75 0.875 8 2 C8 2.66 8 3.32 8 4 C10.64738916 5.4606285 11.89448334 6 15 6 C15.39143394 7.74639757 15.76254287 9.49735918 16.125 11.25 C16.33382812 12.22453125 16.54265625 13.1990625 16.7578125 14.203125 C17.0202996 17.23442766 16.61988849 18.48017346 15 21 C14.505 17.04 14.505 17.04 14 13 C13.34 13.99 12.68 14.98 12 16 C12.66 16 13.32 16 14 16 C13.4160774 20.78816533 11.96032329 24.60887583 10 29 C9.31954641 30.99535144 8.65059163 32.99471324 8 35 C8.721875 35.56847656 9.44375 36.13695312 10.1875 36.72265625 C11.115625 37.49480469 12.04375 38.26695313 13 39.0625 C13.928125 39.81660156 14.85625 40.57070313 15.8125 41.34765625 C18 44 18 44 18 51 C-3.12 51 -24.24 51 -46 51 C-46 44 -46 44 -44.3203125 41.85546875 C-43.59585938 41.30503906 -42.87140625 40.75460938 -42.125 40.1875 C-41.40570313 39.62417969 -40.68640625 39.06085937 -39.9453125 38.48046875 C-38.98238281 37.74763672 -38.98238281 37.74763672 -38 37 C-37.34 36.34 -36.68 35.68 -36 35 C-37.92954827 30.85147121 -40.12740101 27.54287209 -43 24 C-44.23955941 20.28132177 -44.66361693 16.85823799 -44 13 C-42 10.3125 -42 10.3125 -39 9 C-35.94312254 9.77717224 -33.77355487 10.61082744 -31 12 C-30.11957031 12.41507813 -29.23914063 12.83015625 -28.33203125 13.2578125 C-21.40233287 16.59766713 -21.40233287 16.59766713 -19 19 C-19.0234375 21.6015625 -19.0234375 21.6015625 -19.375 24.625 C-19.54128906 26.12933594 -19.54128906 26.12933594 -19.7109375 27.6640625 C-19.85402344 28.82035156 -19.85402344 28.82035156 -20 30 C-20.66 29.34 -21.32 28.68 -22 28 C-23.98 28.99 -23.98 28.99 -26 30 C-26.99 28.68 -27.98 27.36 -29 26 C-29 27.32 -29 28.64 -29 30 C-27.02 30.66 -25.04 31.32 -23 32 C-23 32.33 -23 32.66 -23 33 C-25.475 33.495 -25.475 33.495 -28 34 C-20.18215202 36.9782278 -10.44949536 37.55300125 -2.5 34.75 C1.22663264 32.88668368 5.01987828 30.98012172 8 28 C8.07226502 26.14712498 8.0838122 24.29166122 8.0625 22.4375 C8.05347656 21.42558594 8.04445312 20.41367187 8.03515625 19.37109375 C8.02355469 18.58863281 8.01195312 17.80617188 8 17 C7.34 17.66 6.68 18.32 6 19 C6 18.01 6 17.02 6 16 C5.01 16.495 5.01 16.495 4 17 C4 17.99 4 18.98 4 20 C3.01 19.34 2.02 18.68 1 18 C1.061875 19.051875 1.12375 20.10375 1.1875 21.1875 C0.9922214 25.15816493 0.29674932 26.84196969 -2 30 C-3.8125 29.5 -3.8125 29.5 -6 28 C-7.26152609 25.4136076 -8.15643045 22.74799171 -9 20 C-4.9046316 15.13675002 -1.96647951 14.29273723 4 13 C5.2236068 10.9254644 5.2236068 10.9254644 5 8 C3.71488126 5.96868328 2.38123963 3.96722008 1 2 C0.505 1.01 0.505 1.01 0 0 Z " fill="#0C0C0C" transform="translate(46,13)"/>
<path d="M0 0 C7.54498233 -0.02312851 15.08996101 -0.04091769 22.63497066 -0.05181217 C26.13808885 -0.05703989 29.64118285 -0.0641355 33.14428711 -0.07543945 C37.16780841 -0.08834206 41.19130414 -0.09322912 45.21484375 -0.09765625 C46.47836166 -0.10281754 47.74187958 -0.10797882 49.04368591 -0.11329651 C50.204814 -0.11337204 51.36594208 -0.11344757 52.56225586 -0.11352539 C54.1044706 -0.11685631 54.1044706 -0.11685631 55.67784119 -0.12025452 C58 -0 58 -0 59 1 C59.13854856 3.94793106 59.21322813 6.87067098 59.23828125 9.8203125 C59.246353 10.71233368 59.25442474 11.60435486 59.26274109 12.52340698 C59.27660371 14.41825404 59.28731607 16.3131263 59.29516602 18.20800781 C59.31230561 21.09228841 59.35616244 23.97540102 59.40039062 26.859375 C59.41052373 28.7005124 59.41903789 30.54165956 59.42578125 32.3828125 C59.44328934 33.2403714 59.46079742 34.0979303 59.47883606 34.98147583 C59.45794295 40.81680303 58.29031749 44.16649389 55 49 C54.34 48.34 53.68 47.68 53 47 C52.34 47.66 51.68 48.32 51 49 C50.01 48.67 49.02 48.34 48 48 C50.05764921 41.54646385 52.42383482 35.2638737 55 29 C54.34 29 53.68 29 53 29 C53.33 27.68 53.66 26.36 54 25 C54.66 25.33 55.32 25.66 56 26 C55.505 22.535 55.505 22.535 55 19 C54.01 19 53.02 19 52 19 C51.01 18.34 50.02 17.68 49 17 C49 16.34 49 15.68 49 15 C46.69 14.67 44.38 14.34 42 14 C42.61875 14.721875 43.2375 15.44375 43.875 16.1875 C45.86231156 18.8177653 47.08813987 20.84993772 48 24 C47.505 25.485 47.505 25.485 47 27 C46.59007812 26.44570313 46.18015625 25.89140625 45.7578125 25.3203125 C45.21898437 24.59585937 44.68015625 23.87140625 44.125 23.125 C43.59132812 22.40570312 43.05765625 21.68640625 42.5078125 20.9453125 C39.69515475 17.3165468 37.5368502 16.32145272 33.03125 15.36328125 C28.41400747 14.80992615 23.831534 15.01310095 19.18945312 15.10888672 C13.81864141 15.15799539 9.84533423 14.47421323 5 12 C5 11.34 5 10.68 5 10 C2.03 9.505 2.03 9.505 -1 9 C-1.125 2.25 -1.125 2.25 0 0 Z " fill="#676565" transform="translate(5,0)"/>
<path d="M0 0 C4.62 0 9.24 0 14 0 C13.67 1.98 13.34 3.96 13 6 C13.66 6.66 14.32 7.32 15 8 C15.71408334 9.98356483 16.38617742 11.98315437 17 14 C17.99 13.67 18.98 13.34 20 13 C20.66 9.7 21.32 6.4 22 3 C22.99 3 23.98 3 25 3 C24.505 2.01 24.505 2.01 24 1 C25.66611905 0.957279 27.33382885 0.95936168 29 1 C30.72211338 2.72211338 30.33380292 4.8995329 30.4375 7.25 C30.39776687 11.63199691 30.36940778 12.57781968 27.375 16 C17.79364899 21.67783764 8.49716799 24.11813463 -2.6953125 21.328125 C-4.875 20.5 -4.875 20.5 -8 19 C-7.34 18.34 -6.68 17.68 -6 17 C-6.99 16.34 -7.98 15.68 -9 15 C-8.67 13.35 -8.34 11.7 -8 10 C-7.01 11.32 -6.02 12.64 -5 14 C-4.01 13.67 -3.02 13.34 -2 13 C-1.814375 11.7934375 -1.814375 11.7934375 -1.625 10.5625 C-1.41875 9.716875 -1.2125 8.87125 -1 8 C-0.34 7.67 0.32 7.34 1 7 C1.15149298 3.37114676 1.15149298 3.37114676 0 0 Z " fill="#C8B078" transform="translate(25,28)"/>
<path d="M0 0 C2.5671651 0.90499357 5.12814695 1.82337609 7.6875 2.75 C8.7693457 3.12898438 8.7693457 3.12898438 9.87304688 3.515625 C14.15249194 5.0788926 17.86147134 6.56256385 21 10 C21.26953125 12.796875 21.26953125 12.796875 20.8125 15.75 C20.67457031 16.73484375 20.53664063 17.7196875 20.39453125 18.734375 C20.26433594 19.48203125 20.13414063 20.2296875 20 21 C19.34 20.34 18.68 19.68 18 19 C16.02 19.99 16.02 19.99 14 21 C13.01 19.68 12.02 18.36 11 17 C11 18.32 11 19.64 11 21 C12.98 21.66 14.96 22.32 17 23 C17 23.33 17 23.66 17 24 C9.9603407 24.60686718 9.9603407 24.60686718 7.23828125 22.88671875 C5.809372 21.60897874 4.40350881 20.30558959 3 19 C2.01 19 1.02 19 0 19 C-3.61118083 14.97214446 -4.12850989 11.35528857 -4.42578125 6.03515625 C-3.82068081 3.14288715 -2.16821611 1.91162248 0 0 Z " fill="#9F8142" transform="translate(6,22)"/>
<path d="M0 0 C5.75 0.875 5.75 0.875 8 2 C8 2.66 8 3.32 8 4 C10.64738916 5.4606285 11.89448334 6 15 6 C15.39143394 7.74639757 15.76254287 9.49735918 16.125 11.25 C16.33382812 12.22453125 16.54265625 13.1990625 16.7578125 14.203125 C17.0202996 17.23442766 16.61988849 18.48017346 15 21 C14.67 18.36 14.34 15.72 14 13 C13.01 14.485 13.01 14.485 12 16 C12.66 16 13.32 16 14 16 C13.49172849 20.37113496 12.54826592 23.38995662 10 27 C9.67 27 9.34 27 9 27 C8.505 22.05 8.505 22.05 8 17 C7.34 17.66 6.68 18.32 6 19 C6 18.01 6 17.02 6 16 C5.34 16.33 4.68 16.66 4 17 C4 17.99 4 18.98 4 20 C3.01 19.34 2.02 18.68 1 18 C1.061875 19.051875 1.12375 20.10375 1.1875 21.1875 C0.9922214 25.15816493 0.29674932 26.84196969 -2 30 C-3.8125 29.5 -3.8125 29.5 -6 28 C-7.26152609 25.4136076 -8.15643045 22.74799171 -9 20 C-4.9046316 15.13675002 -1.96647951 14.29273723 4 13 C5.2236068 10.9254644 5.2236068 10.9254644 5 8 C3.71488126 5.96868328 2.38123963 3.96722008 1 2 C0.67 1.34 0.34 0.68 0 0 Z " fill="#6A4F22" transform="translate(46,13)"/>
<path d="M0 0 C0.66 0.99 1.32 1.98 2 3 C1.67 3.33 1.34 3.66 1 4 C1.81202881 4.36319336 2.62405762 4.72638672 3.46069336 5.10058594 C6 7 6 7 6.63110352 9.89160156 C6.63001587 11.62361816 6.63001587 11.62361816 6.62890625 13.390625 C6.63180664 15.29134766 6.63180664 15.29134766 6.63476562 17.23046875 C6.62227783 17.89095215 6.60979004 18.55143555 6.59692383 19.23193359 C6.56286588 21.22855073 6.57901372 23.2258184 6.59570312 25.22265625 C6.54198973 32.2913395 6.3480627 37.2947885 2 43 C1.34 42.34 0.68 41.68 0 41 C-0.66 41.66 -1.32 42.32 -2 43 C-2.99 42.67 -3.98 42.34 -5 42 C-2.94235079 35.54646385 -0.57616518 29.2638737 2 23 C1.34 23 0.68 23 0 23 C0.33 21.68 0.66 20.36 1 19 C1.66 19.33 2.32 19.66 3 20 C2.67 17.69 2.34 15.38 2 13 C1.01 13 0.02 13 -1 13 C-2.6875 11.6875 -2.6875 11.6875 -4 10 C-4 9.01 -4 8.02 -4 7 C-10.75505602 3.75441594 -10.75505602 3.75441594 -18 2 C-18 1.67 -18 1.34 -18 1 C-12.01702175 -1.26023623 -6.25784435 -1.54629985 0 0 Z " fill="#6B6B6B" transform="translate(58,6)"/>
<path d="M0 0 C1.19021834 1.45471131 2.37607977 2.9135943 3.5234375 4.40234375 C7.85158863 9.08544908 13.87252609 10.48937717 20 11 C20 11.99 20 12.98 20 14 C9.44 14 -1.12 14 -12 14 C-12 7 -12 7 -10.390625 4.78515625 C-9.68421875 4.21667969 -8.9778125 3.64820313 -8.25 3.0625 C-7.55390625 2.47597656 -6.8578125 1.88945313 -6.140625 1.28515625 C-4 0 -4 0 0 0 Z " fill="#2C2C2C" transform="translate(12,50)"/>
<path d="M0 0 C4.54955677 1.33810493 8.56268023 3.87079503 11 8 C11 10.31 11 12.62 11 15 C0.77 15 -9.46 15 -20 15 C-20 14.01 -20 13.02 -20 12 C-19.443125 11.92523438 -18.88625 11.85046875 -18.3125 11.7734375 C-11.13231559 10.53631113 -5.81578225 7.58024802 -1.2734375 1.8046875 C-0.85320313 1.20914063 -0.43296875 0.61359375 0 0 Z " fill="#2D2D2D" transform="translate(53,49)"/>
<path d="M0 0 C1.66611905 -0.042721 3.33382885 -0.04063832 5 0 C6.72211338 1.72211338 6.33380292 3.8995329 6.4375 6.25 C6.39776687 10.63199691 6.36940778 11.57781968 3.375 15 C2.26125 15.66 1.1475 16.32 0 17 C-1.3921875 17.86625 -1.3921875 17.86625 -2.8125 18.75 C-6.85666899 20.33594863 -10.6899931 20.722244 -15 21 C-17.17240606 17.74139091 -17.23564158 17.17949197 -16.8125 13.5 C-16.73644531 12.7265625 -16.66039062 11.953125 -16.58203125 11.15625 C-15.9062105 8.65253825 -14.96003956 7.64833515 -13 6 C-12.67 6.99 -12.34 7.98 -12 9 C-11.01 8.34 -10.02 7.68 -9 7 C-8.34 8.98 -7.68 10.96 -7 13 C-6.01 12.67 -5.02 12.34 -4 12 C-3.34 8.7 -2.68 5.4 -2 2 C-1.01 2 -0.02 2 1 2 C0.67 1.34 0.34 0.68 0 0 Z " fill="#B3A47D" transform="translate(49,29)"/>
<path d="M0 0 C0.74238922 0.00187317 1.48477844 0.00374634 2.24966431 0.00567627 C3.80434726 0.01235251 5.3590147 0.02617772 6.91357422 0.046875 C9.30321707 0.07831121 11.69220114 0.08787938 14.08203125 0.09375 C15.59636229 0.10290995 17.11068659 0.11328248 18.625 0.125 C19.34158783 0.12924988 20.05817566 0.13349976 20.79647827 0.13787842 C25.79682258 0.21088508 25.79682258 0.21088508 26.9140625 1.328125 C26.98650303 3.34776699 26.99783438 5.36979624 26.9765625 7.390625 C26.96753906 8.49535156 26.95851562 9.60007812 26.94921875 10.73828125 C26.93761719 11.59292969 26.92601562 12.44757812 26.9140625 13.328125 C24.46484375 12.4609375 24.46484375 12.4609375 21.9140625 11.328125 C21.1015625 9.203125 21.1015625 9.203125 20.9140625 7.328125 C19.9653125 7.18375 19.0165625 7.039375 18.0390625 6.890625 C14.9140625 6.328125 14.9140625 6.328125 12.9140625 5.328125 C10.91446238 5.288133 8.91359008 5.28465701 6.9140625 5.328125 C6.9140625 5.658125 6.9140625 5.988125 6.9140625 6.328125 C6.12902344 6.30492187 5.34398438 6.28171875 4.53515625 6.2578125 C-1.43386353 6.15527719 -6.45997268 6.28231961 -12.0859375 8.328125 C-8.3359375 4.453125 -8.3359375 4.453125 -6.0859375 3.328125 C-10.475019 3.83848331 -13.42301812 4.85026777 -17.0859375 7.328125 C-16.5234375 5.515625 -16.5234375 5.515625 -15.0859375 3.328125 C-9.98274664 0.65414024 -5.7701643 -0.10113399 0 0 Z " fill="#AFAFAE" transform="translate(37.0859375,-0.328125)"/>
<path d="M0 0 C1.48011371 0.30798326 2.95907325 0.621518 4.4375 0.9375 C5.26121094 1.11152344 6.08492187 1.28554687 6.93359375 1.46484375 C9 2 9 2 10 3 C11.33187388 3.141863 12.66979285 3.22809896 14.0078125 3.2890625 C29.46492936 4.25256777 29.46492936 4.25256777 33.6875 8.625 C35.13671875 10.5390625 35.13671875 10.5390625 36 12 C35.67 12.66 35.34 13.32 35 14 C23.76948034 14.93443461 12.6495819 13.61165402 3.72265625 6.078125 C0 1.83867647 0 1.83867647 0 0 Z " fill="#CB2510" transform="translate(8,11)"/>
<path d="M0 0 C-1.39633428 4.44288181 -3.60401828 6.86524764 -7 10 C-7.33 10.33 -7.66 10.66 -8 11 C-14.61737438 11.59533472 -20.27090943 11.50760647 -26 8 C-27.64745401 6.07306718 -28.75804401 4.23552079 -30 2 C-29 1 -29 1 -27.0222168 0.90234375 C-26.17312744 0.91394531 -25.32403809 0.92554688 -24.44921875 0.9375 C-23.05993164 0.94910156 -23.05993164 0.94910156 -21.64257812 0.9609375 C-19.68424274 0.98682429 -17.72590937 1.01286409 -15.76757812 1.0390625 C-14.83751953 1.04679687 -13.90746094 1.05453125 -12.94921875 1.0625 C-11.67050903 1.07990234 -11.67050903 1.07990234 -10.3659668 1.09765625 C-6.76474891 0.9490145 -3.66619208 0 0 0 Z " fill="#262626" transform="translate(47,48)"/>
<path d="M0 0 C2.11698478 1.52969223 3.37389561 2.92531509 5 5 C4.01 5.495 4.01 5.495 3 6 C2.29875 5.67 1.5975 5.34 0.875 5 C-2.38814753 3.86499216 -4.54459717 4.29343156 -7.8984375 4.83984375 C-10.80670088 5.0614772 -13.13394854 4.30053015 -15.90234375 3.48046875 C-19.57021667 2.64034143 -23.26009303 2.84417054 -27 3 C-19.46011844 -5.37764618 -9.75575085 -3.84818524 0 0 Z " fill="#B0B0B0" transform="translate(51,10)"/>
<path d="M0 0 C0.66 0 1.32 0 2 0 C3.73560594 3.47121188 3.26939094 7.36228984 3.3125 11.1875 C3.34150391 12.02603516 3.37050781 12.86457031 3.40039062 13.72851562 C3.46088115 19.68915911 2.37709382 23.07756937 -1 28 C-1.66 27.34 -2.32 26.68 -3 26 C-3.66 26.66 -4.32 27.32 -5 28 C-5.99 27.67 -6.98 27.34 -8 27 C-5.94235079 20.54646385 -3.57616518 14.2638737 -1 8 C-1.66 8 -2.32 8 -3 8 C-2.67 6.68 -2.34 5.36 -2 4 C-1.34 4.33 -0.68 4.66 0 5 C0 4.01 0 3.02 0 2 C0 1.34 0 0.68 0 0 Z " fill="#494037" transform="translate(61,21)"/>
<path d="M0 0 C2.31 0.33 4.62 0.66 7 1 C7 1.99 7 2.98 7 4 C9.82380684 8.47865623 13.11093125 10.41312821 17.9375 12.25 C18.91698608 12.63502686 18.91698608 12.63502686 19.91625977 13.02783203 C26.17892964 15.33803783 32.33428661 15.97751867 39 16 C39 16.66 39 17.32 39 18 C26.68828708 19.00326836 17.73829393 18.99963072 7.65234375 11.359375 C5.36797935 9.32733362 3.56220419 7.61628659 2 5 C2 4.01 2 3.02 2 2 C1.34 2 0.68 2 0 2 C0 1.34 0 0.68 0 0 Z " fill="#97120A" transform="translate(3,9)"/>
<path d="M0 0 C1.62992692 0.39695637 3.25392235 0.81832493 4.875 1.25 C6.23238281 1.59804688 6.23238281 1.59804688 7.6171875 1.953125 C10 3 10 3 12 7 C2.43 7 -7.14 7 -17 7 C-13.78538134 4.8569209 -11.07198097 4.01544456 -7.375 2.9375 C-3.38194837 2.04515337 -3.38194837 2.04515337 0 0 Z " fill="#444444" transform="translate(50,57)"/>
<path d="M0 0 C1.98 0.66 3.96 1.32 6 2 C5.6803125 2.53367187 5.360625 3.06734375 5.03125 3.6171875 C3.39497648 7.39797102 3.54295424 11.24658588 3.34375 15.3203125 C3 18 3 18 1 20 C-2.9492605 15.2863665 -4.33539053 12.2056863 -4.30078125 5.94140625 C-3.84712545 3.01326427 -2.3025474 1.72691055 0 0 Z " fill="#724F1C" transform="translate(6,22)"/>
<path d="M0 0 C1.66611905 -0.042721 3.33382885 -0.04063832 5 0 C6.72211338 1.72211338 6.33380292 3.8995329 6.4375 6.25 C6.39090829 11.37508778 6.39090829 11.37508778 4.87109375 13.8046875 C1.61109336 16.68165912 -1.70144474 17.90230556 -6 18 C-6.66 17.34 -7.32 16.68 -8 16 C-5.69 15.01 -3.38 14.02 -1 13 C-1.33 9.37 -1.66 5.74 -2 2 C-1.01 2 -0.02 2 1 2 C0.67 1.34 0.34 0.68 0 0 Z " fill="#A4874A" transform="translate(49,29)"/>
<path d="M0 0 C0.73154297 0.15662109 1.46308594 0.31324219 2.21679688 0.47460938 C4.00291462 0.85985046 5.7834058 1.27102537 7.5625 1.6875 C7.5625 2.6775 7.5625 3.6675 7.5625 4.6875 C-1.0175 4.6875 -9.5975 4.6875 -18.4375 4.6875 C-12.44596789 -1.30403211 -7.85150071 -1.87487803 0 0 Z " fill="#454545" transform="translate(24.4375,59.3125)"/>
<path d="M0 0 C3.9990906 0.23071677 6.33396421 0.43643125 9.4375 3.0625 C11.53874859 7.01284735 11.30048996 9.56777305 11 14 C10.34 13.34 9.68 12.68 9 12 C7.02 12.99 7.02 12.99 5 14 C2.01485372 9.89542386 1.7045561 7.02254631 2 2 C0.02 2.99 0.02 2.99 -2 4 C-1.34 2.68 -0.68 1.36 0 0 Z " fill="#2A2A2A" transform="translate(15,29)"/>
<path d="M0 0 C0.72445312 0.13148437 1.44890625 0.26296875 2.1953125 0.3984375 C5.43262962 1.47754321 6.42962539 4.13000503 8 7 C8.75 10.375 8.75 10.375 9 13 C8.443125 12.278125 7.88625 11.55625 7.3125 10.8125 C6.549375 9.884375 5.78625 8.95625 5 8 C4.278125 7.113125 3.55625 6.22625 2.8125 5.3125 C-2.92870327 0.59195509 -9.77308271 0.76641416 -16.93359375 1.125 C-19 1 -19 1 -21 -1 C-14.03891016 -3.32036328 -6.9942692 -1.4674041 0 0 Z " fill="#8B8B8B" transform="translate(44,14)"/>
<path d="M0 0 C0.66 1.32 1.32 2.64 2 4 C1.22076172 4.32871094 1.22076172 4.32871094 0.42578125 4.6640625 C-4.78170425 7.03197643 -7.5780464 9.4373952 -11 14 C-11.33 14 -11.66 14 -12 14 C-12.5 10.9375 -12.5 10.9375 -12 7 C-8.50643198 2.69126611 -5.64475539 0 0 0 Z " fill="#1E1E1E" transform="translate(12,50)"/>
<path d="M0 0 C5.75 0.875 5.75 0.875 8 2 C8 2.66 8 3.32 8 4 C10.64738916 5.4606285 11.89448334 6 15 6 C13.93411431 8.90696099 13.29651501 9.84432962 10.5 11.3125 C8 12 8 12 6 11 C5 9.2578125 5 9.2578125 4 7.125 C2.78798161 4.55892982 1.58730868 2.38096302 0 0 Z " fill="#770300" transform="translate(46,13)"/>
<path d="M0 0 C0.86625 1.11375 0.86625 1.11375 1.75 2.25 C5.54853321 6.8926517 9.24517341 9.91640696 14.390625 12.94921875 C14.92171875 13.29597656 15.4528125 13.64273437 16 14 C16 14.33 16 14.66 16 15 C5.4518664 13.92730845 5.4518664 13.92730845 1.375 10.72265625 C-0.42601361 8.46627272 -0.31131568 7.16026067 -0.1875 4.3125 C-0.16042969 3.50425781 -0.13335937 2.69601563 -0.10546875 1.86328125 C-0.07066406 1.24839844 -0.03585937 0.63351562 0 0 Z " fill="#6E0200" transform="translate(4,11)"/>
<path d="M0 0 C0 0.66 0 1.32 0 2 C-0.66 2 -1.32 2 -2 2 C-1.525625 2.433125 -1.05125 2.86625 -0.5625 3.3125 C1 5 1 5 2 8 C0.5625 10.6875 0.5625 10.6875 -1 13 C-4.12970199 11.956766 -4.91607618 11.15735717 -6.5 8.1875 C-7 5 -7 5 -5.3125 2.125 C-3 0 -3 0 0 0 Z " fill="#000000" transform="translate(45,30)"/>
<path d="M0 0 C6.93 0 13.86 0 21 0 C17.4510232 3.5489768 16.193028 3.9403486 11.25 4.1875 C7.19204676 4.14992636 3.83822452 3.27940817 0 2 C0 1.34 0 0.68 0 0 Z " fill="#363636" transform="translate(22,50)"/>
<path d="M0 0 C-0.165 0.598125 -0.33 1.19625 -0.5 1.8125 C-1.1114124 4.11344336 -1.1114124 4.11344336 -1 7 C-1.99 6.34 -2.98 5.68 -4 5 C-4.33 6.65 -4.66 8.3 -5 10 C-5.99 9.34 -6.98 8.68 -8 8 C-8 7.34 -8 6.68 -8 6 C-7.34 6 -6.68 6 -6 6 C-6 5.34 -6 4.68 -6 4 C-8.62901288 5.52206009 -10.84365964 6.84365964 -13 9 C-13.33 8.34 -13.66 7.68 -14 7 C-9.82478941 2.33358817 -6.36794493 0 0 0 Z " fill="#886620" transform="translate(51,26)"/>
<path d="M0 0 C1.32 0 2.64 0 4 0 C4 0.99 4 1.98 4 3 C4.86625 3.3403125 4.86625 3.3403125 5.75 3.6875 C8.652294 5.38050483 10.18808695 7.18146859 12 10 C11.75 12.3125 11.75 12.3125 11 14 C11 13.34 11 12.68 11 12 C10.34 12 9.68 12 9 12 C8.67 11.34 8.34 10.68 8 10 C7.01 10 6.02 10 5 10 C3.3125 8.6875 3.3125 8.6875 2 7 C2 6.01 2 5.02 2 4 C0.56249809 2.31201173 0.56249809 2.31201173 -1 1 C-0.67 0.67 -0.34 0.34 0 0 Z " fill="#4C4C4C" transform="translate(52,9)"/>
<path d="M0 0 C1.62463842 -0.05395478 3.24978541 -0.09277195 4.875 -0.125 C6.23238281 -0.15980469 6.23238281 -0.15980469 7.6171875 -0.1953125 C10 0 10 0 12 2 C8.73950218 2.51871556 5.54943036 2.97034325 2.25 3.1484375 C-5.12018972 3.55149475 -11.20746229 5.1252055 -18 8 C-17.0609172 5.70446427 -16.46736606 4.29402372 -14.3359375 2.953125 C-9.34583167 1.16384402 -5.29962865 0.71609132 0 1 C0 0.67 0 0.34 0 0 Z " fill="#7F7F7F" transform="translate(40,4)"/>
<path d="M0 0 C0.66 0 1.32 0 2 0 C3.75354414 3.50708827 3.18464284 7.51211749 3.1875 11.375 C3.19974609 12.23867188 3.21199219 13.10234375 3.22460938 13.9921875 C3.22654297 14.8275 3.22847656 15.6628125 3.23046875 16.5234375 C3.23457764 17.28575684 3.23868652 18.04807617 3.24291992 18.83349609 C2.97038763 21.26410069 2.20839576 22.89091986 1 25 C0.34 25 -0.32 25 -1 25 C-0.84402344 23.78183594 -0.68804687 22.56367187 -0.52734375 21.30859375 C-0.33025446 19.68495339 -0.13366647 18.06125212 0.0625 16.4375 C0.16626953 15.63763672 0.27003906 14.83777344 0.37695312 14.01367188 C0.96060719 9.08280136 0.93682483 4.88066085 0 0 Z " fill="#999999" transform="translate(61,21)"/>
<path d="M0 0 C2.875 2.5625 2.875 2.5625 5 5 C4.01 5.495 4.01 5.495 3 6 C2.278125 5.690625 1.55625 5.38125 0.8125 5.0625 C-2.04460816 3.79384967 -2.04460816 3.79384967 -5.5 4 C-8.94418734 4 -10.9393643 3.48394458 -14 2 C-9.31549133 -1.12300578 -5.4298579 -1.58370856 0 0 Z " fill="#A0A0A0" transform="translate(51,10)"/>
<path d="M0 0 C2.15357022 3.23035533 2.29592637 4.31133458 2.3125 8.0625 C2.33763672 9.37927734 2.33763672 9.37927734 2.36328125 10.72265625 C2.18345703 11.84994141 2.18345703 11.84994141 2 13 C1.01 13.66 0.02 14.32 -1 15 C-3.18719033 11.71921451 -3.21791927 11.19409949 -2.75 7.5 C-2.66234375 6.7265625 -2.5746875 5.953125 -2.484375 5.15625 C-2 3 -2 3 0 0 Z " fill="#EED297" transform="translate(35,35)"/>
<path d="M0 0 C4.55235431 1.33892774 8.4306354 3.96242706 11 8 C10.6640625 10.1953125 10.6640625 10.1953125 10 12 C9.13375 11.236875 8.2675 10.47375 7.375 9.6875 C4.46399345 7.24779927 1.47056439 5.57001723 -2 4 C-1.34 2.68 -0.68 1.36 0 0 Z " fill="#1D1D1D" transform="translate(53,49)"/>
<path d="M0 0 C9.9 0 19.8 0 30 0 C28.02 0.99 28.02 0.99 26 2 C24.74478166 2.69904436 23.49448778 3.40702628 22.25 4.125 C21.1775 4.74375 20.105 5.3625 19 6 C19.33 5.01 19.66 4.02 20 3 C16.04 3 12.08 3 8 3 C8 3.99 8 4.98 8 6 C6.66402348 5.19185349 5.331275 4.37836819 4 3.5625 C3.2575 3.11003906 2.515 2.65757813 1.75 2.19140625 C1.1725 1.79824219 0.595 1.40507812 0 1 C0 0.67 0 0.34 0 0 Z " fill="#341616" transform="translate(18,26)"/>
<path d="M0 0 C0.68964844 0.13277344 1.37929687 0.26554688 2.08984375 0.40234375 C6.7669731 1.28131044 11.38233015 2.07995678 16.125 2.5 C17.40375 2.665 18.6825 2.83 20 3 C20.33 3.66 20.66 4.32 21 5 C16.0658593 6.64471357 12.05267401 6.83508502 7.25390625 4.8828125 C4.79606409 3.64866197 2.38527706 2.36860159 0 1 C0 0.67 0 0.34 0 0 Z " fill="#EC523C" transform="translate(14,13)"/>
<path d="M0 0 C4.62 0 9.24 0 14 0 C11 2 11 2 8.125 2.875 C4.76969729 4.08290897 2.6570416 5.65555153 0 8 C-1.125 2.25 -1.125 2.25 0 0 Z " fill="#7F7F7F" transform="translate(15,0)"/>
<path d="M0 0 C2.31 1.65 4.62 3.3 7 5 C6.01 5.495 6.01 5.495 5 6 C5.62244599 7.27208622 6.24806767 8.54261882 6.875 9.8125 C7.22304687 10.52019531 7.57109375 11.22789063 7.9296875 11.95703125 C9.0656486 14.21246418 9.0656486 14.21246418 11 17 C8.13302508 15.71480435 6.02392288 14.42870746 4 12 C4 11.34 4 10.68 4 10 C3.34 9.67 2.68 9.34 2 9 C1.3671875 6.93359375 1.3671875 6.93359375 0.875 4.4375 C0.70742187 3.61121094 0.53984375 2.78492188 0.3671875 1.93359375 C0.24601563 1.29550781 0.12484375 0.65742187 0 0 Z " fill="#030303" transform="translate(8,40)"/>
<path d="M0 0 C0.66 0 1.32 0 2 0 C2.77112541 4.72314313 3.09764874 9.21521178 3 14 C2.01 13.67 1.02 13.34 0 13 C-1.25069801 10.49860398 -1.13302467 8.72607309 -1.125 5.9375 C-1.12757812 5.03902344 -1.13015625 4.14054687 -1.1328125 3.21484375 C-1 1 -1 1 0 0 Z " fill="#9E7F43" transform="translate(4,26)"/>
<path d="M0 0 C3.7595188 0.52215539 6.36771463 1.17273053 9 4 C9.25 7.1875 9.25 7.1875 9 10 C6.5625 9.25 6.5625 9.25 4 8 C3.1875 5.875 3.1875 5.875 3 4 C1.68 3.67 0.36 3.34 -1 3 C-0.67 2.01 -0.34 1.02 0 0 Z " fill="#7E7E7E" transform="translate(55,3)"/>
<path d="M0 0 C0.639375 0.33 1.27875 0.66 1.9375 1 C1.9375 1.33 1.9375 1.66 1.9375 2 C-4.3325 2 -10.6025 2 -17.0625 2 C-12.66459549 -2.39790451 -5.5781594 -1.8214398 0 0 Z " fill="#575757" transform="translate(58.0625,62)"/>
<path d="M0 0 C0.99 0.33 1.98 0.66 3 1 C1.68 2.32 0.36 3.64 -1 5 C-0.34 5.33 0.32 5.66 1 6 C0.34 6.66 -0.32 7.32 -1 8 C-0.67 8.66 -0.34 9.32 0 10 C-2.31 10 -4.62 10 -7 10 C-7.33 9.34 -7.66 8.68 -8 8 C-5.6166139 4.85052551 -3.44915025 2.0027324 0 0 Z " fill="#4B4242" transform="translate(25,5)"/>
<path d="M0 0 C1 2 1 2 0.3125 4.75 C-1.60624334 9.50117399 -4.17580084 13.55822076 -8 17 C-8.66 16.67 -9.32 16.34 -10 16 C-9.50628906 15.32453125 -9.01257812 14.6490625 -8.50390625 13.953125 C-7.86324219 13.06109375 -7.22257812 12.1690625 -6.5625 11.25 C-5.92441406 10.36828125 -5.28632812 9.4865625 -4.62890625 8.578125 C-3.14711062 6.23283696 -2.59244594 4.64587508 -2 2 C-1.34 1.34 -0.68 0.68 0 0 Z " fill="#030303" transform="translate(55,40)"/>
<path d="M0 0 C1.47906892 -0.02689216 2.95827483 -0.04634621 4.4375 -0.0625 C5.26121094 -0.07410156 6.08492187 -0.08570313 6.93359375 -0.09765625 C9 -0 9 -0 10 1 C10.04080783 2.99958364 10.04254356 5.00045254 10 7 C8.51545194 6.40917986 7.03745649 5.80187345 5.5625 5.1875 C4.73878906 4.85105469 3.91507813 4.51460938 3.06640625 4.16796875 C1 3 1 3 0 0 Z " fill="#B9B8B5" transform="translate(54,0)"/>
<path d="M0 0 C-2.10214159 1.71285611 -3.89447679 2.95941415 -6.4375 3.9375 C-10.28726901 5.53374569 -13.07668467 8.07668467 -16 11 C-16.125 8.3125 -16.125 8.3125 -15 5 C-10.31666163 1.65599271 -5.79802121 -0.35455525 0 0 Z " fill="#767676" transform="translate(33,2)"/>
<path d="M0 0 C5.90693899 0.30291995 10.65233838 3.11608895 15 7 C15 7.99 15 8.98 15 10 C14.34 10 13.68 10 13 10 C12.62875 9.401875 12.2575 8.80375 11.875 8.1875 C9.16902563 5.0305299 5.89166316 4.22018892 2 3 C2 2.34 2 1.68 2 1 C1.34 0.67 0.68 0.34 0 0 Z " fill="#896721" transform="translate(12,25)"/>
<path d="M0 0 C0.89203125 0.01804688 1.7840625 0.03609375 2.703125 0.0546875 C3.71632813 0.08949219 3.71632813 0.08949219 4.75 0.125 C1.79755961 2.62637311 -0.44624391 3.61217505 -4.25 4.25 C-7.28750288 4.77785873 -10.26793202 5.33806539 -13.25 6.125 C-9.05465113 1.62998336 -6.21371741 -0.16351888 0 0 Z " fill="#C3C2BF" transform="translate(38.25,1.875)"/>
<path d="M0 0 C0.66 0.33 1.32 0.66 2 1 C0.7934375 2.36125 0.7934375 2.36125 -0.4375 3.75 C-2.41142671 6.10309908 -3.63877467 7.86938046 -4 11 C-5.32 10.67 -6.64 10.34 -8 10 C-7.67 8.02 -7.34 6.04 -7 4 C-6.34 4 -5.68 4 -5 4 C-4.34 3.34 -3.68 2.68 -3 2 C-2.01 1.34 -1.02 0.68 0 0 Z " fill="#464040" transform="translate(21,2)"/>
<path d="M0 0 C0.33 0 0.66 0 1 0 C1.125 3.375 1.125 3.375 1 7 C0.34 7.66 -0.32 8.32 -1 9 C-4.125 8.625 -4.125 8.625 -7 8 C-7.33 6.35 -7.66 4.7 -8 3 C-7.34 2.67 -6.68 2.34 -6 2 C-5.34 3.32 -4.68 4.64 -4 6 C-3.01 5.67 -2.02 5.34 -1 5 C-0.67 3.35 -0.34 1.7 0 0 Z " fill="#F7F8F8" transform="translate(24,36)"/>
<path d="M0 0 C0.66 0.33 1.32 0.66 2 1 C1.6875 3.375 1.6875 3.375 1 6 C-2 8 -2 8 -4.6875 7.625 C-5.450625 7.41875 -6.21375 7.2125 -7 7 C-6.67 6.01 -6.34 5.02 -6 4 C-4.68 4 -3.36 4 -2 4 C-1.34 2.68 -0.68 1.36 0 0 Z " fill="#FFFFFF" transform="translate(47,37)"/>
<path d="M0 0 C-0.99 0.66 -1.98 1.32 -3 2 C-3 2.66 -3 3.32 -3 4 C-6.63 3.34 -10.26 2.68 -14 2 C-14 1.67 -14 1.34 -14 1 C-8.83430559 -0.79217969 -5.48946087 -1.12029814 0 0 Z " fill="#414141" transform="translate(54,6)"/>
<path d="M0 0 C0.66 0.33 1.32 0.66 2 1 C2.29047722 6.61589298 2.10842092 10.09825932 -1 15 C-1.99 15.495 -1.99 15.495 -3 16 C-1.66666667 12 -0.33333333 8 1 4 C0.34 4 -0.32 4 -1 4 C-0.67 2.68 -0.34 1.36 0 0 Z " fill="#B99B5B" transform="translate(59,25)"/>
<path d="M0 0 C-0.33 0.99 -0.66 1.98 -1 3 C-6.61 2.67 -12.22 2.34 -18 2 C-18 1.67 -18 1.34 -18 1 C-11.96445452 0.30739642 -6.07593562 -0.11251733 0 0 Z " fill="#646464" transform="translate(51,0)"/>
<path d="M0 0 C0.66 0 1.32 0 2 0 C2.25 7.625 2.25 7.625 0 11 C-1.62651522 7.74696956 -1.11453156 4.60774398 -1 1 C-0.67 0.67 -0.34 0.34 0 0 Z " fill="#9EA8AD" transform="translate(15,31)"/>
<path d="M0 0 C0.66 0.33 1.32 0.66 2 1 C1.375 3.4375 1.375 3.4375 0 6 C-3 6.9375 -3 6.9375 -6 7 C-6.66 6.34 -7.32 5.68 -8 5 C-6.865625 4.54625 -5.73125 4.0925 -4.5625 3.625 C-0.95278308 2.42904194 -0.95278308 2.42904194 0 0 Z " fill="#88744A" transform="translate(49,40)"/>
<path d="M0 0 C1.32 0.33 2.64 0.66 4 1 C4 1.99 4 2.98 4 4 C3.01 3.34 2.02 2.68 1 2 C0.67 3.65 0.34 5.3 0 7 C-0.99 6.34 -1.98 5.68 -3 5 C-3 4.34 -3 3.68 -3 3 C-2.34 3 -1.68 3 -1 3 C-0.67 2.01 -0.34 1.02 0 0 Z " fill="#666666" transform="translate(46,29)"/>
<path d="M0 0 C2.81870287 2.81870287 2.7303841 5.09056945 3 9 C2.0625 11.4375 2.0625 11.4375 1 13 C0.8046875 10.94921875 0.609375 8.8984375 0.4140625 6.84765625 C0.27742188 6.23792969 0.14078125 5.62820312 0 5 C-0.66 4.67 -1.32 4.34 -2 4 C-1.34 2.68 -0.68 1.36 0 0 Z " fill="#574839" transform="translate(60,21)"/>
<path d="M0 0 C0 0.66 0 1.32 0 2 C1.32 2.33 2.64 2.66 4 3 C2.37536158 3.05395478 0.75021459 3.09277195 -0.875 3.125 C-1.77992187 3.14820313 -2.68484375 3.17140625 -3.6171875 3.1953125 C-6 3 -6 3 -8 1 C-5.07175348 0.02391783 -3.04386724 -0.08226668 0 0 Z " fill="#6B6B6B" transform="translate(31,12)"/>
<path d="M0 0 C2.1640625 0.0234375 2.1640625 0.0234375 4.625 0.375 C5.85089844 0.54128906 5.85089844 0.54128906 7.1015625 0.7109375 C7.72804688 0.80632813 8.35453125 0.90171875 9 1 C8.67 1.99 8.34 2.98 8 4 C4.7 3.34 1.4 2.68 -2 2 C-1.34 1.34 -0.68 0.68 0 0 Z " fill="#D4D2CC" transform="translate(36,7)"/>
<path d="M0 0 C4.84659077 0.59104765 8.60748167 1.97944157 13 4 C8.74938644 5.41687119 6.28148375 4.19320039 2 3 C2 2.34 2 1.68 2 1 C1.34 0.67 0.68 0.34 0 0 Z " fill="#C1C0BE" transform="translate(31,10)"/>
<path d="M0 0 C0.99 0.33 1.98 0.66 3 1 C3 3.64 3 6.28 3 9 C1.5 7.875 1.5 7.875 0 6 C-0.1875 2.8125 -0.1875 2.8125 0 0 Z " fill="#9DA7AC" transform="translate(47,31)"/>
<path d="M0 0 C0.7425 0.61875 1.485 1.2375 2.25 1.875 C4.48801188 3.60437281 6.43739987 4.86106661 9 6 C6.36 6 3.72 6 1 6 C-0.0625 4.125 -0.0625 4.125 -1 2 C-0.67 1.34 -0.34 0.68 0 0 Z " fill="#806F4D" transform="translate(14,40)"/>
<path d="M0 0 C2.50037734 2.17424117 3.43628586 3.73045798 4 7 C2.68 7 1.36 7 0 7 C0 4.69 0 2.38 0 0 Z " fill="#1A1C1D" transform="translate(41,35)"/>
<path d="M0 0 C2.86697492 1.28519565 4.97607712 2.57129254 7 5 C7 5.66 7 6.32 7 7 C5.35 7 3.7 7 2 7 C2 6.01 2 5.02 2 4 C1.05021103 1.84971696 1.05021103 1.84971696 0 0 Z " fill="#7F0300" transform="translate(43,19)"/>
<path d="M0 0 C5.75 0.75 5.75 0.75 8 3 C7.01 3.33 6.02 3.66 5 4 C4.67 4.66 4.34 5.32 4 6 C2.68 4.02 1.36 2.04 0 0 Z " fill="#502220" transform="translate(46,13)"/>
<path d="M0 0 C2.99324263 1.0975223 3.84610901 1.67682892 5.25 4.625 C5.4975 5.40875 5.745 6.1925 6 7 C3.5625 6.3125 3.5625 6.3125 1 5 C0.1875 2.375 0.1875 2.375 0 0 Z " fill="#B3B3B3" transform="translate(58,6)"/>
<path d="M0 0 C4.83256305 0.41421969 6.82679218 2.46413986 10 6 C9.67 6.66 9.34 7.32 9 8 C7.87411986 7.04270084 6.7493285 6.08412105 5.625 5.125 C4.99851562 4.59132813 4.37203125 4.05765625 3.7265625 3.5078125 C2.44163349 2.38567993 1.20628025 1.20628025 0 0 Z " fill="#414141" transform="translate(40,16)"/>
<path d="M0 0 C2.475 0.99 2.475 0.99 5 2 C3.68 3.65 2.36 5.3 1 7 C0.67 4.69 0.34 2.38 0 0 Z " fill="#801B15" transform="translate(51,17)"/>
<path d="M0 0 C2.475 0.495 2.475 0.495 5 1 C5 2.98 5 4.96 5 7 C3.29115995 5.37660195 1.62553283 3.70680947 0 2 C0 1.34 0 0.68 0 0 Z " fill="#777777" transform="translate(59,12)"/>
<path d="M0 0 C1 2 1 2 0.3125 4.5625 C-0.120625 5.366875 -0.55375 6.17125 -1 7 C-2.32 7.33 -3.64 7.66 -5 8 C-3.35 5.36 -1.7 2.72 0 0 Z " fill="#7C7C7C" transform="translate(58,41)"/>
<path d="M0 0 C0 1.65 0 3.3 0 5 C-1.32 5 -2.64 5 -4 5 C-3.625 3.0625 -3.625 3.0625 -3 1 C-1 0 -1 0 0 0 Z " fill="#1A1B1D" transform="translate(23,37)"/>
<path d="M0 0 C0.33 0 0.66 0 1 0 C1.13277344 0.62648437 1.26554688 1.25296875 1.40234375 1.8984375 C1.57894531 2.71570312 1.75554688 3.53296875 1.9375 4.375 C2.11152344 5.18710937 2.28554687 5.99921875 2.46484375 6.8359375 C2.92330693 9.029463 2.92330693 9.029463 4 11 C0.24495289 9.54643338 0.24495289 9.54643338 -0.8125 7.1875 C-1.03322704 4.61235122 -0.62444329 2.49777315 0 0 Z " fill="#CAB178" transform="translate(11,34)"/>
<path d="M0 0 C0.33 0 0.66 0 1 0 C1.19477739 1.62414378 1.38059458 3.24936423 1.5625 4.875 C1.66691406 5.77992187 1.77132812 6.68484375 1.87890625 7.6171875 C2 10 2 10 1 12 C0.34 12 -0.32 12 -1 12 C-0.67 8.04 -0.34 4.08 0 0 Z " fill="#747474" transform="translate(61,34)"/>
<path d="M0 0 C1.65 1.65 3.3 3.3 5 5 C4.34 5.66 3.68 6.32 3 7 C1.68 5.68 0.36 4.36 -1 3 C-0.67 2.01 -0.34 1.02 0 0 Z " fill="#3A3332" transform="translate(55,13)"/>
</svg>
