<?xml version="1.0" encoding="UTF-8"?>
<svg version="1.1" xmlns="http://www.w3.org/2000/svg" width="64" height="64">
<path d="M0 0 C19.8 0 39.6 0 60 0 C60 11.55 60 23.1 60 35 C59.01 35.33 58.02 35.66 57 36 C57.495 36.7425 57.99 37.485 58.5 38.25 C61.003491 43.11594026 60.23217124 48.68585836 60 54 C59.278125 53.2575 58.55625 52.515 57.8125 51.75 C53.56343046 47.033638 53.56343046 47.033638 48 45 C45.50380376 52.19491857 46.12130233 56.80325583 49 64 C33.82 64 18.64 64 3 64 C3.66 61.03 4.32 58.06 5 55 C5.77418329 51.26984416 6.25784377 48.63377089 5 45 C3.35 45.99 1.7 46.98 0 48 C0 32.16 0 16.32 0 0 Z " fill="#52300D" transform="translate(0,0)"/>
<path d="M0 0 C0.33 0 0.66 0 1 0 C1 7.92 1 15.84 1 24 C0.01 24.33 -0.98 24.66 -2 25 C-1.505 25.7425 -1.01 26.485 -0.5 27.25 C2.003491 32.11594026 1.23217124 37.68585836 1 43 C0.278125 42.2575 -0.44375 41.515 -1.1875 40.75 C-5.43656954 36.033638 -5.43656954 36.033638 -11 34 C-13.49619624 41.19491857 -12.87869767 45.80325583 -10 53 C-25.18 53 -40.36 53 -56 53 C-55.34 50.03 -54.68 47.06 -54 44 C-53.22581671 40.26984416 -52.74215623 37.63377089 -54 34 C-55.65 34.99 -57.3 35.98 -59 37 C-59 25.45 -59 13.9 -59 2 C-50.87007874 4.32283465 -50.87007874 4.32283465 -48 9 C-46.75 12.3125 -46.75 12.3125 -46 15 C-49 14 -49 14 -50 13 C-50 14.98 -50 16.96 -50 19 C-49.01 19 -48.02 19 -47 19 C-47 19.66 -47 20.32 -47 21 C-46.071875 21.103125 -45.14375 21.20625 -44.1875 21.3125 C-40.96745642 22.0070192 -39.97420135 22.47740939 -38 25 C-40.64 24.67 -43.28 24.34 -46 24 C-43.08235 25.9451 -41.37462715 26.45276317 -38 27 C-38 27.33 -38 27.66 -38 28 C-42.95 28.495 -42.95 28.495 -48 29 C-48 29.66 -48 30.32 -48 31 C-42.83805829 32.76045541 -42.83805829 32.76045541 -37.625 32.3125 C-35.72562949 30.91208733 -35.72562949 30.91208733 -34 28 C-33.67 31.3 -33.34 34.6 -33 38 C-32.01 37.34 -31.02 36.68 -30 36 C-29.58519893 33.97112689 -29.58519893 33.97112689 -29.70703125 31.6484375 C-29.71669922 30.79765625 -29.72636719 29.946875 -29.73632812 29.0703125 C-29.76146484 28.18085937 -29.78660156 27.29140625 -29.8125 26.375 C-29.82603516 25.4778125 -29.83957031 24.580625 -29.85351562 23.65625 C-29.88893075 21.43690211 -29.93831539 19.21874812 -30 17 C-28 20.75 -28 20.75 -28 23 C-26.35 23.33 -24.7 23.66 -23 24 C-23 24.66 -23 25.32 -23 26 C-18.51315799 25.66132538 -18.51315799 25.66132538 -15.125 22.9375 C-14.75375 22.298125 -14.3825 21.65875 -14 21 C-14.763125 21.515625 -15.52625 22.03125 -16.3125 22.5625 C-17.199375 23.036875 -18.08625 23.51125 -19 24 C-19.99 23.67 -20.98 23.34 -22 23 C-20.35 22.34 -18.7 21.68 -17 21 C-17 20.34 -17 19.68 -17 19 C-15.02 18.34 -13.04 17.68 -11 17 C-10.505 17.99 -10.505 17.99 -10 19 C-9.835 17.906875 -9.67 16.81375 -9.5 15.6875 C-8.01752605 9.57092231 -3.97555141 4.75318674 0 0 Z " fill="#2F0901" transform="translate(59,11)"/>
<path d="M0 0 C8.12992126 2.32283465 8.12992126 2.32283465 11 7 C12.25 10.3125 12.25 10.3125 13 13 C10 12 10 12 9 11 C9 12.98 9 14.96 9 17 C9.99 17 10.98 17 12 17 C12 17.66 12 18.32 12 19 C12.928125 19.103125 13.85625 19.20625 14.8125 19.3125 C18.03254358 20.0070192 19.02579865 20.47740939 21 23 C18.36 22.67 15.72 22.34 13 22 C15.91765 23.9451 17.62537285 24.45276317 21 25 C21 25.33 21 25.66 21 26 C16.05 26.495 16.05 26.495 11 27 C11 27.66 11 28.32 11 29 C16.16194171 30.76045541 16.16194171 30.76045541 21.375 30.3125 C23.27437051 28.91208733 23.27437051 28.91208733 25 26 C25.33 29.3 25.66 32.6 26 36 C30.33564215 33.44031405 30.33564215 33.44031405 30.75 29.3125 C30.8325 28.219375 30.915 27.12625 31 26 C34.3 26.33 37.6 26.66 41 27 C41 27.99 41 28.98 41 30 C37.98968256 30.93423645 37.13349732 31.04449911 34 30 C35.32 31.65 36.64 33.3 38 35 C37.505 35.99 37.505 35.99 37 37 C35.35 36.01 33.7 35.02 32 34 C31.87625 35.175625 31.87625 35.175625 31.75 36.375 C31 39 31 39 28.9375 40.3125 C28.298125 40.539375 27.65875 40.76625 27 41 C26.34 40.34 25.68 39.68 25 39 C22.89179203 39.3185177 22.89179203 39.3185177 21 40 C24.02910163 41.14738568 24.02910163 41.14738568 27.5 41.25 C31 42 31 42 33 44.4375 C33.495 45.7059375 33.495 45.7059375 34 47 C33.505 47.99 33.505 47.99 33 49 C32.443125 48.34 31.88625 47.68 31.3125 47 C29.18550128 44.83111157 29.18550128 44.83111157 26.5625 44.5 C23.22421163 45.15137334 21.54095519 46.80241714 19 49 C18.34 49 17.68 49 17 49 C16.67 49.66 16.34 50.32 16 51 C11.71 51 7.42 51 3 51 C3.309375 49.63875 3.61875 48.2775 3.9375 46.875 C5.89841387 39.43990947 5.89841387 39.43990947 5 32 C3.35 32.99 1.7 33.98 0 35 C0 23.45 0 11.9 0 0 Z " fill="#361104" transform="translate(0,13)"/>
<path d="M0 0 C9.9 0 19.8 0 30 0 C29.67 1.65 29.34 3.3 29 5 C27.125 6.0625 27.125 6.0625 25 7 C21.71742271 10.64186435 21.30609934 13.94212436 20.625 18.66015625 C19.92591059 21.27737223 19.05833031 22.29404689 17 24 C11.2900237 22.67209853 9.38914289 20.51885718 6 16 C5.34 15.34 4.68 14.68 4 14 C5.32 14.33 6.64 14.66 8 15 C7.52584717 10.73262454 5.00349628 8.85698427 2 6 C0 3 0 3 0 0 Z " fill="#4F2D0D" transform="translate(12,0)"/>
<path d="M0 0 C1 2 1 2 0.44140625 3.77734375 C0.15136719 4.49019531 -0.13867188 5.20304687 -0.4375 5.9375 C-3.16928114 13.7067858 -2.57735962 20.26792115 0 28 C-9.9 28 -19.8 28 -30 28 C-29.505 26.515 -29.505 26.515 -29 25 C-27.66923011 24.65657551 -26.33568021 24.32380126 -25 24 C-24.34 23.01 -23.68 22.02 -23 21 C-19.48156769 20.54107405 -17.65139498 20.58859264 -14.625 22.5 C-14.08875 22.995 -13.5525 23.49 -13 24 C-13.5882524 21.94511644 -13.5882524 21.94511644 -15 20 C-17.64787088 19.29626983 -17.64787088 19.29626983 -20.625 19.25 C-21.62789062 19.19328125 -22.63078125 19.1365625 -23.6640625 19.078125 C-24.82035156 19.03945313 -24.82035156 19.03945313 -26 19 C-25.34 17.68 -24.68 16.36 -24 15 C-23.4225 15.165 -22.845 15.33 -22.25 15.5 C-19.73335631 16.14462031 -19.73335631 16.14462031 -16 16 C-15.34 14.35 -14.68 12.7 -14 11 C-12.35 11.66 -10.7 12.32 -9 13 C-9.495 12.38125 -9.99 11.7625 -10.5 11.125 C-12 9 -12 9 -12 7 C-8.535 6.505 -8.535 6.505 -5 6 C-5 5.34 -5 4.68 -5 4 C-4.34 4 -3.68 4 -3 4 C-3 3.34 -3 2.68 -3 2 C-2.01 1.34 -1.02 0.68 0 0 Z " fill="#3A1606" transform="translate(46,36)"/>
<path d="M0 0 C2.97 0 5.94 0 9 0 C9.33 2.64 9.66 5.28 10 8 C8.68 8.33 7.36 8.66 6 9 C8.71125838 12.16943225 8.71125838 12.16943225 12.5625 13.4375 C15 14 15 14 16.5625 16.25 C17.036875 17.1575 17.51125 18.065 18 19 C18.721875 19.886875 19.44375 20.77375 20.1875 21.6875 C22 24 22 24 22 26 C23.32 26 24.64 26 26 26 C26 27.65 26 29.3 26 31 C24.3125 32.1875 24.3125 32.1875 22 33 C20.32111559 32.02065076 18.65661761 31.01656081 17 30 C14.32354764 29.45175091 11.73050925 29.23139909 9 29 C7 22.375 7 22.375 7 19 C8.98 21.97 8.98 21.97 11 25 C11 22.34352014 9.07388671 19.35429009 8 17 C5.7018576 14.40371521 5.7018576 14.40371521 0 13 C0 8.71 0 4.42 0 0 Z " fill="#583612" transform="translate(0,0)"/>
<path d="M0 0 C4.62 0 9.24 0 14 0 C14.52849741 5.98963731 14.52849741 5.98963731 14 9 C11 11.5625 11 11.5625 8 13 C8.33 11.68 8.66 10.36 9 9 C8.34 9 7.68 9 7 9 C6.90332031 9.52464844 6.80664062 10.04929687 6.70703125 10.58984375 C5.75911123 13.82115122 4.26667824 16.59012811 2.6875 19.5625 C2.09324219 20.69816406 1.49898437 21.83382813 0.88671875 23.00390625 C-0.90043722 25.84189512 -2.19314211 27.25801191 -5 29 C-5.66 29.4125 -6.32 29.825 -7 30.25 C-9.416649 31.15624337 -10.60744429 30.85448418 -13 30 C-10.9785826 27.22990949 -9.52141549 25.26706647 -6.4375 23.6875 C-2.77035726 21.14870887 -2.30924585 18.20336824 -1 14 C-3.50965614 14.70339566 -3.50965614 14.70339566 -6 16 C-6.75243555 17.92638012 -6.75243555 17.92638012 -7 20 C-7.66 20.99 -8.32 21.98 -9 23 C-8.62472519 17.62106101 -7.00517004 15.51673467 -3 12 C-2.34 11.34 -1.68 10.68 -1 10 C-1.165 9.236875 -1.33 8.47375 -1.5 7.6875 C-2 5 -2 5 0 0 Z " fill="#563311" transform="translate(46,0)"/>
<path d="M0 0 C4.19514552 4.19514552 4.125 10.36712965 4.125 16 C4.09329293 17.66688588 4.05513412 19.33372448 4 21 C2.02 21.99 2.02 21.99 0 23 C-0.66 20.69 -1.32 18.38 -2 16 C-2.66 16.53625 -3.32 17.0725 -4 17.625 C-8.32408255 19.60687117 -10.54535291 18.43454737 -15 17 C-15 15.68 -15 14.36 -15 13 C-13.35 12.67 -11.7 12.34 -10 12 C-11.32 10.68 -12.64 9.36 -14 8 C-11.36 8.33 -8.72 8.66 -6 9 C-8.64 8.01 -11.28 7.02 -14 6 C-14 5.34 -14 4.68 -14 4 C-14.99 3.67 -15.98 3.34 -17 3 C-11.22112055 2.70109244 -8.17033171 3.16862788 -3 6 C-2.34 5.67 -1.68 5.34 -1 5 C-0.34444881 2.47266765 -0.34444881 2.47266765 0 0 Z " fill="#361E1A" transform="translate(26,26)"/>
<path d="M0 0 C0.99 0 1.98 0 3 0 C6 5.75 6 5.75 6 8 C6.598125 8.226875 7.19625 8.45375 7.8125 8.6875 C10.60188284 10.3611297 11.6168842 12.08817726 13 15 C12.67 15.66 12.34 16.32 12 17 C11.34 16.67 10.68 16.34 10 16 C12.06296412 19.01510141 13.57950727 20.78975363 16.875 22.4375 C20.55992776 23.100787 22.59677151 22.45852649 26 21 C21.6 31.4 21.6 31.4 19 34 C18.67 31.36 18.34 28.72 18 26 C17.24203125 26.07734375 16.4840625 26.1546875 15.703125 26.234375 C13 26 13 26 11.234375 24.390625 C10.74453125 23.68421875 10.2546875 22.9778125 9.75 22.25 C9.24984375 21.55390625 8.7496875 20.8578125 8.234375 20.140625 C7.03695863 18.06409281 6.44314942 16.34236124 6 14 C5.01 14.33 4.02 14.66 3 15 C-0.1875 13.1875 -0.1875 13.1875 -3 11 C-3 10.34 -3 9.68 -3 9 C-1.68 8.67 -0.36 8.34 1 8 C0.67 5.36 0.34 2.72 0 0 Z " fill="#381806" transform="translate(9,0)"/>
<path d="M0 0 C0.66 0 1.32 0 2 0 C2 0.99 2 1.98 2 3 C2.45375 2.505 2.9075 2.01 3.375 1.5 C5 0 5 0 7 0 C5.9001899 3.51939232 4.30492385 5.93911726 2 8.75 C-1.25550342 12.91069218 -2.30490699 16.82275548 -3 22 C-3.99 21.34 -4.98 20.68 -6 20 C-8.64632287 20.3121764 -8.64632287 20.3121764 -11 21 C-11 21.66 -11 22.32 -11 23 C-12.98 23.99 -12.98 23.99 -15 25 C-12.69 24.34 -10.38 23.68 -8 23 C-9.36983503 26.16115776 -9.9890638 26.9927092 -13 29 C-15.625 28.75 -15.625 28.75 -18 28 C-18.33 27.34 -18.66 26.68 -19 26 C-19.99 25.67 -20.98 25.34 -22 25 C-21 23 -21 23 -18.9375 22.1875 C-9.3005637 18.29171724 -6.11808077 13.53453733 -2 4 C-1.34305089 2.66185199 -0.68062409 1.32626282 0 0 Z " fill="#391505" transform="translate(53,9)"/>
<path d="M0 0 C2.875 -0.4375 2.875 -0.4375 6 0 C8.375 2 8.375 2 10 4 C10 2.68 10 1.36 10 0 C11.65 0 13.3 0 15 0 C15.33 2.31 15.66 4.62 16 7 C8.41 7 0.82 7 -7 7 C-6.67 6.01 -6.34 5.02 -6 4 C-4.66923011 3.65657551 -3.33568021 3.32380126 -2 3 C-1.34 2.01 -0.68 1.02 0 0 Z " fill="#3E1A07" transform="translate(23,57)"/>
<path d="M0 0 C0.33 0 0.66 0 1 0 C1 6.27 1 12.54 1 19 C-0.65 19.33 -2.3 19.66 -4 20 C-5.625 18.5625 -5.625 18.5625 -7 16 C-6.68431252 9.83824816 -4.37991651 4.37991651 0 0 Z " fill="#2E6119" transform="translate(59,16)"/>
<path d="M0 0 C0.66 1.32 1.32 2.64 2 4 C2.66 4 3.32 4 4 4 C4.82456709 8.41346155 5.24991653 12.69892762 5.375 17.1875 C5.42398437 18.39792969 5.47296875 19.60835937 5.5234375 20.85546875 C5.35070312 21.89316406 5.17796875 22.93085937 5 24 C3.35 24.99 1.7 25.98 0 27 C0 18.09 0 9.18 0 0 Z " fill="#2A0400" transform="translate(0,21)"/>
<path d="M0 0 C4.29 0 8.58 0 13 0 C11 4 11 4 7.9375 5.0625 C6.968125 5.371875 5.99875 5.68125 5 6 C4.67 6.99 4.34 7.98 4 9 C2.02 9 0.04 9 -2 9 C-1.51421457 5.87709365 -1.0013988 3.00419641 0 0 Z " fill="#254B12" transform="translate(46,0)"/>
<path d="M0 0 C3.73653778 0.54661142 5.06880151 1.89456341 7.375 4.8125 C9.56456391 7.45605556 11.51810333 9.55986685 14.4375 11.375 C15.283125 11.91125 16.12875 12.4475 17 13 C17 13.66 17 14.32 17 15 C15.68 14.34 14.36 13.68 13 13 C13 15.33859436 13.60856242 17.70030423 14 20 C13.34 19.67 12.68 19.34 12 19 C12 18.34 12 17.68 12 17 C11.34 17 10.68 17 10 17 C9.608125 16.113125 9.21625 15.22625 8.8125 14.3125 C6.92355501 10.8602902 4.83798535 8.69244764 2 6 C0 3 0 3 0 0 Z " fill="#553310" transform="translate(12,0)"/>
<path d="M0 0 C2.97 0 5.94 0 9 0 C9.33 2.64 9.66 5.28 10 8 C7.25 8.75 7.25 8.75 4 9 C1.625 7.375 1.625 7.375 0 5 C-0.25 2.25 -0.25 2.25 0 0 Z " fill="#35631E" transform="translate(0,0)"/>
<path d="M0 0 C2.3125 0.125 2.3125 0.125 5 1 C9.15017879 6.2950557 8.27879645 12.61865894 8 19 C5.00671721 16.24324365 4.17277566 13.90925221 3 10 C2.649375 9.154375 2.29875 8.30875 1.9375 7.4375 C0.98724599 4.96683958 0.44648401 2.60449005 0 0 Z " fill="#48250A" transform="translate(52,35)"/>
<path d="M0 0 C2 4 2 4 2 6 C3.65 6.33 5.3 6.66 7 7 C7 7.66 7 8.32 7 9 C8.98 9 10.96 9 13 9 C13 9.99 13 10.98 13 12 C6.375 13.125 6.375 13.125 3 12 C2.67 13.98 2.34 15.96 2 18 C1.67 18 1.34 18 1 18 C0.67 12.06 0.34 6.12 0 0 Z " fill="#250500" transform="translate(29,28)"/>
<path d="M0 0 C1.32 0 2.64 0 4 0 C3.34 2.97 2.68 5.94 2 9 C3.32 9.33 4.64 9.66 6 10 C2.04 11.98 2.04 11.98 -2 14 C-3.81975482 8.87160006 -1.8599099 4.82315618 0 0 Z " fill="#361104" transform="translate(42,0)"/>
<path d="M0 0 C3.63 0.33 7.26 0.66 11 1 C11 2 11 3 11 4 C11.66 4.66 12.32 5.32 13 6 C11.75 7.5625 11.75 7.5625 10 9 C7.0695312 8.90546875 5.98138687 7.98397203 3.75 6.0625 C2 4 2 4 2 2 C1.34 2 0.68 2 0 2 C0 1.34 0 0.68 0 0 Z " fill="#243C0E" transform="translate(19,0)"/>
<path d="M0 0 C0.66 0 1.32 0 2 0 C3.32229189 2.64458379 3.09677194 4.67761301 3.0625 7.625 C3.05347656 8.62789062 3.04445313 9.63078125 3.03515625 10.6640625 C3.02355469 11.43492188 3.01195312 12.20578125 3 13 C1.02 13.99 1.02 13.99 -1 15 C-1.91147322 10.03753471 -1.99130954 5.95654768 -1 1 C-0.67 0.67 -0.34 0.34 0 0 Z " fill="#5E3B17" transform="translate(27,34)"/>
<path d="M0 0 C2.475 0.495 2.475 0.495 5 1 C5 1.66 5 2.32 5 3 C5.928125 3.103125 6.85625 3.20625 7.8125 3.3125 C11.03254358 4.0070192 12.02579865 4.47740939 14 7 C11.36 6.67 8.72 6.34 6 6 C8.91765 7.9451 10.62537285 8.45276317 14 9 C14 9.33 14 9.66 14 10 C6.8173913 10.60869565 6.8173913 10.60869565 3.0625 7.8125 C1.02283417 5.03113751 0.2909126 3.39398034 0 0 Z " fill="#1F0500" transform="translate(7,29)"/>
<path d="M0 0 C6.75 -0.125 6.75 -0.125 9 1 C11.09821215 0.60061233 11.09821215 0.60061233 13 0 C12.875 1.875 12.875 1.875 12 4 C9.18080917 5.5438426 7.22226206 6.3446779 4.046875 5.44921875 C2.32832225 4.71219714 0.65903004 3.86269562 -1 3 C-0.67 2.01 -0.34 1.02 0 0 Z " fill="#3F1C07" transform="translate(11,39)"/>
<path d="M0 0 C5.87813672 -0.30404155 8.68849015 0.34424508 14 3 C16.35460678 2.32575833 16.35460678 2.32575833 18 1 C17.3125 2.9375 17.3125 2.9375 16 5 C12.47686011 6.55432642 10.14661059 5.84818712 6.6875 4.5625 C5.45328085 4.05375532 4.22226641 3.53682668 3 3 C3 2.34 3 1.68 3 1 C2.01 0.67 1.02 0.34 0 0 Z " fill="#361104" transform="translate(9,29)"/>
<path d="M0 0 C1.32 0 2.64 0 4 0 C4 0.66 4 1.32 4 2 C4.66 2 5.32 2 6 2 C7.7265625 3.96875 7.7265625 3.96875 9.625 6.5 C10.25664062 7.3353125 10.88828125 8.170625 11.5390625 9.03125 C12.26222656 10.00578125 12.26222656 10.00578125 13 11 C12.67 11.66 12.34 12.32 12 13 C10.55524014 11.77937479 9.11949236 10.54807874 7.6875 9.3125 C6.88699219 8.62800781 6.08648437 7.94351562 5.26171875 7.23828125 C2.98304764 4.98322332 1.51982357 2.80847657 0 0 Z " fill="#6E4B25" transform="translate(15,0)"/>
<path d="M0 0 C0.99 0.33 1.98 0.66 3 1 C3 1.66 3 2.32 3 3 C2.34 3 1.68 3 1 3 C1.45375 4.03125 1.9075 5.0625 2.375 6.125 C3.75861539 9.37320185 5.0493664 12.59356294 6 16 C5.67 16.66 5.34 17.32 5 18 C0.71183476 14.85534549 0.14337117 11.3924119 -0.80078125 6.4375 C-0.99985883 4.00172725 -0.74343056 2.31051799 0 0 Z " fill="#351104" transform="translate(51,32)"/>
<path d="M0 0 C1.26977059 3.80931176 0.52074507 5.81618993 -0.4375 9.6875 C-0.72496094 10.86699219 -1.01242188 12.04648437 -1.30859375 13.26171875 C-1.53675781 14.16535156 -1.76492187 15.06898437 -2 16 C-4.23790086 13.97636625 -4.94134232 13.32261721 -5.5 10.25 C-4.83009843 5.89563979 -2.76382829 3.33633558 0 0 Z " fill="#311204" transform="translate(38,4)"/>
<path d="M0 0 C2.125 2.375 2.125 2.375 3 5 C2.67 5.66 2.34 6.32 2 7 C1.1646875 6.01 1.1646875 6.01 0.3125 5 C-1.81800303 2.81113363 -1.81800303 2.81113363 -4.5 2.5625 C-7.39843626 3.06972634 -8.82182537 4.06384477 -11 6 C-11 4.35 -11 2.7 -11 1 C-7.55137903 -0.72431049 -3.76171045 -0.63268256 0 0 Z " fill="#2C0900" transform="translate(31,55)"/>
<path d="M0 0 C0.66 0.99 1.32 1.98 2 3 C0.9024777 5.99324263 0.32317108 6.84610901 -2.625 8.25 C-3.40875 8.4975 -4.1925 8.745 -5 9 C-4.01 7.35 -3.02 5.7 -2 4 C-2.763125 4.515625 -3.52625 5.03125 -4.3125 5.5625 C-5.199375 6.036875 -6.08625 6.51125 -7 7 C-7.99 6.67 -8.98 6.34 -10 6 C-8.35 5.34 -6.7 4.68 -5 4 C-5 3.34 -5 2.68 -5 2 C-3.35 1.34 -1.7 0.68 0 0 Z " fill="#1B0A08" transform="translate(47,28)"/>
<path d="M0 0 C-0.55106513 3.3063908 -1.09987871 6.19982126 -3 9 C-5.125 9.75 -5.125 9.75 -7 10 C-6.47731534 7.23723823 -5.89130413 4.6739124 -5 2 C-2 0 -2 0 0 0 Z " fill="#401E08" transform="translate(45,14)"/>
<path d="M0 0 C0.33 0 0.66 0 1 0 C1.35474551 3.07446111 1.53698855 5.94127109 1 9 C-2 11.5625 -2 11.5625 -5 13 C-5.125 10.625 -5.125 10.625 -5 8 C-4.34 7.34 -3.68 6.68 -3 6 C-2.31246699 4.34183216 -1.64438717 2.67540664 -1 1 C-0.67 0.67 -0.34 0.34 0 0 Z " fill="#4F2D0C" transform="translate(59,0)"/>
<path d="M0 0 C3.63 0 7.26 0 11 0 C9.68 1.32 8.36 2.64 7 4 C6.01 3.67 5.02 3.34 4 3 C1.80961577 4.37168238 1.80961577 4.37168238 0 6 C-0.66 5.67 -1.32 5.34 -2 5 C-1.34 3.35 -0.68 1.7 0 0 Z " fill="#417829" transform="translate(46,0)"/>
<path d="M0 0 C0.66 1.32 1.32 2.64 2 4 C-1.63 4 -5.26 4 -9 4 C-8.67 3.01 -8.34 2.02 -8 1 C-5.29120665 -0.35439668 -2.99066732 -0.06501451 0 0 Z " fill="#573511" transform="translate(30,60)"/>
<path d="M0 0 C2.475 0.495 2.475 0.495 5 1 C5.33 3.64 5.66 6.28 6 9 C2.83884224 7.63016497 2.0072908 7.0109362 0 4 C0 2.68 0 1.36 0 0 Z " fill="#522F12" transform="translate(52,35)"/>
<path d="M0 0 C0.33 0.66 0.66 1.32 1 2 C-1.07333512 7.94356068 -5.24434197 11.18191825 -10 15 C-10.66 14.67 -11.32 14.34 -12 14 C-9.98442478 11.23791543 -8.44475419 9.24949625 -5.4375 7.5625 C-2.30193526 5.5525226 -1.42600071 3.37737011 0 0 Z " fill="#6F4C26" transform="translate(45,16)"/>
<path d="M0 0 C0.33 0 0.66 0 1 0 C1.25 6.625 1.25 6.625 -1 10 C-1.99 10 -2.98 10 -4 10 C-4.99 10.33 -5.98 10.66 -7 11 C-5.54682061 7.6092481 -3.58699688 5.58699688 -1 3 C-0.67 2.01 -0.34 1.02 0 0 Z " fill="#2B0500" transform="translate(24,39)"/>
<path d="M0 0 C1.08901177 3.26703531 0.93102067 4.67483286 0.3125 8 C0.16425781 8.86625 0.01601563 9.7325 -0.13671875 10.625 C-1.18214336 13.50110028 -2.43743172 14.41339968 -5 16 C-4.71125 15.38125 -4.4225 14.7625 -4.125 14.125 C-2.81755714 10.49321427 -2.14369314 6.90195505 -1.46484375 3.109375 C-1 1 -1 1 0 0 Z " fill="#6F4C26" transform="translate(33,8)"/>
<path d="M0 0 C4.2026393 2.63886654 7.56638098 5.36440339 11 9 C10.67 9.66 10.34 10.32 10 11 C9.1646875 10.3503125 9.1646875 10.3503125 8.3125 9.6875 C6.0183296 7.92073494 6.0183296 7.92073494 3.3125 6.625 C1 5 1 5 0.1875 2.3125 C0.0946875 1.1678125 0.0946875 1.1678125 0 0 Z " fill="#6E4B25" transform="translate(0,5)"/>
<path d="M0 0 C0.33 0.66 0.66 1.32 1 2 C-2.85623679 7.66384778 -2.85623679 7.66384778 -6.11328125 8.62109375 C-8.06660622 8.84661084 -10.03482858 8.93338402 -12 9 C-12 8.34 -12 7.68 -12 7 C-8.535 6.505 -8.535 6.505 -5 6 C-5 5.34 -5 4.68 -5 4 C-4.34 4 -3.68 4 -3 4 C-3 3.34 -3 2.68 -3 2 C-2.01 1.34 -1.02 0.68 0 0 Z " fill="#5F3C18" transform="translate(46,36)"/>
<path d="M0 0 C3.12479543 4.16639391 3.6288985 5.07362841 3 10 C2.01 10.99 1.02 11.98 0 13 C0 8.71 0 4.42 0 0 Z " fill="#204811" transform="translate(0,21)"/>
<path d="M0 0 C4.29 0 8.58 0 13 0 C11.515 2.475 11.515 2.475 10 5 C7.3125 5.3125 7.3125 5.3125 5 5 C5.33 4.34 5.66 3.68 6 3 C6.66 3 7.32 3 8 3 C8 2.34 8 1.68 8 1 C5.36 1 2.72 1 0 1 C0 0.67 0 0.34 0 0 Z " fill="#5B9A3E" transform="translate(22,0)"/>
<path d="M0 0 C0.99 0.99 1.98 1.98 3 3 C2.01 5.97 1.02 8.94 0 12 C-0.66 11.67 -1.32 11.34 -2 11 C-2 8.66181321 -1.52099157 6.65433812 -1 4.375 C-0.814375 3.55773438 -0.62875 2.74046875 -0.4375 1.8984375 C-0.293125 1.27195313 -0.14875 0.64546875 0 0 Z " fill="#563411" transform="translate(13,52)"/>
<path d="M0 0 C0.33 0 0.66 0 1 0 C1 4.62 1 9.24 1 14 C-1.34171739 11.65828261 -1.391923 10.76939546 -1.75 7.5625 C-1.84796875 6.78003906 -1.9459375 5.99757813 -2.046875 5.19140625 C-2 3 -2 3 0 0 Z " fill="#5C9B3F" transform="translate(59,18)"/>
<path d="M0 0 C2.475 0.99 2.475 0.99 5 2 C4.34 3.32 3.68 4.64 3 6 C1.02 6 -0.96 6 -3 6 C-2 4 -1 2 0 0 Z " fill="#3B1706" transform="translate(8,58)"/>
<path d="M0 0 C-1.36983503 3.16115776 -1.9890638 3.9927092 -5 6 C-7.6875 5.625 -7.6875 5.625 -10 5 C-8.28489314 1.56978628 -3.75681361 0 0 0 Z " fill="#42464A" transform="translate(45,32)"/>
<path d="M0 0 C1.99097846 2.98646769 2.94124926 5.59687262 4 9 C2.02 9 0.04 9 -2 9 C-1.34 6.03 -0.68 3.06 0 0 Z " fill="#563410" transform="translate(42,55)"/>
<path d="M0 0 C1.65 0 3.3 0 5 0 C5.33 2.31 5.66 4.62 6 7 C4.125 6.875 4.125 6.875 2 6 C0.75 2.9375 0.75 2.9375 0 0 Z " fill="#5A3814" transform="translate(33,57)"/>
<path d="M0 0 C1.9375 0.375 1.9375 0.375 4 1 C4.33 1.66 4.66 2.32 5 3 C7.52733235 3.65555119 7.52733235 3.65555119 10 4 C8.4375 5.1875 8.4375 5.1875 6 6 C2.25 4.625 2.25 4.625 -1 3 C-0.67 2.01 -0.34 1.02 0 0 Z " fill="#5A3814" transform="translate(11,39)"/>
<path d="M0 0 C0.33 0 0.66 0 1 0 C1.3125 3.3125 1.3125 3.3125 1 7 C-1.5 8.9375 -1.5 8.9375 -4 10 C-3.4359146 6.05140217 -2.2568294 3.29120954 0 0 Z " fill="#49260A" transform="translate(4,38)"/>
<path d="M0 0 C1.44010481 0.25662245 2.8770687 0.53090821 4.3125 0.8125 C5.11300781 0.96332031 5.91351563 1.11414062 6.73828125 1.26953125 C9 2 9 2 12 5 C8.37 4.34 4.74 3.68 1 3 C0.67 2.01 0.34 1.02 0 0 Z " fill="#0D0F11" transform="translate(9,31)"/>
<path d="M0 0 C0 0.99 0 1.98 0 3 C-2.64 3.33 -5.28 3.66 -8 4 C-7.67 3.01 -7.34 2.02 -7 1 C-4.53721199 -0.231394 -2.7204945 -0.07159196 0 0 Z " fill="#452209" transform="translate(41,40)"/>
<path d="M0 0 C1.28317892 3.84953676 1.06643637 6.94738135 1 11 C-0.5 9.875 -0.5 9.875 -2 8 C-2.3125 4.9375 -2.3125 4.9375 -2 2 C-1.34 1.34 -0.68 0.68 0 0 Z " fill="#3C1806" transform="translate(35,9)"/>
<path d="M0 0 C0.6875 1.625 0.6875 1.625 1 4 C-0.4375 7.25 -0.4375 7.25 -2 10 C-2.33 10 -2.66 10 -3 10 C-2.25 3.375 -2.25 3.375 0 0 Z " fill="#361405" transform="translate(3,35)"/>
<path d="M0 0 C0.33 1.32 0.66 2.64 1 4 C1.66 4 2.32 4 3 4 C2.67 5.65 2.34 7.3 2 9 C1.34 8.67 0.68 8.34 0 8 C-0.6875 4.5 -0.6875 4.5 -1 1 C-0.67 0.67 -0.34 0.34 0 0 Z " fill="#411F08" transform="translate(38,55)"/>
<path d="M0 0 C0.66 0 1.32 0 2 0 C2 1.65 2 3.3 2 5 C0.02 5.99 0.02 5.99 -2 7 C-2.33 6.01 -2.66 5.02 -3 4 C-2.01 4 -1.02 4 0 4 C0 2.68 0 1.36 0 0 Z " fill="#52300D" transform="translate(24,26)"/>
</svg>
