<?xml version="1.0" encoding="UTF-8"?>
<svg version="1.1" xmlns="http://www.w3.org/2000/svg" width="64" height="64">
<path d="M0 0 C17.16 0 34.32 0 52 0 C52 21.12 52 42.24 52 64 C46 64 46 64 43.125 61.6875 C41 59 41 59 41 56 C39.02 56.66 37.04 57.32 35 58 C37.35277269 60.72426311 39.62496331 61.8141763 43 63 C43 63.33 43 63.66 43 64 C24.85 64 6.7 64 -12 64 C-12 61.03 -12 58.06 -12 55 C-10.618125 54.7525 -9.23625 54.505 -7.8125 54.25 C-3.66228572 53.34664106 -1.10007689 52.00007441 2 49 C1.54625 48.484375 1.0925 47.96875 0.625 47.4375 C-1.38200383 44.42699426 -2.12731809 41.49072763 -3 38 C-3.8971875 37.9071875 -3.8971875 37.9071875 -4.8125 37.8125 C-7.98635773 36.63363856 -8.5483102 35.01787907 -10 32 C-10.3984375 28.66015625 -10.3984375 28.66015625 -10.375 25.0625 C-10.38273438 23.87785156 -10.39046875 22.69320313 -10.3984375 21.47265625 C-9.66906896 15.11570883 -6.75330273 11.14390494 -2 7 C-1.34 7 -0.68 7 0 7 C0 4.69 0 2.38 0 0 Z " fill="#9D3000" transform="translate(12,0)"/>
<path d="M0 0 C16.83 0 33.66 0 51 0 C51 21.12 51 42.24 51 64 C45 64 45 64 42.125 61.6875 C40 59 40 59 40 56 C39.01 56.495 39.01 56.495 38 57 C36.125 57.203125 36.125 57.203125 34 57.25 C33.29875 57.27578125 32.5975 57.3015625 31.875 57.328125 C31.25625 57.21984375 30.6375 57.1115625 30 57 C27.8480563 53.77208445 27.79913557 52.71599191 28 49 C28.66 49.33 29.32 49.66 30 50 C33.4809635 50.38677372 35.52295629 50.23297484 38.6875 48.6875 C42.14671099 44.66733588 42.91625651 40.11033517 44 35 C43.01 34.34 42.02 33.68 41 33 C40.63671875 30.50390625 40.63671875 30.50390625 40.6875 27.5625 C40.69136719 26.59441406 40.69523437 25.62632813 40.69921875 24.62890625 C41 22 41 22 43 19 C43.66 19 44.32 19 45 19 C45 17.68 45 16.36 45 15 C41.942048 16.73559438 39.36620011 18.38472619 37 21 C37 20.01 37 19.02 37 18 C35.68 19.32 34.36 20.64 33 22 C32.63076923 17.44615385 32.63076923 17.44615385 34.5 15.1875 C34.995 14.795625 35.49 14.40375 36 14 C34.35 14.33 32.7 14.66 31 15 C31 14.34 31 13.68 31 13 C29.02 13.99 29.02 13.99 27 15 C26.01 14.34 25.02 13.68 24 13 C23.67 13.99 23.34 14.98 23 16 C21.72125 15.896875 20.4425 15.79375 19.125 15.6875 C18.04605469 15.60048828 18.04605469 15.60048828 16.9453125 15.51171875 C15 15 15 15 13 12 C12.60612212 9.67612053 12.26513915 7.34206251 12 5 C10.68 5.33 9.36 5.66 8 6 C7.67 7.32 7.34 8.64 7 10 C5.1875 9.8125 5.1875 9.8125 3 9 C0.46629412 5.65188866 0 4.29875783 0 0 Z " fill="#CE6204" transform="translate(13,0)"/>
<path d="M0 0 C1.32 0.33 2.64 0.66 4 1 C3.360625 1.515625 2.72125 2.03125 2.0625 2.5625 C-0.55791681 5.65935623 -0.69389817 8.02067623 -1 12 C1.47266765 11.65555119 1.47266765 11.65555119 4 11 C4.33 10.34 4.66 9.68 5 9 C4.01 9.33 3.02 9.66 2 10 C1.3125 8.25 1.3125 8.25 1 6 C2.4375 3.75 2.4375 3.75 4 2 C4.99 2.33 5.98 2.66 7 3 C6.67 4.65 6.34 6.3 6 8 C6.66 7.67 7.32 7.34 8 7 C7.67 8.32 7.34 9.64 7 11 C10.0916909 8.47043472 10.90931332 5.77545388 12 2 C13.98 1.67 15.96 1.34 18 1 C20.125 3.6875 20.125 3.6875 22 7 C21.25 9.875 21.25 9.875 20 12 C21.0828125 12.0928125 21.0828125 12.0928125 22.1875 12.1875 C25.95971495 13.27725099 27.5742702 14.95051111 30 18 C30.3125 20.8125 30.3125 20.8125 30 23 C29.51789062 22.566875 29.03578125 22.13375 28.5390625 21.6875 C27.90742187 21.130625 27.27578125 20.57375 26.625 20 C25.99851563 19.443125 25.37203125 18.88625 24.7265625 18.3125 C23.09610167 16.79827513 23.09610167 16.79827513 21 17 C21.804375 17.4125 22.60875 17.825 23.4375 18.25 C26.33653505 20.22982881 26.35182485 20.75912425 27 24 C27.99 24.33 28.98 24.66 30 25 C28.3125 26.5625 28.3125 26.5625 26 28 C23.25 27.6875 23.25 27.6875 21 27 C20.71125 28.134375 20.4225 29.26875 20.125 30.4375 C19.75375 31.613125 19.3825 32.78875 19 34 C14.00191036 36.49904482 6.45324587 35.47911045 1 35 C-2.45332188 33.75597822 -3.49754048 32.81526696 -6 30 C-6.4375 27.1875 -6.4375 27.1875 -6 25 C-6.66 25 -7.32 25 -8 25 C-7.98839844 24.16855469 -7.97679687 23.33710937 -7.96484375 22.48046875 C-7.95130859 20.85044922 -7.95130859 20.85044922 -7.9375 19.1875 C-7.92589844 18.10855469 -7.91429687 17.02960937 -7.90234375 15.91796875 C-7.86375234 12.93487831 -7.86375234 12.93487831 -9 10 C-7.5625 6.8125 -7.5625 6.8125 -6 4 C-5.34 4.33 -4.68 4.66 -4 5 C-2.68 3.35 -1.36 1.7 0 0 Z " fill="#C6AE78" transform="translate(20,19)"/>
<path d="M0 0 C0.66 0 1.32 0 2 0 C2 14.52 2 29.04 2 44 C-4 44 -4 44 -6.875 41.6875 C-9 39 -9 39 -9 36 C-9.99 36.495 -9.99 36.495 -11 37 C-12.875 37.203125 -12.875 37.203125 -15 37.25 C-15.70125 37.27578125 -16.4025 37.3015625 -17.125 37.328125 C-17.74375 37.21984375 -18.3625 37.1115625 -19 37 C-21.1519437 33.77208445 -21.20086443 32.71599191 -21 29 C-20.34 29.33 -19.68 29.66 -19 30 C-15.5190365 30.38677372 -13.47704371 30.23297484 -10.3125 28.6875 C-6.85328901 24.66733588 -6.08374349 20.11033517 -5 15 C-5.99 14.34 -6.98 13.68 -8 13 C-8.39772891 9.91760097 -8.64155809 7.95116722 -8 5 C-5.625 2.5 -5.625 2.5 -3 1 C-2.34 1 -1.68 1 -1 1 C-0.67 0.67 -0.34 0.34 0 0 Z " fill="#B94101" transform="translate(62,20)"/>
<path d="M0 0 C0.845625 0.61875 1.69125 1.2375 2.5625 1.875 C5.91372345 4.13047736 9.08856854 5.06125645 13 6 C13 6.66 13 7.32 13 8 C14.55460937 7.85691406 14.55460937 7.85691406 16.140625 7.7109375 C17.51036729 7.59835594 18.88016193 7.48641012 20.25 7.375 C21.27287109 7.27832031 21.27287109 7.27832031 22.31640625 7.1796875 C26.12063555 6.88421338 28.80928075 6.77969415 32 9 C32.474375 9.495 32.94875 9.99 33.4375 10.5 C35.4156595 12.39903312 37.43558782 13.09899031 40 14 C40 14.33 40 14.66 40 15 C21.85 15 3.7 15 -15 15 C-15 12.03 -15 9.06 -15 6 C-12.958125 5.62875 -12.958125 5.62875 -10.875 5.25 C-6.43085146 4.28113349 -3.58455754 2.75735195 0 0 Z " fill="#051C00" transform="translate(15,49)"/>
<path d="M0 0 C-0.495 0.433125 -0.99 0.86625 -1.5 1.3125 C-3.33218192 2.99740483 -3.33218192 2.99740483 -3 6 C-1.68 5.01 -0.36 4.02 1 3 C1 3.99 1 4.98 1 6 C1.78375 5.175 2.5675 4.35 3.375 3.5 C6 1 6 1 8 1 C8 2.32 8 3.64 8 5 C7.27876953 5.69029297 7.27876953 5.69029297 6.54296875 6.39453125 C4.33924846 8.68751616 4.49621027 10.56442544 4.3125 13.6875 C4.24675781 14.68136719 4.18101563 15.67523437 4.11328125 16.69921875 C4.07589844 17.45847656 4.03851563 18.21773437 4 19 C5.98 19.33 7.96 19.66 10 20 C9.01 20.33 8.02 20.66 7 21 C6.98582031 21.58007812 6.97164062 22.16015625 6.95703125 22.7578125 C6.58452025 28.8589386 5.38435075 31.72258464 1 36 C-1.73247348 37.36623674 -3.98198902 37.128426 -7 37 C-7.495 36.505 -7.495 36.505 -8 36 C-7.67 37.98 -7.34 39.96 -7 42 C-10.31070838 43.00109515 -13.30084769 43.10356134 -16.75 43.0625 C-17.73484375 43.05347656 -18.7196875 43.04445312 -19.734375 43.03515625 C-20.48203125 43.02355469 -21.2296875 43.01195312 -22 43 C-22 42.34 -22 41.68 -22 41 C-23.32 40.67 -24.64 40.34 -26 40 C-25.08476562 39.95101562 -24.16953125 39.90203125 -23.2265625 39.8515625 C-22.03804687 39.77679688 -20.84953125 39.70203125 -19.625 39.625 C-18.44164062 39.55539063 -17.25828125 39.48578125 -16.0390625 39.4140625 C-12.89437681 39.29782654 -12.89437681 39.29782654 -11 37 C-10.60235737 35.01178687 -10.26224651 33.01055661 -10 31 C-9.071875 31.20625 -8.14375 31.4125 -7.1875 31.625 C-3.84826598 32.36692966 -3.84826598 32.36692966 -1 30 C-1.433125 29.566875 -1.86625 29.13375 -2.3125 28.6875 C-4 27 -4 27 -5.3125 25.4375 C-7.63673087 23.45759963 -10.09664586 22.83874675 -13 22 C-13 21.67 -13 21.34 -13 21 C-9.16526716 20.64328067 -7.44657125 20.70228584 -4.1875 22.875 C-2 25 -2 25 -1 27 C-1.34345381 22.65751345 -1.34345381 22.65751345 -3.75 19.1875 C-6.1819094 17.90399226 -8.28594925 17.37695149 -11 17 C-10.62875 16.278125 -10.2575 15.55625 -9.875 14.8125 C-8.81025859 11.39011689 -9.39660152 10.11771927 -11 7 C-10.34 7.33 -9.68 7.66 -9 8 C-8.7525 6.88625 -8.505 5.7725 -8.25 4.625 C-7 1 -7 1 -5.0625 -0.5 C-3 -1 -3 -1 0 0 Z " fill="#79410E" transform="translate(50,14)"/>
<path d="M0 0 C1.02222656 0.01804687 2.04445313 0.03609375 3.09765625 0.0546875 C5.60774749 0.10160509 8.11587764 0.16723271 10.625 0.25 C10.77010162 3.52036728 10.85899373 6.78991007 10.9375 10.0625 C10.97939453 10.99126953 11.02128906 11.92003906 11.06445312 12.87695312 C11.11046679 15.42611035 11.10278787 17.74463949 10.625 20.25 C8.17537286 22.43588262 6.90008229 23.25 3.625 23.25 C2.965 24.24 2.305 25.23 1.625 26.25 C1 24.4375 1 24.4375 0.625 22.25 C1.285 21.26 1.945 20.27 2.625 19.25 C3.285 19.25 3.945 19.25 4.625 19.25 C4.625 17.93 4.625 16.61 4.625 15.25 C1.567048 16.98559438 -1.00879989 18.63472619 -3.375 21.25 C-3.375 20.26 -3.375 19.27 -3.375 18.25 C-4.695 19.57 -6.015 20.89 -7.375 22.25 C-7.74423077 17.69615385 -7.74423077 17.69615385 -5.875 15.4375 C-5.38 15.045625 -4.885 14.65375 -4.375 14.25 C-6.025 14.58 -7.675 14.91 -9.375 15.25 C-7.91663185 11.40521125 -6.01041701 10.0677085 -2.375 8.25 C-0.0625 7.5625 -0.0625 7.5625 1.625 7.25 C-0.685 7.25 -2.995 7.25 -5.375 7.25 C-4.715 6.92 -4.055 6.59 -3.375 6.25 C-3.375 5.59 -3.375 4.93 -3.375 4.25 C-6.75205625 4.78725895 -10.071686 5.36064623 -13.375 6.25 C-13.375 5.59 -13.375 4.93 -13.375 4.25 C-15.355 5.57 -17.335 6.89 -19.375 8.25 C-18.18259875 4.91127651 -16.34675041 2.99259079 -13.37646484 1.07910156 C-9.14262956 -0.6747536 -4.50138952 -0.15101436 0 0 Z " fill="#FC9401" transform="translate(53.375,-0.25)"/>
<path d="M0 0 C1.62038162 5.26624026 0.29541244 7.93938788 -2.0078125 12.609375 C-3.57098672 16.37576327 -3.74282265 19.94945667 -4 24 C-2.68 24.33 -1.36 24.66 0 25 C0 28.63 0 32.26 0 36 C0.66 36 1.32 36 2 36 C1.67 37.32 1.34 38.64 1 40 C-0.72264494 36.70450534 -2.29445932 33.66881155 -3 30 C-3.8971875 29.9071875 -3.8971875 29.9071875 -4.8125 29.8125 C-7.98635773 28.63363856 -8.5483102 27.01787907 -10 24 C-10.3984375 20.66015625 -10.3984375 20.66015625 -10.375 17.0625 C-10.38273438 15.87785156 -10.39046875 14.69320313 -10.3984375 13.47265625 C-9.718768 7.54887013 -6.76770378 0 0 0 Z " fill="#A43D02" transform="translate(12,8)"/>
<path d="M0 0 C4.01843305 0.24900547 7.79203837 0.52860034 11.5625 2 C13.62858588 4.87455427 13.55596613 7.29940097 13.375 10.77734375 C12.78927471 14.24898637 11.70749176 15.7663193 9 18 C6.32046906 18.97158565 3.82392496 19.48228042 1 20 C1.33 21.98 1.66 23.96 2 26 C-1.31070838 27.00109515 -4.30084769 27.10356134 -7.75 27.0625 C-8.73484375 27.05347656 -9.7196875 27.04445313 -10.734375 27.03515625 C-11.48203125 27.02355469 -12.2296875 27.01195313 -13 27 C-13 26.34 -13 25.68 -13 25 C-14.32 24.67 -15.64 24.34 -17 24 C-16.08476562 23.95101562 -15.16953125 23.90203125 -14.2265625 23.8515625 C-13.03804687 23.77679688 -11.84953125 23.70203125 -10.625 23.625 C-8.84996094 23.52058594 -8.84996094 23.52058594 -7.0390625 23.4140625 C-3.89437681 23.29782654 -3.89437681 23.29782654 -2 21 C-1.60235737 19.01178687 -1.26224651 17.01055661 -1 15 C-0.071875 15.20625 0.85625 15.4125 1.8125 15.625 C5.15173402 16.36692966 5.15173402 16.36692966 8 14 C7.566875 13.566875 7.13375 13.13375 6.6875 12.6875 C5 11 5 11 3.6875 9.4375 C1.36326913 7.45759963 -1.09664586 6.83874675 -4 6 C-4 5.67 -4 5.34 -4 5 C-0.16526716 4.64328067 1.55342875 4.70228584 4.8125 6.875 C7 9 7 9 8 11 C8.05175552 8.12688428 8.05175552 8.12688428 7 5 C4.77488786 3.23488701 2.59562397 2.22702224 0 1 C0 0.67 0 0.34 0 0 Z " fill="#815E28" transform="translate(41,30)"/>
<path d="M0 0 C0.66 0.66 1.32 1.32 2 2 C1.34 2 0.68 2 0 2 C-1.13440466 5.50634166 -1.11362514 6.7480486 0.4375 10.1875 C0.953125 11.115625 1.46875 12.04375 2 13 C2 13.66 2 14.32 2 15 C-3.61 15 -9.22 15 -15 15 C-15 12.03 -15 9.06 -15 6 C-12.958125 5.62875 -12.958125 5.62875 -10.875 5.25 C-6.43085146 4.28113349 -3.58455754 2.75735195 0 0 Z " fill="#083B03" transform="translate(15,49)"/>
<path d="M0 0 C1.04124023 -0.03577148 1.04124023 -0.03577148 2.10351562 -0.07226562 C6.05175037 -0.06101709 7.79322075 0.44813692 10.9140625 2.921875 C12.9375 5.5625 12.9375 5.5625 13.25 8.375 C13.146875 9.096875 13.04375 9.81875 12.9375 10.5625 C11.48368103 11.25949552 10.02427047 11.94483866 8.5625 12.625 C7.75039063 13.00785156 6.93828125 13.39070312 6.1015625 13.78515625 C5.38742188 14.04167969 4.67328125 14.29820313 3.9375 14.5625 C3.2775 14.2325 2.6175 13.9025 1.9375 13.5625 C2.9275 12.5725 3.9175 11.5825 4.9375 10.5625 C2.9575 11.2225 0.9775 11.8825 -1.0625 12.5625 C0.87004772 10.5379262 2.56908688 9.14144208 4.9375 7.5625 C2.6275 7.5625 0.3175 7.5625 -2.0625 7.5625 C-1.4025 7.2325 -0.7425 6.9025 -0.0625 6.5625 C-0.0625 5.9025 -0.0625 5.2425 -0.0625 4.5625 C-3.43955625 5.09975895 -6.759186 5.67314623 -10.0625 6.5625 C-10.0625 5.9025 -10.0625 5.2425 -10.0625 4.5625 C-12.0425 5.8825 -14.0225 7.2025 -16.0625 8.5625 C-13.48538805 1.34658653 -6.95119815 -0.11033648 0 0 Z " fill="#F79E0B" transform="translate(50.0625,-0.5625)"/>
<path d="M0 0 C1.22638982 5.75870003 1.39856006 10.11663989 -1.546875 15.34375 C-4.1416683 18.30125634 -7.2894692 18.90508927 -11 20 C-11.33 20.66 -11.66 21.32 -12 22 C-14.875 22.125 -14.875 22.125 -18 22 C-20 20 -20 20 -20.125 17.375 C-20.08375 16.59125 -20.0425 15.8075 -20 15 C-19.01 15.495 -19.01 15.495 -18 16 C-14.5190365 16.38677372 -12.47704371 16.23297484 -9.3125 14.6875 C-6.28796461 11.17249941 -5.68853623 7.84964189 -4.7734375 3.36328125 C-4.51820312 2.58339844 -4.26296875 1.80351563 -4 1 C-1 0 -1 0 0 0 Z " fill="#EF9F11" transform="translate(61,34)"/>
<path d="M0 0 C8.25 0 16.5 0 25 0 C23.35 1.32 21.7 2.64 20 4 C18.62631655 5.63356951 17.28062485 7.2925002 16 9 C16.33 7.35 16.66 5.7 17 4 C16.401875 4.33 15.80375 4.66 15.1875 5 C12.66368532 6.15374385 10.73104914 6 8 6 C7.67 7.32 7.34 8.64 7 10 C5.1875 9.8125 5.1875 9.8125 3 9 C0.46629412 5.65188866 0 4.29875783 0 0 Z " fill="#D86E04" transform="translate(13,0)"/>
<path d="M0 0 C0.99 0.33 1.98 0.66 3 1 C2.2575 1.6496875 2.2575 1.6496875 1.5 2.3125 C-0.33218192 3.99740483 -0.33218192 3.99740483 0 7 C1.32 6.01 2.64 5.02 4 4 C4 4.99 4 5.98 4 7 C4.78375 6.175 5.5675 5.35 6.375 4.5 C9 2 9 2 11 2 C11 6 11 6 9.625 7.75 C8 9 8 9 6 9 C6 10.65 6 12.3 6 14 C4.35369672 13.85957123 2.70795821 13.71250671 1.0625 13.5625 C-0.31228516 13.44068359 -0.31228516 13.44068359 -1.71484375 13.31640625 C-4 13 -4 13 -5 12 C-5.47311828 4.66666667 -5.47311828 4.66666667 -3.625 2.0625 C-2 1 -2 1 0 0 Z " fill="#C85B04" transform="translate(47,13)"/>
<path d="M0 0 C0.66 0 1.32 0 2 0 C2 4.95 2 9.9 2 15 C-4 15 -4 15 -6.375 13.375 C-8.4131192 10.3962104 -8.32152515 8.53677664 -8 5 C-7.05125 4.731875 -6.1025 4.46375 -5.125 4.1875 C-1.74732727 3.25013412 -1.74732727 3.25013412 0 0 Z " fill="#C85A03" transform="translate(62,49)"/>
<path d="M0 0 C0.99 0 1.98 0 3 0 C4.62038162 5.26624026 3.29541244 7.93938788 0.9921875 12.609375 C-0.57098672 16.37576327 -0.74282265 19.94945667 -1 24 C0.32 24.66 1.64 25.32 3 26 C2.67 26.66 2.34 27.32 2 28 C0.68 27.67 -0.64 27.34 -2 27 C-2.66 24.69 -3.32 22.38 -4 20 C-4.33 20 -4.66 20 -5 20 C-4.73631766 13.94849022 -4.11808762 10.66716597 0 6 C-0.33 5.01 -0.66 4.02 -1 3 C-0.67 2.01 -0.34 1.02 0 0 Z " fill="#F4CB2C" transform="translate(9,8)"/>
<path d="M0 0 C2 1.875 2 1.875 3 4 C2.0022242 6.99332739 1.2477975 7.94766315 -1 10 C-1 8 -1 6 -1 4 C-1.66 4 -2.32 4 -3 4 C-3.99 5.485 -3.99 5.485 -5 7 C-4.67 7.99 -4.34 8.98 -4 10 C-3.34 10 -2.68 10 -2 10 C-2.66 11.32 -3.32 12.64 -4 14 C-5.65 13.67 -7.3 13.34 -9 13 C-8.50769231 6.6 -8.50769231 6.6 -5.9375 3.5625 C-5.298125 3.046875 -4.65875 2.53125 -4 2 C-7.79588866 2.54226981 -9.47211993 4.20127563 -12 7 C-12.99 5.35 -13.98 3.7 -15 2 C-13.68 2.33 -12.36 2.66 -11 3 C-11 2.34 -11 1.68 -11 1 C-7.22804193 -1.56493149 -4.30808167 -1.09660261 0 0 Z " fill="#000000" transform="translate(27,18)"/>
<path d="M0 0 C3 3.75 3 3.75 3 6 C3.4125 5.484375 3.825 4.96875 4.25 4.4375 C5.11625 3.7259375 5.11625 3.7259375 6 3 C8 3.375 8 3.375 10 4 C10.99 3.67 11.98 3.34 13 3 C12.34 6.3 11.68 9.6 11 13 C10.0925 12.67 9.185 12.34 8.25 12 C4.92954193 10.80394277 4.92954193 10.80394277 1 11 C0.67 11.66 0.34 12.32 0 13 C-3.22265625 7.7265625 -3.22265625 7.7265625 -4 6 C-3 4 -3 4 -1 3 C-0.67 2.01 -0.34 1.02 0 0 Z " fill="#9E2D00" transform="translate(31,10)"/>
<path d="M0 0 C7.70774185 -0.11754726 7.70774185 -0.11754726 10.67578125 2.44921875 C13.02919768 5.6495874 15.10390297 8.94778426 15 13 C13.25 16.3125 13.25 16.3125 11 19 C10.01 19 9.02 19 8 19 C8.66 18.34 9.32 17.68 10 17 C10.37309899 15.34178227 10.70700977 13.67422986 11 12 C11.33 11.34 11.66 10.68 12 10 C10.5905727 7.75094652 10.5905727 7.75094652 8 6 C4.92416977 5.94176569 2.01264352 6.40777093 -1 7 C-1 7.66 -1 8.32 -1 9 C-2.32 8.34 -3.64 7.68 -5 7 C-4.67 6.34 -4.34 5.68 -4 5 C-3.34 5 -2.68 5 -2 5 C-1.34 3.35 -0.68 1.7 0 0 Z " fill="#805B19" transform="translate(17,12)"/>
<path d="M0 0 C0.89138672 0.30744141 0.89138672 0.30744141 1.80078125 0.62109375 C1.30707031 0.92402344 0.81335937 1.22695313 0.3046875 1.5390625 C-3.8981909 4.16960775 -3.8981909 4.16960775 -6.13671875 8.43359375 C-6.15734375 9.15546875 -6.17796875 9.87734375 -6.19921875 10.62109375 C-6.85921875 10.62109375 -7.51921875 10.62109375 -8.19921875 10.62109375 C-8.85921875 11.94109375 -9.51921875 13.26109375 -10.19921875 14.62109375 C-11.18921875 14.29109375 -12.17921875 13.96109375 -13.19921875 13.62109375 C-14.59856888 10.82239348 -14.4518728 8.71610583 -14.19921875 5.62109375 C-12.69921875 3.74609375 -12.69921875 3.74609375 -11.19921875 2.62109375 C-10.53921875 2.95109375 -9.87921875 3.28109375 -9.19921875 3.62109375 C-7.75233598 3.71965436 -7.75233598 3.71965436 -5.38671875 1.55859375 C-2.19921875 -0.37890625 -2.19921875 -0.37890625 0 0 Z " fill="#DB6E03" transform="translate(40.19921875,0.37890625)"/>
<path d="M0 0 C0.66 0 1.32 0 2 0 C2.50227431 5.27388024 1.32894202 7.91015695 -2 12 C-2.99 12.33 -3.98 12.66 -5 13 C-7 10 -7 10 -6.8125 6.4375 C-6 3 -6 3 -3 1 C-2.34 1 -1.68 1 -1 1 C-0.67 0.67 -0.34 0.34 0 0 Z " fill="#CE6205" transform="translate(62,20)"/>
<path d="M0 0 C0.71929687 0.00128906 1.43859375 0.00257812 2.1796875 0.00390625 C7.46803571 0.09303571 7.46803571 0.09303571 9.75 2.375 C8.64140625 2.57996094 7.5328125 2.78492188 6.390625 2.99609375 C4.92707133 3.26816462 3.46353033 3.54030362 2 3.8125 C1.27039063 3.94720703 0.54078125 4.08191406 -0.2109375 4.22070312 C-3.58546675 4.84959267 -6.92634694 5.51822173 -10.25 6.375 C-10.25 5.715 -10.25 5.055 -10.25 4.375 C-12.23 5.695 -14.21 7.015 -16.25 8.375 C-13.57611811 0.88813071 -7.00884793 -0.24389764 0 0 Z " fill="#F4D635" transform="translate(50.25,-0.375)"/>
<path d="M0 0 C-2.16087353 3.9805565 -4.58492687 7.01181101 -8 10 C-8.99 10 -9.98 10 -11 10 C-11 7.03 -11 4.06 -11 1 C-7.27569643 0.30710631 -3.78916254 -0.11144596 0 0 Z " fill="#2F792F" transform="translate(11,54)"/>
<path d="M0 0 C0.99 0.66 1.98 1.32 3 2 C3 3.32 3 4.64 3 6 C2.01 6.495 2.01 6.495 1 7 C0.59270772 9.32156597 0.25561323 11.6568787 0 14 C-0.33 14 -0.66 14 -1 14 C-1 12.35 -1 10.7 -1 9 C-2.98 9.66 -4.96 10.32 -7 11 C-7 12.65 -7 14.3 -7 16 C-7.33 15.01 -7.66 14.02 -8 13 C-8.99 13.495 -8.99 13.495 -10 14 C-12.6723621 14.13415472 -15.32250488 14.04318541 -18 14 C-18 13.67 -18 13.34 -18 13 C-16.02 13 -14.04 13 -12 13 C-11.67 12.01 -11.34 11.02 -11 10 C-9.2578125 9.296875 -9.2578125 9.296875 -7.125 8.75 C-4.58572946 7.90812715 -3.33113043 7.48371014 -1.8046875 5.25390625 C-0.88041223 3.11507205 -0.88041223 3.11507205 0 0 Z " fill="#902800" transform="translate(61,43)"/>
<path d="M0 0 C1.2065625 0.0309375 1.2065625 0.0309375 2.4375 0.0625 C2.87445709 5.39337655 2.87445709 5.39337655 2.4375 8.0625 C0.02890121 10.09079372 -1.39294309 11.0625 -4.5625 11.0625 C-5.2225 12.0525 -5.8825 13.0425 -6.5625 14.0625 C-7.1875 12.25 -7.1875 12.25 -7.5625 10.0625 C-6.9025 9.0725 -6.2425 8.0825 -5.5625 7.0625 C-4.9025 7.0625 -4.2425 7.0625 -3.5625 7.0625 C-3.418125 6.423125 -3.27375 5.78375 -3.125 5.125 C-2.5625 3.0625 -2.5625 3.0625 -1.5625 2.0625 C-2.2225 1.7325 -2.8825 1.4025 -3.5625 1.0625 C-2.5625 0.0625 -2.5625 0.0625 0 0 Z " fill="#F7B61A" transform="translate(61.5625,11.9375)"/>
<path d="M0 0 C0.99 0.33 1.98 0.66 3 1 C2.34 1.70125 1.68 2.4025 1 3.125 C-1.30233203 6.43460229 -1.36630156 8.06225823 -1 12 C0.65 12.33 2.3 12.66 4 13 C4.66 11.68 5.32 10.36 6 9 C6 10.65 6 12.3 6 14 C4.35369672 13.85957123 2.70795821 13.71250671 1.0625 13.5625 C-0.31228516 13.44068359 -0.31228516 13.44068359 -1.71484375 13.31640625 C-4 13 -4 13 -5 12 C-5.47311828 4.66666667 -5.47311828 4.66666667 -3.625 2.0625 C-2 1 -2 1 0 0 Z " fill="#BD4401" transform="translate(47,13)"/>
<path d="M0 0 C3.84800954 0.54971565 5.35309439 2.27037858 8 5 C10.13309192 6.23512079 10.13309192 6.23512079 12 7 C11.67 7.99 11.34 8.98 11 10 C8.69 10 6.38 10 4 10 C3.32845067 8.71086513 2.66291141 7.41859796 2 6.125 C1.62875 5.40570313 1.2575 4.68640625 0.875 3.9453125 C0 2 0 2 0 0 Z " fill="#043104" transform="translate(13,54)"/>
<path d="M0 0 C0.33 0 0.66 0 1 0 C1 2.31 1 4.62 1 7 C1.66 7 2.32 7 3 7 C3.33 8.32 3.66 9.64 4 11 C5.65 11.33 7.3 11.66 9 12 C9.33 11.34 9.66 10.68 10 10 C10 13.3 10 16.6 10 20 C10.66 20 11.32 20 12 20 C11.67 21.32 11.34 22.64 11 24 C9.27735506 20.70450534 7.70554068 17.66881155 7 14 C6.401875 13.938125 5.80375 13.87625 5.1875 13.8125 C3 13 3 13 1.25 10.9375 C-0.40740878 7.04258936 -0.21413087 4.21124039 0 0 Z " fill="#8F4012" transform="translate(2,24)"/>
<path d="M0 0 C0.45375 0.60585938 0.9075 1.21171875 1.375 1.8359375 C5.15436912 6.95512355 5.15436912 6.95512355 10 11 C10 12.32 10 13.64 10 15 C6.53950775 13.7503778 3.70372485 12.52347652 1 10 C0.390625 7.51953125 0.390625 7.51953125 0.25 4.8125 C0.19328125 3.91144531 0.1365625 3.01039062 0.078125 2.08203125 C0.05234375 1.39496094 0.0265625 0.70789062 0 0 Z " fill="#E9CD92" transform="translate(13,39)"/>
<path d="M0 0 C2.86695056 1.46843809 4.03186881 2.49291622 5.5625 5.3125 C5.75 8.0625 5.75 8.0625 5.5625 10.3125 C5.12679687 9.89097656 4.69109375 9.46945313 4.2421875 9.03515625 C0.45236541 5.54884805 -2.08309734 3.57369037 -7.4375 3.3125 C-3.36199517 -0.94825505 -3.36199517 -0.94825505 0 0 Z " fill="#CCB47C" transform="translate(44.4375,31.6875)"/>
<path d="M0 0 C3 3.75 3 3.75 3 6 C4.32 5.01 5.64 4.02 7 3 C7.042721 4.66611905 7.04063832 6.33382885 7 8 C6.67 8.33 6.34 8.66 6 9 C1.90210331 8.62056512 -0.53958935 8.30694043 -4 6 C-3 4 -3 4 -1 3 C-0.67 2.01 -0.34 1.02 0 0 Z " fill="#B83B00" transform="translate(31,10)"/>
<path d="M0 0 C-0.33 0.33 -0.66 0.66 -1 1 C0.32 0.67 1.64 0.34 3 0 C2.01 0.8971875 2.01 0.8971875 1 1.8125 C-1.3373846 3.87501834 -1.3373846 3.87501834 -1 7 C-1.99 6.34 -2.98 5.68 -4 5 C-7.14221967 5.31506627 -7.14221967 5.31506627 -10 6 C-8.20404732 1.26521567 -5.07984355 -1.69328118 0 0 Z " fill="#F28B03" transform="translate(54,9)"/>
<path d="M0 0 C0.66 0 1.32 0 2 0 C3.1577506 3.47325181 3.06866652 6.36067448 3 10 C4.32 10.66 5.64 11.32 7 12 C6.67 12.66 6.34 13.32 6 14 C4.68 13.67 3.36 13.34 2 13 C1.34 10.69 0.68 8.38 0 6 C-0.33 6 -0.66 6 -1 6 C-1.042721 4.33388095 -1.04063832 2.66617115 -1 1 C-0.67 0.67 -0.34 0.34 0 0 Z " fill="#FD9400" transform="translate(5,22)"/>
<path d="M0 0 C0.66 0 1.32 0 2 0 C2.433125 0.45375 2.86625 0.9075 3.3125 1.375 C5.35628817 3.34309231 7.34530324 4.06726871 10 5 C10 5.33 10 5.66 10 6 C5.71 6 1.42 6 -3 6 C-2.01 4.02 -1.02 2.04 0 0 Z " fill="#004500" transform="translate(45,58)"/>
<path d="M0 0 C1.32 0.33 2.64 0.66 4 1 C3.0409375 1.7425 3.0409375 1.7425 2.0625 2.5 C-0.81515269 5.98806387 -0.70230736 8.53461041 -1 13 C-1.99 12.67 -2.98 12.34 -4 12 C-4.33292585 7.75519536 -4.43885872 5.64457375 -2 2.0625 C-1.34 1.381875 -0.68 0.70125 0 0 Z " fill="#C2C8CC" transform="translate(20,19)"/>
<path d="M0 0 C0.33 0.99 0.66 1.98 1 3 C-0.45381897 3.69699552 -1.91322953 4.38233866 -3.375 5.0625 C-4.59316406 5.63677734 -4.59316406 5.63677734 -5.8359375 6.22265625 C-6.55007812 6.47917969 -7.26421875 6.73570313 -8 7 C-8.66 6.67 -9.32 6.34 -10 6 C-9.01 5.01 -8.02 4.02 -7 3 C-8.98 3.66 -10.96 4.32 -13 5 C-8.78719294 0.58658309 -6.11997997 -0.23094264 0 0 Z " fill="#F3D635" transform="translate(62,7)"/>
<path d="M0 0 C-0.7425 0.556875 -1.485 1.11375 -2.25 1.6875 C-4.91707995 3.93027178 -6.91556232 6.22074975 -9 9 C-8.67 7.35 -8.34 5.7 -8 4 C-9.98 4.99 -9.98 4.99 -12 6 C-9.51338724 -0.92699268 -6.80769872 -0.10980159 0 0 Z " fill="#F4D534" transform="translate(38,0)"/>
<path d="M0 0 C0.99 0.33 1.98 0.66 3 1 C2.7834375 1.92232422 2.7834375 1.92232422 2.5625 2.86328125 C2.376875 3.67152344 2.19125 4.47976562 2 5.3125 C1.814375 6.11300781 1.62875 6.91351563 1.4375 7.73828125 C0.90504177 10.10695938 0.90504177 10.10695938 1 13 C-0.32 12.34 -1.64 11.68 -3 11 C-3 8.03 -3 5.06 -3 2 C-2.34 3.32 -1.68 4.64 -1 6 C-0.67 4.02 -0.34 2.04 0 0 Z " fill="#7D2A05" transform="translate(11,21)"/>
<path d="M0 0 C2.97 0 5.94 0 9 0 C6.03716687 2.38672669 3.05729491 4.7353371 0 7 C0 4.69 0 2.38 0 0 Z " fill="#4E9F49" transform="translate(0,55)"/>
<path d="M0 0 C1.09658936 3.28976808 0.79953138 4.71303767 0 8 C-2.31 8 -4.62 8 -7 8 C-6.02133662 6.85373678 -5.04205413 5.70800212 -4.0625 4.5625 C-3.51722656 3.92441406 -2.97195312 3.28632812 -2.41015625 2.62890625 C-1.63204305 1.73008851 -0.84063472 0.84063472 0 0 Z " fill="#005C00" transform="translate(10,56)"/>
<path d="M0 0 C0.66 0 1.32 0 2 0 C2 3.63 2 7.26 2 11 C1.01 10.67 0.02 10.34 -1 10 C-1.02689216 8.52093108 -1.04634621 7.04172517 -1.0625 5.5625 C-1.07410156 4.73878906 -1.08570313 3.91507813 -1.09765625 3.06640625 C-1 1 -1 1 0 0 Z " fill="#C85A02" transform="translate(62,49)"/>
<path d="M0 0 C0.99 0.33 1.98 0.66 3 1 C2.67 3.31 2.34 5.62 2 8 C0.35 7.67 -1.3 7.34 -3 7 C-2.38722388 4.03824877 -1.74627478 2.61941217 0 0 Z " fill="#636363" transform="translate(24,21)"/>
<path d="M0 0 C0.66 0 1.32 0 2 0 C1.27246734 3.80718548 0.38723428 7.55485569 -0.5625 11.3125 C-0.83191406 12.38113281 -1.10132813 13.44976562 -1.37890625 14.55078125 C-1.68634766 15.76314453 -1.68634766 15.76314453 -2 17 C-2.33 17 -2.66 17 -3 17 C-3.3540919 10.48208608 -3.03901852 5.82478551 0 0 Z " fill="#AE3D01" transform="translate(12,14)"/>
<path d="M0 0 C0.33 0.99 0.66 1.98 1 3 C-1.44971624 4.22485812 -3.14234461 4.16722808 -5.875 4.1875 C-7.17050781 4.20876953 -7.17050781 4.20876953 -8.4921875 4.23046875 C-11.1241288 3.98859252 -12.73980544 3.32983541 -15 2 C-14.08476562 1.93941406 -13.16953125 1.87882812 -12.2265625 1.81640625 C-10.44378906 1.69072266 -10.44378906 1.69072266 -8.625 1.5625 C-7.44164062 1.48128906 -6.25828125 1.40007813 -5.0390625 1.31640625 C-2.08481099 1.18915064 -2.08481099 1.18915064 0 0 Z " fill="#A98740" transform="translate(39,52)"/>
<path d="M0 0 C0.886875 -0.01417969 1.77375 -0.02835937 2.6875 -0.04296875 C5 0.1875 5 0.1875 7 2.1875 C5.23086176 2.40976864 3.45955629 2.61483873 1.6875 2.8125 C0.70136719 2.92851563 -0.28476562 3.04453125 -1.30078125 3.1640625 C-4 3.1875 -4 3.1875 -7 1.1875 C-4.52224905 -0.05137548 -2.76346293 0.02008331 0 0 Z " fill="#F2C527" transform="translate(53,-0.1875)"/>
<path d="M0 0 C0.59554687 0.19980469 1.19109375 0.39960938 1.8046875 0.60546875 C0.55615077 1.39944114 -0.69421293 2.19054092 -1.9453125 2.98046875 C-2.64140625 3.42132813 -3.3375 3.8621875 -4.0546875 4.31640625 C-6.06048633 5.52427781 -8.08709546 6.58934612 -10.1953125 7.60546875 C-8.66294824 3.31484882 -4.84942721 -0.87151628 0 0 Z " fill="#F08601" transform="translate(40.1953125,0.39453125)"/>
<path d="M0 0 C-0.33 2.97 -0.66 5.94 -1 9 C-1.66 9 -2.32 9 -3 9 C-4.35439668 6.29120665 -4.06501451 3.99066732 -4 1 C-2 0 -2 0 0 0 Z " fill="#EA9E11" transform="translate(58,53)"/>
<path d="M0 0 C0.66 0 1.32 0 2 0 C0.60812281 3.36370321 -0.79431396 5.21906331 -4 7 C-7.25 7.1875 -7.25 7.1875 -10 7 C-8.39161707 3.78323414 -5.21406721 3.35329146 -2 2 C-1.34 1.34 -0.68 0.68 0 0 Z " fill="#7E3F0D" transform="translate(53,44)"/>
<path d="M0 0 C0.33 0 0.66 0 1 0 C1 2.64 1 5.28 1 8 C-1.31 8 -3.62 8 -6 8 C-6.33 8.66 -6.66 9.32 -7 10 C-7.66 8.02 -8.32 6.04 -9 4 C-6.36 4.33 -3.72 4.66 -1 5 C-0.67 3.35 -0.34 1.7 0 0 Z " fill="#763209" transform="translate(38,13)"/>
<path d="M0 0 C2.25 -0.25 2.25 -0.25 5 0 C7.3125 2 7.3125 2 9 4 C7.9275 3.979375 6.855 3.95875 5.75 3.9375 C2.85209576 3.9857984 0.71387859 4.13155885 -2 5 C-1.34 3.35 -0.68 1.7 0 0 Z " fill="#A2823D" transform="translate(18,14)"/>
<path d="M0 0 C0.99 0.33 1.98 0.66 3 1 C2.34 1.66 1.68 2.32 1 3 C0.10747287 4.19544543 -0.76643511 5.40493411 -1.625 6.625 C-2.29402344 7.57246094 -2.29402344 7.57246094 -2.9765625 8.5390625 C-3.48316406 9.26222656 -3.48316406 9.26222656 -4 10 C-5.0536628 6.83901159 -5.21514551 5.99112741 -4 3 C-2.125 1.1875 -2.125 1.1875 0 0 Z " fill="#FA9402" transform="translate(40,3)"/>
<path d="M0 0 C0.66 0.33 1.32 0.66 2 1 C2.73075648 3.3140622 3.40138258 5.64828869 4 8 C2.02 8 0.04 8 -2 8 C-1.34 5.36 -0.68 2.72 0 0 Z " fill="#0B440A" transform="translate(13,56)"/>
<path d="M0 0 C0 0.99 0 1.98 0 3 C0.33 3.99 0.66 4.98 1 6 C-0.4375 8.1875 -0.4375 8.1875 -2 10 C-2.99 9.67 -3.98 9.34 -5 9 C-4.34 8.34 -3.68 7.68 -3 7 C-3.66 6.67 -4.32 6.34 -5 6 C-4.67 5.34 -4.34 4.68 -4 4 C-3.34 4 -2.68 4 -2 4 C-1.34 2.68 -0.68 1.36 0 0 Z " fill="#CE5F04" transform="translate(59,42)"/>
<path d="M0 0 C2 2 2 2 2.125 5.125 C2.08375 6.07375 2.0425 7.0225 2 8 C1.01 8 0.02 8 -1 8 C-1.99 8.495 -1.99 8.495 -3 9 C-2.5020163 5.26512223 -2.12508244 3.18762365 0 0 Z " fill="#947A44" transform="translate(14,23)"/>
<path d="M0 0 C1.2065625 0.0309375 1.2065625 0.0309375 2.4375 0.0625 C2.4375 1.3825 2.4375 2.7025 2.4375 4.0625 C0.4575 5.0525 -1.5225 6.0425 -3.5625 7.0625 C-2.6875 3.1875 -2.6875 3.1875 -1.5625 2.0625 C-2.2225 1.7325 -2.8825 1.4025 -3.5625 1.0625 C-2.5625 0.0625 -2.5625 0.0625 0 0 Z " fill="#F3D231" transform="translate(61.5625,11.9375)"/>
<path d="M0 0 C0.99 0 1.98 0 3 0 C4.125 5.75 4.125 5.75 3 8 C2.34 7.67 1.68 7.34 1 7 C1.33 6.34 1.66 5.68 2 5 C1.01 5 0.02 5 -1 5 C-0.67 3.35 -0.34 1.7 0 0 Z " fill="#EE970B" transform="translate(9,8)"/>
<path d="M0 0 C0.99 0 1.98 0 3 0 C2.32829194 3.8063457 1.27253436 7.35206816 0 11 C-0.66 11 -1.32 11 -2 11 C-1.34 7.37 -0.68 3.74 0 0 Z " fill="#F5BA1E" transform="translate(57,35)"/>
<path d="M0 0 C-2.6860286 1.79068573 -4.6626589 2.66055791 -7.6875 3.625 C-8.49574219 3.88539062 -9.30398437 4.14578125 -10.13671875 4.4140625 C-10.75160156 4.60742188 -11.36648437 4.80078125 -12 5 C-11.67 3.68 -11.34 2.36 -11 1 C-7.32589215 -0.17571451 -3.83070817 -0.07366746 0 0 Z " fill="#A23A02" transform="translate(58,6)"/>
<path d="M0 0 C0.66 1.32 1.32 2.64 2 4 C0.1875 7 0.1875 7 -2 10 C-2.99 10 -3.98 10 -5 10 C-4.34 9.34 -3.68 8.68 -3 8 C-2.65846063 6.33499557 -2.32550502 4.66821323 -2 3 C-1.34 2.01 -0.68 1.02 0 0 Z " fill="#8A7851" transform="translate(30,21)"/>
<path d="M0 0 C-1.29299694 2.88437779 -2.65941363 4.87219421 -5 7 C-5.99 5.35 -6.98 3.7 -8 2 C-6.68 2.33 -5.36 2.66 -4 3 C-4 2.34 -4 1.68 -4 1 C-2 0 -2 0 0 0 Z " fill="#000000" transform="translate(20,18)"/>
<path d="M0 0 C1.98 0 3.96 0 6 0 C6 2.97 6 5.94 6 9 C4.97492378 6.94984757 3.95297962 4.89714292 3 2.8125 C2.12855431 0.82798477 2.12855431 0.82798477 0 0 Z " fill="#BD5A02" transform="translate(58,0)"/>
<path d="M0 0 C0.99 0 1.98 0 3 0 C3.33 3.63 3.66 7.26 4 11 C3.34 9.68 2.68 8.36 2 7 C1.34 7 0.68 7 0 7 C0 4.69 0 2.38 0 0 Z " fill="#C95904" transform="translate(3,24)"/>
<path d="M0 0 C0.99 0.66 1.98 1.32 3 2 C3 3.32 3 4.64 3 6 C1.35 6.66 -0.3 7.32 -2 8 C-1.47731534 5.23723823 -0.89130413 2.6739124 0 0 Z " fill="#9E2F00" transform="translate(61,43)"/>
<path d="M0 0 C1.65 0.33 3.3 0.66 5 1 C4.34 2.32 3.68 3.64 3 5 C1.68 5 0.36 5 -1 5 C-0.67 3.35 -0.34 1.7 0 0 Z " fill="#1F2122" transform="translate(20,27)"/>
<path d="M0 0 C0 2.62113708 -0.31292445 4.50935112 -1 7 C-2.32 7.33 -3.64 7.66 -5 8 C-4.64950425 4.75791433 -4.43778819 3.38472296 -1.9375 1.1875 C-1.298125 0.795625 -0.65875 0.40375 0 0 Z " fill="#A17F3A" transform="translate(41,26)"/>
<path d="M0 0 C0.66 0.33 1.32 0.66 2 1 C1.66226562 1.47050781 1.32453125 1.94101562 0.9765625 2.42578125 C0.30753906 3.35970703 0.30753906 3.35970703 -0.375 4.3125 C-0.81585937 4.92738281 -1.25671875 5.54226562 -1.7109375 6.17578125 C-2.83410907 7.7652392 -3.92041447 9.38062171 -5 11 C-4.50769231 4.6 -4.50769231 4.6 -1.9375 1.5625 C-0.9784375 0.7890625 -0.9784375 0.7890625 0 0 Z " fill="#0C0D0E" transform="translate(23,20)"/>
<path d="M0 0 C-6.27027027 4.75675676 -6.27027027 4.75675676 -10 6 C-8.20404732 1.26521567 -5.07984355 -1.69328118 0 0 Z " fill="#FF9600" transform="translate(54,9)"/>
<path d="M0 0 C0.6875 1.8125 0.6875 1.8125 1 4 C-0.4375 5.75 -0.4375 5.75 -2 7 C-2.99 6.67 -3.98 6.34 -5 6 C-3.35 4.02 -1.7 2.04 0 0 Z " fill="#EED297" transform="translate(32,31)"/>
<path d="M0 0 C0.33 1.32 0.66 2.64 1 4 C-0.98 4.99 -2.96 5.98 -5 7 C-5.33 5.68 -5.66 4.36 -6 3 C-5.01 3 -4.02 3 -3 3 C-1.31201173 1.56249809 -1.31201173 1.56249809 0 0 Z " fill="#BB4E03" transform="translate(45,8)"/>
<path d="M0 0 C1.485 0.99 1.485 0.99 3 2 C4.65549531 2.38499891 6.3222433 2.72793135 8 3 C8 3.66 8 4.32 8 5 C5.125 5.125 5.125 5.125 2 5 C1.34 4.34 0.68 3.68 0 3 C0 2.01 0 1.02 0 0 Z " fill="#D46705" transform="translate(41,51)"/>
<path d="M0 0 C1.1875 2.5625 1.1875 2.5625 2 5 C1.1646875 4.2575 1.1646875 4.2575 0.3125 3.5 C-2.38162983 1.75245633 -3.85375007 1.73781251 -7 2 C-7 1.34 -7 0.68 -7 0 C-3.98968256 -0.93423645 -3.13349732 -1.04449911 0 0 Z " fill="#A98740" transform="translate(39,21)"/>
<path d="M0 0 C0.66 0 1.32 0 2 0 C2 1.32 2 2.64 2 4 C-0.5 5.75 -0.5 5.75 -3 7 C-2.25 2.25 -2.25 2.25 0 0 Z " fill="#FC9300" transform="translate(62,16)"/>
<path d="M0 0 C1.65 0 3.3 0 5 0 C5.12375 0.804375 5.2475 1.60875 5.375 2.4375 C5.684375 3.7059375 5.684375 3.7059375 6 5 C6.66 5.33 7.32 5.66 8 6 C5 6 5 6 3.61328125 4.6875 C2.40885417 3.125 1.20442708 1.5625 0 0 Z " fill="#815B1C" transform="translate(48,28)"/>
<path d="M0 0 C2.64 0 5.28 0 8 0 C4.25 3 4.25 3 2 3 C1.01 3.495 1.01 3.495 0 4 C0 2.68 0 1.36 0 0 Z " fill="#F2D534" transform="translate(13,0)"/>
</svg>
