<?xml version="1.0" encoding="UTF-8"?>
<svg version="1.1" xmlns="http://www.w3.org/2000/svg" width="64" height="64">
<path d="M0 0 C1.55261536 0.00054382 1.55261536 0.00054382 3.13659668 0.00109863 C4.22243042 0.01644653 5.30826416 0.03179443 6.42700195 0.04760742 C7.42654907 0.05062866 8.42609619 0.0536499 9.45593262 0.0567627 C13.19248773 0.07246786 16.92889575 0.1143518 20.6652832 0.15307617 C33.1949707 0.24588867 33.1949707 0.24588867 45.9777832 0.34057617 C45.9777832 21.46057617 45.9777832 42.58057617 45.9777832 64.34057617 C26.8377832 64.34057617 7.6977832 64.34057617 -12.0222168 64.34057617 C-11.0322168 63.02057617 -10.0422168 61.70057617 -9.0222168 60.34057617 C-10.6722168 60.01057617 -12.3222168 59.68057617 -14.0222168 59.34057617 C-12.7022168 56.70057617 -11.3822168 54.06057617 -10.0222168 51.34057617 C-10.3522168 51.01057617 -10.6822168 50.68057617 -11.0222168 50.34057617 C-12.69764655 50.62662515 -14.36607022 50.9583885 -16.0222168 51.34057617 C-15.5478418 50.35057617 -15.0734668 49.36057617 -14.5847168 48.34057617 C-12.38446153 43.19280913 -11.98886964 38.27471152 -12.0847168 32.71557617 C-12.0222168 29.34057617 -12.0222168 29.34057617 -11.0222168 26.40307617 C-9.75382251 22.51861868 -9.88179919 19.41268668 -10.0222168 15.34057617 C-11.0122168 16.33057617 -12.0022168 17.32057617 -13.0222168 18.34057617 C-12.75067749 12.23094169 -11.99197538 8.24439559 -8.0222168 3.34057617 C-7.58697189 2.79845993 -7.15172699 2.25634369 -6.70329285 1.69779968 C-4.40368972 -0.15879415 -2.93325235 -0.0217278 0 0 Z " fill="#530404" transform="translate(18.022216796875,-0.340576171875)"/>
<path d="M0 0 C0.79481277 0.00424484 1.58962555 0.00848969 2.40852356 0.01286316 C4.94587146 0.02964945 7.48242363 0.06730051 10.01953125 0.10546875 C11.7402229 0.1205157 13.46092701 0.13420409 15.18164062 0.14648438 C19.39874387 0.17955268 23.61525267 0.2313338 27.83203125 0.29296875 C29.81203125 4.25296875 31.79203125 8.21296875 33.83203125 12.29296875 C34.16203125 12.29296875 34.49203125 12.29296875 34.83203125 12.29296875 C38.25174695 37.48201667 38.25174695 37.48201667 31.83203125 46.29296875 C30.67262087 42.8147376 31.12382241 40.83401297 31.83203125 37.29296875 C32.49203125 37.29296875 33.15203125 37.29296875 33.83203125 37.29296875 C33.83203125 33.33296875 33.83203125 29.37296875 33.83203125 25.29296875 C32.84203125 25.78796875 32.84203125 25.78796875 31.83203125 26.29296875 C31.33703125 25.30296875 31.33703125 25.30296875 30.83203125 24.29296875 C30.17203125 25.61296875 29.51203125 26.93296875 28.83203125 28.29296875 C28.33703125 24.82796875 28.33703125 24.82796875 27.83203125 21.29296875 C23.93146298 19.78593101 21.80891431 19.12329726 17.83203125 20.29296875 C15.82288966 20.29296875 13.8136045 20.29175863 11.8046875 20.26171875 C9.3953375 20.29988667 7.16594704 20.7094898 4.83203125 21.29296875 C4.51492187 20.81085937 4.1978125 20.32875 3.87109375 19.83203125 C0.80737929 15.68501444 -1.39823322 13.84203025 -6.54296875 12.85546875 C-8.06921875 12.66984375 -9.59546875 12.48421875 -11.16796875 12.29296875 C-11.16796875 15.92296875 -11.16796875 19.55296875 -11.16796875 23.29296875 C-11.49796875 23.29296875 -11.82796875 23.29296875 -12.16796875 23.29296875 C-12.49796875 20.65296875 -12.82796875 18.01296875 -13.16796875 15.29296875 C-14.15796875 16.28296875 -15.14796875 17.27296875 -16.16796875 18.29296875 C-15.89642944 12.18333426 -15.13772733 8.19678817 -11.16796875 3.29296875 C-10.79760498 2.74987061 -10.42724121 2.20677246 -10.0456543 1.6472168 C-6.99822999 -0.55068499 -3.61329196 -0.07247371 0 0 Z " fill="#640101" transform="translate(21.16796875,-0.29296875)"/>
<path d="M0 0 C1.32 0.33 2.64 0.66 4 1 C3.505 1.53625 3.01 2.0725 2.5 2.625 C0.62510456 5.59358445 0.76498575 7.55312427 1 11 C1.99 10.67 2.98 10.34 4 10 C3.67 8.02 3.34 6.04 3 4 C3.99 3.67 4.98 3.34 6 3 C6.33 4.98 6.66 6.96 7 9 C7.66 9 8.32 9 9 9 C9 7.35 9 5.7 9 4 C9.763125 4.33 10.52625 4.66 11.3125 5 C13.99069135 6.17436686 13.99069135 6.17436686 17 6 C17.33 8.97 17.66 11.94 18 15 C19.65 13.02 21.3 11.04 23 9 C23.66 9.33 24.32 9.66 25 10 C24.67 10.66 24.34 11.32 24 12 C23.960008 13.99960012 23.95653201 16.00047242 24 18 C25.65 17.67 27.3 17.34 29 17 C28.7215625 17.86625 28.7215625 17.86625 28.4375 18.75 C27.80495673 20.9680528 27.80495673 20.9680528 28.6875 22.875 C29 25 29 25 27.4375 28.0625 C24.77721698 31.2684821 22.82171547 32.44011613 19 34 C17.8553125 34.5878125 17.8553125 34.5878125 16.6875 35.1875 C12.66313114 36.40416966 9.146981 36.89851255 5 36 C-0.65104262 32.63723168 -4.27989844 27.89355339 -7 22 C-7 21.01 -7 20.02 -7 19 C-7.66 19 -8.32 19 -9 19 C-9 16.69 -9 14.38 -9 12 C-8.01 12 -7.02 12 -6 12 C-5.67 11.01 -5.34 10.02 -5 9 C-4.34 8.01 -3.68 7.02 -3 6 C-1.98440599 4.00787329 -0.98210371 2.0088485 0 0 Z " fill="#C9B37F" transform="translate(15,17)"/>
<path d="M0 0 C3.69547285 1.65611931 5.81935765 4.70112125 8.109375 7.9453125 C8.769375 7.7803125 9.429375 7.6153125 10.109375 7.4453125 C14.88135856 6.64998191 19.46569844 6.39742031 24.109375 7.9453125 C24.439375 7.2853125 24.769375 6.6253125 25.109375 5.9453125 C28.046875 7.0078125 28.046875 7.0078125 31.109375 8.9453125 C31.859375 12.5703125 31.859375 12.5703125 32.109375 15.9453125 C32.769375 16.2753125 33.429375 16.6053125 34.109375 16.9453125 C33.614375 19.4203125 33.614375 19.4203125 33.109375 21.9453125 C32.449375 21.9453125 31.789375 21.9453125 31.109375 21.9453125 C30.92375 23.770625 30.92375 23.770625 30.734375 25.6328125 C30.1787123 29.94110138 29.59332411 33.46136339 26.421875 36.6328125 C21.89510399 39.20206091 17.29210684 40.25941746 12.109375 39.9453125 C14.44822919 38.7758854 16.76563953 37.66405627 19.171875 36.6328125 C22.45487279 34.74683505 23.57110161 33.36369782 25.109375 29.9453125 C25.109375 28.9553125 25.109375 27.9653125 25.109375 26.9453125 C23.129375 26.6153125 21.149375 26.2853125 19.109375 25.9453125 C19.109375 25.6153125 19.109375 25.2853125 19.109375 24.9453125 C21.089375 24.6153125 23.069375 24.2853125 25.109375 23.9453125 C24.779375 23.9453125 24.449375 23.9453125 24.109375 23.9453125 C22.77369479 23.62151124 21.44014489 23.28873699 20.109375 22.9453125 C20.109375 20.61197917 20.109375 18.27864583 20.109375 15.9453125 C18.10953966 16.73649154 18.10953966 16.73649154 16.109375 17.9453125 C15.779375 18.9353125 15.449375 19.9253125 15.109375 20.9453125 C13.30525533 18.18607065 13.0966505 17.05559147 13.484375 13.6953125 C13.79375 12.3340625 13.79375 12.3340625 14.109375 10.9453125 C13.51125 11.1515625 12.913125 11.3578125 12.296875 11.5703125 C10.109375 11.9453125 10.109375 11.9453125 7.109375 9.9453125 C6.779375 11.2653125 6.449375 12.5853125 6.109375 13.9453125 C5.449375 13.9453125 4.789375 13.9453125 4.109375 13.9453125 C3.779375 11.9653125 3.449375 9.9853125 3.109375 7.9453125 C2.119375 8.4403125 2.119375 8.4403125 1.109375 8.9453125 C1.439375 10.9253125 1.769375 12.9053125 2.109375 14.9453125 C0.129375 15.9353125 0.129375 15.9353125 -1.890625 16.9453125 C-2.890625 15.9453125 -2.890625 15.9453125 -3.140625 13.1328125 C-2.86888844 9.66817139 -2.20371635 8.45116146 0.109375 5.9453125 C-0.880625 5.9453125 -1.870625 5.9453125 -2.890625 5.9453125 C-3.880625 9.2453125 -4.870625 12.5453125 -5.890625 15.9453125 C-6.550625 15.6153125 -7.210625 15.2853125 -7.890625 14.9453125 C-8.220625 15.6053125 -8.550625 16.2653125 -8.890625 16.9453125 C-9.550625 16.9453125 -10.210625 16.9453125 -10.890625 16.9453125 C-10.560625 14.9653125 -10.230625 12.9853125 -9.890625 10.9453125 C-9.230625 10.9453125 -8.570625 10.9453125 -7.890625 10.9453125 C-7.890625 7.3153125 -7.890625 3.6853125 -7.890625 -0.0546875 C-5.07855326 -1.46072337 -2.95115892 -0.76471636 0 0 Z " fill="#A78640" transform="translate(17.890625,12.0546875)"/>
<path d="M0 0 C4.95 0 9.9 0 15 0 C15 19.47 15 38.94 15 59 C13.68 58.34 12.36 57.68 11 57 C10.25 54.375 10.25 54.375 10 52 C9.34 52 8.68 52 8 52 C8.33 55.63 8.66 59.26 9 63 C7 62 7 62 6.39453125 60.2890625 C5.02628171 52.35050575 5.63211343 45.45782059 9.02734375 38.15625 C12.35204898 30.78581913 12.35204604 20.62143322 10.09375 12.90234375 C7.62139648 7.64859252 4.67947135 4.37357237 0 1 C0 0.67 0 0.34 0 0 Z " fill="#0B1218" transform="translate(49,0)"/>
<path d="M0 0 C1.12967787 1.6945168 2.24894986 3.39642162 3.33203125 5.12109375 C6.45743563 10.04493137 6.45743563 10.04493137 10.625 14.0625 C13.53303557 16.43484481 14.50775881 18.77010216 15.91015625 22.1953125 C17.34959531 24.57889976 18.30242777 25.28412407 21 26 C23.76221239 25.03297969 23.76221239 25.03297969 26.5 23.3125 C27.4384375 22.77238281 28.376875 22.23226562 29.34375 21.67578125 C31.66074151 20.21403219 33.84195304 18.68470176 36 17 C35.54917531 18.46067199 35.08906463 19.91848032 34.625 21.375 C34.36976562 22.18710937 34.11453125 22.99921875 33.8515625 23.8359375 C33 26 33 26 31 28 C28.56255103 28.17488254 26.2406392 28.23177405 23.8046875 28.1953125 C23.09724396 28.1924826 22.38980042 28.18965271 21.66091919 28.18673706 C19.3987749 28.17553137 17.13702485 28.15042679 14.875 28.125 C13.34245363 28.11497067 11.80990106 28.10584474 10.27734375 28.09765625 C6.51807699 28.07559086 2.75910536 28.04105896 -1 28 C-0.01 26.68 0.98 25.36 2 24 C0.35 23.67 -1.3 23.34 -3 23 C-1.68 20.36 -0.36 17.72 1 15 C0.67 14.67 0.34 14.34 0 14 C-1.67542976 14.28604898 -3.34385343 14.61781233 -5 15 C-4.54625 14.01 -4.0925 13.02 -3.625 12 C-1.93307285 8.07889869 -0.94856099 4.15907513 0 0 Z " fill="#B21C02" transform="translate(7,36)"/>
<path d="M0 0 C0.66914429 -0.00241196 1.33828857 -0.00482391 2.02770996 -0.00730896 C3.43633985 -0.00633354 4.84500951 0.00698777 6.25341797 0.03198242 C8.40074807 0.06631827 10.54396249 0.05262699 12.69140625 0.03320312 C14.06512155 0.04010214 15.43882631 0.04977506 16.8125 0.0625 C18.05322266 0.07337646 19.29394531 0.08425293 20.57226562 0.09545898 C24.48859697 0.72208347 26.11387404 1.86449176 28.90625 4.62890625 C31.25329706 8.43274115 32.30102697 11.15476728 31.90625 15.62890625 C29.89488724 13.06899001 28.27779504 10.58300326 26.90625 7.62890625 C26.90625 10.26890625 26.90625 12.90890625 26.90625 15.62890625 C24.53125 15.06640625 24.53125 15.06640625 21.90625 13.62890625 C20.59375 10.00390625 20.59375 10.00390625 19.90625 6.62890625 C18.7615625 7.80453125 18.7615625 7.80453125 17.59375 9.00390625 C12.90625 13.58239462 12.90625 13.58239462 9.21875 13.75390625 C8.455625 13.71265625 7.6925 13.67140625 6.90625 13.62890625 C6.90625 11.29557292 6.90625 8.96223958 6.90625 6.62890625 C5.58625 7.94890625 4.26625 9.26890625 2.90625 10.62890625 C3.47969937 7.76165939 3.7677015 6.76745475 5.90625 4.62890625 C2.56251525 5.18619538 -0.12687999 5.98064514 -3.09375 7.62890625 C-2.76375 6.63890625 -2.43375 5.64890625 -2.09375 4.62890625 C-1.43375 4.29890625 -0.77375 3.96890625 -0.09375 3.62890625 C-4.0950528 4.2444913 -6.87199353 6.26628484 -10.09375 8.62890625 C-10.42375 9.28890625 -10.75375 9.94890625 -11.09375 10.62890625 C-11.75375 10.62890625 -12.41375 10.62890625 -13.09375 10.62890625 C-12.8026292 7.23249692 -12.1424968 5.68989057 -9.98632812 2.99243164 C-6.3945437 0.05758483 -4.59007806 -0.00268251 0 0 Z " fill="#C81D08" transform="translate(20.09375,-0.62890625)"/>
<path d="M0 0 C0.33 0.66 0.66 1.32 1 2 C0.06421005 4.35981813 -0.93347808 6.69631264 -2 9 C-2.99 9 -3.98 9 -5 9 C-7.12444287 10.24915025 -7.12444287 10.24915025 -9.3125 11.875 C-12.78414478 14.28019181 -15.86569988 15.93992305 -20 17 C-25.02734375 11.328125 -25.02734375 11.328125 -26 7 C-24.69804687 6.81824219 -23.39609375 6.63648438 -22.0546875 6.44921875 C-20.32804563 6.19585282 -18.6014874 5.9419164 -16.875 5.6875 C-15.59109375 5.51057617 -15.59109375 5.51057617 -14.28125 5.33007812 C-6.50498611 4.19161476 -6.50498611 4.19161476 0 0 Z " fill="#19120A" transform="translate(46,46)"/>
<path d="M0 0 C1.13682034 1.70523051 2.27207074 3.41151646 3.40234375 5.12109375 C3.90894531 5.88550781 4.41554688 6.64992188 4.9375 7.4375 C5.44152344 8.19933594 5.94554687 8.96117187 6.46484375 9.74609375 C7.91843924 11.88025304 9.43377788 13.94754772 11 16 C8.88447905 18.93858077 6.76954479 21.65283752 4 24 C0.0625 24 0.0625 24 -3 23 C-1.68 20.36 -0.36 17.72 1 15 C0.67 14.67 0.34 14.34 0 14 C-1.67542976 14.28604898 -3.34385343 14.61781233 -5 15 C-4.54625 14.01 -4.0925 13.02 -3.625 12 C-1.93307285 8.07889869 -0.94856099 4.15907513 0 0 Z " fill="#B0220B" transform="translate(7,36)"/>
<path d="M0 0 C0.99 0.66 1.98 1.32 3 2 C3.66 1.34 4.32 0.68 5 0 C4.67 4.62 4.34 9.24 4 14 C3.34 14 2.68 14 2 14 C1.97421875 14.56847656 1.9484375 15.13695312 1.921875 15.72265625 C1.43076931 22.40839054 -0.1701187 26.86691713 -4.75 31.9375 C-5.1625 32.288125 -5.575 32.63875 -6 33 C-6.66 32.67 -7.32 32.34 -8 32 C-7.566875 31.13375 -7.13375 30.2675 -6.6875 29.375 C-4.15412473 23.54823687 -3.21328601 17.20410789 -2 11 C-1.34 11 -0.68 11 0 11 C0 7.37 0 3.74 0 0 Z " fill="#D8250F" transform="translate(51,23)"/>
<path d="M0 0 C1.01060591 2.72863595 1.12729724 3.70796516 -0.0625 6.4375 C-1.29238042 9.00414287 -1.29238042 9.00414287 -0.1875 11.6875 C0.204375 12.450625 0.59625 13.21375 1 14 C1.33 14.66 1.66 15.32 2 16 C-3.28 16 -8.56 16 -14 16 C-11.265625 9.06640625 -11.265625 9.06640625 -10 7 C-8.02734375 6.37109375 -8.02734375 6.37109375 -6 6 C-3.31232422 3.56249975 -3.31232422 3.56249975 -1 1 C-0.67 0.67 -0.34 0.34 0 0 Z " fill="#5E0402" transform="translate(52,48)"/>
<path d="M0 0 C1.66666667 0 3.33333333 0 5 0 C3.72924188 13.97833935 3.72924188 13.97833935 -0.75 18.9375 C-5.40261524 21.13456831 -9.84741596 22.31227782 -15 22 C-12.66114581 20.8305729 -10.34373547 19.71874377 -7.9375 18.6875 C-4.65450221 16.80152255 -3.53827339 15.41838532 -2 12 C-2 11.01 -2 10.02 -2 9 C-4.97 8.505 -4.97 8.505 -8 8 C-8 7.67 -8 7.34 -8 7 C-6.02 6.67 -4.04 6.34 -2 6 C-1.34 4.02 -0.68 2.04 0 0 Z " fill="#9E8348" transform="translate(45,30)"/>
<path d="M0 0 C0.33 0 0.66 0 1 0 C1.66 4.29 2.32 8.58 3 13 C3 10.03 3 7.06 3 4 C3.66 4 4.32 4 5 4 C5.268125 4.78375 5.53625 5.5675 5.8125 6.375 C6.84814432 9.28114923 6.84814432 9.28114923 10 11 C10.1875 13.625 10.1875 13.625 10 16 C8.39667209 16.08121924 6.79215974 16.13929134 5.1875 16.1875 C3.84751953 16.23970703 3.84751953 16.23970703 2.48046875 16.29296875 C0 16 0 16 -1.765625 14.66015625 C-3.69464667 12.06574419 -3.93795777 10.22619602 -4 7 C-2.89756118 4.43451154 -1.54972229 2.34806408 0 0 Z " fill="#141A1F" transform="translate(54,48)"/>
<path d="M0 0 C3.182038 1.06067933 5.10494622 2.68653224 7.625 4.875 C8.615 5.535 9.605 6.195 10.625 6.875 C10.295 8.525 9.965 10.175 9.625 11.875 C9.295 10.555 8.965 9.235 8.625 7.875 C7.965 7.875 7.305 7.875 6.625 7.875 C6.295 8.535 5.965 9.195 5.625 9.875 C4.965 9.875 4.305 9.875 3.625 9.875 C1.98823743 11.8350281 1.98823743 11.8350281 0.625 13.875 C-0.695 13.545 -2.015 13.215 -3.375 12.875 C-3.45504482 9.3530279 -3.41505702 6.25518531 -2.375 2.875 C-3.365 2.545 -4.355 2.215 -5.375 1.875 C-2.375 -0.125 -2.375 -0.125 0 0 Z " fill="#494545" transform="translate(41.375,22.125)"/>
<path d="M0 0 C3.36846761 0.43967367 5.24534161 1.77363698 7.75 4 C8.67039062 4.804375 8.67039062 4.804375 9.609375 5.625 C10.06828125 6.07875 10.5271875 6.5325 11 7 C11 7.33 11 7.66 11 8 C4.73 8 -1.54 8 -8 8 C-6.35 6.35 -4.7 4.7 -3 3 C-2.484375 2.38125 -1.96875 1.7625 -1.4375 1.125 C-0.963125 0.75375 -0.48875 0.3825 0 0 Z " fill="#E24107" transform="translate(14,56)"/>
<path d="M0 0 C-1.37335691 3.35552151 -2.63934426 4.75106712 -5.875 6.375 C-6.55304687 6.73335937 -7.23109375 7.09171875 -7.9296875 7.4609375 C-10 8 -10 8 -12.1328125 7.2265625 C-14 6 -14 6 -16 4 C-15.625 1.875 -15.625 1.875 -15 0 C-13.1746875 0.0309375 -13.1746875 0.0309375 -11.3125 0.0625 C-7.53766404 0.07586225 -3.32168555 -1.66084278 0 0 Z " fill="#0A1015" transform="translate(38,55)"/>
<path d="M0 0 C-1.485 1.485 -1.485 1.485 -3 3 C-2.443125 2.67 -1.88625 2.34 -1.3125 2 C1.30284522 0.8690399 3.1806646 0.84337026 6 1 C4.15494051 2.84505949 2.6932977 3.82393049 0.4375 5.0625 C-2.740301 6.65070134 -2.740301 6.65070134 -4 8 C-5.093125 7.95875 -6.18625 7.9175 -7.3125 7.875 C-11.15657758 8.00530771 -12.29862359 8.40667864 -15 11 C-15 10.01 -15 9.02 -15 8 C-14.34 8 -13.68 8 -13 8 C-12.79375 7.4225 -12.5875 6.845 -12.375 6.25 C-9.52346181 1.5838466 -5.42170042 -0.63784711 0 0 Z " fill="#8C0600" transform="translate(22,2)"/>
<path d="M0 0 C0.33 0 0.66 0 1 0 C1 2.97 1 5.94 1 9 C-3.95 9.66 -8.9 10.32 -14 11 C-14.66 9.68 -15.32 8.36 -16 7 C-12.53216449 5.69956168 -9.42297104 4.89980258 -5.75 4.625 C-1.95341525 4.44255512 -1.95341525 4.44255512 -0.5 1.9375 C-0.335 1.298125 -0.17 0.65875 0 0 Z " fill="#550404" transform="translate(40,10)"/>
<path d="M0 0 C0.78503906 0.27714844 1.57007812 0.55429687 2.37890625 0.83984375 C7.93067667 2.75401245 13.14169035 4.4674264 19 5 C16.02508949 7.97491051 14.25889832 8.95479553 10.0625 9.6875 C7.36813076 9.56990893 6.26290153 9.21398962 4.15234375 7.49609375 C0 2.79403073 0 2.79403073 0 0 Z " fill="#7A321C" transform="translate(15,37)"/>
<path d="M0 0 C0.66 0.33 1.32 0.66 2 1 C0.68 3.64 -0.64 6.28 -2 9 C-5.63 8.34 -9.26 7.68 -13 7 C-13 10.63 -13 14.26 -13 18 C-13.33 18 -13.66 18 -14 18 C-14.33 15.36 -14.66 12.72 -15 10 C-15.99 10.99 -16.98 11.98 -18 13 C-17.67 10.03 -17.34 7.06 -17 4 C-16.01 5.485 -16.01 5.485 -15 7 C-14.649375 6.505 -14.29875 6.01 -13.9375 5.5 C-12 4 -12 4 -8.625 4.0625 C-4.32527251 3.98836677 -3.02264867 2.93105326 0 0 Z " fill="#4E0903" transform="translate(23,5)"/>
<path d="M0 0 C8.21324503 1.30860927 8.21324503 1.30860927 11.0625 3.8125 C12.15751049 6.36752447 12.22941097 8.24706838 12 11 C11.34 10.34 10.68 9.68 10 9 C10 8.01 10 7.02 10 6 C9.01 6.495 9.01 6.495 8 7 C8.33 8.98 8.66 10.96 9 13 C7.02 13.99 7.02 13.99 5 15 C4 14 4 14 3.75 11.1875 C4.02173656 7.72285889 4.68690865 6.50584896 7 4 C6.01 4 5.02 4 4 4 C3.34 4.66 2.68 5.32 2 6 C1.34 4.02 0.68 2.04 0 0 Z " fill="#000000" transform="translate(11,14)"/>
<path d="M0 0 C0.99 0.66 1.98 1.32 3 2 C3.66 1.34 4.32 0.68 5 0 C4.67 4.62 4.34 9.24 4 14 C3.01 14 2.02 14 1 14 C0.67 14.66 0.34 15.32 0 16 C-0.98020375 17.0194119 -1.97803008 18.02246356 -3 19 C-2.67 16.36 -2.34 13.72 -2 11 C-1.34 11 -0.68 11 0 11 C0 7.37 0 3.74 0 0 Z " fill="#BA1A07" transform="translate(51,23)"/>
<path d="M0 0 C-2 2 -2 2 -5.6875 2.3125 C-10.62129608 2.79867699 -13.2356284 4.85021968 -17 8 C-17.33 8.66 -17.66 9.32 -18 10 C-18.66 10 -19.32 10 -20 10 C-19.72967641 6.8462248 -18.9491625 4.91527084 -17.3125 2.1875 C-11.96970127 -1.34076331 -6.22305065 -0.37894084 0 0 Z " fill="#B41704" transform="translate(27,0)"/>
<path d="M0 0 C0.10957031 0.80824219 0.21914062 1.61648437 0.33203125 2.44921875 C0.49058594 3.51785156 0.64914063 4.58648437 0.8125 5.6875 C1.03873047 7.27111328 1.03873047 7.27111328 1.26953125 8.88671875 C1.84467419 12.0572005 1.84467419 12.0572005 3.63671875 14.70703125 C4.08660156 15.46371094 4.53648438 16.22039063 5 17 C4.67 17.99 4.34 18.98 4 20 C2.99157547 18.56839732 1.99352109 17.12948547 1 15.6875 C0.443125 14.88699219 -0.11375 14.08648437 -0.6875 13.26171875 C-2 11 -2 11 -2 8 C-2.66 8 -3.32 8 -4 8 C-4 5.69 -4 3.38 -4 1 C-1 0 -1 0 0 0 Z " fill="#DBBD84" transform="translate(10,28)"/>
<path d="M0 0 C0.33 0 0.66 0 1 0 C1 9.24 1 18.48 1 28 C-0.32 27.34 -1.64 26.68 -3 26 C-2.67 25.34 -2.34 24.68 -2 24 C-1.77866002 22.18963178 -1.60838518 20.37287901 -1.46484375 18.5546875 C-1.37783203 17.47832031 -1.29082031 16.40195312 -1.20117188 15.29296875 C-1.11416016 14.16503906 -1.02714844 13.03710938 -0.9375 11.875 C-0.80118164 10.17150391 -0.80118164 10.17150391 -0.66210938 8.43359375 C-0.43770774 5.62266799 -0.21716834 2.81149234 0 0 Z " fill="#04080D" transform="translate(63,31)"/>
<path d="M0 0 C0.66 0 1.32 0 2 0 C2.268125 0.78375 2.53625 1.5675 2.8125 2.375 C3.84814432 5.28114923 3.84814432 5.28114923 7 7 C7.1875 9.625 7.1875 9.625 7 12 C4.625 12.1875 4.625 12.1875 2 12 C-0.13586678 8.79619983 -0.23132175 7.98060033 -0.125 4.3125 C-0.10695312 3.50425781 -0.08890625 2.69601563 -0.0703125 1.86328125 C-0.04710937 1.24839844 -0.02390625 0.63351563 0 0 Z " fill="#C82903" transform="translate(57,52)"/>
<path d="M0 0 C0 0.99 0 1.98 0 3 C0.33 3 0.66 3 1 3 C1.99 3 2.98 3 4 3 C4.33 2.34 4.66 1.68 5 1 C5.33 1.66 5.66 2.32 6 3 C0.25649351 8.94155844 0.25649351 8.94155844 -3.6875 9.125 C-4.8321875 9.063125 -4.8321875 9.063125 -6 9 C-6 6 -6 6 -3.5625 3.375 C-2.716875 2.59125 -1.87125 1.8075 -1 1 C-0.67 0.67 -0.34 0.34 0 0 Z " fill="#B71702" transform="translate(33,4)"/>
<path d="M0 0 C1.65 0 3.3 0 5 0 C9.64573617 6.71972553 10.68184286 11.89364595 10 20 C7.6068876 17.6068876 7.6121653 16.53090916 7.125 13.25 C6.08106184 7.51662534 4.14361246 4.14361246 0 0 Z " fill="#810000" transform="translate(44,0)"/>
<path d="M0 0 C0.99 0.99 1.98 1.98 3 3 C0.88447905 5.93858077 -1.23045521 8.65283752 -4 11 C-7.9375 11 -7.9375 11 -11 10 C-9.22991404 7.95042678 -8.09411837 7.03294143 -5.5 6.125 C-2.33577731 4.70109979 -1.52320149 3.04640297 0 0 Z " fill="#530603" transform="translate(15,49)"/>
<path d="M0 0 C0.66 0.33 1.32 0.66 2 1 C2 2.65 2 4.3 2 6 C2.99 5.67 3.98 5.34 5 5 C4.25 7.4375 4.25 7.4375 3 10 C0.9375 10.875 0.9375 10.875 -1 11 C-2 10 -2 10 -2.1875 7.1875 C-2.00782439 4.13301456 -1.57664404 2.56204656 0 0 Z " fill="#020202" transform="translate(40,25)"/>
<path d="M0 0 C0.33 0 0.66 0 1 0 C2.44184216 9.77883051 2.0689136 16.40564823 -3 25 C-4.15941038 21.52176885 -3.70820884 19.54104422 -3 16 C-2.34 16 -1.68 16 -1 16 C-1.01160156 15.43152344 -1.02320313 14.86304688 -1.03515625 14.27734375 C-1.09223194 9.39329516 -0.81956772 4.81496035 0 0 Z " fill="#880100" transform="translate(56,21)"/>
<path d="M0 0 C2.0625 1.6875 2.0625 1.6875 4 4 C4.0625 6.5 4.0625 6.5 3 9 C-1.21621622 13 -1.21621622 13 -4 13 C-3.67 11.02 -3.34 9.04 -3 7 C-2.34 7.66 -1.68 8.32 -1 9 C-0.08941469 5.92677456 0.08886184 3.19902639 0 0 Z " fill="#7E0901" transform="translate(11,44)"/>
<path d="M0 0 C0.66 0 1.32 0 2 0 C2.76173392 4.3164922 3.16063604 7.74433453 2 12 C1.34 11.67 0.68 11.34 0 11 C-0.33 11.66 -0.66 12.32 -1 13 C-1.66 13 -2.32 13 -3 13 C-2.67 11.02 -2.34 9.04 -2 7 C-1.34 7 -0.68 7 0 7 C0 4.69 0 2.38 0 0 Z " fill="#8E7340" transform="translate(10,16)"/>
<path d="M0 0 C1.9375 1.0625 1.9375 1.0625 5.9375 5.0625 C1.6475 5.0625 -2.6425 5.0625 -7.0625 5.0625 C-2.68892369 0.08148254 -2.68892369 0.08148254 0 0 Z " fill="#C12302" transform="translate(48.0625,58.9375)"/>
<path d="M0 0 C0.66 0 1.32 0 2 0 C4.29546947 7.36966513 4.29546947 7.36966513 3.0625 10 C0.02585554 11.47231247 -2.68149035 11.18784017 -6 11 C-6 10.67 -6 10.34 -6 10 C-4.35 10 -2.7 10 -1 10 C-0.14222451 6.56889804 -0.03308536 4.38420123 -1 1 C-0.67 0.67 -0.34 0.34 0 0 Z " fill="#A69E8C" transform="translate(19,20)"/>
<path d="M0 0 C-0.86625 0.61875 -0.86625 0.61875 -1.75 1.25 C-4.03578263 2.94371156 -4.03578263 2.94371156 -5.9375 5 C-8.65313788 7.63334582 -11.63484628 9.31742314 -15 11 C-15 10.01 -15 9.02 -15 8 C-14.34 8 -13.68 8 -13 8 C-12.79375 7.4225 -12.5875 6.845 -12.375 6.25 C-9.52346181 1.5838466 -5.42170042 -0.63784711 0 0 Z " fill="#730000" transform="translate(22,2)"/>
<path d="M0 0 C0.33 0.66 0.66 1.32 1 2 C0.22265625 3.9453125 0.22265625 3.9453125 -0.9375 6.125 C-1.31777344 6.84945312 -1.69804688 7.57390625 -2.08984375 8.3203125 C-2.39019531 8.87460937 -2.69054688 9.42890625 -3 10 C-3.99 10 -4.98 10 -6 10 C-5.67 9.01 -5.34 8.02 -5 7 C-5.598125 7.350625 -6.19625 7.70125 -6.8125 8.0625 C-9 9 -9 9 -12 8 C-11.30132813 7.59007812 -10.60265625 7.18015625 -9.8828125 6.7578125 C-8.97273438 6.21898437 -8.06265625 5.68015625 -7.125 5.125 C-6.22007813 4.59132813 -5.31515625 4.05765625 -4.3828125 3.5078125 C-1.93396718 2.08024648 -1.93396718 2.08024648 0 0 Z " fill="#B31801" transform="translate(42,53)"/>
<path d="M0 0 C0.88336837 2.4667645 1.1312406 3.63859372 0.22265625 6.140625 C-0.16019531 6.83671875 -0.54304688 7.5328125 -0.9375 8.25 C-1.31777344 8.95640625 -1.69804687 9.6628125 -2.08984375 10.390625 C-2.39019531 10.92171875 -2.69054687 11.4528125 -3 12 C-3.99 11.34 -4.98 10.68 -6 10 C-5.72510809 5.96825194 -5.46508424 4.43105369 -2.4375 1.625 C-1.633125 1.08875 -0.82875 0.5525 0 0 Z " fill="#840100" transform="translate(27,5)"/>
<path d="M0 0 C2 1 2 1 3.125 4.125 C3.97755199 7.90058738 4.15729024 11.14638912 4 15 C1.36 13.68 -1.28 12.36 -4 11 C-4 10.34 -4 9.68 -4 9 C-2.68 9.33 -1.36 9.66 0 10 C0 6.7 0 3.4 0 0 Z " fill="#860000" transform="translate(46,4)"/>
<path d="M0 0 C2.44989101 3.74235319 2.23086143 7.44225419 2.125 11.75 C2.11597656 12.44738281 2.10695312 13.14476562 2.09765625 13.86328125 C2.07419888 15.57566958 2.03833104 17.28788004 2 19 C0 18 0 18 -0.6171875 16.3203125 C-1.08638974 13.47637239 -1.13208142 10.75713642 -1.125 7.875 C-1.12886719 6.29332031 -1.12886719 6.29332031 -1.1328125 4.6796875 C-1 2 -1 2 0 0 Z " fill="#030508" transform="translate(56,44)"/>
<path d="M0 0 C0.33 0 0.66 0 1 0 C1 5.94 1 11.88 1 18 C-2.26401888 14.73598112 -1.96581598 10.47127047 -2 6 C-1.0625 2.375 -1.0625 2.375 0 0 Z " fill="#252B31" transform="translate(59,36)"/>
<path d="M0 0 C1.65 0 3.3 0 5 0 C5 4.62 5 9.24 5 14 C3.40964498 10.81928996 2.35151732 8.12342347 1.375 4.75 C0.98441406 3.41195313 0.98441406 3.41195313 0.5859375 2.046875 C0.39257812 1.37140625 0.19921875 0.6959375 0 0 Z " fill="#04080D" transform="translate(59,0)"/>
<path d="M0 0 C0.33 0.99 0.66 1.98 1 3 C-0.91540896 6.83081791 -2.70032335 10.19527484 -6 13 C-6.66 12.67 -7.32 12.34 -8 12 C-7.34 10.68 -6.68 9.36 -6 8 C-5.34 8 -4.68 8 -4 8 C-3.896875 7.236875 -3.79375 6.47375 -3.6875 5.6875 C-2.95635961 2.82940576 -2.23048087 1.84257115 0 0 Z " fill="#BD1904" transform="translate(51,43)"/>
<path d="M0 0 C1.98 0 3.96 0 6 0 C6.69965443 1.26418246 7.38434763 2.53665402 8.0625 3.8125 C8.44535156 4.52019531 8.82820313 5.22789063 9.22265625 5.95703125 C10 8 10 8 9 11 C8.443125 10.113125 7.88625 9.22625 7.3125 8.3125 C5.22146208 5.15720622 2.75433765 2.60131889 0 0 Z " fill="#191E23" transform="translate(49,0)"/>
<path d="M0 0 C6.75 -0.125 6.75 -0.125 9 1 C9 1.66 9 2.32 9 3 C7.02 3.66 5.04 4.32 3 5 C1.5 3.625 1.5 3.625 0 2 C0 1.34 0 0.68 0 0 Z " fill="#1A1E22" transform="translate(23,58)"/>
<path d="M0 0 C0.99 0 1.98 0 3 0 C5 2 5 2 5.125 4.625 C5.08375 5.40875 5.0425 6.1925 5 7 C4.34 6.34 3.68 5.68 3 5 C2.01 5.66 1.02 6.32 0 7 C-0.99 6.67 -1.98 6.34 -3 6 C-2.01 4.02 -1.02 2.04 0 0 Z " fill="#620400" transform="translate(5,44)"/>
<path d="M0 0 C3.63 0.33 7.26 0.66 11 1 C8.78631706 3.21368294 7.06983375 4.86552921 3.88671875 5.265625 C1.92253213 5.25166986 -0.0402625 5.13286356 -2 5 C-2 4.67 -2 4.34 -2 4 C-0.02 4 1.96 4 4 4 C3.04134491 1.66924071 3.04134491 1.66924071 0 0 Z " fill="#602D0A" transform="translate(23,41)"/>
<path d="M0 0 C0 3 0 3 -2 6 C-4.1640625 6.29296875 -4.1640625 6.29296875 -6.625 6.1875 C-7.44226563 6.16042969 -8.25953125 6.13335937 -9.1015625 6.10546875 C-10.04128906 6.05326172 -10.04128906 6.05326172 -11 6 C-10 4 -10 4 -7.96875 3.18359375 C-7.1540625 2.93738281 -6.339375 2.69117188 -5.5 2.4375 C-2.48668507 1.67451663 -2.48668507 1.67451663 0 0 Z " fill="#E54307" transform="translate(38,58)"/>
<path d="M0 0 C1.98 0.99 1.98 0.99 4 2 C4 3.32 4 4.64 4 6 C2.68 6 1.36 6 0 6 C0 4.02 0 2.04 0 0 Z " fill="#0A0B0B" transform="translate(15,22)"/>
<path d="M0 0 C0.33 0.66 0.66 1.32 1 2 C0.06421005 4.35981813 -0.93347808 6.69631264 -2 9 C-2.268125 8.360625 -2.53625 7.72125 -2.8125 7.0625 C-3.88667752 4.66868314 -3.88667752 4.66868314 -7 4 C-6.030625 3.525625 -5.06125 3.05125 -4.0625 2.5625 C-1.19522563 1.29806053 -1.19522563 1.29806053 0 0 Z " fill="#370D04" transform="translate(46,46)"/>
<path d="M0 0 C0.33 0 0.66 0 1 0 C1.33 1.65 1.66 3.3 2 5 C3.65 4.67 5.3 4.34 7 4 C6.67 4.99 6.34 5.98 6 7 C3.125 7.125 3.125 7.125 0 7 C-0.66 6.34 -1.32 5.68 -2 5 C-1.46428571 1.46428571 -1.46428571 1.46428571 0 0 Z " fill="#FFFFFF" transform="translate(37,30)"/>
<path d="M0 0 C0.66 0 1.32 0 2 0 C2.33 0.99 2.66 1.98 3 3 C3.66 3.33 4.32 3.66 5 4 C4.67 4.99 4.34 5.98 4 7 C2.68 6.67 1.36 6.34 0 6 C0 4.02 0 2.04 0 0 Z " fill="#131516" transform="translate(38,29)"/>
<path d="M0 0 C3.48032201 0.26102415 5.05096298 1.03397532 8 3 C4.37 3 0.74 3 -3 3 C-2.01 2.01 -1.02 1.02 0 0 Z " fill="#FF7E27" transform="translate(13,61)"/>
<path d="M0 0 C0.66 0 1.32 0 2 0 C3.05404945 3.98196457 2.84098656 6.98195309 2 11 C0 9 0 9 -0.1953125 6.8359375 C-0.17210937 6.02382813 -0.14890625 5.21171875 -0.125 4.375 C-0.10695312 3.55773438 -0.08890625 2.74046875 -0.0703125 1.8984375 C-0.04710937 1.27195313 -0.02390625 0.64546875 0 0 Z " fill="#900900" transform="translate(57,52)"/>
<path d="M0 0 C2.475 0.99 2.475 0.99 5 2 C5 3.65 5 5.3 5 7 C2.525 6.01 2.525 6.01 0 5 C0 3.35 0 1.7 0 0 Z " fill="#B11501" transform="translate(42,8)"/>
<path d="M0 0 C-0.99 0.33 -1.98 0.66 -3 1 C-4.20882096 3.00016466 -4.20882096 3.00016466 -5 5 C-5.66 5 -6.32 5 -7 5 C-6.67 3.35 -6.34 1.7 -6 0 C-2.25 -1.125 -2.25 -1.125 0 0 Z " fill="#798187" transform="translate(41,25)"/>
<path d="M0 0 C0.99 0.33 1.98 0.66 3 1 C1.7260411 3.03833424 0.38938077 5.03852126 -1 7 C-1.66 7 -2.32 7 -3 7 C-2.25 2.25 -2.25 2.25 0 0 Z " fill="#9E1405" transform="translate(10,3)"/>
<path d="M0 0 C0.33 0 0.66 0 1 0 C1 2.31 1 4.62 1 7 C-0.32 7 -1.64 7 -3 7 C-2.690625 6.401875 -2.38125 5.80375 -2.0625 5.1875 C-0.89790296 2.91043228 -0.89790296 2.91043228 0 0 Z " fill="#EED297" transform="translate(25,25)"/>
<path d="M0 0 C1.32 0.33 2.64 0.66 4 1 C2.35 2.65 0.7 4.3 -1 6 C-1.33 5.01 -1.66 4.02 -2 3 C-1.34 2.01 -0.68 1.02 0 0 Z " fill="#8C969E" transform="translate(15,17)"/>
<path d="M0 0 C0.33 0.66 0.66 1.32 1 2 C0.06421005 4.35981813 -0.93347808 6.69631264 -2 9 C-2.99 8.01 -3.98 7.02 -5 6 C-3.35 4.02 -1.7 2.04 0 0 Z " fill="#490202" transform="translate(26,8)"/>
</svg>
