<?xml version="1.0" encoding="UTF-8"?>
<svg version="1.1" xmlns="http://www.w3.org/2000/svg" width="64" height="64">
<path d="M0 0 C7.6725 -0.1546875 7.6725 -0.1546875 15.5 -0.3125 C17.89668945 -0.38078003 17.89668945 -0.38078003 20.34179688 -0.45043945 C27.92378431 -0.524445 34.24166586 -0.57660762 40 5 C43.56112098 9.20029654 44.56330642 12.54133027 45 18 C45.70125 18.226875 46.4025 18.45375 47.125 18.6875 C52.30347468 21.05158627 56.91529669 24.60429732 59 30 C59.18444796 33.16356201 58.98384878 35.97859459 58 39 C55.4375 41.0625 55.4375 41.0625 53 42 C52.01 41.34 51.02 40.68 50 40 C49.01 40.99 48.02 41.98 47 43 C46.34 42.34 45.68 41.68 45 41 C45 42.98 45 44.96 45 47 C46.32 46.34 47.64 45.68 49 45 C50.45147903 47.90295805 50.37239025 49.77261779 50 53 C48.18689858 55.92937654 46.12704101 58.43647949 43 60 C34.90783412 60.82094436 28.28165544 60.08476474 20.6875 57.4375 C14.61801735 55.32294722 10.31765646 54.42058588 4 56 C2.68 56.66 1.36 57.32 0 58 C0 38.86 0 19.72 0 0 Z M41 37 C38.7226499 39.81509993 38.7226499 39.81509993 39 43 C40.32 42.34 41.64 41.68 43 41 C43 39.68 43 38.36 43 37 C42.34 37 41.68 37 41 37 Z " fill="#857416" transform="translate(0,0)"/>
<path d="M0 0 C4.41071299 -0.12452065 8.82046857 -0.21476527 13.23242188 -0.2746582 C14.72999923 -0.29965007 16.22745651 -0.33365627 17.72460938 -0.37719727 C32.72747134 -0.80227835 32.72747134 -0.80227835 38.59204102 3.63647461 C43.08632037 7.98891959 44.50600192 11.82502398 45 18 C45.70125 18.226875 46.4025 18.45375 47.125 18.6875 C50.72853917 20.33259397 53.19726832 22.19726832 56 25 C57 28.1875 57 28.1875 57 31 C55 33 55 33 52.93359375 33.08203125 C38.52631579 31.52631579 38.52631579 31.52631579 34 27 C34.33 26.34 34.66 25.68 35 25 C35.16670273 21.95826106 35.16670273 21.95826106 35 19 C34.67 18.67 34.34 18.34 34 18 C33.67 18.66 33.34 19.32 33 20 C32.29875 19.71125 31.5975 19.4225 30.875 19.125 C29.92625 18.75375 28.9775 18.3825 28 18 C27.1234375 17.649375 26.246875 17.29875 25.34375 16.9375 C21.31728422 15.80858436 17.77574551 15.7774237 13.625 15.875 C12.52091797 15.88853516 12.52091797 15.88853516 11.39453125 15.90234375 C9.5962112 15.92569856 7.79806089 15.96156164 6 16 C5.67 16.66 5.34 17.32 5 18 C6.32 19.32 7.64 20.64 9 22 C6.125 22.1875 6.125 22.1875 3 22 C-0.31639581 17.02540629 -0.12219877 11.97547992 -0.0625 6.125 C-0.05347656 4.97257813 -0.04445312 3.82015625 -0.03515625 2.6328125 C-0.02355469 1.76398437 -0.01195312 0.89515625 0 0 Z " fill="#B1A13E" transform="translate(0,0)"/>
<path d="M0 0 C2.31 0 4.62 0 7 0 C6.67 1.98 6.34 3.96 6 6 C8.97 6.495 8.97 6.495 12 7 C11.814375 6.401875 11.62875 5.80375 11.4375 5.1875 C11 3 11 3 12 0 C13.98 0.66 15.96 1.32 18 2 C17.67 4.31 17.34 6.62 17 9 C18.65 8.01 20.3 7.02 22 6 C22.495 9.465 22.495 9.465 23 13 C24.32 12.34 25.64 11.68 27 11 C28.45147903 13.90295805 28.37239025 15.77261779 28 19 C26 22.375 26 22.375 23 25 C19.83414766 25.49987142 18.07427121 25.49289968 15 25 C14.06542969 24.86464844 13.13085938 24.72929688 12.16796875 24.58984375 C0.49431558 22.3270432 -6.75900672 15.0152764 -14 6 C-13.34 5.01 -12.68 4.02 -12 3 C-11.01 3 -10.02 3 -9 3 C-9.144375 3.70125 -9.28875 4.4025 -9.4375 5.125 C-8.75597156 9.60361547 -5.50265002 11.39981848 -2 14 C-2 11.69 -2 9.38 -2 7 C-1.01 6.67 -0.02 6.34 1 6 C0.67 4.02 0.34 2.04 0 0 Z " fill="#78311D" transform="translate(22,34)"/>
<path d="M0 0 C4.24186602 1.51495215 5.88113905 4.12759895 8 8 C8.75 11.875 8.75 11.875 9 15 C9.70125 15.226875 10.4025 15.45375 11.125 15.6875 C14.72853917 17.33259397 17.19726832 19.19726832 20 22 C21 25.1875 21 25.1875 21 28 C19 30 19 30 16.93359375 30.08203125 C2.52631579 28.52631579 2.52631579 28.52631579 -2 24 C-1.67 23.34 -1.34 22.68 -1 22 C-0.58297878 19.0842309 -0.58297878 19.0842309 -1 16 C-2.87501931 13.62280307 -2.87501931 13.62280307 -5 12 C-4.67 11.34 -4.34 10.68 -4 10 C-3.01 10 -2.02 10 -1 10 C-1 10.66 -1 11.32 -1 12 C-0.01 12 0.98 12 2 12 C1.33735914 5.93735778 1.33735914 5.93735778 0 0 Z " fill="#AA9B3C" transform="translate(36,3)"/>
<path d="M0 0 C4.08327357 -0.0580772 8.16644083 -0.09362249 12.25 -0.125 C13.98830078 -0.15013672 13.98830078 -0.15013672 15.76171875 -0.17578125 C16.87675781 -0.18222656 17.99179687 -0.18867187 19.140625 -0.1953125 C20.68024902 -0.21102295 20.68024902 -0.21102295 22.25097656 -0.22705078 C25.05281739 0.00436236 26.66126275 0.47138066 29 2 C31.08644265 5.83393252 32.13008752 9.72514228 31.6875 14.0625 C31.3471875 15.0215625 31.3471875 15.0215625 31 16 C30.01 15.67 29.02 15.34 28 15 C28 14.34 28 13.68 28 13 C27.01 13.66 26.02 14.32 25 15 C25.33 15.99 25.66 16.98 26 18 C25.29875 17.71125 24.5975 17.4225 23.875 17.125 C17.32437412 14.56171161 10.92275614 13.15789871 4 12 C4 11.67 4 11.34 4 11 C8.29 10.34 12.58 9.68 17 9 C11.77100018 5.04291905 6.18876596 3.07026335 0 1 C0 0.67 0 0.34 0 0 Z " fill="#D2BF59" transform="translate(7,0)"/>
<path d="M0 0 C2 2 2 2 2.15234375 4.05859375 C1.93420765 6.47395525 1.68281019 8.66991021 1 11 C-1.5625 13.0625 -1.5625 13.0625 -4 14 C-4.99 13.34 -5.98 12.68 -7 12 C-7.99 12.99 -8.98 13.98 -10 15 C-10.598125 14.175 -11.19625 13.35 -11.8125 12.5 C-12.534375 11.675 -13.25625 10.85 -14 10 C-14.99 10 -15.98 10 -17 10 C-17 9.34 -17 8.68 -17 8 C-19.97 7.505 -19.97 7.505 -23 7 C-22.34 9.64 -21.68 12.28 -21 15 C-23.64 14.01 -26.28 13.02 -29 12 C-29 10.35 -29 8.7 -29 7 C-31.97 6.505 -31.97 6.505 -35 6 C-32.69851788 3.88394535 -31.50912997 3.0209027 -28.3359375 2.890625 C-26.87027344 3.06851562 -26.87027344 3.06851562 -25.375 3.25 C-24.31667969 3.36601562 -23.25835937 3.48203125 -22.16796875 3.6015625 C-21.12253906 3.73304687 -20.07710937 3.86453125 -19 4 C-10.45362085 5.13147722 -10.45362085 5.13147722 -2 4 C-0.48705712 2.06402968 -0.48705712 2.06402968 0 0 Z " fill="#594D09" transform="translate(57,28)"/>
<path d="M0 0 C1.08677041 1.63015561 2.15594568 3.27548592 3.12109375 4.98046875 C6.72685982 11.02574422 10.95148137 14.5079777 16.8046875 18.37109375 C17.52914063 18.90863281 18.25359375 19.44617188 19 20 C19 20.66 19 21.32 19 22 C18.21496094 21.89300781 17.42992188 21.78601563 16.62109375 21.67578125 C15.57050781 21.55589844 14.51992187 21.43601562 13.4375 21.3125 C12.40496094 21.18488281 11.37242188 21.05726562 10.30859375 20.92578125 C6.23799747 20.81119135 6.23799747 20.81119135 0 24 C0 16.08 0 8.16 0 0 Z " fill="#605204" transform="translate(0,34)"/>
<path d="M0 0 C2.52120211 1.81063366 4.77204874 3.84267543 7 6 C6.67 7.32 6.34 8.64 6 10 C1.00751307 11.77152762 -3.38579978 10.17748774 -8 8 C-9.7734375 6.390625 -9.7734375 6.390625 -11 5 C-10 2 -10 2 -7.75 0.8125 C-3.04008909 -0.57906459 -3.04008909 -0.57906459 0 0 Z " fill="#C7B552" transform="translate(49,19)"/>
<path d="M0 0 C0.99 0 1.98 0 3 0 C2.855625 0.70125 2.71125 1.4025 2.5625 2.125 C3.24402844 6.60361547 6.49734998 8.39981848 10 11 C10.33 10.01 10.66 9.02 11 8 C11.061875 8.598125 11.12375 9.19625 11.1875 9.8125 C12.33554682 12.90339529 14.10547052 13.5880344 17 15 C17.66 15 18.32 15 19 15 C19.66 13.68 20.32 12.36 21 11 C21.33 12.98 21.66 14.96 22 17 C27.445 18.98 27.445 18.98 33 21 C33 21.33 33 21.66 33 22 C19.83392412 21.28632486 12.25132177 18.75095761 3 9 C1.15298198 6.72642849 -0.421009 4.47375256 -2 2 C-1.34 1.34 -0.68 0.68 0 0 Z " fill="#B4A650" transform="translate(10,37)"/>
<path d="M0 0 C2 2 2 2 2.4375 4.75 C1.83839921 9.20046302 0.06348779 10.78333782 -3 14 C-4.65 13.67 -6.3 13.34 -8 13 C-8 12.34 -8 11.68 -8 11 C-8.66 11 -9.32 11 -10 11 C-10 9.68 -10 8.36 -10 7 C-10.99 6.67 -11.98 6.34 -13 6 C-13.33 5.01 -13.66 4.02 -14 3 C-11 2 -11 2 -9.0625 2.875 C-8.381875 3.24625 -7.70125 3.6175 -7 4 C-5.6757713 4.36784131 -4.34386088 4.71202981 -3 5 C-2.01 3.35 -1.02 1.7 0 0 Z " fill="#A85346" transform="translate(48,45)"/>
<path d="M0 0 C7.24995988 -0.40866162 14.70105859 -0.37486989 20.671875 4.3125 C22.0625 5.6875 22.0625 5.6875 24 8 C22.9375 9.5 22.9375 9.5 21 11 C17.3125 11.1875 17.3125 11.1875 14 11 C15.32 10.34 16.64 9.68 18 9 C17.360625 8.71125 16.72125 8.4225 16.0625 8.125 C14 7 14 7 13 5 C12.34 5 11.68 5 11 5 C11.33 6.32 11.66 7.64 12 9 C11.01 8.67 10.02 8.34 9 8 C8.566875 7.01 8.13375 6.02 7.6875 5 C7.130625 4.01 6.57375 3.02 6 2 C2.91038542 1.02525184 2.91038542 1.02525184 0 1 C0 0.67 0 0.34 0 0 Z " fill="#151610" transform="translate(7,17)"/>
<path d="M0 0 C0.680625 -0.00515625 1.36125 -0.0103125 2.0625 -0.015625 C4 0.25 4 0.25 7 2.25 C6.67 2.91 6.34 3.57 6 4.25 C4.68 3.92 3.36 3.59 2 3.25 C2.33 4.24 2.66 5.23 3 6.25 C3.66 6.58 4.32 6.91 5 7.25 C5 8.57 5 9.89 5 11.25 C5.66 11.58 6.32 11.91 7 12.25 C3.26512223 11.7520163 1.18762365 11.37508244 -2 9.25 C-2 8.26 -2 7.27 -2 6.25 C-2.61875 6.600625 -3.2375 6.95125 -3.875 7.3125 C-4.57625 7.621875 -5.2775 7.93125 -6 8.25 C-6.66 7.92 -7.32 7.59 -8 7.25 C-8 6.26 -8 5.27 -8 4.25 C-6.68 4.25 -5.36 4.25 -4 4.25 C-4.99 3.59 -5.98 2.93 -7 2.25 C-4.00261059 0.25174039 -3.36652492 -0.02550398 0 0 Z " fill="#8B5139" transform="translate(33,44.75)"/>
<path d="M0 0 C1.32 0 2.64 0 4 0 C4.33 1.98 4.66 3.96 5 6 C4.01 6.495 4.01 6.495 3 7 C2.59270772 9.32156597 2.25561323 11.6568787 2 14 C-1.36573933 12.55754029 -3.75010389 10.916532 -6 8 C-5.875 5.3125 -5.875 5.3125 -5 3 C-4.34 2.67 -3.68 2.34 -3 2 C-2.34 2.66 -1.68 3.32 -1 4 C-0.34 4 0.32 4 1 4 C0.67 2.68 0.34 1.36 0 0 Z " fill="#5F2812" transform="translate(18,34)"/>
<path d="M0 0 C0.36738281 0.62390625 0.73476563 1.2478125 1.11328125 1.890625 C3.59718087 4.66765563 5.57975134 4.97414007 9.1875 5.75 C10.27417969 5.99234375 11.36085938 6.2346875 12.48046875 6.484375 C13.72763672 6.73960938 13.72763672 6.73960938 15 7 C14.67 7.66 14.34 8.32 14 9 C7.07 8.01 0.14 7.02 -7 6 C-2 1 -2 1 0 0 Z " fill="#8B7917" transform="translate(34,25)"/>
<path d="M0 0 C2.3125 0.125 2.3125 0.125 5 1 C6.8125 4.0625 6.8125 4.0625 8 7 C8.33 5.68 8.66 4.36 9 3 C12 4 12 4 13 6 C14.64363134 6.72159424 16.31050386 7.39351421 18 8 C18 8.33 18 8.66 18 9 C17.236875 9.144375 16.47375 9.28875 15.6875 9.4375 C12.91827092 9.9632594 12.91827092 9.9632594 10 11 C5.53096133 7.86216434 2.80921516 4.6460097 0 0 Z " fill="#6B5B03" transform="translate(9,18)"/>
<path d="M0 0 C0.33 0 0.66 0 1 0 C1.5 2.6875 1.5 2.6875 1 6 C-2.40224664 9.27529714 -5.81781001 10.89444732 -10.5 11.3125 C-11.7375 11.1578125 -11.7375 11.1578125 -13 11 C-13 10.34 -13 9.68 -13 9 C-10.69 8.34 -8.38 7.68 -6 7 C-5.66781808 3.99740483 -5.66781808 3.99740483 -7.5 2.3125 C-7.995 1.879375 -8.49 1.44625 -9 1 C-8.05125 1.165 -7.1025 1.33 -6.125 1.5 C-3.19831099 2.0526635 -3.19831099 2.0526635 -1 2 C-0.67 1.34 -0.34 0.68 0 0 Z " fill="#5F5105" transform="translate(35,19)"/>
<path d="M0 0 C4.11943344 3.15823231 4.72373107 6.18571106 5.5078125 11.07421875 C5.67023437 11.70972656 5.83265625 12.34523438 6 13 C6.66 13.33 7.32 13.66 8 14 C5.69 14.66 3.38 15.32 1 16 C-0.11436437 12.6569069 0.30881272 10.43668996 0.80859375 7.0078125 C1.04608959 4.51652965 0.67494814 2.3998156 0 0 Z " fill="#6C5F12" transform="translate(39,5)"/>
<path d="M0 0 C3.96 0 7.92 0 12 0 C13 6.625 13 6.625 13 10 C10.69 9.01 8.38 8.02 6 7 C6 5.35 6 3.7 6 2 C3.03 1.505 3.03 1.505 0 1 C0 0.67 0 0.34 0 0 Z " fill="#5D2A11" transform="translate(22,33)"/>
<path d="M0 0 C6.52307692 -0.36923077 6.52307692 -0.36923077 8.9375 1.5 C9.288125 1.995 9.63875 2.49 10 3 C9.67 3.99 9.34 4.98 9 6 C5.26512223 5.5020163 3.18762365 5.12508244 0 3 C0 2.01 0 1.02 0 0 Z " fill="#D2BF5D" transform="translate(45,21)"/>
<path d="M0 0 C2.31 0.66 4.62 1.32 7 2 C7 3.32 7 4.64 7 6 C6.34 6 5.68 6 5 6 C4.67 6.99 4.34 7.98 4 9 C1.47740939 7.02579865 1.0070192 6.03254358 0.3125 2.8125 C0.209375 1.884375 0.10625 0.95625 0 0 Z " fill="#B0AA8F" transform="translate(33,34)"/>
<path d="M0 0 C4.875 1.75 4.875 1.75 6 4 C6.039992 5.99960012 6.04346799 8.00047242 6 10 C5.01 9.67 4.02 9.34 3 9 C3 7.68 3 6.36 3 5 C2.01 4.67 1.02 4.34 0 4 C-0.33 3.01 -0.66 2.02 -1 1 C-0.67 0.67 -0.34 0.34 0 0 Z " fill="#B1614E" transform="translate(35,47)"/>
<path d="M0 0 C2.31 0 4.62 0 7 0 C6.01 2.64 5.02 5.28 4 8 C0 3.375 0 3.375 0 0 Z " fill="#BFBAA5" transform="translate(22,34)"/>
<path d="M0 0 C3 1 3 1 4 3 C5.64363134 3.72159424 7.31050386 4.39351421 9 5 C9 5.33 9 5.66 9 6 C6.36 6 3.72 6 1 6 C0.34 4.35 -0.32 2.7 -1 1 C-0.67 0.67 -0.34 0.34 0 0 Z " fill="#848688" transform="translate(18,21)"/>
<path d="M0 0 C0.33 0 0.66 0 1 0 C0.67 2.31 0.34 4.62 0 7 C-2.3125 7.6875 -2.3125 7.6875 -5 8 C-6.8125 6.5625 -6.8125 6.5625 -8 5 C-6.865625 4.731875 -5.73125 4.46375 -4.5625 4.1875 C-3.386875 3.795625 -2.21125 3.40375 -1 3 C-0.67 2.01 -0.34 1.02 0 0 Z " fill="#847316" transform="translate(57,28)"/>
<path d="M0 0 C0.556875 0.226875 1.11375 0.45375 1.6875 0.6875 C1.048125 1.14125 0.40875 1.595 -0.25 2.0625 C-2.40952406 3.52671726 -2.40952406 3.52671726 -3.3125 5.6875 C-3.9725 5.6875 -4.6325 5.6875 -5.3125 5.6875 C-5.6425 6.3475 -5.9725 7.0075 -6.3125 7.6875 C-6.6425 6.0375 -6.9725 4.3875 -7.3125 2.6875 C-2.88173077 -0.38942308 -2.88173077 -0.38942308 0 0 Z " fill="#80753E" transform="translate(22.3125,32.3125)"/>
<path d="M0 0 C2 2 2 2 2.125 5.125 C2.08375 6.07375 2.0425 7.0225 2 8 C0.68 7.34 -0.64 6.68 -2 6 C-1.125 1.125 -1.125 1.125 0 0 Z " fill="#9E9672" transform="translate(48,45)"/>
<path d="M0 0 C2.0625 0.4375 2.0625 0.4375 4 1 C-0.18586481 4.18923033 -2.70558305 5.50423019 -8 5 C-8 4.34 -8 3.68 -8 3 C-6.865625 2.690625 -5.73125 2.38125 -4.5625 2.0625 C-1.21224901 1.37075469 -1.21224901 1.37075469 0 0 Z " fill="#554907" transform="translate(30,25)"/>
<path d="M0 0 C0.33 1.32 0.66 2.64 1 4 C2.65 4.33 4.3 4.66 6 5 C5.01 6.485 5.01 6.485 4 8 C2.35 7.67 0.7 7.34 -1 7 C-0.67 4.69 -0.34 2.38 0 0 Z " fill="#553E1A" transform="translate(41,51)"/>
<path d="M0 0 C2 3 2 3 2 7 C0.68 6.34 -0.64 5.68 -2 5 C-2 2 -2 2 0 0 Z " fill="#938B63" transform="translate(43,40)"/>
<path d="M0 0 C2.475 0.495 2.475 0.495 5 1 C4.67 2.65 4.34 4.3 4 6 C2 4.6875 2 4.6875 0 3 C0 2.01 0 1.02 0 0 Z " fill="#9D9673" transform="translate(44,37)"/>
<path d="M0 0 C0.33 0 0.66 0 1 0 C1.185625 1.7015625 1.185625 1.7015625 1.375 3.4375 C1.684375 5.2009375 1.684375 5.2009375 2 7 C2.66 7.33 3.32 7.66 4 8 C2.35 8.33 0.7 8.66 -1 9 C-0.67 6.03 -0.34 3.06 0 0 Z " fill="#23210D" transform="translate(43,11)"/>
<path d="M0 0 C0.33 0.99 0.66 1.98 1 3 C1.66 3.33 2.32 3.66 3 4 C-0.73487777 3.5020163 -2.81237635 3.12508244 -6 1 C-4 0 -4 0 0 0 Z " fill="#59452A" transform="translate(37,53)"/>
<path d="M0 0 C2 2 2 2 2.125 5.125 C2.08375 6.07375 2.0425 7.0225 2 8 C1.01 7.67 0.02 7.34 -1 7 C-0.67 4.69 -0.34 2.38 0 0 Z " fill="#CDC9B4" transform="translate(39,49)"/>
</svg>
