<?xml version="1.0" encoding="UTF-8"?>
<svg version="1.1" xmlns="http://www.w3.org/2000/svg" width="64" height="64">
<path d="M0 0 C0.99261337 0.00222061 1.98522675 0.00444122 3.00791931 0.00672913 C4.14475159 0.00684998 5.28158386 0.00697083 6.4528656 0.00709534 C7.65689026 0.0122113 8.86091492 0.01732727 10.10142517 0.02259827 C11.75120361 0.02410889 11.75120361 0.02410889 13.43431091 0.02565002 C17.56164078 0.0309009 21.68895585 0.04486201 25.81626892 0.05775452 C39.64533142 0.08869202 39.64533142 0.08869202 53.75376892 0.12025452 C53.75376892 21.24025452 53.75376892 42.36025452 53.75376892 64.12025452 C38.90376892 64.12025452 24.05376892 64.12025452 8.75376892 64.12025452 C7.75376892 57.12025452 7.75376892 57.12025452 9.18736267 55.12416077 C9.84865173 54.6484967 10.5099408 54.17283264 11.19126892 53.68275452 C11.84997986 53.18904358 12.5086908 52.69533264 13.18736267 52.18666077 C13.70427673 51.8347467 14.2211908 51.48283264 14.75376892 51.12025452 C13.86689392 50.58400452 12.98001892 50.04775452 12.06626892 49.49525452 C7.47005252 46.39117472 4.1945971 43.17745268 3.00376892 37.62025452 C2.92126892 36.46525452 2.83876892 35.31025452 2.75376892 34.12025452 C2.19239127 29.53567035 1.14330967 26.10282243 -1.24623108 22.12025452 C-2.32904358 21.47056702 -2.32904358 21.47056702 -3.43373108 20.80775452 C-5.24623108 19.12025452 -5.24623108 19.12025452 -5.57044983 17.25697327 C-5.69402732 11.75302196 -4.85583599 6.38378005 -3.24623108 1.12025452 C-2.24623108 0.12025452 -2.24623108 0.12025452 0 0 Z " fill="#3D3B36" transform="translate(10.246231079101563,-0.1202545166015625)"/>
<path d="M0 0 C4.29 0 8.58 0 13 0 C13 21.12 13 42.24 13 64 C-1.85 64 -16.7 64 -32 64 C-33 57 -33 57 -31.56640625 55.00390625 C-30.90511719 54.52824219 -30.24382813 54.05257812 -29.5625 53.5625 C-28.90378906 53.06878906 -28.24507812 52.57507812 -27.56640625 52.06640625 C-27.04949219 51.71449219 -26.53257813 51.36257812 -26 51 C-26.886875 50.46375 -27.77375 49.9275 -28.6875 49.375 C-32.20537057 47.02696762 -34.52085893 44.42704795 -37 41 C-37 40.01 -37 39.02 -37 38 C-33 40 -33 40 -31.1875 41.125 C-26.97963403 42.80814639 -23.49985896 42.62840806 -19.32421875 40.87890625 C-16.84681338 39.64195562 -14.41230628 38.35904579 -12 37 C-12.66 36.34 -13.32 35.68 -14 35 C-13.35933594 34.731875 -12.71867187 34.46375 -12.05859375 34.1875 C-6.13030238 31.50165711 -2.30324913 28.69895948 1.72265625 23.57421875 C2.14417969 23.05472656 2.56570312 22.53523438 3 22 C3.33 22 3.66 22 4 22 C5.9333722 37.77325435 5.9333722 37.77325435 2.5625 43 C1.716875 43.99 0.87125 44.98 0 46 C4.81930937 43.21551014 6.84939042 41.10467723 9 36 C11.69835293 25.21868852 11.07913104 17.38359032 5.68359375 7.6171875 C3.97566277 4.7723353 2.35098544 2.35098544 0 0 Z " fill="#3B1501" transform="translate(51,0)"/>
<path d="M0 0 C3.791212 3.40452519 6.50861222 7.07842034 8 12 C1.72182331 20.37783181 -5.58150346 24.8034049 -15.890625 26.72265625 C-18.98149971 27.12904904 -21.89291487 27.2536396 -25 27 C-25.66 26.34 -26.32 25.68 -27 25 C-26.34 24.34 -25.68 23.68 -25 23 C-25.42154126 17.23893618 -27.41481618 11.17036764 -30 6 C-30.99 5.34 -31.98 4.68 -33 4 C-24.87417543 -4.12582457 -10.06309031 -6.03785419 0 0 Z " fill="#A3823E" transform="translate(46,11)"/>
<path d="M0 0 C0.33 0 0.66 0 1 0 C2.82975695 10.91200506 2.82975695 10.91200506 1.046875 15.3984375 C-3.95198805 22.34740646 -11.80312782 28.94865464 -20.39453125 30.40625 C-26.39310166 30.63882785 -29.73487041 29.57852216 -34.3046875 25.65625 C-36.45514757 23.5553397 -38.36061001 21.5273929 -40 19 C-40 18.01 -40 17.02 -40 16 C-36 18 -36 18 -34.1875 19.125 C-29.97963403 20.80814639 -26.49985896 20.62840806 -22.32421875 18.87890625 C-19.84681338 17.64195562 -17.41230628 16.35904579 -15 15 C-15.66 14.34 -16.32 13.68 -17 13 C-16.35933594 12.731875 -15.71867187 12.46375 -15.05859375 12.1875 C-9.13030238 9.50165711 -5.30324913 6.69895948 -1.27734375 1.57421875 C-0.85582031 1.05472656 -0.43429688 0.53523438 0 0 Z " fill="#050505" transform="translate(54,22)"/>
<path d="M0 0 C4.18080601 -0.12403121 8.36062502 -0.21453601 12.54272461 -0.2746582 C13.96381291 -0.29973147 15.38477313 -0.33379999 16.80541992 -0.37719727 C18.85367462 -0.43817858 20.90021883 -0.46627762 22.94921875 -0.48828125 C24.17987061 -0.51446533 25.41052246 -0.54064941 26.6784668 -0.56762695 C30.92535553 0.15813683 32.31078772 1.71436178 35 5 C36.765625 7.90234375 36.765625 7.90234375 38.25 10.9375 C38.75015625 11.93652344 39.2503125 12.93554688 39.765625 13.96484375 C42.98103811 21.87109688 42.17173138 30.38411312 39.11328125 38.29296875 C37.31639151 41.62396197 35.30374672 44.12787686 32 46 C31.34 46 30.68 46 30 46 C31.84628099 41.11542165 34.28233759 36.62485255 36.7578125 32.03515625 C38.09151312 28.77639719 38.23888975 26.48467439 38 23 C37.34 23.99 36.68 24.98 36 26 C35.65388672 25.00419922 35.65388672 25.00419922 35.30078125 23.98828125 C32.5339762 16.49712925 29.32294424 11.66147212 22 8 C16.08507319 5.5095045 10.69550813 4.63914574 4.28515625 4.50390625 C3.53105469 4.33761719 2.77695312 4.17132812 2 4 C0.85717773 1.96850586 0.85717773 1.96850586 0 0 Z " fill="#726A60" transform="translate(21,0)"/>
<path d="M0 0 C-0.495 0.495 -0.99 0.99 -1.5 1.5 C-3.69547556 5.15912593 -3.27343836 7.76170548 -3 12 C-2.67 12.66 -2.34 13.32 -2 14 C-1.01 14.33 -0.02 14.66 1 15 C1.33 13.35 1.66 11.7 2 10 C2.66 10 3.32 10 4 10 C5.33333333 12 6.66666667 14 8 16 C8.66 16 9.32 16 10 16 C10.33 13.36 10.66 10.72 11 8 C13.375 8.625 13.375 8.625 16 10 C17.69835501 13.62830387 18.28163292 15.15510125 17 19 C9.31234861 24.1403542 0.22722455 26.75324282 -9 26 C-9.66 25.34 -10.32 24.68 -11 24 C-10.34 23.34 -9.68 22.68 -9 22 C-9.27739375 18.20895214 -10.3706859 14.96468063 -11.6875 11.4375 C-12.67633942 8.52482943 -13.03356014 7.22053808 -12.5625 4.125 C-9.24915261 -0.38115245 -5.27075928 -1.70524565 0 0 Z " fill="#C4AF7C" transform="translate(30,12)"/>
<path d="M0 0 C4.29 0 8.58 0 13 0 C13.17317976 6.4594148 13.30013403 12.91747603 13.38452148 19.37866211 C13.419701 21.57584166 13.46745371 23.77285762 13.52807617 25.96948242 C13.61310406 29.12980483 13.65271323 32.28796042 13.68359375 35.44921875 C13.71972275 36.42960617 13.75585175 37.40999359 13.79307556 38.42008972 C13.79690924 45.09511091 13.79690924 45.09511091 11.48513794 47.72012329 C9.70462043 49.01775605 7.98325348 50.04655679 6 51 C5.154375 51.4125 4.30875 51.825 3.4375 52.25 C-1.58346684 53.79491287 -6.51661358 54.15735376 -11.75 54.1875 C-12.87921875 54.20167969 -14.0084375 54.21585938 -15.171875 54.23046875 C-18 54 -18 54 -20 52 C-19.07380859 51.79697266 -19.07380859 51.79697266 -18.12890625 51.58984375 C-8.06601172 49.03199993 -1.50740978 43.70526062 4 35 C5 38 5 38 4.00390625 40.04296875 C3.52824219 40.75066406 3.05257812 41.45835938 2.5625 42.1875 C2.08941406 42.90292969 1.61632812 43.61835937 1.12890625 44.35546875 C0.75636719 44.89816406 0.38382813 45.44085938 0 46 C4.81930937 43.21551014 6.84939042 41.10467723 9 36 C11.69835293 25.21868852 11.07913104 17.38359032 5.68359375 7.6171875 C3.97566277 4.7723353 2.35098544 2.35098544 0 0 Z " fill="#504940" transform="translate(51,0)"/>
<path d="M0 0 C0.99 0 1.98 0 3 0 C3.66 0.99 4.32 1.98 5 3 C7.25427168 3.43743521 7.25427168 3.43743521 9.875 3.4375 C18.80713074 4.03610534 27.82585134 6.20843647 34 13 C36.13779397 16.52839781 37.69700564 20.09101691 39 24 C39.66 23.34 40.32 22.68 41 22 C41.33 22.33 41.66 22.66 42 23 C41.984375 24.9609375 41.984375 24.9609375 41.75 27.375 C41.68296875 28.16648437 41.6159375 28.95796875 41.546875 29.7734375 C40.91370704 32.35133561 40.01158996 33.32367504 38 35 C37.1276588 32.00519083 36.89170234 29.36424089 36.9375 26.25 C36.94652344 25.45078125 36.95554688 24.6515625 36.96484375 23.828125 C36.97644531 23.22484375 36.98804688 22.6215625 37 22 C36.34 22 35.68 22 35 22 C33.921875 20.390625 33.921875 20.390625 32.75 18.25 C30.10525888 13.84209814 27.12312856 10.95024196 22.07421875 9.4140625 C15.17298484 8.03641505 7.66596905 8.88640006 1 11 C-2.04508754 12.92814247 -2.04508754 12.92814247 -4 15 C-2.68 16.32 -1.36 17.64 0 19 C-0.66 19.33 -1.32 19.66 -2 20 C-4.625 19.0625 -4.625 19.0625 -7 18 C-6.875 15.8125 -6.875 15.8125 -6 13 C-4.989375 12.236875 -3.97875 11.47375 -2.9375 10.6875 C0.13911897 8.41239416 0.13911897 8.41239416 0.39453125 5.90625 C0.40697666 3.43767927 0.40697666 3.43767927 0 0 Z " fill="#433D34" transform="translate(18,0)"/>
<path d="M0 0 C1.37478516 0.01740234 1.37478516 0.01740234 2.77734375 0.03515625 C3.69644531 0.04417969 4.61554687 0.05320313 5.5625 0.0625 C6.27277344 0.07410156 6.98304687 0.08570313 7.71484375 0.09765625 C8.04484375 3.06765625 8.37484375 6.03765625 8.71484375 9.09765625 C6.40484375 10.74765625 4.09484375 12.39765625 1.71484375 14.09765625 C2.76267655 17.24115466 3.29398043 17.8301681 5.77734375 19.78515625 C6.74671875 20.54828125 7.71609375 21.31140625 8.71484375 22.09765625 C8.38484375 22.75765625 8.05484375 23.41765625 7.71484375 24.09765625 C7.05484375 23.43765625 6.39484375 22.77765625 5.71484375 22.09765625 C4.78671875 22.30390625 3.85859375 22.51015625 2.90234375 22.72265625 C-0.28515625 23.09765625 -0.28515625 23.09765625 -3.16015625 21.72265625 C-5.81953649 18.43753949 -5.82161224 16.66516983 -5.58984375 12.5546875 C-4.05446898 0.17326791 -4.05446898 0.17326791 0 0 Z " fill="#6A6258" transform="translate(10.28515625,-0.09765625)"/>
<path d="M0 0 C2.15832686 1.13787964 4.12107643 2.39001594 6.10546875 3.80859375 C8.07774887 5.04889362 9.72567401 5.56127193 12 6 C12 6.66 12 7.32 12 8 C6.45598708 11.74018401 2.67947261 12.54484368 -3.9375 12.25 C-4.71673828 12.23195313 -5.49597656 12.21390625 -6.29882812 12.1953125 C-8.19976131 12.14866383 -10.10005169 12.07693829 -12 12 C-12.65625 8.68359375 -12.65625 8.68359375 -13 5 C-9.08135908 0.39559692 -6.16715975 -1.0633034 0 0 Z " fill="#55300B" transform="translate(31,52)"/>
<path d="M0 0 C-1.55444452 6.07646494 -4.46383618 8.89860712 -9.1875 12.8125 C-14.46825184 15.04215078 -19.93041997 14.45154473 -25.4375 13.25 C-28.28931178 11.8588723 -29.48732011 10.77324647 -31 8 C-31 7.01 -31 6.02 -31 5 C-27 7 -27 7 -25.1875 8.125 C-20.97963403 9.80814639 -17.49985896 9.62840806 -13.32421875 7.87890625 C-10.84681338 6.64195562 -8.41230628 5.35904579 -6 4 C-6.66 3.34 -7.32 2.68 -8 2 C-5.09399739 0.74335022 -3.20395416 0 0 0 Z " fill="#242424" transform="translate(45,33)"/>
<path d="M0 0 C1.17735823 3.5320747 0.54661589 4.88192804 -0.99609375 8.16796875 C-4.18174323 13.98146917 -8.76630139 18.60242361 -15 21 C-19.08409431 21.60291508 -22.94541641 21.83987803 -27 21 C-29.359375 18.96484375 -29.359375 18.96484375 -31 17 C-29.60587891 17.06960937 -29.60587891 17.06960937 -28.18359375 17.140625 C-18.2848977 17.59386358 -18.2848977 17.59386358 -10 13 C-8.32094704 10.77351858 -6.81533126 8.50460743 -5.35546875 6.12890625 C-3.83968115 3.74820238 -2.11195513 1.868268 0 0 Z " fill="#0F0F0F" transform="translate(50,29)"/>
<path d="M0 0 C4.29 0 8.58 0 13 0 C13 7.59 13 15.18 13 23 C10.66655289 20.66655289 10.20779723 18.99233366 9.1875 15.875 C7.09331926 9.90619271 4.50889354 4.50889354 0 0 Z " fill="#4F4940" transform="translate(51,0)"/>
<path d="M0 0 C0.33 0 0.66 0 1 0 C2.0632151 9.63644165 2.0632151 9.63644165 -0.3828125 12.7734375 C-2.20081053 14.07200752 -3.970418 15.07012875 -6 16 C-6.845625 16.4125 -7.69125 16.825 -8.5625 17.25 C-13.58346684 18.79491287 -18.51661358 19.15735376 -23.75 19.1875 C-24.87921875 19.20167969 -26.0084375 19.21585938 -27.171875 19.23046875 C-30 19 -30 19 -32 17 C-31.04738281 17.02320312 -30.09476563 17.04640625 -29.11328125 17.0703125 C-27.85902344 17.08835937 -26.60476562 17.10640625 -25.3125 17.125 C-24.07113281 17.14820312 -22.82976563 17.17140625 -21.55078125 17.1953125 C-15.5044977 16.86273365 -12.32235457 14.74853897 -7.875 10.75 C-6.60269531 9.62851562 -6.60269531 9.62851562 -5.3046875 8.484375 C-2.84230438 5.83000947 -1.45795386 3.29707212 0 0 Z " fill="#3B3329" transform="translate(63,35)"/>
<path d="M0 0 C0.66 0 1.32 0 2 0 C2 2.64 2 5.28 2 8 C2.7425 7.649375 3.485 7.29875 4.25 6.9375 C9.60969662 5.59757584 14.56078724 6.34870268 20 7 C20 7.33 20 7.66 20 8 C19.45061768 8.06993164 18.90123535 8.13986328 18.33520508 8.21191406 C15.82510095 8.5411254 13.31912492 8.89530618 10.8125 9.25 C9.94818359 9.35957031 9.08386719 9.46914062 8.19335938 9.58203125 C3.04866707 10.33106691 -0.19077144 11.18288483 -4 15 C-2.68 16.32 -1.36 17.64 0 19 C-0.66 19.33 -1.32 19.66 -2 20 C-4.625 19.0625 -4.625 19.0625 -7 18 C-6.875 15.8125 -6.875 15.8125 -6 13 C-4.989375 12.236875 -3.97875 11.47375 -2.9375 10.6875 C0.13911897 8.41239416 0.13911897 8.41239416 0.39453125 5.90625 C0.40697666 3.43767927 0.40697666 3.43767927 0 0 Z " fill="#2A251D" transform="translate(18,0)"/>
<path d="M0 0 C4.95 1.98 4.95 1.98 10 4 C10 4.66 10 5.32 10 6 C5.38987758 8.95047835 2.63470383 10.5497272 -3 10 C-2.69201674 8.51988629 -2.378482 7.04092675 -2.0625 5.5625 C-1.88847656 4.73878906 -1.71445312 3.91507813 -1.53515625 3.06640625 C-1 1 -1 1 0 0 Z " fill="#5B3409" transform="translate(33,54)"/>
<path d="M0 0 C1.875 0 1.875 0 4 1 C7.16605547 4.8897253 8.52548215 8.01756253 9 13 C6.37098712 11.47793991 4.15634036 10.15634036 2 8 C1.01 8.495 1.01 8.495 0 9 C-0.66 6.69 -1.32 4.38 -2 2 C-1.34 1.34 -0.68 0.68 0 0 Z " fill="#2A2B2C" transform="translate(13,21)"/>
<path d="M0 0 C-0.66 0 -1.32 0 -2 0 C-2 0.66 -2 1.32 -2 2 C-2.99 2.495 -2.99 2.495 -4 3 C-4 5.31 -4 7.62 -4 10 C-6.97 10 -9.94 10 -13 10 C-8.25 6 -8.25 6 -6 6 C-6 5.34 -6 4.68 -6 4 C-7.3921875 3.8453125 -7.3921875 3.8453125 -8.8125 3.6875 C-12.14965236 2.96772204 -12.83186532 2.42857128 -15 0 C-13.06325815 -0.19517554 -11.12555991 -0.38087873 -9.1875 -0.5625 C-8.10855469 -0.66691406 -7.02960937 -0.77132812 -5.91796875 -0.87890625 C-3 -1 -3 -1 0 0 Z " fill="#29100A" transform="translate(49,54)"/>
<path d="M0 0 C0.66 0.99 1.32 1.98 2 3 C-0.31 4.65 -2.62 6.3 -5 8 C-3.9521672 11.14349841 -3.42086332 11.73251185 -0.9375 13.6875 C0.031875 14.450625 1.00125 15.21375 2 16 C1.67 16.66 1.34 17.32 1 18 C0.34 17.34 -0.32 16.68 -1 16 C-1.94875 16.20625 -2.8975 16.4125 -3.875 16.625 C-4.90625 16.74875 -5.9375 16.8725 -7 17 C-9.1953125 15.0234375 -9.1953125 15.0234375 -11 13 C-9.92027262 11.5805831 -8.83604137 10.1645917 -7.75 8.75 C-6.84507813 7.56664062 -6.84507813 7.56664062 -5.921875 6.359375 C-4.06817005 4.08368843 -2.11101046 2.03628442 0 0 Z " fill="#3D372E" transform="translate(17,6)"/>
<path d="M0 0 C1.29243536 4.1196377 2.26252625 7.66831683 2 12 C0.68 12 -0.64 12 -2 12 C-2.144375 11.38125 -2.28875 10.7625 -2.4375 10.125 C-2.93152225 7.96741678 -2.93152225 7.96741678 -4 6 C-3.34 5.67 -2.68 5.34 -2 5 C-2 3.68 -2 2.36 -2 1 C-5.53600465 2.91135386 -7.78972846 4.62642766 -10 8 C-9.51760563 2.57306338 -9.51760563 2.57306338 -7.25 0.0625 C-4.41184751 -1.27773867 -2.94905709 -0.90110078 0 0 Z " fill="#040404" transform="translate(39,16)"/>
<path d="M0 0 C2.31 0 4.62 0 7 0 C6.59007812 0.64066406 6.18015625 1.28132813 5.7578125 1.94140625 C2.66184574 6.91124762 0.24627496 11.26713518 -1 17 C-1.33 17 -1.66 17 -2 17 C-2.05441656 15.10448978 -2.09298035 13.2085208 -2.125 11.3125 C-2.14820313 10.25675781 -2.17140625 9.20101563 -2.1953125 8.11328125 C-1.99858729 4.97748141 -1.33057654 2.82354627 0 0 Z " fill="#827A70" transform="translate(8,0)"/>
<path d="M0 0 C6.13439944 -0.38339996 11.61425842 -0.23144495 17 3 C20.791212 6.40452519 23.50861222 10.07842034 25 15 C24.01 15.495 24.01 15.495 23 16 C22.731875 15.48050781 22.46375 14.96101563 22.1875 14.42578125 C19.08507874 8.90469604 15.87664266 5.49833173 10 3 C6.69011133 2.09816158 3.39721184 1.46642048 0 1 C0 0.67 0 0.34 0 0 Z " fill="#82601A" transform="translate(29,8)"/>
<path d="M0 0 C0.38285156 0.48339844 0.76570313 0.96679688 1.16015625 1.46484375 C3.61224909 3.51085752 5.27801698 3.42960451 8.4375 3.5625 C12.17800306 3.73044095 14.75177326 4.08792326 18 6 C18 6.33 18 6.66 18 7 C16.80503906 6.98259766 16.80503906 6.98259766 15.5859375 6.96484375 C7.74521011 6.88148443 7.74521011 6.88148443 0 8 C0 5.36 0 2.72 0 0 Z " fill="#4F4940" transform="translate(20,0)"/>
<path d="M0 0 C-0.66 2.97 -1.32 5.94 -2 9 C-4.97 9 -7.94 9 -11 9 C-10.67 8.34 -10.34 7.68 -10 7 C-9.34 7.33 -8.68 7.66 -8 8 C-7.731875 7.236875 -7.46375 6.47375 -7.1875 5.6875 C-5.44418366 1.74209986 -4.44526451 0 0 0 Z " fill="#401B00" transform="translate(32,55)"/>
<path d="M0 0 C0.33 0.99 0.66 1.98 1 3 C-1.5389875 7.93196294 -4.64559903 12.08838396 -9.25 15.1875 C-12 16 -12 16 -15 15 C-14.33613281 14.50371094 -13.67226563 14.00742187 -12.98828125 13.49609375 C-7.67012438 9.40460664 -3.56075301 5.69720482 0 0 Z " fill="#2D2821" transform="translate(55,35)"/>
<path d="M0 0 C0.66 0 1.32 0 2 0 C4.03435531 3.72965139 5 5.66905042 5 10 C2 12 2 12 -0.6875 11.625 C-1.450625 11.41875 -2.21375 11.2125 -3 11 C-2.505 10.484375 -2.01 9.96875 -1.5 9.4375 C0.49649241 6.19319983 0.21564385 3.73782666 0 0 Z " fill="#E8CD92" transform="translate(22,26)"/>
<path d="M0 0 C0.625 1.875 0.625 1.875 1 4 C0.34 4.66 -0.32 5.32 -1 6 C-0.01 7.485 -0.01 7.485 1 9 C0.01 9 -0.98 9 -2 9 C-2.33 7.68 -2.66 6.36 -3 5 C-3.66 5 -4.32 5 -5 5 C-5 7.31 -5 9.62 -5 12 C-5.66 11.34 -6.32 10.68 -7 10 C-6.77358491 3.77358491 -6.77358491 3.77358491 -4.0625 1.0625 C-2 0 -2 0 0 0 Z " fill="#7D8082" transform="translate(37,17)"/>
<path d="M0 0 C0.66 0.33 1.32 0.66 2 1 C1.91253716 2.43861294 1.80434652 3.87597508 1.6875 5.3125 C1.62949219 6.11300781 1.57148437 6.91351563 1.51171875 7.73828125 C1 10 1 10 -2 13 C-2.33 9.7 -2.66 6.4 -3 3 C-2.01 3.33 -1.02 3.66 0 4 C0 2.68 0 1.36 0 0 Z " fill="#3A342B" transform="translate(58,22)"/>
<path d="M0 0 C0.78375 0.825 1.5675 1.65 2.375 2.5 C4.63721264 5.22988506 4.63721264 5.22988506 7 5 C7.33 3.35 7.66 1.7 8 0 C8.33 0 8.66 0 9 0 C9.25 5.625 9.25 5.625 7 9 C5.68 9 4.36 9 3 9 C0.43228397 5.69865082 0 4.27125508 0 0 Z " fill="#FBFBFB" transform="translate(33,23)"/>
<path d="M0 0 C0 3.96 0 7.92 0 12 C-0.99 12 -1.98 12 -3 12 C-4.35 4.63636364 -4.35 4.63636364 -2.625 1.5 C-1 0 -1 0 0 0 Z " fill="#5B3409" transform="translate(64,52)"/>
<path d="M0 0 C1.98 0 3.96 0 6 0 C6 3.63 6 7.26 6 11 C5.34 10.01 4.68 9.02 4 8 C3.29875 6.989375 2.5975 5.97875 1.875 4.9375 C0 2 0 2 0 0 Z " fill="#433A2F" transform="translate(58,0)"/>
<path d="M0 0 C0.5775 0.226875 1.155 0.45375 1.75 0.6875 C0.6053125 1.5846875 0.6053125 1.5846875 -0.5625 2.5 C-2.5983575 4.15709332 -4.4478279 5.79047674 -6.25 7.6875 C-6.91 7.3575 -7.57 7.0275 -8.25 6.6875 C-6.65594781 2.8352072 -4.57967475 -0.63606594 0 0 Z " fill="#5E3514" transform="translate(26.25,52.3125)"/>
<path d="M0 0 C0.33 0 0.66 0 1 0 C1.4375 2.1875 1.4375 2.1875 1 5 C-1.13995327 6.98441782 -3.50175965 8.5023304 -6 10 C-6.66 9.67 -7.32 9.34 -8 9 C-6.69088122 7.49704815 -5.37761608 5.99770689 -4.0625 4.5 C-3.33160156 3.6646875 -2.60070313 2.829375 -1.84765625 1.96875 C-1.23792969 1.3190625 -0.62820312 0.669375 0 0 Z " fill="#473F34" transform="translate(63,41)"/>
<path d="M0 0 C1.07765625 0.10183594 2.1553125 0.20367187 3.265625 0.30859375 C4.08546875 0.39238281 4.9053125 0.47617188 5.75 0.5625 C5.75 0.8925 5.75 1.2225 5.75 1.5625 C-0.31696699 2.33290851 -6.13514973 2.65956112 -12.25 2.5625 C-8.56940824 -1.11809176 -4.9688599 -0.48608412 0 0 Z " fill="#352E24" transform="translate(32.25,6.4375)"/>
<path d="M0 0 C4.85244485 -0.38819559 8.14014025 -0.43747251 12.5625 1.8125 C13.366875 2.534375 14.17125 3.25625 15 4 C15 4.99 15 5.98 15 7 C14.41992188 6.65066406 13.83984375 6.30132812 13.2421875 5.94140625 C8.82730556 3.36970109 5.20058437 1.40004495 0 1 C0 0.67 0 0.34 0 0 Z " fill="#948C82" transform="translate(35,0)"/>
<path d="M0 0 C1.98 0.99 3.96 1.98 6 3 C5.01 3.66 4.02 4.32 3 5 C2.484375 5.53625 1.96875 6.0725 1.4375 6.625 C0 8 0 8 -2 8 C-1.34 5.36 -0.68 2.72 0 0 Z " fill="#794E1E" transform="translate(32,56)"/>
<path d="M0 0 C0.25 2.75 0.25 2.75 0 6 C-2 8.375 -2 8.375 -4 10 C-4.29296875 3.9453125 -4.29296875 3.9453125 -4 2 C-1 0 -1 0 0 0 Z " fill="#3E1D04" transform="translate(64,46)"/>
<path d="M0 0 C3 1.8125 3 1.8125 6 4 C6 4.99 6 5.98 6 7 C5.34 6.34 4.68 5.68 4 5 C1.39719432 5.32041397 1.39719432 5.32041397 -1 6 C-1.042721 4.33388095 -1.04063832 2.66617115 -1 1 C-0.67 0.67 -0.34 0.34 0 0 Z " fill="#94722C" transform="translate(12,17)"/>
<path d="M0 0 C1.58502671 3.17005342 1.60385067 6.49124878 2 10 C1.01 9.67 0.02 9.34 -1 9 C-1.625 5.625 -1.625 5.625 -2 2 C-1.34 1.34 -0.68 0.68 0 0 Z " fill="#A98740" transform="translate(28,17)"/>
<path d="M0 0 C0.66 0.99 1.32 1.98 2 3 C-2.455 5.97 -2.455 5.97 -7 9 C-5.04783565 5.09567131 -3.12613393 2.96160056 0 0 Z " fill="#4F4940" transform="translate(17,6)"/>
<path d="M0 0 C1.25541557 3.76624671 0.37061958 5.37188934 -1 9 C-1.99 9 -2.98 9 -4 9 C-2.94124926 5.59687262 -1.99097846 2.98646769 0 0 Z " fill="#2A0500" transform="translate(31,55)"/>
<path d="M0 0 C2.64 0.33 5.28 0.66 8 1 C8.33 1.99 8.66 2.98 9 4 C3.46153846 3.38461538 3.46153846 3.38461538 1.125 1.4375 C0.75375 0.963125 0.3825 0.48875 0 0 Z " fill="#431D00" transform="translate(34,54)"/>
<path d="M0 0 C0.66 0 1.32 0 2 0 C2 1.65 2 3.3 2 5 C0.68 5 -0.64 5 -2 5 C-1.34 3.35 -0.68 1.7 0 0 Z " fill="#18191A" transform="translate(39,23)"/>
<path d="M0 0 C0 1.32 0 2.64 0 4 C-2.31 4 -4.62 4 -7 4 C-2.25 0 -2.25 0 0 0 Z " fill="#431D00" transform="translate(43,60)"/>
<path d="M0 0 C0.598125 0.763125 1.19625 1.52625 1.8125 2.3125 C3.46959332 4.3483575 5.10297674 6.1978279 7 8 C4.625 7.6875 4.625 7.6875 2 7 C0 4 0 4 0 0 Z " fill="#DBE0E1" transform="translate(14,26)"/>
<path d="M0 0 C0.99 0.33 1.98 0.66 3 1 C1.37660195 2.70884005 -0.29319053 4.37446717 -2 6 C-2.66 6 -3.32 6 -4 6 C-2.84826645 3.53199953 -1.95216435 1.95216435 0 0 Z " fill="#040506" transform="translate(30,12)"/>
</svg>
