<?xml version="1.0" encoding="UTF-8"?>
<svg version="1.1" xmlns="http://www.w3.org/2000/svg" width="64" height="64">
<path d="M0 0 C21.12 0 42.24 0 64 0 C64 21.12 64 42.24 64 64 C42.88 64 21.76 64 0 64 C0 42.88 0 21.76 0 0 Z " fill="#53514F" transform="translate(0,0)"/>
<path d="M0 0 C21.12 0 42.24 0 64 0 C64 12.21 64 24.42 64 37 C61 34 61 34 60.671875 31.73046875 C60.71054688 30.47169922 60.71054688 30.47169922 60.75 29.1875 C60.78867188 27.86685547 60.78867188 27.86685547 60.828125 26.51953125 C61.02510294 23.63201375 61.4037022 20.83241457 62 18 C61.34 18 60.68 18 60 18 C59.75765625 17.31292969 59.5153125 16.62585938 59.265625 15.91796875 C58.93046875 15.01691406 58.5953125 14.11585937 58.25 13.1875 C57.92515625 12.29417969 57.6003125 11.40085937 57.265625 10.48046875 C55.84163528 7.68962469 54.76611818 6.45989571 52 5 C42.80575099 5.73407178 34.81074861 14.6839689 29 21 C29.80824219 21.42925781 30.61648437 21.85851562 31.44921875 22.30078125 C34 24 34 24 34.8125 27.1875 C34.874375 28.115625 34.93625 29.04375 35 30 C34.505 28.515 34.505 28.515 34 27 C29.07872966 26.83317728 25.49656104 26.75171948 21 29 C21.33 30.65 21.66 32.3 22 34 C23.65 34 25.3 34 27 34 C26.505 31.525 26.505 31.525 26 29 C26.99 29.66 27.98 30.32 29 31 C29 31.66 29 32.32 29 33 C29.66 33.33 30.32 33.66 31 34 C29.3125 35.5625 29.3125 35.5625 27 37 C22.98385937 36.79404407 20.36101904 35.07608856 17 33 C16.26394531 33.49371094 15.52789062 33.98742188 14.76953125 34.49609375 C13.79371094 35.13675781 12.81789063 35.77742188 11.8125 36.4375 C10.36810547 37.39462891 10.36810547 37.39462891 8.89453125 38.37109375 C6.15022243 39.91546187 4.09581657 40.59816641 1 41 C4.77184631 49.75068344 9.43893611 53.90557814 18 58 C19.69859667 59.29241051 21.37609523 60.61490475 23 62 C18 64 18 64 0 64 C0 42.88 0 21.76 0 0 Z " fill="#3A2F42" transform="translate(0,0)"/>
<path d="M0 0 C5.15117452 2.36675586 6.94555909 7.10156011 8.89453125 12.09765625 C9.3125 14.0625 9.3125 14.0625 8.3125 18.0625 C7.6525 15.4225 6.9925 12.7825 6.3125 10.0625 C5.61125 10.2275 4.91 10.3925 4.1875 10.5625 C1.3125 11.0625 1.3125 11.0625 -1.75 10.75 C-4.96048061 10.76672567 -4.96048061 10.76672567 -7.1875 13.75 C-9.02937333 16.90491607 -9.02937333 16.90491607 -8 19.8125 C-7.566875 20.555 -7.13375 21.2975 -6.6875 22.0625 C-6.1925 23.0525 -6.1925 23.0525 -5.6875 24.0625 C-6.863125 24.578125 -8.03875 25.09375 -9.25 25.625 C-13.31163228 27.63428805 -16.00682171 30.17267407 -19.08984375 33.4453125 C-21.09115105 35.47108566 -23.1153591 36.84787791 -25.6875 38.0625 C-26.6775 38.0625 -27.6675 38.0625 -28.6875 38.0625 C-28.3575 41.0325 -28.0275 44.0025 -27.6875 47.0625 C-26.0375 47.3925 -24.3875 47.7225 -22.6875 48.0625 C-22.6875 48.7225 -22.6875 49.3825 -22.6875 50.0625 C-21.82125 50.145 -20.955 50.2275 -20.0625 50.3125 C-16.10598801 51.19172489 -13.84429155 52.53706676 -10.6875 55.0625 C-9.6975 56.7125 -8.7075 58.3625 -7.6875 60.0625 C-16.2675 60.0625 -24.8475 60.0625 -33.6875 60.0625 C-32.6975 59.0725 -31.7075 58.0825 -30.6875 57.0625 C-33.81875806 54.92407986 -36.81193332 52.99806132 -40.1875 51.25 C-44.17072608 49.00169017 -47.27609987 45.95472638 -49.6875 42.0625 C-50.3515625 39.33984375 -50.3515625 39.33984375 -50.6875 37.0625 C-49.87925781 36.66417969 -49.07101563 36.26585937 -48.23828125 35.85546875 C-47.16964844 35.32566406 -46.10101563 34.79585937 -45 34.25 C-43.41638672 33.46689453 -43.41638672 33.46689453 -41.80078125 32.66796875 C-39.01973304 31.2338272 -36.34845433 29.70646622 -33.6875 28.0625 C-33.6875 28.7225 -33.6875 29.3825 -33.6875 30.0625 C-32.35711551 30.4074145 -31.02292939 30.73766582 -29.6875 31.0625 C-28.841875 31.289375 -27.99625 31.51625 -27.125 31.75 C-24.43224036 32.36610761 -24.43224036 32.36610761 -21.6875 30.0625 C-22.6775 29.0725 -23.6675 28.0825 -24.6875 27.0625 C-24.3575 28.0525 -24.0275 29.0425 -23.6875 30.0625 C-25.4375 30.8125 -25.4375 30.8125 -27.6875 31.0625 C-29.9375 29.125 -29.9375 29.125 -31.6875 27.0625 C-30.6875 24.0625 -30.6875 24.0625 -28.5 22.875 C-25.41945494 21.98506476 -22.87884572 21.92066241 -19.6875 22.0625 C-19.0275 22.0625 -18.3675 22.0625 -17.6875 22.0625 C-17.6875 21.4025 -17.6875 20.7425 -17.6875 20.0625 C-19.6675 19.4025 -21.6475 18.7425 -23.6875 18.0625 C-9.11565675 0.21199202 -9.11565675 0.21199202 0 0 Z " fill="#BB9056" transform="translate(51.6875,3.9375)"/>
<path d="M0 0 C8.58 0 17.16 0 26 0 C23.42036472 1.71975685 21.05405945 2.91174003 18.25 4.1875 C12.11363683 7.21979642 6.54375336 11.43271369 4 18 C3.83249586 20.66709069 3.83249586 20.66709069 4 23 C4.40089844 22.443125 4.80179687 21.88625 5.21484375 21.3125 C9.58457703 15.44655419 14.38387928 10.67373312 20 6 C20.66 6.33 21.32 6.66 22 7 C21.4328125 7.67160156 20.865625 8.34320313 20.28125 9.03515625 C17.72012758 12.36373829 15.6152838 15.81697159 13.5 19.4375 C10.78792419 24.05173137 8.01040918 28.57333013 5 33 C15.39498852 30.58956788 22.49889934 24.17281226 29 16 C31.625 13.5625 31.625 13.5625 34 12 C34.99 12.33 35.98 12.66 37 13 C34.36 15.64 31.72 18.28 29 21 C29.804375 21.37125 30.60875 21.7425 31.4375 22.125 C34 24 34 24 34.8125 27.1875 C34.874375 28.115625 34.93625 29.04375 35 30 C34.505 28.515 34.505 28.515 34 27 C29.07872966 26.83317728 25.49656104 26.75171948 21 29 C21.33 30.65 21.66 32.3 22 34 C23.65 34 25.3 34 27 34 C26.505 31.525 26.505 31.525 26 29 C26.99 29.66 27.98 30.32 29 31 C29 31.66 29 32.32 29 33 C29.66 33.33 30.32 33.66 31 34 C29.3125 35.5625 29.3125 35.5625 27 37 C22.98385937 36.79404407 20.36101904 35.07608856 17 33 C16.26394531 33.49371094 15.52789062 33.98742188 14.76953125 34.49609375 C13.79371094 35.13675781 12.81789063 35.77742188 11.8125 36.4375 C10.36810547 37.39462891 10.36810547 37.39462891 8.89453125 38.37109375 C6.15022243 39.91546187 4.09581657 40.59816641 1 41 C4.77184631 49.75068344 9.43893611 53.90557814 18 58 C19.69859667 59.29241051 21.37609523 60.61490475 23 62 C18 64 18 64 0 64 C0 42.88 0 21.76 0 0 Z " fill="#261E2B" transform="translate(0,0)"/>
<path d="M0 0 C0.66 0.33 1.32 0.66 2 1 C1.13375 1.93972656 1.13375 1.93972656 0.25 2.8984375 C-0.4925 3.71570312 -1.235 4.53296875 -2 5.375 C-2.7425 6.18710937 -3.485 6.99921875 -4.25 7.8359375 C-6.20959813 9.79533992 -6.20959813 9.79533992 -6 12 C0.02328578 15.01164289 7.93536874 12.7685392 14.06640625 11.046875 C16.20276433 10.16547397 16.20276433 10.16547397 16.77734375 7.890625 C16.85082031 7.26671875 16.92429688 6.6428125 17 6 C17.99 6.33 18.98 6.66 20 7 C19.23432134 8.58583248 18.46222035 10.16856494 17.6875 11.75 C17.25824219 12.63171875 16.82898437 13.5134375 16.38671875 14.421875 C15 17 15 17 13.375 18.97265625 C11.60032102 21.5892994 11.50081766 23.55305724 11.3125 26.6875 C11.24675781 27.66074219 11.18101563 28.63398437 11.11328125 29.63671875 C11.02978703 31.31771615 11.02978703 31.31771615 11 33 C8.8125 33.375 8.8125 33.375 6 33 C4.84659171 31.55000101 3.69846471 30.09476487 2.6015625 28.6015625 C-0.52061076 25.47938924 -4.88046617 24.35984612 -9 23 C-9 22.34 -9 21.68 -9 21 C-9.78375 20.9175 -10.5675 20.835 -11.375 20.75 C-14 20 -14 20 -15.3125 18.3125 C-16.15900919 15.46515091 -16.13428922 12.95436294 -16 10 C-15.12085937 9.92910156 -14.24171875 9.85820313 -13.3359375 9.78515625 C-9.29773662 8.83471319 -7.59682095 7.28884172 -4.625 4.4375 C-3.75101563 3.61121094 -2.87703125 2.78492188 -1.9765625 1.93359375 C-1.32429688 1.29550781 -0.67203125 0.65742188 0 0 Z " fill="#1A1A1D" transform="translate(38,31)"/>
<path d="M0 0 C1.50626953 0.02707031 1.50626953 0.02707031 3.04296875 0.0546875 C5.48802652 0.10126003 7.93096812 0.16662972 10.375 0.25 C9.6325 0.8275 8.89 1.405 8.125 2 C5.42695055 4.12463839 5.42695055 4.12463839 3.40234375 6.2578125 C1.08485632 8.53511228 -1.39032731 10.27931068 -4.0625 12.125 C-7.27953764 14.4119127 -10.06466358 16.46121811 -12.4375 19.625 C-14.97054159 22.66464991 -16.82394597 23.36603395 -20.625 24.25 C-20.43164062 23.68152344 -20.23828125 23.11304687 -20.0390625 22.52734375 C-18.7918173 18.82882952 -17.57192571 15.14621445 -16.5625 11.375 C-15.625 8.25 -15.625 8.25 -13.625 5.25 C-21.75462368 10.25284534 -28.33206124 16.31059186 -33.625 24.25 C-33.955 24.25 -34.285 24.25 -34.625 24.25 C-35.02587664 20.04079532 -34.64861089 17.32314785 -32.07421875 13.890625 C-22.86046127 3.45995616 -13.86125203 -0.48116496 0 0 Z " fill="#584766" transform="translate(37.625,-0.24999999999999997)"/>
<path d="M0 0 C2.64944454 2.64944454 2.75142887 4.78821572 3.5 8.4375 C4.29387014 12.29898789 4.7996927 14.69953905 7 18 C7.22705078 20.8190918 7.22705078 20.8190918 7.1953125 24.19921875 C7.18886719 25.40771484 7.18242188 26.61621094 7.17578125 27.86132812 C7.15902344 29.12396484 7.14226562 30.38660156 7.125 31.6875 C7.11597656 32.96173828 7.10695313 34.23597656 7.09765625 35.54882812 C7.07405641 38.69940627 7.04113194 41.84960983 7 45 C4.52076199 45.02685095 2.0418116 45.04676547 -0.4375 45.0625 C-1.14455078 45.07087891 -1.85160156 45.07925781 -2.58007812 45.08789062 C-4.38693559 45.09653588 -6.19387603 45.05220011 -8 45 C-9 44 -9 44 -9.08984375 41.8125 C-8.73750865 35.30785195 -7.51501209 31.3028532 -3.47265625 26.16796875 C-0.04770879 21.12593735 0.18496574 16.81730183 -0.4375 10.875 C-1.19130435 3.49565217 -1.19130435 3.49565217 0 0 Z " fill="#B610D3" transform="translate(57,19)"/>
<path d="M0 0 C0.66 0.33 1.32 0.66 2 1 C1.34 2.65 0.68 4.3 0 6 C0.78375 6.7425 1.5675 7.485 2.375 8.25 C5 11 5 11 6.0625 13.1875 C7.72174535 16.39537434 10.72302836 16.90767612 14 18 C13.59007813 17.49210937 13.18015625 16.98421875 12.7578125 16.4609375 C9.60713656 12.4359113 7.26203939 9.04815754 6 4 C6.66 4 7.32 4 8 4 C9.296875 5.94140625 9.296875 5.94140625 10.75 8.5625 C14.06489944 14.27644648 17.45685942 19.30457294 23 23 C21.02 20.36 19.04 17.72 17 15 C17.33 14.34 17.66 13.68 18 13 C18.99 13.33 19.98 13.66 21 14 C21 14.66 21 15.32 21 16 C21.86625 16.0825 22.7325 16.165 23.625 16.25 C27.58151199 17.12922489 29.84320845 18.47456676 33 21 C33.99 22.65 34.98 24.3 36 26 C27.42 26 18.84 26 10 26 C10.99 25.01 11.98 24.02 13 23 C9.86874194 20.86157986 6.87556668 18.93556132 3.5 17.1875 C-1.39733026 14.42322914 -5.25581522 10.49833463 -6.875 5.0625 C-6.91625 4.381875 -6.9575 3.70125 -7 3 C-4.69631264 1.93347808 -2.35981813 0.93578995 0 0 Z " fill="#7F94AD" transform="translate(8,38)"/>
<path d="M0 0 C1.08874245 1.63311367 2.1768548 3.26665105 3.26171875 4.90234375 C6.14203011 9.01369229 8.61720434 11.81168695 13.12109375 14.05859375 C15.31910988 15.15988665 17.360817 16.43513369 19.4375 17.75 C20.11683594 18.17796875 20.79617187 18.6059375 21.49609375 19.046875 C21.99238281 19.36140625 22.48867188 19.6759375 23 20 C19.50956477 22.32695682 17.96265834 23.12649759 13.8671875 23.09765625 C13.14128418 23.09515869 12.41538086 23.09266113 11.66748047 23.09008789 C10.74596191 23.08098389 9.82444336 23.07187988 8.875 23.0625 C5.94625 23.041875 3.0175 23.02125 0 23 C0 15.41 0 7.82 0 0 Z " fill="#000001" transform="translate(0,41)"/>
<path d="M0 0 C1.87037327 2.8055599 2.90492848 5.38504134 4.00537109 8.54833984 C6.23052643 14.94073692 8.37823281 20.44792778 12.8984375 25.6171875 C14 27 14 27 14 29 C12.125 28.75 12.125 28.75 10 28 C9.3142116 26.67640017 8.65018023 25.34144992 8 24 C7.05620684 22.82485922 6.07546511 21.67856589 5.0625 20.5625 C-1 13.65510391 -1 13.65510391 -1 10 C-1.66 10 -2.32 10 -3 10 C1.34062153 18.43164966 1.34062153 18.43164966 7 26 C1.45434687 24.82688107 -0.80058758 23.64430835 -4 19 C-5.07114597 17.71887753 -6.15505659 16.44834393 -7.25 15.1875 C-7.77078125 14.58292969 -8.2915625 13.97835937 -8.828125 13.35546875 C-9.21484375 12.90816406 -9.6015625 12.46085937 -10 12 C-7.6103202 6.20854071 -5.54591194 3.02504288 0 0 Z " fill="#AAC0D3" transform="translate(17,32)"/>
<path d="M0 0 C0.33 0 0.66 0 1 0 C1 1.98 1 3.96 1 6 C0.01 6 -0.98 6 -2 6 C-2.07347656 6.61359375 -2.14695312 7.2271875 -2.22265625 7.859375 C-3 10 -3 10 -4.93359375 11.265625 C-10.95832178 13.63416083 -16.50541162 15.02483413 -23 14 C-23.99 13.34 -24.98 12.68 -26 12 C-24.70308182 8.10924546 -23.33223231 5.47537257 -20 3 C-15.7 3.3 -15.7 3.3 -14 5 C-9.43105613 5.40612834 -7.4898574 4.88815785 -4 2 C-3.01 2 -2.02 2 -1 2 C-0.67 1.34 -0.34 0.68 0 0 Z " fill="#3A3A3A" transform="translate(57,31)"/>
<path d="M0 0 C0 12.21 0 24.42 0 37 C-3 34 -3 34 -3.328125 31.73046875 C-3.30234375 30.89128906 -3.2765625 30.05210938 -3.25 29.1875 C-3.22421875 28.30707031 -3.1984375 27.42664063 -3.171875 26.51953125 C-2.97489706 23.63201375 -2.5962978 20.83241457 -2 18 C-2.66 18 -3.32 18 -4 18 C-4.24234375 17.31292969 -4.4846875 16.62585938 -4.734375 15.91796875 C-5.06953125 15.01691406 -5.4046875 14.11585937 -5.75 13.1875 C-6.23726562 11.84751953 -6.23726562 11.84751953 -6.734375 10.48046875 C-8.15037112 7.70529117 -9.3979826 6.65357212 -12 5 C-12.99 4.34 -13.98 3.68 -15 3 C-9.1563886 0.53953204 -6.76144905 0 0 0 Z " fill="#1D1528" transform="translate(64,0)"/>
<path d="M0 0 C0.66 0.33 1.32 0.66 2 1 C1.4225 1.62648437 0.845 2.25296875 0.25 2.8984375 C-0.4925 3.71570312 -1.235 4.53296875 -2 5.375 C-2.7425 6.18710937 -3.485 6.99921875 -4.25 7.8359375 C-6.20959813 9.79533992 -6.20959813 9.79533992 -6 12 C0.02328578 15.01164289 7.93536874 12.7685392 14.06640625 11.046875 C16.20276433 10.16547397 16.20276433 10.16547397 16.77734375 7.890625 C16.85082031 7.26671875 16.92429687 6.6428125 17 6 C17.99 6.33 18.98 6.66 20 7 C18.155488 12.14521767 17.11931785 14.56832402 12 17 C11.01 17.66 10.02 18.32 9 19 C3.53597734 19.686997 -2.1421852 19.90903007 -7.125 17.3125 C-10.06263701 14.94961806 -11.09677683 13.61289268 -12 10 C-11.46890625 9.61328125 -10.9378125 9.2265625 -10.390625 8.828125 C-6.67177773 6.08649307 -3.14670262 3.40892784 0 0 Z " fill="#232223" transform="translate(38,31)"/>
<path d="M0 0 C0 5.61 0 11.22 0 17 C-4.29 17 -8.58 17 -13 17 C-11.99025605 10.94153627 -11.52068905 9.86101454 -7.5625 5.6875 C-6.75941406 4.82511719 -5.95632812 3.96273437 -5.12890625 3.07421875 C-1.97363465 0 -1.97363465 0 0 0 Z " fill="#321732" transform="translate(64,47)"/>
<path d="M0 0 C1.32 0.33 2.64 0.66 4 1 C4 1.66 4 2.32 4 3 C5.299375 3.12375 5.299375 3.12375 6.625 3.25 C10.58151199 4.12922489 12.84320845 5.47456676 16 8 C16.99 9.65 17.98 11.3 19 13 C10.42 13 1.84 13 -7 13 C-4.12700258 10.12700258 -0.87381556 10.29149503 3 10 C3.99 10 4.98 10 6 10 C5.566875 9.44570313 5.13375 8.89140625 4.6875 8.3203125 C3.8521875 7.23363281 3.8521875 7.23363281 3 6.125 C2.1646875 5.04605469 2.1646875 5.04605469 1.3125 3.9453125 C0 2 0 2 0 0 Z " fill="#5E5A79" transform="translate(25,51)"/>
<path d="M0 0 C-2.81064107 1.87376071 -5.49883458 3.16048362 -8.5625 4.5625 C-17.73958541 9.11771189 -24.39673034 15.50472019 -30 24 C-30.33 24 -30.66 24 -31 24 C-31.40087664 19.79079532 -31.02361089 17.07314785 -28.44921875 13.640625 C-20.57717024 4.72887197 -12.1704706 -0.90151634 0 0 Z " fill="#B20DCF" transform="translate(34,0)"/>
<path d="M0 0 C0.66 0.33 1.32 0.66 2 1 C1.9278125 1.78246094 1.855625 2.56492188 1.78125 3.37109375 C1.64203125 4.88896484 1.64203125 4.88896484 1.5 6.4375 C1.36078125 7.95150391 1.36078125 7.95150391 1.21875 9.49609375 C1.05845072 11.24582664 1.05845072 11.24582664 1 13 C-1.1875 13.375 -1.1875 13.375 -4 13 C-5.15340829 11.55000101 -6.30153529 10.09476487 -7.3984375 8.6015625 C-10.52061076 5.47938924 -14.88046617 4.35984612 -19 3 C-19 2.67 -19 2.34 -19 2 C-17.19402344 1.90912109 -17.19402344 1.90912109 -15.3515625 1.81640625 C-13.77602923 1.73200268 -12.20050904 1.64735459 -10.625 1.5625 C-9.8309375 1.52318359 -9.036875 1.48386719 -8.21875 1.44335938 C-3.97398779 1.31106596 -3.97398779 1.31106596 0 0 Z " fill="#470034" transform="translate(48,51)"/>
<path d="M0 0 C5.15117452 2.36675586 6.94555909 7.10156011 8.89453125 12.09765625 C9.3125 14.0625 9.3125 14.0625 8.3125 18.0625 C7.6525 15.4225 6.9925 12.7825 6.3125 10.0625 C5.3225 10.3925 4.3325 10.7225 3.3125 11.0625 C2.6525 10.7325 1.9925 10.4025 1.3125 10.0625 C1.3125 9.4025 1.3125 8.7425 1.3125 8.0625 C-2.3175 7.4025 -5.9475 6.7425 -9.6875 6.0625 C-9.6875 5.4025 -9.6875 4.7425 -9.6875 4.0625 C-3.53618421 0.08223684 -3.53618421 0.08223684 0 0 Z " fill="#A2BACE" transform="translate(51.6875,3.9375)"/>
<path d="M0 0 C2.6015625 -0.29296875 2.6015625 -0.29296875 5.625 -0.1875 C7.12933594 -0.14689453 7.12933594 -0.14689453 8.6640625 -0.10546875 C9.43492188 -0.07066406 10.20578125 -0.03585937 11 0 C6.70928509 3.64060659 2.08018335 6.31511338 -2.828125 9 C-6.51146217 11.04985721 -9.78591842 13.27290048 -13 16 C-11.64501953 11.77305006 -9.89887135 9.68900063 -6.5 6.875 C-3.79782019 4.62025906 -1.96833114 2.95249671 0 0 Z " fill="#876A9C" transform="translate(37,0)"/>
<path d="M0 0 C0 9.24 0 18.48 0 28 C-3 25 -3 25 -3.328125 22.73046875 C-3.30234375 21.89128906 -3.2765625 21.05210938 -3.25 20.1875 C-3.22421875 19.30707031 -3.1984375 18.42664063 -3.171875 17.51953125 C-2.97489706 14.63201375 -2.5962978 11.83241457 -2 9 C-2.66 9 -3.32 9 -4 9 C-4.368 3.48 -4.368 3.48 -2.5625 1.125 C-1 0 -1 0 0 0 Z " fill="#0B0B10" transform="translate(64,9)"/>
<path d="M0 0 C6.93 0 13.86 0 21 0 C15.99474749 3.33683501 11.09992064 5.03333207 5.0625 4.9375 C3.5465625 4.4734375 3.5465625 4.4734375 2 4 C1.34 2.68 0.68 1.36 0 0 Z " fill="#594565" transform="translate(5,0)"/>
<path d="M0 0 C2.25 -0.25 2.25 -0.25 5 0 C5.61875 0.66 6.2375 1.32 6.875 2 C8.97085341 4.39695165 8.97085341 4.39695165 12.75 4.25 C14.35875 4.12625 14.35875 4.12625 16 4 C13.6875 6.5 13.6875 6.5 11 9 C6.54648201 9 3.67259383 7.44839588 0 5 C-0.1875 2.375 -0.1875 2.375 0 0 Z " fill="#3D2C44" transform="translate(0,0)"/>
<path d="M0 0 C1.47919922 0.06960938 1.47919922 0.06960938 2.98828125 0.140625 C3.98214844 0.17671875 4.97601563 0.2128125 6 0.25 C7.13888672 0.31960938 7.13888672 0.31960938 8.30078125 0.390625 C8.96078125 2.040625 9.62078125 3.690625 10.30078125 5.390625 C10.96078125 5.060625 11.62078125 4.730625 12.30078125 4.390625 C11.97078125 8.680625 11.64078125 12.970625 11.30078125 17.390625 C10.97078125 17.390625 10.64078125 17.390625 10.30078125 17.390625 C9.64078125 13.430625 8.98078125 9.470625 8.30078125 5.390625 C7.31078125 5.060625 6.32078125 4.730625 5.30078125 4.390625 C5.30078125 3.730625 5.30078125 3.070625 5.30078125 2.390625 C-0.67742455 3.50520574 -3.64534134 4.57664557 -7.69921875 9.390625 C-4.54571519 0.6578459 -4.54571519 0.6578459 0 0 Z " fill="#67738D" transform="translate(49.69921875,13.609375)"/>
<path d="M0 0 C2.64944454 2.64944454 2.75142887 4.78821572 3.5 8.4375 C4.29387014 12.29898789 4.7996927 14.69953905 7 18 C6.625 20.1875 6.625 20.1875 6 22 C5.01 21.34 4.02 20.68 3 20 C2.01 19.67 1.02 19.34 0 19 C-0.19534474 16.58373582 -0.38153404 14.16734771 -0.5625 11.75 C-0.61857422 11.06808594 -0.67464844 10.38617188 -0.73242188 9.68359375 C-0.98186254 6.2579419 -1.13879745 3.27298823 0 0 Z " fill="#A3B7CC" transform="translate(57,19)"/>
<path d="M0 0 C3.99500618 1.3697164 6.80009492 3.25722422 10 6 C5.07365343 8.62738484 0.44399329 8.14517315 -5 8 C-3.35 5.36 -1.7 2.72 0 0 Z " fill="#2A232F" transform="translate(13,56)"/>
<path d="M0 0 C2.36038857 3.54058286 3.69776886 7.09806253 5.1875 11.0625 C5.47302734 11.79533203 5.75855469 12.52816406 6.05273438 13.28320312 C6.76356416 15.16664262 7.38849705 17.08200952 8 19 C7.67 19.66 7.34 20.32 7 21 C2.37787425 14.93425142 -1.1148286 9.43296154 -3 2 C-2.01 1.34 -1.02 0.68 0 0 Z " fill="#E0E3F5" transform="translate(17,32)"/>
<path d="M0 0 C1.32 1.32 2.64 2.64 4 4 C3.67 4.99 3.34 5.98 3 7 C1.68 6.01 0.36 5.02 -1 4 C-1.49371094 4.85464844 -1.98742188 5.70929687 -2.49609375 6.58984375 C-3.45708984 8.24693359 -3.45708984 8.24693359 -4.4375 9.9375 C-5.07558594 11.03964844 -5.71367188 12.14179687 -6.37109375 13.27734375 C-8 16 -8 16 -9 17 C-9.23287008 18.68183948 -9.41264166 20.3712416 -9.5625 22.0625 C-9.68818359 23.44115234 -9.68818359 23.44115234 -9.81640625 24.84765625 C-9.87699219 25.55792969 -9.93757813 26.26820312 -10 27 C-10.66 26.67 -11.32 26.34 -12 26 C-11.97260329 18.67137908 -10.94488576 13.85138545 -6.47265625 7.97265625 C-5.04037256 6.05407996 -4.00384027 4.16771304 -3 2 C-2.01 2 -1.02 2 0 2 C0 1.34 0 0.68 0 0 Z " fill="#9000AC" transform="translate(60,37)"/>
<path d="M0 0 C2.65214338 2.34553721 3.92178462 4.66622242 5.375 7.875 C7.40480321 12.06830604 9.5095946 14.85863514 13 18 C18 23.46575342 18 23.46575342 18 26 C16.125 25.75 16.125 25.75 14 25 C13.3142116 23.67640017 12.65018023 22.34144992 12 21 C11.05620684 19.82485922 10.07546511 18.67856589 9.0625 17.5625 C3 10.65510391 3 10.65510391 3 7 C2.01 7 1.02 7 0 7 C-1.125 2.25 -1.125 2.25 0 0 Z " fill="#ADC2D5" transform="translate(13,35)"/>
<path d="M0 0 C0.33 0.33 0.66 0.66 1 1 C0.71269945 3.33944736 0.38063221 5.6739143 0 8 C-0.9590625 7.7525 -0.9590625 7.7525 -1.9375 7.5 C-4.6887212 6.83303728 -6.25569698 7.29179277 -9 8 C-8.64005447 5.3364031 -8.28838998 3.41816548 -6.75 1.1875 C-4.3961523 -0.40975379 -2.78481156 -0.29313806 0 0 Z " fill="#DFA829" transform="translate(54,18)"/>
<path d="M0 0 C4.53829228 0.53391674 7.4179638 2.19666732 11 5 C12.875 7.75 12.875 7.75 14 10 C11.36 10 8.72 10 6 10 C5.566875 9.0925 5.13375 8.185 4.6875 7.25 C3.29482729 4.56781551 1.88887243 2.33860395 0 0 Z " fill="#B611D4" transform="translate(30,54)"/>
<path d="M0 0 C0.556875 0.28875 1.11375 0.5775 1.6875 0.875 C4.08494645 2.0413253 6.51596939 3.0339881 9 4 C7.47291037 7.43595166 5.40072955 10.11912454 3 13 C2.690625 12.195625 2.38125 11.39125 2.0625 10.5625 C1.23664655 8.10919595 1.23664655 8.10919595 0 7 C-0.04092937 4.66702567 -0.04241723 2.33294775 0 0 Z " fill="#2F1E31" transform="translate(0,5)"/>
<path d="M0 0 C0.66 0.66 1.32 1.32 2 2 C1.2575 2.66 0.515 3.32 -0.25 4 C-3.46180754 7.17520574 -5.18475721 10.91316847 -7 15 C-8.98 14.34 -10.96 13.68 -13 13 C-9.0580583 8.11950075 -4.88049925 3.9419417 0 0 Z " fill="#8C6028" transform="translate(41,9)"/>
<path d="M0 0 C0 0.66 0 1.32 0 2 C-2.36993056 3.61155278 -4.36307317 4.95588352 -7 6 C-10.0625 5.375 -10.0625 5.375 -13 4 C-14.11375 3.62875 -15.2275 3.2575 -16.375 2.875 C-17.24125 2.58625 -18.1075 2.2975 -19 2 C-19 1.67 -19 1.34 -19 1 C-16.20837429 0.83262201 -13.41670379 0.66606598 -10.625 0.5 C-9.8309375 0.45230469 -9.036875 0.40460937 -8.21875 0.35546875 C-2.2265625 0 -2.2265625 0 0 0 Z " fill="#350020" transform="translate(48,52)"/>
<path d="M0 0 C0.99 0.66 1.98 1.32 3 2 C2.45677238 5.794236 0.9784232 7.2310956 -1.9375 9.625 C-3.00291016 10.51058594 -3.00291016 10.51058594 -4.08984375 11.4140625 C-4.72019531 11.93742187 -5.35054687 12.46078125 -6 13 C-6.66 13.66 -7.32 14.32 -8 15 C-7.4520917 10.7170548 -5.97567196 8.14864359 -3.4375 4.6875 C-2.79683594 3.80449219 -2.15617187 2.92148437 -1.49609375 2.01171875 C-0.75552734 1.01591797 -0.75552734 1.01591797 0 0 Z " fill="#E96CF9" transform="translate(61,42)"/>
<path d="M0 0 C3 2 3 2 3.65234375 4.6796875 C3.74644531 5.73414063 3.84054687 6.78859375 3.9375 7.875 C4.04964844 8.92429687 4.16179688 9.97359375 4.27734375 11.0546875 C4 14 4 14 0 18 C0 12.06 0 6.12 0 0 Z " fill="#0B000D" transform="translate(0,12)"/>
<path d="M0 0 C-2.96186582 1.97457721 -4.78268422 2.52972853 -8.1875 3.3125 C-13.5323947 4.69480035 -17.50830749 6.87044983 -22 10 C-22.99 10.495 -22.99 10.495 -24 11 C-21.60391171 5.25427808 -16.48249105 3.08608983 -11 0.6875 C-7.21206557 -0.18056831 -3.8814667 -0.13384368 0 0 Z " fill="#DF5FFB" transform="translate(34,0)"/>
<path d="M0 0 C0.99 2.31 1.98 4.62 3 7 C2.34 7 1.68 7 1 7 C0.67 7.99 0.34 8.98 0 10 C-1.231394 7.53721199 -1.07159196 5.7204945 -1 3 C-4.58725264 2.66735219 -4.58725264 2.66735219 -7.6875 4.25 C-9.0648129 6.08641719 -10.0621541 7.90788221 -11 10 C-11.75 8.3125 -11.75 8.3125 -12 6 C-8.36271362 0.60678226 -6.35613404 -0.13817683 0 0 Z " fill="#000000" transform="translate(55,16)"/>
<path d="M0 0 C0.66 0 1.32 0 2 0 C3.296875 1.94140625 3.296875 1.94140625 4.75 4.5625 C7.43511059 9.21184174 10.38520976 13.04094402 14 17 C11 17 11 17 9.0625 15.2421875 C0 4.84090909 0 4.84090909 0 0 Z " fill="#768AA5" transform="translate(14,42)"/>
<path d="M0 0 C0.99 0.33 1.98 0.66 3 1 C3 3.97 3 6.94 3 10 C1.35 10 -0.3 10 -2 10 C-1.125 2.25 -1.125 2.25 0 0 Z " fill="#635072" transform="translate(61,54)"/>
<path d="M0 0 C3.55780196 0.60990891 6.6828589 1.5783681 10 3 C9.34 4.65 8.68 6.3 8 8 C7.34 8 6.68 8 6 8 C5.34 8.66 4.68 9.32 4 10 C3.87882812 9.36191406 3.75765625 8.72382812 3.6328125 8.06640625 C3.46523438 7.24011719 3.29765625 6.41382813 3.125 5.5625 C2.96257813 4.73878906 2.80015625 3.91507813 2.6328125 3.06640625 C2.42398437 2.38449219 2.21515625 1.70257813 2 1 C1.34 0.67 0.68 0.34 0 0 Z " fill="#8C663B" transform="translate(17,34)"/>
<path d="M0 0 C2.83022801 0.36397611 3.90783172 0.90764775 5.95703125 2.9609375 C6.87548828 4.15589844 6.87548828 4.15589844 7.8125 5.375 C8.43769531 6.16648437 9.06289063 6.95796875 9.70703125 7.7734375 C10.13371094 8.50820313 10.56039062 9.24296875 11 10 C10.67 10.99 10.34 11.98 10 13 C8.5 11.625 8.5 11.625 7 10 C7 9.34 7 8.68 7 8 C6.401875 7.7525 5.80375 7.505 5.1875 7.25 C2.68373081 5.81927475 1.51927612 4.4308418 0 2 C0 1.34 0 0.68 0 0 Z " fill="#81149C" transform="translate(25,51)"/>
<path d="M0 0 C2 1 2 1 2.7109375 2.78515625 C2.93007812 3.53667969 3.14921875 4.28820313 3.375 5.0625 C4.8145606 9.66909392 6.75073703 13.73415644 9 18 C4.00498145 16.33499382 2.28245173 11.53748662 0 7 C-0.9375 3.4375 -0.9375 3.4375 -1 1 C-0.67 0.67 -0.34 0.34 0 0 Z " fill="#EAECF8" transform="translate(11,36)"/>
<path d="M0 0 C1.5 1.375 1.5 1.375 3 3 C3 3.66 3 4.32 3 5 C4.65 5 6.3 5 8 5 C7.67 3.35 7.34 1.7 7 0 C7.99 0.66 8.98 1.32 10 2 C10 2.66 10 3.32 10 4 C10.66 4.33 11.32 4.66 12 5 C10.3125 6.5625 10.3125 6.5625 8 8 C4.13948478 7.80697424 1.90558095 6.47512452 -1 4 C-0.67 2.68 -0.34 1.36 0 0 Z " fill="#0E0001" transform="translate(19,29)"/>
<path d="M0 0 C2.61048849 1.76725526 3.20897449 3.31963826 4.33203125 6.2421875 C4.67878906 7.10585937 5.02554688 7.96953125 5.3828125 8.859375 C6.05559957 11.509248 5.93433267 12.8293513 5.01953125 15.3671875 C4.78878906 14.78710938 4.55804688 14.20703125 4.3203125 13.609375 C2.15069217 8.4125769 -0.16032781 4.50567352 -3.98046875 0.3671875 C-1.98046875 -0.6328125 -1.98046875 -0.6328125 0 0 Z " fill="#FBFCFE" transform="translate(54.98046875,6.6328125)"/>
<path d="M0 0 C1.32 0 2.64 0 4 0 C5.27253436 3.64793184 6.32829194 7.1936543 7 11 C4.35247996 8.42215154 2.05567935 6.08351902 0 3 C0 2.01 0 1.02 0 0 Z " fill="#71829E" transform="translate(1,41)"/>
<path d="M0 0 C1.65 0 3.3 0 5 0 C5.66 1.98 6.32 3.96 7 6 C5.25 6.75 5.25 6.75 3 7 C0.75 5.0625 0.75 5.0625 -1 3 C-0.67 2.01 -0.34 1.02 0 0 Z " fill="#F1D051" transform="translate(21,28)"/>
<path d="M0 0 C0.33 1.98 0.66 3.96 1 6 C0.67 5.01 0.34 4.02 0 3 C-4.51617599 2.92345464 -8.59085217 2.89771304 -13 4 C-9.11479448 -0.46079152 -5.73379938 -1.91126646 0 0 Z " fill="#000002" transform="translate(34,24)"/>
<path d="M0 0 C1.33998047 0.06960938 1.33998047 0.06960938 2.70703125 0.140625 C3.60808594 0.17671875 4.50914063 0.2128125 5.4375 0.25 C6.46810547 0.31960938 6.46810547 0.31960938 7.51953125 0.390625 C7.51953125 1.050625 7.51953125 1.710625 7.51953125 2.390625 C6.85566406 2.47699219 6.19179688 2.56335938 5.5078125 2.65234375 C-0.50346234 3.60888237 -3.67638513 4.57211908 -7.48046875 9.390625 C-4.33598823 0.68283279 -4.33598823 0.68283279 0 0 Z " fill="#6B4726" transform="translate(49.48046875,13.609375)"/>
<path d="M0 0 C5.28 0 10.56 0 16 0 C12.42571676 2.38285549 9.22365271 2.95891388 5 3 C2 2.0625 2 2.0625 0 1 C0 0.67 0 0.34 0 0 Z " fill="#794F86" transform="translate(10,0)"/>
<path d="M0 0 C-4.83646298 3.22430866 -7.26939984 3.09242903 -13 3 C-12 1 -12 1 -9.875 -0.1875 C-6.28675666 -1.20156877 -3.62486934 -0.71075869 0 0 Z " fill="#3C3144" transform="translate(23,61)"/>
<path d="M0 0 C0.66 0.33 1.32 0.66 2 1 C2 1.66 2 2.32 2 3 C-2.3164922 3.76173392 -5.74433453 4.16063604 -10 3 C-8.02737928 -0.94524143 -3.89976385 -0.1659474 0 0 Z " fill="#D59000" transform="translate(32,26)"/>
<path d="M0 0 C1.41687119 4.25061356 0.19320039 6.71851625 -1 11 C-2.32 11 -3.64 11 -5 11 C-3.77472971 6.94718288 -2.30119506 3.55639236 0 0 Z " fill="#3C3144" transform="translate(60,53)"/>
<path d="M0 0 C0.66 0.33 1.32 0.66 2 1 C0.85793642 2.50287218 -0.28874957 4.00223284 -1.4375 5.5 C-2.39462891 6.75296875 -2.39462891 6.75296875 -3.37109375 8.03125 C-3.90863281 8.6809375 -4.44617188 9.330625 -5 10 C-5.33 10 -5.66 10 -6 10 C-6.125 7.125 -6.125 7.125 -6 4 C-4.02610343 2.02610343 -2.56269497 1.04109483 0 0 Z " fill="#9000AC" transform="translate(9,14)"/>
<path d="M0 0 C0.6875 1.8125 0.6875 1.8125 1 4 C-0.3125 5.5625 -0.3125 5.5625 -2 7 C-2.99 8.485 -2.99 8.485 -4 10 C-4.66 7.69 -5.32 5.38 -6 3 C-5.195625 2.690625 -4.39125 2.38125 -3.5625 2.0625 C-1.10919595 1.23664655 -1.10919595 1.23664655 0 0 Z " fill="#363244" transform="translate(63,5)"/>
<path d="M0 0 C1.24136719 0.47566406 1.24136719 0.47566406 2.5078125 0.9609375 C6.31847819 2.09475973 9.93226312 2.44161689 13.875 2.625 C14.56335937 2.66367187 15.25171875 2.70234375 15.9609375 2.7421875 C17.64023246 2.83548166 19.32007767 2.91878238 21 3 C21 3.33 21 3.66 21 4 C18.24973583 4.05404449 15.50053797 4.09369306 12.75 4.125 C11.97269531 4.14175781 11.19539063 4.15851562 10.39453125 4.17578125 C3.27568856 4.23662606 3.27568856 4.23662606 0 2 C0 1.34 0 0.68 0 0 Z " fill="#070002" transform="translate(25,49)"/>
<path d="M0 0 C1.32 1.32 2.64 2.64 4 4 C3.67 4.99 3.34 5.98 3 7 C1.68 6.01 0.36 5.02 -1 4 C-1.66 5.32 -2.32 6.64 -3 8 C-3.66 8 -4.32 8 -5 8 C-4.34 6.02 -3.68 4.04 -3 2 C-2.01 2 -1.02 2 0 2 C0 1.34 0 0.68 0 0 Z " fill="#7B2E93" transform="translate(60,37)"/>
<path d="M0 0 C1.65 1.65 3.3 3.3 5 5 C2 7 2 7 -1 8 C-1.04241723 5.66705225 -1.04092937 3.33297433 -1 1 C-0.67 0.67 -0.34 0.34 0 0 Z " fill="#D3A46A" transform="translate(41,22)"/>
<path d="M0 0 C0.33 2.31 0.66 4.62 1 7 C-0.65 7 -2.3 7 -4 7 C-4 3 -4 3 -2.5625 1.25 C-1 0 -1 0 0 0 Z " fill="#580A45" transform="translate(48,57)"/>
<path d="M0 0 C4.41889613 1.35021826 6.34345343 3.26115668 9 7 C7.68 7.33 6.36 7.66 5 8 C4.54625 7.236875 4.0925 6.47375 3.625 5.6875 C2.46175508 3.76367186 1.2470585 1.87058776 0 0 Z " fill="#E364FA" transform="translate(35,56)"/>
<path d="M0 0 C0.433125 0.45375 0.86625 0.9075 1.3125 1.375 C3.10798342 3.20024334 3.10798342 3.20024334 6 5 C5 6 5 6 1.4375 6.0625 C0.303125 6.041875 -0.83125 6.02125 -2 6 C-2.33 5.34 -2.66 4.68 -3 4 C-2.01 3.67 -1.02 3.34 0 3 C0 2.01 0 1.02 0 0 Z " fill="#170000" transform="translate(48,22)"/>
<path d="M0 0 C0.66 0 1.32 0 2 0 C6.09326923 6.45 6.09326923 6.45 5.62109375 9.234375 C5.41613281 9.81703125 5.21117187 10.3996875 5 11 C4.16151196 9.54462432 3.32936066 8.08559627 2.5 6.625 C1.80390625 5.40683594 1.80390625 5.40683594 1.09375 4.1640625 C0 2 0 2 0 0 Z " fill="#70809C" transform="translate(14,42)"/>
<path d="M0 0 C-1.38877354 3.35620271 -2.91677965 5.07298728 -6 7 C-6.66 7 -7.32 7 -8 7 C-6.76759083 3.3027725 -4.20634615 0 0 0 Z " fill="#0C0C0C" transform="translate(54,45)"/>
<path d="M0 0 C0.33 0 0.66 0 1 0 C1 2.64 1 5.28 1 8 C-1.475 7.01 -1.475 7.01 -4 6 C-2.69593116 3.98079663 -1.36176581 1.98075027 0 0 Z " fill="#050009" transform="translate(63,47)"/>
<path d="M0 0 C0.99 0.33 1.98 0.66 3 1 C3.73046875 3.06640625 3.73046875 3.06640625 4.1875 5.5625 C4.34605469 6.38878906 4.50460938 7.21507812 4.66796875 8.06640625 C4.77753906 8.70449219 4.88710938 9.34257813 5 10 C1.71669856 7.07651242 1.04133067 4.24542505 0 0 Z " fill="#FFFFFF" transform="translate(16,34)"/>
<path d="M0 0 C0.66 0.33 1.32 0.66 2 1 C1.67 1.66 1.34 2.32 1 3 C1.66 3 2.32 3 3 3 C3 3.66 3 4.32 3 5 C0.69 4.67 -1.62 4.34 -4 4 C-4 3.34 -4 2.68 -4 2 C-2.125 0.9375 -2.125 0.9375 0 0 Z " fill="#7589A3" transform="translate(46,6)"/>
<path d="M0 0 C4 6 4 6 3.625 8.1875 C3.41875 8.785625 3.2125 9.38375 3 10 C0.64551835 7.44931155 0.01672076 6.28982642 -0.1875 2.75 C-0.125625 1.8425 -0.06375 0.935 0 0 Z " fill="#F1F2FA" transform="translate(60,31)"/>
<path d="M0 0 C2.475 0.495 2.475 0.495 5 1 C5 2.32 5 3.64 5 5 C4.34 5.66 3.68 6.32 3 7 C2.87625 6.030625 2.7525 5.06125 2.625 4.0625 C2.41875 3.051875 2.2125 2.04125 2 1 C1.34 0.67 0.68 0.34 0 0 Z " fill="#665144" transform="translate(17,34)"/>
<path d="M0 0 C0.99 0.66 1.98 1.32 3 2 C0.69 3.32 -1.62 4.64 -4 6 C-3.6875 4.125 -3.6875 4.125 -3 2 C-2.01 1.34 -1.02 0.68 0 0 Z " fill="#261C30" transform="translate(41,6)"/>
<path d="M0 0 C1.5625 1.25 1.5625 1.25 3 3 C2.6875 5.1875 2.6875 5.1875 2 7 C1.34 7 0.68 7 0 7 C-1.125 2.25 -1.125 2.25 0 0 Z " fill="#90A2BA" transform="translate(13,35)"/>
<path d="M0 0 C0.598125 0.350625 1.19625 0.70125 1.8125 1.0625 C1.4825 2.0525 1.1525 3.0425 0.8125 4.0625 C-1.65550047 2.91076645 -3.23533565 2.01466435 -5.1875 0.0625 C-2.1875 -0.9375 -2.1875 -0.9375 0 0 Z " fill="#778AA5" transform="translate(20.1875,55.9375)"/>
<path d="M0 0 C0.66 0.33 1.32 0.66 2 1 C0.515 3.475 0.515 3.475 -1 6 C-1.99 5.01 -2.98 4.02 -4 3 C-2.68 2.01 -1.36 1.02 0 0 Z " fill="#839EB5" transform="translate(8,38)"/>
<path d="M0 0 C1.65 0 3.3 0 5 0 C4.67 1.32 4.34 2.64 4 4 C2.68 3.67 1.36 3.34 0 3 C0 2.01 0 1.02 0 0 Z " fill="#FFDE4C" transform="translate(50,22)"/>
<path d="M0 0 C0.99 0.33 1.98 0.66 3 1 C3.33 2.98 3.66 4.96 4 7 C2.02 5.35 0.04 3.7 -2 2 C-1.34 1.34 -0.68 0.68 0 0 Z " fill="#E0E3F5" transform="translate(53,6)"/>
<path d="M0 0 C-0.969375 0.61875 -1.93875 1.2375 -2.9375 1.875 C-6.02835362 3.65678846 -6.02835362 3.65678846 -7 6 C-7.66 5.67 -8.32 5.34 -9 5 C-8 2 -8 2 -5.625 0.25 C-3 -1 -3 -1 0 0 Z " fill="#51415C" transform="translate(51,1)"/>
</svg>
