<?xml version="1.0" encoding="UTF-8"?>
<svg version="1.1" xmlns="http://www.w3.org/2000/svg" width="64" height="64">
<path d="M0 0 C1.18681726 3.56045177 1.09689832 6.43808337 1.0625 10.1875 C1.05347656 11.45980469 1.04445313 12.73210938 1.03515625 14.04296875 C1.02355469 15.01878906 1.01195313 15.99460937 1 17 C4.465 16.505 4.465 16.505 8 16 C8.0928125 15.1028125 8.0928125 15.1028125 8.1875 14.1875 C9.37558782 10.98880202 10.95392489 10.55411995 14 9 C14.75023438 8.57203125 15.50046875 8.1440625 16.2734375 7.703125 C17.11132812 7.24421875 17.94921875 6.7853125 18.8125 6.3125 C19.60269531 5.87550781 20.39289062 5.43851562 21.20703125 4.98828125 C26.68651215 3.04938801 31.10529478 3.35469704 36.28125 5.75 C37.69610878 6.48363048 39.10243946 7.23392978 40.5 8 C41.22703125 8.3815625 41.9540625 8.763125 42.703125 9.15625 C44.47649265 10.08960139 46.23940082 11.04278103 48 12 C48.05784708 16.12494151 48.09354407 20.24977944 48.125 24.375 C48.14175781 25.550625 48.15851563 26.72625 48.17578125 27.9375 C48.18222656 29.05898438 48.18867187 30.18046875 48.1953125 31.3359375 C48.20578613 32.37282715 48.21625977 33.4097168 48.22705078 34.47802734 C48 37 48 37 46 39 C46.18757062 42.82564665 46.18757062 42.82564665 48 46 C48.08631874 47.34267413 48.10706473 48.68974322 48.09765625 50.03515625 C48.09282227 51.24848633 48.09282227 51.24848633 48.08789062 52.48632812 C48.07532227 53.7615332 48.07532227 53.7615332 48.0625 55.0625 C48.05798828 55.91650391 48.05347656 56.77050781 48.04882812 57.65039062 C48.03700373 59.76695663 48.01906769 61.88348685 48 64 C41.66458555 64.05070815 35.32922343 64.08573696 28.99365234 64.10986328 C26.83835901 64.1199211 24.68307932 64.13356899 22.52783203 64.15087891 C19.42997876 64.17513662 16.33230591 64.18648532 13.234375 64.1953125 C12.27070007 64.20563507 11.30702515 64.21595764 10.31414795 64.22659302 C8.96320038 64.22681961 8.96320038 64.22681961 7.58496094 64.22705078 C6.79442322 64.231492 6.0038855 64.23593323 5.18939209 64.24050903 C2.74482453 63.97196847 1.11843965 63.21882157 -1 62 C-1 62.66 -1 63.32 -1 64 C-2.98 64 -4.96 64 -7 64 C-7.66 62.68 -8.32 61.36 -9 60 C-11.41645782 59.83312552 -11.41645782 59.83312552 -14 60 C-14.66 60.66 -15.32 61.32 -16 62 C-16.17765149 54.27736849 -16.30014341 46.55526466 -16.38452148 38.83105469 C-16.41969932 36.20422678 -16.46745018 33.57753568 -16.52807617 30.95117188 C-16.61310307 27.17283373 -16.65271771 23.39630854 -16.68359375 19.6171875 C-16.71972275 18.44509735 -16.75585175 17.2730072 -16.79307556 16.06539917 C-16.79689939 8.10490624 -16.79689939 8.10490624 -14.5005188 4.92095947 C-9.90872131 0.84558723 -6.12952474 -0.13621166 0 0 Z M-5 14 C-5.33 15.98 -5.66 17.96 -6 20 C-5.01 19.34 -4.02 18.68 -3 18 C-3.66 16.68 -4.32 15.36 -5 14 Z M6 33 C7.65 35.64 9.3 38.28 11 41 C13.42267086 41.05167527 13.42267086 41.05167527 16 40 C17.86983745 36.52692672 17.86983745 36.52692672 19 33 C13.74587843 29.39717378 10.74562862 28.25437138 6 33 Z M0 34 C-0.05389087 35.95803507 -0.09274217 37.91648909 -0.125 39.875 C-0.14820313 40.96554688 -0.17140625 42.05609375 -0.1953125 43.1796875 C-0.30060534 46.1371051 -0.30060534 46.1371051 2 48 C3.9550894 46.05625233 3.9550894 46.05625233 5 43 C4.05087419 39.79334894 2.60123211 36.92814955 1 34 C0.67 34 0.34 34 0 34 Z M-12 41 C-14.1519437 44.22791555 -14.20086443 45.28400809 -14 49 C-12.02 49.99 -12.02 49.99 -10 51 C-10.33 47.7 -10.66 44.4 -11 41 C-11.33 41 -11.66 41 -12 41 Z M-10 51 C-9 53 -9 53 -9 53 Z M24 55 C23.34 55.66 22.68 56.32 22 57 C22.99 57 23.98 57 25 57 C24.67 56.34 24.34 55.68 24 55 Z " fill="#897F61" transform="translate(16,0)"/>
<path d="M0 0 C1.18681726 3.56045177 1.09689832 6.43808337 1.0625 10.1875 C1.05347656 11.45980469 1.04445313 12.73210938 1.03515625 14.04296875 C1.02355469 15.01878906 1.01195313 15.99460937 1 17 C1.90621094 16.93039063 2.81242187 16.86078125 3.74609375 16.7890625 C11.35240402 16.45100427 16.2573095 16.77672893 22.42578125 21.39453125 C24 23 24 23 25 26 C26.98 26.33 28.96 26.66 31 27 C30.67 27.66 30.34 28.32 30 29 C24.48463077 29.11205039 19.11530018 28.9379379 13.625 28.375 C4.90873065 27.65379568 -2.4941493 28.44645058 -10 33 C-10.99 33 -11.98 33 -13 33 C-12.98839844 33.73605469 -12.97679687 34.47210938 -12.96484375 35.23046875 C-12.95582031 36.20628906 -12.94679688 37.18210938 -12.9375 38.1875 C-12.92589844 39.15042969 -12.91429687 40.11335938 -12.90234375 41.10546875 C-12.99513378 43.85576513 -13.37888315 46.32479591 -14 49 C-13.01 49.33 -12.02 49.66 -11 50 C-11.03480469 49.08476563 -11.06960937 48.16953125 -11.10546875 47.2265625 C-11.13253906 46.03804687 -11.15960937 44.84953125 -11.1875 43.625 C-11.22230469 42.44164062 -11.25710937 41.25828125 -11.29296875 40.0390625 C-11.19628906 39.03617188 -11.09960938 38.03328125 -11 37 C-10.01 36.34 -9.02 35.68 -8 35 C-7.93941406 36.07121094 -7.87882813 37.14242187 -7.81640625 38.24609375 C-7.73201463 39.64324391 -7.64736594 41.04037857 -7.5625 42.4375 C-7.52318359 43.14455078 -7.48386719 43.85160156 -7.44335938 44.58007812 C-7.52375562 48.08690419 -7.52375562 48.08690419 -6 51 C-6.33 45.06 -6.66 39.12 -7 33 C-5.02 32.505 -5.02 32.505 -3 32 C-1.68 37.61 -0.36 43.22 1 49 C2.98 48.505 2.98 48.505 5 48 C5.66 49.32 6.32 50.64 7 52 C5.68 52 4.36 52 3 52 C3.99 54.97 4.98 57.94 6 61 C6.68707031 60.89300781 7.37414062 60.78601562 8.08203125 60.67578125 C8.98308594 60.55589844 9.88414063 60.43601563 10.8125 60.3125 C11.70582031 60.18488281 12.59914063 60.05726562 13.51953125 59.92578125 C16 60 16 60 17.82421875 61.48046875 C18.21222656 61.98191406 18.60023437 62.48335937 19 63 C18.34 61.68 17.68 60.36 17 59 C18.8125 58.3125 18.8125 58.3125 21 58 C23.25984425 59.73834173 24.39800928 61.59701393 26 64 C22.25006521 64.05811773 18.50024648 64.09363593 14.75 64.125 C13.68652344 64.14175781 12.62304688 64.15851563 11.52734375 64.17578125 C10.50253906 64.18222656 9.47773438 64.18867187 8.421875 64.1953125 C7.47924805 64.20578613 6.53662109 64.21625977 5.56542969 64.22705078 C2.90048059 63.99119213 1.28136908 63.35661659 -1 62 C-1 62.66 -1 63.32 -1 64 C-2.98 64 -4.96 64 -7 64 C-7.66 62.68 -8.32 61.36 -9 60 C-11.41645782 59.83312552 -11.41645782 59.83312552 -14 60 C-14.66 60.66 -15.32 61.32 -16 62 C-16.17765149 54.27736849 -16.30014341 46.55526466 -16.38452148 38.83105469 C-16.41969932 36.20422678 -16.46745018 33.57753568 -16.52807617 30.95117188 C-16.61310307 27.17283373 -16.65271771 23.39630854 -16.68359375 19.6171875 C-16.71972275 18.44509735 -16.75585175 17.2730072 -16.79307556 16.06539917 C-16.79689939 8.10490624 -16.79689939 8.10490624 -14.5005188 4.92095947 C-9.90872131 0.84558723 -6.12952474 -0.13621166 0 0 Z M-5 14 C-5.33 15.98 -5.66 17.96 -6 20 C-5.01 19.34 -4.02 18.68 -3 18 C-3.66 16.68 -4.32 15.36 -5 14 Z M-10 51 C-9 53 -9 53 -9 53 Z " fill="#BCB089" transform="translate(16,0)"/>
<path d="M0 0 C0.33 0.99 0.66 1.98 1 3 C-1.31 3.66 -3.62 4.32 -6 5 C-4.68 7.64 -3.36 10.28 -2 13 C0.45224694 12.89386164 0.45224694 12.89386164 3 12 C3.70211894 10.34795544 4.36971413 8.68076231 5 7 C6.8125 6.25 6.8125 6.25 9 6 C9.825 5.773125 10.65 5.54625 11.5 5.3125 C14 5 14 5 16 6.0625 C18.08469532 7.31576264 18.08469532 7.31576264 20.75 6.125 C21.4925 5.75375 22.235 5.3825 23 5 C23.45207023 8.08914655 23.45542577 10.23175654 21.83984375 12.95703125 C17.93757242 17.85732594 17.93757242 17.85732594 14.125 18.4375 C13.42375 18.293125 12.7225 18.14875 12 18 C11.54625 18.94875 11.0925 19.8975 10.625 20.875 C9 24 9 24 7 26 C3.875 26.125 3.875 26.125 1 26 C0.855625 26.639375 0.71125 27.27875 0.5625 27.9375 C0 30 0 30 -1 31 C-0.030625 31.268125 0.93875 31.53625 1.9375 31.8125 C2.948125 32.204375 3.95875 32.59625 5 33 C5.33 33.99 5.66 34.98 6 36 C5.43539062 35.6596875 4.87078125 35.319375 4.2890625 34.96875 C1.59465349 33.82845404 0.2254446 34.0042705 -2.625 34.5 C-4.9765625 34.90625 -4.9765625 34.90625 -7 35 C-10.00617269 31.99382731 -9.59585316 29.17618402 -10 25 C-9.01 24.67 -8.02 24.34 -7 24 C-7.33 23.34 -7.66 22.68 -8 22 C-9.32 22 -10.64 22 -12 22 C-12.33 22.66 -12.66 23.32 -13 24 C-13.50333542 21.39643759 -14.00279378 18.79223349 -14.5 16.1875 C-14.64308594 15.44951172 -14.78617188 14.71152344 -14.93359375 13.95117188 C-15.50926281 10.92205609 -16 8.090804 -16 5 C-16.99 5.33 -17.98 5.66 -19 6 C-18.67 12.27 -18.34 18.54 -18 25 C-18.99 24.34 -19.98 23.68 -21 23 C-21.51171875 19.7421875 -21.51171875 19.7421875 -21.6875 15.875 C-21.75324219 14.59367187 -21.81898437 13.31234375 -21.88671875 11.9921875 C-21.94279297 10.51105469 -21.94279297 10.51105469 -22 9 C-22.99 10.98 -23.98 12.96 -25 15 C-25.33 15 -25.66 15 -26 15 C-26 12.03 -26 9.06 -26 6 C-17.7606097 1.2465056 -9.47412572 -0.1686788 0 0 Z M-13 7 C-13.05389087 8.95803507 -13.09274217 10.91648909 -13.125 12.875 C-13.14820313 13.96554688 -13.17140625 15.05609375 -13.1953125 16.1796875 C-13.30060534 19.1371051 -13.30060534 19.1371051 -11 21 C-9.0449106 19.05625233 -9.0449106 19.05625233 -8 16 C-8.94912581 12.79334894 -10.39876789 9.92814955 -12 7 C-12.33 7 -12.66 7 -13 7 Z " fill="#8B8163" transform="translate(29,27)"/>
<path d="M0 0 C2.17107122 1.00340302 4.26419069 2.09069237 6.36132812 3.24023438 C7.08835938 3.62179688 7.81539062 4.00335938 8.56445312 4.39648438 C10.33782077 5.32983577 12.10072894 6.2830154 13.86132812 7.24023438 C13.53132813 8.56023438 13.20132813 9.88023438 12.86132812 11.24023438 C9.03545464 12.39958998 6.82542545 11.9603368 3.09960938 10.71289062 C-1.00024278 9.84712778 -5.17849744 10.21178146 -9.34570312 10.36523438 C-12.13867188 10.24023438 -12.13867188 10.24023438 -14.13867188 8.24023438 C-13.47867188 7.58023437 -12.81867187 6.92023437 -12.13867188 6.24023438 C-16.437558 7.75888651 -16.437558 7.75888651 -20.13867188 10.24023438 C-21.80484303 10.2808727 -23.47255282 10.28295538 -25.13867188 10.24023438 C-23.76367188 8.24023437 -23.76367188 8.24023437 -22.13867188 6.24023438 C-21.47867187 6.24023438 -20.81867187 6.24023438 -20.13867188 6.24023438 C-20.13867188 5.58023437 -20.13867188 4.92023437 -20.13867188 4.24023438 C-18.65032397 3.38626426 -17.14716543 2.55809233 -15.63867188 1.74023438 C-14.38570312 1.04414062 -14.38570312 1.04414062 -13.10742188 0.33398438 C-8.56151822 -1.34082224 -4.5470455 -1.6153431 0 0 Z " fill="#EFE2B9" transform="translate(50.138671875,4.759765625)"/>
<path d="M0 0 C1.18681726 3.56045177 1.09689832 6.43808337 1.0625 10.1875 C1.05347656 11.45980469 1.04445313 12.73210938 1.03515625 14.04296875 C1.02355469 15.01878906 1.01195313 15.99460937 1 17 C1.99 17.33 2.98 17.66 4 18 C0.625 18.625 0.625 18.625 -3 19 C-3.66 18.34 -4.32 17.68 -5 17 C-5.061875 17.78375 -5.12375 18.5675 -5.1875 19.375 C-5.455625 20.24125 -5.72375 21.1075 -6 22 C-8.5625 23.3125 -8.5625 23.3125 -11 24 C-11.08333357 19.1666528 -10.95261487 14.76307437 -10 10 C-10.804375 10.66 -11.60875 11.32 -12.4375 12 C-15 14 -15 14 -16 14 C-16.4375 10.875 -16.4375 10.875 -16 7 C-11.47596724 1.50305698 -7.0335332 -0.15630074 0 0 Z " fill="#D3CAAF" transform="translate(16,0)"/>
<path d="M0 0 C0.99 0 1.98 0 3 0 C4.32 5.61 5.64 11.22 7 17 C8.32 16.67 9.64 16.34 11 16 C11.66 17.32 12.32 18.64 13 20 C11.68 20 10.36 20 9 20 C9.99 22.97 10.98 25.94 12 29 C12.68707031 28.89300781 13.37414063 28.78601563 14.08203125 28.67578125 C14.98308594 28.55589844 15.88414063 28.43601562 16.8125 28.3125 C17.70582031 28.18488281 18.59914063 28.05726562 19.51953125 27.92578125 C22 28 22 28 23.82421875 29.48046875 C24.21222656 29.98191406 24.60023437 30.48335937 25 31 C24.34 29.68 23.68 28.36 23 27 C24.8125 26.3125 24.8125 26.3125 27 26 C29.25984425 27.73834173 30.39800928 29.59701393 32 32 C24.41 32 16.82 32 9 32 C8.67 31.01 8.34 30.02 8 29 C6.68 29 5.36 29 4 29 C0.7095155 20.02595135 -1.64172364 10.62585454 -1 1 C-0.67 0.67 -0.34 0.34 0 0 Z " fill="#ECE0B9" transform="translate(10,32)"/>
<path d="M0 0 C3.22344672 2.4340312 4.7746971 4.66204565 7 8 C2.59976502 8.65188666 -1.55074791 9.04081081 -6 8.9375 C-11.38584092 8.87949864 -16.29086047 9.56574966 -21.125 12.125 C-23.77042093 13.35952977 -26.12420987 13.13071773 -29 13 C-26.88576944 8.99408947 -24.58038219 6.73239693 -21 4 C-20.67 3.34 -20.34 2.68 -20 2 C-13.86804746 -0.31017747 -6.44572159 -1.02475701 0 0 Z " fill="#F2E5BC" transform="translate(31,17)"/>
<path d="M0 0 C0.45207023 3.08914655 0.45542577 5.23175654 -1.16015625 7.95703125 C-5.06242758 12.85732594 -5.06242758 12.85732594 -8.875 13.4375 C-9.57625 13.293125 -10.2775 13.14875 -11 13 C-11.45375 13.94875 -11.9075 14.8975 -12.375 15.875 C-14 19 -14 19 -16 21 C-19.125 21.125 -19.125 21.125 -22 21 C-22.33 22.32 -22.66 23.64 -23 25 C-24.32 25.33 -25.64 25.66 -27 26 C-25.6934647 21.25594937 -23.85754162 18.18294413 -20.6875 14.4375 C-19.92824219 13.52871094 -19.16898438 12.61992188 -18.38671875 11.68359375 C-16 9 -16 9 -13.26953125 6.34765625 C-10.80577738 4.1373615 -10.80577738 4.1373615 -10 1 C-9.2575 1.20625 -8.515 1.4125 -7.75 1.625 C-4.2797763 2.09821232 -3.00181184 0 0 0 Z " fill="#252727" transform="translate(52,32)"/>
<path d="M0 0 C0.33 0.99 0.66 1.98 1 3 C-1.31 3.66 -3.62 4.32 -6 5 C-5.34 7.31 -4.68 9.62 -4 12 C-7.82946843 10.54744301 -9.12050295 8.57104439 -11 5 C-12.35091528 7.70183055 -12.33858058 10.11808206 -12.5625 13.125 C-12.64628906 14.22070312 -12.73007812 15.31640625 -12.81640625 16.4453125 C-12.87699219 17.28835937 -12.93757813 18.13140625 -13 19 C-13.33 19 -13.66 19 -14 19 C-14.66 14.38 -15.32 9.76 -16 5 C-16.99 5.33 -17.98 5.66 -19 6 C-18.67 12.27 -18.34 18.54 -18 25 C-18.99 24.34 -19.98 23.68 -21 23 C-21.51171875 19.7421875 -21.51171875 19.7421875 -21.6875 15.875 C-21.75324219 14.59367187 -21.81898437 13.31234375 -21.88671875 11.9921875 C-21.94279297 10.51105469 -21.94279297 10.51105469 -22 9 C-22.99 10.98 -23.98 12.96 -25 15 C-25.33 15 -25.66 15 -26 15 C-26 12.03 -26 9.06 -26 6 C-17.7606097 1.2465056 -9.47412572 -0.1686788 0 0 Z " fill="#746B55" transform="translate(29,27)"/>
<path d="M0 0 C0.99 0.33 1.98 0.66 3 1 C1.68 1.99 0.36 2.98 -1 4 C2.15217921 3.52239709 4.80703031 2.6947131 7.6875 1.375 C9.3271875 0.694375 9.3271875 0.694375 11 0 C11.66 0.33 12.32 0.66 13 1 C12.01 1.66 11.02 2.32 10 3 C11.0695439 4.3027446 11.0695439 4.3027446 13.58984375 4.02734375 C14.69457031 3.99769531 15.79929687 3.96804688 16.9375 3.9375 C22.20942707 3.879503 26.87558652 4.3637288 31.9765625 5.66015625 C34.19535177 6.19543486 34.19535177 6.19543486 37 5 C36.67226629 8.03153686 36.35865103 9.61573103 34.25 11.875 C31.40525065 13.29737468 29.98383376 12.91172698 27 12 C27.33 10.68 27.66 9.36 28 8 C23.6755834 6.78130078 19.46832386 6.48314164 15 7 C14.01 7.804375 14.01 7.804375 13 8.625 C11 10 11 10 9.08203125 9.7890625 C7.53592318 9.42182857 5.99546863 9.03013442 4.4609375 8.6171875 C0.67267347 7.66711493 -3.11620658 7.36988509 -7 7 C-5.68 6.67 -4.36 6.34 -3 6 C-2.814375 5.071875 -2.814375 5.071875 -2.625 4.125 C-2 2 -2 2 0 0 Z " fill="#BFB38C" transform="translate(27,10)"/>
<path d="M0 0 C0.66 2.64 1.32 5.28 2 8 C7.05009595 8.93786082 7.05009595 8.93786082 12 8 C12.33 8.33 12.66 8.66 13 9 C12.82364548 11.69082872 12.38164079 14.32851446 12 17 C9.58145554 17.13536629 7.17050217 17.23420279 4.75 17.3125 C4.06808594 17.35439453 3.38617188 17.39628906 2.68359375 17.43945312 C-1.14572603 17.53239778 -2.68125312 17.29185872 -5.546875 14.66796875 C-6.02640625 13.78753906 -6.5059375 12.90710937 -7 12 C-6.67 11.01 -6.34 10.02 -6 9 C-5.01 10.32 -4.02 11.64 -3 13 C-2.67 12.67 -2.34 12.34 -2 12 C-2.66 11.34 -3.32 10.68 -4 10 C-4.56690141 3.76408451 -4.56690141 3.76408451 -2.5625 1.0625 C-1 0 -1 0 0 0 Z " fill="#F3E6BE" transform="translate(49,47)"/>
<path d="M0 0 C0.33 0 0.66 0 1 0 C1.03738281 1.05960938 1.07476563 2.11921875 1.11328125 3.2109375 C1.17893258 4.59899424 1.24538021 5.98701349 1.3125 7.375 C1.33505859 8.07367188 1.35761719 8.77234375 1.38085938 9.4921875 C1.46984296 11.77288941 1.46984296 11.77288941 2 15 C2.99 15.66 3.98 16.32 5 17 C5.73046875 19.1640625 5.73046875 19.1640625 6.1875 21.625 C6.34605469 22.44226563 6.50460937 23.25953125 6.66796875 24.1015625 C6.77753906 24.72804688 6.88710937 25.35453125 7 26 C8.32 26.33 9.64 26.66 11 27 C10.01 27 9.02 27 8 27 C8 27.66 8 28.32 8 29 C6.02 29 4.04 29 2 29 C1.773125 28.360625 1.54625 27.72125 1.3125 27.0625 C0.14749104 24.72806339 0.14749104 24.72806339 -2.625 24.25 C-3.40875 24.1675 -4.1925 24.085 -5 24 C-4.01 23.67 -3.02 23.34 -2 23 C-2.185625 21.741875 -2.37125 20.48375 -2.5625 19.1875 C-3.00732761 16.17255732 -2.99843846 14.99531539 -2 12 C-1.97072083 9.41924999 -2.065481 6.8562976 -2.16015625 4.27734375 C-2 2 -2 2 0 0 Z M-1 16 C0 18 0 18 0 18 Z " fill="#BBB08F" transform="translate(7,35)"/>
<path d="M0 0 C1.98 0 3.96 0 6 0 C7.18681726 3.56045177 7.09689832 6.43808337 7.0625 10.1875 C7.05347656 11.45980469 7.04445313 12.73210938 7.03515625 14.04296875 C7.02355469 15.01878906 7.01195312 15.99460937 7 17 C7.99 17.33 8.98 17.66 10 18 C6.625 18.625 6.625 18.625 3 19 C2.34 18.34 1.68 17.68 1 17 C0.67 18.65 0.34 20.3 0 22 C-0.99 22 -1.98 22 -3 22 C-2.67 21.67 -2.34 21.34 -2 21 C-1.79087297 19.56806079 -1.63208021 18.12858946 -1.5 16.6875 C-1.22292575 13.69410854 -0.79659016 10.90091582 0 8 C-0.66 8 -1.32 8 -2 8 C-1.0022242 5.00667261 -0.2477975 4.05233685 2 2 C1.34 1.34 0.68 0.68 0 0 Z " fill="#686150" transform="translate(10,0)"/>
<path d="M0 0 C2.72809707 1.2194559 5.40201793 2.4998323 8.05859375 3.8671875 C7.72859375 4.8571875 7.39859375 5.8471875 7.05859375 6.8671875 C2.76859375 6.8671875 -1.52140625 6.8671875 -5.94140625 6.8671875 C-5.28140625 5.8771875 -4.62140625 4.8871875 -3.94140625 3.8671875 C-9.57422224 3.6274932 -14.48679456 4.48188929 -19.94140625 5.8671875 C-20.27140625 5.2071875 -20.60140625 4.5471875 -20.94140625 3.8671875 C-13.77935331 -0.24218714 -8.06392069 -3.10562682 0 0 Z " fill="#CFC9BD" transform="translate(50.94140625,5.1328125)"/>
<path d="M0 0 C0 0.66 0 1.32 0 2 C0.66 2.33 1.32 2.66 2 3 C-1.75 7.875 -1.75 7.875 -4 9 C-6.9375 9.25 -6.9375 9.25 -10 9 C-11.625 7.625 -11.625 7.625 -13 6 C-15.09989652 4.82425289 -15.09989652 4.82425289 -17 4 C-16.4225 3.896875 -15.845 3.79375 -15.25 3.6875 C-12.92114977 3.15439905 -12.92114977 3.15439905 -11.3125 1.4375 C-7.7338258 -0.78708126 -4.1085925 -0.23703418 0 0 Z " fill="#1A1C1B" transform="translate(51,16)"/>
<path d="M0 0 C1.46507646 2.93015292 1.0213589 5.67768231 0.9375 8.90625 C0.85499134 11.06025522 0.85499134 11.06025522 2 13 C2.09683564 14.76867455 2.12979382 16.54118303 2.125 18.3125 C2.12886719 19.72982422 2.12886719 19.72982422 2.1328125 21.17578125 C2.005363 23.88595736 1.60596226 26.35973585 1 29 C1.66 29 2.32 29 3 29 C3.33 31.97 3.66 34.94 4 38 C3.01 38 2.02 38 1 38 C0.34 39.32 -0.32 40.64 -1 42 C-1.02464638 36.17928378 -1.0428343 30.35859766 -1.05493164 24.5378418 C-1.05997267 22.55606559 -1.06680538 20.57429311 -1.07543945 18.5925293 C-1.08751515 15.75047891 -1.09323045 12.90847753 -1.09765625 10.06640625 C-1.10281754 9.17474258 -1.10797882 8.28307892 -1.11329651 7.36439514 C-1.11349177 5.24259399 -1.0621003 3.1208922 -1 1 C-0.67 0.67 -0.34 0.34 0 0 Z " fill="#CCC09D" transform="translate(1,20)"/>
<path d="M0 0 C0.03738281 0.61488281 0.07476562 1.22976562 0.11328125 1.86328125 C0.21189453 3.07564453 0.21189453 3.07564453 0.3125 4.3125 C0.39951172 5.51326172 0.39951172 5.51326172 0.48828125 6.73828125 C1.08206694 9.36272334 1.95780294 10.30820672 4 12 C2.33333333 12 0.66666667 12 -1 12 C-0.34 13.32 0.32 14.64 1 16 C-2.78786597 15.4739075 -5.17152224 14.61896089 -8 12 C-8 11.34 -8 10.68 -8 10 C-9.32 10.33 -10.64 10.66 -12 11 C-12 10.01 -12 9.02 -12 8 C-10.35 8 -8.7 8 -7 8 C-6.9175 7.4225 -6.835 6.845 -6.75 6.25 C-5.66186883 2.98560649 -3.65852651 0 0 0 Z M-5 7 C-5.66 7.66 -6.32 8.32 -7 9 C-6.01 9 -5.02 9 -4 9 C-4.33 8.34 -4.66 7.68 -5 7 Z " fill="#8F8569" transform="translate(45,48)"/>
<path d="M0 0 C0.66 0.66 1.32 1.32 2 2 C-1.76118782 3.67860419 -5.17216134 4.42038278 -9.25 4.9375 C-14.82021293 5.72962357 -19.73573797 7.03705484 -25 9 C-24.21625 8.236875 -23.4325 7.47375 -22.625 6.6875 C-19.92742283 4.09108195 -19.92742283 4.09108195 -18 1 C-12.34106403 -1.34492907 -5.89779045 -1.5461438 0 0 Z " fill="#FBF6E8" transform="translate(29,18)"/>
<path d="M0 0 C1.32 0.33 2.64 0.66 4 1 C4.144375 1.969375 4.28875 2.93875 4.4375 3.9375 C4.67562341 6.86486773 4.67562341 6.86486773 6 8 C6.08631874 9.34267413 6.10706473 10.68974322 6.09765625 12.03515625 C6.09443359 12.84404297 6.09121094 13.65292969 6.08789062 14.48632812 C6.07951172 15.33646484 6.07113281 16.18660156 6.0625 17.0625 C6.05798828 17.91650391 6.05347656 18.77050781 6.04882812 19.65039062 C6.03700373 21.76695663 6.01906769 23.88348685 6 26 C5.01 26 4.02 26 3 26 C3 23.36 3 20.72 3 18 C1.72125 18.20625 0.4425 18.4125 -0.875 18.625 C-3.0546875 18.9765625 -3.0546875 18.9765625 -5 19 C-5.66 18.34 -6.32 17.68 -7 17 C-6.36191406 16.81824219 -5.72382812 16.63648437 -5.06640625 16.44921875 C-4.24011719 16.19785156 -3.41382813 15.94648437 -2.5625 15.6875 C-1.73878906 15.44386719 -0.91507813 15.20023438 -0.06640625 14.94921875 C0.61550781 14.63597656 1.29742187 14.32273437 2 14 C2.33 13.01 2.66 12.02 3 11 C2.67 10.401875 2.34 9.80375 2 9.1875 C0.62924074 6.18896412 1.28475852 4.14706251 2 1 C1.34 0.67 0.68 0.34 0 0 Z " fill="#756D57" transform="translate(58,38)"/>
<path d="M0 0 C0.33 0.99 0.66 1.98 1 3 C-1.31 3.66 -3.62 4.32 -6 5 C-5.34 7.31 -4.68 9.62 -4 12 C-7.82946843 10.54744301 -9.12050295 8.57104439 -11 5 C-11.66 5.66 -12.32 6.32 -13 7 C-13 6.01 -13 5.02 -13 4 C-14.98 4 -16.96 4 -19 4 C-18.67 3.34 -18.34 2.68 -18 2 C-15.48828125 1.3671875 -15.48828125 1.3671875 -12.3125 0.875 C-11.27738281 0.70742188 -10.24226563 0.53984375 -9.17578125 0.3671875 C-6.08398337 0.00971025 -3.10906723 -0.06525778 0 0 Z " fill="#7D745A" transform="translate(29,27)"/>
<path d="M0 0 C2.33524782 2.25740623 4.18705073 4.2805761 6 7 C8.05003955 8.19232613 8.05003955 8.19232613 10 9 C10.1953125 15.0546875 10.1953125 15.0546875 10 17 C9.34 17.66 8.68 18.32 8 19 C5 14.25 5 14.25 5 12 C4.34 12 3.68 12 3 12 C0.58314288 7.77050005 -0.34833144 4.87664009 0 0 Z " fill="#B2A785" transform="translate(17,31)"/>
<path d="M0 0 C1.65 0.66 3.3 1.32 5 2 C4.67 3.32 4.34 4.64 4 6 C-0.48134729 7.29384979 -3.81494316 6.61333104 -8.3125 5.5625 C-9.56675781 5.27503906 -10.82101563 4.98757812 -12.11328125 4.69140625 C-13.06589844 4.46324219 -14.01851562 4.23507813 -15 4 C-14 2 -14 2 -11 1 C-9.29222439 0.95635078 -7.58286886 0.96016632 -5.875 1 C-4.25043671 1.03767103 -2.62433238 1.04657584 -1 1 C-0.67 0.67 -0.34 0.34 0 0 Z " fill="#E8DBB4" transform="translate(59,10)"/>
<path d="M0 0 C0 3 0 3 -1.71484375 4.71875 C-2.44832031 5.3065625 -3.18179688 5.894375 -3.9375 6.5 C-7.28891586 9.14012046 -7.28891586 9.14012046 -9 13 C-10.65 13 -12.3 13 -14 13 C-14 13.99 -14 14.98 -14 16 C-15.98 16 -17.96 16 -20 16 C-18.9375 13.125 -18.9375 13.125 -17 10 C-15.845 9.690625 -14.69 9.38125 -13.5 9.0625 C-10.01955769 8.40865692 -10.01955769 8.40865692 -8.87890625 6.33203125 C-7.94158051 4.16784851 -7.94158051 4.16784851 -7 1 C-5.5459375 1.0309375 -5.5459375 1.0309375 -4.0625 1.0625 C-1.12534105 1.35618499 -1.12534105 1.35618499 0 0 Z " fill="#E8DBB3" transform="translate(47,43)"/>
<path d="M0 0 C0.04254356 1.99954746 0.04080783 4.00041636 0 6 C-1 7 -1 7 -3.8125 7.0625 C-4.864375 7.041875 -5.91625 7.02125 -7 7 C-11.12612615 6.55155147 -11.12612615 6.55155147 -13.75 9.5 C-14.86375 10.7375 -14.86375 10.7375 -16 12 C-16.66 11.67 -17.32 11.34 -18 11 C-17.25943359 10.29423828 -17.25943359 10.29423828 -16.50390625 9.57421875 C-15.54291016 8.64029297 -15.54291016 8.64029297 -14.5625 7.6875 C-13.92441406 7.07261719 -13.28632812 6.45773438 -12.62890625 5.82421875 C-10.7778582 3.99355944 -10.7778582 3.99355944 -10 1 C-9.2575 1.20625 -8.515 1.4125 -7.75 1.625 C-4.2797763 2.09821232 -3.00181184 0 0 0 Z " fill="#0C0D0E" transform="translate(52,32)"/>
<path d="M0 0 C-0.26272013 3.85322864 -0.57291438 5.56137153 -3.3125 8.375 C-6 10 -6 10 -10 10 C-9.9375 7.8125 -9.9375 7.8125 -9 5 C-6.43314355 2.61372642 -3.61081552 0 0 0 Z " fill="#A19672" transform="translate(60,39)"/>
<path d="M0 0 C2.64 0.66 5.28 1.32 8 2 C6.84826645 4.46800047 5.95216435 6.04783565 4 8 C1.375 8.125 1.375 8.125 -1 8 C-1 7.34 -1 6.68 -1 6 C-1.66 5.67 -2.32 5.34 -3 5 C-2.01 3.35 -1.02 1.7 0 0 Z " fill="#20201E" transform="translate(42,37)"/>
<path d="M0 0 C0.99 0 1.98 0 3 0 C3.53181175 2.24743045 4.05007126 4.49807102 4.5625 6.75 C4.85253906 8.00296875 5.14257812 9.2559375 5.44140625 10.546875 C5.93444283 13.59473748 6.07666879 15.17641828 5 18 C0.93387143 12.09755529 0.25680094 7.10054603 0 0 Z " fill="#C0B38C" transform="translate(10,32)"/>
<path d="M0 0 C0.33 0 0.66 0 1 0 C1 3.3 1 6.6 1 10 C1.66 10 2.32 10 3 10 C3 10.99 3 11.98 3 13 C3.99 13.33 4.98 13.66 6 14 C3.6739143 14.38063221 1.33944736 14.71269945 -1 15 C-2.80746134 13.19253866 -2.17303483 10.49554219 -2.1875 8.0625 C-2.20167969 6.98097656 -2.21585938 5.89945313 -2.23046875 4.78515625 C-2 2 -2 2 0 0 Z " fill="#9F9577" transform="translate(14,4)"/>
<path d="M0 0 C1.32 0.33 2.64 0.66 4 1 C4.99 4.96 5.98 8.92 7 13 C6.01 13 5.02 13 4 13 C3.67 12.01 3.34 11.02 3 10 C1.35 9.67 -0.3 9.34 -2 9 C-1.01 8.67 -0.02 8.34 1 8 C0.67 5.36 0.34 2.72 0 0 Z " fill="#827A64" transform="translate(4,50)"/>
<path d="M0 0 C0.99 0.33 1.98 0.66 3 1 C1.68 1.99 0.36 2.98 -1 4 C2.465 3.505 2.465 3.505 6 3 C6 3.99 6 4.98 6 6 C2.8250906 7.9078584 0.89414789 8.1609041 -2.75 7.625 C-3.54921875 7.51414062 -4.3484375 7.40328125 -5.171875 7.2890625 C-5.77515625 7.19367187 -6.3784375 7.09828125 -7 7 C-5.68 6.67 -4.36 6.34 -3 6 C-2.814375 5.071875 -2.814375 5.071875 -2.625 4.125 C-2 2 -2 2 0 0 Z M13 1 C11.35 1.66 9.7 2.32 8 3 C7.67 2.34 7.34 1.68 7 1 C10.75 -0.125 10.75 -0.125 13 1 Z " fill="#867E67" transform="translate(27,10)"/>
<path d="M0 0 C0.93423645 3.01031744 1.04449911 3.86650268 0 7 C0.00827777 9.32191506 0.1283944 11.62329971 0.2578125 13.94140625 C0.17273438 14.62074219 0.08765625 15.30007812 0 16 C-0.99 16.66 -1.98 17.32 -3 18 C-3.33 14.37 -3.66 10.74 -4 7 C-4.66 7.66 -5.32 8.32 -6 9 C-5.69381595 5.32579134 -5.24228216 4.21864487 -2.4375 1.6875 C-1.633125 1.130625 -0.82875 0.57375 0 0 Z " fill="#6D6552" transform="translate(6,9)"/>
<path d="M0 0 C0.33 0 0.66 0 1 0 C1 4.62 1 9.24 1 14 C2.98 14 4.96 14 7 14 C6.67 14.99 6.34 15.98 6 17 C4.02 17.33 2.04 17.66 0 18 C-1.54422728 14.91154544 -1.01767465 11.81256796 -0.9375 8.41015625 C-0.88659364 5.85433812 -0.88659364 5.85433812 -2 3 C-1.34 2.01 -0.68 1.02 0 0 Z " fill="#AFA481" transform="translate(2,15)"/>
<path d="M0 0 C0.804375 0.4640625 0.804375 0.4640625 1.625 0.9375 C4.3984957 2.17827439 7.00042837 2.5909675 10 3 C7.31158141 5.25245881 5.35358125 6.88213958 2 8 C-0.6875 7.0625 -0.6875 7.0625 -3 6 C-2.01 4.02 -1.02 2.04 0 0 Z " fill="#B6AA85" transform="translate(34,12)"/>
<path d="M0 0 C2.25245881 2.68841859 3.88213958 4.64641875 5 8 C4.34 8.66 3.68 9.32 3 10 C1.68 10 0.36 10 -1 10 C-1.33 10.99 -1.66 11.98 -2 13 C-2 11.68 -2 10.36 -2 9 C-1.01 8.67 -0.02 8.34 1 8 C0.67 7.34 0.34 6.68 0 6 C-1.32 6 -2.64 6 -4 6 C-4.33 6.66 -4.66 7.32 -5 8 C-5 6.35 -5 4.7 -5 3 C-4.360625 2.690625 -3.72125 2.38125 -3.0625 2.0625 C-1.06389179 1.1654837 -1.06389179 1.1654837 0 0 Z " fill="#6B6451" transform="translate(21,43)"/>
<path d="M0 0 C0.99 1.32 1.98 2.64 3 4 C2 6.4375 2 6.4375 0 9 C-2.72714162 9.76381481 -5.14167178 9.85942648 -8 10 C-8 9.34 -8 8.68 -8 8 C-7.01 7.67 -6.02 7.34 -5 7 C-3.56051882 5.37117603 -3.56051882 5.37117603 -2.3125 3.4375 C-1.87550781 2.79683594 -1.43851563 2.15617187 -0.98828125 1.49609375 C-0.66214844 1.00238281 -0.33601563 0.50867187 0 0 Z " fill="#EEE2BC" transform="translate(59,45)"/>
<path d="M0 0 C1 3 1 3 -0.0625 5.3125 C-2.43029559 8.59686162 -5.0731072 11.20319132 -8 14 C-8.66 13.67 -9.32 13.34 -10 13 C-9.360625 12.0925 -8.72125 11.185 -8.0625 10.25 C-5.92659391 7.31515194 -5.92659391 7.31515194 -5.5625 4.8125 C-5 3 -5 3 -2.4375 1.25 C-1.2309375 0.63125 -1.2309375 0.63125 0 0 Z " fill="#CDC099" transform="translate(58,29)"/>
<path d="M0 0 C0.56460937 0.32226562 1.12921875 0.64453125 1.7109375 0.9765625 C4.80772022 2.36113089 7.62296228 2.33838068 10.9765625 2.4609375 C13 3 13 3 14.2734375 5.0390625 C14.51320313 5.68617187 14.75296875 6.33328125 15 7 C14.43539062 6.6596875 13.87078125 6.319375 13.2890625 5.96875 C10.59465349 4.82845404 9.2254446 5.0042705 6.375 5.5 C4.0234375 5.90625 4.0234375 5.90625 2 6 C1.34 5.34 0.68 4.68 0 4 C0 2.68 0 1.36 0 0 Z " fill="#6D6654" transform="translate(20,56)"/>
<path d="M0 0 C1.64826111 2.96687001 2.44271087 5.65626525 3 9 C4.32 9.33 5.64 9.66 7 10 C6.01 10 5.02 10 4 10 C4 10.66 4 11.32 4 12 C2.68 12 1.36 12 0 12 C-1.31626692 8.38026598 -2 5.90432869 -2 2 C-1.34 2 -0.68 2 0 2 C0 1.34 0 0.68 0 0 Z " fill="#9E957A" transform="translate(11,52)"/>
<path d="M0 0 C2.12153042 1.85633912 3.41328692 3.61993038 5 6 C3.04233719 6.08082094 1.08373272 6.13910778 -0.875 6.1875 C-2.51082031 6.23970703 -2.51082031 6.23970703 -4.1796875 6.29296875 C-5.11039063 6.19628906 -6.04109375 6.09960938 -7 6 C-7.66 5.01 -8.32 4.02 -9 3 C-7.1875 2.3125 -7.1875 2.3125 -5 2 C-3.25 3.4375 -3.25 3.4375 -2 5 C-2.66 3.68 -3.32 2.36 -4 1 C-2 0 -2 0 0 0 Z " fill="#C8BC97" transform="translate(37,58)"/>
<path d="M0 0 C0.33 0 0.66 0 1 0 C1.25523438 1.04800781 1.25523438 1.04800781 1.515625 2.1171875 C1.75796875 3.02726562 2.0003125 3.93734375 2.25 4.875 C2.48203125 5.77992187 2.7140625 6.68484375 2.953125 7.6171875 C3.79914179 10.14957604 3.79914179 10.14957604 6.109375 11.3203125 C6.73328125 11.54460938 7.3571875 11.76890625 8 12 C6.35 12.33 4.7 12.66 3 13 C-1.88005483 7.75394106 -1.88005483 7.75394106 -2.4375 4.25 C-2 2 -2 2 0 0 Z " fill="#FDF7E5" transform="translate(48,47)"/>
<path d="M0 0 C0.33 1.32 0.66 2.64 1 4 C4.0831351 2.80100302 7.06279492 1.52299523 10 0 C8.63029745 2.95012857 7.17390875 5.5652222 5 8 C4.01 8 3.02 8 2 8 C1.67 8.66 1.34 9.32 1 10 C0.63883954 8.5225254 0.28624952 7.04295325 -0.0625 5.5625 C-0.25972656 4.73878906 -0.45695312 3.91507813 -0.66015625 3.06640625 C-0.82837891 2.04353516 -0.82837891 2.04353516 -1 1 C-0.67 0.67 -0.34 0.34 0 0 Z " fill="#786F5A" transform="translate(49,45)"/>
<path d="M0 0 C0.33 2.64 0.66 5.28 1 8 C0.01 8 -0.98 8 -2 8 C-2.66 9.32 -3.32 10.64 -4 12 C-4 8.37 -4 4.74 -4 1 C-2 0 -2 0 0 0 Z " fill="#E9DEBF" transform="translate(4,50)"/>
<path d="M0 0 C0.33 0.66 0.66 1.32 1 2 C0.22265625 3.7265625 0.22265625 3.7265625 -0.9375 5.625 C-1.618125 6.73875 -2.29875 7.8525 -3 9 C-3.99 8.67 -4.98 8.34 -6 8 C-6.33 6.35 -6.66 4.7 -7 3 C-5.5459375 2.5359375 -5.5459375 2.5359375 -4.0625 2.0625 C-1.15934208 1.30476658 -1.15934208 1.30476658 0 0 Z " fill="#A19672" transform="translate(27,50)"/>
<path d="M0 0 C0.33 0 0.66 0 1 0 C1.33774332 2.22850277 1.6700187 4.45783467 2 6.6875 C2.185625 7.92886719 2.37125 9.17023437 2.5625 10.44921875 C2.92100411 13.35886371 3.08942256 16.07700022 3 19 C2.01 18.34 1.02 17.68 0 17 C-0.41172186 14.24440444 -0.6490261 11.70466569 -0.75 8.9375 C-0.79253906 8.19177734 -0.83507812 7.44605469 -0.87890625 6.67773438 C-0.97163988 4.78699861 -0.99161466 2.89298995 -1 1 C-0.67 0.67 -0.34 0.34 0 0 Z " fill="#6C6552" transform="translate(8,33)"/>
<path d="M0 0 C0.66 0.33 1.32 0.66 2 1 C1.67 3.64 1.34 6.28 1 9 C-0.65 9 -2.3 9 -4 9 C-3.67 8.4225 -3.34 7.845 -3 7.25 C-1.72924102 4.80116138 -1.72924102 4.80116138 -2 1 C-1.34 0.67 -0.68 0.34 0 0 Z " fill="#BDB18A" transform="translate(60,55)"/>
<path d="M0 0 C0.33 0.99 0.66 1.98 1 3 C0.071875 3.7734375 0.071875 3.7734375 -0.875 4.5625 C-3.47476742 7.54458615 -4.11949123 10.18446201 -5 14 C-5.99 14 -6.98 14 -8 14 C-6.58036591 8.32146365 -3.60636039 4.46825784 0 0 Z " fill="#171A1B" transform="translate(33,44)"/>
<path d="M0 0 C-0.33 1.32 -0.66 2.64 -1 4 C-3.875 4.125 -3.875 4.125 -7 4 C-7.66 3.34 -8.32 2.68 -9 2 C-5.5647952 -0.29013653 -4.014669 -0.17842973 0 0 Z " fill="#F6ECCC" transform="translate(45,11)"/>
<path d="M0 0 C0.5625 1.9375 0.5625 1.9375 1 4 C0.67 4.33 0.34 4.66 0 5 C-0.24261665 7.25543624 -0.38332133 9.50945523 -0.5234375 11.7734375 C-1.08363037 14.39073204 -1.96995128 15.3173393 -4 17 C-3.58411954 10.80481527 -2.39748106 5.73310689 0 0 Z " fill="#B6AA85" transform="translate(10,7)"/>
<path d="M0 0 C2.96404505 2.80804268 5.44499019 5.18315774 7 9 C6.34 9.66 5.68 10.32 5 11 C2 6.25 2 6.25 2 4 C1.34 4 0.68 4 0 4 C0 2.68 0 1.36 0 0 Z " fill="#E6DAB3" transform="translate(20,39)"/>
<path d="M0 0 C3.04386724 -0.08226668 5.07175348 0.02391783 8 1 C7.67 2.65 7.34 4.3 7 6 C6.01 5.34 5.02 4.68 4 4 C4 3.34 4 2.68 4 2 C2.68 2.33 1.36 2.66 0 3 C0 2.01 0 1.02 0 0 Z " fill="#726A55" transform="translate(33,56)"/>
<path d="M0 0 C0.33 0 0.66 0 1 0 C1 3.96 1 7.92 1 12 C0.01 12 -0.98 12 -2 12 C-2.05422947 10.5629191 -2.09289723 9.12524538 -2.125 7.6875 C-2.14820313 6.88699219 -2.17140625 6.08648437 -2.1953125 5.26171875 C-2 3 -2 3 0 0 Z " fill="#948967" transform="translate(63,52)"/>
<path d="M0 0 C2.27505004 2.16671432 4.23575092 4.39563231 6 7 C6 7.66 6 8.32 6 9 C4.68 9 3.36 9 2 9 C0.50178941 5.62902617 0 3.79557881 0 0 Z " fill="#FEF8E8" transform="translate(12,52)"/>
<path d="M0 0 C0.99 0.33 1.98 0.66 3 1 C2.67 2.65 2.34 4.3 2 6 C1.01 6.33 0.02 6.66 -1 7 C-1.66 6.34 -2.32 5.68 -3 5 C-2.01 3.35 -1.02 1.7 0 0 Z " fill="#141719" transform="translate(42,37)"/>
<path d="M0 0 C0.66 0 1.32 0 2 0 C0.68 5.28 -0.64 10.56 -2 16 C-2.33 16 -2.66 16 -3 16 C-3.33266291 9.79029227 -2.45029331 5.71735105 0 0 Z " fill="#F7EDCD" transform="translate(8,8)"/>
<path d="M0 0 C-1 3 -1 3 -4 5 C-6.6875 5.125 -6.6875 5.125 -9 5 C-4.5 0 -4.5 0 0 0 Z " fill="#F6ECCC" transform="translate(34,10)"/>
<path d="M0 0 C0.66 0.33 1.32 0.66 2 1 C0.88333826 4.34998521 0.25305075 4.79340222 -2.5625 6.6875 C-3.20316406 7.12449219 -3.84382812 7.56148437 -4.50390625 8.01171875 C-4.99761719 8.33785156 -5.49132812 8.66398438 -6 9 C-6 6 -6 6 -4.6875 4.39453125 C-4.130625 3.87246094 -3.57375 3.35039062 -3 2.8125 C-2.443125 2.28269531 -1.88625 1.75289063 -1.3125 1.20703125 C-0.6628125 0.60955078 -0.6628125 0.60955078 0 0 Z " fill="#AFA37F" transform="translate(7,5)"/>
<path d="M0 0 C0.33 0 0.66 0 1 0 C1.28875 1.11375 1.5775 2.2275 1.875 3.375 C2.69241329 7.00291092 2.69241329 7.00291092 5 9 C3.68 9 2.36 9 1 9 C-1 7 -1 7 -1.1875 3.9375 C-1 1 -1 1 0 0 Z " fill="#9B9173" transform="translate(44,51)"/>
<path d="M0 0 C0.99 1.32 1.98 2.64 3 4 C1.515 6.475 1.515 6.475 0 9 C-0.66 8.67 -1.32 8.34 -2 8 C-1.47731534 5.23723823 -0.89130413 2.6739124 0 0 Z " fill="#BFB38C" transform="translate(59,45)"/>
<path d="M0 0 C1.98 0.495 1.98 0.495 4 1 C3.67 3.64 3.34 6.28 3 9 C2.67 9 2.34 9 2 9 C1.67 7.02 1.34 5.04 1 3 C0.34 3 -0.32 3 -1 3 C-0.67 2.01 -0.34 1.02 0 0 Z " fill="#5C5548" transform="translate(9,5)"/>
</svg>
