<svg fill="#FFFFFF" xmlns="http://www.w3.org/2000/svg"  viewBox="0 0 64 64" width="50px" height="50px"><path d="M 56 2 L 50 8 L 50 11.171875 L 48.908203 12.263672 C 44.362507 8.3635472 38.459989 6 32 6 C 17.641 6 6 17.641 6 32 C 6 46.359 17.641 58 32 58 C 46.359 58 58 46.359 58 32 C 58 26.871 56.509312 22.093453 53.945312 18.064453 L 50.835938 20.642578 C 52.843938 23.960578 54 27.847 54 32 C 54 44.131 44.131 54 32 54 C 19.869 54 10 44.131 10 32 C 10 19.869 19.869 10 32 10 C 37.347156 10 42.25031 11.921436 46.066406 15.105469 L 43.207031 17.964844 C 40.131697 15.498768 36.24951 14 32 14 C 22.059 14 14 22.059 14 32 C 14 41.941 22.059 50 32 50 C 41.941 50 50 41.941 50 32 C 50 28.814 49.164891 25.826469 47.712891 23.230469 L 44.556641 25.847656 C 45.471641 27.707656 46 29.791 46 32 C 46 39.72 39.72 46 32 46 C 24.28 46 18 39.72 18 32 C 18 24.28 24.28 18 32 18 C 35.139763 18 38.028136 19.053304 40.363281 20.808594 L 37.503906 23.667969 C 35.924729 22.619555 34.037745 22 32 22 C 26.477 22 22 26.477 22 32 C 22 37.523 26.477 42 32 42 C 37.523 42 42 37.523 42 32 C 42 30.766 41.766422 29.589047 41.357422 28.498047 L 37.957031 31.316406 C 37.983031 31.540406 38 31.769 38 32 C 38 35.308 35.308 38 32 38 C 28.692 38 26 35.308 26 32 C 26 28.692 28.692 26 32 26 C 32.924769 26 33.797917 26.215242 34.580078 26.591797 L 30.587891 30.583984 C 30.224891 30.945984 30 31.447 30 32 C 30 33.105 30.895 34 32 34 C 32.553 34 33.052063 33.775109 33.414062 33.412109 L 52.828125 14 L 56 14 L 62 8 L 58 8 C 56.895 8 56 7.105 56 6 L 56 2 z"/></svg>