<svg fill="#FFFFFF" xmlns="http://www.w3.org/2000/svg"  viewBox="0 0 50 50" width="50px" height="50px"><path d="M 48.96875 0 C 48.878906 0.00390625 48.777344 0.03125 48.6875 0.0625 L 37.59375 3.75 C 37.433594 3.804688 37.269531 3.90625 37.15625 4.03125 L 14.4375 28.9375 L 17.90625 31.375 C 18.191406 31.574219 18.449219 31.835938 18.65625 32.125 L 21.0625 35.5625 L 45.96875 12.84375 C 46.09375 12.730469 46.195313 12.566406 46.25 12.40625 L 49.9375 1.3125 C 50.058594 0.953125 49.988281 0.550781 49.71875 0.28125 C 49.519531 0.0820313 49.242188 -0.0117188 48.96875 0 Z M 7.4375 26.75 C 7.214844 26.765625 6.984375 26.839844 6.8125 27 L 5.03125 28.65625 C 4.832031 28.839844 4.691406 29.105469 4.6875 29.375 C 4.683594 29.648438 4.808594 29.902344 5 30.09375 L 19.90625 45 C 20.09375 45.1875 20.328125 45.3125 20.59375 45.3125 C 20.597656 45.3125 20.621094 45.3125 20.625 45.3125 C 20.894531 45.308594 21.125 45.191406 21.3125 45 L 23 43.25 C 23.332031 42.90625 23.367188 42.359375 23.09375 41.96875 L 17 33.28125 C 16.933594 33.1875 16.84375 33.097656 16.75 33.03125 L 8.0625 26.9375 C 7.871094 26.800781 7.660156 26.734375 7.4375 26.75 Z M 8.1875 36.125 L 4.28125 41.0625 C 6.695313 41.402344 8.597656 43.304688 8.9375 45.71875 L 13.875 41.8125 Z M 3.5 43 C 1.566406 43 0 44.566406 0 46.5 C 0 48.433594 1.566406 50 3.5 50 C 5.433594 50 7 48.433594 7 46.5 C 7 44.566406 5.433594 43 3.5 43 Z"/></svg>