<?xml version="1.0" encoding="UTF-8"?><svg id="Callout" xmlns="http://www.w3.org/2000/svg" viewBox="0 0 440 200"><defs><style>.cls-1{fill:#fff;stroke-width:0px;}</style></defs><path id="Callout_05" class="cls-1" d="M375.91,27.24h-117.23C242.84,21.5,223.16,11.74,220,0h0S220,0,220,0c-3.16,11.74-22.84,21.5-38.68,27.24h-117.23c-2.21,0-64.09,1.79-64.09,4.01s61.87,4.01,64.09,4.01h117.23c14.2,5.14,31.47,13.52,37.18,23.66.91,6.29-2.42,12.23-4.33,14.45-3.22,3.76-10.83,7.43-17.73,1.97-6.9-5.46-3.6-12.92-3.6-12.92-3.9,3.9-8.46,8.46-13.25,13.24-1.15,1.15-2.47,2.52-3.89,4.09,7.73-3.01,17.93,9.67,9.99,17.79-8.06,8.24-13.97,19.7-14.97,29.01,5.16-15.19,22.6-32.38,28.8-36.44,6.21-4.06,10.27-1.19,10.86,2.27.6,3.46-6.81,6.33-6.81,6.33l5.73,17.91s3.1-2.63,5.97-.48c2.87,2.15.6,8.24-3.7,13.73.5,2.75,1.57,11.12,2.78,21.15,2.73,1.86,7.54,5.78,1.48,12.49,2.11,18.09,4.16,36.5,4.16,36.5,0,0,2.05-18.41,4.16-36.5-6.06-6.71-1.25-10.63,1.48-12.49,1.21-10.04,2.27-18.4,2.78-21.15-4.3-5.49-6.57-11.58-3.7-13.73,2.87-2.15,5.97.48,5.97.48l5.73-17.91s-7.4-2.87-6.81-6.33c.6-3.46,4.66-6.33,10.87-2.27,6.21,4.06,23.64,21.25,28.8,36.44-1-9.31-6.91-20.77-14.97-29.01-7.95-8.12,2.25-20.8,9.99-17.79-1.41-1.57-2.74-2.94-3.89-4.09-4.78-4.78-9.35-9.35-13.25-13.24,0,0,3.29,7.45-3.6,12.92-6.9,5.46-14.51,1.79-17.73-1.97-1.91-2.23-5.24-8.17-4.33-14.45,5.71-10.14,22.98-18.52,37.18-23.66h117.23c2.21,0,64.09-1.79,64.09-4.01s-61.87-4.01-64.09-4.01Z"/></svg>